<svg xmlns="http://www.w3.org/2000/svg" viewBox="0 0 1080 1080"><g fill="#73a942"><path d="M703.45 115.07c4.09-11.71-3.34-24.94-13.84-31.56-10.49-6.62-23.29-8.2-35.61-9.62-13.48-1.55-27.16-3.11-40.57-.97s-26.72 8.45-34.34 19.69c-4.4 6.49-6.64 14.17-8.81 21.71-4.68 16.25-9.37 32.53-12.52 49.15-3.42 18.04-5 36.36-6.57 54.65l-6.21 72.09c-1.09 12.61-2.17 25.27-1.58 37.92.74 15.59 4.4 31.78 14.69 43.51 8.13 9.27 19.64 14.9 31.32 18.86 23.72 8.05 49.45 10.1 74.14 5.92 8.21-1.39 17.1-3.99 21.63-10.98 3.87-5.97 3.58-13.59 3.94-20.69 1.55-30.39 17.34-58.19 23.05-88.07 2.53-13.23 3.05-26.75 3.57-40.21l2.76-71.6c.34-8.81.68-17.68-.49-26.42-1.79-13.39-7.18-26.28-15.46-36.95M779.75 298.96l-1.01 14.84c-.16 2.39-.29 4.94.91 7.01s4.25 3.24 6.05 1.66c.91-.8 1.26-2.06 1.48-3.25 1.46-7.83-.66-16.26-5.66-22.46M729.32 332.99c-5.44 4.55-8.2 11.46-10.77 18.07-1.52 3.92-3.06 8.19-1.9 12.23s6.36 7.07 9.7 4.53c1.89-1.44 2.49-4.02 4.09-5.78 3.42-3.76 9.8-2.42 14.13-5.08 4.07-2.5 5.31-8.16 3.87-12.71s-4.97-8.13-8.76-11.04c-1.24-.95-2.57-1.88-4.1-2.22-3.74-.83-7.22 1.97-10.03 4.57M818.75 350.72c-3.95-2.17-9.05-2.07-12.9.26s-6.32 6.79-6.24 11.3c.03 1.65.38 3.3 1.06 4.81 1.26 2.81 3.59 5.04 6.26 6.59 5.07 2.95 12.3 3.18 16.21-1.2 1.35-1.51 2.17-3.41 2.8-5.33 1.29-3.93 1.8-8.35.12-12.13s-6.04-6.56-10.01-5.37M723.66 100.97c-1.28-2.78-.59-6.17 1.09-8.72s4.22-4.42 6.83-6.03c2.69-1.67 6.5-3.02 8.74-.78 1.08 1.08 1.41 2.74 1.24 4.26-.49 4.28-4.5 7.52-8.73 8.34s-8.59-.33-12.62-1.84"/></g><path d="M268.57 174.63c-.52.63-1.95-.14-1.56 1.35 9.57.19 20.02-2.05 29.91-2.65 11.72-.71 28.39-1.37 39.27.88 5.03 1.04 11.05 2.91 14.06 7 3.4 4.61 2.86 6.81 4.33 10.87 4.02 11.12 8.26 23.02 11.17 34.66.54 2.17 3.89 16.64 3.25 17.24-3.71-1.04-5.41 1.56-8 2.5-6.37 2.29-13.11 4.05-19.99 3.51.39.77 1.35 4.87 1.52 5.07.73.91 2.14-.11 2.32.11.4.47.29 2.31 1.09 3.38 1.37 1.83 10.15.17 13.6.4 6.21.41 21.37 1.36 26.51 2.49 1.26.28 8.68 3.41 8.9 4.15.37 1.24-1.03 3.31-.96 4.89.3 7.07 2.02 31.6-.03 36.77-.44 1.1-1.79.36-1.96 1.24-.44 2.26 1.38 1.18 1.75 1.7.67.96-1.49 12.34-1.68 15.28-.43 6.86.55 16.15-.04 23s-2.94 7.18-8.98 8.04c-7.55 1.07-16.55.77-23.5.99-26.4.82-50.82-.74-76.54-4.02-2.97-.38-6.67-2.32-8.44-2.38-2.09-.07-4.82 2.72-4.57-1.1-2.18 2.39-6.18 1.35-9.28.6-16.24-3.92-35.06-8.64-51.14-10.66-18.56-2.34-37.67-1.92-56.04-3.43-3.39-.28-7.64.54-11.08-.39-12.03-3.26-5.03-20.69-4.41-29.65 1.06-15.47-.97-38.12 3.52-52.42.72-2.3 1.88-7.35 4.17-7.92 1.68-.42 3.22.72 4.69.57 1.05-.11 1.93-1.13 3.06-1.22 1.54-.12 9.77.51 10.6.06 1.35-.75-.22-7.13 2.46-8.52 3.04-1.58.96 8.52 3.04 8.97 3.77-1.55 8.26-.35 11.73-1.02.86-.16 3.68-4.78 4.64-5.55 6.82-5.52 22.81-14.32 31.59-14.41s15.73 3.99 23.25 5.74c12.31 2.86 26.75 2.26 39.61 4.39 9.4 1.56 27.14 7.92 35.15 7.88 5.26-.03 25.81-6.02 32.02-7.98 1.83-.58 8.48-4.01 8.97-4.01.71 0 1.85 1.11.44 2.42-3.83 3.58-21.17 8.45-26.73 9.32-2.23.35-6.09-.92-6.73.23-1.11 1.99 1.76 1.62 2.73 1.69 5.12.38 11.25 2.75 14.31 2.92 1.45.08 8.96-4.55 12.48-3.28 2.24-3.09 8.87-2.67 10.56-5.33.42-.67-2.58-7.69-3.12-9.96-.58-2.44-.79-5.07-1.62-8.38-1.38-5.5-5.41-25.42-8.76-28.24-1.54-1.3-3.87-1.42-4.99-3.01-1.83-2.6-.34-6.39-1.54-8.5-.23-.4-6.19-.6-7.95-1.08-22.87-6.27-47.03-.65-70.54 1.7-25.14 2.5-51.46 2.56-75.15 12.05-6.6 2.65-9.24 6.71-12.94 8.9-1.16.69-3.04.18-3.75.72-.25.2-2.62 5.31-2.76 5.77-.18.6-1.18 6.48-1.35 7.63-.81 5.5.31 11.63-.59 16.37-.34 1.78.02 3.62-2.51 3.01 1.08-12.86-3.38-27.42 7.08-37.41 23.34-14.28 50.79-19.4 77.91-19.59-4.87-10.53.09-15.71 10.76-17.8 7.47-1.47 12.03 7.17 6.81 13.44Zm-14.3-4.37c-3.87 15.39 19.74.76 9.69-3.78-4.99-2.26-5.61 3.04-9.69 3.78m82.43 79.05c-4.26-2.98-17.91-2.57-24.03-3.69-9.51-1.75-19.59-5.63-29.31-7.5-15.24-2.94-30.4-1.84-45.42-5.55-9.43-2.33-13.71-5.07-24.46-4.68-9.28.34-31.24 17.29-38.05 24.06-.79.79-1.41 1.92-1.44 3.06l-1.51-2 5.53-5.99c-3.63-.79-7.4 1.8-10.59 1.91-5.53.18-13.62-2.75-19.37.62-2.11 1.24-4.73 12.05-5.03 14.97-1.36 13.38.53 30.3.03 44.03-.11 2.99-3.53 19.46-2.94 20.31.18.26 4.8 3.02 5.42 3.13 14.77 2.82 34.73.16 49.87 1.12 9.63.61 18.96 3.09 28.2 4.78 47.42 8.69 94.25 15.61 141.8 16.02 5.45-3.19 22.91 3.22 23.23-5.54.26-7.08-1.38-15.74-1.57-22.91-.12-4.81.19-10.83.94-15.45-1.37-1.3-7 6.01-6.98 6.49.02.44 6.45 3.42 4.09 7.03-1.27 1.94-5.36 3.94-7.41 2.51-.91-.63-.48-2.33-1.19-2.04-3.21 1.31-12 23.07-17.01 23.05-3.51-.01-2.36-3.99-2.79-4.86-.7-1.43-2.11-4.17-3.03-5.91-.25-.48-3.9-5.04-4.31-5.12-1.26-.25-4.95 1.9-7.83 1.86-2.54-.04-9.21-.82-11.81-1.27-23.21-4-44.19-3.55-68.2-5.05s-69.99-2.89-91.21-9.55c-1.86-.58-3.13-.98-4.32-2.68 9.82.83 19.7 3.44 29.51 4.49 13.32 1.43 26.87.55 40 3l86.48 3.01c.24-1.44-1.73-1.35-2.78-1.69-17.45-5.69-43.52-10.46-61.78-13.23-22.91-3.47-43.29-.72-66.47-6.53-4.62-1.16-16.49-5.13-20.13-7.59-1.48-1-1.86-2.91-3.34-3.94l-2.48 4.99c2.05-8.91-4.36-26.16-.61-33.64 1.38-2.75 9.61-5.99 12.74-5.81 9.45.56 25.08 9.86 35.63 12.18 21.11 4.64 45.86 3.42 67.44 6.56 9.19 1.34 21.95 3.22 30.83 5.18 4.86 1.08 15.52 6.62 18.53 6.45 3.96-.22 2.28-3.55 2.99-4.84 4.58-8.34 11.09-19.24 7.17-29.3-.27-.68-2.59-4.17-3.02-4.47Zm-9.93 39.87c-.32-.21-6.08-.48-7.47-.96-27.48-9.61-55.99-10.48-84.83-13.18-8.33-.78-18.65-1.05-26.68-3.31-8.54-2.41-17.53-8.17-25.78-10.24-5.39-1.35-14.74-1.2-16.63 5.45-.69 2.44.64 13.73 1.56 16.53 1.22 3.71 6.34 11.01 10.06 12.12 1.58.47 3.24-.35 4.1-.03 10.74 3.93 26.95 9.16 38.35 9.98 2.45.18 5.64-1.38 8.05-1.3 28.52.96 60.06 7.78 86.78 14.16 5.46 1.3 11.55 4.62 17.57 2.47 1.26-1.5 1.03-22.57.07-25.05-.15-.39-4.82-6.4-5.17-6.63ZM343.01 263c2.02 8.7-9.54 20.31-9.97 26.55-.22 3.2 2.51 13.23 2.76 17.95.11 2.07-1.89 12.93.71 13.5 1.57.34 3.99-2.99 4.69-4.29.91-1.7 8.2-21.02 8.31-22.2.2-1.93-3.19-25.72-3.78-27.75-.43-1.49-1.04-3.32-2.73-3.76ZM374 279v15.5c0 .2 2.42 2.08 2.02 3.49 4.97-.09 1.34-4.87 1.99-7.99 2.09-.23.47 3.45.99 4 1.43 1.49 4.66-3.91 7.08-.52 3.16 4.41-5.51 5.02-5.01 7.88.74 2.1 3.53 2.73 4.63 3.91 1.16 1.25.54 3.75 2.28 3.72.22-6.37 1.81-13.24 2.06-19.54.07-1.81-.87-3.41-.85-4.96.05-3.87 2.39-12.95-.1-16.09-1.92-2.42-14.6-1.54-18.54-1.98-2.31-.26-5.74-2.1-9.07-2.4-4.68-.42-9.75.26-14.48-.01-.15 1.84 1.19 3.27 1.51 4.97.89 4.81 4.06 22.96 3.44 26.46-.68 3.83-5.92 18.69-7.56 22.46-.42.96-2.88 5.3-3.39 5.61-1.76 1.06-5.27-.24-6 2.49 4.97 2.83 8.69 2.61 14.01 3.53l10.58-24.45c2.9-2.77 8.04-6.78 9.5-10.52 1.35-3.44-.38-9.53.91-13.55l-17 1 1.06-3.97c6.67 1.08 13.37-.83 19.94.97Zm5.36 35.35c1.05-1.61 4.88-2.55 3.54-6.68-3.28-1.25-7.4-8.98-9.61-9.53-3.08-.78-12.14 9.26-13.69 11.96s-6.75 15.87-6.65 18.45c.07 1.9 6.17 14.85 7.55 15.44 6.66-9.61 12.47-19.85 18.85-29.64ZM680.63 81.43c2.61 1 8.98 4.21 11.84 6.59 4.05 3.37 8.64 11.28 8.55 16.52-.05 2.92-2.3 4.25-1.85 7.69.26 2.02 2.78 7.3 3.99 9.11 3.28 4.87 7.31 5.13 9.06 11.97.44 1.73 1.17 13.15.76 13.7-.97-.48-2.54-.81-2.99-1.77-1-2.08-.29-9.85-1.79-13.94-1.72-4.71-4.28-4.02-7.47-6.26-.96-.68-1.47-2.83-2.28-3.02-.55-.13-8.11 4.04-10.2 4.76-27.94 9.6-51.9.97-80.1-.43l-31.94-8.11c-2.41 3.69-7.04 7.62-9.06 11.45-4.17 7.92-6.93 43.5-7.74 54.73-2.75 38-2.9 78.59-2.96 116.74-.02 12.59 1.7 31.99.61 43.35-.24 2.49-2.04 3.58-2.11 4.99-.04.75 1.44.34 2.03 1.22 1.16 1.73 3.17 6.82 3.97 7.81 9.73 12.1 45.45 18.32 60.55 18.92 16.5.65 31.94-2.6 47.75-4.69l26.74-7.74c.4 5.17-8.97 6.74-10.51 8.98-.83 1.21-.59 4.53-1.43 6.57-6.58 15.99-32.47 10.25-45.73 9.53-16.68-.91-38.82-.75-55.3-5.61-1.77-.52-15.15-6.14-15.75-6.75-3.7-3.67-3.12-11.06-4.52-13.49-.25-.44-3.49-1.97-4.77-3.73-12.97-17.92-3.43-61.19-7.06-83l4.06-81.51c-3.81 2.28-9.29 4.95-13.53 5.97-1.14.27-3.08.54-2.46-1.45.4-1.29 14.47-6.98 15.93-9.09 2.53-3.65 1.66-19.72 3.16-24.94.17-1.64-3.57-3.13-3.79-3.74-4.6-12.78-10.83-26.75-15.23-40.31-.67-2.07-1.07-4.25-1.07-6.43-2.33-.4-2.78 2.16-4.71 2.78-9.72 3.11-19.24 9.16-29.06 12.94-11.72 4.5-26.25 7.47-38.26 11.74-2.72.97-7.31 3.51-9.95 5.05 7.11.66 13.44 4.33 19.99 7s7.54 1.94 13.61 6.34c5.29 3.83 15.49 9.42 19.84 13.21 1.79 1.56 17.37 27.21 18.59 30.41.51 1.33 2.42 7.96 2.5 9.01.33 4.8-4.4 17.28-3.59 20.82.3 1.3 7.39 3.68 8.05 5.69-8.68.36-13.77-6.95-18.4-13.09-15.02-19.9-30.4-40.8-47.31-58.18-.37-.38-5.58-7.33-1.8-5.71.38.16 5.52 4.59 6.23 5.28 13.54 13.21 27.35 36.48 39.94 51.6l9.86 12.1 2.93-7.54c2.55-12.17.3-17.35-5.5-27.69-7.59-13.51-20.42-29.71-35.05-36.16-4.27-1.88-9.7-2.37-14.07-3.93-10.17-3.63-14.67-9.28-26.99-5.35-6.03 1.92-12.93 6.8-18.47 10.04-2.03 1.19-3.64 4.8-8.36 3.64 2.45 11.01 12.16 18.48 17 27.98-.76.79-6.26-4.93-6.85-5.64-3.99-4.84-9-13.59-11.16-19.36-2.08 1.15-4.62.84-6.73 1.77-7.32 3.21-14.15 7.95-21.37 11.63-4.65 2.38-13.19 5.17-17.22 7.59-.6.36-.74 1.33-.68 2.01-7.34-6.43.86-7.29 5.69-9.82 10.57-5.53 21.44-12.36 32.32-16.7.92-.37 2.55.39 3.02.06 3.42-2.39-3.81-10.57-3.01-11.53 6.33 3.64 2.93 10.32 12.05 6.52 2.83-3.88 22.48-8.57 23.91-10.62.45-.65-1.33-2.59-.97-2.89 2.54-.04 4.37.88 7.01.59 4.04-.44 21.67-7.28 26.94-9.15 17.38-6.16 31.9-14.34 48.3-21.7 1.73-.78 8.66-1.86 9.57-2.91 1.97-2.29-3.55-10.34-1.82-13.85 4.61 3.69 2.4 15.61 10.98 10 .59 2.88-3 3.18-4.04 4.72-1.12 1.66.97 7.78 1.81 10.01 2.5 6.6 7.67 12.83 8.73 20.27l7.49 12.99c1.07-7.68.76-20.99 3.49-28.01 1.9-4.89 10.3-11.86 12.92-18.08 2.34-5.56.81-10.68 2.81-16.19 4.09-11.25 9.99-11.96 20.22-14.88 27.06-7.72 54.73-9.89 82.2.6Zm2.1 3.97c-24.97-10.85-58.81-9.99-83.94-.11-2.13.84-14.44 8.22-15.28 9.72-.78 1.39-2.27 8.81.48 8.99.17-8.91 8.43-13.86 15.78-16.74 20.9-8.18 54.56-7.22 75.89.49 8.9 3.22 19.57 9.26 18.33 20.25-4.15-.3-4.52-6.71-6.41-9.08-5.61-7.03-32.66-12.56-41.58-12.42 2.89 1.99 4.65 5.45 3.97 8.99-.54 2.8-3.93 3.15-3.96 4.02-.03 1.12 13.16 11.69.19 14.25-1.03.2-10.53.46-11.73.35s-11.74-2.94-12.27-3.29c-2.83-1.9 3.19-8.24 1.76-9.77-.12-.13-2.28-.04-3.51-.97-.42-.31-4.15-5.35-4.28-5.79-1.08-3.61 1.37-4.25 1.82-7.27-4.44-.33-8.16 2.12-12.2 3.37-3.24 1-6.58 1.23-9.71 3.17-2.07 1.28-3.65 3.71-6.59 4.47l-2.49 6.98c.99.03 2.39-.18 3.23.24 10.32 5.14 19.39 7.29 30.32 9.2 18.73 3.27 52.67 6.06 69.8-1.59 5.65-2.52 9.5-6.43 7.46-13.14-.16-.51-5.37-8.59-5.73-8.99s-8.75-5.06-9.33-5.31Zm-52.74 4.61c-21.01-.87-3.69 6.53-2.59 10.95.5 2-1.37 4.82.06 7.1 2.44 1.32 18.8 2.05 19.54.93 1.62-2.49-4.65-4.92-4.99-8.56-.26-2.81 5.15-7.91 1.99-10.43-1.9-1.51-3.61 5.56-5.99 5.5l3.01.5c.43 5.51-14.17 4.41-15.02 1.29-.21-.77-.22-6.07 0-6.29.53-.53 4.23 1.11 4-.98Zm-17.99 30-12.54-2.97-17.45-7.04c-.41 2.23 3.99 4.39 5.44 5.05 5.5 2.5 15.8 5.12 21.83 6.23 1.53.28 2 1.03 2.72-1.27m86-.02c-1.91-8.62-4.01-3.34-7.77-2.26-14.77 4.21-42.28 6.41-57.76 6.06-2-.05-7.64-3.64-9.46.2 18.5 2.09 37.97 6.45 56.4 1.91 6.31-1.55 12.12-4.96 18.6-5.91Zm-16 256.02c-5.58-1.62-10.23 2.05-14.57 2.92-24.21 4.89-53.73 3.97-77.7-2.4-5.75-1.53-14.81-6.07-20.04-6.68-.59-.07-2.3-1.52-2.7.67-.26 1.45 3.39 5.34 4.82 6.16 7.78 4.45 15.82 2.98 23.73 3.87 15.13 1.72 29.98 3.87 44.78 5.82 9.3 1.22 26.56 3.09 34.92-.64 3.77-1.68 4.85-6.43 6.76-9.73Z"/><path d="M762.06 358.95c2.4 2.11 27.08-12.97 32.94-10.94l-15.71 6.29c-1.86 4.5-14.83 5-14.38 10.17l35.2 82.46L845 429c-.48 5.06-7.62 4.82-11.19 6.3-10.97 4.57-21.66 9.94-32.78 14.2 2.33 1.69 1.83 4.72 2.97 6.81.33.6 1.6.74 1.97 1.44 6.39 12.07 10.08 22.06 15.34 34.44 3.74 8.79 9.64 17.38 10.7 26.81.88.79 16.56-6.53 18.98-7.72 8.27-4.08 17.56-10.47 25.79-14.01 3.73-1.6 9.26-2.69 13.22-4.26l-5.77 5.72c-14.72 5.04-27.94 13.39-42.22 19.77-5.23 2.33-7.32-.28-6.05 8.06.98 6.46 6.48 19.2 9.15 25.64 4.83 11.65 11.56 23.39 17.88 34.58.93 1.64.39 4.8 2.53 6.22.37.17.64-1.61 1.72-2.32 6.79-4.51 19.79-11.48 27.07-14.88 1.61-.75 13.2-5.31 13.7-4.79.23 4.96-2.81 3.28-4.17 4.07-1.91 1.1-3.39 3.18-6.75 3.5-8.42 6.39-18.26 11.27-27.61 16.39l-1.41 2.49 41.49 87.55c1.49 1.96 4.13-.52 6.46.01-2.77 3.43-9.63 4.8-14 4.98 1.07-3.05 7.15-1.04 5.6-5.07l-43.09-83.92c-5.03-3.75-7.83 4.76-13.5 2.99-.43-2.25 2.49-3.15 4.08-4.4 3.35-2.65 6.79-2.09 4.71-8.89-.51-1.69-2.82-2.71-3.67-4.32-9.75-18.52-18.22-37.36-25.88-57.14-.49-1.26-.2-2.89-.24-4.25l-8.99 2.01c-.46-3.35 4.19-2.28 5.54-5.01 1.5-3.04-4.65-11.73-5.94-15.11-7.08-18.5-12.85-34.34-22.24-51.76-1.2-2.23-4.09-3.99-4.18-4.27-.39-1.18-.45-8.55-1.89-12.63-3.89-11.06-9.04-23.8-13.69-35.34-5.27-13.08-10.31-26.32-16.68-38.83-1.76-1.27-9.88 4.34-12.06 5.35-2.95 1.37-6.1 1.88-8.62 2.87-.26.1-2.9 4.04-3.56 4.4-1.73.93-4.85.97-7.37 2.15-3.79 1.78-6.93 6.31-9.57 7.43-3.96 1.67-8.67 3.11-12.68 5.31-2.77 1.52-4.67 4.68-9.12 4.99L730.05 473l8.99-2.99c-1.34 3.2-7.24 5.53-6.63 9.01l28.13 71.01c2.69 2.72 5.12-1.46 6.26-1.95.97-.41 2.68.12 4.18-.62 1.23-.61 8.82-5.12 8.85-5.95-3-3.94-3.95-9.4-5.92-13.68-3.85-8.34-10.11-16.66-14.25-24.96-10.17-20.4-15.92-41.53-21.85-63.15-4.96-18.11-12.72-35.03-7.46-53.93.29-1.03.24-3.03 1.68-2.79.9 5.46-2.3 12.32-1.98 17.41.57 8.9 9.12 25.55 10.88 35.19 4.89 30.81 19.28 56.56 31.84 84.16 8.06 17.7 15.15 39.41 23.87 56.13 4.26 8.17 9.35 9.17 12.88 14.1 1.32 1.84 1.19 4.44 3.03 6 2 .59 1.12-1.1 2.22-1.97 3.87-3.06 16.9-12.47 21.26-11.6 5.16 1.03 4.62 4.29 4.99 8.58-2.52-.39-2.43-3.77-3.26-4.71-1.83-2.07-6.43-1.05-7.72 1.22-1.21 2.11 1.73.68 2.45 1.42.53.54 5.93 8.7 5.54 9.06-3.71.59-5.7-7.42-8.36-6.91-2.65 1.46-20.9 15.96-22.63 13.92-1.85-2.18 1.68-4.31 1.91-4.78 3.51-7.38-6.36-11.56-9.94-15.69-5.33-6.16-8.75-19.64-11.94-27.06-.72-1.68-5.45-11.65-6.01-12.02-2.36-1.54-7.21 4.87-9.01 5.94-.58.35-1.89-.26-2.35-.01-1.89.99-3.14 2.89-5.62 2.7-1.68 1.83 12.73 30.18 14.45 34.94 2.71 7.48 3.84 16.09 6.45 23.55 2.19 6.27 6.04 12.95 8.07 19.45 3.45-1.61 6.55-3.79 9.88-5.65 2.49-1.39 2.24-1.3 5.28-2.63s14.11-6.07 6.5-.54c-3.26 2.36-7.1 4.77-10.02 6.46-3.47 2.01-10.96 3.5-9.47 7.63l35.97 76.57 6.85-.83c-1.34 5.86-7.22-.19-4.54 8.04 5.63 17.33 20.66 52.84 31.04 66.97 1.11 1.51 3.34 1.9 3.45 2.07.21.34-1.33 2.13-.85 2.77.85 1.16 1.36 1.13 2.91 3.63 2.05 3.3 5.82 5.97 4.99 10.52l-11.59-15.39c-9.27-16.6-18.32-34.79-25.29-52.41-2.6-6.57-4.06-13.73-7.2-20.12-2.68-1.97-26.48 12.21-31.91 10.92 8.05-6.44 19.34-9.86 29-13.49l.84-2.76c-2.8-6.2-5.37-12.65-8.31-18.77-6.67-13.87-15.05-26.55-21.26-40.74-2.47-5.64-4.58-12.29-6.27-18.24-1.62-.35-8.63 3.32-8.98 3-2.44-2.24 9.35-4.27 6.78-7.24l-31.28-73.77-1.05-.99c-2.81-.76-10.59 7.03-14.47 5.99l12.77-9.45-27.74-73.05c-.62-.76-.91-1.39-2.09-1.1-1.64.41-9.68 7.07-12.42 8.64-4.08 2.34-9.13 4.08-13.17 6.83-11.25 3.52-20.55 10.59-32.36 13.13l57.76-33.45-12.53-37.27c-6.96-12.47-11.03-26.4-17.24-39.27l-64.8 34.17c-1.45 2.48 5.35 11.82 6.55 14.6 4.61 10.69 6.53 16.04 12.3 26.7.65 1.21 1.36 1.9.97 3.52-.24.26-6.4-1.98-6.73-2.26-.47-.38-5.46-9.31-5.99-10.51-3.12-6.97-4.81-15.88-7.84-23.16-.91-2.19-3.24-3.82-2.43-7.07l-74.99 33.99c2.61-3.55 7.36-4.92 10.68-6.81 18.62-10.56 37.46-19.6 56.39-29.64 1.34-.71 3.79-.41 3.93-.55 2.07-1.92-7.77-21.07-6.99-24.99 4.51 1.72 8.07 21.9 11.48 21.89.29 0 3.41-2.49 4.8-3.13 13.57-6.26 27.85-15.32 41.53-22.66 4.41-2.37 13.99-5.48 17.58-8.01 1.16-.82.38-2.88.6-3.1.3-.31 2.22.9 3.31.7 3.03-.58 18.65-8.51 22.45-10.44 1.72-.88 1.95-2.68 2.98-3.26 11.98-6.76 23.37-14.62 37.22-17.02.96-1.12-6.06-16.33-7.19-19.24s-1.59-4.72-2.37-6.82c-3.15-8.5-7.15-16.84-8.4-25.9 1.4-.24 1.36 1.68 1.74 2.73 3.14 8.59 5.7 17.57 8.83 26.18 4.14 6.46 7.29 13.65 9.47 21.03ZM444.99 340c1.69 1.45-1.24 2.2-1.86 2.59-7.46 4.73-15.62 7.64-22.79 12.2-1.2.76-4.2.69-4.39 1.79l33.29 78.16c3.21 2.51 5.33-1.97 7.87-3.15 5.41-2.51 11.34-4.17 16.92-7.08 15.92-8.29 31.04-18.59 46.55-27.48.85-1.14-3.22-14.72-4.07-17.04-.79-2.16-2.8-3.99-3.7-6.32s-3.22-8.4-3.65-10.35.3-1.34 1.84-1.33l12.1 32.96c5.33.71 8.76-4.24 13.92-3.95-5.68 6.9-15.88 3.32-9.72 15.21l23.2 49.66-.49 4.12-27.02-59.97h-2.41l-68.1 37.96-.31 2.28 9.02 19.07.34 6.63c-4.08-1.84-4.67-7.6-6.28-10.7-.89-1.72-2.55-2.84-3.44-4.56-.99-1.91-2.21-10.19-6.1-9.59-1.22.19-11.78 8.25-14.35 9.71-16.87 9.55-38.11 19.25-55.65 27.35-2.53 1.17-6.07 1.03-8.22 2.78-3.32 2.71.13 3.18.87 5.02 3.26 8.12 5.8 16.88 9.15 25l14.76-9.24c15.7-6.78 35.97-3.69 50.75-10.43 8.02-3.66 12.82-9.71 18.69-15.7.56-.58 1.07-3.94 3.81-4.63 1.25 3.67-3.82 6.43-5.46 8.76-1.44 2.04-1.97 4.97-3.63 7.15-1 1.31-9.53 8.28-10.62 8.93-.98.59-2.7-.67-3.91-.32-22.31 6.46-41.99 2.51-62.15 17.44-13.51 10.01-18.97 32.77-27.76 47.29-6.81 11.25-20.05 21.37-27.44 32.78-3.16 4.88-9.71 16.98-9.62 22.45.17 11.15 11.94 28.66 7.81 37.74-.65 1.42-2.42 3.92-3.72 2.27 6.41-12.36-6.76-26.28-7.03-39.06-.14-6.59 5.71-18.01 9.38-23.59 1.84-2.8 4.65-4.63 6.11-6.93.67-1.06.22-2.98.73-3.72.49-.7 2.58-.54 3.52-1.49 10.92-11.14 19.49-25.86 26.49-39.01 3.67-6.89 8.41-21.02 14.04-26.46 1.06-1.03 3.58-.67 3.84-1.87.77-3.53-8.46-16.35-10.63-20.33-1.1-2.02-1.12-4.58-1.97-6.03-1.33-2.27-4.72-1.35-5.48-4.55 3.64-1.86 6.49-5.27 10.47-7.52 2.54-1.44 7.3-3.99 9.82-5.18 3.59-1.69 11.39-3.23 14.08-4.74 1.21-.68.35-2.56.71-2.91.6-.58 3.75.16 5.24-.14.63-.13.85-1.85 2.57-2.57 15-6.3 31.21-10.23 43.99-21.01l-31.83-77.97c-2.18-1.31-11.93 5.79-14.14 6.96-17.62 9.29-35.58 17.75-51.89 29.11 1.03.96 7.56 5.27 7.79 5.7.73 1.35-.34 3.26.43 4.6.28.49 2.19.52 2.63 1.82.64 1.86-.15 4.63.24 6.79 5.09 27.97 8.49 53.45-12.45 76.25-2.55 2.78-6.57 3.5-9.16 5.34-5.23 3.7-10.6 10.31-17.26 13.74-3.12 1.61-6.39 1.17-7.95 1.91-1.35.64-6.39 5.31-8 6.11-4.38 2.17-9.89 2.96-14.31 4.73-1.96.79-3.5 3.08-4.7 3.38-2.07.52-3.95-1.12-5.59-.72-1.33.32-2.09 2.61-4.24 2.9-3.48.47-7.3-1.71-12.68.05-8.66 2.83-17.72 2.73-27.28 2.81-13.12.11-24.59.69-37.53-4.37-6.74-2.64-17.45-9.62-23.72-13.55-17.02-10.67-29.5-16.17-41.24-33.46-4.81-7.09-13.18-22.54-13.58-31-.24-5.21.89-15.86 1.98-21.52 1.6-8.29 8.95-14.12 13.47-20.83.98-1.45 1.54-4.97 2.39-5.89 3.08-3.34 19.42-14.71 23.74-16.58 9.5-4.12 13.58-.88 22.47-.63 9.65.26 12.08-4.62 19.62-8.46 2.07-1.06 15.48-7.74 16.37-7.61.67.09 2.14 1.73.54 2.52-10.26 4.22-25 10.31-30.79 20.21-3.65 6.24-6.16 15.57-5.25 22.81.31 2.46 1.77 4.11 1.97 6.02 1.37 12.69-1.92 25.15-1.87 37.81 5.92 6.76 3.34-1.05 3.94-5.85 1.97-15.78 8.82-32.05 16.71-45.32.87-1.46 2.78-1.83 3.24-2.97 2.03-5.09-.76-11.43 1.36-17.42 1.45-4.1 5.83-9.59 10.69-9.79-4.27 4.11-8.96 7.87-9.01 14.48-.03 3.56 2.51 6.59 1.82 10.75-.88 5.32-8.76 17.22-11.29 22.79-4.18 9.22-9.37 27.45-8.52 37.4.43 5.02 4.75 13.85 1.48 17.57-1.22 1.38-1.54.81-2.49-.49-5.08-6.99-10.09-14.29-10.6-23.2-.53-9.35 4.01-19.36 3.66-28.78-.31-8.38-4.06-14.77-3.07-24.03.56-5.29 3.85-10.11 4.01-15.49-3.31.77-6.89-1.66-9.56-1.93-28.22-2.92-53.2 36.26-51.89 61.43.89 17.06 12.22 32.1 24.16 42.78 17.56 15.7 47.98 36.33 72.77 37.81 27.78 1.65 63.27-4.06 87.71-17.12 1.52-.82 11.72-6.78 12.73-7.53 1.4-1.04 1.74-3.22 3.68-4.32 1.71-.98 4.29-.79 5.39-1.61.99-.74 1-2.79 2.05-3.95 2.5-2.74 10.1-6.93 13.79-11.21 6.88-7.99 12.31-28.4 11.21-38.86-.44-4.17-2.8-10.73-3.43-15.37-1-7.4.27-17.67-4.16-24.07-7.33-10.61-8.54 4.29-10.28 8.64-4.9 12.26-11.11 10.47-20.93 16.03-2.79 1.58-14.9 9.61-16.77 11.28-8.31 7.4-10.55 23.86-18.4 31.65-.67.67-1.08 1.38-1.12 2.34-7.65-2.1 1.31-9.2 2.35-14.18.88-4.2-.23-8.41 1.4-13.59 2.04-6.44 8.35-13.2 9.83-18.17.99-3.34.1-6.85.69-10.31.64-3.82 11.51-24.8 14.06-28.44.71-1.01 4.26-1.98 4.58-3.94.35-2.11-8.13-12.92-6.87-14.35s3.54 2.77 4 3.49c4.27 6.74 8.4 15.54 10.94 23.06 6.36.14 12.07 1.62 18.06 3.44 2.4-3.15-2.54-3.42-.94-5.92.31-.49 8.31-3.95 10.26-5.25 21.49-14.25 45.44-24.82 67.94-36.06 2.82-1.41 25.6-13.72 26.73-12.76Zm-125.67 57.68c-1.43-1.97-2.84-8.03-3.33-10.68-.84.98-4.6 2.84-4.84 3.21-.33.5.66 2.02.1 3.48-1.42 3.69-8.7 12.72-10.57 16.57-.68 1.39-2.6 8.63-2.71 10.26-.48 7.19 1.55 5.38-1.84 11.3-1.29 2.25-9.83 17-8.12 18.17 3.36 2.31 4.22-4.72 5.21-6.28 6.16-9.69 13.73-9.63 19.6-14.86.2-.18-.81-1.52.14-2.3 2.96-2.42 19.23-6.89 19.87-7.75.54-.72-.16-2.5.46-3.52s2.22-1.05 3.22-4.27c5.21-16.84-11.59-5.63-17.18-13.33ZM784.99 748.99l23.97 61.59c10.18-1.88 18.47-8.93 29.03-9.57l-12.66 5.34c-1.45 3.07-14.83 7.14-15.08 10.13L831.02 872l47.5-22.99.49 1.97-45.53 22.99c-1.73 3.34 4.77 17.39 6.07 21.99s1.54 3.5 2.43 5.8c.44 1.12 1.42 6.5-.48 7.23-1.11.43-5.92-13.45-6.42-14.57-.68-1.51-1.95-2.42-2.46-3.54-1.14-2.54-4.09-14.21-6.96-13.79-.76.11-10.97 6.42-13.47 7.59-39.76 18.66-78.27 39.75-117.31 59.69-8.11 4.14-14.53 1.63-8.88 14.62-3.93.81-7.09-9.02-8.5-8.98-2.39 2.88-6.83 4.24-10.49 4.97.71-3.45 9.2-5.02 9.86-6.16 2.75-4.83-25.97-52.51-26.96-61.72-5.82.75-11.67-.23-17.38-.18-4.2.04-10.07 1.01-14.14.94-3.37-.06-13.23-2.03-14.61-1.68-5.68 1.43-9.24 7.1-13.25 10.83-2.08 1.93-5.92 1.64-5.5 5.98l30.5-11.99.41 2.9c-8.18 2.95-15.7 7.47-23.74 10.77-2.24.92-4.89.94-7.16 1.84-9.48 3.76-18.89 9.02-29.02 10.47l6.96-3.57 2.03-2.42c-3.06-.65-5.74 1.71-8.46 1.83-5.68.24-24.27-9.43-29.83-12.85-8.12-4.99-18.56-12.07-31.2-11.88-4.57.07-10 1.53-14.19 1.51-9.55-.04-29.85-10.91-37.89-16.6-2.1-1.48-7.26-5.59-9.47-7.49-8.95-7.7-12.23-20.29-20.29-27.21-3.23-2.77-11.61-6-15.68-8.33-.19-1.93 3.17-.88 4.04-.54 3.04 1.21 10 5.21 12.88 7.12 10.14 6.75 9.43 11.25 15.61 19.39 1.9 2.5 12.46 12.04 15.52 14.5 7.06 5.68 25.81 16.91 34.47 16.59 8.18-.31 14.78-2.56 23.44-.52 16.4 3.86 36.24 22.74 51.96 21.97.95-.05 8.05-1.45 9.29-1.77 14.44-3.74 18.97-12.81 30.29-19.71 9.84-5.99 10.56-2.25 19.97-1.95 1.92.06 3.64-.99 5.11-.98 4.75.04 22.22 1.52 25.61-.12 1.12-.54 1.13-1.99 1.84-2.4 16.62-9.57 18.63-13.52 30.11-28.94 7.88-10.59 15.36-13.38 28.76-14.27 3.39-.22 6.72.06 10.07.66.07 1.45-3.62 1.52-4.79 1.7-6.87 1.05-20.55 4.04-25.79 8.21-1.24.98-1.37 3.29-2.41 4.59-9.71 12.1-18.6 23.95-32.07 32.18l30.55 61.3 143.42-73.64-20.56-56.39c-4.12-1-13.66 4.34-18.08 5.82-18.34 6.16-31.97 11.66-49.06 19.15-6.55 2.87-12.03.52-9.73 9.12 3.2 12 10.84 24.93 14.98 37.01 1.93 5.63 4.09 12.08 4.54 17.95-1.58-.99-3.58-4.6-4.22-6.27-1.32-3.41-1.93-7.98-3.32-11.68-5.39-14.41-12.56-28.39-15.34-43.58 1.03-1.88 2.7-.49 4.55-1.2 6.31-2.44 13.84-7.85 20.36-10.76 13.38-5.96 27.22-10.74 40.03-16.97 2.89-1.41 9.45-1.96 12.86-3.63 1.34-1.52-5.26-21.58-6.39-24.93-3.75-11.11-10.16-22.46-13.08-33.92-.5-1.97-1.55-4.75 1.56-4.07Z"/><path d="M500 550.01c.61 1.24-4.28 1.18-1.99 2.98 1.4 1.1 8.44-1.74 10.63-1.95 21.03-1.98 52.55.25 72.36 7.45 9.94 3.61 17.87 10.95 26.25 16.8 1.72 1.2 24 14.55 21.74 16.69l-25.79-16.72c-10.04-9.19-26.25-15.96-39.83-18.14-16.25-2.61-37.86-2.31-53.88-1.13-16.92 1.25-30.94 7.05-44.42 16.58-21.37 15.09-45.95 43.29-47.12 72.98-.6 15.32 1.25 54.2 5.77 68.23 3.62 11.25 10.32 15.83 16.28 23.98 8.12 11.11 14.65 22.9 25.3 31.93 54 45.79 135.44 23.63 173.74-31.4 5.67-13.88 12.8-27.46 16.49-42.29.45-1.8-.77-3.43-.36-5.24.89-4 3.97-10.85 4.6-14.53.76-4.47-2.44-13.12-2.77-17.75-.22-3.1.92-5.83.79-7.98-.86-15.03-11.91-26.6-13.78-41.5 1.75 1.05 3.33 4.45 4.18 6.3 3.06 6.61 5.81 12.56 9.02 18.98 4.74 9.48 3.38 14.53 4.91 24.09.59 3.69 4.03 15.56 3.74 17.86-1.08 8.61-6.67 24.2-9.36 32.76-4.8 15.27-11.56 33.41-23.58 44.43-24.39 22.36-58.51 41.69-92.38 43.6-9.31.53-33.72 1.82-41.83-2.25-1.72-.86-3.16-3.35-4.33-3.56-1.33-.24-3.23 1.12-4.72.86-.96-.17-1.14-2.41-2.08-3.14-1.04-.8-7.08-3.67-9.71-5.33-8.08-5.08-25.65-16.19-29.35-24.66-.72-1.66-.24-4.28-.69-4.81-.36-.41-2.38-.05-3.33-1.13s-.89-3.77-1.74-5.29c-6.52-11.71-16.21-19.22-20.82-32.18-5.8-16.28-4.33-39.69-4.9-57.09-.24-7.23-1.52-9.78-.31-17.22 2.29-13.99 5.51-27.88 12.87-40.14 7.64-12.72 18.98-21.37 30.31-29.69 1.06-.78 8.33-6.19 7.07-7.42-.61-.6-8.18 5.4-10.4 5.13-23.82 17.79-43.01 38.13-51.2 67.57-.82 2.93.45 10.09-3.38 12.29.85-6.9 2.11-13.75 4.06-20.43 6.61-22.59 35.97-57.13 57.97-66.08 4.15-1.69 9-3.47 13.64-5.4 7.07-2.94 14.63-6.49 22.31-7.09Z"/><path d="M609.64 487.37c2.8 1.9 8 6.6 10.36 9.13 6.01 6.45 7.47 14.15 15.76 18.24 19.33 9.53 48.56 6.47 64.91 20.58 1.04.89 3.34 5.88 4.01 7.5 7.35 17.96 8.93 41.64 28.01 51.99 1.84 1 16.72 5.7 14.3 8.19-17.63-5.35-27.97-11.92-35.35-29.14-4.35-10.16-6.63-22.87-11.42-32.58-1.34-2.72-7.52-7.3-10.41-8.59-19.84-8.77-49.59-4.03-63.92-23.08-3.65-4.86-7.2-11.12-12.33-15.68-4.43-3.94-14.44-10.19-20.13-10.86-14.05-1.65-32.32 8.31-45.76 7.77-17.7-.71-34.26-17.13-53.93-14.62-11.55 1.47-18.88 12.64-28.09 18.39-19.18 11.97-41.02 12.8-61.86 19.65-3.25 1.07-13.88 6.51-16.05 8.68-7.73 7.76-13.73 24.07-20.32 33.95-8.22 12.31-20.1 23.04-28.41 34.59-4.44 6.17-6.65 20.43-5.9 27.89 1.29 12.77 2.61 24.93.34 38.1-3.22 18.62-17.86 46.91 1.62 60.94 9.61 6.92 19.14 9.34 26.96 20.03 5.14 7.02 6.4 14.68 7.63 23.17.2 1.38-.92 3.23-.69 4.8 3.76 25.73 12.24 26.02 30.55 40.58 6.66 5.3 16.55 7.71 23.13 13.32 7.89 6.73 14.84 17.94 21.37 26.13 8.44 10.59 14.69 19.58 29.59 21.41 13.33 1.63 21.51-1.81 32.98-1.77 15.1.06 35.02 20.14 53.16 22.63 4.68.64 10.02-.28 13.52-3.68 3.69-3.59 7.08-10.29 13.7-11.61 1.95-.39 3.56.75 5.44.56 1.76-.18 3.23-1.67 5.17-1.92 24.15-3.13 51.23-1.74 69.43-20.83.55-.58.65-2.19 1.57-3.18 12.72-13.69 21.6-16.65 38.21-24.78 15.57-7.62 29.53-11.22 40.84-25.65 14.95-19.09 4.97-42.45 17.94-59.57 3.62-4.78 8.46-5.83 11.51-12.49 5.18-11.32.79-31.2-3.58-42.57s-15.23-18.89-16.52-31.58c-1.12-11 .92-22.83-1.41-34.47-.69-3.47-3.28-7.72-5.56-10.46 4.1-.9 7.9 8.46 8.76 12.24 2.55 11.18.39 21.18 1.2 31.71.87 11.23 11.91 20.24 16.32 31.77 5.19 13.56 9.75 33.74 2.64 46.95-2.12 3.94-6.03 5.64-8.36 7.91-9.62 9.31-9.63 33.52-12.35 46.74-.31 1.49.61 3.13.21 4.23-.37 1.04-6.78 9.29-8.08 10.85-19.04 22.83-45.44 23.97-67.65 39.31-7.4 5.11-15.85 19.33-20.98 22.52-16 9.95-50.82 14.58-70.34 19.25-1.33.32-3.05-.68-4.51-.43-4.61.78-6.59 5.81-9.21 8.12-4.67 4.11-7.97 5.41-14.34 4.95-8.05-.57-23.45-7.47-30.84-11.61-8.6-4.82-13.61-10.92-24.31-11.76-5.14-.41-12.42 2.05-17.66 2.31-1.54.08-3.32-1.1-4.99-1.02-14.9.72-23.63 3.43-35.55-9-15.43-16.1-22.18-37.47-44.07-47.95-8.76-4.19-6.18-3.24-13.36-9.64-6.19-5.52-13.25-9.5-19.09-15.88-2.9-3.17-6.23-16.06-7.27-20.82-.45-2.06.58-3.92.28-5.38-3.06-14.49-3.36-14.95-12.52-25.33-.78-.88-.65-2.9-1.16-3.31-1.59-1.31-11.85-5.87-14.7-7.8-10.23-6.91-18.49-15.32-17.74-28.78.84-15.01 8.52-30.24 10.53-45.27 3.14-23.52-7.1-45.59 9.11-65.61 8.99-11.1 19.47-20.4 26.94-32.56 6.02-9.81 12.52-28.65 21.81-35.23 4.44-3.14 17.89-8.62 23.45-10.27 13.49-4.02 27.56-5.17 40.73-10.29 15.01-5.84 26.83-22.39 42.82-24.19 19.71-2.22 39.2 18.33 60.28 14.28 19.82-3.81 34.4-13.22 53.63-.12M190.94 612.04c2.65 2.51 2.63 5.4 3.85 7.64 5.4 9.99 10.88 19.91 15.93 30.09 1.41 2.85 2.82 9.03 4.48 11.57.96 1.47 4.39 4.16 5.79 5.66.87-4.79-2.69-8.42-2.98-12.99 1.27.76 3.25 4.52 3.69 5.79.52 1.51 2.7 10.8 2.29 11.2-1.39.22-2.5-.18-3.73-.76-9.76-4.62-19.03-40.95-28.26-49.23-.6.82 2.45 9.63 3.09 11.2 7.93 19.4 17.48 39.91 25.4 59.8 2.08 5.22 2.99 13.8 7.78 17.22 2.53 1.81 15.03 6.3 15.49 7.01s.2 2.44.78 3.68c5.4 11.56 10.78 26.46 15.9 39.2 12.8 31.84 26.98 63 36.89 98.05 1.29 4.56 1.71 10.4 2.97 15.03 4.82 17.79 12.97 34.56 13.82 53.68 7.14.44 11.63 8.96 16.98 12.51 4.09 2.71 7.51 1.97 11.88 3.61-.85-2.66-3.65-5.93-3.38-8.76.84-8.86 10.39-6.61 9.28-18.61-.82-8.87-4.16-7.21-7.92-12.09-6.42-8.3-12.17-25.65-16.98-35.82-9.32-19.71-19.14-40.31-26.45-61.75-1.09-3.19-2.48-6.51-2.54-9.95 1.78.57 2.46 2.78 3.18 4.31 9.09 19.5 14.21 37.91 24.28 57.72 5.03 9.9 14.71 35.87 19.68 42.32 3.58 4.64 8.82 8.74 11.61 14.34 5.08 10.16-9.95 13.77-11.3 20.28-.94 4.53 3.3 8.5 2.53 13.02-3.05-2.28-7.62-.73-10.2-1.27-10.52-2.2-12.82-16.97-23.58-17.39-2.03-.84-3.48-10.26-4.09-12.96-3.21-14.2-7.03-29.04-10-44-.3-1.53-.38-3.76-.82-6.14-8.25-44.15-31.25-88.18-48.6-128.47-1.34-3.1-1.94-7.49-3.78-10.7-.98-.7-15.08 6.2-16.83 7.51-4.94 3.72-1.65 4.23-.59 7.42 6.87 20.63 13.82 38.91 21.98 59.01.29.71 1.46 8.37 3.5 6.97.09-.06-.4-1.33.78-1.92 2.45-1.22 8.69-3.83 11.23-4.58 1.04-.3 3.37-1.18 4 0l-16.3 9.7c-12.74 1.87-22.35 10.87-34.69 13.8-.54-2.74.69-1.71 2.02-2.42 8.45-4.5 18.75-8.93 27.56-12.48 1.05-.42 1.7.63 1.4-1.56-.76-5.72-5.84-10.95-8.24-15.8-5.68-11.47-8.98-22.67-13.05-34.94-1.96-5.92-3.83-12-6.23-17.76-1.83-2.59-3.17.78-5.22 1.72-2.57 1.18-5.3 2.49-8.24 2.25-.59-2.7.79-1.7 1.98-2.47 1.57-1.01 8.59-4.26 8.84-4.7 1.79-3.05-7.65-20.2-8.61-24.54-4.91-6.8-9.62-14.99-12.42-22.58-3.14-8.5-4.65-17.49-8.78-25.71 2.87 2.93 5.88 8.33 7.43 12.06 3.06 7.38 3.46 9.28 7.48 16.74 7.27 13.48 15.07 26.61 20.1 41.21 3.68-2.11 9.01-3.87 12.5-5.98 2.87-1.73 8.12-3.63 4.02-7.06-6.82-5.7-11.51-2.63-16.71-13.29-7.95-16.32-13.19-37.01-19.92-53.89-3.32-8.32-9.75-17.53-12.62-26.57-.48-1.52-4.42-17.66.65-14.17Z"/><path d="M292.32 533.72c6.52 14.85 14.58 30.04 21.18 45.27.88 2.02 1.13 4.78 1.53 6.97 2.33.34 4.74-.32 6.47-1.96 1.43.53-4.37 7.46-4.78 7.72-.92.57-2.66.19-3.62.84-14.35 9.76-30.95 16.49-44.03 26.04-.29.21-3.73 3.55-3.77 3.81-.58 3.82 2.98 5.01 3.44 5.82 5.15 9.27 9.4 25.89 14.86 36.66 2.93 5.78 8.15 12.11 11.08 17.41.64 1.16 2.69 8.16 3.37 8.68.32.25 6.58-1.85 6.79-2.16 1.63-2.43.28-15.19 6.16-17.83-2.59 6.67-2.98 10.41-3.04 17.54-.14 16.97 1.82 29.41 14.08 41.98 8.92 9.15 21.52 13.21 25.68 26.27 6.05 18.99 1.12 39.84 20.69 53.31 8.73 10.02-2.53 1.52-5.94-2.06-2.47-2.6-8.02-10.19-9.64-13.36-4.42-8.67-3.47-16.95-5.24-25.62-3.52-17.25-6.99-18.57-20.08-30.06-5.55-4.87-13.2-11.07-17.51-17.49-.73-1.08-5.03-9.45-5.02-10.01 0-.6 2.04-.43 2.09-1.06.18-2.35-1.67-9.56-1.6-12.99.03-1.27 3.7-8.5-3.46-4.97-4.92 2.42 2.38 11.35 2 15.51-2.83-.61-5.45-11.6-6-12-9.6 4.18-19.66 10.2-29.99 13.99 5.18-5.74 13.27-9.49 20.1-13.39 1.95-1.12 5.99-1.05 6.74-4.31.44-1.92-6.51-14.76-8.06-17.61-6.59-12.14-12.15-22.3-17.71-35.34-2.3-5.39-4.51-10.92-6.08-16.34l-12.99 5.99c.67-4.57 10.49-5.76 9.85-10.25-10.14-21.73-21.08-43.11-28.87-65.74-1.39-1.02-11.13 6.33-13.1 7.43-1.06.59-2.49.32-3.6.87-.99.49-1.78 4.36-6.28 2.69L232 547.98c.56 4.14 1.84 8.31 3.32 12.18 4.72 12.31 12.28 27.69 18.14 39.86 1.25 2.59 9.77 18.95 11.05 18.93 1.82-4.11 4.59-3.48 6.8-4.91 4.41-2.85 9.73-8.63 15.33-11.93 3.55-2.09 25.9-11.98 26.16-13.6l-25.61-53.31c-.9-2.92 2.8-3.32 4.32-5.22.99.64.18 2.26.82 3.71ZM360.26 836.25c-2.92 2.46 3.4 13.91 4.93 17.07 3.48 7.2 8.49 14.72 12.18 21.82 2.84 5.47 5.18 11.23 7.66 16.87 11.99-5.74 24.99-10.11 37.98-12.99-3.08 3.01-9.28 6.54-13.3 8.19s-21.54 5.19-21.66 9.21c-.07 2.48 3.77 10.98 5.08 13.74 9 19.03 22 37.46 32.74 55.48 2.13 3.58-.6 5.6 6.39 4.12 5.63-1.2 12.66-4.97 17.49-6.5 7.19-2.28 15.28-4.01 22.54-6.46 4.63-2.83 0-4.81-.24-5.54-7.06-21.33-15.48-36.1-26.34-55.53-2.18-3.91-4.55-8.39-5.72-12.73l9.9 13.8c7.07 14.99 15.53 28.68 22.83 42.96 1.08 2.11 4.79 12.75 5.36 13.16 1.17.84 20.21-6.88 23.15-8.16 11.5-4.99 22.76-11.78 34.58-16.42 1.82-.71 10.11-4.57 9.16-.35l-64.11 28.47c-.7.5-.56.89-.46 1.58.38 2.64 5.9 11.96 7.35 15.68 1.62 4.15 3.04 8.96 4.21 13.28-9.92-6.45-10.07-19.83-16.44-28.7-5.24 1.46-10.37 3.61-15.55 5.22-7.64 2.37-14.97 4.58-23.57 7.41-3.18 1.05-8.07.08-6.14 3.82.09.18 1.33.32 1.68.96 4.35 7.91 8.94 15.53 13.05 23.56.52 1.01 4.59 3.57 2.48 6.72-.78-1.85-4.58-4.32-5.19-5.3-3.8-6.06-7.11-13.04-11.18-19.35-.89-1.38-.65-3.14-1.84-4.39-4.93-5.19-15.42 2.76-21.29 3.04 1.18-3.92 16.44-6.27 16.98-7.03 1.13-1.62-6.14-13.46-7.59-15.85-9.08-15.04-19.02-29.29-26.79-45.21-.99-2.03-5-13.91-5.58-14.42-2.17-1.95-1.74 1.14-2.74 1.48s-2.39-.09-3.46.33c-4.79 1.88-9.3 5.4-14.81 4.7l12.3-7.2c2.6-1.25 6.27.12 5.39-5.12-1.07-6.43-9.74-18.77-12.87-24.99-1.87-3.71-11.47-25.99-13.47-26.58-3.31-.97-19.95 8.69-24.34 9.9-.34-1.74.81-2.61 2.07-3.42 3.55-2.31 20.22-9.18 20.76-12.23L345.99 807c5.78 3.56 7.08 23.8 10.98 26.53l4.97-2.07 8.02-.96c-1.56 3.32-8.21 4.47-9.72 5.75ZM776.63 148.37c10.72 10.16 16.06 17.19 15.99 32.96-.01 2.81-1.48 5.96-1.36 8.91.2 4.99 3.69 12.88 3.75 17.24.1 7.93-5.89 12.74-8.91 19.31-2.27 4.94-2.69 11.88-7.08 16.63.52 2.28 16.82 9.12 19.9 11.16 6.99 4.64 13.38 13.86 19.43 20.07 6.45 6.62 12.4 8.88 17.02 18.48 1.44 2.98 6.23 13.63.21 13.82-1.06.03-9.36-2.24-10.15-2.88-1.76-1.42-1.83-4.94-3.02-6.98-6.91-11.76-18.6-17.58-27.11-26.38-4.52-4.67-14.56-21.48-20.78-22.33-3.13-.43-2.23 3.18-3.47 5.13-1.95 3.06-6.83 8.33-10.03 7.99 1.16-2.42 4.05-3.92 5.38-5.66.51-.66.46-1.82.96-2.51.86-1.19 4.32-1.52 2.15-4.35-4.37-.47-17.48 6.83-20.99 10.02-5.45 4.96-9.21 14.35-18.5 14.99 1.59-2.91 5.6-3.67 7.91-5.58 3.6-2.98 5.79-7.91 9.15-10.85 6.61-5.78 15.12-8.67 23.45-10.57 6.06-1.38-3.77-2.95-4.24-3.27-4.54-3.04-8.91-4.67-16.11-5.38l-22.15-6.33c8.58-.14 17.19 2.16 25.62 3.87 1.89.38 3.98-.19 5.83.19 4.58.92 10.4 3.98 14.05 6.93 1.47-.94-.64-3.46-1.59-4.41-11.88-11.87-45.54-14.35-61.77-14.45-2.38 1.48-2.11 30.15-2.64 35.37-2.33 22.9-8.4 47.06-10.49 70-.75 8.22.69 27.48-1.92 33.08-.37.79-.54 3.31-2.09 1.41-.4-.49-1.03-10.87-1.08-12.51-.79-24.69 5.35-50.64 8.76-74.76 4.71-33.29 5.79-67.21 8.51-100.12.51-6.17 1.76-12.35 1.81-18.61 1.45-.25 1.42 2.95 1.5 3.97 1.5 17.91-2.9 36.64-2.99 54.5-.05 9.54 4.44 5.05 11.97 5.53 9.46.61 36.96 5.52 44.88 10.11 1.57.91 11.53 10.99 12.63 9.86-2.71-5.15-4.64-13.15-7.59-17.9-3.22-5.18-9.78-8.91-13.24-13.72-3.2-4.44-4.71-8.63-6.71-13.37-4.85 1.93-10.07 3-14.84 5.12-6.36 2.83-13.74 9.87-20.63 9.37.53-3.83 4.85-3.26 7.41-4.59 4.33-2.26 8.24-5.15 12.75-7.25 2.8-1.31 16.24-5.27 16.7-7.22.18-.75-.84-2.3-.64-3.72.18-1.26 1.48-2.12 1.34-3.81-.36-4.45-5.15-13.36-4.53-19.36.55-5.27 5.46-13.09 6.73-18.29 1.69-6.91.3-16.04.73-23.26.88-2.14-4.34-9.03-3.48-9.98.9-1 4.01 1.72 4.85 2.64 7.62 8.37 8.32 22.78 15.73 30.31.89.9 2.44.82 3.05 1.41Zm-14.88-21.12-3.75-1.24c2.06 2.73.18 5.06.19 7.49.06 9.87 1.3 9.64-2.4 18.8-4.03 9.96-4.82 12.92-.35 22.76.94 2.07 3.1 3.27 3.54 5.46.92 4.64-1.5 13.73-1.07 18.99.91 11.06 9.97 14.63 14.93 22.16 3.17 4.82 4.3 11.13 6.66 16.33 3.06-5.3 4.5-11.39 7.12-16.88 1.16-2.43 3.7-4.32 4.62-6.38 3.76-8.45-1.6-16.5-3.02-24.48-.76-4.27-.53-12.27-1.27-16.6-2.01-11.71-8.94-17-17.93-23.66-.6 11.72 4.38 22.32 5.93 33.65.28 2.02-.97 3.74-.74 5.62.62 5.01 6.73 12.43 6.33 19.2-1.04 4.16.8 8.76.4 12.88-.1 1-.42 3.79-1.91 3.64.58-6.74-.54-15.7-2.16-22.41s-6.11-13.03-7.82-21.16c-.67-3.19-1.22-4.71-1.77-7.05-2.04-8.84.11-24.25-2.44-35.6-.81-3.62-2.35-7.79-3.07-11.52Zm44.91 137.09c-2.12-2.03-6.51-4.66-8.77-7.72l-18.88-9.12c9.05 7.86 14.8 18.34 23.47 26.54s14.92 11.19 22.36 22.64c.85 1.3.92 3.42 1.67 4.33.93 1.12 7.95 2.5 8.49 2-1.51-4.07-1.13-8.87-3.37-12.63-1.62-2.71-21.4-22.61-24.97-26.02ZM545.76 262.77c-1.63 2.73-9.91 8.59-12.3 11.19-9.69 10.55-6.97 24.22-16.44 35.51-2.07 2.47-5.13 3.99-6.77 6.27-2.61 3.63-2.45 11.42-4.46 15.55-.88 1.81-3.37 2.07-3.66 3.3-.22.92 1.29 3.01.87 3.4-.18.17-2.08-.19-3 .51-1.14.87-.5 2.7-1.72 3.53-4.38 2.94-12.81 4.03-17.54 6.96-3.83 2.36-13.12 11.72-16.42 15.34-1.07 1.17-1.35 5.36-4.34 4.21-3.32-1.27-.31-3.49 0-5.13 1.01-5.4 3.08-13.51 3.64-18.1 1.47-11.97-1.78-18.93 6.83-29.34 1.42-1.72 5.08-3.78 5.6-4.66 3.54-5.96-4.66-22.04-5.05-29.3 2.35-.7 2.95 2.47 3.47 4 .91 2.68 4.49 20.97 6.02 20.97 3.14-3.48 4.35-7.45 7.5-11.19 8.26-9.86 8.77-14.14 15-24.02 4.19-6.65 15.23-13.4 22.77-16.5 1.71-.7 4.54-2.05 6.25-.77-5.33 4.18-18.95 8.2-23.04 12.97-1.5 1.75-5.44 8.88-6.68 11.32-6.63 13.06-9.14 22.19-19.69 33.35-3.07 3.25-1.56 1.57-4.96 3.98-5.58 3.96-3.99 5.8-5.89 11.12-1.16 3.23-1.42 4.56-2.26 7.24-.72 2.3-6.1 16.83-5.48 17.51 2.04 2.29 4.7-6.6 5.15-7.34 2.77-4.5 6.9-9.64 10.35-13.65.92 3.67-3.74 7.79-5.68 11.32-2.27 4.13-3.41 9.03-6.82 12.18 2.79 1.57 4.6-3.8 6.5-5.5 7.26-6.47 19.19-8.86 24.12-15.37 3.8-5.01 6.05-14.7 10.36-20.15 1.68-2.12 4.63-3.26 6.59-5.43 7.88-8.74 6.77-19.5 12.25-29.73 4.27-7.98 12.28-14.2 14.17-23.32-.37-.4-8.38 4.55-9.55 5.39-7.24 5.14-13.57 11.51-17.46 19.6-1.76.26-1.07-2.35-.75-3.25 1.04-2.9 6.51-9.92 8.86-12.15s21.71-15.3 23.59-15.47c5.51-.48 1.39 6.63.97 8.04-.52 1.75-.32 4.65-.89 5.6ZM473.37 205.65c1.93 3.11 9.38 7.36 12.18 10.3 1.7 1.78 2.18 4.35 3.9 6.1 4.3 4.41 11.42 11.69 17.09 13.38 3.94 1.18 10.58.54 14.19 2.34 2.79 1.39 3.64 5.28 6.94 5.88 3.81.69 9.94-.36 13.7-.32.77 0 2.95.38 2.63 1.66-3.33-1.02-4.87 2.92-6.44 3.09-8.58.95-17.37-1.64-26.74 1.18-6.42 1.93-11.13 12.27-17.44 16.56-5.82 3.95-26.87 8.84-33.83 8.16-.46-.04-6.51-1.96-8.58-2.44-5.92-1.4-12.04-10.85-14.92-16-3.45-.66-14.55-1.61-16.55-3.53-4.42-4.26 1.71-11.18-.52-15.2-1.72-3.1-12.05-2.78-16.04-8.24-1.8-2.46-2.28-12.19-4.21-15.29-2.31-3.71-18.64-2.18-18.73-6.77-.02-.89 3.46-.61 4.55-.55 12.09.59 22.87-.17 34.94 2.57 4.01.91 14.16 5.27 17.1 5.41 9.31.44 12.9-6.07 22.92 1.07 4.07 2.9 6.42 8.63 8.84 10.67 2.93 2.46 10.64 3.54 14.59 6.9 5.36 4.54 8.14 12.63 15.07 15.93-7.99.91-11.37-9.12-16.47-13.53-4.06-3.5-11.55-5.1-15.03-7.96-4.72-3.88-4.55-9.18-12.21-11.78-9.65-3.28-16.14 3.38-22.61 2.44-4.5-.65-13.71-3.65-18.89-4.95-4.55-1.14-9.28-4.95-14.77-2.71 4.51 3.45 4.6 14.34 7.29 17.71 4.79 6 13.1 2.54 15.63 8.08s-2.95 10.59.6 14.18c1.9 1.92 13.01 2.24 16.22 4.29 1.71 1.09 5.6 10.93 10.89 13.61 7.01 3.56 14.18.89 20.99.24 1.55-.15 3.06.88 4.64.66 9.07-1.31 17.06-3.87 23.64-10.37 1.57-1.55 5.95-8.83 6.83-9.42 4.93-3.26 14.47-3.17 20.27-4-5.27-9.75-18.91-4.84-27.26-10.96-1.64-1.2-3.5-5.17-5.03-6.74-3.93-4.04-8.98-8.4-13.21-12.28-2.99-2.75-9.88-7.88-10.45-11.57-1.01-6.6 1.95-11.15-2.19-18.79-1.27-2.34-5.83-5-4.36-8.64 3.03 4.11 7.86 7.87 9.01 12.99 1.23 5.46-.88 12.24 1.86 16.66ZM828.6 644.37c-.94-2.55-3.16-6.13-3.55-9.93-.45-3.05 2.1 0 2.31.54 8.95 23.34 15.84 46.84 26.82 69.35 4.38 8.98 9.74 21.21 15.37 29.63.68 1.02 3 3.54 4.09 3.77 1.23.26 8.62-.04 9.96-.63 2.09-.92 5.8-8.72 6.1-10.76.5-3.39-4.62-21.65-6.44-25.11-5.01-9.55-6.89-17.85-11.4-27.59-6.59-14.23-18.61-26.43-24.87-41.13-3.19-7.49-8.1-21.31-9.91-29.09-.16-.7-.49-2.37.42-2.42 1.53 1.49 3.1 2.89 4.34 4.66 9.02 12.84 14.71 34.23 23.31 47.69 1.54 2.41 4.18 3.88 5.69 6.31 10.83 17.48 13.91 34.95 19.44 54.56.95 3.38 4.17 9.57 4.58 12.54.17 1.23-3.04 11.13-4.34 12.26-4.58 3.99-12.54 5.78-18.26 3.21s-4.83-7.47-7.08-11.91c-6.31-12.45-14.46-24.21-19.88-37.12-6.4-15.25-10.85-32.98-16.7-48.83M713.65 536.35c12.47 13.54 13.67 23.33 19.7 38.81 3.5 8.98 15.48 17.72 23.17 23.83 2.18 1.73 7.15 3.55 9.19 5.32 6.75 5.89 11.07 14.29 11.24 23.21.33 18.21-2.57 27.7 5.17 45.67 7.04 16.34 10.96 20.19 13.16 39.04.77 6.59 3.07 9.33-.4 15.91-7.3 13.86-25.49 17.71-23.94 39.37.15 2.03 1.54 3.64 1.6 4.96.31 7.66-3.12 24.29-6.05 31.52-6.04 14.89-24.31 29.41-39.97 33.03-2.04-1.69-.47-1.55.9-2.11 2.13-.87 8.03-1.92 8.41-2.15s.64-1.97 1.78-2.62c15.41-8.78 26.19-19.31 30.33-37.7 1.99-8.86 1.5-15.61 1.03-23.91-1.21-21.42 11.82-26.85 23.95-41.32 2.6-16.54-2.55-30.79-8.92-45.7-2.48-5.8-7.18-12.38-8.73-18.27-2.59-9.87-.59-20.58-.8-30.27-.3-13.53-.84-18.37-11.54-27.4-5.47-4.61-14.05-9.05-20.42-14.56-11.88-10.28-10.38-15.34-16.18-28.84-7.39-17.2-20.61-32.99-39.09-38.89-11.39-3.64-24.38-6.12-35.52-9.66-5.68-1.8-11.5-3.58-15.7-8.12l15.7 6.12c22.41 5.71 45.3 6.67 61.94 24.74ZM279.01 374v3c-1.06-.13-1.94-.58-3.04-.31-3.46.82-10.42 3.99-13.42 4.22-3.41.25-11.87-5.1-15.55-2.9-.09.05.78 1.17.34 1.97-9.87 18.2-3.68 24.07-3.24 42.52.18 7.56-4.43 15.25.4 22.48.33 0 2.53-5.33 2.81-5.98 5.77-13.22 11.4-28.09 20.67-40.24 1.28-1.68 4.07-2.36 5.44-4.84 1.57-2.83 2.48-8.82 3.94-11.6.18-.34 5.05-5.19 5.38-5.38 3.45-1.94 13.74.24 16.26 4.05-14.38-1.66-15.95-4.44-21.52 9.99-1.23 3.2-1.74 8.3-4.91 11.07-1.17 1.02-3.35.81-4.5 2.51-1.39 2.03-.52 4.68-1.33 6.18-.26.47-1.9.86-2.58 1.86-7.79 11.57-12.4 23.71-18.04 36.21-1.6 3.54-6.2 18.29-11.61 17.17-2.33-.48-.69-1.83-.53-2.49.96-3.91 3.42-5.66 4.54-8.48 2.36-5.93-.4-13.38-.14-19.36.2-4.55 2.69-9.2 2.7-13.17.05-14.22-6.5-26.47-.83-41.74.35-.94 3.98-7.69 4.41-7.8 2.19-.55 8.13.65 10.57 1.3s3.59 2.71 6.27 2.85c4.4.22 12.05-5.34 17.49-3.11ZM292 196.99c-2.23.92-4.7-1.76-6.05-1.54-2.18.34-6.11 4.07-7.62 4.31-1.83.29-3.93-1.77-5.87-1.7s-3.45 2.63-6.05 2.94-4.83-1.13-6.71-.83c-1.74.28-3.03 2.33-4.35 2.57-2.07.37-5.49-2.03-7.71-1.78-.38.04-2.43 3.3-6.15 4.13-2.7.6-4.58-.44-6.72.11-1.61.42-3.53 2.59-5.79 3.29-4.01 1.26-7.02-1.56-9.4-1.53-.48 0-.48 1.69-1.99 2.24-4.64 1.69-15.52 2.29-20.65 3.23-6.2 1.14-3.34 2.71-11.46 2.46-2.07-.06-4.81 2-5.33-.49-.13-.61.87-1.58.55-2.22-.11-.22-1.68-.11-1.71-.75-.07-1.36 1.76-3.32.01-5.42l4.01-.02c-2.64-3.5 2.43-2.16 3.5 0 1.95 3.97-1.81 6.77-1.5 6.99 3.03.5 9.08.08 9.76-3.61.46-2.54-3.74-10.58 3.62-9.47 1.98.3 2.88 8.2 1.63 10.08 12.76-.09 5.44-3.03 4.99-7.59-.1-1.01.73-5.2 1.02-5.41.25-.18 5.6 1.96 5.78 2.21 1.54 2.07-1.17 12.78 5.61 7.89 2.45-1.77-3.92-13 2.26-12.85 1.38.03 4.16 1.73 4.69 3.04s1.11 7.6-1.36 7.21c2.1 4.35 11.58.17 9.88-2.4-.09-.13-1.66.09-1.89-.75-.59-2.21.39-5.86 0-8.34 6.97.08 6.9 4.38 6 9.99 14.25-.68 6.07-5.34 6.44-10.52s5.64-2.39 7.08.59c.74 1.54-.63 6.49 1.09 6.99 10.87 3.17 3.58-11.24 7.06-12.1 7.9-1.95 8.05 5.55 5.34 11.03 10.24-1.4 3.13-6.23 6.02-13 1.36.35 4.37.54 5.02 1.73 2.11 3.86-4.64 10.99 4.24 9.08s.71-11.48 6.22-13.8c.27-.11 2.99 4.57 3.1 4.98.92 3.3-1.55 5.31 3.39 9Z"/><path d="M257.32 672.68c.81 1.01 2.14.94 3.45 3.04 2.59 4.18 3.68 15.93 3.12 20.67-.5 4.3-3.37 9.32-3.54 13.25-.28 6.45 7.35 18.21 9.92 24.7.79 1.99 1.26 6.03 2.29 8.58 4.54 11.12 12.69 25.21 15.83 36.19.48 1.69.95 3.06.59 4.89-1.29-.61-2.74-3.77-3.38-5.11-6.91-14.44-12.26-28.98-18.14-43.86-3.98-10.07-10.55-19.23-10.49-30.54.02-2.99 2.07-5.43 2.04-8.93-.11-12.39-9-24.2-14.18-34.9-2.74-5.68-5.31-11.5-6.86-17.64l-1.97 4.99c-2.19-4.16-1.9-9.43-3.03-13.38-1.06-3.7-4.81-11.21-5.01-14.22-.05-.73 2.09-3.16 3.01-3.38.1 6.31 3.86 12.01 6.06 17.44 5.96 14.7 10.67 26.32 20.27 38.23ZM637.35 760.33c-6.73 8.46-14.8 20.42-23.47 27.05-11.39 8.72-26.7 10.05-39.89 14.26-4.77 1.52-11.44 5.5-16.76 7.09-22.8 6.83-51.56-1.21-72.14-12.32-1.27-.69-2.06-1.96-3.08-2.92 2.12-.25 5.92 1.27 7.87 2.13 5.47 2.42 10.77 6.63 16.69 8.31 12.19 3.47 26.96 4.19 39.36 4.75 9.5.43 25.66-8.03 34.88-11.39 14.81-5.41 20.11-4.16 32.81-15.13 11.86-10.25 28.85-30.5 36.96-44.08.75-1.25 1.93-2.06 2.93-3.07l-2.04 7.96c-3.97 6.61-9.6 11.7-14.11 17.37ZM792.41 486.63c9.4 22.99 19.77 46.37 28.91 70.55 3.06 8.1 8.4 16.67 8.67 25.82-3.46-2.24-3.62-7.71-4.75-10.65-17.06-44.75-40.34-85.21-54.21-130.89-.33-3.14 2.06.07 2.38.63 7.03 12.67 13.4 30.86 19 44.54M757 242.01c-5.48 4.46-12.3 4.6-17.49 10-4.02 4.19-4.37 11.4-6.53 13.47-5.44 5.24-15.32 7.61-20.47 14.53-1.78 2.39-1.64 5.12-1.51 7.98 14.16-5.95 29.43 4.26 38.95-12.54l7.04-5.45-4.93 12.31c-3.29.69-3.69 4.94-4.28 5.47s-13.69 3.25-15.3 3.29c-5.01.1-9.64-3.09-14.55-2.63-5.19.48-8.25 4.43-12.94 5.55 2.57-8.61 4.23-16.09 10.95-22.54 4.07-3.91 10.63-5.94 13.75-8.74 1.27-1.14 3.57-7.09 5.3-9.21 5.79-7.11 13.45-9.36 22-11.49ZM523.4 660.61c.28.49 1.63.7 1.93 1.63.49 1.5-.43 2.87-.24 4.21s1.4 2.37 1.42 3.05c.09 4.43-1.3 15.27-7.07 15.48-4.77.18-2.26-2.36-2.65-5.14-1.01-7.21-3.29-9-10.42-10.74-2.09-.51-.52 2.84-3.34 1.9-2.5-3.18-.06-9.58-4.26-11.33-3.01-1.26-6.96-.46-10.23-.71-1.21-.09-2.34-1.56-3.03-1.57-2.7-.05-9.39 6.84-9.48 9.12-.1 2.5 5.22-.36 6.47-.36 4.54 0 6.3 2.42 5.51 6.86 13.42-2.07-.42 5.77-2.86 1.85-.71-1.14.15-4.27-.15-5.86-2.64-1.27-6.92 2.12-8.35 1.86-6.09-1.09-.62-13.87 7.38-15.42 1.05-.2 14.13 1.33 15.19 1.8 5.35 2.39 5.39 9.32 5.83 9.71s3.01-.25 4.27.06c.78.19.55 1.68 1.35 1.89.47.12 1.6-.69 2.37-.34 1.27.58 2.71 2.97 4.01 3.91l3.46 10.52c3.09-2.5 2.99-14.85 2.16-18.35-2.45-10.28-15.56-16.61-25.15-17.45-.32-.03-7.77 1.76-4.49-1.19.21-.19 4.72-1.6 5.34-1.68 10.53-1.38 20.39 7.89 25.06 16.28ZM624.56 578.46c27.95 19.73 55.18 72.38 47.84 106.66-1.63 7.59-5.92 14.37-5.41 22.88-1.75.23-.94-2.27-.99-3.48-.41-10.03 2.99-11.52 4.64-19.21 5.91-27.5-14.78-70.16-30.97-91.98-4.27-5.76-13.72-12.13-19.94-16.62-2.81-2.03-6.64-4.04-9.73-5.71-.12-2 3.04-.91 3.96-.45 3.26 1.64 7.47 5.72 10.59 7.92ZM379.99 624l-6.3 8.68c-5.05 3.22-9.49 5.19-15.51 6.09-3.58.54-7.56-1.55-11.23 1.69-2.51 2.22-4.75 8.45-2.8 11.38.43.65 3.77.69 5.32 2.19 1 .97 1.53 3.4 2.99 5 1.66 1.82 12.84 10.91 10.52 12.97-2.73 1.83-8.01-2.79-6.99-3.98.32-.37 2.39.81 1.99-1-4.07.91-2.55-1.97-3.93-3.54-1.03-1.16-2.88-1.57-3.6-2.44-1.48-1.8-5.73-11.44-6.55-2.54-.56 6.12 4.31 9.75 7.08 14.5l-3.99-2.99c.2 3.72-1.75 8-6.01 7.99.45-3.44 3.69-5.92 3.71-9.69.01-2.41-2.54-5.09-2.66-7.88-.07-1.71 1.07-3.43.94-4.93-.26-3.04-2.13-7.83-1.55-10.53.76-3.56 6.26-11.33 10.54-7.97 1.68-3.4-5.61-7.66-5.76-8.16-.19-.64.91-1.93.6-3.1-.27-1.01-2.72-2.79-1.82-3.74 2.01-2.11 7.72 11.98 8.53 12.98 3.36 4.16 15.56-2.29 18.99-4.96 2.1-1.63 3.2-6.43 7.47-6.02ZM610 477.99c-4.7-.57-8.52-4.14-13.03-5.46-15.9-4.67-31.17 1.73-46.55 3.39s-27.37-5.87-39.42-14.91c6.65 0 13.21 6.57 18.76 8.73 23.74 9.19 47.83-10.15 73.91 3.09 2.2 1.12 5.11 2.94 6.33 5.16M725.56 353.57c-1.27 2.5-2.92 3.74-3.92 7.56-2.97 11.32 5.39-1.17 8-3 5.32-3.72 16.65-1.7 18.13-8.86.1-.5-.2-5.04-.36-5.33-1.9-3.43-7.67-3.31-8.41-6.94 1.58.67 5.12-1.01 5.79-.74.14.05.19 1.08.61 1.29 5.63 2.85 7.88 8.44 5.32 14.68-3.27 7.97-12.02 5.49-17.94 7.85-3.08 1.23-6.75 12.17-13.12 7.98-5.48-3.61 4.96-18.24 6.72-22.17s1.01-9.04 5.1-11.9l-1.98 13.02c-1.46 2.18-2.77 4.19-3.96 6.54ZM825.67 376.66c-1.45 1.62-8.99 5.59-11.2 5.46-1.73-.1-1.41-1.67-1.71-1.81-.43-.2-1.35.65-1.56.48-3.49-2.88-2.45-2.52-7.11-5.37-7.35-4.5-5.91-12.61 2.91-13.41-1.56 2.39-7.56 4.19-5.54 7.99 2.39 4.51 12.75 1.01 12.56 10 8.27-1.99 13-10.18 13.06-18.5.07-9.49-4.33-5.37-9.46-5.6-4.67-.21-9.41-4.56-13.61-.39-.81.8-4.26 9.19-4.09.98.15-6.88 8.09-7.74 13.28-6.21 1.62.48 3.04 2.39 4.46 2.53 1.74.17 3.46-2.08 5.81-1.85 4.42.43 7.03 5.93 7.02 9.99 0 .36-.76 6.49-.88 7.07-.36 1.79-2.89 7.48-3.94 8.65ZM783 278.01c-5.08 6.29-15.67 9.96-23.3 13.19s-16.54 5.19-23.86 8.93c-5.58 2.85-12.31 8.86-17.54 11.62-3.74 1.97-8.03 3.85-12.29 4.24l11.63-6.36c.85-1 1.4-2.17 2.56-2.91 19.49-12.4 40.26-23.08 62.8-28.72ZM544.56 918.43c-.9-1.76-2.82-3.06-3.49-6-.22-.94-.77-3.7.92-3.42 4.23 10.34 12.9 19.63 18.23 29.28s8.05 20.54 14.6 29.41c.8 1.28 0 5.35-1.31 5.28-1.91-.1-11.43-18.05-12.92-21.06-5.4-10.9-10.38-22.45-16.02-33.49ZM293.43 909.6c.93 1.99 1.32 3.62 2.12 5.34 4.48 9.59 10.07 18.88 14.43 28.57-3.22 3.64-3.41-2.46-4.1-3.67-14.72-25.74-29.02-59.64-39.61-87.6-1.57-4.16-2.59-9.9-4.25-14.24 1.74.26 1.7 2.03 2.27 3.22 3.2 6.67 6.97 15.35 9.78 22.22 6.24 15.28 12.19 30.68 19.37 46.16ZM321.15 193.86c.5.58 3.68-.04 3.85 2.13-3.99-.74-7.78.92-11.5 1.1-1.98.09-4.45-1.39-5.87-.99-1.08.3-1.43 2.16-2.39 2.9-5.92 4.56-15.1-3.95-13.8-11.08 1.13-6.16 10.77.66 8.56 3.07-1.28 1.39-4.01-4.6-5.99-2.99-.73 3.99 4.32 11.15 8.49 9.57 6.8-2.58.86-11.57 3.6-13.48.81-.56 3.78-.17 4.48.84.84 1.21-2.19 11.84 3.91 10.05 3.7-1.08-4.27-13.33 3.87-11.84 4.4.8 1.76 9.51 2.79 10.71ZM786.41 304.62c.56 1.06 1.83.77 2.33 4.11.89 5.91 2.5 18.49-7.15 17.26-1.05-.13-4.17-1.74-4.54-2.77-1.12-3.08-.19-19.11 2.95-15.22 1.84 3.27-3.75 17.1 3.03 13.52s-2.28-16.86-1.02-22.52c3.3-.25 3.28 3.49 4.4 5.62M421.4 735.61c1.63 2.77 8.52 11.2 10.95 14.04 2.07 2.42 6.06 4.7 7.64 7.86-1.33 1.83-2.06-.58-2.72-1.19-4.79-4.39-9.39-9.57-13.09-15-12.33-18.12-23.31-51.62-19.79-73.65.36-2.26 1.72-4.29 1.62-6.67 3.39 2.63.07 10.4-.05 14.45-.42 13.92 8.38 48.19 15.43 60.16ZM200.99 607c-.69 3.27 3.24 4.63 4.96 6.78 8.25 10.32 9.8 17.37 14.56 29.2 2.14 5.33 5.98 10.07 6.48 16.01l-8.17-14.32c-2.34-8.25-5.96-15.96-10.18-23.33L202 615c.91.33 3.08 10.29 0 6.99-.44-.47-2.95-11.2-3.01-12.52-.09-2.08-.59-2.88 1.99-2.48ZM742.75 88.26c.57.66 1.31 4.09 1.09 5.05-.76 3.27-20.58 16.3-21.83 10.18-.45-2.21 6.87-3.51 8.53-4.46 1.26-.72 2.18-2.95 3.48-3.52 1.64-.72 4.3-.18 4.85-.69.26-.25 0-1.6.51-2.42.13-.2 4.08-2.34.02-3.24-5.09-1.12-8.65 5.33-10.89 5.86s-1.51-.48-.75-1.7c2.04-3.32 11.66-8.93 14.99-5.06M577.98 837.01c-.12-.1-2.1-.36-1.97.48 2.38 4.22 3.52 11.39 9.49 11.44 2.81.02 5.33-3.32 7.18-3.68 6.32-1.23 5.94 16.82 5.31 20.75-1.24 1.67-1.82-.1-2-1.48-.44-3.42.39-7.36-.09-10.92-1.4-10.27-5.43-2.55-10.42-2.7-.54-.02-5.34-1.64-5.74-1.9-.97-.63-6.4-12.75-6.67-14.58-1.16-7.83 7.37 5.73 8.92 4.57 2.34-1.75-3.43-9.64 1-10.99 1.17 4.97 3.14 7.29-.55 11.94-2.79 3.5-3.84-2.4-4.46-2.93M450 806.01c-2.53 3.73-9.41 2.77-8.47 9.08s6.24 9.3 8.73 13.2c1.63 2.54 6.09 14.24 6.75 14.71 3.13 2.21 2.4-4.92 2.58-5.8 1.9-8.87 7.97-3.79 8.38-4.19.27-.26-.23-3.86 2-4.01l1.01 6.99c-2.39 1.11-6.2-2.25-7.47-2-2.68.52.1 11.03-5.17 11.92-3.83.65-8.21-13.7-9.94-16.83-2.41-4.38-8.43-10.04-10.15-14.85-.72-2-.83-5.04-1.25-7.23 1.68-.23 1.28 2.86 2.48 2.98.57.05 7.68-5.65 10.51-3.97ZM330 182.01c-1.54 3.44-4.63-1.17-4.73 3.68s7.63 8.3 9.7 5.25c.3-.45-2.18-10.75 3.52-8.93 3.68 1.17-.82 8.47.96 11.03l7.55 2.45c-2.71 3.05-6.59 1.33-9.04-.98-.83-.79-.86-2.43-.97-2.51-.45-.32-6.94 4-10.75.76-.69-.58-.61-2.19-1.23-3.04-.48-.67-1.6-.65-1.79-1.21-.43-1.27 1.18-5.74.81-7.5l5.99 1.01ZM217 357.01c-4.45 6.71-13.97 8.15-21.2 11.09-1.47.6-7.08 4.26-8.5 4.7-1.66.51-3.57.17-5.29.19l6.78-4.91c5.58-1.94 13.72-4.8 18.57-8.22 4.23-2.98 1.33-5.07 9.64-2.85M729.98 625c-3.41 2.85-.12-4.89-.27-6.37-.39-3.62-4.41-4.43-6.47-2.39-.79.78-.96 8.8-4.24 5.76-.61-.57 1.65-4.13-3-3-1.07 7.76 1.55 13.84 4.98 20.52.14.84-1.85.58-1.97.48-.54-.45-4.31-9.48-4.58-10.93-1.16-6.25-1.78-15.92 6.55-11.06.18-6.88 10.61-6.57 11.01.57.05.93-1.75 6.21-2.01 6.42M515.99 613c.27.29.99 5.84 1.82 7.69 2.88 6.42 10.82 10.88 6.19 20.3 3.9.39 3.64-4.67 5.99-5.98-.05 4.84-5.17 11.78-9.99 10.98l2.99-2.49c-3.8-.99-.93-2.6-.6-5.38 1.28-10.74-7.21-12.04-8.11-17.76-.24-1.48.53-3.12-.03-6.09-.39-2.06 1.26-1.78 1.74-1.27M542.01 674c-1.53-1.52 6.45-6.9 6.79-8.63s-1.75-4.13-2.31-5.9c-.65-2.06-.67-2.27-1.41-4.25-3.2-8.6-4.5-12.03-2.99-21.63.16-1.04.38-3.73 1.89-3.58.92 5.43-.69 12.11.24 17.27 1.79 9.93 14.96 19.58-2.22 26.72ZM600 522.99c-1.93 1.67-16.19-4.39-18.28-6-1.12-.87-.49-2.16-1.38-3.04-1.03-1.02-5.49-2.02-5.33-2.45 1.39-3.74 6.88 2.83 7.83 3.39 1.97 1.16 4.71 1.71 6.68 3.08l1.25-2.23 1.23-11.73c1.29 3.38.31 8.2 1.22 11.29.97 3.28 6.86 3.84 6.79 7.7ZM604.01 848c-1.22-5.03 3.28-9.42 3.93-13.56.76-4.86-2.12-11.94 3.05-14.44.21 2.19.88 4.24 1.05 6.46.74 9.67-2.26 14.16-8.03 21.54M553.99 682.01c-1.06 2.5-8.05-.62-8.98 2.52-1.37 4.64 5.78 2.88 4.99 6.93-1.08 5.51-8.84 1.99-6.99 8.53l5.99-.5c-2.58 2.54-5.8 2.74-9 1.49.94-4.6 2.38-10.02 8-8-8.6-7.32-5.23-15.6 5.99-10.98ZM313.37 780.4c-.3.14-.39 1.14-1.18 1.49-1.27.57-9.89 3.97-10.68 4.13-2.97.6-1.19-2.26.57-3.43 2.41-1.6 19.74-9.59 22.61-10.4 1.53-.43 1.59-2.1 3.29.32-4.26 3.7-9.73 5.58-14.61 7.9ZM529.02 703.99c.2-1.95-1.85-1.58-2.09-3.44-1.74-13.2 3.05-20.77 13.06-28.54-.07 5.37-7.88 9.64-9.73 13.78-.73 1.64-1.23 8.64-1.16 10.62.1 2.77 3.29 6.49-.08 7.59ZM882 409.01c-3.04 3.98-9.38 7-13.99 9.49-4.3 2.33-7.76 4.11-11.83 6.44-1.9 1.09-5.02 2.56-7.18 3.04 8.35-9.76 21.75-13.46 33-18.98ZM486.12 680.09c.19-.13 2.78 1.32 3.88.92-3.65 6.35-5.86 20.38 4.99 13.99 1.19 1.16-2.49 5.15-6.34 2.9-6.62-3.87-1.95-11.98-2.66-12.9-7 5.02-12.97 3.43-11.98-6 1.88.4.81 3.57 2.06 5.42 4.16 6.13 9.02-3.62 10.04-4.33Z"/><path d="M234 659c-1.12-6.71-3.25-13.24-3.99-20l7.42 17.51.58 3.48 1.48-4.99c4.77 8.97 1.25 12.77-5.5 3.99.19 1.13 1.25 6.75 1 6.99-1.3 1.23-7.67-1.69-5.5-3.99l4.49 2.51L228 647c1.42.9 2.69 4.42 3.39 6.09 1.24 2.91.28 2.89 2.6 5.91ZM437.64 228.36c2.18 1.47 5.63 5.57 8.35 7.14.16.75-1.01.67-1.48.48-4.74-1.9-9.98-6.9-14.48-9.52L412 219c8.34.3 18.73 4.68 25.64 9.35ZM370.69 625.69l-6.7 3.8c.32-5.05 11.44-7.29 6.51-12.47-4.34 3.92-6.42 9.13-10.49 12.98-1.21-2.71 8.68-14.64 9.57-14.93 4.54-1.46 5.45 6.66 1.11 10.61ZM535.99 522.01l-1.99 1.98c10.09-.7 4.08 12.04-1.51 11.99-4.32-.04 3.6-5.19 3.99-5.99 3.51-7.15-4.73-2.57-8.06-2.05-4.8.75-1.51-3.21.65-4.35 1.92-1.01 4.74-1.34 6.91-1.57ZM564.01 678c3.32-.61 5.1-3.9 8.98-3-.41 3.39 1.78 9.94-3 9.99l.99-7.99c-2.03-2.53-3.47 7.21-7.48 5.99-2.26-.69-1.22-7.9-2.53-10l-1.98-.99c4.04-.85 4.44 3.22 5.01 5.99ZM548.86 499.15c1.02.64 2.69 9.04 2.13 10.85-2.97-.51-2.59-9-4.49-8.98-3.67.04-3.11 8.66-3.51 8.98-1.93 1.5-4.14-6.99-6.99-6.02.94-3.41 3.96-.34 6.01-1.4 1.4-.73 2.55-6.12 6.85-3.43M557.68 707.66c.91-.78 1.93-3.6 3.84-3.44.8.07 3.36 4.18 5.46 2.77.83-.56.12-5.89 2-5.99 2.7 14.09-8.25 5.49-8.96 6-.11.08-.26 1.75-.95 2.51-4.85 5.39-11.02-4.61-5.57-8.52.86 2.97-2.11 5.97 1.98 7.76.83-.19 1.55-.55 2.2-1.1ZM727.99 675c-1.67.26-1.09-2.43-1.03-3.53.24-4.18 1.53-7.23.95-11.89-.67-5.39-4.71-10.38-3.9-16.58 3.8 1.16 1.71 3.89 2.4 6 1.76 5.34 4.6 8.88 4.03 15.16-.34 3.71-3.22 6.83-2.45 10.84M359.99 623.01c-1.9 0-2.07.59-1.86-1.42.36-3.37-.13-6.3.86-9.58-4.26 1.69-2.18 7.27-2.5 11.01-.1 1.15 0 5.08-1.48 4.98.51-3.7-3.12-18.03 3.48-18.03 4.44 0 1.15 10.07 1.5 13.04M569.71 605.72c-1.12 1.3-6.77 3.65-8.7 2.79 6.21-4.18 8.79-4.22 10.01-12.5l-3-.5c2.8-2.57 1.44-6.34 2.49-9.5 3.36 3.27 1.68 16.85-.79 19.71ZM741.86 626.14c3.23 2.1.79 11.47-3.85 11.86-.71-.84 7.05-9.66.3-9.84-3.09-.08-3.55 7.16-7.31 6.84 1.03-3.95 6.11-11.93 10.86-8.85ZM532.01 768c-.59-3.36 1.98-6.18 1.91-9.39-.11-5.59-4.93-9.25-4.91-14.61l5.01 7.47c3.56 5.63 2.93 11.92-2.01 16.53M582.01 772l2.85-16.63.13-10.37c3 5.94 1.82 17.81-.72 23.76-.53 1.23-.52 2.95-2.26 3.23ZM564.79 493.22c.29.17 3.68 5.22 3.2 5.78-3.75-1.8-5.36-6.92-10-2.48.89 3.94 4.59 5.21 7 7.98-4.95 1.93-11.93-7.79-7.03-11.05 1.09-.72 5.74-.87 6.83-.24ZM513 686.01c1.12 9.29-11.77 22.19-12.98 7 2.72 1.5 1.18 6.33 5.7 4.25 4.14-1.9 3.45-5.77 4.83-9.25.64-1.61-.09-2.44 2.45-2M475 817.99l-17.54-7.94c-1.27-.11-3.39-2.18-2.45-3.04 1.03-.94 19.01 7.09 19.99 10.99ZM514 511.99l-4.01-.48c-.25 1.87 2.68 2.76 2.91 4.13s-3.41 4.97-2.9 5.35l3.99 1c-6.72 3.82-8.99-1.37-3.01-5.51v-1.46c-9.63-2.8-1.05-9.33 3.02-3.03M598.99 744c-3.84-4.03.86-8.3-4.33-13.66-1.65-1.7-5.17-1.42-4.66-4.34 9.13 1.23 11.28 10.26 8.98 17.99ZM627.87 820.14c1.24 2.01-.62 11.98-4.86 11.86l2.98-10c-3.25.23-2.94 7.39-5.98 5.51.96-2.55 4.87-12.22 7.86-7.37M575 517.01l-5 3.98c3.79.22 10.4-3.73 12.99 0-3.5.23-12.41 4.18-14.55.02-1.65-3.21 4.11-4.71 6.56-4M463 683c-.29.38-1.33.81-1.69-.94-1.78-8.56 4.26-6.73 4.46-9.55.08-1.11-4.24-6.05-3.76-6.5 12.03 4.85.24 9.62 1 16.99ZM716.99 659.01c.18 2.38-4.81-.6-3.98 2.47 1.35 4.96 7.08 2.87 7.98 7.51-7.92.18-17.16-13.05-4.01-9.98ZM520 734.99c-4.52-1.03-7.57-6.45-12.71-4.26-.49.21-7 5.95-5.28 1.79 3.13-7.58 15.08-3.69 17.99 2.48ZM501.99 677c-4.79-4.27-8.47 1.15-1.99 3.5l-4.94 1.45c-.05-1.75-1.1-3.45-.86-5.23.7-5.16 8.67-5.48 7.8.28ZM550.01 618l4.98-4.99c1.73 3.71-2.2 6.51-4.5 8.99-2.47.64-3.42-6.29-3.01-7 1.69-2.82 4.35.57 2.53 3M709 632.01c.36.33-5.06 5.22-2.55 9.04 1.68 2.56 6.43-1.93 7.54.94-10.31 6.07-15.32-6-4.99-9.98M579.14 705.85c-.5-.31-1.5-4.46-1.14-4.85l4.99 1.99c.32-.26-3.61-7.24-1.01-7.98.68 2.77 3.87 6.42 2.93 9.35-.59 1.84-4.53 2.26-5.78 1.49ZM543.99 589l-4.98-1.99c1.35 5.79.72 5.44-5 6.99-1-2.47 2.59-3.9 2.76-4.26.53-1.09-1.25-3.37.91-4.8 3.65-2.44 7.14 3.23 6.31 4.07ZM559 689.01c.52.52-2.46 2.37-2 2.98l4.99 1.01.49-3.99 2.49 4.44c-.89.63-5.17 3.5-5.5 3.49-3.51-.1-4.03-11.47-.49-7.92ZM566 735.01c-1.6 2.51-4.01 4.55-5.05 7.44s.12 8.23-2.95 7.54c-.22-6.33.83-13.76 7.99-14.99ZM452 671.01c.33.42-1.38 6.36.98 10.28.76 1.26 4.62 1.11 5.02 3.7-1.27-.1-6.42-1.66-6.81-2.19-.25-.34-2.14-7.41-2.15-8.2-.02-1.14 1.47-5.46 2.96-3.59M220.99 618c-3.17-2.4-4.46-8.75-6.95-11.38-.78-.82-4.11 1.02-3.03-4.61 2.08-.46 2.27 1.1 3.22 2.27 3.02 3.78 5.9 8.91 6.77 13.72ZM602.01 717.01c1.55-.29 1.17 1.47.94 2.44-.63 2.71-2.75 5.75-5.95 5.55 1.44-3.74-.79-7.57.03-11.32.16-.72 1.55-.77 1.59-.92 1.3-4.38 2.05-8.62 6.37-11.75-.8 4.31-5.7 9.85-6.75 13.75-1.2 4.46 1.75 9.51 3.77 2.26ZM720.99 688l-3.99-1.99 3.99 6.5c-2.4 2.03-7.03-7.38-6.97-9.02.13-3.44 8.43 2.98 6.96 4.51ZM725.01 640c1.08-6.02-1.78-2.61-5-5.52 2.86-6.86 10.96 1.6 5 5.52M567.38 728.66c.09.25 4.11 2.68.64 4.33-1.39-4.71-7.66-11.23-3.51-15.99.56 3.94 1.45 7.94 2.87 11.66M576.99 699c-2.37-2.3-3.2-1.32-5.99-1.49 2.16-3.66 6.41-4.9 6.49-9.5 3.56 3.77-2.74 6.61-.5 10.99M630.99 836c1.77 1.97-5.72 6.69-7.09 7.4-3.79 1.97-8.09 1.7-2.44-1.43 1.92.34 8.94-6.62 9.53-5.97M586 718.99c-3.17.62-2.67-3.87-4.69-5.05-2.25-1.31-6.1-.01-7.31-2.93 5.6-2.12 10.66 2.69 12 7.98M418 261.99c-.45.47-10.32 4.23-11.99 5.01-3.23-3.47 10.29-5.86 11.51-6.98.85-.14.56 1.89.48 1.97M737.01 670l5.98-16c-.6 5.56-.29 12.9-5.98 16M585.87 683.13c1.59 1.33 1.47 8.6-2.87 7.86 1.26-3.77.27-4.67-1-7.99 1.08.17 3.25-.39 3.87.13M552 602.01c.96 3.18-3.51 1.54-4 3.51-.36 1.45 2.59 3.06 2 3.47-7 .6-4.61-10.42 2-6.98M734 696.01l-2.51 3.98-3.48 11.01c-.03-4.86.03-13.88 5.99-14.99M580.99 678c-1.96-.36-1.67-2.72-2.57-3.91-.62-.82-5.55-3.29-1.9-4.08 3.96-.86 6.35 4.66 4.47 8ZM605 720.99l7.99-9.99c1.71 2.87-6.05 11.67-7.99 9.99M601.99 642.01l-7.37 1.67-7.62-2.67c3.72-2.36 5.16.65 7.57 1 2.22.33 4.81-1.53 7.41 0ZM223.99 604l-4.5-4.99c-1.38 6.53 5.5 11.74 6.49 17.99l-4.71-6.78-4.26-13.74c3.42-1.98 6.39 4.66 6.97 7.52ZM522 508.01c.29.27-.81 2.45-.81 3.49 0 1.43 2.1 6.1-2.09 3.42-2.22-1.42-.22-9.72 2.9-6.91M546.99 597c1.91 2.11-6.29 8.61-7.99 4.49 1.86.54 7.03-5.56 7.99-4.49M582.98 666.01c.2.19.33 2.2 1.46 3.12 1.51 1.23 3.34-.73 4.54 1.37-3 3.77-7.06.03-7.92-3.07-.51-1.85 1.34-1.95 1.92-1.42M154.77 286.8c-1.85 3.59-.79 9.03-1.35 14.34-.21 1.95-.19 5.21-2.41 5.86l-3.01-4.01c4.17-2.9 3.33-4.31 1.99-9l-2.99 1.02c.15-2.1-3.44-9.64.48-9.78.42-.01 6.52 4.91 4.58-1.65-.15-.5-7.07-2.95-6.06-7.56 1.46-.04 2.99-1.25 4.4-1.1.91.1.08 3.33 2.59 2.08l-.98-6.99c5.26 2.42 2.14 7.27 1.89 11.5-.09 1.58 1.39 4.28.86 5.3ZM159.01 315c-.04-2.88-1.52-5.46-1.64-8.32-.44-10.19 1.72-22.39 2.47-31.42.23-2.73-1.3-5.75.66-8.25 1.63 2.41 1.34 7.62 1.35 10.57.02 9.33 1.06 19.33.95 27.92-.02 1.24-1.04 12.04-3.79 9.5M377.81 344.22c-1.82-1.1-6.37 1.25-5.71-1.6.37-1.58 2.26-7.12 3.49-7.42 2.6-.63 4.09 2.9 4.9-4.19 3.71 1.79 2.94 15.57 1 15.99-3.3.71-2.84-2.26-3.68-2.77ZM155.7 264.69c-.54.6-3.14 2.14-3.69.82 2.95-2.67 3.07-5.63 3.99-9.5-3.65-.19-3.09 3.59-3 6-1.24-.57-3.39-1.31-3.85-2.64-1.55-4.49 1.44-2.78 2.54-3.62 1.6-1.22 1.27-4.51 5.88-.77 2.2 1.79-.42 8.13-1.86 9.72ZM154.99 322c.86 1.16.07 4.26-2.47 2.97-2.26-1.15-5.77-6.74-1.53-7.97-.41 6.63 3.77 4.69 4 5M382.85 283.87c-2.57 1.49-8.42-3.31-6.84-6.86l2.98 1c.02-5.31 1.43-5.67 5.51-7.99 3.15 2.02.1 12.83-1.65 13.85"/></svg>