<svg xmlns="http://www.w3.org/2000/svg" viewBox="0 0 1080 1080"><g fill="#73a942"><path d="M602.73 480.99c-2.97-8.88-2.21-18.94 2.07-27.27.85-1.65 2.14-3.42 3.99-3.44.62 0 1.28.19 1.82-.11 1.13-.63.47-2.52 1.29-3.52.26-.32.64-.51 1.01-.68 7.27-3.4 15.82-3.99 23.49-1.62 1.57.48 3.12 1.1 4.45 2.05 1.91 1.37 3.27 3.36 4.58 5.31 1.31 1.94 2.65 3.95 3.1 6.25.25 1.28.22 2.6.19 3.9-.08 2.95-.15 5.9-.23 8.85-.03 1.11-.07 2.28-.65 3.24-.57.95-1.58 1.53-2.57 2.03-9.06 4.62-19.47 5.62-29.6 6.53l-9.99.9c-1.74.16-4.02-.03-4.48-1.72M606.38 515.65l-7.46.02c-.65 0-1.35.02-1.89.39-.47.33-.73.88-.95 1.42-1.24 3.01-1.84 6.61-.18 9.41.93 1.57 2.46 2.68 3.94 3.74 4.48 3.21 9.09 6.49 14.43 7.85 2.91.74 5.95.89 8.95.95 5.23.12 10.91-.15 14.95-3.48 3.14-2.59 4.7-6.58 6.13-10.38 1.39-3.68 2.79-7.43 3.08-11.36.1-1.33-.03-2.86-1.09-3.66-.56-.42-1.29-.55-1.99-.59-3.35-.18-6.48 1.49-9.71 2.43-3.21.93-6.58 1.14-9.92 1.35-7.95.49-15.9.97-23.86 1.46"/></g><path d="M536.36 49.66c4.7 5.95 4.61 6.94 7.76 13.72 1.29 2.78 9.32 16.18 5.87 18.62-2.11 1.49-4.77-4.45-5.99-2.99-1.44 1.74 2.68 3.13 2.02 6.5-.23 1.17-2.96-.16-3.04 1.01l5.56 28.97c-1.41 8.02-.22 16.47 1.46 24.5h-3.99c.52-3.76.73-7.69.46-11.47-.63-8.76-.76-18.89-2.7-27.79-.59-2.72-2.27-5.01-2.78-7.74-5.81.82-5.48 5.75-8.97 9.01-1.14-1.77 2.26-10.1 3.13-10.85 1.02-.88 10.11 1.62 5.68-5.47-.87-1.39-6.02-3.5-8.14-4.85-1.53-.98-4.32-4.71-5.65-3.82-.19.13-.75 4.27-2.99 2.96-1.38-.81-3.65-10.62-7.03-7.96-.94.74 8.61 13.34 8 13.98l-5.5-4.97-3.49 3.97c-.09-2.39.86-5.98-1.99-6.99-1.4 6.15-2.92 13.42-7.52 17.99l.52-6.48c0-.86-2.04-.69-2.52-.54-1.86.59-6.07 15.15-10.49 16.02l1.99-3.5c-2.99-1.96-6.98 5.77-8.52 6.47-1.02.46-2.98.52-2.45-1.43.86-3.13 6.79-7.16.98-7.53 1.79 5.28-3.44 3.86-4.01 5.72-.93 3.05-.75 8.13 0 11.27-2.63.84-1.62-1.44-2.72-1.95-10.33-4.77-7.85 12.83-4.6 14.8 1.09.66 3.02.84 4.32 1.17.39 2.73-2.97 1.74-2.01 4.99l-4.5-4c-1.68 3.28 1.72 6.12 2.69 9.36 1.06 3.53-.15 6.03.45 9.42.67 3.72 4.26 9.11 4.23 9.66-.08 1.36-1.22 2.64-.89 4.91.05.32 3.52 1.38 2.01 3.66-.09.13-2.96-.42-3.04-.55-2.2-3.49-.59-8.51-1.96-12.45l-3.49 5.01c-1.18-.03-1.24-4.71-1.51-5.01-2.12-2.37-1.59 3.91-4.48 4.01-1.16.04-.57-4.21-2.5-4 .33 4.61-3.47 4.04-4.05 4.54-5.38 4.7 5.53 8.74 6.76 10.73.56.9.2 2.55.85 3.61 2.27 3.65 5.85 7.83 6.42 12.11-7.03-2.98-9.47-22.98-18.49-16.02-2.15-.95.73-3.35-2.02-3.02-7.26.86-11.35 14.68-14.46 20.55 2.17 1.67 3.17-2.39 4.49-3.51 5.58-4.74 9.2-7.61 16.39-4.39 2.15.97 12.42 10.21 5.11 9.88.7 1.77 2.85.43 2.92.56.37.68-.06 2.7.53 3.96 5.87 12.65 9.74 20.23 13.43 33.6 1.63 5.91 3.69 12.53 5.05 17.02.34 1.12-.52 6.57.06 8.36h-2.99c-1.09-2.56 1.95-1.83 1.91-2.42-.28-4.64-4.94-16.07-6.47-21.53-3.77-13.4-6.69-27.37-16.06-38.44-1.36-1.6.28-3.48-3.87-3.71-5.97-.34-5.8 4.23-10.5 6.1-.77-.78 5.44-6.91 6.25-7.27 3.14-1.39 4.66.09 7.74.26-5.65-7.21-9.55-6.96-16.01-1.5-5.56 4.7-10.33 8.78-8 16.51-1.97-.39-.03-2.78-3.46-2.01-2.12.47-20.16 30.74-24.45 33.81-4.05 4.76 4.52 11.75 8.29 11.01 3.02-.59 2.58-11.37 3.82-14.33-.27-.87 2.7-.56 2.81-.46.58.51-4.54 12.34-2.99 14.99.81.83 7.52-2.54 5.99.49s-5.63 1.36-5.89 1.55c-.68.5-.23 4.13-2.08 3.96-1.71-4.15-8.77-5.86-12.47-9-2.65-3.08-.35-8.4 1.57-11.38 6.86-10.65 16.76-20.81 23.29-31.7 2.6-4.33 2.74-11.38 4.86-16.14 1.01-2.26 10.04-16.36 11.73-17.23s5.05-.19 5.01-1.05c-.1-1.74-1.61-2.05-1.69-2.99-.09-1.09 2.58-3.55 1.68-4.5-1.7-1.8-6.4 9.65-8.99 6.99-1.25-1.28 6.56-11.05 5.99-13.99-3.2-.8-1.35 1.89-2.19 2.74-.59.59-2.4.36-3.35 1.22-1.48 1.33-2.41 4.02-4.97 5.03-3.24 1.27 1.18-3.98-1.96-2.97-2.72.88-4.28 4.79-5.08 4.97s-5.02-3.39-7.44-1.99c2.02-6.35-2.97-3.24-3.01 1-2.16.6-2.6-.88-2.01-2.51.31-.85 2.47.14 2.02-1.48-4.07-1.82-6.63 2.52-8.5 2.01-.51-.14-.04-2.22-1.91-2.06s-7.65 3.86-8.58 3.03c-.83-2.58 3.92-3.4 3.92-4.48 0-.18-1.48-1.38-1.67-2.8-.28-2.18.8-4.51.73-6.71-3.1 1.56-3.88 6.27-7.7 6.83-6.29.93-.4-6.23.76-9.29.9-2.38.74-5.3 1.63-7.35.66-1.54 2.23-1.11 2.31-1.22 1.12-1.68-.42-2.47-1.97-.97-1.07-1.59 3.54-34.42 4.42-38.08 4.38-18.34 12.64-35.2 24.99-49.06.6-.67.36-2.38.74-2.71.79-.71 3.19.2 3.86-.16.11-.06-1.19-1.55-.07-2.46.78-.63 6.62-3.45 8.04-4.06 8.56-3.71 17.7-5.68 27.02-5.47l-1 2.98c3.84 1.04 3.26-3.08 6.26-3.78 2.59-.61 6.46 1.6 9.23 1.8 8.74.61 17.24.6 25.75 2.26 12.3 2.4 16.81 7.13 24.12 16.39ZM496 33.01c-3.66 1.67-6.48.82-10.03 1.4-1.36.22-5.6.96-5.96 2.58 3.18 2.03 5.04-.8 7.44-.87 3.54-.11 5.83 2.61 8.55-3.1ZM512.01 42c-.5-4.7-6.15-5.43-10-4.99-.79 3.18 2.56 1.81 3.74 3.26.5.61.34 2.09.82 2.64 1.33 1.54 3.42 1.87 3.45 4.08 3.1-.53-1.3-4.76-1.02-4.98h3.01Zm1.99-4.99c1.92 2.77 5.61 4.22 8.04 6.45 1.74 1.59 2.52 3.93 4.45 5.55 4.96 4.18 4.7-.5 2.52-3.51-2.72-3.77-10.25-8.6-15.01-8.49m-12.02 8c-.1-.09-2.1-.37-1.97.48 1.2 1.18 3.57 9.29 5.47 8.5 4.5-1.85-1.54-5.54-2.51-6.46-.81-.77-.83-2.37-.99-2.52m14.7 6.33c-1.6-1.08-5.79-2.48-4.67.64l9.98 7.02c1.09-5.25-1.47-3.46-3.38-5.11-.93-.8-1.38-2.18-1.93-2.55m-75.69 2.65c.29-.33-1.16-1.92-1.48-1.96-1.19-.16-10.44 10.11-9.5 12.97 1.97-.75 2.4-3.24 3.92-4.59.84-.74 5.64-2.86 5.9-3.62.47-1.4-2.33-3.15 1.16-2.8M497.01 67c5.59.12.84-9.8-2-10.99zM462 74.99c2.49 2.51 5.76-9.3 4.99-10.99-3.72 2.17-3.24 7.52-4.99 10.99m-28.17 10.8L443.99 67c-6.51 4.43-9.2 12.01-12.98 18.51.14.95 2.23.62 2.82.29Zm-17.84 4.2 5-18.99c-1.82.94-2.83 4.6-3.44 6.5-.76 2.39-1.76 6.65-2.33 9.23-.22 1-1.01 3.51.76 3.26Zm86.82-6.21c.22-.34 2.52-6.8 2.76-7.7.45-1.67.51-3.37.41-5.08-2.12.26-1.35 2.81-2.28 3.71-.31.3-9.1 5.15-5.22 5.26 5.11.14 5.13.79.53 3.53.68 1.8 3.26 1.11 3.8.28M475 76.01c-2.78-.49-1.68.58-2.25 2.19-2.38 6.74-3.59 14.75-4.74 21.8 2.98 2.65 5.37-7.2 5.59-8.99.58-4.56-1.41-9.84 1.4-15M484.01 96c5.45-4.74 3.23-11.78 3.98-18-3.68 1.35-1.2 5.41-1.47 7.52-.3 2.38-4.08 6.6-2.51 10.48M451 97.99c3.88 3.05 9.61-14.18 8.99-16.99zm43.68 1.7c2-2.27 3.42-6.74 2.31-9.68l-6.98 11.5c.77 1.37 4.25-1.33 4.68-1.82ZM477 92.01c-1.51-1.82-2.15 1.24-2.45 1.99-.59 1.49-3.51 9.69-3.59 10.59-.17 1.78 1.71 1.09 2.02 2.16 1.01 3.4-1.75 3.69 5.02 3.24l-1.01-3.98-2.98 1.99c-.4-2.58 3.51-15.36 2.99-15.99m-14 8c-6.02 1.64-1.34 12.91-3.99 17.99 2.96.44 1.71-.64 1.97-2.51.7-5.18 1.08-10.35 2.02-15.48M453.99 123l2-11-3.95 8.54 1.95 2.45Zm4.01 8.99c-1.41-4.07 3.15-8.19 1.99-12.99-2.37 1.97-7.75 12.97-1.99 12.99m-19.31-6.3c.96-1.34 1.13-4.01 1.3-5.69l-4.47 3.99c-.82 1.16-2.37 3.98-1.03 5 .75-1.55 3.52-2.37 4.19-3.3ZM467 120c-1.34-1.76-1.74.37-2.11 1.39-1.95 5.49-2.42 11.97-.88 17.6l3.96-8.58c-.04-1.55-.65-10-.97-10.42Zm-54.01 27.99c3.11-8.37 7.13-16.83 7-25.99-4.71 4.56-.84 14.55-7.77 18.16zm17-20.98c-2.83-.51-1.64.68-2.25 2.19-1.61 4.01-3.12 8.4-2.74 12.8l4.3-10.18.68-4.81ZM396.21 845.81c.8.48 2.33-.09 2.99.25 3.95 2.03 5.33 2.61 10.64 2.38 5.98-.26 12.42-1.72 18.6-2.41 28.96-3.25 60.72 4.91 90.06 4.41 9.89-.17 20.32-3.4 30.01-4.43 11.93-1.26 33.17.75 42.81-4.18 6.11-3.13 13.55-8.45 19.8-12.2 12.81-7.7 10.04-8.21 19.23-17.27 2.25-2.21 11.27-8.27 14.1-8.84 4.99-1.01 35.51.3 40.98 1.56 7.98 1.84 18.43 9.48 27.06 8.94 2.28-.14 6.72-1.69 4.51-4.02-.23-.24-6.88.27-.94-2.56-6.04-15.23-4.07-30.41-5.02-45.98-.8-13.07-2.95-25.8-5.15-38.85-4.01-23.77-7.87-47.1-17.93-68.86-3.61-7.81-5.56-17.63-8.75-26.45-7.92-21.86-16.86-39.74-19.27-63.73l-14.78-36.26c-.93-1.21 2.2-2.25 2.36-2.25 1.97.05 3.73 11.27 8.07 10.94 20.46-.57 41.11 2.37 61.41 1-.32 5.2-5.81 2.24-8.51 2.24-7.47 0-15.05.55-22.55.43-3.31-.06-29.25-2.61-29.99-.07s1.54 7.72 2.72 10.24c3.78 8.06 7.46 13.52 9.85 22.66.86 3.29-.25 9.1.45 11.81.29 1.13 2.6 1.06 2.76 2.1.15.98-1.21 3.1-.79 4.9.23 1 2.45.93 2.92 2.3.75 2.21-.27 5.61.57 8.48.62 2.15 2.57 2.14 2.94 2.89 1.14 2.32 3.61 9.44 4.75 12.49.85 2.27-.87 6.79 1.92 6.1 2.44-.61 8.53-8.91 9.97-7.55-.61 2.17-8.71 9.36-8.75 10.46-.01.44 2.97 6.74 3.41 8.21.28.94-.78 2.43-.49 3.61.36 1.46 2.99 2.63 2.85 4.71 1.99 1.49 7.51-8.04 8.26-8.72 7.13-6.53 14.72-14.58 21.25-22.24 7.26-8.52 13.57-18.18 21.46-26.02l-10.7 16.73c-6.56 6.89-11.96 14.51-18.32 21.79-4.79 5.48-14.99 13.85-18.43 19.52-1.24 2.03-1.62 3.83-1.91 6.15l8.11 26.57c2.47 24.35 9.17 48.69 12.24 71.67.2 1.52.48 4.08 1.33 5.26 1.91 2.66 15.87 3.79 19.98 4.71 23.39 5.2 47.13 11.28 70.31 17.48 1.92.51 1.66-4.17 3.4-1.89.27.35-.15 2.19.01 3 1.75.41.62-1.55 1.06-1.89.51-.39 10.46 3.57 11.97 4.39 1.39.76 2.47-.09 1.94 2.51L713 757.04c2.76 16.16-.29 33.27 6.03 48.98L771 795.04l-6.24 3.23-43.08 9.96c-2.92 1.08.09 7.54-3.31 8.68-5.2 1.74-12.99.12-18.07-1.51-4.04-1.29-.88-.33-3.71-2.43-2.2-1.62-7.75-1.93-8.55-2.48-7.73-5.36-16.28-3.61-25.65-3.86-6.5-.17-15.07-2.65-20.98.36-8.83 4.51-14.66 15.94-22.48 21.47-4.11 2.91-9.36 4.69-13.7 7.25-9.08 5.34-15.85 11.53-27.95 12.05-3.75.16-10.68-.7-15.59-.34-16.13 1.19-33.02 5.52-48.24 4.66-7.42-.42-11.95.74-18.94-2.05-.35-.14-.12 2.94-4 1.75-6.87-2.11-10.05-.53-17.23-1.05-4.46-.32-11.38-2.54-15.76-2.81-2.2-.14-4.16 1.03-5.09 1.02-.3 0-1.04-5.13-2.9.09-.7-.59-1.63-1.37-2.52-1.53-2.43-.42-14.64-.93-16.34-.49-.76.2-.6 2-1.24 2.02-.9.03-2.15-1.01-3.7-.83-6 .71-4.53 12.23-5.05 16.17-.18 1.39-1.43 2.62-1.62 4.2-.74 6.2 1.17 13.99-2.55 19.44-1.53-.72.42-2.84.45-3.57.02-.54-2.01-.21-1.98-.94.05-1.23 1.35-1.99 1.5-3 .97-6.78.33-15.46 1.17-22.34.39-3.22 3.32-5.06 1.36-9.14-2.81 3.15-3.62.36-5.47.39-.62.01-1.52 1.23-2.82 1.25-2.8.06-10.7-1-11.8 0-1.32 1.2-6.21 17.61-7.05 20.69-.87 3.17-5.59 22.71-4.84 23.66 4.61-2.38 9.79-4.33 12.48-8.99 7.41 2.7 7.24 8.2 12.02 12.99 9.38-16.05 9.27 2.65 17.48 6.01 3.56-9.19 2.93-19.28 3.48-29.04l2.52-12.96-.98 29.99c7.33-6.04 6.91 4.32 8.74 8.76 1.94 4.71 6.25-6.27 4.25-8.75 3.58 2.4 7.05-3.68 7.99 1.5.23 1.28-1.04 8.7 1.49 7.48 6-2.87 1.81-27.31 1.83-33.48 0-1.6-.45-4.95 1.67-5.51.92 3.45 1.06 28.84 2.1 29.92.37.38 3.21-.44 4.99 1.51 1.99 2.19 3.09 8.69 4.21 11.57.44 1.14-1.07 1.67 1.69.98 1-3.26 5.88-6.73 6.54-9.96 1.45-7.07-1.84-20.77-1.3-28.72l2.77-3.3.52 31.46c3.21 4.54 5.18 9.38 7.17 13.82.65 1.45-.18 3.07.82 3.72 1.66-4.12 3.64-11.16 3.6-15.5-.03-3.12-1.45-4.62-1.56-6.02-.49-6.46-.18-13.06-1.54-19.47 3.04-.5 1.59.78 2.02 2.43 1.83 7.05.93 18.87 3.5 24.54.48 1.05 2.18 1.83 2.87 3.13 2.03 3.85 3.41 11.54 5.48 3.24 1.5-6.01-3.98-19.41-4.86-26.86-.34-2.84-.86-8.86.49-11.48 1.85 10.71 2.92 21.65 6.63 31.93 6.2-3.05 9.59 6.35 13.37 10.06 1.18-8.8 4.16-20.8 11.99-8.01 1.82-.72 2.17-5.73 2.52-5.99.26-.19 5.82.83 6.3.99 1.13.38 2.95 8.8 5.72 6.55 1.76-1.42 2.64-7.59 3.76-10.24.74-1.76 3.1-2.89 3.27-4.84.05-.56-2.68-9.57-3.12-10.7-.23-.58-2.81-5.31-3.04-6.18-1.37-5.35-2.15-11.04-1.89-16.56l10.6 33.88c1.75 2.46 5.94 11.35 8.9 12.1.85-.32 1.08-2.32.98-3.11-1.23-9.44-8.32-21.39-10.68-31.22-.41-1.72-1.59-2.05.7-3.66l9.5 28c5.33-4.62 10.79 7.25 11.49 6.99 2.12-.79-1.4-11.75 4.97-11.04 2.51.28 12.86 11.78 13.53 11.05.78-2.99-1.15-10.72 3.53-11.04 2.02-.14 4.5 2.71 4.54-2.35 0-.66-1.72-.52-2.34-1.85-3.04-6.49-4.3-14.5-6.69-21.28l1.98-.49c1.9 7.9 5.62 15.74 8.47 23.49.54 1.48-.07 3.87.8 5.25.65 1.03 6.33 3.95 7.72 5.27.24-2.68-2.57-4.07-2.97-6.57-.48-2.94 1.05-5.31.35-8.21-.83-3.39-6.74-10.63-8.08-13.42-.12-.24.37-3.6-.18-5.33-.47-1.48-3.27-3.65-3.1-6.47 2.83-.58 1.6.81 2.31 2.14 4.49 8.34 9.62 22.28 14.99 29.55 1.25 1.69 6.78 4.69 8.21 7.29l.63-7.84c3.97-4.72 17.75 8.04 18.85 6.84-1.07-4.56-3.29-7.07-.98-11.99l10.98 8c-.32-9.11-6.92-15.69-10.53-22.96-1.44-2.9-10.45-21.33-10.33-22.57.04-.4 1.5-1.75 1.86-1.47.65.49 5.46 12.65 6.63 14.88 3.57 6.8 9.96 20.31 16.9 23.11 1.2.48 2.01-.32 1.48-1.48-1.57-3.41-6.5-7.79-8.8-11.21-6.7-9.96-11.37-18.98-16-30-.95-2.27-4.71-4.38.8-5.31l5.07 14.19c12.08 17.23 23.57 36.75 35.63 54.56 5.13 7.57 15.71 20.59 25.31 19.26-1.77 2.69.11 1.74 1.99 3.5.34 3.41-2.83-.82-4.49 1.46-1.74 2.4-3.83 10.4-5.99 14.04-2.72 4.59-6.24 8-8.79 12.24-3.4 5.65-.49 7.77-8.96 6.47-3.23-.5-5.7-2.07-8.75-2.73-1.08 1.12 7.4 17.47 6.03 20.96.91.93 23.62 1.26 25.74.37 4.94-2.09-1.78-15.63 9.23-12.33v3c-7.37-3.39-3.61 8.94-6.73 11s-28.8 2.09-30.14-.15c.26-6.44-3.41-12.05-5.67-17.84-5.79-14.85-12.98-31.71-19.88-47.14-1.1-2.47-4.82-4.26-3.57-8.88.54-.73 8.85 12.87 8 14.99 1.98-1.32 1.15-3.9 3.47-6.04s4.34-.72 5.46-1.45c1.28-.85 1.39-3.21 3.99-4.09 7.47-2.51 8.77 5.55 10.56 5.55 4.27-2.21 4.83-9.6-.5-8.98-.54-.45 1.85-1.84 1.85-2.49 0-.5-4.76-6.55-5.58-8.27-.77-1.62-.69-5.1-1.53-5.98-.4-.41-9.67-5.15-10.23-5.27-3-.64-.36 2.88-.49 4.51-.15 1.88-1.01 3.61-1.03 5.51-2.31.76-9.28-5.82-9.99-4.99-.75 3.07.78 5.66 1.25 8.27.14.8 1.1 2.7-.75 2.7-2.71 0-16.63-12.63-19.5-9.97 4.46 23.34-11.2-2.77-14 0 .9 4.6 5.14 7.02 4.99 11.99-2.97 2.58-14.66-11.89-19.99-9.99-1.14 5.94 2.34 10.29 2.99 15.99-1.51 1.56-8.06-6.76-8.93-7.53-3.71-3.26-7.92-6.1-11.55-9.48-2.34 5.76.81 11.15.48 17.01-2.03 2.3-9.07-11.92-11.5-11.98-3.5 2.13 1.79 16.33-3.93 13.91-1.73-.73-1.97-3.66-3.1-4.92-1.85-2.05-4.94-4.08-7.04-5.96-.82-.73-2.27-5.06-4.42-3.06-.67.63-2.06 20.05-7.09 14.39-2.5-2.81-2.36-9.7-8.91-8.39-.48 3.37.35 6.76.52 10 .05.93.87 4.05-1.02 3.99-2.09-.07-3.97-8.39-4.7-10.32-2.27-.35-2.68-5.35-4.28-4.65-2.53 1.09-2.57 15.35-4.54 16.98-1.83 1.52-3.66-4.61-4.57-5.9-2.09-2.96-4.69-5.31-6.9-8.08-3.83 2.71-3.69 15.01-7.99 15.01l-5.5-12.01c1.44 4.05-2.06 4.01-2.62 5.44-1.21 3.09 1.86 8.53-3.89 10.54-2.43-1.91-5.69-17.48-6.51-17.99-.46-.29-2.87 2.77-3.49-.99-.78 1.35-7.86 11.7-9.5 9.99-.17-2.3-.4-5.03-1.09-7.22-.3-.95-.75-1.1-1.5-3.85-3.2-11.79-8.46 6.09-11.9 6.11-3.18.02-2.56-5.43-3.22-7.86-1.99-7.35-6.12 7.41-8.78 6.82-4.1-.91-3.91-12.74-7-11.99-3.39 2.86-4.54 14.54-10.47 12.48-2.86-.99-4.29-6.33-6.54-3.46-1.22 1.55-3.81 18.15-3.58 20.5.4 4.2 1.73 3.82 4.58 1.49 1.87 3.05-3.59 2.77-4.82 5.24-1.97 3.97-.71 13.04-2.7 17.75-1.7.24-1-2.34-1.02-3.52-.06-4.31.46-9.19 1.03-13.47-.24-.24-6.07 1.23-6.56 1.93-1.96 2.81-.38 21.06-1.6 22.9-.08.13-2.73 1.28-2.82 1.17-.63-.75 1.15-17.17 1.51-19.52.19-1.24 1.64-3.22 1.48-3.46-.09-.14-2.72-.41-3-1.53-.46-1.83 3.31-2.51 2.86-5.74-1.6-11.49-13.26-2.73-3.85 5.24l-3.08.55-.92 28.46c5.34.04 9.44-5.89 12.99-7.35 2.18-.89 13.53-3.58 16.8-4.36 7.85-1.86 28.75-3.84 34.29 3.11 4.54 5.7-9.65 9.44-13.59 9.42-2.09-.02-4.19-1.36-6.29-1.52-6-.48-11.56-.85-16.22-1.75-3.57-.68-6.98-2.61-10.98-2.55-.53 2.84.72 1.65 2.22 2.27 7.42 3.06 11.27 7.89 15.78 13.95 1.04 1.4 2.99 1.98 4.08 4.2 2.01 4.1 1.11 6.85-2.25 2.25-4.99-6.83-6.29-9-12.66-14.35-2.26-1.9-3.23-4.8-6.72-5.13-3.84 3.39-2.31 9.06-4.59 13.08-2.06 3.64-4.25 3.77-5.88 6.72-6.75-4.74.33-13.55 3.02-18.98-4.41.53-7.49 3.35-11.97 4.52-5.72 1.5-15.52 3.4-16.02-4.53 2.72-.71 1.38 1.22 2.77 1.96.44.23 1.77-.09 2.93.37.35.14.34 1.65.88 1.69.49.04 9.38-2.11 9.47-2.59.54-2.68-.83-5.57-.8-7.98.07-5.72 1.55-12.6 1.66-18.11.05-2.52-2.5-16.89-4.43-17.34-4.42-1.02-4.31 9.4-7.47 10-2.33-9.55 7.06-19.56 11-6.99 4.91-4.88 6.48-.96 9.52-1 1.93-.03 2.71-2.46 4.19-2.88 1.82-.51 4.13 1.3 5.31.45.94-.68 3.34-18.66 3.97-21.57-3.07-.32-3.72 3.46-5.47 5.02-3.68 3.3-6.29-6.11-7.56-8.29-3.05-5.24-4-1.09-5.94-.35-3.79 1.44-7.09 2.67-10.2 4.68-1.49.96-2.11 3.49-4.82 2.92 1.08-17.15 6.19-33.84 12.83-49.71-3.3-5.44-7.22-9.28-5.85-16.28h-.98c-.21.35.46 1.79-.6 1.99-2.24.41-12.76-1.61-15.8-2.1-8.8-1.42-18.2-4.47-26.87-5.12l-17.73-6.26c1.34-2.07 2.09-1.13 3.78-.88 9.23 1.4 19.96 4.05 29.23 5.84 3.57.69 26.67 6.33 27.88 5.48.2-.14 2.03-4.23 2.1-4.48.16-.55-2.05-.42-2.09-1.02-.07-1.17 1.58-3.51 1.85-5.19.7-4.31.67-8.92 1.66-13.33 2.79-12.43 9.28-22.94 8.58-36.45-.16-3.01-2.02-6.04-1.44-9.52l-35.54-3.98c-2.08 1.51.42 18.65.37 22.13-.04 2.91-2.41 25.96-3.4 26.88-.08.07-2.11.36-1.97-.48 2.55-14.42 3.41-29.27 1.7-43.78-.11-6.89-11.42-4.68-16.79-5.35-2.46-.31-4.82-2.38-8.17-2.14-2.76.2-8.13 2.66-11.41 3.37-19.45 4.16-36.8 9.01-56.05 13.2-2.18.47-2.63.56-2.29-1.81 5.31-.04 11.55-3.1 16.99-4.53 15.21-3.98 34.54-9.79 50.62-11.35 8.5-.82 16.86 1.74 25.38.88 1.62-1.66-8.57-29.12-9.95-33.55-1.84-5.89-2.56-12.5-4.57-18.43-3.76-11.06-10.6-20.52-15.47-31.02 4.63 2.67 6.47 7.91 9.01 12.28.74 1.27 2.89-.31.97 3.71l3.01.02 20.16 66.82c3.09 2.21 6.28.43 9.17.54 5.85.22 13.38.34 19.02.96 1.95.21 6.17 3.64 8.21.69.35-.51-.7-10.26-.83-12.25-3.52-52.65 8.34-100.28 14.73-152.33 1.35-10.97 2.64-24.82 7.01-35.96 1.04-13.81 2.78-27.58 1.53-41.48-4.76 1.87-10.46 3.22-15.61 3.87-16.42 2.09-33.03-1.7-48.71 1.29-3.37.64-19.15 3.31-20.65 4.34-1.83 1.24.2 4.3 1.27 5.18 3.52 2.88 8.99 1.07 13.25 1.27.97.05 15.73 2.31 13.46-.94-2.13-.52-7.82-5.08-8.06-6.47-.17-.97-.36-3.32 1.55-2.53l14.48 13.53c.94 5.86-4.98-.95-7.5-1.11-.54-.03-1.37 1.18-2.52 1.08-6.34-.56-12.59-1.27-18.94-1.51 2.18 8.7-2.25 2.11-2.69 2.02-3.85-.78-6.4 1.4-3.62 3.01 1.57.91 5.25.12 6.78.46 1.88.42 2.7 3.39 2.52-.49h.98c-.47 3.44 4.4 1.57 7.31 2.2 3.66.79 5.96 6.08 7.74 9.05.28.47 3.94 2.52 1.93 4.7-1.36 1.48-15.48-1.35-16.96 4.03 3.16 1.47 10.97 2.33 13.03 4.48 1.38 1.43-.06 2.54-.54 2.52-.18-.01-1.6-1.49-3.05-1.93-2.97-.9-11.38-2.05-11.27-5.71.14-4.49 11.06-6.72 14.81-6.34 1.32-1.18-5.84-8.58-6.63-8.83-2.87-.93-5.33.65-7.76.5-1.28-.08-4.05-1.49-5.55-1.95-1.27-.39-2.78.58-4.01-.17-2.44-1.49-6.78-8.2-.04-7.55-.44-1.22-2.82-7.55-3.14-7.83-1.14-1-24.38 1.98-28.35 1.92-3.33-.05-10.5-.73-13.55-1.55-6.46-1.74-12.98-12.39-14.96-18.53 6.39 2.52 9.27 11.86 15.24 14.25 3.53 1.41 6.9.62 10.28.93 10.67.98 18.01.33 29.02-.8 14.35-1.48 26.65-5.33 40.96-4.95 14.39.39 32.37 1.69 45.76-2.66 1.15-.37 2.43-1.55 2.73-2.76-.64-.85-18.23-4.48-20.76-4.82-15.61-2.15-32.88-2.87-49.35-2.56-23.6.44-46.06 4.94-69.67 1.65-2.58-.36-4.35 2.18-5.77-2.24-1.11-3.43-.33-5.99 3.04-7.6 10.89-.69 21.58-1.08 32.51-.44l-1.48 2-31.51 1c-1.4 5.51 4.57 5.62 8.51 5.98 12.92 1.18 24.82-1.34 37.13-1.82 33.34-1.31 66.61-1.78 99.35 5.83.15-1.15-.68-2.44-.51-3.5 4.31-27.34.04-60.3-2.04-88.54-.41-5.57.87-12.72.61-17.41-.04-.67-2.13-.39-2.09-1.06.08-1.41 1.57-2.1 1.64-3 .08-1.11-1.56-7.83-1.59-9.99-.09-6.97 1.64-14.84 1.94-21.07.02-.43-1.96-.36-2.01-.98-.55-7.94 1.43-20.18.62-29-.09-.94-2.02-2.05-1.57-2.44 6.27-1.99 2.71 1.99 2.91 5.49.51 8.99.92 16.05 1.04 24.96.79 59.96 7.3 119.27 2.68 178.87-1.17 15.15-6.48 29.45-8.53 44.26-.89 6.46-.33 13.61-1.22 19.78-6.17 42.92-17.9 91.33-14.83 134.17 1.01 14.17 6.4 34.98 3.03 47.94-3.57 13.73-9.26 24.78-10.08 40.03-.18 3.29.64 16.76 3.22 18.29ZM666 918.99l4-5.47c-11.88-9.14-7.38 2.25-9.01 3.47-1.83.52-4.65-3.02-5.5-2.97-2.56.14-.74 12.42-1.07 15.01l11.11 22.93 9.46 3.03c1.3-1.27-14.78-27.23-15.89-32.62-.48-2.34 1.48-1.2 2.89-1.38 2.69 12.37 10.83 24.27 17.51 34.99 6.9-7.65 2.82-13.43-2.75-20.25l-2.75-8.72c2.83-.57 1.6.82 2.31 2.14 1.32 2.45 2.3 5.04 3.47 7.56l6.19 8.29c3.38-6.09 10.48-11.42 8.03-19l2.98 1c1.96-2.59-4.55-8.03-5.5-7.98-1.11.05-1.1 5.94-4.49.47-1.6-2.59 3.43.62 1.98-1.97-1.12-2.01-3.12-.27-3.99-.95-.94-.73-1.11-2.87-1.99-4.07-3.42-4.67-2.87-1.03-3.28-.83-1.16.58-2.67.23-3.65.93-3.13 2.22-3.78 5.74-4.09 9.4-2.09.23-.47-3.45-.99-4-.68-.71-4.26 1.59-4.99.99Zm-253.26 1.26c-.48-.41-3.23-1.1-3.79-.79-3.45 2.81-2.1 11.32 2.59 10.35 1.78-.37 3.17-7.88 1.2-9.56m7.27 34.74c12.93.81 28.73 8.5 39.97-.49-9.36-6.42-23.81-5.22-34.42-2.44-1.42.37-5.14 1.32-5.55 2.93m-13.26 18.74c1.65-1.6 3.3-10.26 3.24-12.73-3.06 1.67-6.61 8.55-6.81 11.71-.16 2.48 2.12 2.43 3.57 1.02"/><path d="M904 806c14.01 2.06 34.67 17.88 48.32 24.18 10.86 5.02 12.09 6.32 16.18-6.19 3.54-10.85 9.71-37.87 8.55-48.54-.6-5.55-2.96-2.29-6.55-2.36-22.07-.43-43.14 2.87-64.94 2.93-1 0-9.74.39-6.56-2.02 26.09 0 51.88-5 78-3-.61-18.33-.51-38-5.99-55.53-.23-2.91 1.21-.83 1.83.17 1.8 2.9 2.73 7.77 3.56 11.29 4.11 17.51 4.25 53.53.06 72.55-1.66 7.54-3.05 15.85-5.76 24.72-1.57 5.13-6.09 9.05-2.71 13.78-1.28.05-2.98-.26-4.06.48-1.25.85-6.22 11.45-7.56 13.46-.55.83-2.07.92-2.3 1.24-.48.65 1.22 2.55.92 2.83-.13.12-1.75-.42-3.07.67s-3.84 5.69-5.39 7.4c-5.37 5.92-10.78 10.85-16.12 16.89-10.97 12.42-19.63 15.82-35.14 22.83-11.21 5.07-19.75 9.48-32.89 12.11-21.61 4.33-43.7.46-64.79-3.79-1.94 3.28-3.79 6.8-6.19 9.81-5.61 7.05-15.76 16.03-23.49 20.51-3.46 2-7.98.08-6.93 4.58-3.54-2.42-4.78.66-7.07 1.42-3.98 1.32-8.27 2.26-12.16 3.83-10.88 4.38-20.97 10.63-32.75 12.74-.51-2.68.59-1.73 2.01-2.44 4.05-2.01 8.4-2.35 12.17-3.88 21.44-8.67 56.28-21.36 68.65-41.35 3.37-5.45 3.33-6.21-2.62-8.05-11.13-3.45-25.9 3.25-36.96 5.47-8.93 1.8-18.25 2.79-27.26 4.23 6.33-5.65 17.26-4.52 25.25-6.24 6.05-1.3 18.08-6.05 22.23-6.56 1.27-.16 4.46 1.04 6.52-.19l-8.68-2.8c-15.09-8.32-31.12-18.01-40.08-32.88-1.17-1.94-2.95-5.97-3.23-8.31l16.49 20.96c5.88 3.92 11.49 8.92 17.56 12.48 1.57.92 10.16 5.81 10.94 6.04 3.98 1.14 9.05-10.45 10.41-13.58 8.32-19.24 17.5-37.61 26.87-57.16 3.87-8.08 7.52-16.36 10.74-24.73 1.89-.21.76 2.01.54 3.04-1.97 8.93-9.3 22.85-13.41 31.6-8.95 19.06-17.86 38.16-26.78 57.26-1.04 2.22-4.26 3.51-2.33 4.57 4.32 2.38 12.43 1.45 17.32 3.5 1.23.51.1 2.41 1.29 3.07.87.49 12.21 3.2 14.02 3.57 3.96.8 27.39 3.78 28.24 2.3 1.42-10.58-.19-20.08-1.02-30.42-.41-5.08.51-11.26.14-16.93-.04-.64-1.98-.46-2.04-1.14-.3-3.41.43-10.87.52-14.46.05-1.97-.02-14.42.49-14.96.43-.46 2.73-.25 1.99 1.48l1.99 76.52c1.32 1.49 18.16-.84 21.31-1.46 5.9-1.17 21.57-5.6 25.75-9.04 1.13-.93.6-1.17.28-2.24l-8.33-18.25c2.29-.41 2.62 1.5 3.52 2.97 1.78 2.91 4.89 9.89 5.94 13.15.6 1.87-2.28 4.49 4.51 2.15 21.21-7.28 45.01-29.93 57.96-48.07 3.82-5.35 6.12-11.44 10.04-16.7-.02-1.58-10.88-5.21-12.74-6.2-13.02-6.94-27.92-16.11-41.33-22.75-3.03-1.5-3.28 1.09-3.92-2.55-5.85-.86-6.69-2.61-12.15-5.35-11.75-5.92-23.46-10.23-35.27-16.73-1.33-.73-3.05-.43-2.57-2.91 17.01 6.97 33.34 15.83 49.84 23.17.5.51.06 1.27.16 1.83ZM608 368c-8.28-5.26-10.9-16.03-16.2-24.3-1.02-1.59-3.83-6.13-5.32-6.69-1.66-.62-2.26 2.89-2.82 4.14-4.03 8.97-.4 10.96 3.44 19.02 3.59 7.54 7.37 16.7 9.71 24.52 3.98 13.28 6.91 25.08 9.79 38.38.51 2.34 4.5 11.75 4.4 12.4-.5 3.18-3.95-.69-4.43-1.55-1.16-2.07-2.43-6.43-3.12-8.88-5.23-18.74-10.99-41.26-17.72-58.24-1.33-3.36-4.21-6.89-4.75-10.79l-2.98 2c-1.03-2.91-.76-5.98-1.61-8.93-1.56-5.39-11.58-19.42-14.78-26.19-5.23-11.07-7.11-18.67-14.01-28.99-6.92-10.35-16.07-27.06-24.53-35.22-.91-.87-5.8-1.86-7.96-3.29-1.92-1.27-6.43-6.39-2.62-6.36 1.44.01 8.26 12.87 9.54-2.48.19-2.26-.32-17.38-1.03-18.74-.34-.66-3.48-2.9-4.53-3.82-6.05-5.31-10.75-6.31-17.15-10.32-2.49-1.56-6.6-7.15-9.33-9.16l9.98 5.5c1.29-1.76-3.9-13.04-4.39-16.53-1.29-9.15.29-18.19 3.27-26.84l-11.38-8.62v5.99c-.81-3.09-3.82-4.51-4.92-6.07-.66-.94-3.82-10.22-4.2-11.91-.57-2.54 1.89-4.5-1.36-4.02-.23-1.99 2.47-.05 1.98-1.98-3.69 1.09-.44-5.82 1.11-1.61 2.72 7.39.83 11.25 7.89 17.11 1.55 1.29 8.79 6.18 10.29 6.77 1.4.56 2.99-.49 3.51-.14s.82 2.55 2.82 3.75c.58.35 10.29 4.01 10.87 4.03.54.02 9.14-2.21 10.34-2.61 4.83-1.63 17.25-9.4 18.92-14.08 1.37-3.86-.29-11.79 4.26-12.23-.37 8.83-.9 14.6-7.95 20.54-5.76 4.85-16.84 10.29-24.59 10.49-5.22.14-9.57-3.07-14.45-4.04.57 3.69-2.13 4.95-3.12 8.48-2.41 8.62 1.16 24.3 4.62 32.52s12.4 10.12 18.01 15.98c6.67 6.95.08 23.34 3.02 31.98.67 1.97 4.74 6.63 6.44 8.31 6.18 6.1 13.55 18.78 19.18 27.13 10.6 15.73 14.03 34.92 26.19 49.53 1.08 1.3.2 4.72 2.68 2.59 2.87-2.46 3.86-8.46 4.01-12.03.17-3.82 1.05-4.47 1.05-4.92.01-1.47-3.69-17.07-4.53-18.63-.39-.73-4.55-6.35-4.84-6.65-.2-.2-4.78-1.97-4.74-2.79.26-5.04 1.97-1.23 2.76-.52 16.52 14.64 8.05 20.43 15.02 35.76.97 2.13 4.9 5.8 6.13 8.08 2.05 3.79 4.05 10.01 6.26 13.53 2.83 4.52 5.15 6.69 7.85 11.65 7.16 4.55 9.07 8.56 14.31 13.63 1.09 1.06 18.03 15.22 16.69 16.36-1.53 1.29-2.98-1.05-3.76-1.65-5.01-3.88-24.81-23.86-27.24-28.34ZM641.77 446.23c.49.33 2.09 4.27 2.02 5.12-.59 7.24-12.12 3.61-16.78 2.66l4.97 4.5c.05 3.39-15.28 1.58-17.23.53-1.62-.87-1.48-4.5-3.21-4.78-6.03-.96-4.11 7.01-4.59 10.2-.24 1.59-1.45 2.89-1.61 4.22-.19 1.63-.32 10.72.11 11.38.86 1.33 1.81.64 2.78.69 12.71.63 24.88-4.87 37.19-6.81 2.49-1.58 1.07-10.97 1.07-13.93 4.42 3.79.89 9.99 1.93 14.03.77 3 2.91 1.29 3.63 2.63 3.02 5.62-3.26 7.51-3.92 10.06-.52 2.01.81 3.83.88 5.78.13 4.09-3.72 6 3.97 7.1 5.1.73 14.1-.29 18.25-3.58 2.34-1.85 3.78-5.85 5.37-7.91 2.67-3.45 6.92-5.72 7.9-11.1l8.48-5.01c2.19 2.67-6.01 5.93-7.06 7.43-3.13 4.48-4.68 7.05-8.32 11.68-1.5 1.9-4.57 7.76-5.97 8.48-2.64 1.36-14.4 3.14-17.35 3.06-2.24-.06-4.54-1.8-5.72-1.72-.59.04-5.03 9.88-8.58 7.05-1.87-1.49 7.29-5.17 5.98-7.99-.24-.38-12.03 2.05-8-1 6.9-.12 10.06-4.32 8-11.01-.73-.77-7.32 2.82-7.99.02 2.09.29 2.75-2.75 3.72-3.01 3.34-.9 7.54.57 8.13-5.68s-14.92 1.01-16.63 1.4c-10.91 2.47-21.27.86-30.78 2.8-4.06.83-8.42 5.21-11.43 1.96l12-3.5c-1.23-1.38.24-6.74-.01-6.98-1.23-1.19-6.83 6.46-8.5 6.99-1.88-4.97 3.03-11.68 8.5-9 .01-4.01 1.17-18.8 4.28-20.72 1.19-.74 3.51-.02 4.84-1.66 1.44-1.78.41-4.48 1.03-5.46.34-.54 11.15-3.24 12.31-3.12 1.55.16 3.54 1.96 5.73 2.38 2.57.5 8.54.43 10.58 1.82Zm-2.77 3.76c-5.37-4.77-14.49-4.29-20.99-2.98l15.6 3.89zM345.67 860.71c-3.94 9.95-7.13 17.77-14.72 25.73-11.53 12.1-22.46 26.32-35.91 36.89-24.12 18.95-57.75 16.23-86.62 12.76-3.85-.46-10.27-.21-13.74-1.09-.81-.21-.53-1.92-1.3-1.96-8.31-.49-31.59-11.36-41.17-15.74-19.11-8.72-51.03-26.08-61.5-44.53-3.74-6.59-7.77-17.18-9.13-23.27-.4-1.79-2.02-3.35-1.57-5.49 2.77-.48 1.69.57 2.25 2.19 8.68 24.96 15.33 34.97 37.02 50.03 20.03 13.92 46.08 25.37 69.76 33.23 22.91 7.6 67.56 9.56 90.13.21 15.84-6.56 44.13-36.5 54.83-50.16 8.35-10.67 9.25-29.07 17.99-40.02 1.73-1.47.98 2.23.79 2.8-1.68 5.05-5.07 13.24-7.12 18.42ZM365.99 306.01l-34.07 131.35c9.62 5.62 18.01 13.43 28.36 17.67 13.42 7.18 31.01 9 45.93 14.27 4.54 1.6 8.6 5.48 13.79 4.72-.54 1.32-3.6 3.55-4.73 3.78-.44.09-8.46-.98-8.86-1.17-2.55-1.19-1.7-1.5-6.46-3.05-8.81-2.86-17.12-7.22-25.92-10.14-4.6-1.53-10.53-1.39-14.63-4.37-.89-.64-1.07-2.59-1.59-2.88-2.03-1.13-1.87.47-5.91-2.55-5.71-4.27-12.75-7.21-17.83-11.22-7.79-6.14-3.58-10.32-1.64-17.97 1.97-7.78 4.11-15.83 6.87-23.65.33-.93.94-1.7 1.7-2.32-4.15-1.2-.84-2.14-.3-4.28 1.02-3.98.05-8.03 4.29-9.71.17-.93-1.43-.25-1.77-.66-.44-.53 3.78-10.89 4.29-12.85 5.41-20.6 9.03-42.3 16.23-62.8.57-1.62-.52-2.67 2.25-2.19ZM777.01 492.99c-.13-1.79 2.48-.74 3.99-1.48 2.37-1.17 2.46-9.09 1.07-10.06-3.26-1.58-6.67.29-9.67.45-13.15.71-15.46 4.17-26.59 7.4-3.04.88-9.82 3.13-11.8-.29 6.7-.19 14.46-1.48 19.99-5.51l-15.49-1.58c-16.18 2.15-20.27 16.2-35.61 1.67-.38-.36-3.7-1.07-1.89-2.58 1.67-1.4 7.92 5.72 10.04 6.45 5.28 1.81 9.53-.32 13.98-2.96 1.29-.76 2.52.18 1.97-2.48-7.02.22-19.62 3.72-17.77-7.25.65-3.83 8.38-8.72 1.98-8.11-2.21.21-13.72 2.88-14.2 2.35v-3.99c2.64-1.08 1.71 2.03 2.55 2.04 13.04.11 28.78-7.81 40.98-7.1 7.11.42 19.95 2.47 27.47 3.57 3.04.44 18.45 3.04 19.51 4.46.21.29 2.11 6.01 2.25 6.76 1.64 8.5-3.5 4.94-5.36 7.21-.66.81 3.41 15.01-7.4 11.03m-35.02-31.98L725 464.99c4.67-.26 10.19-.65 14.68-1.85 1.73-.46 2.78.7 2.31-2.13M788 477.99c.44-.62-2.76-8.7-4.02-9.47-1.71-1.05-21.02-3.37-24.44-3.56-9.97-.56-31.74 1.1-40.99 4.09-5.25 1.7-11.15 9.85-5.04 10.95s20.7-.47 27.89-.84c1.41-.07 4.42.98 4.94.84.99-.28 1.78-4.58 5.66-2.99l-4 2.98c2.48.68 17.34-.37 17.99-1 .35-.33-.21-3.87.02-4.99 2.4.52 1.48 4.13 3.62 4.87 1.59.55 17.8-.07 18.38-.88ZM383 939.01l-11.9 42.36c.3 1.81 6.79 4.55 8.73 5.3 1.58.61 15.74 4.52 16.59 4.4.72-.1 4.52-10.09 10.1-10.01 1.13.02 6.3 2.27 8.14 2.55 23.63 3.58 54.06 6.81 77.89 5.41 2.11-.12 24.17-2.89 20.45-8.02-.39-.53-10.87-5.34-11.94-5.57-18.77-4.09-39.52-2.74-58.42-5.58-2.83-.43-12.32-.82-11.12-4.87l15.98 3.08c13.31-.08 27.33 1.05 40.94 3.02 3.4.49 9.2.71 12.36 1.62 1.96.56 13.21 6.14 13.99 7.5 3.56 6.17-9.55 9.61-13.76 10.31-9.5 1.58-17.49-.16-26.55-.23-20.92-.18-40.36-1.29-60.75-4.51-2.12-.33-7.27-2.78-8.19-2.82s-7.61 9.91-8.24 10.07c-1.12.28-2.56.07-3.73-.11-2.56-.4-14.4-3.57-16.47-4.48-1.64-.72-8.07-5.39-8.1-6.89 3.01-6.98 4.17-14.51 6.31-21.75 1.73-5.86 3.58-12.56 5.6-18.45.53-1.53-.9-2.88 2.1-2.34Z"/><path d="M251.63 815.38c13.15 11.07 24.62 23.82 38.65 33.84 7.24 5.17 15.47 8.93 22.37 14.65l5.62-7.15L329.02 830c1.35-.29 1.51 1.65 1.48 2.52-.04 1.5-2.85 8.77-3.59 10.67-2.53 6.45-5.49 13.62-9.89 20.07-7.38 10.82-16.9 26.12-28.36 36.37-14.35 12.83-31.87 17.34-51.05 18.19l-1.59-2.83c12.15.05 23.02-1.33 34.18-6.32 13.16-5.89 27.89-20.53 35.79-32.43 1.57-2.37 6.89-10.22 4.75-11.99l-23.88-14.32c-11.71-10.35-23.69-20.78-35.33-30.94-2.52-2.2-12.78-11.2-13.5-13.5-.16-.74 1.05-.68 1.48-.49 1.48.68 9.83 8.43 12.14 10.38ZM276 695.01l-68.99 85.49 3.99-.5c-6.44 8.57 6.53-.1 10-1-3.34 4.42-7.41 8.85-13.44 7.94-17.11-2.57-34.93-7.43-52.31-10.7s-33.5-5.64-50.24-8.26c-.25-1.71 2.38-1.07 3.48-.98 31.77 2.55 62.37 12.06 93.86 16.87 3.38-1.1.06-5.13.67-5.88l2.98 2c.63-1.38 1.62-6.08 2.29-6.73 9.65-9.38 17.99-20.27 26.72-31.02 11.48-14.15 23.15-29.25 34.99-41.72 1.72-1.82 2.75-5.68 6.02-5.51ZM488.44 215.57c11.59 21.74 23.01 45.57 30.86 67.59 1 2.8 3.53 6.94 4.2 9.32.5 1.77-.38 5.02 0 5.59.44.65 2.12.69 2.37 1.04s-.87 4.68.21 8.12c4.43 14.11 9.46 46.11 10.08 62.19.06 1.44 1.28 2.4-.69 3.57-2.34.88-1.27-2.31-1.45-3.52-5.26-36.83-10.28-74.1-25.86-108.15-6.66-19.23-22.55-40.78-28.71-59.29-.32-.96-1.45-4.18.52-4.02 3.11 5.72 5.38 11.81 8.45 17.57ZM718.41 877.59c5.53 7.34 15.84 15.51 22.2 21.75 1.16 1.14 7.45 6.6 6.39 7.66-.99.98-2.77-1.68-3.48-1.69-.43 0-5.41 3.7-7.23 4.47-5.19 2.19-11.66 2.63-16.29 4.71-4.06 1.82-6.09 6.08-11.99 4.51-1.5-1.51 4.77-14.83 5.4-17.87 1.46-7.04-.7-15.85-.4-23.12-1.5-1.85-5.22 5.91-5.52 6.97-.79 2.76.62 8.82-2.48 6.52 1.6-5.96 1.76-16.12 10.02-15.49.77-2.6-1.23-1.55-1.94-2.77-4.45-7.68-10.15-16.36-11.06-25.22l4.62 9.87c4.5 5.87 7.48 14 11.78 19.72Zm14.22 16.78c-5.42-6.09-12.43-10.99-17.62-17.37.52 3.77.97 7.62 1.02 11.44.03 2.52-.96 14.37-.7 15.08.62 1.73 1.98.98 2.97 1.49 3.54 1.82-1.69 1.9-2.03 2.19-.41.35-4.76 9.19-4.26 9.79.85 1.04 4.33-3.55 5.99-4.3 3.99-1.81 18.65-3.49 20.53-7.68 1.73-3.85-11.02-3.2-12.98-2.95-2.62.33-5.24 2.95-8.55 1.93 1.35-1.86 5.44-3.36 7.61-3.9 4.33-1.08 8.08-.42 12.38-.1-2.5-1.43-3.28-4.39-4.37-5.62Z"/><path d="M204 813.01c-.91 2.35-.65 6.31-1.08 8.36-4.73 22.49-20.76 49.13-27.83 71.41-.77 2.41-.62 5.35-1.91 7.76 15.24 6.67 30.63 14.05 47.5 15.37.91.07 18.82-1.65 14.32 2.08-12.4-.29-23.14-.53-35.2-4.29-7.09-2.21-17.36-8.89-23.03-10.05-2.69-.55-4.51.71-6.07.42-.81-.15-1.21-2.15-2.31-2.91-3.66-2.53-7.87-3.94-11.38-6.66 3.55-1.31 9.01 4.12 11.68 4.34 4.18.35 4.22-7.84 5.26-10.38 5.18-12.65 10.44-24.75 15.43-37.46 2.79-7.11 7.42-16.54 10.03-24.89.83-2.65 1.07-7.77 2.1-11.03.5-1.56.18-2.42 2.49-2.07M930.22 636.67c6.61 5.14 16.2 13.77 21.78 20.83 1.16 1.47 3.98 5.5 3.5 7.5-3.89-3.46-6.92-7.76-10.44-11.53-1.85-1.98-5.11-2.45-5.12-6.43l-1.9.96c-.83-3.59-7.37-9.99-10.53-12.01-2.6-1.66-6.55-2.85-9.48-4.05l.97-1.92c-3.11 1.58-4.05-.73-6.01-1.31-23.62-7.04-55.16-15.02-79.51-17.68-.94-.1-13.06.7-9.48-2.01 8.13.39 16.12.87 24.18 2.31 20.93 3.76 62.83 11.23 79.81 22.2 1.36.88 1.55 2.62 2.23 3.15ZM329.41 724.62c2.23 6.51 5.88 13.47 7.61 20.87.31 1.35 2.1 1.71-.52 3.49l-17-43.96L279.01 733l39.28-30.3c1.08-2.65-4.45-20.59-5.81-24.68-.32-.97-5.51-9.08-1.98-9 .4 0 3.87 6.59 4.02 6.97 5.74 14.99 9.54 33 14.89 48.62ZM117.99 704.01c.35 1.68-1.01 2.09-1.48 3.54-1.35 4.13-3.5 5.24-5.95 9.51-19.22 33.4-21.05 76.12-7.29 112.17 1.34 3.51 5.01 8.02 5.68 10.33.53 1.81-1.32 1.98-1.93 1.43s-2.48-5.96-3.12-7.19c-3.28-6.31-4.41-9.84-6.24-17.05-9.43-37.24-7.82-71.04 13.67-103.97 1.61-2.47 3.24-7.98 6.66-8.78ZM841.01 759c2.32 2.45 3.11-6.32 3.04-7.47-.14-2.38-1.48-4.23-1.78-6.3-1.88-13.12-2.77-26.41-6.27-39.22 2.7-.46 1.73.49 2.27 2.17.86 2.71 1.77 6.97 2.3 9.83.63 3.41 2.64 28.89 4.93 28.97l7.48-32.29 3.02-.68c-2.22 2.65-1.44 6.11-2.1 9.39-2.55 12.52-6.37 25.12-9.31 37.45-1.08 4.55 1.83 8.5-3.1 10.13-2.59-1.66-.3-3.92-.44-6.44-.29-5.29-8.24-22.26-10.57-28.54-4.34-11.69-8.66-25.98-14.25-37.74-.8-1.67-1.99-1.56.27-3.24zM974.99 863.98c-3.45 1.09-4.57 6.36-5.93 8.58-4.93 8.07-10.36 15.2-16.84 21.39-20.85 19.9-49.81 36.97-78.49 46.11-1.78.57-.06.45-3.95 1.17-17.49 3.22-33.98 3.37-51.78 1.76-.24-3.29.26-1.44 1.65-1.43 14.91.18 39.6 1.71 53.59-2.63.56-.17 1.79-2.45 4.31-2.91.8-.14-.16 2.57 1.43 1.96-.12-1.13.29-1.74 1.24-2.32 11.08-6.75 25.28-10.51 36.65-17.3 14.01-8.36 35.99-25.78 45.5-39.5 3.66-5.28 6.43-11.32 9.64-16.88l2.97 1.97ZM837 782.99c-2.21.55-3.64-3.61-4.37-5.12-10.84-22.35-18.45-46.16-28.01-68.99-6.85-16.37-16.71-34.39-22.43-50.58-.57-1.6-2.06-1.56.32-3.29l27.51 59.48c3.47 9.74 7.65 18.94 9.94 29.06L837 783Z"/><path d="M907.6 644.42c13.05 6.89 33.03 19.08 41.82 30.66 4.44 5.84 10.81 14.72 11.57 21.91l-10.03-16.22c-6.72-11.06-16.2-16.9-26.32-23.4-23.92-15.35-30.83-17.53-59.18-20.39-2.84-.29-8.5 2.26-6.96-1.99 16.75.72 34 1.47 49.09 9.43ZM646.99 510.01c.55.57-3 7.42-3.5 8.99-1.52 4.82-.07 10.2-6.55 12.45-1.15.4-6.4 1.95-5.94-.94 1.17-2.08 8.31-2.76 8.86-3.65.79-1.29-.64-5.82 1.13-7.86-2.47-.36-4.47 1.41-6.77 1.71-5.21.68-14.16-.31-19.78-.68-2.91-.19-8.68-2.19-9.91-2.08-1.88.18-2.52 2.42-4.54 2.04 1.52-5.02-6.49-3.52-8-5.02-.64-.64-.55-2.17 1.41-1.92 2.48.31 7.29.51 8.89.91 1.01.25.95 2.08 2.11 2.64 4.19 2.06 10.42-1.53 13.08-1.66.59-.03.42 2 1.11 2.11 1.45.22 4.36-1.39 6.91-1.17 3.1.27 6.32 1.8 10.43.6 1.5-.44 10.46-7.1 11.05-6.49ZM820.7 467.29c1.44 1.7 3.04 7.54 1.8 9.71-2.41-3.47-2.75-10.35-8.5-9.98 5.12 9.27 6.96 17.73 2.21 27.7-1.88 3.95-12.06 15.69-15.56 18.94-3.95 3.67-18.11 11.19-19.72 13.83-2.19 3.58 1.13 9.59 1.93 13.19.42 1.92-1.3 1.86-1.83 1.33-1.21-1.2-4.28-16.9-4.64-20.02-.33-.72-2.72-3.18-3.4-3.46-3.09-1.3-8.6 1.17-7.97-2.51 4.46-.65 9.62.27 12.44 4.08 1.79 2.42-.46 5.19 2.07 4.93 5.99-4.56 13.32-8.07 18.99-13.02s10.41-11.15 13.86-17.77c.2-.38 1.82-.59 2.42-1.92 2.88-6.38 3.41-27.31-7.74-22.78-1.65.67-8.35 7.84-10.04 6.46 1.18-1.38 2.4-3.8 3.56-4.92.41-.4 9.5-5.62 5.89-6.08-1.98-.25-4.07 1.14-3.45-1.98 3.15-1.08 5.24 1.5 7.54 1.95 3.23.63 7.42-.91 10.16 2.33ZM119.99 709c.17.22-.49 1.79.66 3.06 6.35 7.03 20.39 15.5 28.46 22.32 1.61 1.36 4.88 3 5.93 4.17.93 1.03-.18 2.37-.05 2.44.79.45 3.14-1.41 3.85-.91.42.3 4.15 6.38 6.14 8.16 4.47 4.01 11.17 9.36 16.08 13.19.98.77 10.95 5.53 8.93 7.56-2.17 2.18-23.17-16.83-25.78-18.98-11.21-9.26-23.41-18.73-35.28-28.45-3.27-2.68-10.73-5.96-10.98-11.04-.1-2 1.42-2.3 2.04-1.53ZM797 804.99l-34.37 14.14L715.01 845l1.99-1.98v-3.03c1.93 2.07 5.05-2.96 6.31-3.67 10.73-6.03 24.48-12.13 35.91-17.61 11.83-5.68 23.8-9.45 35.47-15.56l2.32 1.84ZM816 756.99c-1.36 1.22-10.16-6.24-12.1-7.39-8.33-4.95-17.93-9.43-25.8-15.19-10.87-7.96-24.04-13.7-36.75-22.26l-13.34-6.14c4.39-.26 9.34 2.23 13.37 4.11 14.77 6.9 32.12 18.52 45.97 27.03 7.54 4.64 19.69 10.87 25.98 16.02.71.58 3.88 2.74 2.67 3.82M485.39 485.74c1.6 2.22 6.16 5.09 7.32 6.55 2.55 3.2 5.15 9.86 8.32 12.21 1 .74 9.14 2.46 10.37 2.43 3.8-.1 12.29-3.34 16.12-4.92 14.72-6.08 28.33-16.46 44.48-20.01.56 3.05-.93 1.53-2.36 2.09-3.09 1.21-5.9 2.62-8.91 3.94-7 3.07-15.83 6.51-23.61 10.6-3.38 1.78-5.8 4.68-9.88 6.13-2.89 1.02-13.33 3.88-16.01 3.98-13.05.49-13.91-6.91-20.3-14.94-9.7-12.2-14.34-21.31-21.63-34.57-1-1.82-4.48-.94-.81-4.22 3.49 6.38 7.55 12.48 11.23 18.76 1.76 2.99 3.71 9.28 5.66 11.98ZM400 236.99l-23-5.98c4.08 17.74-.48 37.82-5.29 55.21-.66 2.38-1.39 5.63-2.26 7.78-.65 1.6.11 2.45-2.45 2 1.12-4.97 2.26-11.36 4.99-15.5-3.73-.79-.56-1.66.35-4.73 2.89-9.72 4.98-27.1 4.27-37.03-.26-3.71-1.75-7.83-1.61-11.73.71-.71 10.83 4.14 12.78 4.82 4.1 1.43 10.13.94 12.22 5.16M252.35 878.69c1.34 3.12 3.05 7.18 4.61 10.84s7.54 11.05 6.31 15.18c-1.79 6.01-1.91-2.01-2.04-2.41-.95-3.06-3.15-6.5-4.56-9.51-2.78-5.92-5.45-11.71-7.99-17.98-1.25-3.08-4-5.44-2.68-8.8-4.52 1.34-3.23-5.43-4.11-8.35-.09-.3-.97-2.34-1.45-3.75-2.78-8.2-7.04-16.2-8.43-24.92l3.49 6c4.96 14.81 10.81 29.59 16.85 43.69ZM257.68 623.35c.53.21 4.85 3.47 5.7 3.8 5.03 1.92 11.13 2.91 16.22 4.75 1.46.53 2.83.55.88 2.12-11.92-1.4-22.1-8.76-33.47-11.51-7.05-1.7-19.98-2.44-27.46-2.54-6.99-.1-18.21 1.82-24.08 1.04-1.39-.19-2.92-.56-1.47-2 10.73.3 21.69-1.57 32.42-1.01 8.88.46 23 2.07 31.25 5.36ZM768 655.01c-.79 3.22-3.12 3.36-4.85 4.64-10.28 7.61-19.22 12.9-28.15 23.12L716.02 706c-.28-1.68.39-2.94 1.14-4.35 2.46-4.65 15.41-20.24 19.44-24.56 2.71-2.9 28.76-24.29 31.41-22.08ZM875.31 823.78c3.07 3.26 3.84 4.05 6.72 7.69 14.28 18.07 29.95 21.5 46.19 35.57 5.27 4.56 5.77 8.81-1.43 2.95-3.94-3.21-8.29-8.06-12.56-10.95-13.45-9.1-23.97-11.54-34.21-25.78-1.05-1.46-1.03-4-2.15-5.65-1.36-2.01-5.37-3.04-4.88-6.61 3.25-.65 2.1 2.55 2.31 2.77Z"/><path d="M914.33 686.33c-1.67 2.03-7.77 10-9.23 12.25s.11 5.29-4.12 4.42c2.08 2.71-.78 1.82-2.02 3.43-1.1 1.42-1.46 3.19-2.54 4.48-5.4 6.41-12.33 11.88-17.02 18.98l-3.4 2.09c7.12-10.2 16.01-19.02 23.81-28.64 8.35-10.29 19.05-22.27 26.65-32.39 1.57-2.09 1.47-5.37 4.04-6.96-.07 7.76-7.93 13.94-12.97 20.06-.88 1.07-2.49 1.4-3.21 2.27ZM770 627.01c-2.57 2.69-6.04 5.24-9.09 7.4-7.95 5.66-16.38 10.06-23.57 16.93-5.06 4.83-9.44 10.74-14.2 15.26-1.72 1.63-2.29 4.59-5.14 4.4-.69-.71 4.63-7.04 5.48-8.01 9.73-11.12 26.34-26.85 38.76-33.28 2.23-1.15 5.25-2.34 7.75-2.7ZM732.62 565.63c-.18.32-1.24.47-1.61 1.08-.35.57-3.49 10.8-6 8.28-1.03-1.03 11.1-16.87 9.98-18.99-16.44-.37-33.98 2.28-50.27.56-1.17-.12-4.82 0-4.72-1.56l56.34-.88c1.01.45 1.71.94 1.52 2.2-.13.89-4.33 7.7-5.25 9.3ZM602 523c-.26 2.06.27 7.31 2.6 7.83 1.86-.63 23.42-2.79 23.39.67-5.72 5.27-27.62 5.18-28.52-4.03l2.54-4.47ZM338.99 794c.23 5.23-3.78 9.08 1 12.98-4.4-.29-5.1 3.39-5 7.02-4.16.82-.8-4.5-1.5-6.07-.94-2.09-12.92-3.92-16.15-4.62-1.46-.32-4.62-.45-6.44-.89-3.29-.8-6.45-2.28-9.9-2.43.62-4.87 1.95-1.73 3.79-1.29 4.38 1.05 29.18 7.32 31.21 5.3.89-.88-2.2-10.47 2.99-10M561 533.01c-2.74 5.27-8.37 2.22-12.69 6.3-3 2.83-.76 7.82-5.32 6.69 1.86 2.63-1.69 5.69-3.65 7.88-2.57 2.88-7.47 7.78-11.35 8.11 7.77-7.78 13.66-17.35 20.48-26.01 3.09-2.6 8.58-2.32 12.52-2.97ZM576 513.01c1.42 1.45-.09 1.81-1.48 1.99-8.62 1.09-22.09-1.82-30.33-4.74-1.61-.57-2.67.52-2.19-2.25 4.73.35 31.85 2.82 33.99 5.01ZM547 419c-3.93-.61-2.48-2.57-3.98-4.25-3.11-3.47-8.71-6.02-8.01-11.74 2.22-.54 2.21 1.3 3.19 2.3 4.15 4.26 5.99 9.26 8.81 13.69.43.07 1.46-1.69 3.01.44 6.1 8.37 12.96 17.4 18.81 26.25 3.47 5.25 8.05 11.07 9.17 17.31l-8.02-12.46c-8.37-10.26-15.89-20.41-22.97-31.53ZM732.41 515.69c.65 1.71 1.44 4.58 2.5 6.86s3.07 4.34 3.88 6.17c.22.5.93 4.27-.79 2.8-7.3-8.75-9.72-20.05-12.09-30.91-.72-3.28-3.19-6.21-1.89-10.6 1.67.29 1.83 1.92 2.26 3.23 2.42 7.45 3.32 15.09 6.14 22.46ZM208 715.01l.5 51c-3.78-16.55-3.06-34.07-3.5-51.01h3ZM319 650.01l-28.99 35.98c-.15-1.56 2.14-6.53 2.91-7.37 1.1-1.2 2.86-.43 3.09-.64.31-.28-1.28-1.88-.9-2.83.18-.44 5.77-5.21 6.91-6.65 4.28-5.44 8.27-11.35 12.73-16.44 1.3-1.48 1.89-2.58 4.25-2.06ZM797.99 642.99c4.57 15.89 12.26 31.06 17.81 46.75l-.82 4.25-4.3-13.44c-4.01-10.32-11.2-23.7-14.27-34.47-.59-2.07-1.24-3.59 1.58-3.09M418 550.02c2.49 2.94-3.35.88-4.43.92-7.4.32-11.3-.19-18.23-.55-5.75-.3-14.44.6-19.81-.41-4.96-.94-5.36-6.9 1.99-1.46 5.06-.03 39.17-.05 40.48 1.5M442.32 400.78c5.83 15.79 18.56 34.18 24.36 50.05.65 1.79 2.09 2.66-.19 4.16l-14.2-27.78c-.62-3.61-3.29-7-4.43-9.62-3.67-8.4-15.06-38.7-14.79-47.19.06-1.8-.43-3.74 1.92-4.4-.5 11.07 3.88 21.11 7.37 31.25.51 1.47-.28 2.9-.04 3.53M208 674.01c-2.42 12.77-.53 25.72-.31 38.54l-2.68 1.45c1.32-10.9-2.04-24.57-.4-35.12.3-1.95.32-5.19 3.39-4.87M463.99 200.99c-1.94-.36-1.15-2.96-3.68-3.81-1.33-.45-4.54-1.14-4.14 1.12 1.2 6.75 4.81 6.79 8.34 11.68l1.5-2.99c.84-.96 5.32 7.78 1.97 11-1.89 1.81-3.22-5.38-4.3-6.69-1.93-2.33-6.91-4.46-8.41-8.07-4.31-10.35 8.67-11.79 8.72-2.25ZM644.98 401.02c2.45 5.63 10.25 8.41 14.52 11.98 5.94 4.98 18.95 19.19 23.49 25.51.97 1.36 2.21 2.62 2.01 4.48l-7.62-7.37c-4.38-5.57-10.13-12.95-15.19-17.6-2.61-2.4-18.87-13.38-19.21-14.54-.52-1.79-.21-3.02 2-2.46M333.6 616.61c-4.44 6.57-10.12 13.39-14.59 19.68-7.71 10.84-18.54 23.23-25.61 34.1-5.16 7.93-8.01 18.75-14.39 25.61 1.5-2.04-2.09-3.29-2.01-3.5.62-1.45 3.59-1.25 4.49-2.51 1.1-1.55 2.89-7.75 4.12-9.88 14.77-25.45 35.5-47.73 50.75-72.78.48-.79 4.17-5.25 4.34-5.61 1-2.05.23-5.8 3.28-6.73 1.83 2.37-8.37 18.63-10.39 21.61Z"/><path d="M724.99 576.01c1.45 1.61-9.78 18.25-11.69 20.74-1.11 1.45-10.38 12.35-11.3 11.25-.2-1.51.66-2.86 1.53-3.97 5.44-6.95 12.31-13.95 17.51-22.48.39-.64 2.01-7.7 3.94-5.55ZM755.15 528.91c1.08.61 3.08-1.11 3.91-.49.92.69 2.6 6.28 3.01 6.54.3.18 2.25-1.32 2.84-.93 1.42.93 3.98 9.03 4.87 10.7.72 1.35 1.92 2.15 2.63 3.37 2.57 4.38 1.25 7.04 9.45 5.77 2.17-3.41-.06-6.28-.67-9.57-.36-1.96 1.26-1.83 1.8-1.29.86.87 2.37 9.8 1.46 11.02-2.78 3.71-10.97 2.34-12.88-2.01-.91-2.07-.16-1.25-1.89-4.25-2.69-4.67-4.5-11.82-10.2-13.75-2.5-.85-.9.91-.7 1.7.48 1.85 3.04 5.99-.77 5.29-.28-.34-.56-6.75-1.23-8.32-.62-1.46-2.24-1.48-2.8-2.43-2.27-3.85-4.64-7.76-5.54-12.2-.21-1.03-1.4-4.21.55-4.05.4 2.52 4.68 14.06 6.16 14.9M510.99 859c.64.62.94 9.46 1.29 11.23.9 4.56 2.16 11.16 3.4 15.51 1.15 4.03 6.26 9.61 2.81 13.25-3.22-8.09-5.82-15.85-7.38-24.6-.84-4.71-1.02-9.57-1.69-14.28-.31-2.14.51-2.13 1.56-1.11ZM719.99 951l-6.71-7.41c2.49-5.26-1.04-4.3-1.78-5.52-.49-.81.59-2.28.31-3.34-.32-1.21-3.69-6.01-4.59-8.51-.39-1.1.84-2.65.57-3.09-.07-.12-3.81-.33-1.79-2.12 1.68-1.49 4.88 6.09 5.36 7.13 3.35 7.34 5.78 15.31 8.62 22.87ZM610 537.01l26.98-1.51c-2.21 2.48-8.27 4.27-11.51 4.56-1.29.11-9.41-.06-10.69-.25-1.5-.22-4.31-1.06-4.78-2.8M767 489.01l-20.53 7.96c-1.13.63-6.59 4.59-7.18 5.3-1.58 1.94-.09 5.33-3.29 4.71 1.19-2 .95-4.99 2.29-6.71 4.59-5.9 21.12-11.07 28.71-11.27ZM989.99 826.01c1.3 3.29-1.49 3.82-1.74 4.51-3.28 9.14-7.93 18.87-12.01 28.27-.62 1.43.65 2.74-2.24 2.21 3.7-11.6 9.23-22.53 14.37-33.54.33-.7-1.22-2.19 1.62-1.45M767 560.01c.18.18-.75 2.41-.34 3.79 1.48 4.93 3.2 10.21 4.84 15.2.82 2.49 3.67 4.33 2.5 7.99-2.62.47-1.77-.48-2.43-2.01-2.91-6.72-3.32-12.58-5.36-18.58-.77-2.26-3.31-.31-1.3-4.99.4-.92.45-3.09 2.09-1.41ZM300 797.01l-1.5 2.97c-7.33-5.31-19.35-4.24-27.55-6.48-.98-.27-3.52-1.16-1.94-2.5 1.2-1.02 27.06 5.33 30.99 6ZM215.99 874c-1.17 9.47 1.23 21.26-.54 30.36-.2 1.04.6 2.28-1.45 2.63.49-9.92-1.25-21.78-.01-31.52.19-1.46.76-3.1 2-1.48ZM576.99 884.99c-.86.65-2.53-.53-2.76-1.73L568 861c1.8.73 2.57 3.43 3.36 5.13 1.34 2.9 7.99 17.08 5.63 18.86M543.01 899c-1.49-2.38-1.34-6.24-2.09-8.24-.32-.84-1.56-.77-1.83-1.54-1.45-4.05-4.8-13.62-5.47-17.42-.3-1.72-1.01-2.49.89-3.79 2.28 9.57 6.61 18.72 10.1 27.98l-1.59 3.01ZM532 136.99c-.86-3.3 4.27-2.05 4.7-4.45.53-2.98-2.81-3.84-3.59-5.13-2.05-3.41-3.96-8.19-4.1-12.41 3.25 2.06 3.18 7.63 5.11 10.38 1.45 2.07 5.33 2.89 5.48 6.1.19 4.09-3.97 6.04-7.59 5.52ZM147.99 826.01c1.09 1.18-1.83 3.24-2.66 3.83-9.02 6.47-21.35 9.19-30.21 16.31-1.62 2.75 4.86 7.82 4.86 10.85-2.86-.24-5.47-7.54-6.07-7.95-1.38-.97-5.06 3.98-6.92.45 3.36-1.6 4.76-.98 4-5.49 2.86 1.72 5.42.24 7.91-1.57 6.64-4.83 13.86-8.01 22.09-11.91 1.66.26 5.99-5.59 6.98-4.51ZM207 646v27l-2-1.48c.85-7.04-1.58-16.41-.05-23.06.41-1.77-.92-2.93 2.05-2.46M390.99 934l-2.15 22.26-2.83 2.74c.72-7.21 1.31-15.49 2.94-22.5.4-1.74-.94-2.98 2.05-2.49ZM390.99 631c.37.33 1.4 8.21 1.73 9.81 1.42 6.92 3.75 16.6 4.88 24.84.32 2.32.18 4.97.38 7.34-1.4.24-1.46-1.77-1.71-2.77-.71-2.91-1.46-6.07-2.08-8.98-1.46-6.88-2.45-16.87-4.29-25.66-.34-1.64-1.9-2.9-1.9-3.08 0-.6 2.32-2.08 2.97-1.49ZM585.37 876.64c1.39 2.17 6.33 5 6.12 8.36-1.97.22-5.84-3.77-6.81-5.04-1.36-1.76-4.93-8.63-5.92-11.23-.6-1.57-.96-3.05-.75-4.74 3.48 3.03 5.12 9.13 7.36 12.64ZM648 879.99c-1.11 1.25-5.29-4.79-5.63-5.36-.84-1.41.2-3.41-2.26-4.44.39-2.31-6.23-9.94-5.1-11.19.85-.93 2.81 1.15 3.42 2.07 1.1 1.67 10.28 18.12 9.57 18.92M881 882.99c-1.57 1.88-2.14-1.41-2.48-1.97-4.37-7.25-8.69-14.95-10.51-23.02 1.55.25 1.88 1.87 2.48 3.01 1.32 2.55 11.29 21.04 10.51 21.98M570.99 539.01c1.45 1.45-4.71 5.31-4.93 6.63-.25 1.5 2.34 2.73 1.92 3.34-.05.07-1.23-.19-1.62.39-.54.81-.19 2-1.02 2.69-.93.77-4.88 2.54-6.34 2.94-.51-3.05 3.36-2.42 4.48-5.01.91-2.09.1-4.13 1.45-6.55.45-.8 5.15-5.33 6.06-4.43M694.65 447.35c2.34 2.6 4.67 9.07 5.34 12.65l-3.66-4.31c-.42-2.85-1.86-5.55-3.95-7.57-2.23-2.15-6.08-2.93-6.31-3.21-.42-.51-.67-3.67 1.4-2.9.42.16 6.71 4.82 7.17 5.33ZM412.99 570c.44 2.59-.38 1.8-2.15 2.29-2.98.82-11.89.73-15.35.4-1.38-.13-2.47.46-3.48-1.2l20.98-1.48ZM379.43 639.78c.06.2 1.15.17 1.31.72 1 3.56 2.84 9.69 3.21 13.08.22 1.98-1.32 2.07-1.93 1.43s-1.52-10.3-2.09-12.24c-.23-.8-1.61-.7-1.85-1.51-2.39-8.21-3.74-16.97-6.07-25.24l5.72 14.76c.38 2.98.89 6.17 1.69 9.01ZM857 635.99c-5.45 1.36-10.89-.51-16.49 0l-11.5-1.98c8.48-.38 16.77.76 25.25.63 1.33-.02 2.2-.86 2.75 1.35ZM588 476.01c-.94 1.89-14.35 7.52-14.99 6.98-2.74-2.26 8.35-4.54 9.11-5.41 1.84-2.12-.31-4.17-.1-6.58 2.87 1.63 1.42 5.71 5.99 5.01ZM619.99 859l9 20c-3.32-4.68-9.44-13.29-10.9-18.6-.52-1.88.48-1.48 1.9-1.4M216 850v20c-3.21 1-2.08-5.46-2.05-7.55.06-3.95.29-6.95.16-11.03-.06-1.98-.19-1.44 1.88-1.42ZM841 791.99c-.28-2.68 4.72-4.45 5.34-6.27.77-2.31-1.58-5.05 1.14-4.71 4.27 3.7-1.61 12.08-6.48 10.98M804.99 789.01 772 796.99c-.33-3.14 3.63-3.29 5.79-3.74 4.32-.92 9.01-1.76 13.39-2.53s9.6-2.32 13.81-1.71M420.99 312c1.4 1.32-.51 6.55-.49 7.93.04 2.12 1.31 3.98.83 7.19-.27 1.84.34 3.45-2.33 2.88 1.31-3-.58-6-.51-8.5.08-3.01 2.77-6.11.53-9.02-.14-.84 1.9-.55 1.97-.48M129 646.01c-4.67 4.89-10.6 8.48-16.02 12.48-1.55 1.14-1.07 2.36-2.98 0 6.56-3.72 12.03-9.75 19-12.49ZM550.99 560l-5.5 5c-7.15 6.13-15.87 8.55-24.26 12.35-.21.1-.52 1.93-2.17 2.27-3.16.66-13.51-7.56-3.06-8.62l-2.98 3.49c0 .25 3.43 2.81 4.05 3.02 4.48 1.52 28.29-15.26 33.93-17.52ZM260 657.01c.64.78-7.16 16.4-8.99 17.99 1.15-4.41 3.18-9.24 5.14-13.35.34-.72 2.31-6.49 3.84-4.64ZM338.01 778c.57-3.14-.64-6.42-.63-9.33 0-1.04.22-4.39 2.1-3.66 1.99.77 1.48 12.12-1.48 12.99ZM838.99 836c-5.04.07-1.22-7.05-.57-9.92.25-1.09-.67-2.85-.43-3.07 4.06-3.83 1.22 11.78.99 12.99ZM109.99 660.01l-9.02 12.47c-6.93 7.39 1.98-6.51 4.05-8.95.71-.84 3.92-4.58 4.97-3.52M895 775.01c.03 2.06.57 1.96-1.4 1.86-5.67-.29-10.97.93-16.59 1.13-.4-.3-1-1.99 1.26-1.72 5.31.65 11.24-1.93 16.73-1.27M79 733l-1.96-2.46c2.56-4.72.6-11.75 4.96-15.55l-2.99 18ZM189.99 790c.5 3.1-.82 1.58-2.5 1.96-4.2.93-10.66 3.52-14.49 1.53z"/><path d="M268 791.01c.65.63.57 2.14-1.41 1.92-3.32-.37-8.02-1.73-11.24-2.82-1.54-.52-2.87.9-2.34-2.1 2.29 1.36 14.28 2.33 14.99 3.01ZM529.99 896c-4.54.03-3.66-8.01-4.27-9.84-.12-.36-3.51.49-.22-2.13 1.42.04 4.33 9.91 4.49 11.98ZM514.5 120.02c6.62 6.66-4.95 9.53-3.35 3.65.36-1.33 2.44-2.54 3.35-3.65M163.99 628c.53 2.83-.71 1.62-2.17 2.27-4.19 1.85-8.5 3.61-12.37 5.4-2.02.94-14.83 7.92-15.44 7.32-1.73-1.7 1.35-2.11 1.97-2.48 8.55-5.16 18.46-9.59 28.01-12.51M465.99 243l-6.98-16.99c3.77 4.03 6.24 11.53 6.98 16.99M436 348.01c-1.73 4.11-.49 8.5-.99 12.51-.18 1.47-.77 3.09-2 1.48.27-3.47-.09-8.84.6-12.09.39-1.85.19-2.24 2.39-1.9M435 304.5c0-.56-1.8-1.75.99-2.5.96 6.05-.37 11.75.8 17.74.38 1.94-.14 1.2-1.79 1.26.03-5.49-.04-11 0-16.5M224.98 812.01c.54.44 4.81 11.07 5.01 12.99-2.94.59-1.57-.95-2.24-2.21-1.87-3.52-2.58-7.05-4.75-10.3-.13-.85 1.84-.59 1.97-.48ZM823.99 478.01c-1.41 4.51.36 11.77-2.98 14.99.02-4.12.43-8.42 1.02-12.49.27-1.85-1.01-2.96 1.96-2.51ZM479.99 255.01c1.68 1.45-1.23 2.19-1.86 2.59-5.54 3.53-7.45 2.16-7.13-4.59 1.83.14 1.12 4.64 3.48 4.82 1.28.09 4.32-3.84 5.51-2.82M637 877.99l-6.81-8.69.31-3.3zM840.99 821.99c-4.69.25.04-8.15-1.99-10.99 5.33.15.67 7.52 1.99 10.99M72.99 755c.38.49-.39 10.17-.6 12.2-.12 1.17.81 2.34-1.38 2.8-.2-4.64.19-9.29.43-13.9.11-2.09.18-2.89 1.56-1.1ZM204.99 812c-.59.62-2.51-.61-2.97-1.49l4.97-11.5c-.41 1.87-1.54 12.52-2 12.99M534.56 148.06c4.01-1.23 5.96 2.94 2.87 3.89-4.01 1.24-5.96-2.94-2.87-3.89M542.97 117.97c-1.19 1.56-5.5-.09-4.97-2.45.94-4.13 7.77-1.22 4.97 2.45M526 882.99l-3.01-.61-.48-10.38zM351 585.01c.91 2.21-5.22 10.55-6.99 8.99zM757.99 590c.44.44 4.1 10.97 1.51 11.99-.79-1.73-.56-3.81-1.17-5.82-.16-.53-4.31-10.12-.34-6.17M291 636.99c-1.7 0-9.48-.53-8.99-3.48.44-2.68 2.39-.34 3.05-.08 1.83.71 5.08 1.75 5.94 3.56M498.86 116.23c1.08-1.31 2.14-3.02 3.35-4.22 1.11-1.1 2.73-1.62 4.25-2.08 3.23-.98 6.4-.02 9.72.39.81.1 1.5-.76 1.5-1.5 0-.89-.69-1.4-1.5-1.5-3.64-.44-7.74-.4-11.25.78s-5.97 4.32-8.2 7"/></svg>