<svg xmlns="http://www.w3.org/2000/svg" viewBox="0 0 1080 1080"><g fill="#73a942"><path d="M511.21 718.63c-.1-2.32-1.88-4.3-3.97-5.3s-4.46-1.22-6.77-1.39c-5.19-.39-10.98-.46-14.86 3.01-3.85 3.44-4.45 9.16-4.78 14.32l-1.86 28.48c-.22 3.3-.33 6.96 1.76 9.52 2.58 3.18 7.31 3.29 11.4 3.14 2.59-.1 5.17-.19 7.76-.32 1.31-.07 2.68-.16 3.83-.79 1.5-.82 2.38-2.42 3.08-3.97 1.48-3.27 2.49-6.72 3.51-10.17 1.24-4.22 2.49-8.48 2.91-12.86.45-4.66-.04-9.36-.54-14.01l-1.41-13.15M562.89 702.38c-1.86-1.14-4.05-1.62-6.23-1.77-3.7-.25-7.4.42-11.06 1.09-3.31.6-6.92 1.38-9.01 4.02-2.44 3.08-1.89 7.46-1.47 11.37 1.42 13.23-.05 26.59.53 39.88.09 1.96.47 4.3 2.27 5.07.66.29 1.41.29 2.13.29 6.68.02 13.39.04 19.99-1.01 2.6-.41 5.35-1.09 7.1-3.06 1.12-1.27 1.69-2.92 2.1-4.57 1.11-4.45 1.25-9.13.41-13.64-1.14-6.07-4.03-11.78-4.43-17.94-.2-3.1.23-6.21.11-9.31s-.91-6.36-3.12-8.54M664.34 749.84c.19-6.92.35-14.01-1.87-20.56-.51-1.49-1.15-2.97-2.21-4.14-1.87-2.07-4.74-2.89-7.49-3.33-2.73-.43-5.51-.57-8.27-.41-2.04.12-4.14.42-5.87 1.5-1.62 1.01-2.78 2.62-3.63 4.33-2.43 4.9-2.49 10.6-2.5 16.07 0 3.41-.01 6.82.03 10.24.03 1.98.09 4.04.95 5.83 2.28 4.7 9.1 5.7 11.5 10.34.65 1.26.96 2.77 2.04 3.7 1.7 1.46 4.29.73 6.38-.08 2.49-.96 5.08-1.98 6.87-3.96 1.69-1.86 2.47-4.35 3.14-6.77s1.28-4.86 1.82-7.31c.71-3.22 1.12-7.08-1.26-9.37"/></g><path d="M539 791c4.03-.6 1.83-6.41 4.49-4.99 2.45 1.31 3 9.76 1.27 11.74-1.22 1.41-4.14.97-5.76 1.25-.29-3.21.07-5.68 0-8"/><path d="M530 781c-1.74.62-3.41 2.2-5.03 1.57-2.26-1.41-1.42-13.07-6.47-11.59-.4.12-.43 1.94-1.14 2.06-8.11 1.43-5.3-8.05-2.73-8.91.94-.31 7.12-.41 7.37-.14.36.38-1.14 9.01 4.47 8.01 2.93-.52-.69-7.92 4.81-10.25 7.39-3.13 4.75 6.58 6.65 7.83 1.28.84 4.35.21 6.32.7 5.78 1.44 2.8 3.83 2.75 7.73l6.99-2c3.8 11.59-7.18 18.88-6.99 2-1.63.47-7.08 1.53-7.78 2.23-1.41 1.37-.28 8.69-.22 10.77-2.12.32-6.17 1.02-8 1 .4-3.02-.74-7.93-1-11 5.04-1.8 10.02-1.3 8.99-7.99-6.19.24-9.57 1.27-8.99 7.99Z"/><path d="m576 867 1 8.52 8-.53c.9-.78-5.27-7.27.45-11.06 4.21-2.78 5.44 1.67 6.05 5.06 4.08-3.54-1.01-6.45-.12-10.05.33-1.34 5.11-5.19 6.11-4.95 1.56.86 1.39 3.81 2.47 4.55 2 1.37 5.85-1.16 5.05 2.45-9.1-1.21-6.04 5.82-7.22 11.29-.71 3.29-4.12 7.8-3.85 12.06 10.07 3.6 14.73 12.78 25.67 13.55l28.42 2.63c1.31-.89.83-1.56.76-2.74-.24-3.99-1.88-9.45-1.79-13.8l-3.98 1c-.97-3.27 4.08-2.18 5.03-1.53 3.01 2.03 1.34 14.86 3.95 17.11 6.45.41 13.15 1.18 19.49 2.37 1.64.31 3.36-.24 4.51 1.56l-23.5-.17c-3.19.98-.78 8.38-.87 11-.86 23.86-3.28 50.7-2.22 74.28.45 10.05 1.82 19.53 5.59 28.9l-2.49 3.49c-.76-5.14-2.91-10-4.13-14.99-5.11-20.82.37-63.66.56-88.49.04-4.94-.61-4.86-.93-8.05-.44-4.45 4.08-5.14-4.48-7.46-2.67 2.07-1.44 5.83-1.72 8.54-.44 4.15-.04 4.72-.15 8.11-.25 7.75-1.17 15.56-.66 23.35-4.72 1.39-2.37-3.89-2.15-7.58.09-1.58-.88-3.2-.68-4.74.17-1.27 2.11-3.28 1.83-3.67-2.4-3.33-19.04-1.14-18.98-3.52.05-1.76 3.06-1.3 4.19-1.24 1.99.11 12.33 1.72 12.84 1.32 2.17-1.71 1.52-16.12 1.54-19.65-5.45-1.3-11.05-2.49-16.54-3.48-4.37-.79-7.61.16-12.85-2.16s-6.11-6.7-11.71-9.38c-2.25-1.08-7.07-.75-7.37-.98-2.09-1.61.64-9.26-.12-11.95-.91-.89-17.13 1.67-19.23 2.27-1.83.53-3.57 2.52-5.76 3.26-12.09 4.06-41.2 9.4-54.66 10.12-11.31.61-18.84-4.46-25.24 8.05-1.4 2.73-2.18 10.66-3.6 12.24-3.44 3.83-11.04 2.85-14.46 5.61-1.6 1.29-2.09 3.92-3.32 5.18-4.97 5.11-7.01 7.37-10.95 14.55-1.15 2.1-.49 5.76-3.77 6.72-1.17-6.15.03-12.28.51-18.48 1.12-14.64.06-29 .06-43.63 0-4.62.6-9.24.41-13.89-2.52-.65-2.32 2.21-3.69 3.05-.77.47-4.37 1.49-5.31 1.57-2.48.2-3.55-1.88-3.98-1.62-.09.05.35 1.18-.8 1.9-1 .63-4.68 1.63-5.04 2.26-2.01 3.49 1.51 2.39 2.5 3.08.22.15 3.29 3.98 3.3 4.24.04 1.43-3.85 1.36-4 1.51-.22.22 2.16 2.78.02 4.49-3.59 2.87-8.65-1.19-8.76-5.18-.06-2.38 3.14-4.82 2.72-9.71-.23-2.68-3.34-4.29.07-7.06 4.91-3.99 8.75.8 10.37.4s2.26-5.99 7.61-4.54c1.49.4 4.14 4.21 4.94 1.01 1.52-6.13-4.99-9.85-4.96-11.89.02-1.4 4.08-7.31 3.86-9.07-.12-.97-2.64-1.02-2.92-2.15-.58-2.32 1.47-5.38.88-8.55-.09-.47-3.16-8.2-3.44-8.77-2.18-4.38-5.48-1.17-8.68-2.16-2.65-.81-1.91-4.9-5.19-3.86-.35.11-3.59 6.11-3.5 6.47.26 1.1 3.36 1.6 3.9 3.22 1.13 3.39-2.5 7.01-5.41 8.29-1.14-.08-3.42-6.07-3.4-7.49.08-5.1 6.74-7.41-6.09-3.46-1.04 1.32 7.75 2.18 3.62 9.63-.14.25-3.81 4.1-4.1 4.13-3.69.33-5.86-5.13-5.28-8.17.31-1.6 3.26-2.66 3.54-4.22.21-1.17-.91-3.13-.83-4.86.36-7.62 5.46-3.77 6.83-4.7.85-.58 4.5-6.36 3.78-7.81-3.35-6.75-5.81 4.7-7.21 5.04-5.42 1.33-6.44-4.22-6.84-4.05-1.97.89-.54 3.44-1 4.05s-5.69 2.86-6.99 3.94c-3.32-.71-.54-9.24.46-11.33.42-.87 1.76-.27 2.03-1.18.75-2.58-2.57-1.02-2.99-1.5-.3-.34.69-8.64 1.01-8.96.71-.72 4.58 1.38 3.96-1.51-1.14-1.75-3.51-1.17-4.94-2.07-.97-.61-3.84-6.67-6.05-4.45-.31.31-2.13 8.06-2.05 8.49.17.95 2.59.24 3.55 1.49 3.82 4.98-3.06 11.97-5.53 10.6-1.19-.66-4.05-6.53-4.06-8.05-.02-2.25 1.65-3.65 1.8-5.14.2-1.9-1.12-3.81-.53-6.65.49-2.34 6.11-6.22 2.31-7.72-.74-.29-.78 2.87-1.77 3.74s-3.24.46-4.78 2.71c-1.42 2.08-1.76 7.66-3.91 9.09-3.92 2.62-6.34-5.49-4.56-7.6.94-1.1 2.45.08 3.47-.44 3.87-1.98.72-5.73 1.21-8.75.29-1.81 2.49-3.77 2.63-5.42.12-1.45-1.65-3.61-1.88-5.9-.31-3.12 2.22-1.57 2.2-4.86-.05-11.22-1.72-26.28-2.68-37.72-.45-5.3-3.13-11.27-1.42-16.85 1.82.33 1.75 2.06 2.14 3.42.93 3.22 1.4 9.44 1.83 13.09 1.63 13.77 1.36 27.96 3.03 41.48l48.99-17.01c2.11-2.81-9.67-5.89-10.69-7.29-1.94-2.65.37-7.5-1.3-10.7 3.29.71 1.94 8.35 2.49 9.05.68.86 7.44 3.21 9.38 4.6 3.07 2.2 7.46 7.7 10.74 10.17 9.65-2.27 17.37-10.05 27.38-10.81l-11.99 7.49 5.91-.42c2.35 4.95.96 8.56-4.97 6.48-3.7-1.3-1.76-6.15-7.28-4.46-2.44.75-4.28 5.32-2.66 7.9 2.12.26 3.46-1.95 5.49-1.95 2.45 0 4.07 2.9 6 2.92 1.35 0 2.38-1.21 3.43-1.41s2.91.66 3.07.46c.13-.16-.03-2.84.45-4.05.76-1.88 2.26-2.65 3.01-4.03 1.44-2.68-.95-6.15 5.09-2.96-1.94 5.31 2.72 17.52-5.56 16.04-.64 2.75 2.05 1.83 3.28 4.24 2.69 5.26-9.97 7.42-8.32.4.29-1.22 3.89-1.1 3.04-3.65-3.76 2.08-8.26-6.16-9.85-.29-.64 2.36 1.55 3.63 2.31 5.38.43 1-.29 2.6.02 2.97 1.08 1.32 5.03.66 5.53 2.46.78 2.8-4.01 5.14-5.24 7.74-1.66 3.52 1.04 6.51-5.8 4.27-.93-.3-5.83-3.53-5.96-4.05-.84-3.35 7.68-3.17 8-3.49.28-.28-.94-7.49-1.16-7.82-1.04-1.56-6.98.35-4.38-4.22 1.13-1.99 4.36-1.11 3.54-3.94-2.92.68-4.31-3.45-5.92-3.58s-2.7 2.02-4.56 1.57c-2.13-.52-1.03-4.52-1.74-5.79-.25-.44-5.86-3.72-6.28-6.21.25 3.09-2.76 5.78-3.18 7.65-.45 2.03 1.09 5.89-.12 8.93-.6 1.51-2.18 1.51-2.19 2 0 .29.81 5.22 1.01 5.42.51.52 3.59-.93 4.6-.93 1.41 0 4.97 1.33 5.39.92 1.4-1.39-4.71-6.02-4.89-9.5-.11-2.2 2.09-4.92 4.27-4.38 3.25.8 2.8 9.52 3.68 10.85.19.29 4.56.01 5.93 2.53-4.02 9.27-6.14 1.69-10.37 2.42-.58.1-2.56 5.86-7.61 2.09.29 6.47-3.33 12.19-8.69 5.7-3.04-3.67-.42-6.32 3.68-6.72-1.94-2.51-3.99-6.06-3.07-9.38.33-1.17 3.91-.41 4.07-2.59-4.96-1.33-5.98-9.33 1.01-8.02 1.42-4.95-5.09-4.28-6.54-2.02-1.24 1.93.67 5.81-3.98 7.02-2.35-3.49-1.65-6.06-6.74-4.77-6.54 1.66-2.11 4.11-2.07 6.28.03 1.46-2.23 2.89-2.52 4.25-.53 2.46 3.37 6.04-.21 10.23-3.06.18-5.37-2.76-5.88-5.53-1.55-8.33 2.37-4.36 3.94-5.45-2.22-7.85-4.54-3.93-11-3.99-.06 2.8 2.94 2.54 3.73 5.75.35 1.42.39 2.8.27 4.24-5.01.82-10-2.81-8-7.99l-9 3c-1.16 1.23 11.64 14.45 13.6 14.93 2.51.61 3.03-4.53 3.5-4.84 5.07-3.28 3.58 9.41 4.35 10.86.19.35 5.65 5 6.04 5 1.01 0 4-6.19 6.03-2.99 1.82 2.86-1.57 8.41 1.13 10.11 5.42 3.41 3.71-.5 4.36-2.31.37-1.01 1.62-.91 1.94-1.5.85-1.56 1.46-4.53 2.79-5.26 6.77-3.76 15.12 5.12 7.18 7.44-4.47 1.31-5.01-2.51-8.93-.95 3.18 1.13 3.64 9.11 4.03 9.47.51.47 3.43-.52 4.77.24.73.41 1.61 4.13 2.42 4.59 1.11.64 3.44-.1 3.77.21.4.39-.81 4.33.96 5.55.36.25 7.65 2.38 8.49 2.5 2.46.34 11.85-.14 13.58-1.52 1.97-1.56-.39-9.17 6.96-6.53 1.17-1.18-5.73-4.46-2.86-7.88.22-.26 6.06-2.11 6.4-2.1.38 0 6.17 3.79 6.38 4.1 1.93 2.88-6.04 6.43-8.91 4.89.68 1.19 2.44 3.43 3.47 4.08 1.6 1 14.67-1.58 13.52-3.07-4.09-1.21-7.46-.04-6.79-5.29.57-4.5 6.14-2.97 6.8-3.72.38-.44-.74-3.13-.65-4.33.64-7.94 4.59-4.58 5.76-6.25.8-1.13 2.34-9.28 2.88-11.42l6.9 3.1c-1.47 1.66.04 5.14-.41 5.95-.68 1.26-4.69 2.29-5.24 3.21-1.74 2.89 1.17 5.14-6.25 5.24 1.05 1.1 5.8 5.25 6.95 4.48.39-.26 1.32-6.02 5.76-.66 1.02 1.22.9 4.71.32 6.02-1.25 2.8-11.36 2.28-8.05-5.32-7.68.41-3.79 2.09-4.29 5.33-.21 1.36-2.66 3.3-1.69 5.67 8.29-2.53 18.77-.13 25.97-5.5-7.32-7.68 3.89-9.86 4.81-12.12.57-1.4-1.25-6.65-.77-7.34 3.53-1.94 5.43.91 8.98.95-.28 2.12-1.69 8.14-3.02 9.49-2.37 2.39-5.65.2-5.97.52-.34.34 1.66 6.85-2 8.99 1.89-.27 12.56-1.52 13.01-2 .38-.4-3.55-8.08 1.73-9.79 1.5-.48 3.01.01 4.26-.2.21 2.36 1.92 4.29 0 6.99 11.74.89 5.65-1.95 7.19-7.27 2.25-7.82 9.04-1.65 9.39 4.31 5.74-4.51 20.8-4.34 25.49-7.53 1.64-1.11-1.57-4.12 3.67-5.29 5.49-1.22 2.49 4.5 5.75 3.78 2.47-.54-.12-6.54.72-9.29 1.45-4.77 6.03-4.78 6.58.96.26 2.71-3.64 4-2.27 6.35 4.34-1.39 10.64-2.24 14.66-4.13.21-.1 3.38-1.97 3.52-2.13 1.54-1.79-.09-6.75 2.79-6.75 8.68 10.86-2.34 9.62-10.48 12-.04 3.37 2.03 7.75-1.03 10.43-4.12 3.61-4.97-2.3-3.83-5.84.4-1.25 4.66-1.93 2.85-3.6-.38-.36-9.63 2.64-10 3.01-.17.17 1.17 2.15.39 4.79-.91 3.06-4.06 4.37-4.41 6.76s1.4 4.95.04 7.4c10.96 2.32 1.89 8.05 1.13 10.77-.67 2.44 1.46 7.64-3.09 9.77-6.9 3.23-10.45-14.05.93-11.49 1.53-1.34-5.56-8.75-5.99-5.36 1.39 8.64-10.78 13.46-8.84 2.12 1.04-6.07 6.17-2.06 6.83-2.75.31-.33-1.21-7.3 0-8.99-1.2-1.24-5.53 4.65-9.98-.54-2.73-3.17 3.5-7.53-1.51-7.5-.28 0-1 3.52-4.5 2.03 3.23 9.73-2.99 6.98-6.68 10.31-2.6 2.35-1.71 5.97-2.79 7.75-.9 1.5-3.31-.4-4.05.84-1.7 2.84.08 9.76-3.73 11.37-.32.14-6.5.39-6.8.23-2.83-1.56-1.56-9.82.67-10.45 1.62-.46 4.51 2.18 5.93-.01s-.03-8.28.46-11.04c1.65.04 3.32 1.62 4.98.55.78-.5 4.18-5.03 1.5-5.56-.93-.18-6.72 1.92-7.53 2.52-1.69 1.26 2.38 3.95-3.55 4.5-1.08.1-3.57-4.25-7.4-3.02.73 4.9 4.37 6.5 1.98 12.01-1.5-1.46-6.5-.66-6.94-1.06-.33-.3-1.04-7.57-1.06-8.95l-5 1.01c.72 2.01.63 5.27 1.53 6.97 1.44 2.73 6.28 1.82 3.96 8.02 1.18 1.92 2.95-.25 4.82.15 4.6.98 4.77 9.66.98 11.63-8.86 4.61-4.53-9.81-5.29-10.78-1.55-1.98-1.75 2.14-3.44 2.09-3.6-.1-7.43-3.49-8-6.98-.35-2.12 2.35-8.79-1.03-9.11-.53 1.87-3.94 8.51-4.06 9.46-.82 6.39 4.07 10.88-7.45 6.54 1.74 2.51.67 9.28-1.43 11.06-1.07.91-3.37.89-4.14 1.92-.69.92.28 4.31-.42 6.43-2.52 7.65-8.9 1.92-6.56-5.47 1.97-6.22 6.26-2.63 6.54-2.95.34-.39-.72-7.46.25-10.25.09-.26 2.56-4.56 2.77-4.74 1.92-1.6 1.72.96 1.99 1.34 1.95 2.67 1.33-4.04 1.42-4.38.47-1.69 5.52-5.99 3.56-7.96-.68-.69-9.62 1.67-9.96 2.05-.51.57 2.67 10.64-2.68 11.76-6.75 1.42-2.88-10.35-3.35-10.81-.25-.24-5.93-.99-6.97-.54-3.5 1.49-.23 3.26-.24 4.85 0 .59-2.37 6.68-2.7 7.04-1.56 1.72-4.37.75-6.1.65.13 2.05 1.65 4.57 1.52 6.48-.58 8.42-11.42 7.65-12.53 15.52l-6.99-3.01c.32-5.96 6.1-9.88 10.99-5.99.61-.74-2.82-7.77-1.09-10.51 3-4.75 4.59-2.7 8.09-2.49-.3-4.65.65-7.69 2-11.99-3.97 1.61-10.02.24-10.97 5.52-.44 2.44.58 5.65-.18 7.85-.4 1.16-2 1.27-2.49 1.97-2.84 4.11-4.71 8.21-9.33 2.16 6.48-4.35 2.41-2.59 2.14-6.16-.11-1.43 2.87-3.91 1.84-6.34-2.74.02-9.09-.94-9.77 2.61-.1.53.97 7.11 1.21 7.46.84 1.23 3.45.43 3.58 1.44.56 4.2-5.36 5.77-3.92 10.89.43 1.54 8.19.88 3.33 8.56-.88 1.39-5.26 2.58-3.44 5.03.25.34 4.7-4.32 7.4-4.06.91.09.91 2.08 1.56 2.54 3.8 2.65 2.56-1.9 4.47-3.61 1.19-1.06 3.11-.02 4.88-.95s4.14-4.65 5.31-4.84c6.37-1.06.63 11.94-4.06 14s-7.89 2.07-9.07-3.07c-3.11 4.37-3.77 10.35-10.5 8l1.51 4.99c1.46.69 2.28-3.85 4.47-1.99.25.21 1.83 6.02 1.81 6.34-.42 5.29-15.67 7.61-2.8 11.66l1.49-2.99c5.04 1.76-.76 9.37-2.65 12.37-.99 1.57-5.9 4.63-2.61 8.37 1.85 2.1 9.76 0 10.84.73 2.16 1.47.38 7.23 3.93 6.52.67-1.77-1.13-4.32-1.03-5.41.08-.93 2.59-.84 2.98-2.19.36-1.24-1-3.17-.85-4.79.51-5.46.83-10.14 7.26-8.65 1.74.4.62 9.19.17 10.56-.86 2.62-5.4 4.35-3.51 9.49 6.63-.29 9.43-6.25 7.97-12.31-.19-.81-1.79-.27-2.05-2.12-.61-4.4-.07-8.34 5.07-8.57-.72 8.93 4.15.7 6.25-.29 3.31-1.55 9.86-.04 10.74-2.22 1.82-4.52-3.77-.84-6.29-1.44-1.48-.35-4.67-10.64-5.71 1.95-2.15.34-3.45-2.03-5.49-1.96-2.73.09-8.13 6.41-10.8.66-1.08-2.33 1.73-5.01-1.19-4.7-.82 1.96-5.01 5.28-5.36 6.69-.79 3.14 2.9 7.72-1.71 13.25-4.15 4.98-5.92-6.45-4.91-7.98s4.32-1.79 4.47-1.98c.55-.74-1.98-3.54-2.1-5.47-.19-3 1.98-4.99 1.87-6.83s-1.89-3.41-1.58-5.95c.36-2.92 3.39-6.45 6.52-6.57 5.19-.21-.7 9.91-2.71 11.83 1.66-.7 5.73 2.2 5.98 2.01.9-.7 5.03-11.08 8.5-2.98 1.19 2.79-1.05 7.6 2.52 6.97-1.44-6.79-.22-4.07 2.61-6.39 4.74-3.88 1.83-3.27 2.37-7.02.22-1.56 2-2.73 2.01-4.08.01-1.45-2.17-3.29-2.47-5.34-.17-1.15.45-7.8 1.07-8.26 6.52-4.91 6.52 8.29 5.42 12.09 12.97-.63 6.86-2.3 7.49-8.12 1.08-10.03 14.29-2.72 5.56 5.45-1.12 1.05-2.82.36-3.08 1.17-1.1 3.51 1.88 3.57 2.02 4.17 1.85 7.95-7 5.72-10.98 2.33l-2 11c1.22-.67 5.25-1.65 5.94-.95.55.55-.9 3.28 1.04 2.94 3.65-13.32 11.98-5.84 6.02 5 1.89-.22 10.55-1.17 11.02-2.67.42-1.35-.31-3.66.97-5.32-1.13-.79-5.65 2.12-4-4.01-1.41-.06-3.63.41-4.56-.94-2.35-3.42 1.74-13.99 6.55-10.07.44-.55-.27-9.79 0-12-1.06-.08-3.34.36-3.88-.11-1.96-1.71-2.62-15.33 4.87-9.89v-12.01c5.89-1.29 7.34 5.96 6.07 10.43-.08.29-4.61 2.94-5.06 1.58 1.53 3.77-1.73 7.76-2.01 10.01 1.65.13 3.35-.1 5 0-1.99 4.15.27 2.34 1.94 4.61.54.74 1.19 4.98 1.01 5.81-.75 3.63-3.36 3.24-4.65 4.87-.68.86-5.19 7.25-5.31 7.7 3.4.15 2.95.3 5.75.75 1.5.24 2.83-.82 4.22-.29 4.37 1.67 1.65 8.23 2.03 8.53 13.45.88 8.84-3.81 8-12.99l-7.99 2.01c.07-2.97-1.51-8.54.47-11.04 1.18-1.49 3.79-.33 4.64-1.55.8-1.14 2.33-9.27 2.88-11.42l6.9 3.1c-1.47 1.66.04 5.14-.41 5.95-.68 1.26-4.69 2.29-5.24 3.21-1.74 2.89 1.17 5.14-6.25 5.24 1.05 1.1 5.8 5.25 6.95 4.48.42-.28 1.25-6 5.76-.66 2.09 2.47-.6 5.92-.72 8.69.51.43 11.86.91 13.35.64 3.33-.6 5.54-2.96 7.31-3.32 1.52-.31 5.13.85 7.34-.32-1.66-9.36-2.7-9.5 6-10.99-1.19-2.72.05-6.28 0-8-2.12.32-6.17 1.02-8 1-.25 1.9-1.6 7.65-2.54 8.95-2.32 3.19-6.15.76-6.45 1.06-.17.17.85 2.83.37 4.76-2.31 9.42-7.34 3.67-6.39-2.21.69-4.27 5.22-3.9 6.56-5.56.97-1.2-.71-6.27-.53-7.94 3.53-1.94 5.43.91 8.98.95.4-3.02-.74-7.93-1-11 5.04-1.8 10.02-1.3 8.99-7.99-6.19.24-9.57 1.27-8.99 7.99-1.74.62-3.41 2.2-5.03 1.57-2.26-1.41-1.42-13.07-6.47-11.59-.4.12-.43 1.94-1.14 2.06-8.11 1.43-5.3-8.05-2.73-8.91.94-.31 7.12-.41 7.37-.14.36.38-1.14 9.01 4.47 8.01 2.93-.52-.69-7.92 4.81-10.25 7.39-3.13 4.75 6.58 6.65 7.83 1.28.84 4.35.21 6.32.7 5.78 1.44 2.8 3.83 2.75 7.73l6.99-2c3.8 11.59-7.18 18.88-6.99 2-1.63.47-7.08 1.53-7.78 2.23-1.41 1.37-.28 8.69-.22 10.77 4.03-.6 1.83-6.41 4.49-4.99 2.45 1.31 3 9.76 1.27 11.74-1.22 1.41-4.14.97-5.76 1.25Zm-164.04-69.96c-4.99.45-3.95 7.2-3.95 10.96 1.81-1.1 1.84-5.05 4.5-5.99s.02 4.86 4.48 2.99c.86-3.94-4.51-4.43-5.03-7.96m175.04.97c-1.63.88-13.48 1.04-12.99 2.49 1.06 3.16 5.44-1.86 6.98-.49.36.31 1.11 8.46 4.5 7.99 2.57-.35-.86-4.26-.53-6.43.25-1.62 1.6-2.21 2.04-3.55ZM453.99 932.99c.47-3.81 5.95-8.04 6.06-11.44.07-2.04-1.29-4.91-.45-7.6l-5.59-1.95c-.36.38.8 9.06.7 10.38s-1.48 3.41-1.77 6.08c-.1.95-.63 4.77 1.04 4.54ZM781.01 366.01c.43-.45-.73-3.54.49-4 1.58.54.92 3.78 2.11 4.08 2.67.66 18.89-2.67 20.4-1.08 1.49 5.17-5.32 1.96-8.58 2.14-1.23.07-2.04 1.24-2.95 1.34-2.49.26-5.74-.26-8.49.53 1.03 4.61-.3 9.19-1.99 13.5-2.2 5.62-1.96 4.16-5.96 7.07-.66.48-.81 1.92-1.27 2.26-1.76 1.27-11.54-1.77-9.78-6.83-4.58 1.45-6.83 4.21-12.27 2.96-.78-.18-3.81-4.92-4.4-5.03-3.86-.69-4.34 3.62-6.79 4.08-1.75.32-6.16.24-7.99-.06-1.32-.22-4.61-2.95-5.54-1.95-.19.2.41 1.98-.21 2.72-3.48 4.12-14.54.89-18.32-1.73-4.11-2.86-4.25-8.91-7.97-11.97-1.36 2.48-7.16 6.89-9.82 6.75-.54-.03-8.37-1.94-8.73-2.21-1.49-1.1-.63-4.16-.99-4.51-2.58-2.55-7.36 5.65-14.85 2.35-1.5-.66-6.34-6.23-7.1-5.39-.19.21.34 1.98-.2 2.73s-2.36.69-3.21 1.37c-1.08.88-1.45 2.66-2.31 2.9-4.26 1.2-10.08-.81-13.77-3.02-1.73 5.28-2.86 3.03-4.73 4.06-.99.55-.86 1.75-1.49 1.91-12.23 3.09-19.99-11.76-16.3-21.96-4.22-1.02-3.21 3.41-6.28 5.3-1.97 1.21-8.02 2.58-10.25 2.51-3.33-.1-6.6-3.54-7.94-3.47-2.89.15-6.94 4.76-13.72 3.42-3.98-.79-4.89-3.92-6.29-3.89-3.59.09-5.73 3.99-9.1 5.04-4.03 1.26-8.1-.13-11.73-1.94-.37-.19-4.9-6.14-2.68 0-3.51-.77-5.16 1.86-8.56 1.2-2.75-.54-8.77-1.96-7.45-5.2-.06-.09-1.51 1.01-1.82.82-1.17-.74-9.29-15.4-3.19-15.8-.17 7.3 5.48 17.85 13.54 18.09 11.02.32 4.54-11.51 7.42-13.65.75-.55 2.82-.67 3.05-.44.97.97-2.38 15.84 8.38 14.96s8.53-10.06 10.62-16.95c-3.38-.85-6.84-.86-10.29-1.23-1.08-.12-2.31-1.5-3.21-1.42-.79.06-1.56 1.59-2.99 1.69-.62.04-.34-1.82-1.17-2.04-2.54-.67-6.75.43-9.79-.04-1.57-.25-2.74-1.87-4.13-2-1.98-.18-3.02 1.71-4.5 1.6-3.2-.25-8.19-4.4-12.92-2.55 3.43 11.5-6.98 22.27-18.33 15.78-1.27-.72-1.53-2.07-2.46-2.77-5.14-3.85-3.14-1.24-5.43.32-1.48 1.01-8.11 5.12-9.23 5.23-1.64.16-10.66-2.55-11.9-3.47-1.33-.99-.93-4.94-3.14-6.07-3.98 3.18-9.77 5.23-14.73 2.9-.31-.15-5.4-3.85-5.58-4.14-.81-1.36.9-5.84-3.01-3.56-.25.14-1.1 2.44-2.12 3.33-7.36 6.37-16.3 5.65-22.07-2.3-2.36-3.24-3.03-10.63-9.04-8.83-3.56 4.72-.42 10.74-.43 15.05-.02 6.95-1.38 14.09-1.12 21.08.18 1.76 2.97 2.44 4.47 2.85 13.99 3.85 32.78 1.5 46.65 4.59 1.62.36 3.48-.02 3.5 2.5-16.16-.44-32.15-2.61-48.34-3.93-1.6-.13-3.94-1.8-6.68-.56l1.05 6.94 67.17 2.85c8.76-4.66 18.92-5.71 28.06-9.02 6.93-2.51 13.45-7.73 20.72-8.77-.97.86-4.88 5.53-5.27 5.74-1.08.6-2.79-.07-3.54.4-2.21 1.39.79 17.88.88 21.35.31 12.02-2.45 24.96-3.09 36.95-2.52 47.6 3.87 94.94 3.1 142.05-.2 11.98-2.61 24.06-2.88 35.99-.11 4.79 1.49 10.62.8 16.02-.19 1.51-.35 2.54-2 1.47l-1.53-21.54c1.65-12.13 2.73-24.71 2.45-37-.35-15.41-1.88-34.81-1.94-51.89-.04-10.15-.67-22.93-1.08-35.06-.31-9.26.43-22.02.1-33-.28-8.94-4.78-11.68-10.44-17.53-1.2-1.24-1.72-3.61-2.89-4.65-2.39-2.11-9.09-6.04-12.41-6.03-1.27 0-2.03 1.27-3.34 1.24-.98-.02-14.28-3.15-14.8-3.71-.45-.49.11-2.13-.21-2.7-.07-.12-1.41.64-2.4-.06-1.81-1.29-8.31-6.97-9.5-8.58-1.98-2.65-4.61-9.29-1.02-11.49-.13 2.65-.14 4.8 1.03 7.28 1.83 3.87 14.68 14.18 18.87 15.1s16.08.11 18.88 1.86c.58.36.72 2.13 1.69 2.81s2.47.7 3.19 1.33c2.19 1.93 11.65 16.01 14.35 13.62-2.83-4.3.61-9.03.59-11.51-.08-9.44 1.37-20.51 2.41-31.98-2.08-3.54-.16-14.1-2.45-16.5-2.05-2.14-4.69.24-6.72 1.13-8.34 3.68-18.89 4.97-28.28 8.91l-68.45-2.95c-2.43 5.07 2.23 8.29 3.61 11.68 1.15 2.82 2.78 14.63 3.35 15.15.21.2 3.94.24 5.69.85 7.68 2.66 5.33 7.08 5.79 12.36.62 7.14 5.8 5.14 10.66 7.15 2.86 1.18 16.98 8.57 17.39 10.61 1.28 6.47-5.58-.05-8 .09-1.84.1-11.85 4.93-14.81 6.1-5.84 2.3-16.62 4.72-23.99 6.21-11.79 2.39-15.4.02-18.35-11.36-5.11 1.42-10.89 1.95-15.44 4.57 3.96 1.31 10.02-.25 13 3.49-2.16-.38-4.32.75-6.38.68-3.74-.12-19.61-2.8-22.87-3.91-1.61-.55-4.74-3.41-6.72-4.25 1.1-3.01 3.9-3.19 5.37-4.57 2.37-2.23 6.13-7.78 9.13-8.44.73-.16 2.15.82 2.48.5s-1.49-2.56-1.01-2.98c.11-.1 1.83.15 2.9-.61 4.29-3.06 5.38-4.24 10.05-6.93s1.96-10.84 7.05-13.24c-1.53-5.33 13.71-16.37 14.02-17.93.65-3.31-1.64-5.24-1.64-6.8s2.95-5.59 1.63-8.5c-7.97.05-16.33-1.19-24.62-1.88-15.15-1.26-31.21-2.22-46.87-3.13-3.18-.18-8.24-1.85-11.09-1.9-.5 0-.39 2.01-.88 1.92-.73-.14-2.12-1.47-3.51-1.62-8.98-.98-17.09-.38-26.44-1.47-.97-.11-3.75-.44-3.58-1.9l114.37 7.91c3.05-1.38.89-4.4 1.11-6.44.1-.89 1.47-1.83 1.48-2.97.02-1.83-1.88-3.02-1.75-5.73.33-6.67 7.6-7.63 5.79-14.79l-11.23 4.39c-2.23-1.02-4.81-.3-6.13-.46-.7-.09-.71-1.45-1.45-1.82-5.94-2.91-5.21-3.29-8.7-9.11-2.04-.48-2.91 3.06-4.22 4.03-2.94 2.18-9.92 3.12-13.42 2.42-4.22-.85-9.39-7.48-11.35-7.5-2.49-.02-3.05 3.52-5.2 4.85-6.71 4.14-17.12 2.04-19.81-5.81-1.78-.47-4.38 5.65-5.8 6.69-7.28 5.35-14.5.03-18.2-6.7-2.78-.02-3.59 6.85-10.05 7.95-10.18 1.73-13.91-6.24-16.04-14.65-.67-2.65 1.84-6.89-2.39-8.29l1.65 34.36-1.65 2.63c-1.5-12.97-2.16-26.09-1-38.99l2.49 1.98 2.49-4.98c.28 7.18.56 22.87 8.48 25.52s13.8-5.12 14.16-12.18c.18-3.59-2.98-9.5 3.37-10.33-.13 6.44-1.58 15.01 3.5 20s12.22 3.58 15.37-2.63c2.76-5.43-1.98-13.47 6.13-12.36-3.19 9.39.3 18.45 11.44 16.92s6.96-8.27 10.06-15.93c2.19 1.78 1.09 4.59 2.06 6.94 4.5 10.89 20.93 14.93 25.39 2.51 1-2.79.95-6.29 1.94-9.06.37-1.05.59-2.94 2.1-1.39 1.09 1.12.74 9.89 1.27 12.24 3.08 13.59 19.12 12.99 25.48 2.01 1.03-1.77 3.43-10.08 1.68-11.35-.96-.7-11.25-1.04-13.52-1.47-32.43-6.11-65.51-9.64-97.89-15.86-1.74-.33-3.82-.63-5.01-2.08 18.94-.27 37.9 5.54 56.67 8.09 71.88 9.76 144.63 16.39 216.65 24.81 41.5 4.85 82.63 8.71 124.04 13.75 25.97 3.16 52.16 7.02 78.14 8.85 1.31.09 7.24.29 7.5.02Zm-354.28-34.7c-1.46-.65-5.87 0-7.06.68-2.98 1.72 1.32 3.48 1.69 4.09 2.15 3.51 4.82 11.14 7.57 13.49 6.89 5.9 17.55 3.03 18.84-6.3.32-2.29-.96-6.37.23-9.26-.7-.68-16.44-.21-19.52-.95-1.97-.48-1.47-1.61-1.75-1.74Zm39.13 3.86c-1.32-.96-2.56 1.53-3.54 1.68-1.22.19-2.16-1.51-3.08-1.62-2.37-.26-5.55.62-8.23-.24-.66 9.54 5.57 21.7 16.74 17.24 5.59-2.23 4.68-14.13 8.74-13.23 3.83.85-1.46 8.32-1.08 11.02 1.41 10.04 13.42 10.28 19.67 4.54 3.81-3.5-.34-11.21 5.94-9.05-.9 15.06 18.84 17.59 20.81 1.71.82-6.62-3.9-5.44-9.32-6.03-12.95-1.41-26.98-3.97-40.06-5.19-2.3-.21-4.46 1.27-5.84 1.07-.69-.1-.55-1.76-.74-1.9Zm235.03 25.94c-4.27-.55-9.45-2.19-13.49-2.79-34.05-5.05-70.7-6.06-104.83-9.38-2.11-.2-5.49-.5-7.49-.55-1.23-.03-1.28.1-2.05 1.1 3.99 8.97-.42 18.66 14.23 14.25 8.57-2.58.01-11.91 8.74-10.75 1.01.98-3.11 9.83 3.54 11 3.23.57 10.93-1.42 12.96-4.01 2.86-3.65-.55-3.8 6.49-3.99-.62 8.14 1.04 23.15 11.64 22.93 3.54-.07 8.24-3.31 8.97-6.92.62-3.05-1.71-11.75 4.4-9.5-1.76 8.16-.17 17.46 10.18 12.46 6.25-3.03 5.33-15.78 8.32-15.94 2.2-.12.7 4.82.94 6.02 1.08 5.33 3.53 11.99 10.26 9.22 4.71-1.94 3.38-6.37 6.79-9.25 2-.02.16 12.29 10.01 12.07s10.4-8.2 10.38-15.98Zm49.11 4.9-46.99-4c-1.01.94 1.94 8.2 1.91 9.58-.02.88-2.43-.27-1.91 1.4 3.8 1.38 3.92 7.99 7.48 11.02 4.3 3.67 16.33 5.37 17.05-1.91.17-1.75-1.41-2.95-1.51-4.64-.08-1.35.71-2.64.77-3.98.14-3.34-2.85-3.87 4.19-4.47-1.62 2.63 1 3.84 1.04 5.49.02.83-2.37.18-2.04 1 .17.43 1.32.85 1.51 2 .15.98-.52 2.18-.1 3.51 1.49 4.64 6.08 4.38 9.85 2.74 8.13-3.52 4.02-8.29 5.75-14.02.47-1.54 3.72-1.11 2.99-3.73Zm30.9 3.08c-9.9.32-19.01-3.08-28.84-3.08-.18 5.23-4.25 18.42 3.43 19.07 11.05.93 5.09-8.41 12.5-11.08 2.85 4.94-5.42 11.94 2.78 13.76s10.56-12.56 10.13-18.67m-360.85 52.88c-.95-.79-2.28-15.28-3.53-17.99-.2-.43-1.25-1.25-1.51-.98-.52 8.33-5.17.56-5.99 1.01-2.46 2.81-6.11 10.66-8.32 12.69-2.82 2.59-7.37 2.54-6.7 9.3h4.99c.93 3.89-4.62.5-5.98 3.52-.6 2.3 2.26 1.28 2.88 3.08 1.67 4.89-2.22 2.89-4.29 4.32-.92.64-.37 2.18-.82 2.78-1.63 2.17-16.67.09-21 3.31-3.02 2.24-7.62 6.39-1.32 7.06 8.21.87 22.12-3.68 30.99-4.1 10.94-.52 23.49 2.82 34.09 2.08 5.27-.37 10.29-2.96 15.45-3.04.43-2.27-.1-1.6-1.27-2.23-7.9-4.29-11.18-.51-19.24.22-3.29.3-12.17.84-15.04.57-.93-.09-10.27-4.43-7.47-6.07 1-.59 14.52-4.83 12.02-1.49l-4.99 2c6.61 1.87 12.46-2.53 18.99 0-2.02-6.92 1.11-17.98-8.48-19-1.92.78-.38 2.92-.52 2.99-.28.15-2.83.08-2.95-.02ZM376 437.99c2.45-.52 15.94-2.66 15.98-4.49-6.53-4.76-11.83-1.11-15.98 4.49m33.78 10.27c-.24-.13-5.04-.17-5.35-.14-5.42.69-.51 9.27 3.05 9.46 4.35.23 12.95-4.79 14.01-4.63.48.08.47 2.06 1.07 2.09.84.04 8.08-1.16 9.5-1.48 3.31-.73 7.19-2.02 9.93-4.07-2.38-.81-4.83 1.12-7.49 1.32-4.04.3-22.57-1.38-24.73-2.56ZM620.72 174.33c41.28 8.82 84.49 19.57 127.01 26.45 18.07 2.92 33.53 6.43 50.95 9.8s34.48.98 50.8 6.43c1.82.05-.22-13.28-.27-14.51-.08-2.14 2.24-8.09-.96-9.5-.48-.21-7.39-1.65-7.79-1.6-1.01.13-1.88 1.95-2.45 1.58-.13-.08.2-1.56-.47-1.79-8.51-2.93-22.06-3.68-31.55-5.6-24.59-4.97-49.73-11.59-74.24-14.85L700 161.98c.26-2.02 4.91-.91 6.21-.7 7.57 1.18 15.53 3.56 22.98 5.01 35.65 6.9 71.71 13.95 107.05 22.04 5.11 1.17 15.46.02 17.08 6.85.71 2.99-1.16 6.51-1.12 9.32.09 6.91 1.81 9.7 3.55 15.25 2.09 6.65-6.39 5.88-6.66 6.38-.33.61.25 2.33-.19 2.74s-2.33-.16-3.58.46c-6.12 3.04-14.89 11.25-21.04 14.66-1.04.58-6.68 3.44-7.28 3.6s-11.05-.55-12.54-.77c-10.52-1.55-22.64-7.02-34.22-9.5s-22.36-3.47-33.55-5.71c-15.79-3.16-31.15-6.74-46.93-10.89-5.66-1.49-8.73-2.11-13.81-3.09-2.52-.49-9.56-5.12-10.42-5.24-21.23-2.79-41.82-9.87-63.15-13.22-18.08-2.84-37.48-3.68-55.73-6.57-21.75-3.45-44.93-11.93-67.45-14.36-5.07-.55-11.53-.77-17.24-2.92-6.02-2.27-14.46-3.06-22.44-4.39-29.46-4.91-58.7-11.5-87.8-18.19-17.99-4.13-34.95-8.29-53.72-13.28-34.81-2.64-74.07-20.74-108.09-20.82-1.8 0-2.18 1.38-1.94-1.65 3.53-.59 6.92-.22 10.46.04 12.03.9 20.54 4.27 31.55 6.44 62.14 12.28 122.06 27.23 184.35 37.83 41.2 7.01 81.24 15.58 122.71 23.12 26.77 4.87 53.8 4.88 80.15 10.85 40.09 9.09 78.3 21.24 119.06 29.94 22.52 4.8 44.28 12.37 66.15 16.85 8.05 1.65 11.73 4.67 19.83-1.05 5.21-3.68 10.83-7.26 16.14-11.63l12.61-7.39-20.46-2.05c-6.35-3.67-11.98-2.67-19.45-4.37-28.6-6.52-57.15-11.67-86.64-16.54s-62.9-11.68-92.71-17.28c-4.1-.77-10.6-1.18-13.06-1.76-.77-.18-.63-1.99-1.29-2.06-1.43-.16-3.24 1.12-5.61.88-2.88-.29-5.8-3-8.41-3.5-4.58-.88-16.06-.43-19.67-1.26-1.01-.23-.93-2.44-2.31-2.92-2.2-.76-10.81-.73-14.62-1.42-19.93-3.62-43.76-8.81-63.1-13.75-2.39-.61-.4-.53-5.16-.97-12.3-1.14-19.08-5.32-30.3-8.73-52.56-15.95-105.9-26.49-159.47-38.53-13.02-2.93-26.38-7.27-39.49-9.5s-25.57-1.76-38.25-3.26c-.03-1.68-.56-2.19 1.41-1.91 8.7 1.23 17.63.43 26.27 1.3 13.64 1.38 26.7 5.54 40.09 8.36 50.38 10.61 102.07 21.28 151.62 35.29 17.33 4.9 29.94 10.56 48.23 12.87 40.71 5.14 81.66 14.79 122.11 23.43Z"/><path d="M706 608c1.41-1.1.92-1.93 1.02-1.99.35-.22 2.63 2.91 6.26 1.82 6.74-2.02.93-8.68.69-11.41-.18-2.11 1.96-3.47 2.13-5.9.2-3.04-1.75-7.66-1.89-11.02-.43-10.27.19-17.3-.9-28.12-.28-2.78 1.78-7.32 1.44-10.48-.58-5.37-.35-3.71-.07-8.54.26-4.54-1.89-10.7-1.64-13.82.15-1.89 2.02-3.5 1.95-5.04s-1.8-2.41-1.9-3.95c-.06-1.01 1.3-3.2.91-3.54-2.22-1.96-3.69 2.66-4.61 2.91-1.24.35-3.05-.96-4.67-.72-15.15 2.31-27.99.22-43.22 0-28.65-.42-58.09 1.08-86.92-.26-1.53-.07-2.51-1.74-4.02-1.84s-9.89 1.05-10.2 2.39c-.21 9.67.27 19.22.72 28.93 1.11 23.71 2.89 47.5 3.88 71.04.28 6.81 3.68 14.65-1.95 20.54 1.88-4.38-2.01-6.24-2.06-6.63-.2-1.61 1.49-3.89 1.13-5.7-.22-1.08-2.88-1.24-3.09-2.2-.26-1.2 1.99-2.39 1.86-3.81-.25-2.64-.83-4.39-1.05-8.17-.3-5.06-2.17-13.45-1.87-17.98.16-2.37 2.07-4.76 2.04-5.03-.09-.82-2.41-1.12-2.75-1.68-1.38-2.27.87-7.43.81-10.26-.18-8.38-2.43-18.6-3.04-27.05-.13-1.78 1.22-3.74 1.01-5.92-.18-1.91-2.13-3.64-2.06-5.06.02-.51 2.05-.48 2.1-1.07.13-1.7-1.98-6.98-2.12-9.94-.09-1.86.97-3.54 1-5.1.05-2.55-1.85-4.71.09-7.38-3.47.48-4.44.07-4.96-3.43 4.79-2.06 4.24-3.14 4.93-8.11 2.34-16.87-1.69-35.35-.77-51.97.34-6.04 2.28-12.3 2.78-18.02 1.52-17.25 2.12-34.63 6.03-51.48 1.78.03 1.07 4.31 1.02 5.53-1.02 26.44-5.02 52.68-4.84 78.96.08 10.91 1.46 22.25 1.6 33 .04 2.76-1.93 9.66.6 11.59 3.04 2.32 18.39-1.36 23.27-.71 33.51 2.6 64.7.68 97.83.83l30.4 1.69c3.3-5.44-.15-5.23-.5-7.35-.43-2.56 1.67-8.35 1.64-11.08-.27-29.18 1.48-57.35 4.36-85.76l3.59-6.71c.61 10.13-1.44 20.45-1.86 30.59-2.1 49.93.92 97.68 1.53 147.04.14 11.64-.64 23.32-2.72 34.81 9.06.8 14.98 2.96 21.95 9.23 6.07 5.47 4.75 7.04 7.19 13.56 1.44 3.85 3.18 8.59 4.99 13.04 1.66 4.07 1.24 8.59 2.74 13.43 2.58 8.33 9.17 15.88 9.18 23.74 0 .7 2.12-.25 2.12 3 0 4.09-1.71 10.93-5.09 13.56-.56-3.42 1.92-6.27 2.04-9.52.33-9.24-9.27-22.33-11.62-31.4-1.09-4.21-.89-9.43-2.1-13.9-1.27-4.71-7.19-19.42-10.33-22.67-2.96-3.06-17.16-12.4-20.56-7.57-1.51 2.15 1.37 7.77-1.92 8.05-1.53-.81-.51-3.33-2.03-3.98-1.95-.83-1.53 4.2-3.48 1.99-.96-1.09 2.6-4.3 1.99-5.99-1.59-.35-7.36.47-8 0-.15-.11.07-1.54 0-2-4.64 3.62-11.89 5.94-15.58 11.39-3.23 4.77-4.31 11.63-7.57 15.96-1.6 2.12-9.27 7.76-9.84 9.17-.87 2.14 1.25 1.28 2.25 1.29 3.42.03 8.98-3.25 7.73 2.19-1.47-1.3-12.37-.3-12.86.14-.31.28-.34 2.91-1.13 3.85 11.21-1.78 5.61.2 3.13 4.64-2.94 5.28-3.55 15.22 2.87 18.15l3.98 6.21c1.38-2.91 2.79-2.48 1.23-6.38l3.77-5.61c-.51 4.6-2 14.46-4.01 18.22-.55 1.03-2.04 1.27-2.85 2.4-.21.29-2.98 7.01-4.11 2.89.73-1.58 6.01-9.3 5.91-9.87-.21-1.19-6.55-8.21-7.91-6.64-.07 3.71-.23 8.71-1.28 12.22-.28.93-2.73 6.48-4.73 5.77-.59-3.3 2.52-5.71 3.05-7.49 1.3-4.37-.55-9.18.95-13.5-2.56.5-7.75-1.61-9.94-.47-1.44.75-2.56 2.85-4.15 3.88-6.92 4.49-14.48 9.62-22.9 9.2-4.47-.23-10.66-2.71-11.5-7.62 2.57.83 3.34 2.87 6.24 3.76 6.09 1.87 13.06.05 18.13-2.34 3.15-1.49 6.13-3.6 8.94-5.59-3.54-8.57-9.13-16.03-5.8-25.81 1.43-.27 1.3 1.89 1.52 2.96 1.52 7.49 2.39 9.19 6.4 15.72.91 1.49-.58 4.14 2.59 4.33.4.02.43-1.59.7-1.74 1.94-1.07 6.83 2.11 7.82 1.32 2.57-3.35.47-7.26 1.13-10.86.29-1.56 4.41-8.41-1.75-3.79-2.51 1.88-1.58 7.19-5.43 7.06-.28-.29 2.65-4.27 1.58-6-1.77-2.87-6.9.33-6.58-3.99 4.04-.41 8.04 1.86 9-3H662c-.64-4.97 1.04-1.61 4.31-3.1 1.19-.54 14.64-13.05 15.16-13.94 1.49-2.57 3.68-11.31 4.84-13.76.94-1.98 6.48-2.84 5.96-5.89 3.7-1.59 8.77-5.9 12.25-7.31 1.99-.81 1.37 1.11 1.48 1.99Z"/><path d="m534 659.99 1-2.99c-.1 3.52 1.38 7.5-3.28 5.99-2.59-.84-4.94-9.19-8.22-10.99-.78-.15-.57.87-.49 1.48 1.91 13.4 10.94 17.31 14.43 27.56 2.07 6.07 1.47 16.51 1.57 22.96 1.08 1.16 7.39-3.37 8.99-.49-1.24 2.05-6.79-.03-5.99 3.49 5.39 1.74 8.55-1.59 11.99-2.51 1.89-.5 5.48.3 7.04-.95 1.21-.97.69-3.15 1.54-4.51 2.85-4.54 6.95-12.08 10.82-17.66 6.26-9.04 26.2-12.06 36.61-13.37.49 3.02-.74 1.61-2.42 2.02-8.67 2.13-17.37 2.77-25.51 7.54-5.89 3.45-9.03 9.84-12.26 15.74-1.08 1.97-6.43 11.69-5.76 12.65l20.32 10.19c4.74 2.95 5.26 7.06-.88 3.89-1.7-.88-5.44-3.72-6.72-4.32-1.2-.56-4.8-2.03-5.79-1.31-.9.65-4.35 9.58-4.68 11.4-.36 2.02.05 20.37.72 21.19.92 1.13 1.28.8 1.7-.96.84-3.55 1.92-5.14 2.75-7.95.29-.99-.67-2.78-.46-3.07 1.02-1.44 14.96 2.41 17.99.97.66-.69 1.14-17.55.51-18.94-.3-.66-8.97-6.87-10.4-7.74-2.43-1.49-5.64-2.14-7.03-2.8-1.25-.59-5.08-3.31-4.06-4.5 1.3-1.53 19.34 10.17 20.47 10 1.79-.26.93-1.96.87-2.81-.39-5.42-1.89-10.78-2.33-16.2 4.92 4.69 5.05 13.09 5.53 19.5 2.78 3.15-1.4 22.03-.47 23.39l35.91 7.14V747c-8.95-5.1-5.27.57-7.24 5.22-1.7 4.01-5.46 1.84-5.55.29-.2-3.19 7.42-9.52-3.18-9.51-.73 2.39 2.58 4.36 1.96 6.37-.41 1.34-2.87 1.62-3.47 2.62-1.49 2.48 1.04 6.64-4.01 7.96-3.51-3.9-4.35-6.5-.51-10.46-4.4-4.18-3.52-1.25-4.23-.85-4.9 2.77-2.02-6.8-3.77-9.65-7.57-.64-5.84 7.59-8.26 9.74-.43.38-6.51 3.45-7.19 3.26-2.1-.61-4.14-9.5.53-11.53.58-.25 7.05.52 4.93-2.45-.42-.59-7.15-1.42-8.37-1.07-1.59.45-1.21 9.15-6.62 5.06 1.42 2.67.28 10.02-1.49 12.02-1.31 1.49-3.73.4-4.63 1.57-1.45 1.9.25 5.05-.53 7.12s-4.68 2.64-5.16 3.48c-.7 1.23.11 4.26-.94 6.57-2.81 6.19-8.9-.2-8.17-3.09.4-2.96 7.51-3.15 7.91-3.7.15-.2-.87-4.79-1.05-4.96-2.9-2.77-6.62 4.85-7.88 5.47-1.76.86-8.62-1.79-5.1-4.03 1.88-1.2 5.58.69 6.02-1.46l-11.99-1.02c-.39-1.82 1.68-.63 2-1 .47-.54-2.57-2.57-2-2.98 3.62.24 6.92-1.63 6.01 3 2.72-1.01 16.77-1.01 17.91-2.09 2.19-2.09-.62-8.93-.57-9.42.1-1.03 2.04-1.9 1.64-2.48-.06-.09-1.96.21-2.07-.61-.16-1.24 1.08-3.16 1.06-4.93-.05-4.18 1.17-11.54 1.09-12.92-.03-.55-1.9-.44-2.09-1.23-.36-1.55 1.43-4.73.82-6.58-2.78-8.48-12.18.23-17.79-4.25 2.1-2.75 13.25-.79 13.99-1.5.09-7.17-4.72-2.7-7.66-2.36s-6.78-.82-9.84.24c-2.3.8-2.32 3.79-5.5 3.13 2.11 4.49 2.71 9.51 2.95 14.47.18 3.54-.95 16.06.55 17.47.61.58 7.52 3.2 5.5 5.04-1.23 1.11-5.15-2.77-6.99-1.98 3.22 8.92-2.1 10.91-3.49 1-10.34 3.56-2.23 14.83-14.51 13-2.69-9.74 2.64-7.34 5.07-10.68 1.61-2.21 1.26-9.97 3.02-11.24 1.57-1.13 5.72 2.68 7.91 1.92l-1.66-29.51c8.39-4.74 3.35-3.65 1.72-9.06-1.82-6.05.07-16.81-2.52-24.46-1.53-4.52-8.96-12.11-11.28-17.72-1.27-3.08-3.35-9.86-1.32-12.66 3.5-4.82 7.92 12.91 12.06 10.4Zm37 52.02c-2.36.41-6.17-3.91-7.51-3.78-4.55.45.29 7.96 3.02 8.75z"/><path d="M660 838c-.22-1.12-1.56-1.61-1.77-2.73-2.36-13.05 1.63-6.94 3.89-9.87.59-.76 1.37-11.95-3.11-10.39-.4 1.8-1.28 8.25-4.05 7.6-6.25-1.48 2.23-10.51 1.04-11.6h-6.99c-.73 2.39 2.58 4.36 1.96 6.37-.41 1.34-2.87 1.62-3.47 2.62-1.07 1.78.07 4.25-.98 6.02-3.3 5.58-9.34-4.98-3.54-8.52-4.4-4.18-3.52-1.25-4.23-.85-4.04 2.28-3.29-4.22-2.8-7.13.45-2.63 2.49-4.15 1.86-6.73-.08-.33-2.54-5.91-2.73-6.19-.72-1.01-2.52-.11-3.12-1.25-1.13-2.15-2.07-8.15-3.53-10.28-1.54-2.25-5.58-2.14-4.29-7.61.55-2.36 2.51-2.9 2.87-4.99.58-3.33-2.24-10.64 2.63-12.33 3.08-1.07 2.24 1.79 2.37 1.86 2.2 1.02 1.85-10.67 1.98-11.99-1.9.11-1.13 5.41-2.02 5.98-2.48 1.57-2.98-1.7-3.17-1.8-1.32-.73-2.97 2.52-2.82-.7.33-7.03 7.64-6.46 8.06-8.15.66-2.65-.96-6.49-.72-7.9.21-1.21 2.56-1.46 3.21-2.42 1.99-2.97-1.84-5.57-1.53-5.99.08-.11 1.56-.21 2.49-1 3.14-2.68 6.17-5.36 10.49-6.4 1.62-.39 4.12.9 4.97.33 1.56-1.05-2.17-20.28 3.56-22.95.58 5.71-2.44 17.63.2 22.7 1.07 2.06 3.39 2.35 4.08 3.94.39.9-.85 3.27-.49 4.68.53 2.05 2.27 3.2 2.66 5.22.63 3.25-1.23 14.27.05 15.45 1.81 1.67 1.67-.68 2.07-1.43 2.22-4.2 5.46-9.1 8.47-12.52 1.4-1.6 8.88-5.79 10.13-7.37.19-.24 1.47-3.56 1.31-3.68-.7-.53-4.21 1.1-3.99-1 3.2-.51 5.83-2.96 8.98-3.58 1.34-.26 2.91.7 3 .58.18-.24-.45-1.72.68-3.07.8-.95 5.85-4.41 7.34-5.44.81-.56 1.95-2.71 3.01-.99l-11.54 12.46c-7.61 6.86-17.55 14.14-23.48 22.52-5.29 7.47-7.93 19.84-13.57 26.43-1.14 1.34-10.04 7.64-11.09 7.93-3.82 1.07-4.26-4.95-2.89-6.92 1.11-1.59 4.79-.8 6.56-.94-1.39-2.98-.41-8.07 2.89-4.91.14.14-1.78 3.43.63 3.92 2 .41 7.41-7.29 7.89-8.97s-1.79-8.28-1.4-11.44c.32-2.56 2.55-8.56 2.98-11.18.82-5.02-1.85-5.81-2.7-7.63-.25-.55.87-1.85.24-2.79-1.89-2.83-8.57 2.12-11.33 2.72-2.33.51-5.03-.78-7.47.49-.95.5-4.26 4.53-4.36 5.26-.2 1.49 2.11 10.61 2.19 14.03.05 2.22-1.52 8.06-1.32 9.06.29 1.43 6.17 1.51 3.74 3.44-.62.49-4.01-1.49-3.01 3.01-4.46-2.85-2.9 1.93-4.94 4.35-1.24 1.47-5.71.99-4.9 6.92.16 1.2 6.23 8.48 7.49 10.58s6.81 13.61 7.5 14.01c1.9 1.11 8.04-3.86 10.84-3.87l-7.02 6.47-4.96 1.03c2.46 3.74 8.32.5 12.47.75 1.86.11 3.64.91 5.53.76l-1.01 1.98c5.16-.98 4.23 4.15 10.25 3.77 13.03-.82 10.39-9.41 17.74-16.76.12 1.58-.32 3.13-.92 4.56-4.06 9.71-8.82 17.48-7.12 29.98.86 6.33 6.91 7.86 10.04 12.45-4.38-1.08-3.56 1.23-5.01 2.5-.84.74-2.42 1.4-2.71 1.79-1.27 1.74-5.6 17.14-9.28 13.72 3.15-6.43 5.34-13.8 10.92-18.58.36-2.93-2.84-3.47-3.78-5.01-4.75-7.76-2.09-13.95-2.15-22.4-3.02-.71-1.24.61-1.41 1.64-.51 3.07-.75 6.22-.59 9.35-1.18 1.47-4.11-4.68-5.99-3-.2.18-.15 3.57-1.51 5.08-1.15 1.28-3.05-.39-3.48-.09-2.01 1.41 2.24 5.32-3.02 7.01 1.42 7.22-6.56 9.39-8.51 2-9.94 8.92-13.89-8.88-1.49-7.01-2.97-7.42 6.98-13.2 5.58-4.97-.86 5.08-3.85 3.34-4.57 4.01-.26.24 1.2 5.38 0 6.96 1.59-.37 3.41-4.05 4.97-2.99.99.68-1.04 3.61 4.02 1.99Zm-4-111.01c-3.13-4.06-14.74-.06-17 4zm16.99 90.02c-.23-.21-5.7.86-5.9 1.08-.58.67.44 6.45.92 6.91 1.92 1.84 1.64-.79 1.97-1.51 1.03-2.27 2.12-4.26 3.01-6.48M810.01 540l-1.47-11.03c1.8-34.55-.65-68.29 1.19-102.62.12-2.23-1.89-4.9-1.46-8.04.2-1.47 1.72-2.62 1.72-3.81 0-1.82-2.58-10.76-2.53-14.01.05-2.68 4.96-8.33-.11-9.33-1.68-.33-4.03 2.33-5.98 2.54-4.71.52-16.95-2.59-16.39-9.19l7.13 4.87c7.56 3.32 17.36.62 16.58-9.03-.21-2.62-.62-4.49-.81-7.8-1.82-32.36 2.37-64.83 2.69-96 .04-3.74-.43-7.99-.33-11.33.05-1.55-.31-2.7 1.75-3.21-.2 3.99 1.56 8.92 1.65 12.66.27 11.47-2.32 23.46-2.5 34.97-.67 43.76 3.76 87.16 3.03 131.02-.31 18.29 1.68 36.42 1.59 54.11-.07 14.19-3 28.48-2.77 42.73zM829.99 246c1.91 1.84.76 22.95 1.02 27.49 1.18 20.41 4.88 42.21 4.94 62.05.08 25.45-8.08 53.11-7.85 78.07.07 7.82 2.91 17.54 3.35 25.23 1.98 34.33-1.18 69.25 2.27 103.54-4.11 9.27-4.35-1.75-4.48-6.15-.92-32.26 2.07-65.23-.26-97.72-.53-7.45-3.16-16.6-3.07-24 .07-5.7 1.91-12.4 1.84-17.99-.18-14.21-2.02-24.34-.27-38.59 1.11-9 1.36-13.62 1.83-22.68.08-1.57 1.47-3.12 1.42-3.78-.08-1.06-2.47-2.01-2.65-3.12s1.74-2.29 1.85-3.82c.09-1.22-1.08-9.34-1.23-12.29-.88-17.85-2.1-33.9-1.08-50.92.27-4.47-.15-9.43.38-13.87.17-1.41.56-2.85 1.99-1.48ZM271.28 957.7c5.63 4.63 24.17 5.27 31.3 10.28 7.06-.8 13.71-3.82 20.38-6.07-1.54-3.09.37-4.95.65-7.58 1.33-12.41-.95-26.28.35-37.87.17-1.5.21-3.08 2.03-3.46.9 14.17 2.27 28.86.45 42.96-.14 1.1-1.39 7.52-1.62 7.84-.65.88-7.61 2.55-9.05 3.27-1.77.88.69 3.54-3.74-.08-.07 1.14-.43 2.46-1.64 2.86-7.55 2.49-15.03-2.25-22.17-4.51-3.63-1.15-8.32-1.52-11.42-2.65-3.42-1.25-7.24-4.7-11.75-4.78 2.01-6.05-.86-11.98-1.65-17.57-.99-7.04-.71-12.84-3.31-19.14-1.29-3.11-8.7-17.25-6.08-19.2 3.26-2.44 2.81 9.35 6.48 8.98 3.42-1.58-1.69-10.24 2.5-11.99 2.36 4.33-1.35 18.42 2.73 21.03 2.75 1.76 7.9-.71 10.88-.94 14.19-1.12 15.03-2.86 27.85-8.13 5.37-2.21 23.82-9.82 27.88-9.73 2.12.05 5.42 2.38 8.58.69.76-6.68-1.17-12.94-.92-19.92-2.37-2.4-6.4 5.85-7.03 6.47-6.75 6.67-21.99 8.24-31.19 9.89-2.09.37-5.53 2.28-7.34 2.57-5.93.95-20.8 1.53-26.18-.58-1.54-.6-7.99-7.28-9.23-7.79-1.63-.67-4.34 1.34-5.02-4.54 5.94 2.25 11.95 8.78 17.96 10.53 8.98 2.61 23.2-.66 32.43-2.63 11.31-2.41 23.09-4.59 30.43-14.52 2.1-2.84 1.9-7.8 5.77-4.47 2.46 2.12 4.12 21.91 3.41 25.6-.87 4.53-8.85 2.24-12.19 2.72-18.97 2.71-35.92 16.66-55.49 18.68-3.13.32-7.11-.44-10.24-.51-1.22-.02-1.28.06-2.04 1.09l5.05 28.94c.3 1.2 1.32 3.56 2.2 4.29ZM365 835.01l-.99 7.99 4.49-5.98c4.34 1.61 2.27 7.53 2.53 7.9.21.3 6.44 2.61 6.97 2.08-.11-2.39-1.48-4.65.25-6.76 7.06-2.92 7.79 5.99.76 7.26 6.73 2.48 4.83 9.74 8.1 13.89 3.85 4.88 6.25-2.19 9.26-1.33 3.88 1.11.53 11.16 7.62 8.93-.04-1.72-2-.57-2.61-2.92-1.08-4.19 3.06-10.39 7.61-10.06-1.41 2.67.01 6.56-.28 8.35-.25 1.52-2.95 3.14-2.58 5 .28 1.39 5.84 5.25 4.85 8.64-2.29-1.44-2.85 1.02-4.01 1.46-6.01 2.29-5.12-3.04-4.99-7.46h-3.96l-3.03 36 2.61-5.63c.46-5.63.03-13.31 1.37-18.66.31-1.22 2.51-1.29 3.43-1.74 1.67-.09.49 9.94.54 11.59.16 4.97 1.21 34.35-.97 36.44-.73.7-2.06.76-1.71-1.27.31-1.82.49-19.11-.28-19.72l-1.69 1.64c-.02 10.34-2.82 21.2-1.3 31.35-2.56.46-1.8-.4-2.45-2-3.92-9.61-4.59-10.76-2.55-20.52.13-.62-2.03.04-2.12-1.93-.19-3.99 2.3-9.96 2.73-13.25 1.36-10.17 1.12-20.61 3.19-30.69-3.42-2.59-7.55-4.28-10.77-7.18-1.03-.92-.74-2.77-1.68-3.53-.8-.65-3.18-.68-3.36-.91-.31-.39 2.32-8.59.94-9.93-.21-.2-2.65 0-3.86-.6-1.51-.75-2.7-2.29-4.15-2.88-9.77-4.01-12.84.41-10.92-12.9.2-1.37 1.88-.5 2.98-.66ZM548 377.01c-1 10.36-.79 20.91-1.41 31.31-.51 8.55-2.11 17.74-2.58 26.2-2.75 49.36-.36 97.51.07 147.01.18 21.03-1.2 41.82-2.04 62.81l-3.03 1.68c.28-10.82.69-21.63 1-32.49 1.49-53.44-2.51-105.74.6-160.16 1.24-21.78 1.38-47.77 4.52-69.72.24-1.68.22-7.57 2.87-6.62ZM770 906h6c-.22 5.28-8.01 4.14-11.22 6.01-1.23.72-1.36 2.65-2.36 2.96-1.69.51-2.86-1.52-4.49-1.51-.5 0-9.2 2.07-9.65 2.28-5 2.33-1.01 8.53-6.27 7.25 2.01-9.86-2.68-4.74-7.47-4.44-6.62.41 1.24-6.15 6.46-3.56l-3.99-2.98c3.77-.66 5.98-.2 8.68-3.22 2.37-18.53 3.61-37.02 3.33-55.79 1.94.38 1.64 2.37 1.76 3.82 1.23 15.01-.18 30.62-1.9 45.55-.2 1.73-3.26 8.45.61 7.62 2.71-.58 1.13-5.41 3.51-6.51-3.58-.95-1.06-2.12-1-4.99.07-3.56-.3-7.33-.09-10.98.33-5.78 1.62-11.63 1.1-17.51 1.23-1.62 1.81.02 2 1.48 1.47 11.47-1.49 25.77-1 37.51.25.26 6.29-.95 7.01-1.48 2.15-1.6.1-3.95.32-5.87 1.47-12.49 1.74-28.17 4.06-39.79.22-1.12-1.75-2.26 1.6-1.85l-2.99 47h2.97l3.03-44c.73-.9 1.33-.86 1.7.96.6 2.98-1.03 9.5-.69 13.03 4.81-2.14 4.17-6.83 4.4-11.28L781 849l-10.99 57Z"/><path d="M726 878c.58.03 1.9-.13 2 0 .64.85-1.27 5.8.99 6 1.04-8.08 5.27-15.82 4.02-23.99 1.62.29 1.89 1.95 2.3 3.26 1.16 3.67-2.36 16.81-3.61 20.94-.86 2.82-3.31 4.93-3.74 8.26-1.92 14.59 1.01 35.92.91 51.15s-.99 30.06-1.97 44.9c-.21 3.23 2.75 6.75-2.4 6.5.95-4.22-.81-19.9.5-22.26.75-1.35 4.23-.48-.09-2.36l.87-74.79c-2.63-3.96-6 1.49-7.63 2.29-2.55 1.25-6.38 2.85-9.1 3.45-1.11.24-6.06.98-6.04-.84.01-1.14 8.28-1.92 10.23-2.76 3.19-1.37 5.72-4.04 8.18-6.37.44-.42 1.82-.2 2.24-.65 3.27-3.5 1.61-9.18 2.34-12.72-5.04-.29-9.25.99-14 2.49-5.53 1.74-2.48.64-5.5.78-1.05.05-1.92 2.38-2.99 2.48-.7.06-2.07-1.36-3.22-1.53-10.78-1.61-21.8-1.66-32.67-3.34-7.29-1.12-17.23-5.24-23.23-5.82-2.97-.29-5.61 1.05-7.63.72-5.33-.89-18.49-6.27-23.49-8.55-2.17-.99-7.18-1.25-7.09-4.53.01-.4 1.53-7.43 1.82-7.7.86-.81 4.63.36 5.5 2 2.42 4.57-1.94 3.8-3.5 6.99 3.05-.03 5.59 1.33 7.99 3.01.28-5.22.94-7.33 7.01-6.99.79 3.53-1.39 5.81-2 8.99 6.29 1.3 12.21 2.91 18.51 4.1 11.88 2.23 24.54 3.82 36.83 5.31 9.25 1.12 23.1 4.25 31.71 2.14 1.5-.37 11.56-3.97 12.26-4.47 2.79-1.99.72-5.87.6-8.58-.08-1.75.74-3.62.59-4.99-.22-1.99-4.73-9.35-6.18-9.53s-13.26 1.5-13.29-1.46 3.79-2.34 3.99-2.51c.32-.27-1.41-2.28-.98-2.89.19-.26 1.85-.37 2.46-1.07 2-2.27 3.96-5.76 6.97-7.01.91.38 8.61 9.87 9 11.01 2.39 6.99 4.8 19.07 3.1 26.02-.49 2-2.36 3.98-2.56 4.94Zm-8.17-36.8c-1.21-.7-3.34-.3-4.36.77l-3.45 7.03c3.9-2.3 7.74.69 11.99 0 1-.96-3.78-7.57-4.17-7.8ZM790.01 971.99c-1.55-3.42.43-4.53 1-6.52.2-.69-2.2-.27-2.01-.96.33-1.25 2.37-4.14 1.83-6.05-.2-.69-1.86-.27-1.86-.98 0-1.25 1.77-2.57 2.1-4.93 2.72-19.62 2.37-42.67 3.91-61.99.32-4.05 1.8-8.19 1.01-12.56l-2.01 10.29c-.44 1.31-2.45.08-1.97 1.69.37.23 1.88-.39 1.9.42.11 4.38-2.96 14.32-3.83 19.16-1.45 19.4-4.19 38.66-5.98 58.03-.25 2.74 2.6 7.68-3.1 8.39-.41-1.89.85-3.79.8-5.49-.31-11.03 1.74-22.44 2.2-32.99.15-3.29 1.92-5.86-.02-9.52-2.14 1.65-6.27 1.37-8.07 2.5-.94.59.06 2.09-.14 2.33-.56.65-3.41 1-4.29 2.16l-.48-2.98c-5.61-1.07-1.29 2.77-2.06 3.87-.31.44-8.97 4.92-9.49 5.08-1.94.58-1.84-1.58-1.45-1.94.61-.57 8.06-1.82 8.99-4.52-2.95-2.33-6.3 4.06-7.99-.48l26.53-7.98c1.51-7.37 1.79-14.96 2.91-22.35 2.02-13.27 4.53-26.82 6.44-40.31.94-6.66-.94-12.58 4.62-17.37l-6.86 124.52-2.63 1.47ZM434 568l1.68 8.15c.14 2.16-.25 13.22.34 13.83.89.94 9.49.68 8-4L457 588l-7.77.23-2.22 1.76 11 1.01c-4.05 13.18-16.72 6.21-25.02 9.47-3.84 1.5-6.86 6.33-10.97 7.53-.27 1.58 1.4 1.08 2.47.99 5.11-.44 16.97-1.33 21.75.28 5.03 1.69 4.72 3.64-.72 3.81-4.16.13-23.46-3.25-25.39-.98-.59 4.91.39 10.29-1.6 14.89-1.53-1.52-2.06-4.71-2.25-6.76-1.58-17.1-1.42-33.49-1.29-50.71.02-2.6-1.68-4.83-.78-7.8.79-2.58 3.09-3.73 3.78-.2 1.33 6.76.26 44.06 2.04 45.48 5.85-1.48 7.01-8.34 11.95-9.5s9.19.41 14.03-.51l-13.97-4.51c-3.73-4.73 1.98-3.15 1.98-3.48v-21ZM786.99 660c-1.52 1.61-1.76-.16-1.96-1.51-.31-2.12-.72-5.04-.89-7.12-2.2-26.66.15-52.47-.22-78.89-.25-18.48-1.02-40.78.04-61.06.02-.43-1.97-.36-2.01-.98-.59-9.39.09-25.81.44-35.77.09-2.63 1.71-9.66 1.67-11.17-.01-.5-2.08-.48-2.1-1.07-.04-.92 1.12-2.51 1.1-3.99-.03-2.34-1.07-30.46.45-30.46L787 659.99ZM247.99 463c-1.36 1.67-1.77-.38-2.13-1.43-.18-.54-.72-9.14-.69-10.09.91-28.95 4.1-56.51 3.63-85.91-.57-35.13-4.6-71.74-4.58-108.07 0-1.57.35-18.49 1.28-18.52 2.68 2.99.88 6.94 1.06 10.16 3.46 61.14 4.97 120.06 2.39 181.31-.16 3.8.18 31.14-.96 32.54ZM275.76 703.24c.24.24 2.12 5.64 2.21 6.35 1.2 8.8-9.63 8.48-12.98 14.4 3.98-.86 2.53 1.97 4.46 4.04 4.13 4.45 12.72 3.9 11.55 11.96-7.19-.52-3.82.62-4.28 1.8-.66 1.69-6.95 4.68-9.12 4-2.5-.79-1.8-7.17-4.09-5.78-.92.55-7.08 11.62-9.08 13.93-.7.8-4.97 5.12-5.5 5.5-4.77 3.42-13.26 4.85-9.42-3.42.15-.32 3.53-5.53 3.78-5.77.55-.52 2.11.06 2.81-.84.63-.81.64-3.15.91-3.39.61-.53 2.44-.4 1.93 1.44-.68 2.46-9.83 10.66-7.94 12.56 1.89 0 4.39-.51 5.94-1.55 3.18-2.12 11.6-13.09 13.27-16.73.37-.81 2.84-8.6 2.88-9.22.42-6.34-3.64-4.24-6.99-6.07-4.13-2.26-14.37-12.07-13.06-16.86.9-3.27 3.23.66 4.58 1.29 5.29 2.47 10.7 4.46 15.35 8.14-.32-1.75 1.75-3.52 2.02-4.52.16-.61-2.04-.27-2.05-.98 0-.89 2.78-5.79 3.37-7.53.35-1.04-.5-2.54-.29-2.85 1-1.43 8.42-1.18 9.71.13Zm-1.88 1.89c-3.85-3.25-7.14 3.93-7.24 7.09l-.14 6.76c2.21-2.87 9.77-4.05 9.24-8.3-.05-.43-1.63-5.36-1.86-5.55m-1.09 37.65c.53-.3 3.33-6.37 3.13-7.21-.13-.55-9.38-6.19-9.92-5.57-.66 1.8 1.4 12.31 2.1 12.88.48.4 3.91.33 4.69-.11ZM756.01 624c.33-8.82.7-17.56.63-26.33-.14-17.38.5-35.22 1.26-53.24.02-.48-1.81-.34-1.95-1.06-.37-1.85 1.69-8 .98-10.74-6.09-23.47-.69-56.44-1.17-82.4-.22-11.89-1.66-24.72-2.23-35.67-.08-1.53-1.43-10.54-.03-10.57.9.58 1.31 2.59 1.41 3.6 2.63 27.75 3.18 52.92 3.02 80.88-.18 30.82.63 61.24.45 92.2-.06 11.22 2.4 26.75.98 37.44-.31 2.29.13 6.14-3.35 5.88ZM234 813.01l2.02 76.99c1.81-1.18 12.49-2 12.99-2.43 1.04-.88 1.45-3.79 1.61-5.24 1.3-11.75.98-33.78-.56-44.86-.32-2.27.77-7.44-1.57-8.47-.73 3.38-4.8 1.96-7.13 1.1-.96-.35-1.85.42-1.31-1.53.44-1.6 5.2-6.56 6.65-7.58 1.33-.94 7.07-3.47 8.82-3.94 1.44-.39 2.8-2.24 2.46.43-4.36 2.94-9.76 5.01-12.99 9.5 7.27.48 10.69-7.9 18-7.98-2.46 4.77-8.98 3.69-9.94 9.54-.72 4.38.64 8.74.79 13.01.11 2.98-2.42 5.08 2.15 4.95-1.94 3.18-1.91 6.56-2.58 10.19l-.95 38.29c-5.89-2.52 3.06-6.42-6.94-4.94-2.15.32-5.34.62-6.9.9-.77.14-.67 1.98-1.08 1.98-1.76-.03-5.54-4.15-5.56-4.54-.11-3.04 1.82-6.94-.66-11.04l.62-62.83 2.03-1.52ZM497 546.01c2.92 2.99-4.78 3.77-4.99 4.07-.34.48.91 1.92.84 2.42-.28 2.11-2.86.56-4.05.77-29.12 5.15-50.46 1.9-79.32-2.25-1.68-.24-3.28.37-4.47-1.54-.9-1.84 2.63-2.21 3.52-2.28 13.57-1.15 41.13-.48 53.75 3.21 3.67 1.07 5.01 1.21 4.21 4.59 2.43-5.5 9.79-3.17 14.77-4.23 2.67-.57 13.63-6.91 15.73-4.76ZM432.98 845.94c-.35.48-5.93 2.22-3.53 6.07 3.69 5.95 7.43-4.38 9.03-3.99 5.13 1.72 8.38 11.24 2.07 11.49s-1.69-5.15-5.05-4.52c-5.65 1.07-4.96 4.35-7.06 5.94-3.37 2.55-5.85.77-5.54-3.47.17-2.35 2.66-.38 1.69-3.5-2.36-7.6-9.41-7.73-7.61-.66.22.85 5.16 2.48 4.09 7.02-.21.91-1.99.91-2.49 1.71-1.57 2.47-.06 7.03-5.12 4.02-6.37-3.79-1.58-5.27-1.52-5.68.08-.56-.89-1.61-.42-2.42s3.72-1.06 2.27-5.21c-.44-1.25-3.95-5.07-5.26-4.73-.52.13-3.35 6.85-6.02 6.85-.9 0-3.12-3.42-3.32-4.58-.68-3.99 7.74-12.01 7.84-3.27 6.07-.45 2.45-2.59 3.41-4.02 2.68-3.97 10.79 2.52 11.54 2 .29-.2 2.58-5.79 3.71-6.04 4.31-.95 7.63 6.56 7.31 7ZM213.01 306.99c-.95 6.78-3.16 10.95 1.45 17.05 1.92 2.54 9.48 8.31 12.4 5.79 2.03-1.75 3.61-14.31 4.25-14.73.33-.22 7.61-.39 7.88-.1 2.31 2.43-5.59 2.82-6.52 3.94-.75.9.38 10.92-6.58 13.53s-10.94-5.57-15.39-9.46c-1.28-.03-2.1 12.48-11 13.07-4.35.29-3.2-1.51-4.85-2.8-.63-.49-2.17-.07-2.47-.43-.54-.64.1-2.32-.25-3.03-.81-1.64-4.48-3.79-2.92-6.82-2.65-1.2-7.29 3.87-7.72 3.97-2.72.59-10.63-.6-8.27-3.98 3 3.14 8.9 2.53 11.41-1.08 2.02-2.89 1.43-14.83 5.08-14.9 3.03-.06.29 11.05.56 13.37.73 6.36 8.26 17.81 14.32 9.49 5.02-6.88 2.98-10.26 2.53-17.38-.24-3.77 3.35-5.35-2.29-6.69-2.9-.69-8.63 1.55-8.61-2.8 3.54 1.92 6.44-.03 9.39.09 8.72.37 19.27 3.76 28.22 4.79 2.7.31 6.58-2.09 9.36 1.61-1.49 2.37-2.23.86-3.76.8-8.89-.36-17.61-1.03-26.21-3.3ZM412 99.01c.08.09.36 2.11-.48 1.97-5.87-2.07-11.78-1.03-17.93-2.07-21.73-3.68-48.11-11.4-71.44-16.65-17.91-4.03-30.24-11.1-46.92-15.99-3.3-.97-7.65-1.14-10.99-1.92-1.61-.38-5.68-.74-6.24-2.34 5.72 1 12.54 1.27 18.08 2.59 8.95 2.14 18.37 7.05 27.12 9.69 24.35 7.36 49.97 9.57 73.96 18.04zM514 738c.26-.28-.66-2.33.64-3.05 2.38-1.31 13.38-4.06 15.36-1.94 1.65 1.78-1.84 2.06-1.84 2.43 0 10.78-1.63 4.16-6.84 8.87-2.6 2.35-1.88 7.09-3.29 8.26-.47.39-3.85-.44-5.01 1.42.49-2.59-.7-7.23-.08-9.39.14-.48 6.84-3.5 7.07-6.6-12.27-.83-8.4 6.36-10.12 14.39-.58 2.73-3.51 12.39-4.93 14.04-.71.82-3.28 2.39-4.39 2.45-.75.04-13.96-1.96-14.57-2.38-.41-.27-1.31-1.25-.99-1.5l5 .98-2.99-4.5c4.56-4 5.3 2.18 6.7 2.53 1.02.25 8.85.18 9.2-.12.99-.84 4.15-21.75 4.89-25.51.61-3.09 3.03-8.03 2.06-11.83-.41-1.6-4.53-.67-1.84-6.56 1.94 1.08 3.63 5.6 3.92 7.56.17 1.14-1.25 14.01 2.07 10.44ZM748.99 452c.57 14.45-.31 29.05-.07 43.47.36 21.03.14 40.41.02 60.98-.1 16.46 2.14 35.05 1.02 51.02-.1 1.49-.25 7.44-2.95 6.52-1.56-2.9.82-5.38.75-7.33-.1-2.94-1.32-6.8-1.17-10.81.09-2.36 1.51-5.9 1.44-7.3-.03-.68-2.87-.18-2.06-3.07.12-.41 2.09-.41 2.06-1-.05-1.29-1.51-2.11-1.57-2.96-1.56-20.66 1.37-40.9 1.63-61.04.1-8.02-1.67-17.04-1.79-24.77-.16-9.95 2.12-30.89.68-39.14-.07-.37-4.86-2 2.01-4.59ZM627 143.01c.71 3.83-3.6 1.26-5.64 1.08-28.65-2.56-63.03-16.72-93.33-18.59-3.59-3.2-36.99-9.05-37.01-10.99-.03-2.16 2.78-.67 3.51-.55 36.16 5.75 75.32 16.28 111.05 24.91 7.06 1.7 14.33 2.59 21.42 4.15ZM653.59 593.41c8.94 6.86 12.19 20.05 8.96 30.64-.63 2.08-2.22 6.12-4.55 4.45 7.23-9.18-4.38-13.24-7.53-19.56-.1-.21-1.27-3.31-1.4-3.69-.8-2.21-.78-4.71-2.05-6.79.03-3.01 1.11-.85 1.74.27 3.16 5.58 4.65 12.78 10.74 16.26 2.48-7.68-4.87-18.65-11.6-22.42-.91-.51-2.12.13-2.93-.19-1.01-.4-2.05-2.35-2.48-2.37-4.27-.21-2.12 12.24-3.51 14.98-2.41-1.41-.99-3.87-4.98-2-.82-2.91 2.13-1.64 2.83-3.63s.42-5.98 1.16-8.36l-18.26 1.21c-10.8 4.11-11.27 9.39-15.47 18.6-.65 1.43.58 2.72-2.27 2.18 1.19-11.15 6.48-20.52 17.82-23.66 11.38-3.16 24.19-3.27 33.78 4.08"/><path d="m488 721.99 10.99 4c-3.25-.03-8.41.26-11.32-1.2-1.35-.68-1.82-2.9-2.16-2.81-4.45 1.22-1.17 4.74-.84 8.82.18 2.27.46 9.96.32 11.69-.5 6.41-3.28 12.94-3 19.5-2.54 1-2.55-2.98-2.47-4.51.48-8.88 4.22-18.89 2.46-28.48l-25.99 3.48c-1.43.65-9.6 3.87-9.99 3.51-1.77-1.58 1.22-2.13 2-2.45 10.66-4.35 22.41-6.17 33.99-5.56-2.14-6.37 1.08-6.75 5-10.5-2.63-.83-2.14-1.83-1.99-4.49 2.66 3.07 4.22.75 6.36.95.69.06.53 1.84 1.31 2.04 2.3.58 5.8-.35 8.33 0-2.55-2.79-7.61-1.14-11.02-3.48-1.47-1.01-.57-2.04.61-2.4 2.62-.79 11.19 1.96 14.24 2.64 2.87.64 5.62-1.5 8.14 2.74-.02 2.41-18.7 3.81-21.47 4.51-1.39.35-3.12-.02-3.5 1.98ZM697 830c.13-4.31-.61-13.08 0-16.5 1.01-5.57 3.43-.64 3.71-.55 21.51 7.19 50.67 8.39 73.41 6.44 10.83-.93 38.74-3.89 37.82-18.87-.03-.52-2.88-9.4-3.13-9.85-1.42-2.55-6.34-.96-7.88.76-1.34 1.49-5.53 13.48-6.67 16.37-.28.7-.31 3.95-2.25 2.19-1.07-.97.52-14.76.45-17.5-.42-15.54-.44-38.19-4.94-52.51-.49-1.56-2.08-2.82-2.56-4.44-3.24-11.01-4.41-26.08-14.31-33.25-1.63-1.18-4.55 1.07-1.15-4.3 4.47 4.75 9.48 7.72 12.01 13.99 4.58 11.34 6.1 27.94 11.25 39.75l2.25 47.25c2.38-1.14 3.72-9.71 4.93-10.55.39-.27 8.8-1.62 9.36-1.51 2 .4 1.94 4.96 2.33 6.09.74 2.14 3.79 1.6.36 5.97.82.19 2.59-.27 3.02.02.2.13-.09 4.57-.2 4.78-.13.26-1.51.29-1.81.9-6.06 12.18-6.79 9.94-19.25 13.38-14.45 3.98-42.77 5.58-59.08 4.55-11.82-.74-23.24-5.85-34.66-8.62-1.42 1.06-.73 13.25-.01 15.99-.96.14-2.13-.17-3 0-.05 1.88-1.16 4.65-.05 5.48l13.04 3.51c-3.11-.17-6.36.37-9.46-.08-1.48-.21-13.68-3.87-9.54-6.42l4 .52c-.26-3.63-.16-2.56 2.01-3.01ZM590 930.01l-5.8 4.89c-12.33 6.8-25.38 11.67-38.17 17.6 13.32 11.55 32.68 9.08 48.43 13.55 8.02 2.27 16.93 7.82 25.56 9.45L625 979c-1.9-.49-4.3-.24-6.07-.63-10.49-2.36-20.33-9.48-31.51-11.28-14.4-2.31-24.22-2.3-38.29-8.71-2.4-1.1-7.61-3.44-6.99-6.74.58-3.09 6.24-2.89 8.19-3.84 2.07-1 1.34-1.08 4.54-2.37 2.12-.86 4.8-2.53 6.84-3.11 2.2-.63 6.36-1.36 9.24-2.88 6.17-3.24 11.77-8.39 19.05-9.44ZM416 728.99c1.27-2.35.03-5.05.44-7.02 1.52-7.32 3.36-14.54 4.75-21.37.71-3.46-.28-6.47 2.8-9.6-1.8-1.44-29.95 9.43-34.23 11.26-2.1.9-3.89 4.26-6.77 2.23 8.16-5.4 17.3-13.45 26.77-16.23 3.38-.99 14.37-1.12 15.7-4.24.37-.86-.69-2.3-.35-2.83.3-.46 5.83-2.99 6.86-4.2.02 2.35-2.09 3.19-3.04 5.45-5.64 13.32-6.41 29.65-9.21 43.79l-3.73 2.76ZM282.89 771.05c.44.37.38 2.39 1.04 3.24s1.99.99 2.47 1.76c1.05 1.72 1.12 5.23 2.88 6.65 1.47 1.19 8.74 1.32 5.73 4.29-.45.45-4.03-.7-4.02.52 1.7 4.14 1.25 8.9 4.01 12.48-7.71-2.25-5.48 8.34.99 6.01.6.6.28 1.32-.78 1.94-1.28.75-4.99 1.89-5.22 2.06-.72.56 4.67 14.88 2.99 17.98-1.25-.46-2.45-4.56-2.73-5.76-.6-2.56-.59-10.55-2.14-12.66-.82-1.12-2.73-.17-3.82-.86-2.49-1.57-3.73-5.84-5.29-8.22-.26-.8 8-1.84 8.73-5.11.1-.46 0-7.49-.13-8.39-.39-2.7-4.61-12.21-7.08-12.67-4.46-.83-1.97 8.57-2.09 11.19-.25 5.45-1.16 11.04-1.44 16.5l-2.1-10.17c-.98-2.13-4.12-3.48-5.76-1.69-.37.4-.7 15.31-2.86 8.38-2.35-7.56 4.59-16.74 10.71-7.51-.75-3.48-2.02-18.21.04-19.99.22-.19 5.63-.15 5.86.04Zm1.42 34.62c5.3 4.56 5.18-3.61 1.75-5.17s-5.55 1.9-1.75 5.17M603 642.5c.2 1.26 2.51 6.3 3.33 7.67 2.76 4.6 13.48 10.93 18.66 8.83-1.21 4.46 1.79 11.56-4.99 9.99 2.38-2.3 1.03-4.28 2.02-6.98-3.44-.29-8.94-2.69-11.95-4.57-13.94-8.69-7.68-24.52-9.06-38.43 9.88 2.2 21.68-2.37 30.51-6.99 1.86-.98 5.69-5.37 7.49-3.01.28.36-1.38 4.44 1.4 8.63 3.21 4.85 7.74 4.01 12.61 5.87-.02 1.77-9.65.71-11.04 0s-1.44-2.69-2.29-3.26-2.41-.07-2.66-.29c-.29-.26.8-7.46-2.51-6.97s-9.1 5.38-13.33 6.69c-3.94 1.23-9.97 2.14-14.18 2.33l6.99 3.98h-10.99c.56 5.12-.77 11.61 0 16.51ZM465.9 794.16c1.2 1.55-1.3 6.88-3.88 7.34 9.92 7.71-2.7 7.45-4.01 10.02s5.78 1.32 4.61 5.53-11.8 6.21-8.6-.04H451c-1.27-4.54 6.37-4.39 3.78-8.82-.43-.73-6.41-2.47.51-5.42 1.5-.64 5.4.62 5.7-1.75-2.93-.42-2.96-3.86-6.59-4.04-3.85-.18-7.06 7.41-12.41 1.53s1.92-7.42 7.29-6.29c2.03.42 3.75 2.59 5.84 2.32 1.79-.23 2.22-3.39 4.53-3.36.36 0 6.03 2.7 6.25 2.97ZM437.99 616.01c-2.3 7.08 6.69 26.28 3.09 31.35-.99 1.39-17.13 3.5-20.08 3.65-1.49 2.57 3.87 1.53 1.52 4.02-.59.63-18.67 9.5-8.15 8.9 2.65-.15 6.88-2.83 8.63 1.06-3.24-.75-11.41 2.41-13.85.87-2.96-1.88.95-5.99 2.96-7.29 2.14-1.39 4.08.87 1.88-3.56 1.98-.05 3.58.8 3-2-2.9.4-11.07-.45-11.01 2.98h-.97c-.2-4.91-8.31 1.27-9.01-4.98 14.61.47 28.61-3.53 43.01-5.01-1.83-10.85-4.63-17.21-2.98-28.5.26-1.75-.52-1.68 1.97-1.5ZM420.07 890.9c.29.41 7.17 5.12 8.43 4.12 1.33-5.96 9.22-6.63 8.19 1.33-.31 2.44-3.75 3.96-3.76 4.25-.08 1.96 2.12 3.28 1.13 5.33l6.93 2.07c-.88-2.21 1.7-5.29 1.65-6.48-.23-4.72-11.28-4.88 1.35-8.01-5.74-2.93-2.73-3.5-3.02-6.96-.16-1.92-1.98-3.41-1.93-5.04 0-.29 1.9-5.15 2.11-5.34.85-.75 5.25.14 6.84-.16 1 2.83-3.19 11.12-2.87 12.4.36 1.44 3.6 1.97 3.85 3.17.43 2.02-4.71 6.62-4.62 7.92.21 3.04 3.85 3.4 4.48 5.17.72 2.01.13 6.91-.66 8.98-.56 1.47-2.22 1.48-2.23 1.91-.02 2.16 5.19 7.12 4.05 8.45-.78.91-4.03-2.66-4.36-3.08-6.37-8.02-12.29-16.06-19.74-23.3-1.81-1.76-10.02-6.89-10.68-8.3-.89-1.9-.69-3.91-1.3-5.53-.13-.34-4.53-3.26-.93-4.76-.16 2.43 3.09 5 5.01 2.99 2.02-2.13-4.2-2-4.86-4.69-.35-1.44 2.09-8.84 3.44-9.17.69-.17 5.51 1.19 6 1.8 1.8 2.28-2.46 4.96-2.59 7.65s2.54 4.01 2.64 5.9c.11 2.04-3.25 6.43-2.55 7.42ZM512.01 781c.3.23 3.51-1.87 7.07 1.43 6.05 5.6-1.15 6.8-2.85 10.3-1.36 2.8-.7 6.53-1.71 8.28-1.5 2.58-8.82 3.89-10.36-.69-1-2.98 1.9-2.09 1.89-2.84-.04-2.55-4.2-2.67.37-4.58 2.09-.87 7.21-.14 6.56-2.38-.45-1.59-2.52-3.82-3.31-5.56-.3-.67.51-1.88.33-1.97-.65-.32-2.31 1.2-3.97.53-4.4-1.78-7.29-11.15-.41-11.5 7.95-.41 5.32 8.13 6.39 8.96ZM549.01 849c.3.23 3.51-1.87 7.07 1.43 6.05 5.6-1.15 6.8-2.85 10.3-1.36 2.8-.7 6.53-1.71 8.28-1.5 2.58-8.82 3.89-10.36-.69-1-2.98 1.9-2.09 1.89-2.84-.04-2.55-4.2-2.67.37-4.58 2.09-.87 7.21-.14 6.56-2.38-.45-1.59-2.52-3.82-3.31-5.56-.3-.67.51-1.88.33-1.97-.65-.32-2.31 1.2-3.97.53-4.4-1.78-7.29-11.15-.41-11.5 7.95-.41 5.32 8.13 6.39 8.96ZM399.8 383.72c.07-2.99 1.83-1.52 2.2.77-4.93 4.88-12.71 2.5-18.51 2.42-24.67-.33-49.99-3.04-75.07-3.91-3.39-.12-9.72 1.79-12.79.76-1.71-.58-2.24-3.08-1.62-3.75.27-.3 3.32.96 4.49 1 12.9.47 25.41.4 38.02.95 21.1.91 42.18 3.74 63.28 1.77ZM513.99 617.99l-12.99-9.5c-.31-.73 1.96-.6 2.54-1.45.46-.68-2.37-11.34-2.73-11.84-.29-.4-8.04-2.77-9.42-3.09-7.01-1.64-18.18-2.02-24.87.82s-5.81 5.03-8.74 10.39c-.74 1.35-2.26 1.31-2.96 3.07-1.53 3.82-.72 14.15-.82 18.6-2.63.71-2.39-2.1-2.65-3.78-1.84-12.18 3.55-26.06 14.97-31.41 7.16-3.36 18.21-2.41 25.91-.53 8.1 1.98 12.1 3.67 13.86 12.2.49 2.35-.13 6.56.35 7.51 1.21 2.35 8.67 4.3 7.56 9.01ZM281 197.01c.31.33-.94 3.22-.95 4.51-.44 38.69.48 78.61-2.04 117-.13 2 .79 2.89-2 2.47.43-4.07.89-9.39.84-13.41-.41-32.45-.31-64.09.4-96.11.03-1.29.54-17.98 3.76-14.46ZM238.68 573.32c.53.33-.21 2.57 2.31 1.68l1.99-3.99c1.15 3.64 4.56 5.78 6.19 9.32 1.08 2.34 3.66 8.07-.18 8.19l-3.98-4.52c3.02 8.66-2.87 4.68-5.71.2-2.19-3.45-1.63-8.15-7.84-8.26-11.48-.2-.26 11.08 2.58 15.32.3.46 4.46 2.54.97 3.74l-7.11-7.39c-6.63-3.26-3.36-2.76-4.11-5.82-.4-1.63-2.21-2.3-1.84-5.21.75-5.89 12.79-5.74 16.73-3.25ZM207.94 760.06c.14.11 1.1 3.18 1.07 3.42-.31 2.8-3.51-.63-5.27-.36-1.34.21-4.26 2.22-4.61 3.58-1.39 5.44 11.08 10.32 10.89 15.3 3.36-1.29.67-5.67 4.65-5.68.76 0 9.61 2.68 10.07 2.96 5.25 3.27 1.48 11.68-4.92 13.03-7.32 1.55-6.56-7.62-8.31-8.3-2.62-1.02-.65 4.89-3.48 4.99 2.63-7.85-.22-6.15-3.49-8.97-2.47-2.12-3.46-4.83-7.05-5.12s-2.42 2.13-4.37 3.67c-1.32 1.04-7.03 3.3-7.07 4.93-.07 2.67 7.59.27 7.97 2.49-3.06.51-9.77 2.46-10.64-1.98-.81-4.1 1.92-3.42 3.25-4.36 2.25-1.6 3.91-2.96 6.13-4.68.95-.74 3.06-.73 3.8-1.94 2.25-3.67-2.59-8.23 6.12-11.96.63-.27 5.08-1.18 5.29-1ZM214 779c-2.03 22.82 22.49 4.39 3.26.23-1.09-.24-2.15-.34-3.26-.23M253 516.01c-2.71 9.38 5.6 3.43 11 4-1.64 2.43-7.03 2.46-8.55 5.01-2.09 3.49 3.82 4.86 6.17 4.88s9.06-3.04 8.4 1.1l-10 2.02 3 3.98c-2.38.7-4.43-2.58-6.45-1.99-1.34.39-1.39 4.65-3.47 2.88-.14-.12.01-3.48-2.06-1.87-.18.14-.11 2.25-2.23 3.26s-4.54.75-6.79.72c0-4.48 4.89-8.48 4-12.32-.18-.79-1.94-.29-2.1-2.13-.57-6.49 3.17-9.01 9.1-9.54Zm-5.99 3.99c-1.8 5.48.23 7.05 4.5 9.98 4.23-2.05-3.07-11.34-4.5-9.98M461.86 651.12c3.19 5.2-4.83 4.56-6.84 5.39s-10.09 13.25-9.02 14.47c5.74.37 11.89.57 17.42-1.02 6.1 9.79 15.83 10.73 26.58 10.04.78.57-2.63 2.52-3.72 2.76-5 1.12-15.76-1.55-19.72-4.85-.5-.42-.31-2.01-.86-2.62-4.28-4.73-24.27 0-30.7-1.31-.7-4.01 4.89-1.17 6.49-2.93 1.7-1.87 3.91-9.2 5.47-11.6 1.27-1.94 3.9-2.94 5.44-4.56s2.77-5.98 4.9-5.78c.25.02 4.42 1.79 4.55 2ZM224.01 455c-2.1-10.9.79-22.48 1.06-33.49.31-12.54-1.8-24.95-.59-37.53.3-3.08 2.89-4.71-.49-5.46 2.36-5.54 1.73-15.22 1.41-21.64-.28-5.6-2.57-11.29-.9-16.88.66 0 2.29 9.09 2.48 10.53 2 15.17-.83 28.32-1.04 42.95-.27 18.62 2.73 40.01-.26 58.68-.2 1.25.24 2.51-1.67 2.85ZM331.23 554.7c1.19.75 2.82.04 4.04.5 3.53 1.34 6.75 10.72 6.75 14.32 0 2.8-2.17.5-3.07 2.12-2.34 4.22-.6 11.29-6.46 14.35l1.95-11.05c-.49-2.07 3.92-9.56 3.55-9.94-1.63-1.68-2.15 1.36-2.58 1.88-1.9 2.35-5.62 9.01-8.07 9.96-1.88.73-2.81.31-2.35-1.84 2.17.55 7.72-7.29 6.99-8.01l-9.99 5.99c-.92-4.21 6.05-6.17 7.1-7.68.63-.91.24-4.05-.12-4.32-.3-.23-2.64 1.85-3.01.49.33-4.02 2.06-5.67 4.52-8.48.89-.18.18 1.36.72 1.7ZM508 594.99c-2.35 2.33-4.8-8.63-4.74-9.7.34-6.35 1.85-13.7 1.82-20.79-.09-21.07-4.87-41.95-3.91-62.94.09-1.92-.12-5.16 1.34-6.56zM295.02 720.99c2.71 2.29 1.49-3.02 1.58-4.11.23-2.81.17-8.6 3.06-9.72s3.95-.08 3.33 2.84l-3.99-1c-.12 7.34-2.18 13.99 1 20.99-1.09.52-6.52 1.09-6.8 1.3-.44.33-6.74 7.77-7.07 8.35-.58 1.02-1.72 3.43-1.1 4.32 2.74 3.93 17.13-5.19 20.5-6.84 3.16 8.88 9.03 6.9 8-1.63-.92-7.57-10.53-1.82-11.53-6-.61-2.57 5.04-1.46 4.01-4.48 1.5-.38.48 1.16 1.75 1.93 1.38.84 3.62.97 4.93 2.37 3.63 3.85 4.22 13.61-.75 16.15-1.16.59-2.43-.48-3.44.48-1.52 1.46-2.52 6.36-4.49 8.58-2.76 3.11-6.97 4.45-10.98 4.49-1.5-1.55 1.2-13.89 4.98-10.49L295 756c7.08.35 10.85-6.42 9.99-12.99-3.99-1.11-3.97 5.2-6.5 4.98-.89-.08-1.06-2.87-2.16-3.04-.26-.04-4.96.12-5.18.27-.68.47-.31 2.79-2.62 2.84-.98.02-5.6-3.15-6.09-4.05-2.08-3.78 7.92-12.35 11.04-14.09 1.33-.74 2.45.19 2.51.09 2.24-4.01-15.22-24.54-12.99-26.99 1.81-.36 2.49.89 3.43 2.06 2.45 3.02 7.22 14.78 8.58 15.93ZM613.87 810.91c-1.3.74-3.6-1.21-3.87-.9 1.87 3-.31 14.37-4.5 12.99-2.66-4.21-4.29-4.78-2.51-10-2.71 1.56-5.15 1.06-7.91-.1.52-2.06-1.01-9.4 2.26-8.77.66.12 1.47 1.48 2.4 1.68 3.18.7 7.22-3.15 4.24 5.68 3.46 2.8 4.11-8.02 4.46-8.48 1.62-2.13 7.78-2.29 8.25.44.15.87-2.36 7.2-2.82 7.46M246.9 798.89c.58-.93-.14-3.55.1-4.89 4.1-.19 6.03 1.75 9.27 3.24 1.4.64 4.1.5 4.57.96.39.39-.04 1.91.37 2.5.95 1.34 6.04 1.6 5.78 7.29-5.91-1.2-8.03-8.46-13.53-9.97-1.91-.52-1.83 1.02-1.31 2.32 1.59 3.95 13.68 9.44 13.82 11.16.17 2.05-2.41.84-3.3.33-2.74-1.59-7.14-4.85-9.9-6.83-5.7-4.07-3.56-1.88-9.89-3.43-4.59-1.12-6.41-9.4-4.75-13.43 3.66-.53 4.27-3.77 7.82-4.65 2-.5 7.67-.9 5.06 2.04-2.08 2.33-10.1 4.68-10.92 7.14-1.27 3.81 5.18 8.83 6.8 6.23ZM641 944.01l-2.04 56.53c.52 2.67 3.62 18.63 3.04 19.43-.15.21-4.59 1.34-5 1.02.6-3.54-.13-7.16-.36-10.7-.41-6.26-.88-13.9-.53-20.68.12-2.37 1.82-6.51 1.8-8.21 0-.59-2.12-.16-1.92-.89 3.01-10.91.88-22.15 1.41-32.87.14-2.93.37-4.34 3.6-3.64ZM670.01 844l4.98.49c-6.82 2.32-2.77 3.58-3.32 7.08-.46 2.9-6.25 1.55-8.49 2.02-4.44.94-9.84 4.18-14.91 5.18-3.49.69-7.62.07-11.26 1.22-.02-1.45 3.06-1.94 4.21-2.28 7.61-2.21 10.75-.14 10.79-10.71 3.37-.67 3.53 5.46 5.59 5.93.28.06 5.23-1.74 5.4-1.97.45-.64-1.32-2.62-.84-3.78.14-.34 4.91-4.41 5.85-4.2-5.47-5.02-1.27-5.83 2.5-9.96 4.71 3.75-.39 6.62-.49 10.98ZM460.99 936c1.22 1.21 1.15 16.57 1.51 20.02.57 5.49 1.19 10.85 1.79 16.22s5.7 22.58.2 24.75c-2.04.81-1.43-1.34-1.5-2.48-.37-6.01.32-12.75-.21-19.01-.05-.58-1.63-.45-1.7-1.13-.27-2.57.48-14.83-.07-15.37-.31-.31-3.89.23-5.01 0 .34-5.29 2.3-10.35 2.89-15.61.05-.45-1.33-10.8 2.1-7.39M332.75 524.31c1.67.82 5.4 8.28 7.76 9.69 1.96-5.57 3.2 1.15 3.75 4.28.14.77.98 2.79-.75 2.7-1.02-.05-5.61-6.99-7.99-6.99-.47 0-4.18 6.33-5.56 7.46-2.18 1.78-11.53 3.54-10.45.6.32-.87 2.01-1.69 1.49-3.51-1-3.55-11.72.61-12.99 3.47-.33-1.59 4.77-8.71 0-5.99-1.36-2.61 7.2-10.86 9.99-6.02-1.37-.91-6.74 1.34-4.99 3 .1.09 1.57-.25 2.6.37.42.26.4 1.45 1.12 1.62 1.02.24 6.34-.86 7.29.02.48.44-1.97 4.67.52 5.01.43.06 6.83-4.12 7.33-4.6 5.45-5.16-3.17-5.58-1.85-11.41.97-.03 1.81-.16 2.74.3ZM613.99 764l.02 7c5.4-5.25 3.76-1.68 8.96.57-.24 6.79-6.73 6.62-8.48.44-1.62-.43-2.68 2.5-4.18 2.89-1.97.52-4.98-2.02-5.05-4.17-.24-7.99 6.74-4.74 7.75-5.73.52-.5-1.19-6.05 1.41-8.09 5.53-4.34 14.16.15 9.58 5.57-3.56 4.21-5.78.11-9.99 1.53ZM755.01 683c5.99.95 2.92 8.88 3.98 13-4.39-5.25-6 6.24-11.41 4.93-3.55-.86-.25-9.42-1.07-11.92-3.83 4.22-6.3 6.98-11.32 9.73-1.65.9-4.01-1.09-3.19 3.27-1.15.28-2.6-.54-2.99-1.52-.62-1.56 8.31-6.34 9.63-7.84 1.51-3.37 5.43-5.87 7.41-8.36 1.23-1.56 1-6.89 3.94-.78l-.49 14.47c3.93-3.96 4.53-9.75 5.51-14.98M814.99 823.01c.31 1.57-.6 2.49-1.39 3.64-3.04 4.43-25.25 13.93-31.34 16.13-12.34 4.46-25.19 7.11-38.26 6.22l7.7-2.73c16.9-2.17 36.1-6.63 51-15.06 1.52-.86 11.56-8.99 12.29-8.2M374.01 800.01c.25.21-.93.85-.4 1.93.05.1 1.07.19 1.31.81 3.49 9.2-.64 6.04-2.91 13.7 4.18 2.38 6 .9 5.83 7.1-.1 3.52-2.84 3.46-2.9 4.06-.29 3 4 6.24-1.43 10.37-9.16-3.04.12-10.4-1.51-11.98-3.21-3.12-4.65 9.29-9 7.48 1.4-4.38 5.41-6.85 6.71-11.27 1.83-6.24-.13-11.45 1.63-18.41.24-.96.58-5.6 2.68-3.79ZM449 405c-.18 2.09.02 3.76.78 5.73.62 1.6 10.31 15.05 11.71 16.28 5.08 4.5 16.57 1.06 24.12 5.4 6.38 3.66 7.81 9.01 11.42 14.08 3.13 4.4 9.05 8.77 8.96 14.52-2.31-3.09-6.49-6.52-8.62-9.36-.88-1.16-1-3.09-2.04-4.42-3.4-4.37-9.35-12.74-14.61-14.41-4.22-1.34-11.25-.09-15.03-1.18-.64-.19-7.12-3.6-7.4-3.92-.61-.7-9.83-14.65-10.18-15.52-.57-1.44-2.64-8.4.89-7.19ZM283.45 626.56c1.71 2.27 1.52 3.28 2.48 4.75.81 1.23 3.45 1.21 3.05 3.16-.09.45-6.13 5.9-6.82 6.25-2.31 1.17-4.63.38-6.38 1.28-1.01.52-3.54 6.1-5.78 4-.81-.75 2.3-4.3 2.05-6.38-.04-.34-4.51-2.57-3.05-5.61 8.13 4.23 8.03-.17 12.98-4.5-1.09-1.78-9.05-8.42-6.98-10.5 2.18-2.19 7.41 6.17 8.45 7.55M491.07 664.08c-2.23 3.07 7.33 10.01 7.91 12.44.85 3.56-4.43.33-5.83-1.17-2.4-2.57-3.44-8.05-4.38-9.11-.81-.91-13.49-2.53-10.76-5.24.47-.47 10.12.73 13.27-.05.25-.06 3.98-2.84 4.16-3.03 2.7-2.79 4.67-9.29 7.05-12.93l2-9.98c1.36.9 1.43 1.96 1.57 3.44.63 6.92-5.24 18.95-10.55 23.55-1.38 1.19-4.3 1.87-4.44 2.07ZM699.18 683.81c3.22 1.9 14.5-6.05 17.81-7.81.43 2.02-1.86 2.59-1.95 4.46-.18 3.84 5.85 12.37 1.45 16.53-.14-3.15-2.29-6.08-2.95-8.89-.46-1.99 2.15-4.85-2.24-4.84-3.71 0-7.32 3.76-11.88 3.81-1.41.02-1.9-2.62-4.13-2.32-1.14-5.1-5.79-8.6-6.87-13.72-.62-2.97.26-5.33.03-7.57-.31-3.05-3.53-8.35.04-11.47.98 7.65 1.7 17.64 5.47 24.52.5.91 4.82 7.06 5.21 7.29ZM520.87 676.14c.51.82-1.72 14.16.59 17.92.96 1.57 3.07-.2 4.51.41 1.88.8 6.97 6.43 9.02 8.03-3.06 2.09-8.47-6.41-10.99-4.49 1.17 2.93 1.3 21.91-.02 22.99-.28.23-2.15-.13-2.97 0-.25-6.1.28-12.5-.21-18.55-.43-5.37-3.46-12.97-3.34-17.97.06-2.68 3.37-6.22-.46-9.47.44-.35 3.68.83 3.87 1.13M480 786c-1.06-.08-3.34.36-3.88-.11-1.94-1.7-2.64-15.31 4.87-9.89-.83-3.66-.46-7.36.51-11 .79 4 5.11 2.64 5.5 3 .24.22.24 5.81.07 6.42-.08.29-4.61 2.93-5.06 1.57 1.5 3.83-1.68 7.64-2.01 10.01 1.65.13 3.35-.1 5 0-2.06 4.1.58 2.32 2.25 5.25 1.56 2.74.63 8.71-2.96 9.61-2.22.55-3.72-1.8-5.62-1.66-3.88.29-6.84 7.01-11.12-2.26-1.42-3.07.69-5.94 3.51-5.5 1.75.27 7.95 5.65 8.94 4.54.32-3.17-.43-6.94 0-9.99ZM421.05 773.06c-.66.91 1.94 3.68 2.29 5.12.39 1.59-.49 3.11-.26 4.24.62 3.16 2.91 5.8 1.91 9.58-9.34.37-5.74-4.35-7.19-9.3-.79-2.68-7.59-8.8 1.2-9.71-7.46-17.7 7.61-9.39 4.89-1.6-.53 1.53-2.66 1.42-2.85 1.68Z"/><path d="M228 755c-.98-4.25-5.64-6.05-7.74-9.76-8.69-15.3 5.61-9.45 12.29-2.29 4.62 4.96 1.86 7.85-1.54 1.53-5.15 1.09.97 5.69.99 6.12.21 5.49-3.73 4.17-4 4.4-.33.29.96 3.97-1.49 2.99-1.2-.48-4.02-4.21-6.62-5.41s-6.06-1.2-8.89-1.58c-.17.14 1.9 3.15 2.35 3.63 2.44 2.56 7.13 3.25 10.63 5.91 1.13.86.48 3.13 2.48 2.43 1.76-.58 3.96-6.58 5.53-4.97.45.46-6.43 9.93-7.31 10.67-2.6 2.21-10.32 6.55-11.69 1.33 2.25-.12 9.45-5.55 9-7.49-.4-1.74-5.87-2.86-7.33-3.74-1.25-.75-1.37-2.04-1.9-2.45-.36-.27-1.6.6-2.24-.28-.81-1.11-2-4.9-1.11-6.12 6.69-3.37 13.11 1.69 18.58 5.05Zm-1.01-7.01c.68-.71-5.01-10.58-6.98-10.99-.82 2.1 5.03 13.04 6.98 10.99M629.99 989c-3.26-2.5-6.53-1.36-10.36-2.06-9.1-1.66-18.6-3.61-28.06-6.13-6.27-1.67-14.69-4.49-22.2-5.5-1.94-.26-6.1 2.59-5.38-1.31 10.92-2.24 21.74 3.55 31.77 5.64 10.71 2.23 21.7 3.86 32.52 5.55l1.7 3.8ZM631.99 797c1 4.78 1.86 6.24-1.15 10.38-.72.99-2.3 1.46-2.53 1.83-.28.45.1 5.31-1.22 7.15-.24.34-6.71 3.88-7.55 3.64-1.71-.49-2.88-7.09-2.05-8.95 1.88-4.19 5.76-1.93 7.07-2.94s.98-11.12 7.44-11.1ZM439.89 846.92c-.54.38-4.54-1.37-5.18-1.87-3.09-2.38 1-6.47 1.01-9.75 0-3.59-4.53-5.27-.62-10.73 1.15-1.6 5.96-1.91 6.91-1.14 3.51 2.85-2.09 8.93-1.93 12.1.1 2.12 3.01 3.7 2.92 5.99-.01.34-2.85 5.22-3.1 5.4ZM571.7 818.7c-.83 1.11-3.58 1.49-4.41 2.59-2.72 3.61 1.1 11.73-9.3 9.71-2.69-9.74 2.64-7.34 5.07-10.68 1.64-2.25 1.2-9.89 3.04-11.24 2.88-2.11 10.2 3.43 5.59 9.62ZM488.14 842.13c-.36.4-.16 5.37-.43 7.11-.22 1.44-.18 4.06-2.23 3.78-5.9-.79-5.89-17.34 1.51-13.03-1.78-19.6 16.78-8.7 4.53 1.06-1.01.81-3.1.76-3.38 1.07ZM511 620.99c-.73.66-12.59-6.02-16.54-5.88-.91.03-15.88 4.26-16.43 4.93-.27.33.09 2.13-.02 2.95 4.23-1.84 4.35-1.58 3.99 3-2.02.4-2.64-1.85-4.52-2.01-1.67-.14-3.61 1.29-4.84 1.1-.91-.13-.88-2.09-1.61-2.57-2.52-1.66-9.86-.2-13.02.47 3.57-6.71 10.25-2.25 15.98-3.44 5.91-1.22 15.51-6.92 21.51-7.14 1.7-.06 18.05 6.3 15.5 8.58ZM283.99 573c-2.01-1.21-2.07-4.18-3.23-6.28-1.4-2.54-2.77-5.03-4.26-7.72-2.59-4.68-9.76-13.6-12.5-5.01 4.86.31 6.51 5.24 8 9.01l-8.99-6.99c-.14 2.32-.05 4.59.65 6.84.17.53 6.34 10.45 1.36 7.14-.21-.14-2.11-3.86-2.47-4.52-.24-.43-1.25-.5-1.34-.71-.4-.95.85-1.93.56-2.58-.11-.27-1.83.24-1.86-1.6-.04-2.61 2.93-10.75 5.1-12.1 4.42-2.76 11.88 5.69 13.97 9.04 2.32 3.71 6.33 11.47 5.01 15.48M270 498.01c.77 1.08-5.19 4.89-3.99 6.98 5.43 3.26 11.21-6.17 13.38-6.02 1.56.11 5.45 1.59 6.18 3.02 1.18 2.31-1.41 4.33.94 6 .91-1.55 5.4-6.78 7-7.05 2.86-.48 9.65.76 8.49 5.05-6.47-4.66-13.02-3.05-15.12 4.93-4.58-1.04-9.78 3.04-13.6-1.28-.55-.62.19-2.42-.84-2.71-1.95-.56-5.47.19-7.42 1.06v-11.01c.28-.28 4.84.81 4.99 1.02Zm10.81 10.78c1.22-.71 5.3-6.92-.31-6.88-7.24.05-6.23 10.69.31 6.88M707.59 759.61c-3.6 8.4-9.44 17.37-13.39 25.08-1.38 2.69-3.23 6.6-6.19 7.31-.57-.64 4.76-11.28 5.62-12.91 6.28-11.79 9.81-19.95 15.01-32.09.58-1.35 2.93-2.54 2.37-4.99 1.71-.27 1.1 2.44.92 3.44-.83 4.58-2.51 9.87-4.35 14.17ZM362.2 651.77c.37.22 1.73-.87 1.79-.78.21.28-.34 2.01.19 2.76.62.87 2.67.53 3.56 1.52.72.8 3.69 6.73 3.18 8.11-2.18 3.17-5.82 1.73-8.92 1.63l1.99 8.99c-6.28-1.6-5.29 5.65-12.26 2.01-3.02-1.57-.32-9.21 2.77-2.02l1.49-4 6 2c-8.16-15.71 4.17-7.24 6-9-.48-5.72-6.47-10.07-10.98-13.02.19-5.78 4.77 1.53 5.19 1.79ZM571.96 764.03c.3 2.48 2.31 1.34 2.02 4.3-.6 6-3.88 5.33-4.9 6.8-.42.6.85 2.33.8 3.39-.22 4.16-4.43 6.35-8.28 6.43-2.36-.62-.98-8.53.41-9.46 1.16-.78 3.72-.25 4.57-1.42 1.16-1.59-.74-9.5 5.39-10.04ZM608.96 832.03c.3 2.48 2.31 1.34 2.02 4.3-.6 6-3.88 5.33-4.9 6.8-.42.6.85 2.33.8 3.39-.22 4.16-4.43 6.35-8.28 6.43-2.36-.62-.98-8.53.41-9.46 1.16-.78 3.72-.25 4.57-1.42 1.16-1.59-.74-9.5 5.39-10.04ZM421 672.99c-5.19 1.03-10.98 2.03-16.04 3.47-7.39 2.09-14.84 5.35-22.63 6.47-2.94.42-5.71-2.47-6.33 3.67-.07.7 1.96 8.53-.99 5.4-1.01-1.07.21-11.37 1.07-11.94s4.14.7 5.98.5c7.95-.89 20.07-6.69 28.71-8.3 2.3-.43 9.33-1.99 10.24.73ZM395.99 823c2.59 3.77-2.36 9.69-1.91 11.44.39 1.52 3.57.22 2.98 5.04s-2.73 9.41-7.06 4.03.2-6.05.72-9.15c.76-4.51-4.58-10.64 5.27-11.36M698 913.01l-6.98 59.33-3.02.66c2.6-2.73.91-4.78 1.24-7.28.69-5.29 1.57-10.89 2.39-16.4.25-1.67-2.09-3.57 1.35-3.33-2.77-2.71-.69-2.91-.52-5.02.61-7.53 1.47-18.58 3.4-25.64.47-1.71-.73-2.79 2.13-2.31ZM316.33 692.67c.56.87 2.39.97 3.47 3.03 5.15 9.81-6.83 12.12-9.73 5.52-.93-2.11-3.48-16.59-2.89-18.47.38-1.23 1.49-1.88 2.32-2.73.72.01 5.67 10.85 6.83 12.65m-3.77 6.75c.66 1.06.97 3.23 1.96 3.56 7.42 2.48-1.78-13.93-4.51-14.99.12 2.95.18 7.51 1.08 10.22.27.8 1.24.85 1.47 1.21M662 675.01l-8.44 8.6c-3.24 1.38-7.36 4.9-10.62 5.82-2.76.78-15.67 1.56-18.15.53-1.05-.44-1.09-1.79-1.95-2.3-4.8-2.85-9.13-5.15-8.34-11.66 7.33 12 14.05 14.44 27.74 10.73 8.29-2.25 9.72-6.42 15.7-11.03 1.47-1.13 2.37-.76 4.06-.7ZM602.99 824c3.48 8.58-3.61 8.12-4.79 10.2-.7 1.23.11 4.26-.94 6.57-2.89 6.39-9.56-.56-7.83-3.79 1.3-2.42 7.25-2.55 7.56-2.99.43-.61-3.92-11.83 5.99-9.99ZM443.99 703l-3.99-1.5c2.64 2.47 13.85 27.35 11.99 28.49-5.52-.31-3-4.72-3.6-7.03-.37-1.42-8.1-16.57-9.47-19.13-.26-.49-8.94-11.01-3.45-8.83 1.31.52 9.92 6.26 8.51 7.99ZM378.99 896c.53 2.84-.72 1.62-2.18 2.27-3.73 1.66-7.94 2.44-11.81 3.74l7.47.94c2.09.22 5.18-2.7 4.53 1.04-3.79-.22-25.06 6.09-26 1.49-.45-2.22 1.57-1.78 2.5-2.09 8.41-2.83 16.87-5.31 25.48-7.39ZM705.99 974c-2.51 2.45-2.05-4.33-1.97-5.48.8-10.92 4.02-29.18 6.18-39.73.47-2.28 2.01-8.23 3.79-9.78-2.18 6.61-6.02 53.05-8 55ZM389.99 608c.17.16 1.31 3.91 1.45 4.55 1.1 4.96-.76 13.57-3.59 17.79-2.44 3.63-5.86 4.15-8.24 6.75-1.75 1.91-1.96 4.42-3.34 5.94-1.66 1.84-8.45 5.45-11.26 5.96 5.41-6.17 13.34-7.78 12.01-17.99 1.77.72 1.59 3.15 4.4 3.05.43-.01 5.07-5.77 5.56-6.59 3.27-5.43 2.99-13.44 1.02-19.46.62.05 1.84-.15 1.99 0M677.99 930.01l-3.29 43.21c-.86 2.11-.28 6.8-2.69 7.78-.32-1.51-.95-2.6-.81-4.26 1.1-13.11 3.16-26.16 4.72-39.41.28-2.4-1.98-7.84 2.08-7.32ZM715.22 702.28c-1 1.16 1.35 3.7-4.22 2.71 3.4-6.3 10.02-8.76 14.34-14.26L735.99 669c.64 1.88.81 2.78.37 4.75-.87 3.92-9.61 21.07-12.43 23.67-1.5 1.38-8.24 4.31-8.71 4.85ZM554 972.01c-1.62 5.49.94 11.88 1.01 17.52.03 2.22-.86 3.92-1.01 5.98-.09 1.29 1.06 2.94.85 3.91-.27 1.26-4.13 4.62-4.37-.43s.04-10.36-.03-15.48-3.69-12.99 3.56-11.49ZM406.76 820.25c3.31 3.5-2.32 8.56-2.43 10.25-.21 3.02 5.46 3.51 4.57 6.84-.78 2.94-5.51 2.9-7.86 3.67-2.68-4.28 1.91-9.21 2.01-11.48.03-.57-1.57-.45-1.98-1.28-2.71-5.53 3.07-10.76 5.69-8M684.98 702c.7.65 6.7 17.28 6.02 17.99-10.87-.49-18.15 7.17-27 11-.46-1.97 1.05-2.36 2.09-3.4 4.62-4.61 11.57-7.35 17.25-8.59 1-.22-.17-3.09 3.65-1.01-1-2.91-.71-6.13-1.43-9.06-.15-.62-4.65-10.76-.58-6.93M312 644.99l-4.28.23c-1.53-.14-5.58 5.99-6.72 4.78-1.6-1.72 8.64-6.27 5.02-9.5l2.98-.5c-.21-3.2-6.39-.34-7.91.6-4.64 2.88-5.89 8.39-8.49 12.54-.83 1.32-.12 2.39-2.6 1.86.94-1.51.94-5.92 1.33-6.77.14-.31 3.42-4.39 4.14-5.26 3.77-4.55 7.96-4.63 6.54-12.97 2.1.09.3 3.47 1.43 5.06.98 1.39 5.92.87 7.13 2.92s-1.32 4.86 1.44 7ZM332.89 649.08c2.42 1.75 2.91 9.27-1.43 10.89-6.07 2.27-11.09-2.86-12.41-8.54-.36-1.56-.18-1.58 1.28-1.28 7.81 1.62 1.52 3.02 1.67 3.34l3.99 2.5c-1.4-3.59 4.04-8.98 6.9-6.92ZM318 664.01c.32 3.48-8.02 9.71-4.03 12.56.88.62 6.14-.3 6.81-.77 1.06-.75 2.48-16.79 5.23-5.79 1.22-1.81 5.79-2.07 6.99-.99.12.11-1.02 2.82-1.13 2.93-.3.27-1.91-.78-2.87-.36-2.73 1.17-8.3 6.8-9.7 7.22-5.05 1.51-8.28.68-8.73-4.66-.37-4.42 1.73-3.56 3.23-5.8s-.19-5.34 4.2-4.33ZM666 988.99c-.3-.33.94-3.05.92-4.37-.12-13 .99-28.38 2.34-42.41.14-1.43-.39-2.73 1.72-3.21 1.01 11.57-1.15 23.04-2.02 34.56-.08 1.01 1.1 19.93-2.97 15.43ZM326.42 850.5c-.87.76-2.72 2.3-4.2 1.34-.75-.49-9.21-15.15-4.23-15.84-.58 2.63 4.69 13.98 6.51 13.98 8.05-5.59.55-17.98-7.02-19.99-.42-.11-2.19 6.5-3.47-2.99 5.92 3.38 12.97 3.55 15.43 11.05 1.75 5.34 1.02 8.89-3.02 12.45M264 676.99c-.22.28-5.54 1.36-6.56 3.01-1.33 2.16 1.48 4.36-.95 6-1.16-6.82-5.93-1.68-7.47 2.51l5.97 2.48c-7.19 2.17-11.32 0-6.75-7.29.82-1.31 2.68-1.7 2.83-2.38.33-1.57-1.21-4.13-1.08-4.31.67-.91 4.97.14 6.22-.2 1.71-.47 3.24-2.87 5.32-2.82 1.61.04 3.24 2 2.46 3ZM476 871.99c-2-2.78 4.66-6.73 4.86-7.13.28-.57-3.04-5.63.04-8.19 6.08-5.07 5.86 9.49 3.98 12.73-1.48 2.55-7.47 4.56-8.89 2.6ZM217.82 637.87c-.08.2-3.52.32-1.34 3.12 7.78-3.55 16.13-12.02 10.01 2.99-3.68-6.91-9.57 2.32-14.08-.9-1.42-1.01-.5-2.78-.63-2.91-.74-.78-3.63-.96-3.8-1.18-.14-.19.87-3.86 1.03-3.97.1-.07 1.53.85 2.42.77 1.75-.16 8.02-1.89 6.37 2.08ZM378.69 540.69c-.21.31-5 4.97-5.31 5.19-1.36.98-4.6 1.9-6.38 2.11 2.99-4 8.15-5.28 10.24-10.25 4.39-10.43-7.34-3.55-8.54.9l-6.7 6.35c2.05-6.6 7.83-15.32 15.51-15.07 5.66.18 3.29 7.72 1.17 10.78ZM694 976c-.27-.3 2.34-6.49 2.57-7.68 1.85-9.52 2.52-20.88 5.12-30.12.5-1.78 2.89-3.97 2.09-5.04-.19-.25-1.82-.02-1.82-.67 0-1.28 1.57-2.33 1.96-4.07.82-3.69.73-7.75 1.57-11.42 2.12 1.33.9 2.3.85 3.75-.26 8.4-5.62 46.54-8.32 53.69-.28.74-.71 2.53-1.53 2.53-.13 0-2.41-.88-2.5-.99ZM338.99 732c-4.93-3.42-2.27-11.44-7.5-15-.85 3.38-3.21 1.52-5.96 2.06-2.06.41-3.89 2.74-6.53.44 1.11-1.8 3.68-1.07 4.98-2.02 1.44-1.05 1.05-4.64 3.72-5.36 1.06-.29 7.5.83 8.31 1.35 2.37 1.55-.71 2.79-.57 4.58.27 3.58 3.58 9.77 3.55 13.94ZM722.7 626.31c6.53 5.64 10.87 23.93 11.21 32.32.07 1.63-.62 2.86-.92 4.37l-2.55-7.93c-1.47-7.63-3.2-23.2-9.77-27.8-1.45-1.02-3.46 1.17-2.66-3.26 1.39.88 3.54 1.32 4.69 2.31ZM268.99 603.01c.56 3.84-1.53.17-3.53 1.87-5.28 4.46-.91 9.46-.47 15.12-3.66 1.02-.74-5.46-4.4-4.92-1.2.17-4.33 4.21-6.6 3.94l2 2.97c-5.59 3.63-18.57 6.2-7.44-1.97 3.05-2.24 9.36-3.81 11.02-5.94 3.16-4.06.59-12.4 9.41-11.08ZM593 770c1.82 4.92-3.79 6.82-4.48 9.87-1.11 4.89 2.84 7.45-6.51 8.13-2.17-8.62 3.11-6.82 3.98-8.03.5-.69-1.23-3.49-.5-5.89 1.02-3.33 4.12-4.81 7.51-4.08M630 838c1.82 4.92-3.79 6.82-4.48 9.87-1.11 4.89 2.84 7.45-6.51 8.13-2.17-8.62 3.11-6.82 3.98-8.03.5-.69-1.23-3.49-.5-5.89 1.02-3.33 4.12-4.81 7.51-4.08M305.9 685.15c.93 1.63-2.73 11.22-7.24 9.9-.5-.15-1.65-2.4-1.64-2.55.05-.86 7.98-2.21 3.53-6.53-3.52-3.42-10.91.81-13.53 4.03-.23-2.62.43-5.25 2.49-7 .72 4.38 6.83-2.89 10.8-1.86.33.09 5.43 3.71 5.6 4.01ZM455.99 626.01c0 4.72-4.88 7.79-3.99 12.99 3.53.76.87-1.86 1-1.97 2.01-1.62 5.67-1.03 6.99 1.48-1.93 1.12-4.77-.27-5.06 3.01-.44 4.96 5.25 2.5 5.06 6.48-1.31-.76-3.57.11-4.32-.1-.65-.19-.65-1.24-1.09-1.5-.88-.51-2.05-.31-2.37-.55-.13-.1.32-1.46-.15-2.36-1.41-2.72-3.8-6.62-2.75-9.85.45-1.4 1.99-1.99 2.49-3.37 1.18-3.26-1.94-5.05 4.19-4.27ZM481.98 557c1.12.93 1 25.51 1.01 29.01H480L479 557c.82.14 2.72-.21 2.98 0M745 450.99c2.94-10.28-1.73-23.3-1.45-33.48.03-1.28.51-6.39 1.95-6.49l3.29 38.36zM221.93 611.11c.16.14-.09 1.62.45 2.46 1.67 2.58 8.77 8.48 3.61 9.95-1.19-2.71-2.85-5.11-4.53-7.51-.75-1.07.3-2.63-2.45-2-1.92 5.87 6.23 7.75 3.99 13.99-3.91-.13-3.63-6.49-7.99-4-.43-2.01 1.85-2.56 1.92-4.43.08-2.05-1.84-3.73-.45-6.57.79-1.6 4.39-2.84 5.45-1.89"/><path d="M312 821.01c-.02 5.12-11.77 15.45-4 17.99-1.8-4.48 9.27-7.5 8.99-4.5-.06.63-2.06 1.03-2.64 1.83-1.25 1.75-1.79 4.91-5.1 5.53-1.83.34-2.48-1.09-3.78-1.37-.77-.17-2.2.81-2.45.5-.5-.6.95-3.2.75-4.37-.17-1.05-2.1-2.03-1.75-2.61.04-.07 1.29.19 1.62-.33 1.34-2.11 2.21-6.03 3.74-8.33L312 821ZM339 638.99c.97-1.49 11.36-10.78 9.99-11.98-5.09-.5-6.24 3.8-11.45 4.05-7.31.34 3.23-5.93 5.41-6.59s3.83-.85 6.02.06c7.86 3.26-5.11 14.07-9.97 14.47ZM324.35 814.64c2.84 2.42 7.38 6.34 10.34 8.29 1.31.86 3.03.13 3.17.26.36.33 3.87 7.06 4.84 8.57 1.11 1.73 3.39 1.32 2.31 5.23-6.53-1.35-6.67-7.56-10.6-11.89-2.78-3.06-11.98-8.34-13.38-11.62-.53-1.23.24-1.88 1.48-1.48.85.44 1.1 1.99 1.86 2.63ZM300 514.01c-1.7 3.74-8.04 2.66-5 6.98l-10-.99 1 8h-3c2.17-7.57-2.41-3.44-6.99-5 2.1-6.16 11.4-5.11 16.27-6.22 2.59-.59 4.89-2.83 7.73-2.76ZM345.99 697c-5.41-7.25-18.48 11-20.98 9l4.59-5.9c6.42-4.41 2.53-3.08.88-5.08-2.27-2.74 5.91-1.26 6.56-1.44 1.74-.46 4.13-3.55 4.46-3.55.6 0 5.68 5.11 4.49 6.97M212 379.99l-34.98 1.51c.97-1.4 2.46-1.62 3.96-2 4.91-1.23 22.3-2.12 27.56-1.54 1.49.17 3.08.21 3.46 2.02ZM489.18 785.81c-4.42-2.52-1.66-11.37 3.31-12.8 5.34 3.54 2.87 16.31-3.31 12.8M316.99 781.02c.25.35-.12 2.15 0 2.98l-3.98-1c-1.34 4.34-.67 7.66 0 12l3-4.99V796c.79 1.75 9.96-7.13 7.98-2.51s-8.97 4.92-12.98 6.51c2.33-4.33-.93-4.13-.92-4.42.03-.64 1.05-1.81.93-3.05-.23-2.41-1.38-4.15-.86-6.79s4.99-7.32 6.83-4.72M568.82 653.33c.29.03.87.54 4.63.6 9.92.16 19.75 0 29.55 1.56-3.59 3.14-9.18.72-13.57.66s-9.48.6-13.89.32c-1.86-.12-3.41-1.41-4.08-1.48-.44-.04-.44 2.03-.97 2.06-1.2.05-6.15-2.56-7.48-3.56 1.48-.3 4.34-.32 5.81-.16M294.99 893c-4.82-.06-3.33-4.61-4.3-7.19-.37-.97-6.97-13.87-.78-9.74.83.55.14 4.98 2.07 4.93l-.98-11.99c1.72.65 2.67 4.99 2.91 6.57.82 5.41.21 11.88 1.07 17.42ZM526.18 853.81c-4.42-2.52-1.66-11.37 3.31-12.8 5.34 3.54 2.87 16.31-3.31 12.8M448.77 809.77c-3.54 2.56-11.43.35-10.68-4.14.91-5.43 12.59-3.02 12.78-.15.02.24-1.91 4.15-2.1 4.29M379.76 516.24c.88.85 1.13 2.63.83 3.83-3.76 5.51-9.83 11.44-16.58 11.92l6.63-5.36c1.04-2.7 8.92-8.07 5.35-10.65-.41-.3-3.81 2.89-2.99-.99 1.92-.03 5.33-.14 6.75 1.24ZM600.99 756c2.48 6.88 4.13 11.82-4.98 13-2.72-6.53-1.95-10.47 4.98-13M637.99 824c2.48 6.88 4.13 11.82-4.98 13-2.72-6.53-1.95-10.47 4.98-13M782.99 882.01c.28 5.21-1.54 10.41-1.98 15.51-.1 1.2.86 21.04-3.01 16.48 1.18-4.83-.35-11.76.21-16.27.46-3.71 3.33-9.86 2.97-14.31-.16-1.99-.26-1.43 1.82-1.41ZM509.99 624c.9 1.02 1.09 6.57 1.31 8.22.11.88 1.36 1.68 1.43 3.06.12 2.38-1.73 11.82-2.62 14.33-.38 1.08-.54 2.84-2.1 1.38-1.88-1.76 2.27-12.21 1.62-16.34-.35-2.26-2.83-5.41-2.62-5.64.17-.18 1.47.17 1.79-.15.21-.21-2.05-8.52 1.19-4.87ZM260.38 647.66c.1.29 1.43.36 1.59 1.05.5 2.14-.24 5 .03 7.29-3.31.79-1.57-2.93-2.23-5.26s-1.87-5.71-3.28-7.73c-4.05-.76 3.27 11.09-.99 8-1.28-5.17-5.79-11.52 0-14.99 1.63 0 4.27 9.79 4.88 11.64M443.66 781.1c2.89-.97 8.71 4.72 8.34 6.37-.93 4.07-12.51 2.23-11.86-1.78.11-.7 2.72-4.32 3.52-4.59M284 824.01c-5.49 6.26 1.17 5.92 2.5 10.05 1.15 3.57-.44 5.91-4.26 4.25s-2.44-6.45-5.23-8.81l6.99-5.48ZM336.54 762.71c-3.51 6.08-8.68-2.7-8.04-6.71 2.12 2.82 5.38 1.99 8.5 1.99-.77-4.13-3-8.93-1.99-12.98l3.02 8.47c.2 2.48-.28 7.13-1.5 9.24ZM369.01 608.99c-.56-2.89.84-1.59 2.19-2.25 5.78-2.8 11.31-5.54 14.78-11.25L383 592c1.9-.56 4.95 1.55 5.56 3 1.52 3.64-14.87 16.01-19.56 13.99ZM650 641.99c-2.94-2.93 4.64-4.21 5.03-4.48.67-.46 1.23-5.37.98-5.5-.33-.17-7.83.6-5.01-2 .26-.24 4.97-1.08 5.98-.57 9.11 4.62-3.75 15.77-6.98 12.55M614.8 823.22c3.13 1.78 3.75 10.48-.3 12.76-4.51-2.18-6.46-16.62.3-12.76M272 678.01c1.22 2.81-3.15 7.73-2.99 8.48.55 2.66 8.77-.79 11-.47 2.1 1.63-9.59 3.82-10.55 3.82-.7 0-3.17-6.8-7.44-2.83l6.08-7.41 3.91-1.58ZM684 955.01c.09 3.41-1.28 7.82-1.43 10.85-.24 4.66 1.93 15.6-3.56 17.14 1.28-7.53 1.05-15.93 2.12-23.39.23-1.63.29-5.45 2.87-4.6M388.01 823c-.9-4.53-.74-7.41 3.74-9.75 9.88-5.17 3.45 10.86-3.74 9.75M577.8 755.22c3.13 1.78 3.75 10.48-.3 12.76-4.51-2.18-6.46-16.62.3-12.76M710.85 625.92c-5.31.61-11.1.22-15.84 3.08 2.3-7.2 13.48-3.9 16.5-11 4.78.72-.44 5.11-.66 7.92M569 641.01c7.33.24 14.43 1.87 21.68 2.9 2.67.38 5.99-1.6 8.3 1.59l-7.93.96c-6.16-1.45-12.35-1.86-18.54-3.38-1.42-.35-3.15-.18-3.51-2.07M561.72 793.7c-.51.61-5.03 3.78-5.71 3.3-.82-2.94-3.1-4.06-1.06-7.29.16-.25 4.29-3.63 4.58-3.69 2.46-.6 3.88 5.66 2.19 7.68M623.99 789c1.36 2.8-1.56 13.66-5.48 11.99-4.51-1.92.8-12.77 5.48-11.99M293 530.99c-7.29-1.39-4.82.45-6.46 4.01s-3.57 4.94-7.53 5c-2.03-2.29 9.33-17.29 13.99-9ZM384.75 818.73c-3.61 3.77-5.8-2.78-3.16-7.65 4.22-7.79 9.03 1.53 3.16 7.65M651.08 618.91c-.21-.09-2.77-3.38-2.88-3.59-1.01-1.82-3.39-5.79-3.98-7.01-1.35-2.8-1.99-9.03-2.21-12.31l7.79 16.69c.22 1.45 4.17 4.33 4.18 4.8.01.52-1.76 1.91-2.9 1.41ZM247 771.01c-3.2 3.59-12.03 3.38-12.99 8.98 1.7 1.62 15.64-9.68 18.99-7.5-1.62 2.58-4.74 2.82-6.15 3.6-.99.56-1.06 1.52-1.65 1.8-2.76 1.29-14.07 6.48-15.19 1.59-.61-2.66 13.49-10.73 17-8.48ZM393.9 848.1c.55.36 2.37 5.78 1.97 7.19-.33 1.15-3.82 3.73-4.38 3.69s-3.8-6.12-3.44-7.36c.32-1.08 4.5-4.4 5.85-3.52M549 661.01c-.93 7.13 3.15 14.34 4.12 21.39.1.72 1.41 3.69-.62 3.58-2.41-.13-5.9-20.37-5.52-23.48.18-1.49.42-2.59 2.02-1.49M384.75 826.24c4.73 4.87-1.87 8.74-6.74 8.76-1.11-3.54 2.78-12.84 6.74-8.76M694 631.01c-1.52 1.26-3.04 6.84-1.95 7.94.41.41 4.71-.51 4.95 2.04l-4.74.77-7.25 6.24-.57-3.03c6.16-1.53 2.51-2.1 2.53-5.39 0-.66 1.75-.48 2.33-1.8 1.33-3.01.14-7.92 4.7-6.77M615.72 840.18c5.06-1.32 3.89 8.8.78 10.8l-5.44-7.49c.01-.37 3.89-3.1 4.66-3.3ZM578.72 772.18c5.06-1.32 3.89 8.8.78 10.8l-5.44-7.49c.01-.37 3.89-3.1 4.66-3.3ZM589.01 758c-.82.92.37 12.49-6.05 8.54-1.37-.84-.47-10.54 3.56-10.15 1.12.11 2.28 3.14 3.28-.08.64-2.06-.6-5.06 2.7-5.36 3.67-.34 3.95 1.98 2.73 4.79-2.35 5.4-5.97 1.98-6.23 2.27ZM283 876.01c.62.65-6.86 13.83-4.99 16.99 1.04-.75 3.08-.69 3.73-1.27.29-.26 1.79-6.36 2.24-2.26-1.21 4.13-3.5 5.99-7.96 5.51-2.36-2.1 2.81-14.44 4.36-17.13.41-.71 1.14-3.39 2.62-1.84M220 369.99c-2.65 1.44-6.44-.4-8.35-.04-1.21.23 1.48 1.04-4.28 1.19-2.38.06-12.24 1.98-12.37-1.63 6.21.57 16.04-2.03 21.62-1.42 1.51.16 2.95-.07 3.39 1.9ZM626.01 826c-.82.92.37 12.49-6.05 8.54-1.37-.84-.47-10.54 3.56-10.15 1.12.11 2.28 3.14 3.28-.08.64-2.06-.6-5.06 2.7-5.36 3.67-.34 3.95 1.98 2.73 4.79-2.35 5.4-5.97 1.98-6.23 2.27ZM464.99 631.01c-1.94 9.23 4.05 14.71 6 22.99-6.26-5.9-9.34-12.75-7.96-21.5.27-1.72-.56-1.69 1.97-1.5ZM457 979.5c.05-3.33-1.62-10.83 3.01-7.99-1.23 7.11-.58 14.55-1.33 21.69-.11 1.1-.21 4.9-1.69 4.8.07-6.15-.09-12.34 0-18.5ZM236.01 695c5.33-4.88 6.17-3.65 9.97 1.5 0 .79-7.08 3.37-7.49 3.34-1.14-.08-5.77-7.71-2.5-8.83zM741.79 659.8c1.95-3.35-2.79-8.67-1.78-9.8 1.32-1.46 3.89 3.22 4.24 4.28 3.26 9.88-8.58 12.67-8.23 9.21.12-1.17 5.39-3.05 5.77-3.7ZM632.99 849c1.37 3.15 3.08 7.49-.99 9.5-8.4 4.15-2.49-12.15.99-9.5M363.99 514.01c1.11 3.52-2.92 7.71 1.02 8.48-1.56.82-4.77 7.21-5.15 7.45-.42.27-4.14-1.72-5.85 1.07-.42-3.99 4.62-4.9 6.84-8.64.7-1.17 1.45-2.99 1.73-4.31.47-2.23-2.12-4.67 1.42-4.04ZM456.72 718.74c-.06.15-2.07 2.32-2.21 2.25-4.12-1.72-1.67-5.83-1.69-8.5-.02-2.46-2.29-5.31.69-7.49 1.15 2.94 4.22 11.13 3.22 13.74ZM284 409.01c-1.55 9.22.33 19.65-1.76 28.79-.42 1.82.4 2.62-2.23 2.2 2.45-8.35 1.06-16.89 1.37-25.33.05-1.43-.03-6.7 2.63-5.66ZM192.5 369c.81.23 2.07 2.47 1.49 3s-3.33-.88-4.49-.81c-4.57.27-12.34 2.39-15.51-2.19 4.89.89 14.28-1.21 18.5 0ZM272 846.99c-4-.77-10.12-2.52-10.99 3l6.99.02c-1.24 3.68-7.13 3.28-8.82.76-.13-.2-.34-4.55-.17-4.72.29-.28 2.75-.14 3.77-.74 1.22-.71 1.24-2.3 1.86-2.37 2.14-.24 6.6 1.72 7.37 4.04ZM266.99 773.01c.94 1.17-2.15 5.42-2.61 6.88l-4.87 5.11c-4.94-3.34-.19-8.6-.51-8.98s-2.39.82-1.99-1l2.98-1.01.5 6.99c2.66.83 4.32-10.7 6.5-7.99M598.66 771.13c6.17-1.61 2.63 10.66-1.14 9.86-2.26-.48-2.58-8.89 1.14-9.86M635.66 839.13c6.17-1.61 2.63 10.66-1.14 9.86-2.26-.48-2.58-8.89 1.14-9.86M414.71 782.29c1.81 2.81 1.83 7.88-3.07 6.76-.57-.13-3.68-5.48-3.5-6.4.66-3.36 5.15-2.55 6.56-.36ZM258.97 575.04c.8 1.08-.55 4.44-2.45 3.95-.47-.12-1.89-2.15-3.24-2.77-2.42-1.11-7.7-.77-5.18-5.11 1.57-2.71 6.22 1.76 7.56 2.76.95.72 3.2 1.02 3.31 1.17M264 596.01l-11.02 5.66c-2.83 4.37 4.47 2.42 4.02 6.33-15.36-3.06-1.72-12.61 7-11.98ZM634.99 597.01c-1.77 5.45-11.16 9.69-16.17 11.32-1.58.51-3.15.83-4.82.67l20.99-11.98ZM277 576.99c-2.17-.1-7.41-2.15-6.99 2 4.16-.88 7.69.75 8.99 5l-8.91-3.54-3.08-2.96c3.26-2.33 7.03-5.09 10-.5ZM234.99 644l-2.99-1c-2.4 2.09 6.14 12.65 4.99 14-1.45 1.7-2.2-1.25-2.59-1.87-1.27-1.98-7.84-13.2-3.81-14.19 1.91-.47 4.78.38 4.39 3.06ZM375.91 591.93c-.34.23-2.31-1.31-2.91-.92 1.15 1.21.26 2.68-1.02 3.27-9.48 4.31 1.86-11.76 7-6.77-1.57.47-2.85 4.28-3.07 4.43ZM304.08 586.9c.35.28 3.06-1.5 3.9-.89.98.7 2.36 6.25-1.98 2.99v3.03c-3.58-3.29-1.62 5.02-4.49 3.97-3.14-1.14 2-8.77 1.5-10.98 1.75-.4.63 1.53 1.07 1.89ZM474 658.01c-1.68 1.68-8.4 16.02-11 9.48-.27-.67 1.23-.21 1.92-1.27.56-.86.37-2.36 1.49-3.32 2.83-2.41 4.18 1.81 2.6-5.9zM657 736.99c-.56.56-13 3.76-12-.48.79-3.37 15.38-2.88 12 .48M356.9 489.04c.59.39 1.25 4.78 1.09 5.96-2.34-1.36-.54-5.54-5-3.5l-6.98 10.5c-.45-5.29 3.77-9.19 5-13.99 1.55 1.64 5.62.87 5.88 1.04Z"/><path d="M379.25 807.75c-2.59-2.74 1.08-8.27 3.24-7.74 4.94 2.75.17 11.35-3.24 7.74M576.8 790.82c-.23.4-3.69 2.44-4.83 1.75-2.4-1.45-.96-5.31-.97-7.58 3.34-1.11 7.67 2.61 5.8 5.82ZM331.99 552c-3.45-2.14-.98-7.42 1.73-8.99 1.66-.96 7.67-3.2 5.28.49-1.99 3.09-7.1 3.92-7.02 8.5ZM380.01 566c.1-.16 1.22.74 2.46.05 4.92-2.75 5.13-9.37 6.53-14.55.37-1.37-.05-3.11 1.99-3.5-.16 4.37-3.68 21.31-9.5 20.97-.61-.04-2.01-2.1-1.48-2.97M486 652.99c1.16 1.01 6.64-1.97 7.99-2.99-.57 7.78-12.09 7.65-10.98-1 5.52-.98 2.74 3.77 3 3.99ZM298.99 587.01l-7.97 4.52c-1.68.02-7.16 2.2-8.02-.03 4.73-3.01 10.47-3.69 15.99-4.49M373 564.01c-.49 1.87-3.66 1.89-5.25 3.02-.59.42-3.74 3.34-4.28 3.92-2.12 2.27-3.11 6.79-6.46 7.05-1.41-1.41 11.35-16.61 15.99-13.98ZM357.55 640.58c-2.07 2.67-8.15 6.98-11.55 7.41 2.26-.96 2.9-4.32 3.25-4.68 1.54-1.54 9.54-3.74 9.76-8.3 2.8.65-.74 4.64-1.46 5.57M327 615.01c.37.27-2.32 3.53-2 3.97.21.28 6.45 2.41 3.99 5.02-.67.71-5.02-3.16-7-2 1.58-2.55.66-4.36 0-6.98h5ZM214.95 678.07c2.9 4.48-9.51 4.63-7.95 1.96.12-.2 4.4-.56 2.02-2.54l-6.01-1.47c1.86-.67 11.33 1.1 11.95 2.06ZM702 650.01c.93 2.82-3.71 6.54-3.95 7.56-.51 2.13 6.51 4.05 2.48 4.41-3.19-1.02-4.73-2.06-5.29-5.53zM783.99 881c-.88.91-1.91.69-1.8-1.29.18-3.12 2-11.05 2.89-14.13.33-1.13.4-3.71 1.91-3.57-.59 2.66-2.22 18.19-3 19ZM635 629.99c-2.43 1.12-5.39-2.9-5.71-2.97-3.15-.67-6.86 2.45-8.28-1.01 5.63-2.96 10.75-1.6 14 3.98ZM564 633.01c-2.45 4.11 1.66 13.18-3.99 13.99 1.77-3.85-1.62-13.02 3.99-13.99M633.99 594c1.89 1.57-1.42 2.14-1.97 2.48-3.2 1.95-6.65 3.45-10.08 4.97-1.19.53-.86 2.79-2.94.04-.25-.81 14.17-8.17 14.99-7.49M281 194.99h-2.99l1.01-19.99 1.73 10.77c-.53 3.4-1.04 5.86.26 9.22ZM609.99 777.01c2.37 2.35-5.03 11.96-5.08 3.5-.02-3.41 3.85-4.72 5.08-3.5M646.99 845.01c2.37 2.35-5.03 11.96-5.08 3.5-.02-3.41 3.85-4.72 5.08-3.5M680 916.01c-1.89 4.07-.7 8.68-1 13-.82-.14-2.71.22-2.99-.01-.42-.34 1.42-9.63 1.71-10.75.46-1.81-.31-2.68 2.29-2.23ZM279.99 364.99l2.01 17c-3.08.49-1.6-.78-1.96-2.49-.85-4.01-1.47-8.76-1.46-12.84 0-1.36-1.88-1.9 1.42-1.67ZM346.99 585c2.44 2.78-2.31 2.66-2.53 2.87-1.67 1.59-3.16 5.51-1.49 7.64-3.6 2.09-2.79-5.17-1.43-7.47.72-1.22 4.71-3.88 5.44-3.04ZM348.89 683.12c.63.54 3.48 11.93 2.1 13.88l-2.67-9.72-3.31-2.79c-.76-2.43 3.62-1.6 3.88-1.37M361.02 611.99c-.17-.13.65-2.12-1.49-2.09-2.6.03-3.22 2.17-5.52 2.1-2.4-4.48 4.99-5.54 7.35-3.92 3.39 2.33.11 4.24-.33 3.92ZM297.99 605.02c-.24 5.42-3.49-1.02-4.77-2.02-2.74-2.14-6.33-2.61-7.22-5.99 1.55-1.43 9.89 7.48 11.99 8.01M218.99 510c.36.58.68 3.59-1.47 2.98-1.26-.35-7.46-5.84-7.5-6.49-.29-4.27 5.92 3.19 6.48 3.58 1.24.88 2.43-.19 2.49-.08ZM492.99 640c-.2.19-2.19-.11-2.99 0 .11-1.38.99-2.57.59-4.03-.93-3.4-4.98-1.63-2.59-6.95l4.47 6.01c.57.96.83 4.67.51 4.99ZM748.99 945.01 734 951.99c-.56-2.89.84-1.6 2.19-2.25 4.05-1.96 8.2-4.39 12.8-4.73M283 397.99c-3.77.77-1.31-4.1-1.54-6.13-.29-2.55-2.81-6.16.05-8.85L283 398ZM458.99 969.99c-2.62 3.51-2.12-9.37-1.99-9.99 4.88-.1.87 6.59 1.99 9.99M687.99 688c.38 4.14-4.25 7.13-7.99 6.99.74-4.33 2.76-1.84 4.34-2.87 1.29-.84.48-4.72 3.65-4.11ZM304.72 557.28c.97.84 2.4 5.4 4.28 6.71-4.48-.41-5.91-5.02-8.99-7.49.51-1.14 4.32.44 4.71.79ZM418.91 421.11c.56.7-.34 3.3.15 3.82.16.17 3 .25 4.54 1 3.36 1.65 4.97 4.46.04 4.94-10.47 1.03-4.34-3.47-4.64-3.86-.06-.08-1.2 0-1.86-.67-5.44-5.49-5.7-1.41-12.59-2.41-.81-.12-6.35-2.53-4.54-3.94 3.11 1.75 17.84-.21 18.9 1.11Z"/></svg>