<svg xmlns="http://www.w3.org/2000/svg" viewBox="0 0 1080 1080"><g fill="#73a942"><path d="M474.66 575.15c-1.28-3.78-4.72-6.52-8.46-7.93s-7.79-1.69-11.77-1.95c-1.77-.12-3.67-.21-5.2.69-1.16.68-1.95 1.85-2.7 2.97-2.12 3.18-4.25 6.41-5.47 10.04-.93 2.76-1.29 5.68-1.63 8.57-1.91 16.1-3.4 32.26-4.47 48.44-.04.54-.06 1.13.27 1.56.41.54 1.18.6 1.84.77 2.4.64 3.75 3.19 5.92 4.41 1.66.94 3.66 1.01 5.57 1.06 2.89.08 5.78.15 8.67.23 1.3.03 2.62.07 3.9-.14 4.82-.79 8.5-4.94 10.31-9.47s2.13-9.49 2.78-14.33c1.03-7.69 2.92-15.25 3.62-22.97.71-7.72.14-15.81-3.47-22.68"/><path d="M490.89 583.04c-4.02.79-8.36 1.76-11.01 4.89-2.64 3.11-2.9 7.53-2.93 11.6-.11 17.31 1.8 34.63 5.69 51.5.46 1.98.97 4.02 2.21 5.63 1.92 2.5 5.22 3.5 8.36 3.82 5.5.55 11.02-.58 16.44-1.69 1.27-.26 2.56-.53 3.69-1.18 1.59-.91 2.7-2.48 3.46-4.15 2.07-4.54 1.79-9.75 1.35-14.72-1.3-14.64-3.71-29.16-6.11-43.67-.29-1.75-.6-3.56-1.6-5.02-.57-.83-1.33-1.51-2.12-2.14-5.19-4.13-12.1-6.39-18.6-5.04"/></g><path d="M730.15 171.8c3 1.88 3.58-2.75 4.35-2.78.21-.01 1.87 2.11 3.29 2.74 3.39 1.51 6.89-.28 10.48.45 10.35 2.12 24.92 16.12 33.38 22.63 9.16 7.04 17.4 13.58 28.42 18.59 1.33.6 10.16 1.94 7.92 4.57-2.11-1.17-4.64-.91-6.81-1.68-24.77-8.78-39.81-27.98-61.18-40.78-.99-.59-8.63-1.87-8.99-.03-.33 1.71 13.5 13.56 15.64 15.84 8.83 9.42 15.92 20.59 27.18 27.53 1.79 1.1 8.4 2.92 9.04 4.74.33.96.51 9.36-1.86 6.38.39-4.7-2.02-8.22-7.01-8 .68 1.83 2.78 1.88 3.85 3.71 1.27 2.17 0 6.44.63 7.28 1.7 2.27 2.63-2.79 4.49.48-2.96 10.57.84 24.17-1.45 34.5-.56 2.54-.95 2.18-3.52 2 .36-1.3 1.72-1.59 1.76-3.25.01-.56-.45-5.01-1.75-4.73-.27 1.71-.45 4.68-1.53 5.97-1.98 2.37-7.01.47-6.47 4.02l37.09-1.48c1.01-.53.66-15.19.99-17.94.75-6.31 2.78-16.34 4.15-22.84.29-1.36 1.18-5.35 2.75-5.73l.99 19.45c-3.13 6.49-3.99 13.23-4.89 20.12-.31 2.37-.17 4.94.03 7.31.48.56 12.59 1.94 14.54 2.05 12.05.65 24.58-.67 36.68 1.44 1.07.19 5.35 1.35 5.67 2.61-5.37 1.47-11.22-.67-16.5-.98-21.83-1.29-40.34-.93-62-.02-15.42.64-28.74-3.61-44.04-1.04-2.43.41-4.68-.37-7.24.78-1.56.7-1.83 2.46-2.53 2.94-5.15 3.48-10.35 7.33-16.69 8.34l1.01 1.98c-3.22 1.05-8.09-1.08-10.56-.9-7.59.55-9.87 3.17-19.91 1.82-2.1-.28-6.7-.62-7.83-.86-.59-.12-1.52-2.35-2.97-3.33-1.68-1.13-3.71-.9-5.27-1.7-13.11-6.73-46.41-22.87-60.68-16.93-.96.4-1.75 2.46-3.84 3.35-1.61.69-3.69.22-4.72.8-.77.43-9.14 11.8-10.9 13.6-4.44 4.53-3.99 3.48-9.12 5.84-1.27.58-1.07 2.24-1.89 2.34-5.52.68-4.51 1.33-8.81 2.45-5.32 1.4-8.25-.81-12.5-2.02-13.12-3.72-21.79-11.38-33.92-17.05-5.82-2.72-2.72-.26-5.38-.59-1.22-.15-3.43-2.31-6.35-2.47-7.69-.42-26.8 4.66-32.67 9.58-2.64 2.21-.93 3.62-7.47 6.77-7.64 3.68-10.46 2.59-17.57 3.25-.56.05-.18 1.49-2.13 2.1-3.93 1.23-15.87-2.66-19.59-4.46-11.48-5.56-30.17-12.83-44.46-11.63-1.32.11-14.01 2.66-14.67 3.01-1.87 1.01-4.8 3.27-7.17 4.18-8.86 3.41-28 11.67-36.12 11.45-1.13-.03-2.53-1.45-4.04-1.55-7.21-.47-11.37-.6-18.04-2.87-1.38-.47-6.62-1.95-7.16-2.43-1.97-1.76-1.36-10.4-1.72-10.81-.68-.78-5.88-1.82-7.19-1.88-22.12-1.05-45.37.62-67.83 1.94-5.29.31-11.14 2.45-16.5.98.32-1.26 4.6-2.43 5.67-2.61 11.8-2.05 24.05-.87 35.82-1.38 6.66-.29 14.13-1.96 20.95-2.04 9.52-.1 18.96 1.99 28.46.96-1-5.64 2.94-13.73 3.02-18.5 0-.46-1.91-.4-1.9-.84.05-1.84 2.68-14.11 3.21-17.82.33-2.27 2.41-5.7 2.3-6.85-.25-2.65-5.89-9.52-7.46-12.5-4.42-8.42-11.05-23.01-14.56-32.43-.54-1.45-1.89-4.6-1.03-5.97 7.02 11.26 11.31 24.01 17.13 35.87 1.98 4.03 6 8.61 7.56 12.43 3.13 7.64-1.51 22.4-2.08 31.31-.09 1.37.73 2.7.67 3.87-.23 4.97-3.23 9.84 1.22 13.5-4.17-1.04-3.6 2.65-2.45 5.96 1.34 3.85 5.59 4.63 9.21 5.78 6.77 2.15 14.03 2.55 21.23 3.27-.62-2.93.7-5.86.78-8.51.34-11.39-1.71-25.09-1.4-36.83.05-1.84.31-9.19.55-10.06.33-1.18 3.2-.21 3.9-2.2.38-1.08-.5-8.72-2.82-5.4-3.32-11.68-10.87-23.71-17.58-33.94-2.17-3.31-7.73-8.6-9.31-11.69-1.3-2.53-1.14-7.36-3.43-9.07s-19.01-.31-23.08-.52l-1.6-2.79 432.36.09c3.3-5.79 2.41-1.15 3.78-.29ZM434 175.01h-26l.03 2.45 29.53 53.47 1.07 18.73-.56 34.25c5.16.65 21.27 12.81 21.89 2.52.12-2.03-1.16-4.41-1.05-6.94.5-11.99.7-21.35.17-33.08-.02-.51 1.87-.33 1.85-.83-.03-1.11-1.22-2.78-1.03-5.1.15-1.88 2.73-4.87 2.1-5.48-.15-.15-1.46.27-2.09-.13-5.67-3.6-3.43-4.33-6.12-9.21-.78-1.41-2.8-1.56-2.83-2.26-.05-.86 1.49-2.5.92-3.25-.26-.34-1.85-.39-2.31-1.2-3.61-6.44-8.62-16.26-11.87-22.98-3.18-6.56-7.51-13.82-3.71-20.98Zm42.81.19c-3.95-1.85-8 .61-11.3.62-2.36 0-7.34-1.34-9.01-1.33-.79 0-3.68 1.5-5.5 1.01 1.63 2.82 5.01 3.18 7.05 4.95 7.89 6.83 19.11 33.32 25.1 43.9 1.25 2.22 6.11 7.55 6.64 9.36 1.87 6.42-.05 29.63-.27 37.81-.05 1.73 1.13 3.48 1.02 4.99-.35 4.73-4.76 2.84-6.34 3.7-.41.22-2.55 4.76-4.2 5.3 4.55 1.72 8.63-3.86 11.8-5.41 4.98-2.44 11.31-5.06 16.51-7.31 1.79-.78 5.29.96 5.69-3.31-.52-9.3-2.43-18.78-3.05-28.02-.15-2.31 1.41-4.42.87-6.69-.34-1.43-5.8-11.73-7.01-14.08-2.85-5.53-6.62-11.65-10.32-16.68-1.31.64-.08 2.73.3 3.7 3.51 8.86 12.79 20.97 15.19 28.82.16.52.28 1.63-.48 1.47-9.9-10.27-12.69-25.4-20.82-36.21-2.13-9.41-7.88-17.78-11.88-26.58Zm30.99-.86c-.19-.05-4.77-.76-3.78 1.14L537 232.51c.05 3.73-3.39-.32-4.49-1.51-1.62 1.35 2.81 6.47 4.01 6.99L540 234l1.68 14.06-.5 26.27c2.07 2.43 23.8 14.67 24.82 13.67 1.99-7.63.38-15.61.39-23.34 0-6.42 2.6-14.19-.12-20.42-1.03-2.36-3.19-2.52-3.93-3.58-9.63-13.93-16.44-29.1-24.11-43.37-1.69-3.14-10.97-21.17-12.45-22.06-4.03-2.43-13.65 1.03-17.2.78-.58-.04-.57-1.63-.77-1.68Zm65.96 1.35c-1.89 1.13-17.93-2.81-21.75-.19l3.5 4.5.99-3.99c1.86.98 1.95 3.41 2.93 4.6 1.98 2.41 4.48 1.77 2.58 5.39.25.39 1.54-1.04 1.84-.87.45.27 5.07 7.54 5.83 8.79 8.54 13.94 14.48 32.3 26.83 43.03l-.55 42.52 2.53 2.53c6.72-6.09 12.33-13.18 20.49-17.49-1.64-1.4-2.2-3.13-2.6-5.18-.99-5.03 1.38-16.41.55-21.69-.07-.44-3.85-3.04-4.54-4.01-11.12-15.41-25.53-36.91-31.89-54.67-1.1-3.09-.22-5.27-5.93-4.98-.6.03-.52 1.53-.81 1.7Zm38.07.07c-.43.36-4.09-1.63-5.32-1.22L598 176l3.77.25c3.45 3.93 7.33 6.54 10.65 10.84 9.21 11.95 17.38 28.21 25.75 41.25 1.53 2.38 5.38 4.86 4.88 8.08-.1.63-1.97.51-2.1 1.25-.41 2.32.77 11.42.78 14.82 0 4.16-.36 8.36-.74 12.52 4.35-2.52 28.05 11.23 28.99 10 2.3-2.99-4.4-4.62-5.07-5.66-1.66-2.56-.37-17.5-.47-21.88-.07-3.05.21-3.54.33-6.15.02-.36-1.35-6.68-1.49-7.01-1.17-2.78-3.82-3.31-5.32-5.08-1.69-2-.94-4-1.12-4.11-3.53-2.14-5.39-5.65-8.51-9.96-2.15-2.96-3.31-5.17-4.89-8.06-5.73-10.49-12.8-20.27-17.93-31.1-2-1.78-7.23-.95-10.04-.97-1.27 0-2.52-.93-3.05-.94s-.35 1.48-.59 1.68Zm-231.84.27c-8.77-1.41-17.61-1.02-26.49-1.03-2.16 1.97.87 1.87 1.49 2.72 6.8 9.27 10.61 20.29 16.98 29.82.63 2-2.15 1.3-1.98 1.94.43 1.66 6.61 11.84 8 13.77.6.83 1.73 1.05 2.37 1.85 1.87 2.34.91 5.83 5.63 3.91l.13 49.86c1.7 2.72 17.71-4.71 21.86-1.86l-1.42-40.07c-7.76-15.36-16.64-29.57-22.81-45.2-.47-1.2-1.89-2.01-2.29-3.19-.95-2.74-.58-9.02-1.48-12.51ZM695 286h14.5c7.99 0 5.33-11.49 5.49-17.5s-1.01-4.63-1.04-5.06c-.24-4.42 1.97-12.34 1.93-16.83-.07-7.88-3.2-12.17-8.4-17.6-1.59 3.14 3.76 5.01 3.5 7.99-.88.94-6.76-6.28-7.61-7.43-10.82-14.75-18.25-29.62-27.22-45.23-6.75-11.77-9.58-9.12-21.5-8.71-2.53.09-14.23-2.28-9.15 4.35 2.06 2.69 1.5-2.69 4.98-2.61 5.17.11 18.64 24.7 22.08 29.55 2.8 3.95 13.63 14.97 14.94 18.11 1.2 2.87-2.76 11.56 6.47 7.98l1 52.99Zm38.42-89.42c-4.68-5.4-10.18-9.71-14.45-15.08-.83-1.05-.05-3.15-1.94-3.99-4.36-1.94-10.89-1.12-15.5-.47-1.42.2-2.95-.95-2.51 1.44l21.99 32.02c2.06 2.62 14.82 15.12 15.02 16.21.28 1.53-2.5 7.97.94 6.79.77-.27 2.78-2.5 4.04-1.49.28.23-.54 4.71.26 7.22.72 2.26 2.22 3.2 2.76 5.26l-4-.48c2.16 4.22-.2 30 1.01 30.99 8.11-4.7 16.89-5.17 25.98-4-1.11-2.91-1.72-4.27-1.91-7.5-.4-6.96 1.68-16.69 1.82-24.07.01-.56-1.81-.2-1.8-.89 0-.57 1.22-1.83.85-2.42-.19-.31-3.8-1.26-4.66-2.41-.78-1.04-.7-3.1-1.84-4.66-7.93-10.9-17.6-22.7-26.05-32.46ZM495.99 180c-.94-.41-2.97.86-2.97 1.5 0 .71 6.18 10.84 7.97 11.5zM769 216.99c-.94-1.5-8.67-10.17-10-8.98 2.33 3.67 5.19 8.46 10 8.98m-114.32-.66-2.67.15c3.59 3.86 6.21 9.56 9.57 13.44.64.74 2.39 3.08 3.42 2.07 1.16-1.14-9.85-13.23-10.31-15.67Zm-133.31 6.31c-.24-.32-1.98-6.1-2.38-2.13 1.86 5.04 4.73 10.08 9 13.49-.88-4.52-4.09-8-6.62-11.36M687 244v25.5c0 1.66.02 4.4 1.51 5.5 1.8-6.61.68-13.64.34-20.42L687 244.01Zm-254.99 36c6.32-3.31 2.82-7.92 2.9-12.5.11-5.75 1.44-11.55.07-17.49-1.74-.23-.94 2.27-.99 3.48-.2 4.99.28 10.04-.06 15.02-.29 4.18-1.89 7.4-1.93 11.49Zm206.98-15c.11-.11.7-2.61.54-3-1.3-3.21-3.43-.4-4-.43-3.25-.21-4.4-1.72-8.52.45 1.39 2.73 6.62 1.09 9.12 1.56.97.18 2.54 1.75 2.87 1.43ZM573 284.01c.12-3.69.24-7.63-1.49-11-3.48 3.05.16 7.42-1.51 10.99h3Zm148.66-4.64c-.92-.51-4.07-1.82-4.65-1.36 1.89 5.82 3.01 5.42 8.99 4.98.26-1.7-1.81-.75-2.94-1.59-.71-.53-.95-1.78-1.4-2.04ZM726 524h16.99c.18 1.51-3.83 1.37-4.87 1.4-2.5.06-9.48-1.21-10.96-.25-.98.63-1.57 4 .34 4.85.84.37-.26-1.97 1.95-2.11 5.32-.35 6.89 3.75 4.55 8.11 17.25-1.33 35.04-.53 52.39.24 16.49.73 33.2 2.23 49.61 3.78.23 1.79-2.25.97-3.37.87-14.8-1.36-30.63-2.1-45.48-2.65-19.67-.73-39.53-1.71-59.15-.22l2.04 7.95L858 551.02c.23 1.75-2.27.94-3.48.99-19.22.79-38.08-1.14-57.14-1.85-20.88-.77-42.13-.58-62.9-2.12-3.25-.24-3.8-2.83-3.48 1.97 15.53 1.51 31.3 2.11 46.84 3.68 5.17.52 10.8 2.8 15.61 3.38 20.16 2.4 41.07.04 60.71 1.51 1.62.12 4.36.51 4.85 2.43-6.87-.72-13.86.78-20.61.88-25.99.36-51.15-3.81-76.94-5.91-3.79-.31-12.18-2.64-14.78-1.96-.77.2-.64 1.99-1.25 2.02-3.08.16-13.12-4.31-15.43-2.01l.99 2.51c-2.65 2.51-2.39-3.08-3.01-3.51-.89-.62-3.52 1.7-4.5.05l6.54-233.04 2.19 13.29 1.38 1.54 123.43 2.66c-.01 2.34-42.11-.11-46.68-.13-23.76-.08-48.03.73-70.79-.38-2.33-.11-5.24-.51-7.53-1-1.64 7.59.02 15.64-2.01 23l111.99 1.5-110.33.46c-3.38.79-.3 32.19-1.66 37.04l123 3.5-121.44-2.38c-2.05.39-3.21 10.32-1.35 11.68 1.13.83 14.76.88 17.12.83 33.07-.71 66.74-2.27 100.16.39 1.99.16 13.55 1.42 13.52 2.49-20.76.17-41.64-1.68-62.51-1.94-8.96-.11-18.35-.52-27.12-.44-13.68.12-27.61 2.45-41.39 1.33-2.53 1.52-1.15 15.38-.94 19.04.11 1.86-2.01 3.12.46 4.49 1-.2 2.11-.9 3.09-.86 22.46.9 45.17 1.27 67.4 3.38-22.99.31-46.01-.42-69.04-1.07-.76.31-1.78.26-2.01 1.24-.41 1.8-.96 18.32-.6 19.84.19.8.46 1.12 1.26 1.35 15.35.73 30.64 1.31 46.04 1.76 16.55.49 33.41-.32 49.83.37 5.97.25 13.09 1.14 19.11 1.83 1.25.14 3.64-.49 3.39 1.16l-118.36-2.86c-2.55.91-2.02 10.81-1.2 11.94.9 1.25 18.26 2.5 21.07 2.72 25.52 2.02 51.33.69 76.96.48 1.99-.02 4.73-.02 6.63.36 1.12.22 3.16-.19 2.9 1.36-35.71.84-71.66.76-107.35-2.81-2.97 1.08-.76 3.49-.85 5.32-.31 5.96-.43 12.29-1.74 18.02l1.43 1.27 106.51 3.71c-3.46 3.35-8.44.64-12.46.45-1.42-.07-3.05 1.15-3.98 1.1-.61-.04-.5-2.04-1.12-2.09-2.44-.18-9.73 1.86-12.95 2.03-22.55 1.21-46.71-1.6-68.94-1.94-1.42-.02-8.55-2.39-8.55 1.45v17.5Zm.01 14c.59 2.55-1.02 6.72-.55 8.92 1.02 4.8 4.3 3.14 3.5-2.35zM373 510.5c-1.17-4.12-6.37-1.48-8.55-1.45-22.23.33-46.39 3.15-68.94 1.94-3.21-.17-10.5-2.21-12.95-2.03-.62.05-.52 2.05-1.12 2.09-.93.06-2.56-1.17-3.98-1.1-4.02.19-9 2.89-12.46-.45l106.51-3.71 1.43-1.27c-1.31-5.73-1.43-12.06-1.74-18.02-.09-1.83 2.12-4.23-.85-5.32-10.2.76-20.63 2.12-30.88 2.55-25.63 1.06-50.95.73-76.47.26-.26-1.55 1.78-1.14 2.9-1.36 1.9-.38 4.64-.37 6.63-.36 25.63.21 51.44 1.54 76.96-.48 2.82-.22 20.17-1.47 21.07-2.72.81-1.13 1.35-11.02-1.2-11.94L251 469.99c-.25-1.65 2.14-1.02 3.39-1.16 6.01-.69 13.13-1.58 19.11-1.83 16.42-.69 33.28.12 49.83-.37 15.4-.46 30.69-1.03 46.04-1.76.8-.23 1.07-.55 1.26-1.35 1.08-4.58-1.25-14.66-.6-19.84l-2.01-1.24c-23.03.65-46.05 1.37-69.04 1.07.01-1.46 16.29-.79 18.33-.9 16.38-.9 32.68-1.83 49.07-2.48 1.78-.07 3.13 1.96 4.49-.58-2.02-6.54 1.42-16.21-1.87-22.09-13.8.06-27.63.26-41.39-1.33-24.82 1.4-50.14.64-75.15 1.85-4.69.23-9.7 2.29-14.47.54-.03-1.07 11.53-2.33 13.52-2.49 24.4-1.94 52.47-2.08 76.98-1.88 5.7.05 37.56 2.66 40.29.67 1.86-1.36.7-11.29-1.35-11.68l-121.44 2.38 123-3.5c-1.35-4.85 1.73-36.25-1.66-37.04L257 364.52l111.99-1.5c-2.03-7.36-.36-15.41-2.01-23-2.29.49-5.2.89-7.53 1-22.76 1.11-47.03.3-70.79.38-4.58.01-46.67 2.46-46.68.13l123.43-2.66 1.38-1.54 2.19-13.29 7.3 231.68c-1.86 4.32-2.59.03-5.71.27-1.64.13-3.65 2.16-5.09 3.04-.44-3.17-5.94-.47-9.42-.34-22.84.82-44.3 4.56-66.58 6.06-16.4 1.1-32.73.66-49.48.27.49-1.92 3.23-2.3 4.85-2.43 8.41-.63 18.86-.03 27.65-.37 28.76-1.13 60.98-3.91 89.85-7.35 2.23-.27 10.72-1.6 11.31-3.32.53-1.57-1.5-8.19-.67-10.51l-5.2.74c-34.96-1.65-69.87 2.1-104.8 2.76 7.7-3 16.21-1.59 24.13-2.13 6.84-.47 13.75-1.57 20.59-1.91 21.47-1.07 43.22-.97 64.64-1.4 2.78-13.59-2.47-9.46-11.47-9.67-1.04-.02-5.04.11-4.87-1.39H373c-.84-4.68 1.14-13.48 0-17.51ZM604 712c-.75-.05-11.78-4.78-13.86-5.64s-10.68-6.41-12.05-5.24c-.43.37.64 2.29-1.07 1.87.44-2.85-2.6-1.61-4.55-2.94-1.69-1.15-8.6-7.32-7.3-8.94.24-.3 1.62.06 1.81-.14.35-.36-3.46-3.49-1.48-4.96 5.51 2.95 4.25 10.5 9.55 12.44 3.24 1.18 6.71.22 9.3.88 1.19.3 1.94 1.85 2.64 2.04 2.17.59 5.07.2 7.5 1.65v-4.01l3.5 2.01c.06 1.59-3.99.82-.99 2.51 1.12.63 1.64-.56 2-.52 1.17 3.5 9.73 3.47 11 8-1.92-.79-13.42-6.51-13.99-6-1.8 1.62 1.3 2.12 1.99 2.45 2.06.98 6.51 1.36 6 4.55Z"/><path d="M599 703c-1.6-4.78 7.19.05 8.02.35.87.32 1.99-.47 2.71-.12 1.22.59 5.64 6.94 6.26 7.34 2.58 1.64 13.83-9 16.06-11.04 3.53-3.23 9.59-8.98 12.45-12.52 12.11-14.96-3.14-12.8-13.12-14.82-1.94-.39-3.42-1.98-4.95-2.22-1.87-.29-1.24 1.91-2.05 2.08-4.58.92-10.11-7.7-12.88-7.03-2.02.49-.34 3.22-.68 3.75-.48.76-4.29 2.36-4.66 4.92-.53 3.65 7.34 7.17 10.2 8.23 2.31-.75 1.61-2.98 2.68-4.32.26-.33 4.01-4.73 4.95-3.09l-5.99 10c.04 1.86 3.98-.6 2.96 1.98-1.16 2.96-6.6 6.18-8.98 8.52-1.41-3.68 8.42-7.6 6-9.99-.14-.14-2.53.07-3.91-.57-2.58-1.21-10.38-6.14-11.6-8.44-1.79-3.4 2.61-3.56 3.5-6.98-7.81-.89-.84-3.15-1-3.51-5.87-5.7-5.12 1.39-5.93 5.93-.18 1.04-4.41-.46-3.07 3.57-1.07 1.17-4.92-4.08-7.42-4.05-1.61.01-5.11 6.67-.07 9.05.09-1.93 3.91-3.87 3.49-.02-1.31 1.45-5.52 1.03-5.76 1.2-1.07.76-1.05 4.05-5.23 2.82l1 2.98c-.59.57-7.53-3.5-5.99-5.48 1.62-2.63 3.49-.37 5.99-.52l-3-3.98c8.47 2.45 2.81-.27 4.9-3.52 3.06-4.76 8.88-4.36 9.69-5.43 1.06-1.41-.68-3.31-.43-4.49.23-1.06 3.24-1.49 2.85-3.55 1.85-.19.72 3.62 2.51 4 .42.09 7.79-2.61 8.05-2.95 1.92-2.48-2.99-6.73-2.58-7.05 7.37 1.32 6.13-12.19 9.01-17 1.87-.21.82 2.1.7 3.2-.86 8.13-5.34 15.34-4.7 23.8l3.48-5c1.53.71 2.44 5.58 5.3 6.96 8.19 3.96 17.35 3.57 25.61 5.13 12.59 2.38 9.04 11.25 2.59 18.39-5.07 5.62-12.93 12.07-18.71 17.22-.43.38-3.06.92-1.28 2.28 1.43 1.09 31.32-3.38 35.84-2.14.5-1.01 1.66-4.18 1.11-4.8-1.97-2.24-15.95-2.63-17.96-7.04 4.15.82 8.37 1.88 12.45 3.04 2.1.6 4.06 3.37 6.07.98l13.36-30.74c.75-1.92-2.56-1.3-2.88-3.27 3.01.55 5.49-3.38 6.89-5.82 1.27-2.21 8.03-17.96 8.15-19.66.24-3.36-6.42-.75-8.43-.85-1.19-.06-2.36-1.04-3.47-1.12-22.27-1.6-62.9-4.65-76.47-23.24-.75-1.02-2.85-.98-3.49-3-.85-2.7.08-8.64 1.57-11.07.36-.59 4.32-3.81 5.01-4.21 15.25-8.9 43.27-8.14 60.49-5.8 5.27.72 23.97 4.03 28.15 6.02 1.54.73 1.32 2.3 1.76 2.63.76.58 2.98-1.36 3.72-.83.57.4 1.37 3.15 4.6 4.96 7.47 4.19 25.52-1.91 34.52-.03 3.31-2.52-8.22-2.07-9.24-2.25-2.45-.44-5.57-1.29-7.97-2.03-1.45-.45-5.23-1.35-5.78-2.7 10.82 1.62 31.74 6.37 41.3 0 .68-.45 1.13-5.35 3.7-3 2.41 2.2-12.82 10.49-16 8l8.99 2.98-43 2.49c-3.04 2.15 2.44 5.13 2.92 6.31 1.29 3.17 2.63 13.81 1.31 16.92-3.39 7.96-16.75 6.34-20.81 9.21-1.06.75-10.82 22.29-10.99 23.58-.08.6.8 1.61.58 2.51 5.27-.8 11.62-1.61 16.89-1.53 4.43.07 2.47.73 7.88-.2 10.9-1.87 22.08-1.67 32.76-3.19 3.01-.43 7.75.08 10.39-1.65 4.69-3.07 1.03-5.26 1.08-7.79.18-8.58 3.53-19.93 3.94-28.22.02-.43-1.95-.35-2-.98-.1-1.26 1.46-14.64 4.53-14.46l-3.5 55.02c-6.41-2.23-12.26.78-18.48 1.49-14.4 1.66-27.91 2.57-42.03 2.75-4.63.06-8.96.25-13.45 1.24-1.3.86-11.5 24.93-12.7 28.34-1.42 4.01-1 8.61-3.29 12.66-15.82 5.01-38.72-4.22-50.04 10.5l23.99-.5c-1.13 1.65-2.73 1.45-4.44 1.56-13.5.91-27.04 1.33-40.56 1.93 2.36-4.75 10.84-.99 16-3-1.44-2.66-5.2-3.75-7.99-4-.13-1.77 2.66-.95 2.99-2.99.39.03 1.64-1.17 2.42-1.05s.5 1.76.69 1.9c1.69 1.22 2.39-1.59 2.89-1.85 1.4-.72 6.06 1.16.92-3.42-3.57-3.18-7.29-4.14-11.92-4.58Zm100.61-98.6c-20.33-14.67-69.89-18.68-92.49-7.79-13.85 6.68-8.01 17.71 2.55 24.21 16.42 10.11 77.59 19.8 94.85 12.2 5.04-2.22 7.33-4.28 6.91-10.18-.61-8.66-5.47-13.85-11.83-18.44ZM504.83 586.18c.55.66.06 5.33 2.78 5.78 1.5.25 2.48-2.54 4.39-1.96-2.48 10.53 10.37 7.72 16.22 4.92 1.22-.58 7.83-6.83 8.78-5.91-2.48 6.14-10.1 8.7-16.04 10.5-1.88.57-2.57-1.56-3.47 1.53-6.96-5.84-5.8 7.74-1.78 8.78l54.28-1.3c.6 2.04-2.68 1.86-4 2.03-14.75 1.94-31.31 1.64-46.5 2.26-1.27.05-3.75-1.29-4.46-.8-.32.22-1.64 6.55-1.54 7.49.31 2.85.65 4.34.84 7.86.34 6.4 11.17 5.54 16.55 7.26 6.6 2.11 18.55 6.92 21.22 13.83.7 1.81 1 7.42 0 9.06-.3.49-6.01 7.83-6.4 8.18-1.73 1.58-6.4 2.73-8.7 3.85-1.43.7-2.51-.22-2 2.44l39.99-1.01c-7.2 2.59-14.33 2.01-21.96 2.48-54.86 3.32-111.53 14.04-166.6-.4-7.04-1.85-11.66-2.51-18.67-6.33-4.16-2.26-8.44-4.89-8.8-10.19-.03-.4.58-6.73.73-7.34 2.14-8.65 16.77-13.38 24.79-14.22l-18.54 9.46c-4.22 2.82-5.37 13-1.65 16.26.37.33 7.61 4.28 8.7 4.79 34.89 16.4 111.33 15.83 149.07 5.07 9.97-2.84 27.84-9.37 27.04-22.08-.05-.81-5.52-5.66-6.73-6.36-2.37-1.37-14.4-6.12-17.15-6.85-1-.27-8.18-1.32-8.6-1.2-3.92 1.12 1.43 9.37-2.61 10.92-3.56-15.93-1.86-32.31-4.21-48.51-5.29-4.93-3.67.43-6.49 1.36-.38.13-7.21.98-7.79 1-7.04.22-2.52-3.39-5.02-4.56-.78-.37-12.76 1.58-14.05 2.17-4.19 1.94-3.25 10.65-3.46 14.55H478l.49-11.01c1.45-.01 1.1 8.02 1.68 9.35.79 1.82 2.7 1.53 2.82 1.69.19.23-2.37 3.07-2.5 5.44-.04.73.42 9.43.5 9.94.16.95 1.86.46 1.98.61 1.61 1.99-1.88 2.02-1.89 2.4-.06 2.14 2.36 5.79 2.64 7.37.45 2.59-1.26 6.24.27 9.21-2.61.72-2.42-2.12-2.66-3.78-1.36-9.37-1.12-18.91-2.82-28.25-8.16-3.05-5.97 7.07-7.2 11.82-.47 1.81.24 2.66-2.31 2.22 1.53-2.77-.11-6.24.13-8.51.17-1.6 1.89-2.65 1.7-3.79-.29-1.78-3.15-2.11-.82-6 3.54-5.92 1.32-8.44.95-14.19-.04-.61 1.84-.35 2.04-1.16.81-3.34-.45-8.71 1.01-12.34 1.72-.24.96 2.29.99 3.48.06 2.32-1.28 9 .59 9.47 6.19 1.54 5.94-4.58 7.94-6.93 2.42-2.85 5.9-1.57 8.93-2.08 1.43-.24 2.37-1.62 3.84-1.68.78-.03 8.26 1.58 8.54 1.92Zm-2.83 2.81c-.6-2.91-11.52-1.82-12.55-1.06s-1.71 1.73-1.44 3.06zM345.24 773.77 421 774c.22 3.84-7.03 3.77-9.67 3.74-11.3-.14-24.13-.78-35.85-.71-9.77.06-19.68.44-29.48-.02l8.01 42c3.93-3.51 8.64-6.49 5.97 1.49 4.29.09 4.32 3.68-.5 2.53-2.07-.49-3.1-4.59-4.48-3.01-.87 1.01 7.07 24.8 5.99 25.99-1.35 1.48-2.59-1.59-2.93-2.56-2.5-7.12-3.02-18.14-6.85-24.17-1.49-2.35-8.88-10.72-10.99-12.26-1.69-1.23-8.67-3.39-10.68-3.52-8.58-.56-45.8 11.86-55.74 15.82-2.25.9-10.22 6.31-11.49 8-.38.5-5.73 10.54-5.87 11.15-.86 3.7 1.59 20.65 1.65 26.04.02 2 .21 4.14-1.59 5.5L245 788.02c-1.31-.1-1.84 2.11-2.34 3.14-2.56 5.33-5.55 10.95-7.86 16.15-1.11 2.51-3.99 13.02-4.81 13.69-3.82 3.12-.46-4.27-.36-4.69 1.79-7.57 3.16-8.86 6.16-14.98.32-.65 3.61-9.95 3.21-10.32-7.23.45-14.36 1.78-21.54 2.74-1.55.21-3.31-.44-4.9-.22-2.43.34-7.05 3.19-10.55 2.46l10.56-3.92 28.27-3.23c.51-1.18 1.44-3.03 1.11-4.24-.44-1.59-3.94-1.13-2.94-3.09.8-1.56 3.75-1.05 4.05-2.13.8-2.85-.71-9.02-.05-12.38l2.49 7.98 3.49-4.98-1.98 12c2.82-1.36 5.54-2.97 8.5-4.08 3.89-1.47 7.96-1.79 11.54-2.36 9.46-1.52 30.56-7.44 37.89 0 5.05 5.14-6.56-.83-7.95-1.14-6.46-1.45-34.21 3.44-41.21 5.85-3.13 1.08-9 3.25-8.73 7.07 2.63 12.1 2.73 24.79 5.21 36.89.53 2.6 1.5 7.26 2.51 9.49 2.04 4.51 2.14-1.18 2.8-2.64 2.42-5.37 9.06-11.93 14.23-14 4.43-1.77 14.59-.89 12.82-8.15-.7-2.85-5.68-2.8-4.6-6.94 1.45 1 9.94 4.37 9.97 5.5 0 .25-3.24 3.18-1.97 4.5.69.72 16.64-4.88 19.09-5.6 5.17-1.52 10.77-4.4 16.67-5.11 2.62-.31 15.3.98 16.99 1.96 1.29.75 6.16 9 9.23 9.75-1.01-2.59-1.18-9.19-2.51-10.98-.75-1.01-10.75-3.9-4.97-6.02.86-.32.14 2.04 1.08 2.07.25 0 3.31-.95 3.42-1.09.23-.3-1.48-2.31-1.66-3.63-.66-4.94-.87-10.23-1.47-15.22-1.5-2.48-19.71-.44-23.79-.57-2.82-.09-2.56-3.57-1.55-3.57 6.55-.6 14.9.97 21.01.54.95-.07 2.57-.71 3-1.48.94-1.69-4.61-18.42-2.52-22.05l5.22 22.76ZM641.4 736.61c4.13 2.85 11.74 20.05 15.12 21.38 1.97.78 1.38-1.24 1.74-2.2 1.74-4.72 3.1-9.56 4.78-14.3.49-1.39-1.23-3.05 1.96-2.48-.08 7.78-4.81 14.62-5.85 22.28 7.19 10.12 14.12 20.57 21.41 30.65 3.05 4.21 7.88 8.05 9.43 13.06-12.58-11.93-20.73-27.77-31.98-41-3.61 10.33-8.23 20.64-11.59 31.04-1.03 3.18-.2 1.8-1.73 5.21-.21.46-2.22 9.33-2.22 9.84.02 2.23 1.57 4.9 2.52 6.91-1.09.37-3.44-1.41-3.99-1-.47.36-2.94 10.72-2.97 11.55-.1 2.73 1.81 6.29.95 9.46-4.67-3.76-2.93-.45-3.71 1.97-.57 1.77-3.93 9.04-3.93 9.56 0 1.46 4.18 2.54-2.35 3.49.66-1.44-1.04-5.64-.87-5.88.26-.36 2.05-.39 3.11-2.37 1.57-2.93 1.61-8.4 2.74-11.76-18 2.38-1.17-3.18-.24-4.25 2.81-3.24-1.21-7.4-3.99-9.07-7.68-4.62-40.41-13.34-49.14-12.55-4.49.41-5.56 2.98-9.62 2.86 7.59-8.57 22.56-4.24 32.21-1.7 7.04 1.86 19.54 5.36 26 7.75 1.89.7 4.29 6.74 7.77 5.96.03-2.29 2.43-5.14 1.86-7.3-.1-.37-3.89-6.13-4.15-6.41-.94-1-2.97-1.4-4.09-2.45-10.32-9.67-21.47-19.46-31.15-28.81-1.68-1.62-11.43-13.78-13.46-12.03l-11 29.51 2.99 1.48-4.8 1.21c-2.45 5.41-3.05 11.91-5.16 17.34-.94 2.44-7.09 14.81-8.55 15.46-.44.19-1.64.26-1.48-.49 2.11-4.49 5.72-10.16 7.42-14.58.77-1.99.41-4.04 1.07-5.93.72-2.08 4.5-8.97 4.49-9.49 0-.59-1.49-1.44-2.45-1.52-4.86-.42-16.22 3.48-22.05 4-1.08.1-4.65.8-4.47-.97l27.53-4.92c1.47-.95 3.31-5.05 3.4-6.66.01-.23-3.15-.68-1.94-3.42 5.32.98 7.23-4.64 8-9.01-2.62 1.07-5.57 1.43-8.37 1.56-10.8.49-22.41-1.25-32.89-1.27s-21.66 1.55-31.78 1.2c-3.62-.13-8.45-.2-10.95-2.99l84.25-.51c1.37-.43 5.67-10.76 5.64-12.51-.07-4.65-8.87-8.76-7.89-14.47l7.91 10.35c2.76 2.62 2.07-2.55 3.32-4.62l7.76-14.73c.45 5.53-9.29 19.61-7.29 23.73l23.66 22.96c3.53.31 3.8 4.55 7.63 5.3-.56-4.95 1.53-5.48 6.01-4.99.08 1.88-4.57 1.41-5 2s1.13 3.92 1.62 4.88c4.08 8.04 12.59 11 17.38 18.11 1.24-3.19 1.54-6.73 2.55-9.96 2.13-6.83 5.12-13.6 7.24-19.76 1.95-5.66 3.44-11.46 5.94-16.92.25-3.89-2.72-5.03-4.14-7.42-3.85-6.45-8.52-12.89-12.28-19.72-1.48-2.69-4.17-7.27-5.04-9.97-.31-.96-1.06-3.47.73-3.23l6.41 13.6Z"/><path d="M523 855c1.37-1.86-4.48-18.26-3.67-21.77-3.1-5.35-4.02-10.95-8.66-16.89-4.4-5.63-11.16-11.14-15.44-15.58-.49-.51-.03-2.04-.44-2.49-2.03-2.27-22.56 4.34-27.01 4.11l-3.79-.89 25.38-5.37c2.35-1.8-4.42-13.6-5.97-16.04-5.03-7.9-14.29-19.06-20.43-26.57-1.37-1.68-7.89-9.92-9.47-9.52-16.25 21.44-18.28 49.73-25.52 74.99-4.01-2.49.17-8.99.72-11.8 2.79-14.07 6.2-27.89 11.2-40.98.41-1.07 1.08-4.96.6-6.21-3.31 3.7-6.47 7.55-9.49 11.51-6.6 8.67-14.08 17.57-20.43 26.57-11.04 15.64-20.37 30.47-24.98 48.84-.24.98.4 2.19.1 3.28s-1.64 5.59-3.7 4.8c1.54-5.19 1.01-14.62 2.43-19.06 1.22-3.8 6.35-11.03 8.47-14.1.45-.66-1.04-2.29-.78-2.71.09-.15 1.87-.59 2.74-1.73 4.48-5.9 7.43-12.91 11.54-19 1.28-1.9 8.04-6.52 4.59-9.4-.19-.16-3.41 1.47-4.76 1.73-9.53 1.84-19.37 2.49-28.98 3.61-3.71.44-7.53 1.49-11.75 1.6-1.17.03-3.71.86-3.49-.93 1.19-.79 5.78-.8 6-1.02 1.49-1.52-3.58-4.39-.5-5.97l2.95 5.75 42.59-5.32c4.28-2.67-1.09-4.11.42-7.44 2.03-4.5 3.39.93 4.19 1.07 4.34.72 4.15-2.95 5.3-4.33 5.55-6.67 10.91-13.66 16.03-19.98.75-.92 2.1-1.34 2.84-2.39 3.75-5.31 6.22-11.61 5.94-18.15-4.26-4.79-10.23-8.34-14.66-12.83-7.62-7.72-12.41-16.54-19.1-24.61-.89-1.07-13.47-12.29-12.01-13.77l10.65 9.34c11.17 15 22.7 29.4 37.33 40.65 4.76-14.94 6.36-30.6 10.99-45.53.33-1.07.63-3.62 2.02-3.46L452 739l3.54-.95c6.15-6.14 11.72-13.02 17.92-19.07.98-.95 5.39-6.03 6.54-4.97l-22 24.5-1.55 3.58 28.52 35.67c1.81 4.33 4.67 8.24 6.92 12.07.47.81.13 2.51 1.04 3.77 1.89 2.61 5.99-.82 8.07 1.91-9.68.52.94 6.7 3.03 9.25 4.79 5.88 15.75 19.07 17.4 25.79.36 1.48-.26 4.03.16 5.9 1.34 5.99 2.83 12.11 4.39 18.06-.2 1.14-2.72.14-2.98.48-.38.49 1.31 3.52-2.73 3.8-6.33.44-1.7-8.73 2.73-3.8ZM751 577.01c-.7 2.57 2.16 2.3 2.78 3.19.12.17 1.32 2.97 1.38 3.17 2.57 8.13-3.81 11.82-11.14 13.15-1.77.32-8.11.55-9.02-1.5 5.11.09 19.87-2.7 19.05-9.39-.08-.7-1.86-.54-2.37-1.88-.34-.87.33-2.46.17-2.6-1.64-1.48-9.04-1.86-9.85-3.65-1.64-3.62 1.76-1.8 3.12-2.05 3.08-.57 5.69-.68 6.87-3.96-7.29-4.26-8.22-4.73-3.98-12.48 4.09.88-.34 6.44.01 6.92 1.21 1.64 8.19 2.98 4.98 9.07 10.18.81 20.32 2.44 30.51 2.95 24.51 1.21 49.36 2.85 74.03 3.02 2.04.01 14.15 1.44 15 .11l3.08-73.73c1.9-50.94.08-101.86-.9-152.8-.21-10.79-1.71-22.03-.74-32.96.11-1.24.39-5.37 2.01-5.56-.29 11.07-.41 22.35 0 33.42.65 17.39 2.2 34.77 2.75 52.12 1.26 39.99.15 80.75-1.02 120.92-.59 20.35-1.92 40.21-2.3 60.56l-3.05 1.69-20.87-1.52c-12.59 2.42-25-1.26-37.15-2.03-21.16-1.35-42.35.65-63.35-4.16ZM349 579.01c.79.64.85 1.31-.95 1.69-2.86.61-6.3 1.67-8.78 2.06-25.37 4.05-52.63-.01-77.77 5.29-11.65-.97-23.2.06-34.86.66l-3.05-1.69c.2-7.81-1.09-15.73-1.38-23.52-1.06-28.72-1.53-58.1-2.21-87.07-.71-30.7-.19-60.49.92-90.92.79-21.79 3.05-43.61 2.1-65.5 1.62.2 1.9 4.32 2.01 5.56.97 10.94-.53 22.17-.74 32.96-.98 50.94-2.8 101.86-.9 152.8l3.08 73.73c.85 1.33 12.96-.09 15-.11 24.66-.17 49.53-1.78 74.03-3.02 4.91-.25 32.2-3.99 33.51-2.93ZM812 670c-2.37-1.52-6.87-2.17-6.01-6.01-4.37 3.02-4.83-12.09-8.98-8.98v-4c1.82-.41 1.95.56 2.82 1.67 3.67 4.72 8.97 12.47 12.17 17.33 3.41 2.19 6.94 6.63 8.89 10.81 2.66 5.67 3.46 13.3 5.6 19.19 3.36-2.7.4-6.58.5-9.5.2-5.46.81-15.16 1.52-20.54.24-1.77 0-3.57 2.47-2.96l-.99 65.99c3.13-1.27 1.77-5.41 2-7.99 1.79-.28.87 3.97 2.49 3.98.4 0 2.02-2.54 2.49-1.98.89 1.07-2.98 4.03-1.99 5.99 1.51-.27 8.35-.73 8.84-1.15 1.14-.96 1.44-7.59 1.68-7.91.95-1.31 6.63-1.72-.52-3.43 1.48-1.62 3.33-1.27 4.89-3.11 1.77-2.1 1.91-8.51 3.13-9.39.75-.54 2.92.85 2.96 1.49.02.45-3.34 6.78-3.97 8.01 5.83.96 8.23-9.04 11.61-12.39 6.73-6.67 10.96 2.45 5.68 3.78-2.2.55-3.53-1.88-3.8-1.88-.65 0-4.82 9.7-7.48 10.48l4.98 4.49c-3.24-.19-6.87-2.07-10.02-.5-.29.14-4.11 4.48-4.25 4.77-1.24 2.55-1.47 9.06-3.33 9.68-2.48.82-3.84-1.58-5.67-1.68s-5.05 1.24-7.42 1.31c-8.09.25-27.28 1.4-33.76-2.53-.83-.5.75-2.24-1.03-3.01l-13.52 2.94c2.29-3.2 9.88-5.07 13.38-4.7 1.94.21 3.85 2.49 6.22 2.71 1.67.15 5.14-1.22 5.4-1 2.19 1.94-2.56 1.68-1.99 2.99l4.99 1.01c-2.18-7.96-3.52-15.99-6.94-23.55-2.08-4.6-7.31-11.24-9.02-15.99-.79-2.21 2.69-1.47 3.52-2.18 5.37 13.29 12.32 26.37 13.95 40.8l10.48.93c.18-1.4-.02-2.64-.54-3.95-2.5-6.33-12.1-15.96-15.5-23.5-2.23-4.95-4.6-15.83-4.99-21.02-.26-3.45.24-7.06.05-10.52l7.29 31.2c4.67 7.67 9.36 16.09 14.84 23.12 3.35 4.29 4.12-1.31 3.91-4.79-.11-1.78-1.87-14.37-2.29-15.79-1.78-5.99-1.45-5.49-2.25-10.76-1.29-8.46-7.97-21.1-12.51-27.98Z"/><path d="m283 495.99-44.86 2.14c-1.4.83-1.21 28.85-1.17 32.42.07 5.96.36 11.83.41 17.77.04 4.6 2.47 7.68-.39 12.67-.4.4-1.54-.88-1.77-1.71-1.42-5.02 1.72-15.77-.78-20.96-.65-50.39-.26-100.09 1.02-149.83.6-23.41 1.03-46.96 1.55-70.5l1.57 7.95c-.79 8.86.28 17.71.2 26.55-.3 33.72-2.86 67.44-2.8 100.96.02 11.91 1.17 24.06 1.08 36.02-.05 5.88-3.36 6.51 5.41 6.24 10.82-.33 26.78-2.86 37.07-1.76 1.49.16 3.09.23 3.46 2.03ZM862.01 557c-2.86-4.99-.43-8.06-.39-12.67.05-5.94.33-11.81.41-17.77.04-3.57.23-31.59-1.17-32.42L816 492c.37-1.8 1.97-1.87 3.46-2.03 10.29-1.11 26.26 1.42 37.07 1.76 1.41.04 6.09.36 6.41-1.27L861.5 314c.25 6.73 1.06 13.83 1.26 20.53 1.98 68.26 2.15 133.99.77 201.95-.1 4.97.94 12.36.54 17.04-.13 1.49-.3 3.13-2.06 3.49ZM296 597c-.29-1.3 1.81-1.64 2.64-1.67 7.96-.29 22.19.74 29.76 2.77 10.97 2.94 17.44 15.11 15.41 26.16-.6 3.24-7.25 9.05-10.27 10.23-7.24 2.81-17.33 3.36-24.81 4.74-25.41 4.7-55.21 9.16-81.27 7.82-10.97-.57-28.56-2.75-31.04-15.77-4.07-21.4 26.73-29.76 43.08-30.23 1.17-.03 3.72-.84 3.5.94-13.78 1.3-41.56 6.52-44.54 23-.11.63-.31 5.81-.28 6.54.02.55 1.34.46 1.71 1.27.77 1.67 1.14 3.47 2.45 4.87 9.56 10.24 53.9 6.67 68.05 5.24 16.77-1.7 47.9-5.45 62.81-11.22 11.22-4.34 9.84-18.24 3.4-26.28-4.86-6.07-16.54-8.4-24.1-8.4H296ZM836 762c1.02 3.11-4.59 2.14-6.54 2.04-11.33-.6-27.39-3.48-36.24-6.94-1.08-.42-5.9-2.45-6.22-2.1.23 10.24 2.5 20.25 3.04 30.46.88 16.38-1.32 32.7 2.95 48.54l48.99 1.5c-11.62 2.61-24.2 2.65-36.14 1.96-1.08-.06-2.34-1.14-3.58-1.24-1.93-.16-9.17.91-10.29.34-.26-.13-3.9-3.9-3.93-4.18-.09-.67.73-1.97.49-3.39-4.02-24.19 1.78-52.88-5.48-75.62-.46-1.44.91-6.53.94-8.35 2.01 1.12.92 4.77 2.54 6.94 4.33 5.78 40.84 9.28 49.44 10.06ZM907.84 700.2c1.36 1.26.94 7.56 2.35 10.11 1.56 2.81 7.99 4.16 10.13 7.93 1.42 2.51 3.2 8.52 3.56 11.37 1.15 9.06-2.78 19.64-2.13 28.63-3.98 4.52-5.13 17.01-8.25 20.77-1.18 1.42-2.84 1-4.5.99 1.87-3.73.17-6.23-.02-9.57-.87-14.84-2.3-15.21-11.03-26.9-.9-1.21-.85-3.35-1-3.52-.21-.23-.88 1.37-4.59-2.42-1.25-1.27-5.57-5.2-6.35-6.37-1.55-2.32-1.56-4.86-2.29-5.95-.49-.72-2.46-.88-2.69-1.82-.3-1.22 1.63-2.71 1.64-3.95 0-.93-1.32-2.04-1.36-3.11-.23-6.3.89-12.45-5.29-16.89 1.15-1.31 5.73 2.82 5.98 3.28.92 1.73 1.99 8.09 2.3 10.4.4 3.01-.38 7.04-.03 9.06 1.22 7.1 9.9 11.82 14.19 16.8 8.25 9.58 15 20.79 13.57 33.97 1.44-.12 1.56-1.48 2.02-2.47 5.51-11.92 11.02-38.7 4.39-50.46-2.38-4.21-7.92-5.31-9.91-8.09-1.78-2.48-1.19-5.21-2.28-7.72-3.6-8.32-21.5-5.84-29.23-8.27-.21-1.54 3.49-1.42 4.49-1.42 8.88-.05 17.47.66 24.52 5.79.44.32 1.67-.31 1.82-.16ZM390.99 532c-1.61 1.51-1.75-.16-1.96-1.51-1.03-6.62-.03-13.36-.27-19.94-1.1-29.66-.25-58.25-1.32-88.09-.93-25.82-2.98-51.22-2.35-77.96.04-1.49-1.53-9.55.42-9.51 2.92 10.28.77 21.11 1.06 31.51.8 28.03 3.41 56.17 4.48 83.95-.73 27.24.38 54.33-.06 81.54ZM425.78 632.21c.2.35 1.08 7.19 1 8.07-.29 3.18-3.66 7.43-2.78 11.72 2.24.25 2.68.21 3.85-1.72.32-.53 3.84-11.17 3.79-11.79-.08-1.1-2.24-1.69-1.64-3.48 9.97-.83-2.23 17.91-1 18.99 1.16-.2 4.52.38 4.95-.04.4-.39 1.7-8.76 2.59-10.95.65-1.6-.11-2.45 2.45-2-.57 4.37-.71 13.2-4.99 15.56-2.45 1.35-3.77-1.57-6.46-1.64s-5.75 2.33-9.08 2.19c-2.03-.09-.97-2.38-2.88-2.16s-3.63 2.18-5.06 2.11c-.51-.03-.42-2-1.15-2.1-1.08-.16-11.18-1.03-11.93-1-2.55.08-3.83 2.45-6.44 2.05-1.15-3.16 4.02-6.24 4.07-6.64.2-1.46-1.68-3.22-.63-5.32 1.78-3.58 5.32-.57 6.58-1.43.99-.68 2.39-6.07 3.13-6.48 1.1-.62 3.32 1.25 5.57.2 3.78-1.78-.05-6.99 9.08-7.07 1.52-.01 6.42 1.97 6.98 2.98Zm-7.77 21.78c3.17 2.37 2.99-6.44 3.22-7.26 1.1-3.84 4.25-7.26 2.25-11.71-1.7-3.77-9.74-3.43-10.51.48-.92 4.69 2.59 9.61 4.2 13.82.38 1 .62 4.51.83 4.67Zm-8.49-3.51c1.57 1.56 2.29 4.16 5.01 1.54 1.76-2.46-4.13-15.86-9.54-12.02.04 4.05 1.71 7.67 4.53 10.48m-3.53 2.51c-1.07-4.72-3.32-11.16-8.99-7.98-.97 2.96 7.59 9.4 8.99 7.98M749 720c-4.86 1.31-1.87-.6-1.55-2.51.44-2.67 1.09-4.07 1.49-6.13.47-2.45 1.14-12.66 1.66-13.38 2.09-2.89 13.22-5.72 13.38-7.49l-10.3-1.51c-4.4 8.66-12.67 9.81-9.72-2.32.83-3.42 17.39 2.56 21.04.32-1.45-2.34-4.63-5.8-7.44-5.86-1.29-.03-7.38 2.34-6.55-1.61.18-.86 6.9-5.95 8.46-5.51.69.19 5.75 15.47 8.53 8.48.72-1.81-1.78-1.28-1.94-2.11-.11-.55.65-1.65.4-2.46-1.31-4.22-3.16-9.54-5.23-13.43.52-.98 1.42-1.91 2.45-2.33 2.68-1.1 2.76 3.87 3.85.86 1.43-3.95-2.02-7.23 1.47-9.02.38 1.62 2.72 14.78.03 13l-2.01-3c-2.13 5.75.68 14.1 3.3 19.46 1.22 2.48 3.77 4.85 4.92 6.79.72 1.2 2.42 7.05 1.76 7.75-5.46.17-3.21-3.34-4.1-4.87-1.45-2.51-19.03 2.59-20.69 8.59-.61 2.2.16 4.62-.31 6.68-.84 3.65-1.82 8.1-2.9 11.6.44-.12 1.19.22 1.72-.24l9.3-12.76c.38-.27 1.96 1.28 1.96 1.5.01.71-7.63 8.94-8.99 10.99-1.97 2.97-11.63 20.25-9.98 22.51 3.45-.04 5.59-3.44 7.26-4.28 3.44-1.74 9.73-3.21 12.11-4.84 2.6-1.79 4.02-6.69 6.19-8.81 1.88-1.83 4.35-2.15 6.45-4.55 5.15-5.9 9.05-14.67 12.67-21.36.71-1.32-.52-2.72 2.31-2.15-.06 2.1-.58 4.23-1.3 6.19-2.78 7.6-15.52 22.61-21.34 28.7-6.66 6.95-10.67 5.27-17.29 9.68-1.61 1.08-1.73 2.88-2.27 3.27-.4.29-7.4-.37-7.76-.88 1.1-8.64 6.4-14.61 8.98-22.96ZM327.24 667.77c1.64 3.05.46 1.06 1.18 4.26 2.02 8.91 6.02 17.58 5.67 26.88 2.04.39 4.13.66 6.08 1.42 3.32 1.29 16.36 7.47 18.74 9.26 1.55 1.16 2.41 2.65 3.08 4.4l-89 17c2.12-2.12 6.92-3.94 9.78-4.71 21.74-5.86 48.3-9.06 70.84-13.16 1.41-.26 5.08.09 5.37-.13 2.04-1.49-.74-1.74-1.42-2.09-3.76-1.89-25.6-9.93-26.48-11.06-.31-.4.87-5.58.65-7.09-2.61-17.59-9.56-30.21-8.74-50.27.05-1.21-.76-3.72.99-3.48 1.66 7.12 1.19 14.57 2.31 21.73.24 1.55.77 6.71.94 7.04ZM462.01 579.97c-1.72 1.82-6.96-.06-8.88-.42-1.07-.2-2.53.61-3.44.3-2.3-.79-1.52-5.28-6.58-2.75-2.88 16.76.35 33.6-4.6 49.89-3.1-6.24 3.48-12.77-6.5-15.49.98-2.22 6.4-.78 6.76-2.96.1-.59-.97-2.05-.82-3.08.28-1.9 1.49-3.13 1.57-3.96.62-6.48-1.18-19.64 2.24-25.25 1.7-2.79 4.09-2.13 5.34-3.68s.79-5.2 2.85-6.08c.37-.16 7.34-.18 8.12-.08.69.09 9.77 2.48 10.23 2.74 2.6 1.52 4.01 5.77.68 7.38-1.87.9-6.03-.91-6.98-.09-1.49 1.29.39 3.12.02 3.52Zm5.99-6.98c-2.99-4.79-10.99-3.08-15.99-3.99-.47 2.85.59 1.67 2.31 2.14 4.46 1.22 9.14 1.41 13.69 1.85ZM923.58 642.58c-10.49 10.3-6.17 10.35-10.37 21.14-3.99 10.26-10.23 6.64-16.29 9.64-2 .99-1.92 2.4-2.07 2.46-.34.13-3.37-1.22-6.07-.58s-7.85 4.55-11.07 5.97c-3.87 1.7-8.92 1.8-12.33 5.11-.71.69-5.22 6.74-5.22 7.19 0 .86 2.82 2.4 3.38 3.52 1.89 3.77-6.24 6.99-6.57 9.96-1.65.55-.48-2.03-1.54-2.07-4.68-.16-3.94 7.15-7.44 9.07 1.85-7.01 6.16-15.32 10.15-21.38.69-1.05 2.08-1.26 2.54-1.91.63-.88.04-2.63 1.3-4.19 3.84-4.77 16.14-7.69 22.16-10.63 1.13-.55 1.66-2.41 3.81-3.2 7.4-2.72 20.9-.64 23.77-10.44.52-1.77 0-3.86.49-5.51 2.65-8.76 6.54-13.51 13.76-19.25 1.25-4.94-15.74.79-17-3.48l24.43-.96c3.96 2.87-4.14 3.93-6.39 5.48-1.7 1.16-2.19 2.82-3.45 4.06ZM209.98 821.01c3.67 5.23 6.51 11.17 10.16 16.38.82 1.18 2.58 1.49 2.77 1.77.44.66-1.06 2.32-.8 2.72.22.34 4.37 3.81 5.49 5.51 13.81 20.94 22.29 40.67 38.99 59.99.67.77.6 2.62 1.36 3.17 1.09.8 10.18-1.27 12.3-1.82 10.54-2.7 24.89-8.8 35.26-10.23.68-.09 3.85.06 3.5 1.48l-47.97 13.05c-1.08 3.19 2.35 2.93 2.96 5.48 1.35 5.6-5.7-3.7-6.08-3.97-.96-.68-2.81-.45-2.92-.56-.4-.41 1.06-2.11.8-2.82-.84-2.24-12.99-16.64-15.74-20.93-7.65-11.95-14.66-25.05-22-37-6.34-10.33-12.72-20.94-20.03-30.76l1.97-1.48ZM709.99 382c-.8 28.26 3.29 56.24 1.99 84.45-.16 3.58-.93 5.37-1.03 7.03-.03.62 1.84.35 2.04 1.16.87 3.54 1.36 16.63 1.56 21.04.3 6.39.37 12.98-.58 19.31-1.76-.28-1.41-1.36-1.59-2.53-1.44-9.22-.83-20.86-.49-30.05.02-.51-1.91-.32-1.94-.98-.39-7.28.2-13.46.06-20.94-.46-23.96-2.01-45.13-3.11-68.99-.14-2.97 2.65-5.72-.9-8.01z"/><path d="M783.67 624.33c2.99 3.48 7 13.62 7.92 18.31s.02 10.04.48 13.7c.88 7.03 5.99 20.63 5.47 26.2-.14 1.45-.98 2.53-2.04 3.45-1.17-2.86-.12-6.84-.51-9.39-.62-4.03-3.52-9.7-4.3-14.79-1.37-8.94.34-15.64-3.03-24.98-2.35-6.52-7.59-16.31-15.66-12.83 5.35 14.25 5.26 29.88 6.99 44.98l-2.71-8.77c-1.33-8.1-1.9-27.91-6.24-33.76-.78-1.05-1.64-1.74-3.03-1.46l2.99 27.99c-2.34.57-2.36-.96-2.72-2.72-.73-3.62-3.26-29.11-2.28-30.26 2.01-.35 2.65 1.78 4.55 2.03 3.96.52 9.57-2.98 14.11 2.3ZM789.56 587.45l4.43 3.54c-14.25-5.66-5.87-1.23-3.3 5.81 4.24 11.62 5.51 23.5 10.23 35.97 1.48 3.91 1.77 8.55 4.13 12.39 7.6 5.42 12.8 12.04 22.96 12.32-2.72-6.14-5.78-13.85-9.69-19.25-2.56-3.55-15.33-14.78-15.34-17.73 0-3.21 3.18 2.32 3.43 2.53 6.07 5.04 14.7 14.84 18.5 21.75 1.51 2.75 5.25 10.37 5.52 13.05.2 1.98-.75 4.12-.45 6.15-2.12-.3-5.09-4.92-6.02-5.43-2.65-1.46-6.18-.99-10.21-3.56-10.73-6.86-10.56-10.68-14.39-21.03-.43-1.15-2.53-1.91-3.15-3.7-4.31-12.59-3.29-29.38-11.81-40.18-1.42-1.8-6.11-2.78-3.89-6.1zM851.99 311.01c.24 1.72-2.29.96-3.48.99-25.41.65-50.8 1.47-75.97 2.04-2.95.07-42.6.58-42.55-1.56.09-4.11 6.97-1 9.7-.91 32.3 1.11 66.34-4.13 97.8-2.66 4.54.21 9.77 2.01 14.5 2.09ZM369 316.99l-122.01-1.49c0-.74 13.37-2.53 14.51-2.58 31.76-1.31 65.48 4.22 97.8 2.66 3.44-.17 9.74-3.47 9.69 1.42ZM368 550.01c-3.37 3.65-11.47 1.73-16.49 2-25.82 1.41-52.04 3.33-77.95 4.02-10.83.29-21.73-.26-32.55-.04zM848 299.01c-.84 2.2-4.79 2.49-6.77 2.72-25.64 2.89-60.44-1.03-86.82-2.57-4.04-.24-9.28 1.25-13.4-1.65zM358 301.99c-4.55 2.07-9.22.92-13.4 1.16-24.83 1.44-48.37 2.96-73.26 2.22-6.32-.19-14.63 1.74-20.33-1.88L358 301.98ZM856 427.01l-7.66 1.62c-18-.01-35.94-1.94-53.85-2.38-20.69-.51-42.04.88-62.48-1.74.97-1.53 2.07-1.11 3.49-1.2 24.85-1.64 53.82 1.75 79 2.78 13.75-1.58 27.71.55 41.5.92M367 428.99l-124.01 2.51 29.62-2.39c22.89-.02 45.83-.71 68.93-1.06 6.92-.11 15.68-1.63 22.58-.76 1.31.17 2.55-.13 2.88 1.7M850.99 451.01c.24 1.49-2.7 1.51-3.68 1.57-4.13.25-9.61.43-13.74.42-31.4-.07-64.14-.09-96.1-2.07-1.09-.07-6.02.55-5.48-1.42zM366.99 453.01c.37 3.3-.58 1.42-1.85 1.61-28.16 4.26-70.34 2.31-99.72 2.39-1.85 0-17.44-.59-17.44-1.51l119-2.49ZM765.99 776.99c-3.81-.79-8.07.77-11.49.8-21.49.21-44-.29-65.43-1.33-2.2-.11-2.5 2.07-7.16-.18-1.27-.61-2.42.51-1.9-2.29 4.46 1 8.46-.01 12.5-.08 21.37-.37 43.31.38 64.82.71 2.84.04 8.43-2.78 8.66 2.36ZM904.54 611.59c-1.95 3.12-.45 1.66-.94 5.46-.36 2.77-3.18 3.15-2.6 4.43 2.08 4.64 3.44-1.51 5.33-1.37 1.2.09 4.22 2.01 3.66 3.88-1.7-.08-3.34-.17-4.96.54-7.5 3.29-17.05 14.64-25.13 16.95-3.04.87-8.18-1.7-5.63 5.87 1.53 4.55 3.08-.21 3.77-.76 3.69-2.96 17.87-9.2 22.56-10.58.8-.24 10.45-1.83 7.39.97-.39.36-6.71.59-8.2 1.08-2.37.78-15.86 6.54-18.2 8.07-7.54 4.93-6.48 10.9-9.83 17.13-.38.71-4.6 6.07-5.07 6.47-1.3 1.1-14.88 2.83-18.27 4.18-12.66 5.07-8.83 16.38-11.4 26.64-.42 1.68 1 2.92-2.02 2.42 1.84-5.84.66-12.03 1.7-18.11 3.24-19.02 24.94-10.1 31.51-22.17 4.86-8.93 2.26-19.53 6.96-26.04.64-.88 3.61-4.81 4.83-3.66s-3.63 3.37-4 6.5c-.66 5.49 4.72-1.77 5.02-1.98 1.91-1.31 5.11-1.92 6.44-3.58 2.35-2.95-.83-5.59.56-8.94 5.56 2.34 4.27-.08 6.72-2.07.7-.57 2.33-.36 3.02-1.19.55-.68.16-2.41 1.27-3.24 1.91-1.43 4.5 1.25 1.89-4.71-.32-.73-1.71-.72-1.88-1.5-.73-3.39 1.72-9.02 5.95-6.83 3.75 1.94.9 4.01-.44 6.14ZM328 700.01c-.28 1.45-3.32 2.19-4.48 2.4-12.84 2.29-28.1 3.64-41.29 5.31-14.57 1.84-29.48 3.94-44.46 4.63-1.49.07-2.43 1.23-3.75-.86 13.42-3.07 27.46-3.25 41.07-5.11 7.58-1.03 15.27-3.15 22.69-4.12 9.91-1.29 20.26-3.09 30.23-2.26ZM309 789.99c7.51 1.12 14.96-2.58 22.51-2.96 1.72-.09 2.55.96 1.5 1.96-1.67 1.58-39.72 6.45-44.99 9.01-.5-2.79.61-1.67 2.19-2.25 2.97-1.09 15.67-3.76 16.32-4.73 1.64-2.47 2.77-20.82 3.58-25.46 1.27-7.21 2.86-15.06 4.59-22.36.38-1.6.71-5.64 2.31-6.17l-7.99 52.99ZM366 373.99c-6.11-.22-12.4-.3-18.54-.03-22.65 1-45.04 3.72-67.9 4.07-5.37.08-13.01 1.02-17.56-1.54 20.12-1.34 40.36-1.48 60.48-2.51 11.9-.61 28.33-4.29 40-1.98 1.45.29 3.1-.02 3.51 1.98ZM837 372.01c-.38 1.82-1.97 1.86-3.46 2.03-4.03.45-9.82.06-14.1 0-16.68-.22-33.57-2.11-49.93-3.05-12.14-.7-24.38-.84-36.5-1.48 4.8-2.64 12.06-2.04 17.5-1.95 9.06.15 18.16 2.04 26.95 2.49 19.79 1.01 39.7 1.51 59.54 1.97ZM463.45 825.57c12.15 18.95 23.74 41.36 36.71 58.82 2.81 3.78 8.82 7.35 9.84 12.61l-12.67-12.31c-14.88-21.7-27.37-46.95-42-68.47-.98-1.44-3.82-1.24-1.84-3.21 4.44 2.58 7.12 8.14 9.95 12.56ZM369.01 517c.54.42.88 1.36-.97 1.7-5.93 1.07-15.1-.05-21.52.31-11.69.66-23.44 2.43-34.97 3.03-13.84.72-27.67.57-41.53.95-.23-1.58 2.75-1.26 3.88-1.36 11.07-.99 22.46-.92 33.61-1.66 6.72-.44 13.49-.8 20.01-1.16 13.83-.77 27.6-3.48 41.5-1.8ZM829 518.01c.23 1.75-2.26.94-3.48.99-4.28.18-9.68.17-13.99.06-19.86-.52-39.3-2.94-59.04-4.04-6.42-.36-15.59.77-21.52-.31-1.85-.33-1.51-1.28-.97-1.7 15.52-1.93 31.11 2.17 46.45.96 17.34 2.74 35.09 2.51 52.55 4.05ZM869 744.01c-.76 1.53-1.11 2.68-1.04 4.44.75 19.37-6.42 57.25-10.66 77.36-.17.82-1.29 7.38-3.29 5.18l8.84-53.65c.63-6.76 1.98-13.43 2.81-20.16.13-1.05-.2-16.92 3.34-13.17M838 388.01c.28 3.33-.38 1.39-1.67 1.45-6.68.32-14.99.49-21.74.55-15.11.15-30.17-1.28-45.2-1.86-10.57-.41-22.09 1.44-32.37-1.64l100.99 1.5ZM362 390.99c-6.78 1.13-13.84 1.32-20.69 1.59-22.37.88-44.41.58-66.74.39-1.71-.01-13.4 1.17-13.57.51-.6-2.35 2.09-1.44 3.5-1.49 31.58-1.12 62.92-2.05 94.76-2.35 1.31-.01 2.2-.88 2.75 1.34ZM322.42 871.61c7.51 12.06 15.01 25.31 24.58 36.94 1.44 1.75 5.59 1.38 1.5 5.45-.05-4.01-2.3-2.34-3.54-3.67-2.4-2.56-12.05-14.87-13.56-17.69-.85-1.58-.53-3.93-1.29-5.06-.62-.91-2.39-.31-2.85-.76-1.37-1.32-.08-4.64-.29-4.76-.6-.32-2.34.42-3.06-.64-.77-1.12-.39-3.55-.98-4.63-1.09-1.99-4.83-2.81-2.91-6.78-4.69.66-2.38-1.37-3.02-4.3-.18-.82-1.78-.92-2.31-1.93-1.45-2.78-7.3-11.83-7.69-13.27-.29-1.06-.13-2.13 1.02-1.02 4.83 4.62 10.63 16.04 14.41 22.12ZM766.42 843.59c10.07 15.31 19.1 31.37 29.77 46.77 1.35 1.95 4.23 2.69 3.81 6.63l-10.84-11.61c-7.38-13.57-16.29-27.78-25.12-41.14-.94-1.42-3.01-6.79-3.3-7.04-.73-.62-2.53-.02-2.73-.21-.61-.58.47-4.01 1.5-3.98 1.81.06 5.55 8.5 6.92 10.57ZM371.99 585c2.97 2.85-8.49 3.23-9.34 2.95-1.14-.39-1.12-2.27-2.06-3.01-4.92-3.93-6.25 5.89-1.68 9.65 1.64 1.35 3.92.76 4.08 2.4-3.38.57-5.46-1.26-7.99-2.99.5 1.39.79 7.64 1.06 7.92 1.12 1.17 9.89-.31 11.93.07-1.89-3.36 1.21-6.33 3.99-7.99-1.49 4.14-3.69 6.26-1.99 10.99-4.34-1.56-13.03 1.2-16.13-2.44-1.27-1.49.1-3.05-.14-4.82-.4-2.87-1.86-6.29-.57-10.12.42-1.25 2.24-1.26 2.61-1.87 1.6-2.69 1.46-5.85 1.89-8.59.24-1.55.66-3.05 1.83-4.19 2.93-2.7.36 2.94.54 4.45.13 1.11 2.1 6.52 2.89 7.16 4.2 3.4 8.75.1 9.09.43ZM451 655.01c-.67 2.88-2.44 6.9-4.49 9-10.47 10.71-46.24 6.57-58.5-1.51l19.01 2.99c8.16 3.01 23.51 3.64 31.69.72 6.09-2.18 7.07-3.95 10-9.04.71-1.24-.58-2.75 2.29-2.16M533.72 533.29c.54.35 3.84 5.46 4.07 6.42 3.08 13.06-12.42 7.79-9.78 4.29 12.3 7.87 9.91-10.74-1.48-9.05-3.89.58-4.86 11.08-4.41 14.43.55 4.1 4.45 9.26 6.86 12.85 1.05 1.56 5.56 2.41 1.04 5.76.3-3.91-4.32-2.5-4.92-3.1-.71-.69 1.08-5.81-4.1-4.91 4.02-3.98.35-5.16-.57-8.91-1.03-4.16.2-15.41 3.85-17.8 1.69-1.11 7.74-1.09 9.45 0ZM362.59 724.64c-.08.15-2.19 2.25-2.35 2.29-11.59 1-22.67 4.65-34.03 6.78-15.63 2.93-31.59 4.81-47.21 7.28l6.19-2.28c14.7-2.67 29.74-4.29 44.37-7.23 6.39-1.28 24.71-4.42 29.34-7.08s1.86-5.03 2.11-9.4c4.3 2.12 3.51 5.97 1.58 9.64M498.99 552c.19.17 2.43-.28 3.74.3.28.12 3.98 4.3 4.13 4.57 8.97 16.38-11.24 23.42-23.86 19.13.61-2.7 4.6-.78 6.39-1.01 5.84-.77 9.77-2.66 14.31-5.99.97-.71 2.88-.7 3.27-1.06.27-.24-1.07-6.75-1.23-7.15-1.78-4.52-6.66-8.42-11.74-7.78-1.53-1.45 4.89-4.62 5.5-5.99 1.46.89-1.36 4.25-.51 4.99ZM882 873.01l-10.77 3.71-19.22 2.28c-1.76 1.67 6.29 11.3 6.95 13.55.54 1.84-1.37 1.95-1.94 1.44-.17-.16-.28-2.27-1.02-3.26-4.14-5.64-7.52-11.8-11.18-18.05l-8.81-18.67 9.02 13.47c2.72 7.41 3.01 9.86 11.46 9.52s16.93-3.99 25.51-3.98ZM838.99 592c.37 4.11 1.03 8.31 1.06 12.45.08 11.29-2.15 31.41-5.72 41.65-.56 1.62.24 2.3-2.33 1.89 1.95-4.18.93-9.14 1.61-13.06 1.98-11.48 5.76-23.29 4.35-35.32-.08-.72-1.75-.53-1.95-1.29-.57-2.21-.38-6.71 2.98-6.32M857 530.01c-.2 1.77-4.34 1.79-5.56 1.83-12.26.35-26.53-1.21-38.95-1.92-5.9-.34-12.37.45-18.49-1.42l63.01 1.51ZM304.99 532.01l-12.85 2.4c-16.58-.57-33.69 2.15-50.13.57l10.45-2.03c17.59.95 35.06-2.36 52.53-.95ZM859 752.99c-3.77-.7-6.34 2.44-9.56 2.95-11.64 1.83-30.96 1.58-42.26-1.62l-8.18-4.31c17.6 5.62 35.11 6.03 53.21 2.72 1.87-.34 4.77-4.14 6.78.26ZM595.98 563.01c.16.13 1.57 3.31 1.71 3.78 3.74 12.46-10.63 23.09-21.45 25.96-2.41.64-5.19.17-7.87 1.09-1.61.56-2.26 2.92-4.43 3.6-1.69.53-4.04-.3-5.94.56-.13-4.31 3.46-1.84 5.73-2.65 1.2-.43 1.22-2.11 2.49-2.65 2.8-1.19 7-1.05 10.01-1.95 3.81-1.13 12.71-5.91 15.41-9.09.97-1.14 4.84-9.2 4.92-10.17.07-.75-4.68-11.81-.6-8.48ZM405.98 865l6.71 14c6.22 6.72 8.09 16.03 14.3 22.5l6.99 11.5c-.96.87-6.57-5.01-7.31-6-7.46-9.94-16.03-27.76-21.02-38.7-.11-.23-4.88-3.01.32-3.3ZM466.28 526.26c-1.32 1.95-1.49 9.45 2.73 7.75-.5 2.64-3.25 1.74-4.46-.05-3.04-4.5 4.62-13.12-4.29-15.69-6.45-1.86-14.91.24-19.77 4.72-2.58 2.37-2.78 6.09-5.48 8.01-.65-12.51 19.73-19.82 28.93-13.43 1.02.7 5.09 6.52 5.04 6.94-.08.73-2.24 1.06-2.71 1.75ZM597.36 656.37c-9.54 7.87-17.13 17.45-26.32 24.18-5.95 4.36-4.22-.54-.08-4.08 6.53-5.59 11.72-11.57 17.53-16.48 3.64-3.07 8.74-5.24 12.01-8.99 2.26 4.73-1.53 4.03-3.14 5.36ZM359 323.01l-3.46 2.03c-20.49.68-41 1.79-61.54 1.95l18.78-2.71zM804.99 322.01c.23 1.74-2.27.94-3.48.99-3.3.13-6.75.14-10.06.05-12.22-.3-25.87-.48-37.93-1.29-3.87-.26-11.29-.03-13.52-2.75l45.48 1.23 19.52 1.77ZM407 570.01c-6.62 6.43 5.38 8.44 7.78 4.76.68-1.05-.18-4.31 1.79-4.67 1.29-.23 4.97 1.7 7.42-.11-1.18 4.91 2.79 1.9 4.12 3.58 1.72 2.18 1.51 5.74-2.11 4.41l1-2.98c-2.6-1.43-1.51 3.13-3.48 1.98-.96-.56-3.02-7.53-5.51-4.99-1.05 1.08 1.28 7.7.99 7.99-1.83 1.83-2.06-2.02-2.56-2.04-4.39-.23-9.82 4.99-6.43 8.05.6.54 2.67-3.42 3.98-1.5-9.29 7.8-5.09-4.93-5.44-5.53-.6-1.04-4.98-2.4-5.21-4.44-.16-1.41 1.39-5.18 3.65-4.52ZM568.45 862.56c6.64 9.95 14.21 20.98 20.36 31.13 1.74 2.87 3.74 5.87 4.19 9.3l-31.98-47.49c1.6-1.98 1.44-1.53 3.02-.04 1.69 1.6 2.91 4.86 4.41 7.1M487.99 530c-1.98-.42-4.1-5.03-6.03-4.6-5.54 1.26-3.31 11.83 5.34 9.63 1.75-.45.45-5.19 6.69-1.02.22 1.64-2.37 1.11-2.99 2.49-1.4 3.09 2.06 1.82 1.99 3.49-4.01-.29-5.36-3.36-9.78-1.32-3.65 1.69.6 6.81-3.2 6.33-2.47-3.13 1.08-6.22.89-7.36-.4-2.46-6.64-6.02-3.14-11.34 4.68-7.1 11.81 1.65 10.22 3.7ZM473.5 774c6.25 1.01-.2 4.02-.26 4.42-.11.79 1.08 2.42.71 3.97-1.08 4.49-7.04-1.42-1.95-5.39h-20.5c-1.87 0-4.97 1.59-6.5-1.99 2.39-.66 5.06-1.01 7.5-1.01 6 0 15.59-.87 21 0M646.99 776.99c-3.24-.7-6.58.71-9.5.8-4.39.13-11.58-1.23-15.56-1.29s-10.27 2.99-11.94-1.49c1.61-2.19 30.37-.09 35.35-.77l1.64 2.75ZM656.01 897c-.18-.13-.62-3.09-1.25-4.25-5.64-10.41-13.93-25.31-20.26-34.75-1.02-1.52-2.41-1.08 0-2.97l24.47 40.49c-.56.85-2.13 2.12-2.96 1.49ZM724.44 891.58c1.79 3.17 9.54 10.93 5.58 13.42-2.71-5.08-5.41-10.29-8.23-15.31-4.79-8.54-10.69-18.25-13.99-27.96-.54-1.6-1.09-2.96-.78-4.71l17.43 34.57ZM636.66 681.66c-1.42 1.75-5.73 4.82-8.14 7.37-.94.99-4.11.82-2.03 2.97.76-.44 4.33-3.22 4.5-2.99 2.03 2.86-2.64 3.45-3.94 4.54-1.88 1.57-6.46 7.8-9.04 4.46-1.74-2.25 17.81-20.73 20.98-21.99.3.36-1.88 5.11-2.33 5.66ZM668.43 545.66c.13.35 1.49.32 1.46.78-.05.91-1.51 5.19-2.39 5.55l-1.49-1.99c.87 1.29-.23 5.78 0 5.97.46.37 2.33-.85 3.33 1.23 1.47 3.09-1.13 5.8.67 8.78-2.52-1.16-3.28 2.09-3.5 2.01-4.4-1.66-3.1-9.35-.52-7 .15.14-.05 4.63 2.02 3.49-.42-1.26-.28-5.05-.9-5.86-.76-1-2.24-.36-2.82-.84-1.18-.95-1.6-16.51 2.21-17.78.81 1.82 1.19 3.75 1.92 5.66ZM372.99 862.01c.53 3-.84 1.57-2.34 2.1-1.89.67-3.92.8-5.65 2.23L327 873c-.52-3.18.96-1.52 2.53-1.93 14.3-3.71 28.79-6.85 43.46-9.06"/><path d="M886.68 621.67c-.59.55-1.85 1.01-2.67 1.33-1.44-1.9 6.93-10.54 6.8-12.51-.21-3.01-7.13-1.83-7.71-4.07-1.52-6.86 10.15-5.7 10.67-2.98.08.43-1.19 7.8-1.45 8.55-.4 1.2-4.82 8.9-5.64 9.67ZM689.76 576.23c.21.11.12 1.45.97 1.71 1.23.37 2.84-.02 4.29.52 6.86 2.56 14.36 6.72 18.98 12.52-5.86-2.29-11.14-7.27-17-9.49-3.56-1.35-12.42-3.98-14.57.48-.69 1.43 2.04 3.67 1.57 4.02-3.09 2.22-4.58-4.58-5-6.98 2.5.32 9.01-3.68 10.76-2.78M855.01 610.01c-.14 4.25-2.69 7.47-3.56 11.95-.29 1.51.69 3.11.37 4.33-.29 1.13-5.19 7.76-6.8 8.72-.47-5.08 3.66-10.47 4.47-14.49 1.05-5.19-5.71-12.78 5.53-10.5ZM698.99 868c1.82 1.51-1.24 2.15-1.99 2.45-3.46 1.38-20.02 4.33-21.05 5.1-2.67 2.02-3.99 2.54-8.35 3.66-3.08.79-7.41 1.42-10.6 1.78.44-1.53 4.03-2.57 5.44-3.04 4.43-1.48 35.08-11.16 36.54-9.94ZM597.01 715.01c2.6 2.17-3.6 1.7-4.33 1.59-11.04-1.63-18.91-7.07-29.66-9.11l-11.01-5.47 45.01 13ZM790 491.01c-.01 1.44-4.52 1.76-5.49 1.78-4.2.09-9.42-1.07-13.81-.21-9.83-2.12-20.25-.31-30.21-1.58-1.46-.19-3.1-.76-1.48-2zM359.99 493.01c1.63 1.23-.02 1.81-1.48 2-3.64.47-8.15-.19-12.01 0-5.73.29-12.54 1.4-18.2 1.58-6.37.2-12.98-.24-19.3-.59l26.71-2.56 24.28-.42ZM230.99 709c-3.37-2.37-.87-9.48-.91-13.51-.13-11.6-2.8-22.79-2.07-34.48l3.7 21.78c-.08 8.73 1.12 17.56-.72 26.21M712 352.99h-4c2.99-15.67.61-31.06 1.01-46.99l1.98 8.5c-.57 7.85 1.1 16.3.99 23.99-.06 4.45-2.64 9.82.01 14.49ZM584.99 721c-13.74-2.25-28.75-3.5-40.97-10.5 1.71-2.47 1.8-.68 3.27-.31 7.43 1.87 14.74 4.88 22.48 6.54 3.96.85 9.17.76 12.98 1.51 1.74.34 2.54.84 2.24 2.76M912.4 738.63c1.78 3.99 3.9 7.89 4.47 13 .22 1.96 1.31 6.26-1.86 5.37-.08-1.76.25-3.64-.12-5.39-2.47-11.81-7.31-19.6-13.86-29.88-.53-.83-4.46-2.36-3.02-3.73.97-.92 2.82 1.31 3.51 1.98 3.85 3.77 8.65 13.61 10.89 18.65ZM446 822.01l-12.99 4.59c-9.66.68-19.29 3.92-29.01 5.39.79-2.27 3.4-2.57 5.35-3.13 11.41-3.31 24.85-4.87 36.64-6.85ZM302 860.01l-12.03 5.26c-7.33 1.87-16 3.32-22.47 6.73-.13.07-1.47-2.35-1.47-2.49-.03-1.41 22.5-6.34 25.01-6.97 3.7-.93 6.65-3.55 10.97-2.52ZM706.93 562.14c.39.63-.95 1.91-.68 2.66.1.26 3.52 3.27 3.74 4.19-2.91 2.61-6.65-1.17-6.98-.98-.11.07.37 1.63-1.22 2.32-3.72 1.61-8.01 1.21-5.29-3.32.51-.85 2.82-1.67 3.99-3.02 1.04-1.21 1.35-3.86 1.52-3.98.41-.31 4.78 1.91 4.92 2.14ZM617.99 837.01l-6.67 2.65c-11.33.27-22.95 4.74-34.31 4.33l11.22-3.34c10-.28 19.78-4.47 29.77-3.64ZM404 852.99c1.95-6.24.95-3.78-1.69-5.76-5.52-4.15-.34-3.52 3.68-2.24-4.02-14.07 5.7-3.42 4.61 2.01-.53 2.6-3.5 6.78-6.6 5.99M563.99 870c2.79 2.25-7.51 3.85-8.24 4.09-1.36.44-2.07.83-4.53 1.52-8.06 2.27-16.14 4.27-24.22 6.39-.4-2.16.95-2.38 2.5-2.99 10.1-3.93 24.07-4.66 34.48-9.01ZM775 891.01c-.26 1.54-1.91 1.93-3.18 2.31-10.74 3.17-22.73 4.11-33.82 5.67l3.42-2.14 33.57-5.84ZM457.5 634c.36.09 1.75 1.65 1.5 1.99-6.9 3.06-25.89 4.17-20.5-8l1.51 7.02c1.01.37 2.1-1.01 2.49-1.01 3.69 0 12.16-.72 15 0M510.5 652c.46.03 1.46 1.37 2.49 1.01l1.51-7.02c5.39 12.17-13.6 11.06-20.5 8-.28-.38 1.31-1.99 1.5-1.99 4.89 0 10.19-.31 15 0M389.99 613.01c-.29 2.51-4.38-.17-5.42.09-4.3 1.11 1.12 15.75-4.08 17.87-4.9-5.11.26-12.97.5-18.97l8.99 1ZM262.89 738.85l2.1.64c-1.05 1.45-1.7 1.61-3.44 1.48-5.41-.38-15.33-7.95-21.77-7.26l-7.78-3.7c10.64 1.54 20.94 4.82 30.89 8.84M555.89 589.92c.37-.25.55-2.42 1.61-2.92 1.33 4.46 4.02-2.25 4.06 5.02-1.3 1.82-10.98-.22-11.3 4.47-.02.34 3.79 9.62-.26 5.5-.3-.31-2.15-7.73-2.08-8.45.1-.96 3.42-.43 4.04-2.04l-2.98-4.5c1.24-1.03 5.28 4.01 6.89 2.91ZM683 831.01l-6.73 2.75c-10.47.8-20.01 3.34-30.26 5.23.27-1.59 1.91-1.88 3.2-2.29 10.51-3.36 22.79-4.84 33.8-5.69ZM238.99 774.01c.28 1.97-.73 2.68-2.53 2.97-2.28.37-10.39.51-12.97.46-3.17-.06-6.43-.62-9.5-1.44-.26-1.37 1.82-1.55 2.77-1.69 6.84-.99 15.11.73 22.22-.29ZM710 381.01c-.82-.13-2.73.21-2.99-.01-1.03-.88 3.17-23.4 1-26.99 1.93-.31 2.66.78 2.99 2.5 1.19 6.37-2.21 17.49-.99 24.5ZM465.99 863.01 418 874.99l8.19-3.3c8.19-1.48 17.72-5.15 24.53-6.63 5.04-1.1 10.1-2.43 15.27-2.05M388.01 867.99c1.61.25.63-1.66 2.19-2.34 2.05-.89 4.61-.66 6.8-.65.63.54-3.53 6.23-4 6.54-1.14.73-8.66-2.22-9-2.56-.29-.28 1.97-6.44 3.51-6.98l.51 5.99ZM391.99 899c-.13.14-2.59-.64-3.83-.36-9.18 2.05-18.38 6.1-28.16 5.35l30.53-7.74c1.04.15 1.97 2.18 1.46 2.75M198.04 793.11c-.78 1.1 4.21 3.8-4.03 2.88-.98-3.09 3.05-5.17 3.03-5.5-.07-1.85-2.46-2.43-2.03-4.48 3.51-.81 9.46-2.55 7.83 3.29-.75 2.68-4.44 3.32-4.8 3.82Z"/><path d="M544 594.99c-8.06 1.45-8.12 8.79.55 9.05 2.87.09 5.34-1.69 8.45-.03.79.99-7.51 2.77-8.32 2.75-4.42-.09-11.52-5.64-7.77-10.36.65-.82 7.06-4.77 7.09-1.41M446 839c.93-4.23-3.43-4.24-2-8.99 2.5-.96 2.82 3.28 3.49 2.99 1.38-.59 3.1-4.37 4.99-3.99 2.36.47.11 5.41-.6 6.38s-5.21 4.47-5.88 3.61M285 829.01l-.99 3.99c15-4.46 1.14 6.07-.51 5.99-.25-.01-3.49-3.32-3.49-3.57-.05-2.96 1.4-6.92 4.99-6.41M385 574.01c-2.96 6.1-2.35 13.11 4.42 16.07 2.81 1.23 6.17.12 7.58 2.91-7.61 1.31-11.28-2.91-15.31-8.21-1.36-3.1-1.27-10.31 3.31-10.77M617.99 578c-3.6-2.84-13.92-5.63-8.91 1.41 4.06 5.72 8.02-1.73 11.91.09-3.35 4.85-9.83 2.63-11.98 8.02-1.25 3.13 4.84-.37 5.99.49-1.79 3.49-9.93 3.91-9.07-1.44.12-.75 5.56-2.13 4.06-5.58l-1.91.96c-.5-2.85-3.29-4.7-1.17-7.51 3.5-4.63 12.51 2.12 11.08 3.56M653 664.01c.97 2.04-3.65 2.6-4.29 2.65-4.26.29-12.28.66-16.26.4-1.71-.11-3.3.1-4.44-1.55l24.99-1.49ZM680 827.99c-11.28 3.36-7.24-11.19-2.49-10.97 3.48.16-.49 5.84-.41 6.34.22 1.42 3.55 2.36 2.9 4.63M275.99 811c-6.33-5.97-11.49-15.11-14.98-23 5.51 6.86 12.42 14.45 14.98 23M489.71 842.28c1.8 1.75 1.1 4.17 1.52 5.24.2.5 4.12.7.31 3.54-4.4 3.29-10.53-4.99-3.53-4.07-2.88-3.43-2.71-8.99 1.7-4.71M508 657c.42 2.61-.38 1.8-2.17 2.29-6.22 1.72-12.05.65-17.84-1.78-2.99-2.96 4.17-.51 4.51-.51zM460.5 639c.35-.01 7.49-2.45 4.51.51-5.79 2.43-11.62 3.5-17.84 1.78-1.78-.49-2.58.32-2.17-2.29 5.15-.13 10.35.18 15.5 0M422.4 864.65c.39.59 2.4-.02 1.6 2.34-2.78-1.14-5.97 6.02-7.99 4.01-.67-.66 1.27-4.2 1.07-5.4-.12-.75-1.88-.55-1.97-.68-1.06-1.49 4.64-4.27 5.39-3.91 1.15.56 1.17 2.53 1.9 3.64M556.99 864l-3.99-.99c1.28 6.76-3.56 7.54-3.96 1.44-.37-5.64 2.12-5.88 6.99-6.01zM342.42 879.61c.36.42 3.06.58 1.57 2.37-.64.77-9.62 3.39-9.99 3.02l3.01-9c2.84-.15 3.87 1.83 5.41 3.61M661.99 789c.19.18-.13 3.35 1.5 3.98 2.07-1.31 3.55-3.45 5.99-1.97.89-.14.62 1.85.51 1.98-.22.26-5.35 3.79-5.68 3.87-8.74 2.1-4.99-10.46-2.32-7.85ZM200.99 818l-.99 5.99c1.69.72 3.88-2.01 4.51-1.97s2.04 2.24 1.49 2.96c-.2.26-5.48 1.74-6.35 1.71-4.47-.18-5.01-11.06 1.35-8.7ZM353.99 892c.26 2.17-1.05 11.92-3.49 11.98-3.07.07.16-8.34-.49-8.98l-4-.5L354 892ZM536.85 792.14c.75 1.22.15 6.85-1.35 6.84-1.67-.64-1.28-3.76-1.52-3.98-.26-.24-5.59 1.8-6.98 0-2.39-3.12 8.08-5.71 9.85-2.85ZM722 858.99c-1.44-.15-6.37 1.69-6.99 1.01-.35-.37-1.36-8.44-1.99-10.01.54-.72 10.41 7.49 8.99 8.99ZM505.01 879.99c-1.28-1.28 2.86-5.1 1.99-5.99-14.64 4.22-2.53-7.03 2.13-1.55 1.75 2.06-1.47 10.2-4.12 7.54M339 830.01l-8.78 3.71-17.21 3.27c.19-1.55 3.69-2.15 4.98-2.5 6.73-1.81 14.11-3.35 21.01-4.48M242.87 898.14c-.64-.56-6.88.55-6.85-1.64.04-3.4 12.25-5.58 9.94 3.91-1.12 4.59-2.87-2.08-3.09-2.27M774.99 876c1.41 1.43-3.02 7.01-2 7.99l4 .5c-5.85 6.25-9.81-5.29-6.32-7.57.82-.53 3.92-1.33 4.32-.92M198 811.01c-5.03 4.37-14.32 5.86-20.99 6.99-.52-2.99.8-1.58 2.34-2.1 6.07-2.05 12.36-4.09 18.65-4.89M668.99 883.99c.31.31.89 7.38 0 8.01-.83.58-3.58-1.18-3.91-.9-.44.36.68 2.29-1.07 1.89-.05-1.49-3.02-4.76-2.01-5.99 1.86-2.25 1.71 2.58 2.98 1.99-1.17-2.51 2.09-6.86 4-5ZM260.74 729.22c.19.09 4.84 4.62 1.75 3.8-3.09-1.69-6.48-2.66-9.66-4.12-1.89-.87-3.94-1.68-5.83-2.55-1.41-.65-4.91-3.02-6-4.34 6.27 1.23 11.48 4.66 16.98 7.38.87.43 1.99-.52 2.76-.17M249.01 868c1.13-6.56-2.34-2.67-5.04-4.47-4.53-3.04 1.86-4.16 5.5-3.5 5.28.96 2.31 5.52-.46 7.97M775.99 806c.46 2.7-.49 1.73-2.17 2.27-5.27 1.68-12.28 3-17.82 3.72 4.61-4.62 13.73-4.61 19.99-5.99M880.99 831.01c-.94 7.86-12.47 13.33-9.99 2 3-.53 2.39 2.52 3.49 3.99 2.01-1.98 3.09-6 6.5-5.99M532.99 832c.37.38.91 3.99 1.02 5 2.86.7 3.88-1.89 5.98-3 .72 4.96-1.39 8.44-5.5 4-.98-.07-.24 1.68-.54 1.93-3.53 2.93-4.19-11.2-.97-7.93ZM504 784.01c.44.4-1.64 4.38-.99 4.99s5.05-1.19 4.99.99c-18.96 5.11-7.13-8.82-4-5.98M635.01 870.02c-1.36 2.95 1.37 6.25-2.48 7-5.78 1.13.51-4.1-.53-5.02-1.39.02-7.87.53-7.97-1.51s6.47.23 7.67-1.14l3.32.67ZM867 731.01c-.64 1.71-5.01 2.68-6.58 2.91-2.35.34-6.12.38-8.65.43-1.41.03-2.43 1.35-3.76-.86-.47-2.43 1.95-1.41 3.48-1.48 5.22-.24 10.29-1.05 15.5-.99ZM612 800.99c-3.89.27-5.06 3.92-8-.49 3.32-.86 1.78-3.57 2.01-6.5 4.03.14 5.25 3.28 5.99 6.99M714.01 547c1.96 2.16 1.65-2.57 2.98-2l-1.99 3.49 3 3.49-5 2.01c-.07-4 1.42-11.05-4.49-7.98-2.43-1 2.64-3.86 3-3.86 2.09-.02 2.31 4.64 2.5 4.85M817 840.01c.35.25-3.36 6.13 0 7.98l-7.99-2.5c-.25-1.14 5.61-7.15 7.99-5.48M641 578.99c-2.3 1.45-5.65.98-7.66 1.76-3.51 1.36-5.21 5.02-9.34 4.24l4-2-2-2.98c3.32-1.72 9.03-.46 11.35-.97.64-.14.99-4.77 3.65-.05M464.99 848.01c-4.18 8.04 1.91 4.57 3.52 7.99 1.25 2.66-6.01 1.12-6.37.8-.28-.25-.04-1.6-.53-2.38-.29-.46-1.39-.5-1.58-1.14-.98-3.27 2.06-4.71 4.96-5.28ZM306.01 835c.45-4.94.12-3.59-4-4.49l4.5-5.49c3.48 3.13 5.41 8.64-.49 9.98ZM405.99 881c.14.1.99 3.17.94 3.4-.4 1.83-3.75 1.42-3.93 1.61-.93.96 2.65 4.58-.48 3.98-1.29-.85-4.83-4.62-3.51-5.99.15-.16 1.89.34 2.69-.26.76-.57 1.93-4.39 4.3-2.74ZM764.44 822.46c-1.82 1.6-2.86 2.28-5.42.04 2.88-2.07 1.17-5.45 1.99-8.5.9 1.03 5.99 6.06 5.97 6.5-.01.28-1.9 1.39-2.55 1.96ZM739 885.01c-1.37 3.26-1.27 7.36-4.98 8.99-3.34-6.19-1.59-3.53 1.98-7.99l-3.99-2 6.99 1.01ZM557.99 557.01c-.1.11-2.95.37-2.99-.5l4.3-7.69 1.68-12.81c1.58 4.61 1.38 9.68-.25 14.23-.45 1.24-1.8 2.15-2.5 3.55-.48.97-.07 3.05-.24 3.22M814 851.99c-.65.7-8.35 1.09-10.01 1.52-1.83.47-8.64 3.82-8.99 3.49-3.91-3.69 17.56-6.25 18.52-6.98.84-.14.55 1.89.48 1.97M695.87 789.15c.61.99-.08 3.49.13 4.85l-8-1c-1.76-3.91 6.65-5.83 7.87-3.85M219 846.01c-1.07 3.01-1.01 4.98 0 7.99-.74.72-6.33-2.02-6.98-3.49 2.09-1.89 3.63-5.04 6.98-4.49ZM597.12 537.86c2.41 2.04 6.79-4.53 6.87 4.14-6.18-2.02-10.27 1.01-8.98-8 2.16.16 1.57 3.41 2.11 3.86M852.98 872c-3.97 3.37.31-4.77.02-4.99-14.93 2.22-2.22-7.22 1.58-1.03.55.89-1.36 5.81-1.6 6.01ZM589.01 888l1.99-4.99-5-1.02c-.71-6.17 5.03-2.96 7.98-.49zM295 595c.22 1.47-2.8 1.6-3.79 1.68-3.54.31-7.93-.5-11.68-.41-1.88.04-3.84.73-6 .78-1.13.02-3.79.63-3.53-1.04 2.4 1.06 6.16-1.01 7.5-1.01zM462 795.01c-.49 3.68-.76 5.06-4.52 5.96l.51-4.97-4.99-.51c2.65-2.14 6.05-1.02 9-.49ZM414.99 529.02c3.1 3.81-7.33-.89-8.63-.95-5.2-.27-9.3 2.51-12.81 5.99l-1.54 8.94c-.14-1.55-2.3-9.53-2-9.93.12-.15 2.39-.51 3.33-1.17 2.95-2.07 7.14-5.74 11.19-5.84 1.76-.04 9.6 1.93 10.45 2.97ZM892 856.99c-.77 1.02-6.65-.09-4.01 6.01-.75-.8-3.82-1.91-3.95-2.09-.19-.26 1.9-5.49 2.62-5.98 2.94-2 6.68.27 5.33 2.06ZM294.99 847.01c1.47 2.31-.21 4.7-.06 6.38.04.5 4.07 1.01 2.06 2.61-3.18 2.53-3.77-6.11-7-4-1.06-.96 3.64-6.02 4.99-4.99ZM234.01 844c2.6 1.74 9.5 2.08 6.06 6.57-.35.46-3.36 2.41-3.58 2.41-2.94-.03.59-3.58.45-4.35-.26-1.38-3.59-2.34-2.93-4.62ZM571.71 685.3c.75.76.82 3.7 3.31 4.44l3.97 6.26c-5.99-1.15-6.78-8.75-11.99-11.5.52-1.16 4.37.46 4.7.81ZM326 353.99c-7.17-.44-13.86-.97-21.01-.49 5.34-3.41 11.86-.21 17.63-1.4zM793.99 349.01c.23 1.78-2.25.98-3.36.87-6.48-.64-11.06-.41-17.63.11l3.38-1.89c5.86.95 11.89-1.43 17.61.91M578.01 539c-.52-2.4 2.43-5.89 2.56-7.53.14-1.87-2.82-5.26-1.07-7.47 3.65 4.18 3.56 12.01-1.49 14.99ZM600.17 544.82c2.1 1.27 5.2-2.43 4.82.66-7.5 2.64-3.64 1.64-5.18 6.83-1.8 6.1-10.64.5-14.81 1.68.16-2.25 5.39-.37 6-.98.45-.46-.73-5.01.49-5.02.35 8.2 8.13 8.76 7.6.5-.16-2.47-2.51-3.64-1.09-6.49 1.5-.04 1.57 2.46 2.16 2.82ZM367.52 880.24c1.63.12 4.39 4.38.51 5.39-6.08 1.58-4.33-5.67-.51-5.39M729 568.99l3.99-9.99c.58 4.11 2.39 10.25-3.99 9.99M437 655.99c-.45-2.32 2.25-2.85 2.8-4.69.51-1.72-.71-5.17 1.19-5.29 2.03 4.6 2.56 9.81-3.98 9.99ZM700.25 882.71c-.28-.11-.7-2.22-2.24-1.74l1.49-1.96 2.98 2.01c5.93-8.4 5.67 4.75-2.22 1.69ZM484 647c-2.04 4.76 7.89 3.07 7.98 5.5.14 3.55-8.67.59-9.96-5.02zM495.99 526c-.16 4.29 6.63 6.12 6.01 10.48-.46 3.25-5.02-3.04-5.01 2.51-3.12-1.72.58-4.63 3.01-4-.74-6.11-7.95-2.58-8.99-4-.95-1.29 3.73-5.93 4.98-4.99M471 629.01c1.19 3.99-10.15 9.87-9.98 5.49.07-1.73 6.11-1.84 7.35-2.45 1.54-.76-.67-3.9 2.63-3.04M740 802.01c1.75-1.71 7 6.86 7.59 7.9.9 1.58 2.27 1.26-.09 3.07zM381.99 606c.44 2.59-.39 1.8-2.16 2.29-3.47.96-10.11 1.22-8.82-3.29 3.74 2.04 6.94 2.52 10.98 1M218 861.01c-3.76 4.22-11.19 2.2-15.99 4.99-.51-2.93.7-1.62 2.32-2.12 4.39-1.35 9.15-2.12 13.67-2.87M715.99 523.01l-3.2.7-13.79-1.7c5.81-1.93 11.16.24 16.99 1M703.99 851.99c-3.09.6-1.48-1.09-2.08-2.37-1.64-3.52-3.71-6.93-4.91-10.63 3.71 2.61 6.3 8.52 6.98 12.99ZM634.99 531c-3.76-2-1.85-.53-3.98 1l-1-8.99c3.36-.08 3.73 5.67 4.99 7.99ZM577 857.99c-2.44 2.24-5.98-4.91-4.99-6.99 2.91-1.02 5.62 6.41 4.99 6.99M433.99 843c1.41 1.04 1.78 6.77-2.39 5.93-3.88-.78.34-7.44 2.39-5.93M417 806.01c.95 2.15-4.74 5.26-4.99 4.99-1.5-5.91-.99-6.51 4.99-4.99M723 783.01c-.18 1.73-3.72 2.39-4 3.5-.74 3.01 5.1 1.26 3.99 4.49-3.31-1.48-7.13-1.37-6.99-5.99zM562 852.99c-4.43 1.01-2.74-2.09-4.06-4.21-.94-1.51-3.84-2.3-2.93-5.78zM185.51 840.01c4.6-1.29 4.6 6.27 0 4.98-2.01-.56-2.01-4.42 0-4.98M783.99 848c.73.83-1.14 5.83-2.98 6 1.82-3.98-3.11-2.02-2.99-3.5.14-1.69 4.48-2.54 5.97-2.5"/></svg>