<?xml version="1.0"?>
<svg xmlns="http://www.w3.org/2000/svg" version="1.1" viewBox="0 0 1080 1080">
  
  <defs></defs>
  <g id="can_color">
    <path fill="#73A942" d="M562.8,309.35c-.89-5.11,1.24-10.81-1.29-15.34-1.47-2.63-4.31-4.29-7.25-4.95s-6.01-.43-9-.05c-3.68.46-7.32,1.15-10.92,2.05-2.03.51-4.1,1.12-5.71,2.46-1.22,1.02-2.08,2.4-2.82,3.8-1.12,2.11-2.02,4.33-2.57,6.65-.91,3.86-.8,7.88-.68,11.84.43,14.9.86,29.81,1.29,44.71.08,2.75.22,5.68,1.82,7.91,1.31,1.83,3.41,2.89,5.42,3.89,3.46,1.71,6.98,3.42,10.76,4.23s7.9.64,11.27-1.25c2.46-1.38,4.37-3.59,5.91-5.95,6.23-9.55,7.05-21.65,6.14-33.02-.2-2.45-.57-5.12-2.39-6.77-1.04-.95-2.42-1.41-3.76-1.86-2.92-.97-5.85-1.94-8.77-2.91-2.01-.67-4.47-2.08-3.99-4.14.43-1.84,2.83-2.26,4.73-2.29,1.94-.03,3.88-.06,5.82-.09,1.29-.02,2.66-.07,3.71-.82,3.21-2.3.12-7.89,2.29-11.2"></path>
  </g>
  <g id="Layer_1">
    <g>
      <path d="M632.51,547.61c-11.09,20.1-23.3,40.12-28.26,62.15-2.5,11.11-3.86,17.95-9.21,27.99-3.11,5.82-6.69,11.12-10.02,16.79,6.31,25.52,7.03,50.88,7.01,77.02,0,15.93-3.94,37.2,5.59,51.32,5.12,7.58,14.42,6.63,22.38,8.13-2.79,2.59-1.01,8.89.3,12.19,2.98,7.5,17.96,12.72,24.99,17.01,1.44.88,9.74,6.26,10.44,7.06,3.68,4.16,15.01,23.22,17.64,28.81,1.55,3.3,6.06,18.72,6.88,19.73.38.48,9.06,4.54,10.39,5.56,4.26,3.25,7.46,8.63,9.35,13.63-3.94-1.21-5.16-5.75-7.94-8.55-6.11-6.15-12.19-6.5-17.44-14.56-.39-.6-1.83-2.65-1.61-2.88l2.98-.49c-2.61-3.52-7.85-20.19-10.25-22.32-.5-.44-2.12.05-2.52-.35-.51-.49-.24-3.15-.96-4.59-5.72-11.31-24.09-23.87-35.35-28.67-2.9-1.24-6.61-.37-6.84-.64s.16-1.57-.19-2.05c-3.35-4.55-11.19-11.96-15.82-16.45-1.97-1.91-11.52-9.2-12.05-10.26-.88-1.75.15-3.65-.08-4.54-2.72-10.52-7.07-23.23-10.43-33.63-3.91-12.07-8.35-23.64-12.46-35.55,1.85-2.09,1.53-.13,2.07.95,6.62,13.12,9.88,29.54,15.66,43.37.61,1.47-.62,2.72,2.24,2.19-1.06-13.1.53-26.24.51-39.34-.02-15.82-1.32-24.83-4.06-40.61-.44-2.54,0-18.1-3.95-18.02-6.35,6.01-10.58,15.16-17,20.98-3.38,3.06-6.8,1.59-4.71,6.71,1,2.45,3.48,3.86,4.12,5.1,2.03,3.94,3.91,9.75,3.59,14.19-2.53-4.29-4.2-8.95-6.84-13.19-1.6-2.57-9.84-14.6-11.15-15.86-1.62-1.55-13.86-8.53-16.31-9.65-30.02-13.74-56.01-11.54-87.69-11.24-34.49.33-66.47.51-102.05-.34-8.8-.21-17.62-.72-26.46-.74l13.46-2.06c49.24,2.64,97.72-1.5,147.02-.61,21.15.38,61.37,8.49,75.51,24.17,2.01,2.23,2.38,6.38,5.32,5.36,2.65-.92,20.04-22.06,22.65-25.61,18.32-24.91,24.12-45.59,24.39-76.5.01-1.31.88-2.2-1.34-2.74l-4.9,20.52c-9.2,18.83-18.37,37.03-31.49,53.04-2.53,3.09-16.38,17.93-19.23,18.35-1.85.27-2.98-2.37-2.39-2.91.15-.14,1.76.28,2.62-.33,4.85-3.4,12.13-11.48,16.02-16.08,10.9-12.87,27.62-39.04,33.29-56.16,3.61-10.89,6.55-24.02,7.07-35.44l4,.02c-1.69,5.03-.4,10.81-.55,16.14-.12,4.29-2.77,10.31.04,14.84,2.49-1.63,1.84-4.68,2.84-6.69,7.88-15.81,16.98-32.01,26.31-46.66,2.1-3.29,4.55-9.51,7.36-12.16,1.17-1.1,1.29-.06,1.02,1.02-.9,3.58-10.83,19.25-13.5,24.1ZM617,800.99c-3.05-2.11-.38-5.53-1.4-7.02-1.21-1.77-5.67-1.87-7.59-.96-1,1.34,7.03,9.61,8.99,7.98Z"></path>
      <path d="M125,698c3.66,1.32,9.56,2.91,13.31,1.97.71-.18.74-1.63.97-1.71,9.99-3.14,15.57-10.2,24.71-13.59,12.97-4.81,28.72-.95,38.89,7.99,2.77,2.44,14.49,18.83,18.06,16.3.45-.32,3.23-8.24,4.33-10.17,4.79-8.37,9.52-15.8,15.36-23.13,3.82-4.79,9.43-11.03,14.43-15.07,2.13-1.72,13.11-9.44,14.97-10.08.93-.32,17.14.29,17.87-.53.32-.36-.14-2.42,1.06-3.47.4-.35,5.23-1.98,5.95-2.05,1.73-.16,3.31,2.53,6.54,2.57,3.41.05,6.45-2.21,9.28-2.78,2.14-.43,15.55-2.74,16.25-2.24-1.32,4.53-1.75,2.12-4.12,2.57-6.41,1.22-12.18,2.85-18.43,4.36-1.74.42-4.01-.35-5.78.22-1.62.52-2.02,3.23-3.63,4.3-1.26.84-8.31-.5-13.93,3.14-4.4,2.86-16.86,16.27-20.11,20.89-1.99,2.83-7.54,15.69-8.19,16.36-.44.45-2.18-.23-2.89.74-.39.54-6.22,10.82-6.43,11.45-.53,1.62.77,3.09.39,3.77-1.31,2.27-2.48,3.21-4.36,7.19-2.14,4.54-5.59,8.66-4.54,14.5.14.81,8.48,10.38,9.81,13.22,2.5,5.34,3.6,13.04,6.2,18.8,2.42,5.37,7.11,9.91,8.02,15.46-3.22.83-1.32-2.03-2.2-2.79-.61-.52-2.17.26-2.83-.87-2.76-4.69-5.54-12.05-7.59-17.25-2.42-6.17-3.35-12.02-7.57-18.41-1.6-2.42-3.69-4.4-5.36-6.71-3.73-.44-3.08,3.23-3.95,3.01-3.76-.97-8.27-4.42-12.3-5.2-2.18-2.11,2.03-17.08.57-19.58-.37-.63-8.39-6.34-9.74-7.79s-3.06-4.9-5-6.93c-10.4-10.89-26.48-14.51-40.45-8.38-9.46,4.14-19.12,15.97-30.25,14.14-2.87-.47-7.07-1.52-7.35-4.23-.9-.33-5.78-.87-3.99-2.98.52-.62,9.14-4.51,11.21-6.02,1.56-1.14,3.6-4.2,5.17-5.66.5-.46,2.02-.12,2.39-.55.64-.74.02-2.54.23-2.76,1.89-1.92,5.16,2.43,3.54,4.97-.52.81-2.26,1.2-3.09,2.02-1.57,1.54-5.49,5.09-7.26,5.95-1.94.95-7.83,1.83-8.14,2.11-.24.22-.13,2.23-.06,2.93Z"></path>
      <path d="M634,330c-.12-.54-1.02-1.27-.96-1.51.17-.75,2.29-1.19,2.98-2.24,9.02-13.68,17.8-30.95,27.64-43.99,1.38-1.83,10.04-9.94,10.11-10.74.17-2.12-3.1-3.09-3.51-3.8s-1.56-3.28-2.18-4.5c-1.39-2.74-2.9-8.08-4.08-11.21,2.66-.55,1.72.66,2.48,1.97,2.21,3.79,3.69,9.27,5.45,12.34,4.24,7.39,17.78-2.3,19.07,7.68-8.67.67-19.49,8.45-23.05,16.46-4.8,10.81-6.84,34.49-2.45,45.54.59,1.49,4.35,7.77,5.4,8.6,1.79,1.41,3.19,1,4.75,1.78,12.44,6.2,20.16,4.7,33.31,2.06,1.46-.29,3.72.77,4.01.58.56-.37,1.77-10.25,2.31-12.22.34-1.21,1.22-4.61,2.7-4.79,0,1.72.47,3.4.41,5.12-.41,11.32-4.29,18.5-6.12,28.64-4.63,25.65-5.28,38,6.17,61.29,1.11,2.25.07,5.39,3.07,6.94,1.92.61,1.32-1.53,1.63-1.76.7-.52,12.3-1.94,13.61-4.14l9.24-3.08-3.75,3.74-33.24,13.27c-.96,3.06,2.44,1.5,3.54,2.91,2.48,3.18-1.21,2.93-3.03,4.08-1.04.66-2.28,1.56-3.21,2.37-1.83,1.58-3.98,5.88-5.44,7.99-1.55,2.25-11.55,14.59-9.86,16.63,5.43-3.04,11.43-2.1,17.35-3.14,2.43-.43,13.22-2.21,14.43-3.06,1.15-.8,1.25-5.24,1.21-6.81,5.67-1.79.27,4.59,3.48,4.96.5.06,8.78-3.07,9.48-3.49,2.16-1.31,1.49-3.38,2.34-4.21,3.65-3.56,8-7.33,11.67-11.77,1.68-2.02,3.05-6.95,5.04-4.97-.33,5.06-1.95,4.53-3.86,7.1-5.72,7.67-19.56,21.44-29.14,23.99-2.26.6-3.78-.74-5.41-.5-9.35,1.34-20.5,1.46-29.08,3.93-1.72.49-3.48,2.97-4.52,1.48.97-2.13,3.95-3.8,4.93-5.34,2.14-3.37,2.84-8.49,4.33-11.33,2.04-3.88,9.34-9.99,10.71-12.61,1.16-2.22,1.11-7.4,2.97-9.58.2-.23,4.24-3.11,4.74-3.42,1.21-.74,6.01-1.92,6.31-2.24.75-.8-2.77-4.3-3.01-4.42-4.14-2.19-5.75.92-8.55,1.37-12.14,1.95-20.38,5.97-30.11,7.73-1.81.33-2.69-2.55-2.34,2.34-4.69-2.14-3.27.23-4.81.92-6.86,3.09-15.33,5.78-22.1,9.66-4.28,2.45-3.06,9.55-1.87,13.7.52,1.8,6.84,17.38,7.54,18.46,1.2,1.83,3.75,2.77,4.1,3.93.48,1.55-1.56,8.31-.86,9.33,3.65-3.59,10.57-6.17,14.24-8.98s6.45-8.26,11.25-10.01l-5.77,10.68c-7.9,4.34-15.36,8.92-22.26,14.29-27.99,21.76-67.46,38.15-101.2,55-6.57,3.28-13.1,7.54-20.27,9.01l12.24-7.03c32.26-18.82,64.75-31.88,96.39-52.84,1.36-.9,9.92-4.77,10.24-5.32s-.88-1.97-.37-2.84c.31-.53,1.82-.7,2.16-1.26,3.73-6.16-1.76-9.91-3.75-15.21-1.88-5-3.84-11.58-5.45-16.43-4.46-13.39-6.4-27.93-7.81-40.43-.63-5.55-3.13-11.76-2.67-17.64-7.95,3.37-7.07,12.74-16.46,14.52-6.6,1.25-6.02-2.03-9.47-5.1-6.6-5.89-11.22-10-17.37-17.67-4.46-5.55-11.91-14.64-15.35-20.59-.8-1.38-1.71-2.34-1.33-4.15l15.97,18.52c4.87,7.29,10.39,15.17,17.15,20.85,2.9,2.43,8.17,6.71,11.78,5.06,4.43-2.02,6.47-7.02,9.15-10.64s5.45-2.67,3.95-9.79c1.07-1.48,3.62,8.41,3.87,9.57,3.1,14.05,3.14,28.78,8.13,42.43,16.14-6.68,31.7-16.45,48.78-20.7,7.38-1.84,15.05-1.88,22.2-4.33.25-.34-.75-3.42-1.09-4.18-.6-1.32-5.91-13.49-5.91-14.29v-17.5c-4.63,1.46-9.25,4.41-13.99,5.52-.98.23-8.01,1.21-9.54,1.4-11.77,1.43-23.26.1-33.94-.34-2.51-.1-10.99-4.53-14.53-4.59-.03-1.77,4.41-1.1,5.48-.98,21.17,2.47,33.19,6.53,55.57.56,1.88-.5,10.6-4.24,11.28-5.76,2.76-6.2-.28-19.27,4.32-25.32-3.51-3.51,2.12-4,.34-9.48-3.28,1.65-4.84-.63-6.52-1-.36-.08-.17,1.47-1.96,2.12-4.09,1.48-21.75-.71-25.86-2.19-13.67-4.91-14.27-12.9-17.62-25.5-.89-8.37,2.34-29.55,5.74-37.16.81-1.82,9.09-12.52,11.24-10.84l7.99-5.42c-3.86-.66-6.66.77-9.84,2.65-1.8,1.07-10.09,9.45-11.6,11.39-1.65,2.14-.98,4.22-1.87,5.65-6.07,9.78-14.51,18.74-20.43,29.05-1.27,2.2-2.38,8.27-5,9.2-.8.29-1.77-.12-2.26.04,1.51,6.9-5.56,2.85-2.99,6.99-2.54-.79-5.14,2.47-6.52,2.62-.45.05-1.51-1.06-2.57-1.12-1.3-.07-3.2.56-4.26.2-9.5-3.18-10.04-15-5.13-22.65l19.97-24.03c1.16,1.44-1.36,4.59-2.2,5.74-4.07,5.53-13.03,14.2-15.87,20.19-4.47,9.44-2.06,19.71,10.11,18.62,3.83-.34,6.29-5.55,9.46-6.56Z"></path>
      <path d="M505.67,755.33c1.24.96,18.45,21.62,19.74,23.76,2.95,4.89,5.19,12.25,8.56,17.17,11.98,17.47,39.25,29.24,58.78,36.49,3.72,1.38,8.34,1.36,12.24,2.76,5.44,1.96,34.81,17.49,38.66,20.84,1.2,1.05,4.57,5.17,5.82,6.7,11.26,13.87,9.21,22.87,27.39,32.62,1.33.71,2.71-.52,2.14,2.31-5.45-1.52-11.71-4.19-15.56-8.39-8.21-8.96-12.13-24.5-23.41-33.12-3.88-2.97-6.92-3.18-10.91-5.09-1.68-.8-7.25-5.05-8.11-4.38,4.03,4.18.97,5.32,0,8.51-.18.57,1.83.31,2.03,1.13.37,1.5-.69,9.16-1.47,10.9-.54,1.2-2.13,1.24-2.33,1.6-.25.44.93,1.86.35,2.83-.26.44-7.97,5.45-8.47,5.58-7.38,1.95-16.28-1.06-22.86-4.27-5.15-2.52-7.67-6.06-11.62-8.92-12.32-8.93-32.61-5.42-47.13-11.29-3.68-1.49-19.12-11.75-21.47-14.62s-2.67-12.79-.04-9.47c.61,1.24.12,6.51.28,6.81.25.45,6.83,5.95,7.79,6.63,16.35,11.62,24.87,10.74,43.42,12.58,15.53,1.54,20.07,9.51,32.61,15.39,1.74.82,10.27,4.12,11.59,4.32,2.63.4,9.23-3.3,11.32-5.2,2.72-2.48,8.54-10.72,1.98-9.51l1.01,1.98c-6.64,1.15-9.43,5.51-17.47,3.96-8.55-1.65-11.98-10.77-16.86-13.6-12.85-7.47-32.23-2.66-47.23-7.3-5.72-1.77-15.79-7.24-20.17-11.33-.93-.87-.68-2.83-1.57-3.5-.62-.47-2.17.22-2.75-.87-.3-.56-2.08-8.79-1.85-9.2.15-.27,4.71-3.16,5.19-3.37,5.22-2.22,16.84,1.99,22.52,2.99,2.69.48,4.66-1.48,7.66,1.22l3.01-4c3.55,2.82,4.42,7.55,1,10.99-3.5-.13-1.58-5-4.11-5.87-2.05-.7-6.07.13-8.76-.24-6.31-.87-12.56-3.89-19.07-2.82-10.99,1.8,1.55,14.18,5.94,16.95,2.63,1.66,12.2,5.84,15.28,6.72,12.09,3.46,28.62-.02,39.79,4.22s17.86,20.17,31.65,14.95c.81-.31.87-1.4,1.59-1.81,1.2-.68,3.03-.5,4.21-1.59.8-.74,3.96-9.96,3.79-10.87-.89-4.74-26.63-13.29-31.6-13.45-1.36-.04-1.55-.07-2.74.72-2.13,1.41-3.29,6.85-4.94,6.08-2.44-1.61-1.05-4.23-1.54-6.31-.18-.74-1.56-.67-1.68-.9-.21-.41.88-1.66.72-1.77-2.36-1.65-5.97,4.24-8,4.99l4.99-8.48c-2.28-1.46-4.53-1.47-7.22-2.79-2.84-1.39-4.43-5.66-5.28.26-5.29-1.18-1.47-7.4-6.5-5.99,1.08,3.73,3.86,4.85-.5,7.97-3.24-2.58-1.52-9.44-3-11.98-.94-1.61-7.16-4.51-8.84-5.95-.46-.4-1.89-2.17-3.24-3.42-7.25-6.79-10.63-12.74-15.3-20.47-10.14-16.81-28.6-41.19-49.88-43.91-14.26-1.82-39.98,7.78-51.98,14.69-1.72.99-3.92,1.85-3.78-.96,1.74-2.38,19.71-8.92,23.75-10.26,27.9-9.21,39-8.48,62.43,9.59Z"></path>
      <path d="M886,700c-1.56,0-2.17-.14-3.46,1.01-4.03,3.59-6.93,17.54-12.45,22.33-4.16,3.61-7.57-4.76-9.29-6.06-.39-.3-2.89.58-3.64-.51-.49-.71.07-2.46-.18-2.76-.11-.14-1.93.56-3.54.07-2.43-.74-3.32-2.58-4.23-2.99-15.22-6.8-47.67-24.53-62.87-25.72-2.45-.19-9.48,1.01-11.62.44-1.26-.34-14.93-7.31-16.65-8.35-2.06-1.25-15.46-17.94-17.92-21.11-12.92-16.7-23.46-35.46-34.07-53.91-3.78-6.57-9.76-12.45-11.07-20.44l9.41,13.08c12.09,20.84,24.69,42.11,39.23,60.77,8.75,11.23,17.26,23.38,32.16,26.93,2.12.5,3.81-.5,5.36-.24,19.83,3.33,33.1,9.98,50.67,18.33,12.67,6.03,26.6,11.63,37.16,21.12l12.52-23.07-.45-3.29-49-32.2c-1.97-1.24.19-2.5,1.46-2.48,1.09.01,10.26,7.65,12.29,8.96,7.86,5.08,15.17,10.9,22.56,15.72,2.82,1.84,18.02,8.56,18.63,9.41.28.39-1.05,3.49-.99,4.95,4.95,0,17.85,7.02,23,9.55,1.44.71,2.49-.22,2,2.45,0-.27,2.01-2.71,1.04-4.96,7.6-.91,11.85-4.54,19.8-3.38,5.79.85,9.9,4.48,12.81,5.04,1,.19,2.35-.76,3.58-.46,5.03,1.26,7.72,6.17,10.31,10.22-2.3,5.54-.68,12.43-2.65,17.73-3.09,8.28-12.64,14.7-17.29,20.97-10.99,14.8-10.42,41.18-19.91,51.54-2.52,2.76-2.77.13-5.81,5.12-.28.45-9.26,2.26-10.35,2.22-2.18-.08-11.9-3.59-13-5.06-4.27-5.72,4.53-26.07,7.47-22.97-.09,3.39-9.18,19.77-2.54,20.76.6.09,10.02-5.09,10.81-5.73,2.46-1.98,6.88-8.69,7.55-11.8.71-3.31.7-9.91,1.57-13.52,2.13-8.83,14.05-36.85,21.59-41.21.78-.45,2.15.7,2.79.33.35-.21,5.56-5.47,5.72-5.84.2-.45,2.57-8.99,2.61-9.48,1.06-15.46-20.97-18.16-31.39-13.31-3.06,1.42-.19,2.57-.16,5.28.06,5.03-1.87,12.68-3.53,17.48,5.38,3,11.46,6.81,12.97,13.03h-9.99s2,5.5,2,5.5c-3.71,2.21-2.82-1.3-4.11-2.9-1.85-2.29-4.08-1.41-2.89-6.59l8.99.99c1.14-1.04-8.32-7.85-9.52-8.04-1.87-.31-1.2,1.7-2.7,2.35-1.61.69-7.2,1.4-7.61,1.87-.68.78-1.6,12.39-.21,13.42,1.72,1.27,9.35-2.29,12.04-1.09-3.24,2.44-6.87,4.12-11,3.51,1.12,3.12.1,6.79.32,9.33.08.85,1.42,1.67,1.47,3.91.16,7.45-2.6,13.09-4.8,19.76-6.43-.74-2.97-2.3-3.19-5.49-.25-3.54-2.12-6.54-2.51-9.15-.16-1.07,1.02-3.07.71-3.35-3.41-3.11-4.46,7.76-6.99,7.99-.69-6.49,6.56-14.49.72-20.71-2.49-2.65-14.78-.34-14.79-5.79,0-4.09,13.26-4.49,16.92-9.15,1.42-1.8,2.66-7.71,2.19-9.83-.3-1.36-4.01.83-3.05-2.52,6.23-1.27,8.98,5.89,11.89,6.52,6.2,1.33,11.73-7.1,12.65-12.46.84-4.86-.58-6.67-.55-10.06-3.49-.23-9.64-2.1-11.27-4.69l-12.75-4.82c-.97-.6-.94-1.5-.98-2.49ZM947.63,743.64c4.53-6.43,8.38-18.32,5.1-25.87-4.23-9.73-2.14,4.81-2.2,5.76-.76,11.4-10.79,14.37-16.54,20.25-3.99,4.08-11.83,21.18-13.71,27.01-3.63,11.27-3.2,26.98-12.78,35.22-3.04,2.62-8.07,2.73-10.5,5.98,11.69,4.65,23-6.28,25.56-16.92,3.46-14.44,5.15-28.2,14.47-40.31,2.73-3.54,8.18-7.69,10.6-11.12ZM890.71,748.7c2.79-3.21-1.6-7.08-3.71-4.69-.42.47,1.43,3.44,1.01,3.99s-4.2-1.6-3,3c1.72.22,4.66-1.09,5.7-2.3ZM877.66,747.22c-1.3.11-2.77,1.29-3.64,2.28,2.5,2.93,5.43,2.96,7.96,0-1.04-1.18-2.69-2.42-4.32-2.28ZM897.6,765.59c1.64-3.04.46-4.64-1.09-7.59-3.61,2.99-5.39,7.8-1,10.99-.1-2.17,1.82-2.9,2.09-3.4ZM896.01,779c2.21-.86,3.95-7.01,1.48-7.99-4.75-1.89-1,6.16-1.48,7.99Z"></path>
      <path d="M727.44,180.58c.17.33,1.27.38,1.5,1.16,1.24,4.23.31,7.76,4.39,11.93,5.81,5.93,12.62,2.28,17.53,10.98,3.49,6.18,3.32,15.05,6.34,20.7,1.72,3.22,7.81,10.44,10.42,13.54,2.01,2.39,5.37,4.95,7.37,7.63l-4.99.5,1,2.98c-1.12,1.06-23.84-11.94-25.7-14.28-5.94-7.47-4.09-21.69-13.03-28.75-8.18-6.47-10.84-10.72-17.6-16.61-1.54-1.34-4.4-1.63-5.66-3.85.5-.62,3.78-.29,4.29-.1,5.06,1.87,11.4,12.32,16,16.3,1.84,1.59,4.76,1.82,7.23,4.27,1.19,1.18,7.46,11.62,7.99,13.12,1.02,2.87,1.22,5.84,3.01,8.84,4.03,6.75,10.84,12.04,17.45,16.08.59-2.55-2.17-2.36-3.04-3.69-3.86-5.92-8.6-11.89-10.65-19.1-1.27-4.46-1.07-13.84-3.8-17.21-.21-.25-4.93-3.82-5.23-3.94-3.7-1.49-4.98.57-9.66-4.16-5.28-5.34-7.28-16.98-8.87-18.64-.44-.46-3.2-1.04-4.54-1.97s-2.01-2.77-2.45-3.01c-3.95-2.19-14.5-1.44-18.98-.02-2.65.84-11.96,6.54-13.02,9.01-2.31,13.86,5.23,4.28,12.47,2.43,1.13-.29,3.85-1,3.77.8-.04.78-13.24,5.14-12.97,6l9.31-1.24c21.04,2.03,6.09,31.11,19.42,37.52,3.46,1.67,4.82.12,6.62.5,6.52,1.39,4.95,10.79,6.08,15.78,3.28,14.51,12.92,27.05,23.56,36.93-10.43-2.73-15.12-12.66-20.04-21.24-1.98-3.44-5.32-8.34-6.26-12.96-.82-4.03-.92-10.54-.68-14.77-2.54-1.61-7.85.25-9.4-.03-.69-.12-.55-1.65-.82-1.8-.97-.52-2.22,2.04-4.67-2.02-5.34-8.84-4.47-18.81-4.76-28.92-7.62-10.35-14.88-3.65-25.35-5.25-1.09,4.68,2.34,2.36,3.01,3,.25.24-.96,3.07-.92,4.38.2,5.43,3.23,8.38,2.71,13.83-.37,3.85-.73,4.99-.8,9.2-.01.64-1.69.61-2.3,1.82-3.32,6.58-4.49,9.91-9.16,15.82-1.61,2.04-1.36,5.32-5.53,4.94,4.68-9.89,11.31-17.54,12.75-28.83s-5.21-27.28,1.24-36.67c1.65-2.41,12.31-9.99,15.07-10.93,10.5-3.59,25.19-.09,30.38,10.02Z"></path>
      <path d="M557.69,290.31c.5.36,1.95,2.84,2.08,3.46,3,14.4-23.94,11.26-31.77,8.23-.76.81.52,17.58.45,20.5-.29,11.66-2.95,24.09-1.9,36.01.34,3.89.46,8.53,4.6,9.84,9.89,3.13,18.34-.39,27.85.15-1.78,1.51-3,4.01-5.52,4.48-6.86,1.3-11.81.67-18.34-.44-1.35-.23-2.87.72-4.39.29-3.2-.91-6.88-5.75-7.46-9.14-2.07-12.03.61-26.15,1.15-38.2.42-9.43-1.17-19.32,1.58-28.49,8.27,2.76,15.59,4.17,24.42,2.93.66-.09,6.32-1.71,6.56-1.96.58-.63-1.26-4.63-1-5.99-3.51,2.52-2.87-.98-3.56-1.03-.28-.02-5.25.85-5.45,1.04-.22.21.99,4.73,0,6-3.67-1.45-10.84.32-8-5-3.3,1.06-6.6.61-9.99.5,4.33-4.94,24.11-6.52,28.69-3.19Z"></path>
      <path d="M531,569.99c-.61.62-13.88,5.09-16.23,6.28-10.38,5.26-20.44,13.69-31.59,17.41-6.09,2.03-13.29,2.65-19.6,4.46-40.52,11.58-79.75,24.16-117.33,40.79l-15.24,2.56c-.61-1.9,1.57-1.82,2.79-2.16,26.16-7.28,52.08-20.44,78.22-29.8,20.45-7.32,41.95-12.23,62.95-16.96s35.95-17.61,55.54-24.55c.85-.14.56,1.9.48,1.97Z"></path>
      <path d="M221.67,617.33c5.8,3.94,10.79,11.01,17.59,14.95,8.33,4.83,20.02,7.1,25.74,15.71-3.56-1.31-6.83-3.35-10.23-5.07-1.31-.66-.41-3.45-4.76-.91.51-5.1-.95-1.59-2.97-2.46-1.27-.55-3.29-3.63-5.5-4.61-1.96-.87-4.25.02-6.5-1.47-1.9-1.26-8.2-9.82-9.19-10.32-.52-.26-2.32,1.21-2.85.87-.18-.11-.85-3.91-1.02-4.02-.22-.15-2.3,1.39-2.89.97-.23-.16-.43-2.22-2.14-3.41-2.93-2.06-6.32-1.33-8.63-2.3-2.91-1.21-5.33-3.79-8.35-4.75-11.34-3.62-30.25,1.33-40.09,6.94-1.09.62-2.73.27-3.63.83-1.05.66-7.65,8.51-8.89,10.16-4.82,6.42-7.95,13.91-13.36,20.09-2.58,2.95-21.79,19.42-24.02,17.47-1.71-1.49,1.3-2.19,1.87-2.59,7.91-5.5,15.99-10.1,22.12-17.91,6.67-8.49,12.91-25.29,22.08-30.92s27.52-9.53,37.74-7.87c5.61.91,23.41,7.6,27.85,10.62Z"></path>
      <path d="M707,281.99c.4.26,1.61-.6,2.48-.43,11.38,2.17,30.8,8.42,41.7,12.76,16.04,6.38,27.95,17.87,42.31,26.69,4.83,2.97,10.63,4.38,15.01,8.03,3.33,2.78,11.13,16.13,10.15,20.31-.75,3.21-5.77,9.67-8.65,11.66-.28-3.53,6.14-9.87,6.09-12.43-.15-8.74-6.76-10.92-8.11-18.58-4.09,2-2.36-.41-4.68-1.76-6.75-3.92-11.49-6.12-18.34-10.66-15.54-10.31-25.17-17.92-43.76-24.28-10.46-3.58-25.81-6.03-34.98-9.95-1.09-.46-6.17-5.96-8.23-6.84,1.6-1.17,7.98,1.96,9.08,3.03.94.91-.19,2.41-.08,2.47Z"></path>
      <path d="M790.42,634.59c8.01,11.1,10.89,9.57,21.28,15.22,5.62,3.06,11.16,7.9,17.3,9.21-.05,2.13-3.89.77-4.99.48-2.79-.73-7.99-4.07-11.2-5.59-9.77-4.64-17.55-7.53-24.11-17.15-15.04-22.05-34.37-67.63-41.58-93.36-.56-2-1.72-4.96.39-6.38,4.65,15.93,10.39,31.63,17.14,46.85,6.29,14.17,17.13,38.76,25.77,50.73Z"></path>
      <path d="M378,859.99c.2.17,1.75-.42,3.06.68,8.05,6.72,16.72,28.49,25.69,33.09,1.47.75,6.93,1.94,7.25,2.26,2.92,2.94-5.29,1.07-6.23.72-7.78-2.93-20.27-23.25-26.23-30.78-4.75-6.01-4.8-6.43-7.76-14.22-5.95-15.68-8.62-31.75-15.26-48.73-5.62-14.37-5.83-18.55-21.5-24.4-1.38-.52-5.48,1.73-1.54-2.48,19.45,4.98,20.19,13.61,26.04,29.87s11.17,34.2,16.96,51.11c.47,1.37-.58,2.79-.47,2.88Z"></path>
      <path d="M453.01,876c1.47-5.31,3.18-11.11,2.72-16.67-.35-4.24-3.15-8.72-3.46-12.09-.15-1.63.89-3.32.58-4.54-1.02-4.1-1.17-2.02-1.81-8.14-2.37-22.56-2.68-42.15-2.47-65.05.03-2.79-.04-7.34,1.94-9.5.16,6.74,1.13,13.97,1.33,20.64.45,15.28-1.5,30.2.19,45.84,1.36,12.64,10.49,34.25,5.2,45.23-.8,1.66-2.51,3.5-4.2,4.29Z"></path>
      <path d="M309,777.01c.15,3.56-3.11,6.72-3.74,8.75-2.51,8.03-2.8,23.42-6.84,30.17-2.01,3.37-7.45,8.04-9.67,11.29-4.59,6.73-8.43,15.24-12.8,22.29-9.14,14.73-21.7,31.76-31.93,46.22-2.2,3.11-3.86,9.2-9.01,9.28l2.99,1.48c-4.68,2.03-10.48,9.51-15.54,10.45-4.18.78-11.27-.66-15.88-.79-6.4-.18-16.61,4.06-14.36-6.96,4.5-4.37,9.82-4.39,14.69-6.79,4.19-2.07,19.65-16.2,22.06-20.2.18-.3,2.67-5.3,2.98-5.97.77-1.7,3.68-12.18,4.56-12.21,1.97-.08.97,2.81.79,3.75-.41,2.12-2.63,8.39-3.57,10.44-3.69,8.02-18.43,22.72-26.47,26.53-2.9,1.37-13.36,2.95-13.26,7.74.07,3.12,10.96,1.4,12.53,1.47,7.35.31,12.52,2.33,19.41-1.52,12.68-7.1,27.96-35.64,36.62-48.4,3.87-5.71,8.86-11.28,12.53-17.23,5.92-9.6,12.46-18.96,18.76-28.46,8.08-12.18,5.47-27.19,12.13-38.87.78-1.38.78-2.93,3.04-2.45Z"></path>
      <path d="M212.41,641.63c.08.2,1.12.38,1.51,1.17,2.25,4.67,2.84,10.19,1.66,15.27-.87,3.75-6.64,10.72-10.58,10.94,2.77,3.47-4.13,2.5-7.01,3.47-2.61.87-4.95,3.5-6.97,4.11-15.1,4.52-6.63-21.6-6.54-28.06s-3.95-15.32-2.46-22.52l4.93,21.63c-1.13,7.05-2.64,13.61-1.94,20.88.87,9.16,6.63,2.44,11.34.33,2.74-1.22,14.55-5.52,15.43-7.1.48-.86-.03-2.3.3-2.94.5-.99,1.73-.86,1.89-1.51,2.44-9.76-8.61-22.21-8.96-32.3,4.56,3.72,5.1,11.2,7.4,16.63Z"></path>
      <path d="M438.81,878.27c.55.41,6.48,8.06,2.69,7.71-.39-.04-3.99-5.37-5.3-5.9-3.38-1.36-11.59-.58-15.24-1.54-6.92-1.82-14.17-7.11-18-12.79-12.25-18.13-17.7-26.8-19.86-50.44-.95-10.45-.83-22.21,1.91-32.31,1.7-.19,1.09,3.45,1.04,4.54-.86,18.27-1.77,43.97,7.75,60.16,1.43,2.43,3.67,4.21,5.22,6.78,6.59,10.85,6.25,16,20.19,20.81,3.93,1.36,18.79,2.39,19.59,2.98Z"></path>
      <path d="M509.99,775.01c.56.62-1.61,4.59-2.16,5.37-2.41,3.38-8.61,8.44-10.63,12.29-5.11,9.77-7.25,41-7.75,53.05-.37,8.99,3.06,24.6-1.02,32.21-2,3.72-7.92,7.08-9.94,11.07-4.25-1.8,2.37-5.33,3.87-7.13,10.14-12.12,4.37-21.13,4.57-35.4.29-20.3,1.82-49.47,15.1-64.89l7.95-6.58Z"></path>
      <path d="M699.36,570.35l-68.36,89.64c1.54-6.64,7.18-12.14,11.33-17.66,9.31-12.34,19.43-25.77,28.5-37.96,9.59-12.9,18.13-27.11,30.67-37.37l-2.14,3.34Z"></path>
      <path d="M445.42,889.42c-6.43,5.81-13.64,10.36-19.76,15.78-.7.62-4.04,3.49-3.65,4.29,2.38,2.58,6.25,2.86,9.53,3.53,6.9-1.8,15.2.51,21.71-1.3,2.13-.6,11.63-10.77,13.77-13.21,2.78-3.17,3.73-9.33,8.98-8.51l-6,6.69c-1.95,4.6-9.77,12.78-14,15.89-.88.65-3.64,1.83-4.65,2-3.3.56-20.37.53-23.37-.07-12.08-2.43-8.68-7.59-.99-13.02l-6-3.49c13.64,1.49,20.5-9.21,30.5-16,.92,3.06-4.19,5.7-6.09,7.41Z"></path>
      <path d="M635.02,216c2.69-1.53,6.48-4.62,9.58-4.98,13.1-1.55,12.85,17.66.41,16.97,2.96-3.91,6.44-4.3,5.68-10.34-1.26-9.97-13.22,1.61-15.15,1.95-5.23.93-4.34-6.22-5.56-8.81-.71-1.49-5.23-6.75-5.7-9.45-.18-1.04,1.05-2.6.63-3.18-.33-.45-2.01-.49-2.4-1.09-.49-.76.77-2.4.06-4.02-2.61-5.95-12.79-8.31-12.54-15.05,3.31,4.37,8.94,5.71,12.43,10.06,5.76,7.18,7.75,19.93,12.58,27.94Z"></path>
      <path d="M621,293.01c.19.19-2.47,3.87-3.02,4.51-12.78,14.7-20.4,33.88-13.19,53.44,5.41,14.66,16.78,24.61,22.21,39.03-4.6,1.07-3-2.98-4.38-5.63-4.35-8.35-12.76-16.43-17.17-25.3-8.82-17.75-6.89-27.25-.49-44.6,1.23-3.32-.35-7.5,4.05-6.46-2.09-3.76-.12-2.37.95-3.75,1.38-1.78,2.59-4.17,4.07-5.75.73-.78,6.22-6.22,6.96-5.48Z"></path>
      <path d="M756.6,415.62c-.66,1.22-4.86,7.49-5.57,7.91-7.91,2.1,2.3-6.97,2.95-8.29,8.39-16.94,12.22-35.89,19.4-53.35,1.71-4.16,2.74-12.1,7.6-13.88,1.09,1.38-7.2,18-8.3,21.19-5.36,15.5-8.15,31.82-16.09,46.43Z"></path>
      <path d="M630.66,666.76c-.2.29-1.51.13-1.61.29-.35.62,1.41,1.39,1.54,2.41.17,1.37-1.59,6.95-1.67,10.05-.44,17.43,2.97,27.33.09,47.03-.07.5,2.07-.03,2.07,1.88.05,11.07-5.24,28.09-7.71,39.24-.45,2.06,1.76,8-3.37,8.33,1.09-5.61,2.63-11.15,3.73-16.76,5.76-29.34,3.44-47.02,2.83-76.73-.11-5.42-.32-14.91,3.94-18.49,1.01.2.61,2.07.15,2.76Z"></path>
      <path d="M776.99,348.01c-2.64,3.73-6.12-.67-6.47-.78-13.25-4.24-27.82-11.4-42.12-15.13-7.09-1.85-14.66-.72-21.78-2.19-5.72-1.18-14.52-3.87-16.61-9.91,11.81,9.77,26.12,6.96,39.38,10.11,5.59,1.33,14.15,4.28,19.78,6.22,9.75,3.38,18.49,7.47,27.82,11.68Z"></path>
      <path d="M240.57,861.68c-2.66.19.84,3.01-2.05,2.3-5.77-1.41-.72-3.32-.51-3.67,11.27-18.81,21.6-37.81,24.03-59.78.6-5.38-.58-11.48,1.46-16.53,1.54,3.49,1.31,9.45,1.04,13.29-1.86,26.52-12.36,41.67-23.96,64.38Z"></path>
      <path d="M676,183.99c-5.14.26-3.26-3.16-4.28-4.7-2.37-3.59-14.5-12.91-18.72-13.89-2.31-.54-3.38.69-4.43.62-.65-.04-.44-1.87-1.18-1.99-7.49-1.2-21.96,1.42-28.73,5.13-1.16.63-4.66,5.19-4.66,1.35,8.94-9.31,28.23-10.72,40.21-7.23,9.27,2.7,20.68,10.31,21.78,20.71Z"></path>
      <path d="M745.99,481c3.63,13.8,2.72,24.76-2.44,37.93-.31.79.69,2.19.26,2.84-5.63,8.38-12.18,18.46-19.41,26.14-1.36,1.44-10.22,10.14-11.39,9.1l19.84-22.65c6.22-9.97,10.66-18.25,12.73-30.36.41-2.37-.83-4.6,1.41-6.5l-1.99-.5c-.47-1.71,2-.52,1.94-1.42-.2-3.37-2.8-9.6-2.97-13.08-.1-1.99.22-1.57,2.01-1.5Z"></path>
      <path d="M797,383c.02-.48-1.25-1.97-1.06-3.37.1-.75,1.81-.71,2.07-1.3.77-1.74.59-3.94,1.28-5.05.33-.53,1.83-.87,2.59-1.86.91-1.19.47-3.53,2.11-3.41.3,1.91-4.6,14.3-5.15,14.87-.48.48-1.47-.02-1.84.13-.56,14.45-14.73,27.56-23,37.5-4.61,5.54-8.78,11.99-13.8,17.2-.98,1.02-.98,2.83-3.19,2.3-1.62-1.67,12.89-17.44,14.6-19.39.63-.71.57-2.28,1.39-3.08,1.28-1.24,3.89-1.36,4.01-1.54.14-.21-1.37-2.33-.99-2.9.15-.22,3.36-1.18,4.3-2.06,3.93-3.7,11.95-18.35,13.62-22.75,1.24-3.26-1.72-3.35,3.06-5.28Z"></path>
      <path d="M407.23,762.34c-13.88,5.08-32.41,11.44-47.6,12.32-2.03.12-7.04.22-8.63-1.17,22.29-3.41,44.94-6.73,65.54-16.48,6.19,1.44-4.12,4.53-6.66,5.44-1.07.38-2.06-.33-2.66-.11Z"></path>
      <path d="M102.99,672c1.73,3.31-3.67,7.5-3.75,8.48-.08.92,5.66,6.97,6.47,7.32,5.37,2.3,16.48-.99,21.9-2.64,1.15-.35,3.24-3.44,6.38-1.66-7.13,4.68-21,9.43-29.19,6.26-5.2-2.02-6.62-8.73-10.71-12.4-.48-2.69,6.45-5.9,8.91-5.35Z"></path>
      <path d="M606.01,203c3.63-5.39,15.72,3.43,12.98,7l-10.34-6.18c-1.05-.38-1.01-1.46-2.15.19-1.76,2.54-2.57,10.42-4.5,14.5-1.18,2.5-4.8,6.42-5.04,8.04-.94,6.46,10.32,8.43,3.04,15.45.49-8.96-9.04-9.85-3.8-19.33.75-1.35,2.24-1.42,2.56-1.88.14-.19,1.96-2.99,1.99-3.23.48-4.59,2.53-9.14,3.22-14.13.43-3.12-1.67-10.19,2.02-12.43l.02,12Z"></path>
      <path d="M751.3,272.77c.55.46,2.07,0,2.47.4.63.63.04,4.38,2.22,5.34l-4.05-.95c-8.64-11.5-12.89-25.35-14.93-39.55,5.43,6.9,6.17,16.92,9.52,24.97.57,1.38,4.35,9.45,4.77,9.8Z"></path>
      <path d="M583.35,357.66c2.93,2.75,7.86,5.68,10.89,8.33,2.89,2.52,9.64,11.59,13.26,11.07,1-.15-.19-2.5,1.5-2.04l2.01,4.98c-8.66.47-13.17-7.98-18.75-13.02-2.13-1.92-7.35-4.82-9.29-6.7-2.53-2.46-6.24-8.35-8.96-11.26,4.93.43,6.93,6.38,9.35,8.65Z"></path>
      <path d="M637.99,244c.76,3.13-2.44,1.86-3.76,3.23-4.18,4.36-3.34,6.61-10.44,10.08-2.57,1.26-11.01,3.76-13.87,3.26-2.1-.37-7.42-2.92-7.91-5.1-.9-4.03,5.16,1.68,6.02,1.97,8.81,3.03,17.34-3.5,23.61-8.8,1.65-1.39,2.72-5.11,6.34-4.65Z"></path>
      <path d="M753.99,268c-1.43,1.13-5.21-8.52-5.71-9.78l-2.27-19.22c3,1.44,2.05,5.76,2.93,8.48,1.16,3.6,7.92,18.25,5.05,20.52Z"></path>
      <path d="M562.29,316.69c1.63,2.14,5.39,1.76,6.53,2.51.7.46,2.47,9.52-.81,9.8.21-2.69-.75-5.91-2.93-7.58-2.82-2.16-8.37-.52-6.87-5.93.18-.65,1.8-.44,1.82-1.05.03-.98-1.17-2.49-1.06-3.94.27-3.39,1.74-6.81,1.03-10.5,4.8,2.89-.15,13.49,2.28,16.69Z"></path>
      <path d="M631,278.01l-12.51,4.97c-5.55,4-7.73,8.38-11,14.05-.76,1.32.17,2.51-2.49,1.96,1.36-11.97,13.6-22.66,25.99-20.98Z"></path>
      <path d="M651.31,233.73c1.4,2.84,5.56,8.09,8.44,10.25,2.72,2.05,7.47,1.25,5.24,6.03-1.94-1.69-5.24-1.52-6.98-2.53-1.37-.8-1.41-2.36-2.36-3.18-.53-.46-1.92,0-2.71-.93-1.32-1.56-5.99-12.3-1.95-13.36,0,1.28-.28,2.5.32,3.73Z"></path>
      <path d="M559.82,352.18c-.43-.46-1.96.28-1.83-.69-.56-2.34,2.07-1.09,2.07-2.04,0-1.02-1.17-2.46-1.08-3.94.1-1.75.97-3.33,1.07-5.06.16-2.78-2.18-6.38,1.94-8.44-.97,6.68,1.99,21.71-.3,27.52-.78,1.98-2.16,1.39-2.58-.14-.67-2.44,1.15-6.75.72-7.21Z"></path>
      <path d="M556,318.01c-.34,2.13-6.45,2.31-6.93,3.07-2.23,3.49,3.68,3.58,5.92,4.45l7.02,3.47c-11.28,1.34-25.7-10.53-6-10.98Z"></path>
      <path d="M149.14,648.86c-1.17-6.27,1.63-9.85,7.44-5.9,1.31,4.53-3.32,8.42-7.44,5.9Z"></path>
      <path d="M721.99,451.01c.07,2.59-2.88,4.55-1.92,7.37s6.05.45,6.93,3.62c-7.17,1.09-6.18-.53-9.97-4.56-1.01-1.08-5.12-1.83-2.34-3.42.83-.47,7.03-3.28,7.3-3Z"></path>
      <path d="M333.01,775c.43,5.91-1.82,1.63-3.68,1.31-4.4-.75-11.81,2.5-15.33-3.31l19.01,2Z"></path>
      <path d="M609,220c-1.78-1.4.25-5.83,3.48-4.99,4.01,1.03-1.35,6.68-3.48,4.99Z"></path>
    </g>
  </g>
</svg>