<?xml version="1.0"?>
<svg xmlns="http://www.w3.org/2000/svg" version="1.1" viewBox="0 0 1080 1080">
  
  <defs></defs>
  <g id="can_color">
    <path fill="#73A942" d="M311,509.06c-6.77,4.02-15.45,2.63-22.82-.14s-14.4-6.81-22.2-7.87c-13.63-1.85-26.98,5.66-40.73,5.24-1.95-.06-3.97-.27-5.81.38-1.81.63-3.23,2.02-4.6,3.37-3.02,2.98-6.04,5.97-9.06,8.95-1.96,1.93-3.98,3.97-4.82,6.6-.65,2.03-.51,4.22-.28,6.34.7,6.35,2.24,12.6,4.56,18.54,1.06,2.71,2.33,5.42,4.35,7.52,2.48,2.57,5.88,4,9.2,5.31,10.32,4.07,20.83,7.64,31.5,10.68,4.18,1.19,8.47,2.31,12.81,2.11,8.14-.38,15.28-5.29,21.92-10.02,8.04-5.73,16.38-11.79,20.94-20.55,2.3-4.42,3.51-9.31,4.7-14.14,1.19-4.85,2.39-9.7,3.58-14.55.54-2.21,1.06-4.66,0-6.67s-4.47-2.72-5.5-.69"></path>
    <path fill="#73A942" d="M276.9,360.21c-9.11,5.34-15.35,14.44-20.4,23.71s-9.28,19.09-15.79,27.41c-.79,1.01-1.64,2.06-1.85,3.33s.55,2.79,1.82,2.91c.76.07,1.48-.36,2.12-.78,10.44-6.92,18.85-16.58,29.31-23.47,12.76-8.4,28.1-12.29,43.35-13.08.69-.04,1.45-.05,2,.38.82.64.74,1.89.5,2.89-1.67,7.13-7.14,12.79-13.15,16.96s-12.76,7.21-18.77,11.39c-8.43,5.87-15.3,13.97-19.71,23.25,19.38-3.92,39.29-5.24,59.01-3.92,5.9.39,13.03,2,14.74,7.65.45,1.49.41,3.18-.37,4.53-1.57,2.74-5.27,3.15-8.42,3.25-8.23.26-16.47.52-24.7.78-9.35.3-19.23.75-27.06,5.87,16.48.39,32.91,2.6,48.9,6.58,1.11.28,2.3.56,3.39.18.79-.28,1.41-.88,1.99-1.48,5.25-5.49,8.55-12.51,11.76-19.39,2.32-4.97,4.63-9.94,6.95-14.9,3.57-7.66,7.18-15.44,8.49-23.79s.04-17.48-5.32-24.02c-6.2-7.58-16.39-10.26-25.71-13.29-9.26-3-18.38-6.76-28.05-7.88s-20.28.83-27.09,7.78"></path>
    <path fill="#73A942" d="M274.79,471.05c13.08,2.16,26.27,3.73,39.49,4.69,2.49.18,5.32.52,6.79,2.54,1.21,1.67,1.07,3.94.74,5.98-.5,3.06-1.42,6.27-3.75,8.32-3.27,2.88-8.18,2.61-12.47,1.93-6.1-.98-12.12-2.47-17.97-4.47-2.25-.77-4.51-1.63-6.35-3.13-1.49-1.21-2.64-2.79-3.77-4.35-2.21-3.05-4.42-6.1-6.63-9.15,1.62-.3,3.25-.6,4.87-.9"></path>
    <path fill="#73A942" d="M337.08,478.01c-2.8,1.42-6.14.53-9.28.43s-7,1.39-7.17,4.52c-.15,2.7,2.61,4.64,5.2,5.4s5.49.98,7.56,2.72c2.14,1.8,2.82,4.75,4.28,7.13,4.64,7.6,15.68,7.98,22.48,13.72.79.66,1.57,1.43,2.59,1.6.93.15,1.86-.23,2.72-.62,9.27-4.11,18.47-8.61,26.39-14.93s14.54-14.67,17.25-24.44c1.23-4.44,1.18-10.13-2.72-12.58-1.79-1.13-4-1.28-6.11-1.41-8.62-.51-17.23-1.03-25.85-1.54-12.69-.76-25.68-1.48-37.87,2.11,3.52,1.79,5.62,6.01,4.94,9.89s-4.09,7.14-8.01,7.63"></path>
    <path fill="#73A942" d="M637.48,693.62c-3.88,5.76-7.85,11.71-9.26,18.52-1.07,5.14-.61,10.48.27,15.66,3.62,21.23,14.56,41.14,30.55,55.58,12.69,11.47,29.9,19.69,46.67,16.36,12.37-2.46,22.93-10.97,30.07-21.37,7.14-10.4,11.19-22.59,14.26-34.82,3.38-13.47,5.05-29.48-4.43-39.63-4.36-4.67-10.45-7.28-16.51-9.29-19.61-6.49-40.49-7.88-61.11-9.22-12.88-.84-28.25-.52-35.43,10.21"></path>
    <path fill="#73A942" d="M897.59,736.64c-21.06-15.92-50.01-20.81-75.14-12.68-4.89,1.58-9.82,3.76-13.1,7.7-2.85,3.43-4.18,7.84-5.43,12.12-5,17.02-10.01,34.16-11.81,51.81-1.78,17.45-.37,35.04,1.04,52.52,2.75,34.15,5.5,68.31,8.25,102.46.17,2.15.42,4.48,1.89,6.06,1.54,1.65,3.98,2.01,6.23,2.26,29.92,3.35,60.13,4.09,90.17,2.21,4.82-.3,10.01-.82,13.63-4.02,4.71-4.16,5.1-11.24,5.14-17.52.41-60,.82-120.01,1.23-180.01.03-4.33.05-8.73-1.06-12.91-2.81-10.56-12.58-18.13-23.03-21.35s-21.61-2.84-32.54-2.43"></path>
    <path fill="#73A942" d="M320.93,349.95c-.11-3.89-.06-7.79.16-11.67.12-2.13.31-4.35,1.41-6.18.28-.46.63-.91,1.14-1.09.53-.19,1.12-.05,1.62.19,2.88,1.4,3.18,5.51,2,8.49s-3.38,5.51-4.24,8.6"></path>
    <path fill="#73A942" d="M352.21,366.65c2.76-1.03,5.59-2.07,8.54-2.02s6.05,1.44,7.29,4.11c.17.36.3.76.19,1.14-.23.82-1.32.97-2.17.94-5.3-.18-10.58-.99-15.69-2.4.29-.35.59-.7.88-1.05"></path>
    <path fill="#73A942" d="M342.22,346.62c.44-3.62,1.49-7.33,4.02-9.95s6.83-3.79,9.93-1.89c.41.25.81.58.93,1.05.11.42-.04.86-.22,1.25-1.99,4.55-6.92,6.93-11.46,8.95"></path>
  </g>
  <g id="Layer_1">
    <g>
      <path d="M316,1080c-2.79-3.06-5.29-6.35-8.03-9.51-2.88-3.32-6.22-7.68-9.35-11.12-1.7-1.87-7.34-6.41-8.08-8.33-.44-1.13.74-2.5.46-3.04-.09-.17-2.36,1.18-3.75-.23-1.66-1.69-5.24-9.26-7.4-12.12-5.14-6.81-10.87-13.09-15.76-20.05-.31-.45-7.45-5.36-8.11-6.08-1.35-1.47-.68-4.17-1.95-5.08-.97-.7-3.05-.09-3.85-.62s-.69-3.6-1.72-4.83c-.84-1-2.57-.73-3.53-1.69-1.16-1.16-1.37-3.95-2.28-4.97-13.01-14.67-25.93-27.4-37.5-41.96-3.85-4.84-4.23-5.99-8.66-10.37-18.81-18.62-30.1-37.42-38.82-63l-2.19-10.02c8.59,14.67,11.47,30.51,21.66,44.35,8.22,11.17,19.32,21.05,28.41,31.59,31.05,36.04,62.98,71.56,93.46,108.81,6.69,8.17,9.96,12.63,18.02,19.99,2.24,2.05,2.83,6.61,5.96,8.27h-7Z"></path>
      <path d="M0,525c1.41-2.75,4.2-2.52,6.52-3.98,9.1-5.71,17.94-9.39,27.58-14.42,22.09-11.53,40.45-23.29,65-32.01,24.8-8.81,48.68-14.78,71.59-27.38,17.68-9.73,30-27,49.61-35.42,4.54-1.95,10.81-3.99,15.71-3.78-4.08,3.92-11.12,4.97-16.05,7.44-16.27,8.14-29.45,22.12-42.71,30.25-3.76,2.31-12.37,8.43-15.49,9.65-1.99.78-3.94-.59-4.56-.21-3.82,2.37-10.41,7.58-14.91,8.81-31.3,8.56-62.77,22.03-88.9,39.91-7.32,5.01-17.52,7.42-25.09,10.92-2.57,1.19-5.68,4.82-7.56,5.49-5.66,2.01-6.78,1.42-13.66,5.3-1.41.8-4.39,1.17-4.88,1.68-.67.69.8,3.51-2.19,2.75v-5Z"></path>
      <path d="M596,1080c1.51-1.26,3.06-3.59,4.35-4.71.83-.73,2.49.21,2.66-.79.45-2.66-1.92-3.35-2.89-5.14-1.4-2.6-2.66-8.33-6.13-7.37.83-2.22,6.44-6.12,8.44-6.06.62.02.78,1.77,1.68,2.46.69.53,2.04.37,2.61.96,1.39,1.45,2.1,5.89,2.45,6.46.64,1.04,5.88,1.42,7.36,1.26,4.39-.47,8.08-4.56,11.81-6.23,6.04-2.71,11.46-2.22,17.61-6.4,14.1-9.57,27.28-21.14,41.45-30.55,3.15-2.09,2.91-.59,3.46-.96,4.85-3.28,14.24-13.26,19.62-17.91,6.83-5.9,9.32-5.21,7.53-15.51-1.04-5.95-7.43.5-9.99,1.89-5.82,3.17-14.6,6.77-20.97,11.13-4.21,2.88-8.8,9.79-14.03,9.48,2.45,4.19-.67,2.71-3.89,4.61-10.78,6.35-20.03,17.22-31.56,23.43l-26.55,9.45c7.44-7.39,19-8.29,27.93-13.07,12.8-6.84,28.66-22.79,40.8-31.47,9.57-6.84,19.76-11.4,29.59-17.14,1.91-1.12,4.9-4.83,5.25-4.83.77,0,5.16,1.05,5.49,1.67.58,1.08.74,13.97.27,15.09-.55,1.33-10.23,7.82-12.35,9.72-3.6,3.23-6.83,7.46-10.48,10.53-.69.58-7.12,5.34-7.57,5.46-2.79.76-2.35-2.28-3.58,2.59-14.58,7.08-31.43,26.25-45.62,32.16-3.24,1.35-8.14,1.86-11.72,3.28-5.13,2.04-8.98,6.58-15.51,6.58-8.97-.01-6.3-7.24-9.18-9.17-1.18-.8-4.89-.51-5.31.1-2.18,3.13,8.81,10.69,8.99,11.51.53,2.38-7.72,4.44-7.99,7.48h-4Z"></path>
      <path d="M0,607c1.44-2.62,7.5-1.66,7.95-2.1.36-.35-.21-2.11.14-2.77.19-.35,6.05-.91,7.83-1.71,2.21-1,6.55-3.64,8.97-5.02,5.62-3.21,10.81-9.29,17.11-10.41l-1.01-1.98c6.43,1.09,4.01-1.15,6.02-3.46,1.11-1.28,8.44-4.93,10.56-6.52,2.64-1.98,3.68-2.87,7.1-4.88.95-.56,3.32-2.19,4.34-1.65-.71,1.92-3.88,4.32-5.53,5.47-11.85,8.32-24.69,18.7-37.14,25.86-8.34,4.79-17.05,8.52-26.34,11.16v-2Z"></path>
      <path d="M1080,631c-2.78,1.19-2.46,4.48-3.96,6.54-5.06,6.95-14.05,14.95-17.79,22.16-6.56,12.62,16.65,1.4,21.76,2.3v2c-11.03,1.84-22.92,7.61-34.01,3.5.05-1.18,4.94.83,4.02-2.49l1.48,1.99c4.48-1.46,2.77-4.35,3.98-7.02,2.32-5.09,7.99-11.87,11.51-16.46,4.06-5.29,8.42-10.83,13.02-15.52v3Z"></path>
      <path d="M0,342c2.36-.52,2.53,2.38,3.24,2.77,1.1.61,3.03-.18,3.63.39.36.34-.15,1.91.39,2.57.46.57,7.11,3.31,8.08,4.22.87.81.42,2.24,1.35,3.08,4.77,4.36,10.17,7.5,12.54,14.23,2.52,7.15-.96,6.35-5.85,8.58-1.66.76-1.36,2.32-1.88,2.15-2.24-.72-1.11-1.79.14-2.86,2.1-1.79,6.91-2.71,4.89-7.1-1.2-2.62-12.45-13.51-15.15-15.97-.97-.88-2.32-.9-2.98-1.48-2.82-2.47-4.76-6.05-8.41-7.59v-3Z"></path>
      <path d="M1080,691v2c-.76,2.62-2.43,1.07-2.78,1.27-4.65,2.69-8.92,3.9-15.16,4.39-3.85.3-11.15.13-13.07-4.15,1.7-1.23,3.46,1.18,5.56,1.44,5.99.75,15.39-.66,21.08-2.79,1.66-.62,1.54-3.08,4.37-2.16Z"></path>
      <path d="M0,479c6.46-4.49,11.86-9.85,18.71-13.79.8-.46,6.62-4.04,5.3-.72-.24.61-2.87.95-4.16,1.84-6.81,4.69-12.73,10.8-19.85,14.67v-2Z"></path>
      <polygon points="0 391 18.51 379.01 19.02 381.5 0 393 0 391"></polygon>
      <path d="M660,491c-3.14-.16-8.15-2.38-9.99.99,4.54.85,8.82,5.68,12.97,6.62,3.1.7,12.67-.52,16.58-.66,5.9-.2,2.84-.27,5.07-.89,6.3-1.73,18.69,4.75,25.92,5.58,4.02.46,12.24-1.01,15.54-.04,2.44.72,5.68,3.44,8.42,4.48,1.64.62,3.66-.2,4.51.38,1.19.81.03,2.52.44,3.55.7,1.74,4.31,5.88,1.47,7.96s-22.38-10.69-25.51,1c-1.94,7.24,10.54,10.92,15.64,12.47,13.26,4.04,44.38,4.59,57.93,1.06.76-.2,5.48-2.41,5.76-2.75,6.47-7.64-19.5-17.16-24.36-18.71-2.18-.7-4.08.13-4.77-.06-.27-.07-1.49-4.53-3.29.68-.89,2.58,1.55,11.92-3.33,9.34.44-3.52,1.45-9.12.03-12.35-.54-1.24-1.71-.44-2.26-.68-3.56-1.59,1.61-2.06,2.24-2.47,1.25-.81,2.14-24.94,2.5-29.44.25-3.13.25-6.8.49-10.57.13-2-.8-2.89,2-2.48l-1.08,42.31c1.72,2.71,16.16,5.21,19.66,6.61.7.28,11.63,6.86,12.16,7.34.74.67.68,2.11,1.26,3.01.44.68,1.79.63,1.98,1.42,1.72,7.32-2.47,10.05-8.88,11.69-12.88,3.29-33.41,2.63-46.65.66-2.21-.33-5.03.44-6.81-.03-.95-.25-.57-1.94-.66-2-.61-.42-1.42,1.84-3.05,1.58s-1.83-2.12-2.72-2.54c-1.74-.8-3.97-.21-4.72-.54-5.73-2.5-13.23-7.15-11.28-14.73.74-2.86,3.41-3.76,4.78-5.77-9.76-3.55-19.5.59-29.35,1.13l-1.62,1.36c.03.99,14.75,11.22,15.47,12.51s.52,2.66.52,3.99c5.05-2.94,4.31,3.86,5.49,5.99.38.69,5.49,3.64,7.02,4.98,1.21,1.06,5.26,4.24,3.98,6.02-6.59-6.16-15.66-9.87-22.4-15.6-5.98-5.09-13.1-18.14-18.21-20.79-2.96-1.53-10.07-2.13-11.57-4.91-.61-1.13.03-2.94-.51-3.54-.3-.34-1.68.01-2.44-.51-.24-.16-3.27-4.41-2.96.9.14,2.48,2.2,2.4,2.31,2.65.55,1.2,4.01,17.31,4.18,19.42s.72,2.74-1.89,2.39c-1.42-8.22-3.7-16.18-6.53-24.03-.37-1.02.46-2.3.25-2.78-.09-.2-1.34-.36-1.69-.93-.65-1.07-1.69-3.46-2.26-3.96-.49-.43-9.87-4.16-11.19-4.48-4.07-.97-16.87-1.28-20.85-.62-1.32.22-14.12,4.8-14.71,5.31-4.97,4.31,6.04,2.43,7.2,2.67,4.51.91,12.22,5.2,15.19,8.9,7.58,9.43,7.38,22.29,8.6,33.32.09.79,2.04.44,2.02,1.1-.04,1.46-1.64,2.18-1.69,2.99-.06.86,1.31,2.01,1.33,3.12.29,22.4-3.95,40.82-6.92,61.61-.49,3.41-3.01,6.82-3.32,8.71-.21,1.26,1.49,1.89,1.2,4.07-.34,2.54-2.94,5.38-3.45,7.76-2.08,9.74-3.03,20.77-5.59,30.52-.74,2.84-3.8,5.9-4.4,8.4-1.65,6.91-2.01,15.75-4.31,22.69-2.43,7.34-4.24,8.07-11.39,10.04-7.22,1.99-15.83,3.84-23.1,5.46-11.88,2.64-31.06,4.26-42.43.63-4.06-1.3-4.2-3.12-5.99-5.76-4.26-6.3-6.04-13.73-9.56-19.68-1.28-2.15-3.46-2.47-4.36-3.64-3.03-3.98-15.45-31.06-16.8-36.2-.8-3.07,0-8.23-.62-10.56-.72-2.68-4.02-6.24-4.96-9.86-3.06-11.78-6.25-25.66-7.63-37.37-.4-3.42.17-7.01-.06-10.45-3.7,4.01-10.03,4.45-13.98.49-2.51-2.51-2.26-5.07-3.59-7.46-.45-.81-2.32-.77-2.42-1.64-.2-1.65.9-9.27,1.5-11.39,3.74,5.18,1.33,18.38,9.47,20.57,10.93,2.95,5.39-17.23.57-21.65-.67-.61-1.99-.57-2.73-1.04-3.4-2.19-2.39-.49-3.63-1.02-.19-.08-.16-1.7-1.37-2.2-1.8-.76-4.73-.27-5.63-.85-.6-.38-1.15-4.47-2.7-4.83-1.82-.42-3.13,2.97-4.42,3.45-6.39,2.37-9.15-10.17-3.58-8.42,1.54.48.85,4.12,3.52,2.97-.34-3.44.51-7.99,4.5-9,1.31,3.22,3.78,3.22,6.02,4.98,3.26,2.57,6.07,6.18,9.05,9,.61.57,3.62,3.83,4.43,3.01.33-.33-2.35-8.52-2.55-8.94-1.9-4.05-19.84-13.12-24.73-15.29-1.4-.62-4.51-.66-4.67-.83-.41-.45.36-2.61-.26-3.71-.4-.71-2.81-.71-2.8-2.21,1.48-.69,6.75,1.26,6.99.99.11-.12-.25-1.69.36-2.62.9-1.38,5.61-5.16,7.28-6.81,1.26-1.25,3.92-4.95,5.75-6.26,7.32-5.24,19.42-5.87,28.31-5.88,2.42,0,6.81-.82,6.31,2.57h-15.5c-11.03,0-22.09,8.37-29.14,16.36-5.33,6.04-.09,4.83,3.9,6.88,3.77,1.93,7.49,3.89,11.09,5.73,1.02.52.37,2.19,1.33,3.08,1.35,1.25,6.79,4.61,7.39,5.64,2.25,3.85,2.85,12.17,2.09,16.58l3.84,6.73c-1.44-3.77,1.79-7.86,1.88-10.44.28-7.5,2.19-8.93,2.73-13,.64-4.73,1.83-9.32,4.17-14.27.78-1.65,2.35-2.72,3.26-4.73,3.1-6.84-1.44-8.2,6.04-13.97,2.27-1.75,4.76-2.36,6.91-4.09-2.77-1.5-8.89,1.52-8.99-3.49,5.79.43,11.71,1.2,17.55,1.01,5.25-.17,9.96-1.21,15.45-1.47.55-.03,3.03,1.29,1.99-1.03-1.65-3.67-16.4-9.14-20.56-10.45-14.17-4.47-23.03-4.87-37.37-3.53-1.23.11-1.93-1.23-3.13-1.09-1.6.19-1.73,2.17-3.29,2.72-3.9,1.37-9.23,1.71-13.52,3.44-2.95,1.2-5.17,3.44-8.11,4.41-.41.59,1.28,1.91,2.44,1.95,3.98.12,17.79-6.58,23.17-7.85,3.96-.93,10.81-2.03,14.84-2.16,2.01-.07,6.48-1.01,5.54,2.04-7.42-1.31-13.37,2.06-19.78,3.72-2.05.53-4.2.15-6.27.73-3.64,1.03-17.92,7.37-19.94,6.1-.37-.24-2.81-3.85-2.87-4.23-.6-3.82,13.02-7.19,15.69-8.03,1.69-.54,2.63.41,2.17-2.27-6.97.98-14.33,1.27-20.92,3.61-2.31,2.94-8.79,5.34-12.74,6.24-1.89.43-1.86-1.23-1.33-1.83s8.83-4.61,10.31-5.2c8.48-3.34,20.44-5.67,29.55-6.22,3.37-.21,15.58.9,17.14-.09.81-.52,1.44-1.87.99-2.49-.34-.47-9.91-3.54-10.75-4.25-1.01-.86-.96-3.51-1.28-3.74-1.24-.91-18.62,7.35-20.96,1.47-.82-2.07,7.26-2.45,8.33-3.64l12.67-1.83-1.01,1.98c11.38.4,22.03,4.48,31.26,10.99,1.51,1.06,1.92,3.38,4.4,4.88,3.78,2.29,11.64,3.66,16.24,5.76,1.58.72,12.39,7.04,12.89,7.62.67.78.03,2.52.23,2.77.51.63,13.12-2.46,15.99-1.01.84-.75-2.12-4.7-2.77-5.72-10.34-16.35-28.76-36.93-47.35-43.65-17.25-6.24-43.63-.76-54.88,14.37,7.11-.28,17.45-8.74,23.49-9.02,2-.09,1.59.23,1.52,2.03-2.45.22-7.39,1.36-9.48,2.28-.57.25-.65,1.35-1.92,1.87-3.29,1.35-15.1,7.15-17.6,4.84.97-1.75,1.66-4.03,2.98-5.51,4.46-5.02,15.49-11.62,21.08-12.07l16.94-4.4-27.5-2.1c-13.46,1.61-27.2,1.64-40.48,5.08l-1.02-2.98c8.61-1.33,17.11-2.82,25.8-3.7,4.65-.47,13.79.46,17.53-.28,2.92-.58-2.3-1.66,5.43-.26,2.94.53,8.71-.1,11.57.3,5.54.77,10.97,3.04,16.67,2.92-.55-2.13-3.12-1.8-4.57-2.95-1.1-.87-1.27-2.82-1.53-3.01-1.46-1.07-3.1,4.83-2.89-5.02,2.98.19,5.99.62,8.78,1.73,1.54.61,2.72-.55,2.2,2.27-1.74-.72-6.95-2.4-7.98-.01,7.62,6.05,17.38,8.72,25.34,14.16,6.27,4.28,22.59,17.02,27.36,23.12,3.01,3.84,9.69,13.61,12.57,18.75,2.02,3.61,1.36,9.78,8.73,6.47,2.42-1.09.82-3.35.98-3.47,2.39-1.78,1.44,2.43,2.99,1.99l-2.98-4c-.32-1.96,2.51-.54,3-.99.22-.2-.89-5.7-1.13-5.89-.75-.61-3.51.24-3.89-.1-.41-.37.57-8.21-.53-10.96-.97-2.42-6.8-8.43-8.46-10.8-23.87-33.95-43.1-48.07-86.55-52.12-3.91-.36-21.83-1.62-24.71-.87-3.99,1.03-8.14,7.21-11.75,4.25,0-1.2,3.1.19,3.02-1-.07-1.09-3.15.22-1.52-1.51,1.79-1.29,3.87-2.55,6.07-2.93,18.88-3.31,54.37,1.26,71.65,9.23,7.43,3.43,14.37,8.61,20.25,13.74,10.44,9.11,22.06,21.76,30.6,35.41.65,1.04.92,2.33.95,3.55,1.39-.34,2.02-5.52,2.02-6.55,0-1.46-1.38-8.09-1.03-8.43.51-.49,3.32.95,2.99-1.01-5.74.6-4.04-7.89-5.99-12,2.2-.37,2.39.91,2.94,2.54.23.68.7,9.89,3.04,7.45.81-.84,1.73-13.68,2.34-16.35.29-1.26,1.86-1.86,2.19-3.14.72-2.84.97-8.21-3.01-8.14-1.33.02-4.82,3.25-8.5.63-1.43,1.13,2.5,13.36,2.99,15.99l-3,.02c.14-2.97-1.74-14.13-4.01-15.57-.56-.36-11.37.27-13.36.27-3.37-2.78-7.94-.88-10.99-1.69-.95-.25-.57-1.94-.66-2-.61-.42-1.42,1.84-3.05,1.58s-1.83-2.12-2.72-2.54c-1.74-.8-3.97-.21-4.72-.54-3.75-1.64-9.57-4.87-11.01-8.98-1.33-3.82.35-12.35,5.52-10.55.39-.31-1.44-1.66-1.67-2.65-2.03-8.63-1.4-13.02,1.74-21.57.3-.82,1.76-.89,2.24-1.99,2.76-6.48,3.09-23.57-7.44-21.25-2.04.45-7.08,4.72-8.63,5.4-5.04,2.2-13.99,4.26-19.17,6.65-.99.46-7.85,4.48-8.14,4.85-1.87,2.34-4.14,12.58-.77,14.48,2.29,1.29,14.5-6.26,15.84-4.89,2.43,2.49-2.82,3.36-3.5,3.95-11.98,10.39-8.54,17.81,7.2,12.23,1.11-.39,2.38-2.06,3.3.32.37.95-13.74,7.32-18.98.99-3.3-3.99,1.98-7.43,1.97-11.49-2.58.71-4.81,1.3-7.3-.2-6.41-3.87-.66-12.06-.22-16.78,1.33-2.15,6.56-1.26,5.52-3.52-1.34-2.88-6.83-1.82-8.53-3.48-1.89-1.85-1.82-7.74-2.72-10.28-.49-1.38-3.72-3.67-2.74-4.75,1.28-1.4,3.86,4.19,5.66,3.32,2.51,3.94,4.1,8.91,9.62,5.65.49-1.67,6.93-5.52,5.71-6.95s-9.29-2.2-11.69-2.65c-4.88-.92-10.95-1.92-16.9-3.28-7.21-1.64-19.65-3.34-21.23-12.85-1.91-11.52,25.47-18.06,33.82-13.23.27,1.66-2.42,1.08-3.53,1.04-2.1-.07-4.42-.92-5.96-.85-15.69.69-34.66,13.79-10.29,22.09,12.53,4.26,26.62,3.19,38.66,8.84,1.63,2.89-6.35,6.33-6.87,9.87,1.91,1.39,20.53-4.68,21.51-8.99l.5,3.99c3.75.75,5.45-3.36,8.99-1,1.03-1.07-4.42-6-4.79-6.66-1.12-1.99-.76-5.19-3.19-6.84-.38-.89,3.51-.19,3.9-2.06.1-.48-.9-8.67-1.14-9.7-2.28-10.16-21.65-22.52-21.46-34.44.1-6.27,12.8-11.5,18.68-8.78.97.45,2.73,2.71,2.01,3.48-1.1,1.19-2.76-2.85-5.54-2.92-4.09-.1-11.44,2.99-12.91,6.88s6.77,13.79,9.56,16.44c1.74,1.65,8.27,5.39,8.65,5.85.82,1.02,3.51,8.38,3.79,8.81.44.66,2.06.71,2.28,1.07.38.61-.7,12.37-.91,14.27,6.79,1.78,5.67,4.95,7.62,9.57.56,1.32,3.37,2.26,2.28,3.89-.31.46-2.44-.65-1.6,2.39.18.65,4.73,8.98,5.11,9.42.97,1.09,2.92,1.43,4.03,2.47,5.91,5.59,10.41,8.94,17.62,12.85l1.95-2.63c-1.18-4.96,1.32-11.88-.12-16.66-.6-2-13.75-8.77-11.81-10.69,5.57-1.83,3.15.32,5.57,1.91l6.42,3.08c-1.83-3.08.58-5.34.69-6.64.24-3.06-1.8-10.2,1.31-12.35,1.83,5.12-2.25,20.11,3.03,22.48,4.94,2.21,6.76-.77,5.98-5.47,1.97-.25,2.58,1.57,4.52,1.97,12.07,2.49,17.78-12.33,14.38-21.9-3.14-.52-11.15,2.11-12.98-.76-.22-.34-2.15-5.13-1.93-5.31.2-.16,1.47.26,2.11-.13,6.04-3.64,20-19.98,24.32-25.96s9.87-14.64,10.08-21.86c.13-4.5.44-9.62.47-14.54.05-6.49-4.48-30.76-6.38-37.53-.43-1.54-3.15-5.38-2.58-5.99,1.3-1.4,2.62,1.72,3.03,2.46,2.81,4.99,9.47,44.2,7.91,49.91-.53,1.95-.88-1.67-.94,4.1-.17,15.35-9.26,23.72-18.38,34.57-.31.37.24,1.44,0,1.72-4.13,4.73-10.59,9.68-15.17,14.21-3.72,6.74,10.26.29,13.04,5.02,2.01,3.41.13,14.33-2.1,17.92-3.9,6.25-11.83,6.47-12.41,7.1-.45.49,1.65,4.05.99,4.96-.21.29-5.77,1.49-6.84,2.16,1.3,7.94-2.02,19.94-.92,27.39.22,1.51.17,2.48,1.49,3.54,1.56,1.25,21.55,7.27,22.68,6.89,2.94-5.81,7.17-13.07,14.61-14.94-3.27,3.32-12.65,12.16-12.84,16.7-.13,2.98,5.37,3.46,6.58,4.56.74.68.68,2.11,1.27,3,.44.68,1.79.63,1.98,1.42,1.72,7.33-2.47,10.05-8.88,11.69-2.47.63-7.56.11-8.89.84-2.58,1.4-4.06,18.7-6.22,22.41,3.33,3.49-1.1,11.18-1.54,17.07-.63,8.44,2.41,15.04,3.47,22.98.34,2.5-.99,6.23.08,8.55,1.51,3.27,11.05.54,13.99,2.78,1.13-3.91,1.28-7.97,1.59-11.97.17-2.24-1.9-4.49,1.41-4.05v-.98s-1.97-.02-1.97-.02c3.98-8.5,6.82-18.71,13.97-25.5-1.21-4.72-4.33.52-4.62.55-.99.12-6.07-1.25-7.11-1.8-8.64-4.65-1.09-17.58,6.73-16.74-3.42,2.59-10.11,7.46-7.54,12.5,3.23,6.32,18.07-1.29,22.73-3.11.88-.35.85-1.7,1.52-1.85,1.9-.44,4.28.17,6.29-.03,1.13.98-8.68,22.79-9.46,26.02s-.96,7.91,2.06,9.86c6.64,4.3,7.95-5.15,12.39-7.89.1,7.17-4.54,8.64-8.97,12.54-5.35-.63-10.11-6.98-9.38-12.36.18-1.34,2.19-9.24,2.63-10.4,1.76-4.68,6.19-8.49,5.72-14.77-2.47,2.03-5.77,2.48-8.37,4.16-3.73,2.42-12.91,19.97-14.28,24.68-.91,3.14-2.7,14.68-2.06,17.52,1.19,5.26,13.55,3.37,16.71.62l-2.99-1c1.3-3.82,5.71-2.98,8.21-4.08,16.97-7.48,40.77-17.51,60.17-15.78.99.09,4.71.4,4.61,1.86-10.89.27-21.45,2.24-32.18,4.33-3.5,2.18-20,4.58-21.82,6.7-2.23,2.6,2.85,1.24,4.18,1.26,13.27.12,16.03-.44,28.78-2.84,5-.94,9.23-.13,14.48-.38.61-.03.5-2.03,1.12-2.08.66-.05,7.63,1.5,8.01,2,.68.9-.65,5.71-1.58,6.53-2,1.75-15.01,1.04-17.4.22-1.2-.41-1.09-.96-1.6-1.71,3.1.16,14.06,1.39,15.98.51,2.58-1.18,2.84-4.32-.46-4.17-5.83-.1-10.96-.03-16.52,1.67-.18.13.74,1.61,1,1.99ZM558.47,363.59c-2.6-2.97-3.03-3.03-7.47-2.59,1.26,3.03-1.4,17,1.5,17.99.12-2.6,2.8-1.54,3.49-2.02.13-.09-.82-1.71-.57-3.03.29-1.5,4.46-4.19,4.44-9.5,0-.51-1-.4-1.4-.85ZM525.79,366.28c-.89-.51-1.84-.25-2.79-.28-1.34,9.57,2.16,18.79-1.02,28l-1-16.99c-3.12,2.95-5.32,9.3-4.92,13.39.78,7.88,4.47,4.24,4.92,4.62l-.99,3.99c.66.66,11.97-3.04,14.21-3.36,1.67-.24,2.43-1.13,3.78.87l-14.99,4.51c-.09,1.84,2.74,1.04,3.75,2.26,1.42,1.72-.81,4.06,4.63,3.69,6.97-.48,5.55-4.92,7.58-6.55,1.86-1.5,7.17,5.27,8.1-6.92.12-1.62-.63-10.4-1.1-11.71-.73-2.04-7.44-4.55-9.62-5.15-2.28-1.68-9-9.45-10.55-10.34ZM554,395.01c.16-.15,2.07.09,3.01-.52,1.24-.81,1.41-14.72,1.5-17.49-1,3.2-7.03,3.84-7.61,4.6-1.27,1.66-1.06,13.82,2.11,15.38-4.06-.87-2.38,1.73-3.66,3.07-3.76,3.95-8.93,1.64-9.33,1.93-.16.12-.29,2.56-1.3,3.73-2.11,2.45-7.84,3.95-11.01,3.25-1.38-.31-4.01-6.49-8.73-5.6-7.75,1.46-6.76,9.45-.88,13.03,2.95,1.79,16.72,5.95,20.52,6.49,1.66.23,16.88,1.28,17.73,1.02,4.21-1.26-1.88-12.7-1.34-15.91l2.99.99c-1.42-2.4.67-10.01-1.19-11.87-.19-.19-5.08-.01-2.81-2.12ZM563.23,399.77c-.49-.42.15-2.07-.73-1.77-3.85,1.33-1.57,10.8-2.61,11.94-.38.42-2.61-.2-2.89.06-.58.52,2.42,11.57,3.52,13.04.41.54,12.89.62,13.53.4,3.14-1.08,2.69-5.79,3.7-8.2.58-1.38,2.29-2.26,2.73-3.31.26-.61.39-6.57.11-6.97-.37-.54-10.53-4.41-12.21-4.94s-4.89-.04-5.15-.26ZM592.75,418.74c3.04-3.58-3.73-11.08-7.19-10.79-4.26.36-3.98,9.31-6.56,12.53.67,3.29,12.1.21,13.75-1.74ZM510,481.99c-6.05-5.4-15-10.74-23.21-11.37-1.58-.12-2.48-1.12-3.78.88,9.23,3.05,17.15,9.54,26.99,10.49ZM706.82,503.26c-.89-.37-17.35-4.3-18.32-4.3-2.23,0-4.03,1.46-5.96,1.55-4.59.2-12.64-1.76-15.54,1.99,4.85,1.05,8.39,5.36,13.01,6.98,11.69,4.09,22.8-1.18,35.34-.16,1.69.14,3.2,1.72,6.13,1.76,3.28.04,6.34-1.62,9.51-2.1-5.1-6.98-15.31-3-22.57-3.9-1.83-.23-1.38-1.74-1.6-1.83ZM607.08,512.92c.63.63,15.62,1.99,17.71,1.82,5.73-.45,2.17-4.49-.86-6.17-6.53-3.61-35.12-6.33-43.59-6.19-2.28.04-5.63.41-7.33,2.12,1.45.78,4.22,2.16,5.72,2.29,5.71.48,14.67-.65,20.61-.41,9.81.4,6.39,5.2,7.74,6.54ZM572,503h-39c.37,1.97,2.08,1.69,3.52,2.01,5.16,1.14,25.55,1.51,31.04,1.05,2.26-.19,4.66.13,4.45-3.05ZM530.82,507.15c-5.4.59-11.76-1.29-17.1-.11-.33.07-5.39,3.94-4.71,4.96.23.35,7.09-.74,8.39-.69.97.04,2.02,1.22,3.05,1.22,6.46.02,12.88-1.98,19.55-.54-2.04-3.63-8.07.43-9.18-4.84ZM727,513.99c.33.29,8.02,1.93,8.59,1.97,5.74.31,2.21-4.69-2.07-5.05-1.31-.11-9.06.9-6.52,3.09ZM551.27,685.7c-14.32-47.19-21.27-98-16.88-146.62.25-2.76-.13-6.25.3-8.9.71-4.33,6.4-14.59-1.19-13.74-3.49.39-4.31.36-7.95.5-1.58.06-12.17,1-12.65,1.67-.78,3.8-2.85,7.27-3.78,10.99-4,15.87-5.32,41.51-2.97,57.74,5.04,34.81,15.42,70.11,26.34,101.56,1.12,3.23,6.72,9.03,8.25,13.85.41,1.3,1.18,3.69-1.22,3.22-1.55-1.54-2.44-5.48-5.51-3.5,2.63,5.79,7.73,4.64,12.99,5.5l-8.21-21.3c-9.28-36.55-19.83-74.03-24.86-108.12-2.03-13.75-1.57-24.97,2.7-38.68.67-2.16,2.68-7.37,4.37-8.9-4.48,18.84-8.11,33.69-4.74,53.24,4.77,27.66,12.67,53.69,20.44,80.56,4.27,14.78,5.96,30.69,13.87,44.22,4.15-2.22,8.91-.36,12.93-.58,9.02-.5,15.83-3.17,24.3-5.14s21.71-.92,24.63-10.37c1.52-4.92,1.42-10.84,2.09-15.42,3.2-22.05,8.63-45.93,12.93-68.55,4.6-24.21,13.58-54.8,9.13-79.27-.24-1.32-2.16-8.98-2.53-9.28l-37.04-1.4c-.57,5.54,3.88,6.41,5.48,11.01,1.15,3.29,1.59,8.05,2.34,11.65,1.9,9.1,2.09,22.04,5.06,29.77,2.6,34.04,1.21,69.1-6.12,101.78-1.96,8.76-3.47,21.75-11.25,26.79-1.36-3.17,2.86-5.74,4.23-8.77,7.6-16.78,9.91-68.47,9.34-87.75-.57-19.02-4.74-36.06-6.71-55.15-.24-2.31.87-5.41.53-8.73-.23-2.28-5.81-20.39-6.85-21.06-.7-.45-4.13.23-5.54-.06-1.27-.26-1.8-1.97-3.5-1.48-.5,2.12,1.3,4.08,1.46,5.84,1.12,12.16,3.35,24.52,4.23,36.94.41,5.78-.42,14.57.24,19.6.09.69,2.07.57,2.1,1.17,1.41,27.71,2.58,53.32-1.21,80.86-.66,4.83-1.18,11.02-2.36,15.57-.29,1.14.07,3.24-1.46,3-.63-8.45,2.35-17.46,2.97-25.51,3.69-47.36-5.51-83.97-9.95-129.11-.24-2.49,1.25-5.5-.06-8.39-2.45.44-6.04,1.09-8.44.98-2.11-.1-7.43-1.84-7.83-1.77-1.15.21-2.05,2.07-4.17,1.85-.5-.05-.44-1.9-1.19-2.08-2.09-.47-6.06,1.05-8.84,1.12-5.59.14-6.58-3.73-9.21,2.67-3.47,8.43-1.52,12.79-1.28,20.73.59,19.36-1.16,39.42,1.93,59.06s1.81,40.26,6.32,59.68l11.72,42.28c-1.5,1.91-1.67.11-2.31-.82-2.12-3.06-2.59-10.15-3.75-13.93-.23-.74-1.58-.85-1.65-1.07ZM507.87,614.15c-.26-.45-2.71-.74-2.89-1.67-.21-1.07,1.64-2.19,1.65-2.98.14-10.28-4.57-25.48-4.71-36.97-.19-15.92,3.79-36.04,7.46-50.83.57-2.31,3.76-5.35-2.9-4.8-2.41.2-5.72,10.03-6.54,12.55-4.74,14.59-5.87,33.14-6.03,48.07-.18,18.16,9.69,47.1,15.6,64.46,1.09,3.19,1.48,10.19,2.96,13.04.91,1.76,2.66.09,2.54-1.5-.1-1.38-1.86-2.5-2.01-4.05-.17-1.7,1.16-3.19.61-5.54-.43-1.84-2.44-1.83-2.6-2.62-.43-2.09.48-4.76.01-6.62-.27-1.08-2.52-.98-2.92-2.31-.2-.67-.74-11.64-.91-13.88-.1-1.31,1.32-3.23.68-4.34Z"></path>
      <path d="M1029.99,745l-7.71,74.78c.77,24.17-4.88,51.97-3.33,75.76.5,7.73,4.34.62,4.69,6.11,1.19,18.62.53,38.53,2.37,56.83.71,7.07,5.36,12.29,3.78,20-1.57,2.28-8.21,7.95-7.82,10.02.12.64,1.96.42,2.02.5,1.18,1.62-5.75,2.23-6.76,2.72-2.17,1.04-5.34,5.74-9.54,7.46-7.91,3.24-16.65-.34-22.99-5.47-2.22-19.98-1.07-40.17-.96-60.24l-1.5-8.83c1.86-3.67.75-7.47,2.53-11.39.48-1.06.83-2.52,2.22-1.26,2.71,2.46-4.95,16.1,7,14.99l1.49-7.99,2.51,7.99,1.01-8.99c-6.49,1.44-3.39-4.15-3.99-9l2.48,7.99,3.01-9.01c1.62-.14,2.25,1.13,2.49,2.51.97,5.7-.33,12.7,0,18.5,1.86.05,4.18.44,4.86-1.64.75-2.33.16-17.37,1.14-18.37.81.13,2.79-.19,2.99,0,1.01.98-.01,14.46,1.02,17,3.59-1.15.99-4.41,1.27-6.37.17-1.15,1.37-2.28,1.45-3.38.28-4.3-1.26-8.15.27-12.25-2.88-.85-5.27,1.8-7.54,1.96-3.47.24-10.27-.49-14.97-.37-1.41.04-4.21-2.43-6.49-1.6l4-4.98-4-3c3.62.54,22.92-4.86,22.98-.51-19.4,9.04,4.95,6.84,6.03,3.8-.05-4.79.91-10.18,1.08-14.8.31-8.25-1.12-19.67.07-27.79.21-1.42,1.96-2.71,1.88-4.19-.03-.52-2.11-.41-2.09-1.01.05-1.41,1.61-2.23,1.82-3.81.28-2.1-.59-7.4-.42-10.05,1.9-28.13,5.43-58.65,9.27-86.31.34-2.43-1.67-6.55,2.37-6.33ZM1021.23,916.8c-.77-1.55,2.68-15.8-.73-15.78-3.17.02-1.55,24.29-3.5,26.98.53.49,3.72-1.14,3,1.49-1.95,3.23-7,4.15-7.08,7.98,1.61,13.87-.24,29.32,1.37,43,.17,1.43.74,7.45,2.21,7.51,5.27-4.39,9.41-7.08,9.56-14.46.11-5.09-1.88-6.33-2.58-10.48-1.83-10.92.99-39.69-2.25-46.23ZM997.98,983.99c-3.03.36-3.3-3.35-3.57-5.68-.97-8.11.66-18.82.44-26.85-.05-1.91-1.48-3.51-1.54-5.1-.18-4.62,3.83-17.27-4.63-17.1-4.49.09-1.65,2.58-1.68,5.22-.19,14.2-2.38,35.8,3,48.02.35.79-1.94.18-2.08,1.09-.15,1.02.96,2.51.82,3.77s-2.37,3.57-1.68,4.53c2.45,3.36,18.67-1.02,22.71-2.15l.86-2.38c-1.14-7.39.89-16.43.08-23.63-.19-1.71-.49-3.33-2.7-2.74.2,2.03,1.53,4.22,1.01,6.31-.18.74-1.75.59-1.95,1.32-.43,1.59-.13,7.69-.64,9.8-1.24,5.16-4.89,11.01-6.44,2.55l-2.01,2.99ZM1006.99,933c-.2-.19-2.18.12-2.99,0v37s2.99-13.51,2.99-13.51c-.59-3.33,1.53-22.03,0-23.49ZM1000.99,980l.06-30.52-2.04-3.47c-1.99,2.81.96,6.38.81,7.3-.13.79-1.54,1.6-1.68,3.17-.46,5.08-.07,17.09.89,22.03.31,1.6-.69,1.73,1.96,1.5ZM1009.99,992c-.49-.52-11.59,3.78-13.99,3.49,2.07,4.49,17.31.04,13.99-3.49Z"></path>
      <path d="M211.01,320.99c1.02,1.19,3.45-3.84,5.99-2,1.67,8.3,2.9,16.72,4.47,25.04.83,4.4,3.79,11.37,3.52,15.38-.16,2.3-2.69,7.17-2.95,9.19-.6,4.72,3.13,10.48-.55,15.38-.48.64-5.46,5.2-6.28,5.72-3.83,2.41-14.32,6.37-18.78,6.38-1.8,0-1.21-1.83-2.12-2.06-1.61-.39-3.32.31-5.3-.54-.68-.29-4.68-4.45-4.87-5.15-1.07-3.89,3.52-2.97,3.86-3.35.52-.57-3.86-12.25-2.01-14.98-4.6-.67-.04,6.15-3.99,4.99,1.16-4.61-3.06-8.85,1.99-10.5l-3.01-.5c1.05-2.08,1.78-4.12,2.01-6.49.55-5.61.66-19.5-.09-24.92-.29-2.09-2.64-7.56-3.9-9.15-1.71-2.15-4.9.9-4.01-1.92.26-.82,3.5-1.7,4.39-1.44,1.38.41,1.46,4.53,5.61,2.94l-1.73-37.38c3.57-3.88-.17-2.16-.18-3.04,0-.6,1-2.34.98-4.03-.19-15.3-.98-32.64.6-47.75.14-1.31-1.02-2.67,1.83-2.82l.43,96.4c9.26,5.76,13.37,5.78,21.1-2.09,1.3-14.78-.31-29.5-.47-44.25-.01-1.37,1.54-4.25,1.26-5.56-.15-.69-2.58-.13-1.83-2.99.11-.41,1.78-.33,1.86-.95.63-4.91-1.1-15.78-.88-22.08.14-3.88,1.87-9.4,1.95-13.03,0-.31-1.06.66-.89-4.92.34-11.46,1-23.6.73-34.98-.03-1.38-.96-3.01-.81-3.93.13-.83,1.98-.53,2.05-.63.39-.54-1.46-1.42-1.54-2.41-.57-7.78.27-20.64.5-29.08.09-3.28-.34-10.55,2.05-12.48l-.98,175.99ZM214.01,384l3.47-2.02c-.26-3.46,3.13-9.84,3.24-12.26.22-4.9-5.45-36.78-6.87-43.06-.25-1.11-.37-3.03-1.34-3.65-2.41,3.21-1.72,9.52-1.55,13.54.2,4.91,1.16,9.4,1.53,13.51,1.02,11.27,1.93,22.55,1.52,33.95ZM208.99,330.01c-3.68-1.13-5.89,3.92-7.43,4.62-2.1.95-7.5-2.12-8.55,1.36,4.81,2.99,9.91,8.07,15.99,5.99-1.4-4.05-.02-7.84,0-11.96ZM190.01,349c-.34-.31-1.22-7.57-2.02-8.99-1.15-.31-1.44,1.15-1.53,1.96-.62,5.44,1.44,15.41,1.56,21.41l-2.01.63v.97c3.08-1.36,1.69,6.71,2,7.01.23.23,3.51-1.7,4.46.96.87,2.41-4.21,13.96,3.93,12.11,2.41-.55-.17-17.2-.28-20.67-.09-2.8-.64-6.19-.65-7.85-.11-12.86,4.43-14.37,6.42-.93,1.04,7.01.17,18.37.17,25.93,0,4-2.77,6.45,3.95,8.02,2.76.64,5.29-1.74,4.8-4.13-.23-1.11-2.44-1.12-2.74-1.56-.24-.35-.31-5.7-.43-7.19-.49-6.45-.97-12.34-1.62-18.21-.27-2.4,2.14-6.36.83-9.31-6.14-1.84-9.97-9.1-16.83-8.15l1.98,7.51c.14.85-1.9.56-1.98.49ZM204,390.01c-2.86.81-10.65-5.84-11.99-1.5-.88,2.86,4.66,5.03,6.49,5.08.94.02,7.38-1.72,5.51-3.58Z"></path>
      <path d="M910.73,730.25c1.44,4.24,5.63,6.09,6.59,10.95.64,3.25-1.77,5.72-.91,8.82.47,1.69,5.33,10.36,6.6,12.28.66,1,2.03.35,2.01,1.21-.06,2.53-3.13,1.59-3.09,3.96.56,14.69,1.59,29.49,1.71,44.2.06,7.52-.69,15.17-.68,22.79.04,36.18.67,72.51-.95,108.55l-1-2.99c-4.47-2-5.65,2.7-6.56,2.88-.96.19-2.66-1.27-3.29-.8-1.81,1.35-4.5,3.96-7.43,5.09-30.59,11.82-52.28,16.42-83.11,2.72-2.83-1.26-7.45-3.65-9.6-5.89,10.86,2.73,22.49,8.43,33.58,9.91s29.69-2.34,40.43-5.42c11.2-3.21,22.4-9.84,33.86-12.64,1.42-16.19-.46-32.39-.47-48.47-.01-33.49.03-65.69.53-98.93.12-7.89,3.16-21.74-.51-28.39-.44-.8-5.47-7.87-5.93-8.08-.75-.35-.16,1.47-1.21,1.96-1.31.61-3.08.51-4.54,1.1-.76.31-.72,1.96-1.33,1.96-6.41-.05-1.81.41-4.86,1.61-11.01,4.33-36.1,1.02-47.98-.7-10.02-1.45-34.68-5.93-42.26-11.27-3.88-2.74-4.2-7.32-3.28-11.92.17-.82,3.59-2.67,3.71-2.94.24-.53-2.16-2.19.73-1.78,4.58,3.61-3.69,3.22-2.01,7.93.21.59,4.09,6.13,4.59,6.49,4.41,3.17,26,6.48,32.56,7.44,14.44,2.13,54.19,8.09,63.86-4.9,4.76-6.39,1.34-9.92-4.56-13.39-11.11-6.54-50.42-10.07-64.37-10.62-7.55-.3-17.46,3.75-24.5,6.58-1.04.42-2.12,2.42-2.54,2.44-.51.03-2-1.51-1.03-3.01,1.09-1.7,10.97-4.67,13.47-5.32,16.14-4.22,48-3.74,64.48-.54,6.52,1.27,12.82,5.68,19.31,7.14Z"></path>
      <path d="M636.6,687.63c-.08.26-1.31.5-1.52,1.15-4.39,13.25-7.61,43.34-1.13,55.77,1.66,3.19,7.17,9.19,9.49,12.52,1.1,1.58,3.52,7.38,3.87,7.69.93.82,6.95,5.86,7.46,6.47.79.95.41,3.4,1.46,4.59.79.89,3.54.36,5.09,1.28.57.34,6.21,5.7,6.44,6.09s-.75,1.77-.24,2.73c2.73,5.14,12.84,11.95,18.39,13.5.67.19,1.97-.47,2.03-.36.25.43-.23,1.93.32,2.62.2.24,4.26,4.17,4.53,4.33,1.01.56,6.18,1.01,7.41.7,7.18-1.82,24.93-18.64,30.35-24.66,20.25-22.49,18.26-40.89,23.96-68.6,2.08-10.1,4.16-15.75,3.53-25.9-.37-5.97-1.09-11.1-1.12-17.07-.03-5.61.9-11.31.06-16.94l3.02-.55c0,1.67-.1,3.45.42,5.07,2.06,6.31,3.53,15.6,3.59,22.44.02,1.98-1.33,3.9-1.05,5.95.3,2.22,2.88,2.9,2.86,4.84-.02,2.05-2.7,5.76-2.79,8.31-.09,2.68,2.02,4.23,2.03,5.86,0,.64-1.67.52-2.07,1.21-1.74,2.97-.69,7.3-1.09,10.72-1.02,8.63-2.61,15.24-2.92,24.01-.03.73-2.2.51-2.47,2.43-.24,1.68.98,3.63.38,5.52-.44,1.37-2.69,1.38-3.23,2.89-.59,1.66.62,3.51.38,5.07-.13.82-1.83.67-2.35,1.9-1.07,2.53-.65,5.64-2.36,8.52-1.62,2.73-5.12,4.5-6.1,5.43-.61.58-.23,3.61-1.16,5.16-.16.27-3.62,3.53-4.45,4.36-4.9,4.85-24.11,18.43-26.41,21.6-3.02,4.17-2.17,2.33-7.75,4.68-1.71.72-2.77,2.25-4.13,2.72-.81.28-7.79-.41-8.57-.7-1.21-.46-1.02-2.26-2.42-2.79-1.27-.48-3.22.12-4.38-.65-1.08-.71-.89-3.37-1.93-4.14-.33-.24-5.46.45-7.76-1.68-.95-.89-.58-2.62-1.53-3.47-3.37-2.99-13.34-9.03-15.78-12.67-4.21-6.29-8.52-9.39-12.78-15.21-3.83-5.23-12.15-18.4-13.94-24.1-10.76-34.09,9.02-70.47,18.01-104.53l4.75-9.73c-4.64,18.76-10.62,37.19-16.39,55.62Z"></path>
      <path d="M251,708c-3.79.4-6.48,3.94-10,2.5,3.84-2.81,8.48-6.16,12.65-8.35,2.98-1.56,8.3-1.09,8.35-5.15l-3.02-.5c2.42-.32,1.64-2.94,2.68-3.53,2.74-1.54,10.7-3.29,14.51-5.09,5.65-2.68,12.04-7.07,17.64-9.78,6.75-3.27,15.12-5.83,21.91-9.39l1.28-3.7c-2.86-1.28-6,1.39-7.5,1.53-6.22.57-2.71-1.58-10.14,1.38-6.6,2.63-8.94,3.35-16.32,7.62-1.91,1.11-5.38,1.6-6.45,2.37-1.14.82-.35,2.82-.6,3.1s-1.99-.82-3.01-.44c-3.44,1.27-11.19,8.23-14.33,10.08-14.16,8.33-27.53,12.9-42.84,18.48-18.71,6.82-47.32,14.12-63.46,29.23-1.02.96-7.7,8.81-7.96,9.59-.57,1.7-.43,4.52.86,5.81,2.39,2.4,8.77-.76,8.73,1.75-.02,1.64-6.44,1.35-7.54,1.03-6.3-1.83-4.25-8.99-1.45-13.04,19.37-27.96,75.54-33.29,104.21-49.57,15.41-8.75,35.82-27.71,53.55-30.67,4.9-.82,10.23,0,15.28-1.74,7.77,10.57-13.99,14.68-20.95,18.09-9.44,4.63-18.66,10.2-28.09,14.91,3.92.28,8.87-3.08,12.44-3.55,1.85-.25,15.68.2,17.71.6,4.92.97,9.53,8.53,9.62,13.13,0,.48-3.02,7.31-3.53,8.06-1.84,2.73-12.06,13.29-14.61,14.37-1.07.45-9.57,3.51-10.11,3.51s-1.49-1.17-2.81-1.27c-9.07-.66-18.31-.19-27.13-.33-4.47-.07-7.39-.3-12.04,1.29-2.39.82-3.99,3.07-5.57,4.15-13.86,9.46-27.64,14.13-42.85,21.14-8.19,3.78-20.28,12.03-28.88,14.15-4.68,1.16-8.24.23-6.75-4.78,1.84-6.17,10.13-9.02,13.65-14.36,1.11-1.45,7.43-1.97,6.89-4.11-.33-1.3-2.91-.11-3.74.25l-15.94,8.08c-4.68-1.28,1.43-2.01,2.38-2.61,14.51-9.1,30.07-11.89,45-20.03,1.77-.97,2.87-2.88,4.78-3.23s2.11,1.42,1.52,2.01c-.42.42-6.61,1.06-4.48,4.03,8.17-2.58,15.81-7.44,24-11.01l.48,1.97c-5.07,3.07-10.6,5.1-15.93,7.63-9.89,4.68-21.26,10.2-31.83,15.13-2.4,1.12-5.95.89-8.53,2.26-1.35.72-12.36,9.83-13.15,11.06-1.01,1.56-2.8,5.41-.03,5.95.81.16,12.7-6.26,14.78-7.22,15.94-7.36,37.04-17.01,51-27.48,10.04-7.53,22.45-7.19,34.24-7.35,6.34-.09,16.9,1.2,22.83-.08,3.36-.73,12.35-5.87,14.66-8.34.95-1.01,7.67-12.27,7.74-13.19.32-4.36-4.81-8.83-8.74-9.87-12.4-3.29-35.55,5.38-45.03,13.53.98-.1,2.02.05,3,.01l-1.99,3.21-10,8.77,4.13-7.36c1.86-1.15,3.45-3.42,4.86-4.64Z"></path>
      <path d="M167.56,534.45c9.55,5.84,16.26,14.19,25.94,21.55,2.2,1.67,11.91,6.14,12.38,8.63.97,5.15-11.96,9.86-15.62,12.09-5.27,3.21-10.82,7.47-16.35,10.73-4.54,2.68-3.03,2.56-4.51,3.64-1.38,1-6.34,2.5-8.79,4.07-7.27,4.68-14.83,9.37-22.55,14.45-1.32.87-3.82,2.98-5.3,3.69-1.34.64-5.28,1.6-5.58,1.95-.47.54.06,2.26-.29,2.59-.42.4-9.63,2.29-10.75,3.37-.46.45.32,2.2-.79,2.83-4.87,2.75-11.59,5.29-17.13,8.63-15.85,9.57-31.15,19.66-48.03,27.06-1.8.79-4.31.09-6.17,2.74,2.81,4.7,5.6,10.77,11.15,12.85,10.42,3.9,22.43-2.75,33.23-.22,4.24.99,7.71,4.13,11.6,5.39,11.99,3.87,21.51-4.48,32.51-5.53,5.59-.53,11.37,2.39,16.57,2.54,6.06.17,18.15-2.49,23.27-5.64,2.11-1.3,3.11-3.48,5.41-4.59,5.81-2.78,15.57-2.1,21.19-4.8,1.11-.54,16.84-16.44,17.5-17.48,1.65-2.6,3.09-8.42,5.01-12.01s5.95-6.92,6.89-11.2c1.18-5.34-2.93-12.6-2.34-17.18.25-1.99,2.85-5.6,3.39-8.14,2.18-10.17,1.19-16.83-2.4-26.45,1.51.63,3.08,2.27,3.77,3.72,4.47,9.35,5.41,19.98,1.97,30.53-.48,1.47-2.29,2.29-2.52,3.37-.31,1.48,1.8,12.47,1.36,15.94-.19,1.43-7.37,8.7-8.76,11.78-1.32,2.89-1.21,5.48-2.12,7.88-.79,2.1-9.1,11.72-10.99,13.51s-9.75,8.41-11.51,9.27c-4.25,2.07-11.4.88-16.82,2.88-2.35.87-5.98,4.5-7.61,5.39-12.13,6.58-19.9,5.68-32.83,4.27-11.82-1.28-16.37,1.31-27.18,4.55-.79.24-.78,1.91-1.34,1.93-1.03.05-9.28-.95-10.68-1.23-4.63-.93-11.87-6.42-16.27-6.74-5.42-.39-13.22,2.06-18.3,2.41-3.83.26-7.81-1.81-11.53-.49-2.22-3.6-7.99-6.18-10.23-9.3-1-1.4-.85-4.24-2.37-5.17-3.72-2.26-12.65,2.55-17.02-.99,2,.19,3.28-2.25,3.49-2.29.35-.07,1.6.73,2.69.52,28.91-5.66,59.91-28.73,84.67-43.59,16.73-10.04,34.92-18.26,49.98-31.02l34.7-20.09c2.13-4.05-9.5-8.37-12.47-10.58-10.53-7.8-20.07-18.12-31.06-25.91-2.1-1.96-.53-1.93,1.09-1.12,2.8,1.41,5.78,3.4,8.48,5.04Z"></path>
      <path d="M198.5,508c-.42-.05-4.78-.97-4.49-1.99,9.42-2.57,19.53.08,28.44-.27s22.25-6.63,31.65-9.35c1.59-.46,2.66-2.22,4.35-2.32,3.82-.22,26.98,6.13,29.95,8.02,1.53.97,2.16,3.23,3.6,4.4-3.89,2.43-3.94-1.42-5.62-2.44-.94-.57-19.23-5.76-20.96-5.98-18.02-2.36-30.15,12.01-47.78,10.05-.91.19-1.16.76-1.44,1.56-2.04,5.77-3.14,12.85-5.21,18.71,4.58,2.94,8.05,8.8,12.08,12.04,2.73,2.2,10.21,7.42,13.44,9.56,5.69,3.76,25.31,9.83,31.97,10.05,1.93.06,10.85-.83,12.3-1.39.38-.15,5.63-4.7,6.19-5.44,10.2-13.34,10.24-31.82,22.03-44.22.43,5.83-3.58,10.75-5.5,15.99-3.91,10.71-7.29,24.04-15.96,33.04-2.04,2.11-5.59,4.97-8.47,5.54s-15.18.47-18.11,0c-15.2-2.48-33.79-12.75-43.29-24.22l-5.66-4.34c.86,2.93-2.03,7.51-.11,9.58,1.03,1.12,2.88,1.01,3.75,1.78,8.56,7.49,14.85,12.73,25.68,17.82,2.7,1.27,11.61,4.65,14.19,4.64,3.98-.02,17.02-5.31,19.5-3.81l-.55,3.04c-4.35.39-8.88,3.64-12.88,4.01-1.94.18-10.17.18-11.99-.15-3.52-.63-29.55-14.85-32.52-17.48-2.64-2.33-4.19-5.98-6.21-8.83-.77-1.08-2.49-1.48-2.68-1.81-1.69-2.91,5.4-11.34,2.54-13.59-.59-.47-2.07.14-2.8-.82-2.85-3.76,5.9-16.97,7.09-21.39-5.29-.42-11.31.57-16.5,0Z"></path>
      <path d="M292,357.01c.07.09-1.13,1.9-1.01,1.98,2.26.32,4.79.14,6.99.56,1.11.21,3.26-.08,3.01,1.44-4.31,1.06-7.7,1.46-11.99.02-1.72,1.43,12.82,9.19,14.52,9.96.54.15,2.18-5.18,4.16-5.85,2.15-.72,19.38,2.96,16.31,5.87-.47.45-5.44-1.19-6.47-1.55l-10.51,2.54c4.64,1.34,9.12,4.46,13.92,5.38,2.18.42,5.41-.36,7.41,0,7.43,1.36,14.86,4.59,22.66,3.62,1.85-1.84-6.43-7.37-8.11-8.38-8.91-5.37-24.18-9.39-34.49-12.51-3.18-.96-9.45-.02-9.39-4.1.53-.49,12.67,1.78,13.5,3.99l.99-1.99c3.67,4.28,10.03,3.63,14.67,5.33,9,3.29,16.42,8.1,24.56,12.94,3,10.88-2.6,5.99-7.43,5.97-2.83-.02-2.89-.01-5.82-.19-3.88-.23-11.34-1.13-14.45,1.48-1.8,1.51-1.46,4.48-5.86,7.13-10.66,6.43-25.41,10.86-34.48,20.3-1.92,2-4.42,7.85-6.22,10.02-2.47,2.97-8.45,5.64-8.47,10.02-2.97-.38.61-6.99,1.32-7.69.63-.62,3.81-1.31,5.05-3.4,10.74-18.11,19.32-19.57,36.25-29.3.48-.28.64-1.61,1.63-1.93,1.31-.43,2.77.52,3.49.12,1.21-.68,4.62-5.22,3.22-6.74-.18-.2-4.52-.75-5.34-.7-20.44,1.19-31.95,12.95-46.94,23.29-5.87,4.05-12.36,5.78-18.39,9.15-1.88,1.05-14.98,11.43-16.28,10.21-1.66-1.54,1.26-2.17,1.87-2.59,7.95-5.53,15.15-11.84,23.21-16.86,9.58-5.97,19.95-15.34,31.9-20.07,1.26-.5,2.68-.46,4.01-.49l-11.24-6.96c-1.2-3.89-4.44-2.91-4.64-3.16-.37-.47-1.63-5.61-2.12-6.87.58-.62,9,6.11,10.2,7,1.06.78,1.58,2.29,3,3.26,9.06,6.15,13.78,5.11,23.78,1.72l-13.25-5.23c-4.05-3-8.26-5.73-12.28-8.76-3.23-2.43-5.24-1.18-4.46-7.99,1.48.22,7.22-1.03,8.01,0Z"></path>
      <path d="M404.2,382.86c.43.41,2.17-.16,2.61.29.79.81-.74,3.18,1.18,2.85.4-2.2-1.15-6.43-.65-8.3.12-.44,2.54-5.37,2.81-5.54.95-.61,6.36.35,6.85.86,3.22,3.35-5.73.75-5.98.99-.19.18-1.39,4.46-1.45,4.89-1.26,8.68-.53,14.68,1.47,23.4.08.35,2.64,1.54,2.46,3.7l4.5-7c.87,10.16-9.32,13.3,2.28,21.59l10.73,2.4c-5.8,3.47-10.53-1.55-13.67-1.85-5.5-.53.97,10.62-.39,13.3l3.06.58c.08,1.55-1.93,1.15-2.91,2.57-3.48,5.02,1.85,5.03,1.89,5.92-4.52,3.72-3.07,11.97-4.39,17.79-6.41,28.14-18.56,33.77-39.48,49.34-3.93,2.93-7.58,6.07-11.1,9.38-.47-4.9,4.34-4.96,5.8-6.15.18-.15-.73-1.51.15-2.29,8.62-7.61,20.2-13.05,28.04-22.33s17.59-34.99,13.85-46.61c-.52-1.61-4.49-1.53-2.85-3.59.14-.17,2.33-.26,3.41-1.98.25-.39.4-8.15.34-9.21-.69-10.84-4.24-22.11-5.76-32.82l-3.98,1.99c-.52-1.84,1.45-2.39,1.82-3.75,1.35-4.83-5.57-14.41-6.85-19.26-6.11,2.54-14.33,5.28-20.85,6.44-1.14.2-2.44-.49-3.53-.33-3.2.47-10.81,3.85-12.6-.63-.84-2.12,1.43-1.35,2.5-1.46,4.36-.45,12.06-.51,15.74-1.26,5.17-1.06,11.17-4.56,16.72-4.79,1.35-6.36-5.12-11.01-10.28-13.16-7.31-3.04-25.01-2.99-33.24-2.85-2.6.05-10.94,3.31-10.45-.96,13.49-.41,33.73-3.34,46.24,2.25,2.28,1.02,11.37,7.8,12.24,9.76s1.75,13.99,3.72,15.84Z"></path>
      <path d="M555.78,873.32c5.75,5.2,7.05,15.45,15.3,19.1,15.51,6.88,18.57,5.42,31.96,17.97.38.36,1.66-.34,1.81-.19.49.47,3.67,8.95,4.04,10.44,2.01,8.12-1.64,12.58,4.12,20.58,1.11,1.54,4.2,3.36,5.34,4.89,5.95,8.06,10.74,31.6,6.9,40.59-5.22,12.24-13.99,24.48-16.03,39-8.69,11.5-6.41,20.64-22.79,23.29-19.19,3.11-19.83,9.92-35.23,16.69-9.01,3.96-20.41,5.13-30.2,5.29,1.68-3.74,6.93.25,4-4.98l2.03,3c8.11-1.15,18.25-3.16,25.65-6.83,6.9-3.42,14.64-11.17,22.03-13.97,9.22-3.51,17.22.61,23.68-8.32,10.15-14.03,11.94-30.34,18.87-45.13,1.53-3.26,5.12-6.65,6.15-10.66,2.2-8.54-1.6-26.28-6.04-33.96-3.17-5.48-10.08-10.6-11.13-16.9-.41-2.49,1.26-6.76.69-10.67-1.46-10.05-16.98-20.69-25.7-24.29-4.45-1.84-11.54-2.23-15.49-5.24-3.56-2.71-6.7-10.45-9.91-14.36-10.44-12.71-18.35-9.1-30.09-14.91-5.42-2.69-10.05-8.66-15.74-11.26,7.89-1.07,12.34,7.56,18.99,10.01,4.85,1.78,10.67,1.56,16,4,1.34.61,10.3,6.38,10.78,6.82Z"></path>
      <path d="M1019.99,506.01l-13.38,2.1c-6.62.13-10.29,7.42-14.4,9.86-7.47,4.43-21.8,6.96-30.89,11.85-4.32,2.32-20.86,14.47-21.14,18.83-.19,2.96,5.69,7.03,4.77,13.76-1.29,9.42-20.47,12.84-24.46,24.57-5.4,15.91,3.11,20.43,8.53,32.48,3.21,7.12,3.74,23.25,11.24,26.8,7.48,3.54,16.38,2.63,21.76,10.45,7.8,11.32,9.48,19.69,20.93,29.82,3.44,3.04,8.33,7.25,13.04,7.45.92-.98-2.31-15.46,2-17,.97,6.67-1.22,13.47,1.01,19.99-1.36,1.63-11.09-3.35-12.93-4.61-4.01-2.75-11.02-12.99-14.4-15.13-.89-.56-2.49-.1-2.68-.27-.11-.1,1.06-1.63.53-2.93-.41-1.01-11.17-17.15-12.02-18.06-4.81-5.16-6.26-2.29-8.85-3-1.1-.3-1-2.16-1.59-2.52-.77-.48-2.61.69-4.27.33-8.1-1.74-11.45-11.5-13.34-18.77-.39-1.5.61-3.09.13-5.03-2.06-8.4-8.6-14.22-10.91-22.79-.04-.16-1.5-.18-1.65-.88-.3-1.39-.59-6.91-.47-8.49,1.3-16.72,13.27-20.66,25.33-29.52,3.98-7.14-5.03-12.86-3.93-18.8.49-2.66,2.7-2.4,4.11-4,7.48-8.48,10.67-11.97,22.17-17.6.82-.4.77-1.94,1.35-1.94,6.4.06,1.57-.26,5.09-1.78,4.26-1.84,11.28-2.66,15.04-3.95,4.66-1.59,9.2-7.46,13.1-9.13,6.04-2.6,14.72-3.49,21.17-2.1Z"></path>
      <path d="M600.31,341.69c1.41,2.01,7.32,3.56,8.26,5.31s-1.64,9.17-.57,11.99c9.5-.89,10.11-4.36,13.74-11.8.66-1.35-.64-2.76,2.26-2.19-.71,3.87-5.68,9.81-5.07,13.43.1.58,10.81,3.72,1.12,7.1-7.53,2.63-18.51-3.48-29.37-1.15-9.41,2.02-10.1,10.14-.21,10.71,3.03.17,7.67-.77,10.78-1.34,2.16-.4,5.21-3.81,5.81.77.42,3.23-3.21,6.84,1.44,9.33,5.01-1.67,5.33-9.14,10.5-8.85-.81,4.9-2.81,12.84,4,13.99,1.33-1.49-1.47-14.61-1.49-17.49,0-1.11.32-3.16,1.98-2.49,2.2.87.65,17.07,2.69,18.81,1.05.9,5.24.11,6.83.67,4.44,1.56,8.59,7.67,8,12.51,1.15,1.2,9.18-4.57,10.69-4.77.45-.06,8.16,2.4,8.63,2.69,4.24,2.62,1.57,10.74-.34,14.07-1.91.2-.74-2.02-.54-3.05.6-3.04,2.94-6.57-.9-8.97-6.72-4.19-12.18.8-18.04,4.02-2.01-.43-1.01-11.82-8.11-13.93-11.58-3.43-23.05,7.98-19.62,19.57,1.25,4.22,5.8,4.31,5.21,9.36l-7.99,1,4-2c1.33-3.68-1.72-4.01-2-4.69-2.4-5.76-2.45-11.9.25-17.56,1-2.11,4.68-5.09,4.75-5.45.7-3.7-3.05-6.09-1.01-10.3-7.2,8.51-16.13,3.87-10.99-5.99-5.53,1.5-23.1,5.42-24-3.53-.21-2.08,2.92-7.84,4.2-8.33.88-.34,1.74.7,2.31.71.67,0,.37-1.61,1.12-1.81.51-.14,3.4.53,4.82.41,3.93-.32,7.45-1.62,11.55-.46-1.89-2.33-.16-4.03-.1-5.56.02-.54-1.87-.39-1.86-.85.03-1.58,3.89-7.77,2.97-8.57-8.66.55-12.59-14.86-5.02-19-1.54,3.98-3.42,9.77-.68,13.69Z"></path>
      <path d="M837,349.01c-3.43,3.19-10.25,3.58-6.02,10.29.57.9,12.95,5.67,15,6.22,6.59,1.78,18.52,3.2,25.48,3.5,3.45.15,13.25.66,15.89.03,2.21-.52,1.02-4.03-.41-5.47-7.78-7.78-26.32-9.61-36.94-10.58v-2.99c6.54,2.33,17.35.41,23.31,2.19,1.26.38,1.98,2.07,3.42,2.58,2.51.88,5.04.08,8.19,1.81.69.38,6.99,6.64,7.09,7.13.72,3.7-1.61,6.49-1.83,9.47-1.76,23.85.72,52.03.5,76.3-.16,17.5-10.65,37.79-25.65,46.91-1.15.7-7.89,1.1-9.55,2.58-1.4-.85-1-1.16.28-1.93,4.1-2.46,13.86-6.43,17.29-9.77,1.96-1.9,10.3-17.45,11.9-20.94,4.29-9.38,2.22-18,2.18-27.98-.08-22.54,1.01-44.88,1.86-67.36-2.17-1.01-4.49,1.57-5.52,1.62-.95.05-2.12-1.36-3.08-1.35-11.56.23-35.48-.98-45.73-6.48-.36-.19-6.06-4.81-6.25-5.17-3.84-7.42,1.61-10.52,8.59-10.62Z"></path>
      <path d="M682.99,932.99c-.79.78-4.39-.4-3.95-2.4l2.95-30.59c-.39-.33-8.7.14-10.34.39-25.09,3.83-44.6,30.58-28.66,53.84.6.87,2.18,1.77,3.24,3,.5.58,3.52,3.32,1.77,4.27-2.12,1.15-2.57.13-4.05-.96-11.27-8.33-13.74-23.63-9.87-36.77.24-.83,1.52-.76,1.83-1.55.63-1.59.37-3.71,1.29-5.52.35-.69,10.03-10.51,10.87-11.12,3.51-2.58,13.85-6.98,18.18-7.81,4.77-.92,11.07.79,15.27-.74l1.53-34.38c2.59-11.14,3.47-22.59,4.01-34.09l3.93-11.55-7.99,115.99Z"></path>
      <path d="M364,968c-2.28-4.66.1-2.1,1.66-3.28,3.58-2.71,7.64-6.93,11.13-9.66,20.56-16.15,42.04-32.52,59.16-49.63,8.24-8.23,15.79-14.65,24.4-21.59,5.97-4.81,12.28-11.79,19.66-13.84l-28.91,23.58c-24.96,29.2-57.55,50.02-87.09,74.41-.72.59-2.48,2.54-4.26,4.03-2.01,1.68-9.26,7.52-10.25,8.97-.57.83-.85,2.03-.36,2.88,4.79,3.31,9.7,7.33,14.07,11.18,6.94,6.13,14.41,11.26,21.49,17.26s12.44,14.05,20.45,19.05c3.12,1.95,7.54,3.09,10.22,4.78,2.42,1.53,2.91,3.83,4.39,4.87,4.25,2.99,2.63-.43,3.51-1.68,2.13-3.03,12.7-10.91,16.29-14.26,30.26-28.12,60.65-57.62,93.81-82.71,5.25-3.97,12.78-10.68,18.04-13.94,2.3-1.43,5.89-2.96,8.61-3.41-.28,1.26-1.64,2.14-2.66,2.83-3.98,2.68-15.95,10.26-18.67,13.11-1.69,1.77-3.59,4.16-6.27,5.9-19.24,12.5-36.77,29.43-53.76,44.85-2.94,2.66-11.22,8.66-13.33,11.65-1.28,1.8,1.43,3.67-3.3,1.65,1.21,5.84-2.25,3.48-4.72,5.3-.53.39-.97,1.86-1.78,2.72-8.34,8.8-21.78,18.75-31.21,28.23-.77.77-.32,3.08-1.84,3.75-2.71.67-6.02-5.7-8.05-6.89-3.22-1.88-9.7-3.04-13.07-5.44-9.52-6.77-20.29-19.86-30.85-27.73-5.2-3.88-12.35-10.68-18.99-15.93-1.12-.88-1.58-2.97-2.49-3.51-1.62-.96-4.52-.14-4.95-.55-.18-.17-1.26-4.78-1.06-4.93.21-.16,3.08-.16,5.18-1.34,1.63-.92,9.08-6.42,10.16-7.62,1.72-1.91-.9-4.1,5.67-3.05Z"></path>
      <path d="M748.63,611.38c.28.17,4.82,3.72,5.04,3.96,1.15,1.22,5.25,7.3,2.34,8.66.21-4.58-7.32-10.28-11.13-12.38-18.25-10.04-42.65-15.61-63.12-11.36-22.18,4.6-36.29,20.38-9.65,33.13,21.1,10.09,47.93,16.56,70.43,7.65,6.24-2.47,12.61-6.66,11.96-14.04,3.45,4.05,4.57,6.52.44,10.45-1.07,1.02-3.17,1.04-3.73,1.83-.44.63.02,2.24-.31,2.56-.49.45-3.45.06-4.96.59-5.31,1.87-3.49,2.16-10.58,3.34-22.46,3.73-38.7,1.5-59.82-7.72-7.34-3.2-16.43-7.92-19.72-15.36-2.36-5.33-2.37-9.57,1.84-13.56,3.64-3.45,9.8-7.56,14.61-9.36,22.28-8.33,55.2-1.18,76.37,11.61Z"></path>
      <path d="M734.68,918.33c.49.44.27,2.16,1.38,3.12.67.58,2.16.26,3.02,1.22s5.29,12.19,5.38,13.81c.13,2.18-2.39,17.23-3.37,18.8-.79,1.27-5.59,3.9-7.08,5.28-.87.81-.07,2.18-.99,2.89-4.92,3.72-6.74,4.2-12.3,5.54-1.1.27-.96,2.43-2.33,2.87-9.07,2.92-31.79,3.91-41.38.64-4.16-1.42-8.98-4.59-13-6.51-.26-1.76,2.3-1.03,3.26-.76,3.54.96,8.53,3.84,12,4.46,9.76,1.74,31.84-.47,40.94-4.72,1.91-.89,10.52-7.86,12.31-9.93,14.88-17.18,1.62-29.33-9.52-43.02.5-.44,10.62,5.36,11.68,6.32Z"></path>
      <path d="M973.99,496.01c3.02,2.8-11.91,13.29-13.04,14.45-7.98,8.18-11.9,12.57-20.85,20.15-2.17,1.84-2.18,5.66-6.09,3.4.9,4.09-1.88,2.45-2.77,3.24-.52.46.04,2.04-.87,2.83-2.76,2.41-11.54,5.78-14.66,7.93-9.36,6.44-18.21,15.46-28.39,20.82-1.5.79-8.85,4.61-9.34,1.65,1.21-3.52,3.61-6.65,6.36-9.08,4.25-3.75,9.64-6.38,13.7-10.87.83-.91.62-2.83,1.19-3.33.69-.6,2.26.02,2.76-.2.33-.15-1.38-2.28-.97-2.88.46-.67,6.5-3.34,7.32-4.05,1.25-1.08,1.02-1.71,4.11-4.08,11.39-8.74,22.47-18.87,33.92-26.59,4.41-2.97,18.16-12.4,22.35-13.16,1.75-.31,3.49-.33,5.25-.24ZM970,499.01c-2.39-.05-4.84,1.47-6.86,2.63-14.47,8.34-40.33,26.82-52.77,37.73-6.1,5.36-10.28,12.6-15.83,17.62-1.89,1.71-6.21,3.69-8.89,6.19-.53.49-4.67,3.99-3.65,4.8,1.3,1.02,7.91-3.26,9.32-4.17,22.29-14.28,44.4-31.67,63.14-49.89,5.13-4.99,10.8-9.53,15.53-14.93Z"></path>
      <path d="M203.99,58.01c3.02,2.8-11.91,13.29-13.04,14.45-7.98,8.18-11.9,12.57-20.85,20.15-2.17,1.84-2.18,5.66-6.09,3.4.9,4.09-1.88,2.45-2.77,3.24-.52.46.04,2.04-.87,2.83-2.76,2.41-11.54,5.78-14.66,7.93-9.36,6.44-18.21,15.46-28.39,20.82-1.5.79-8.85,4.61-9.34,1.65,1.21-3.52,3.61-6.65,6.36-9.08,4.25-3.75,9.64-6.38,13.7-10.87.83-.91.62-2.83,1.19-3.33.69-.6,2.26.02,2.76-.2.33-.15-1.38-2.28-.97-2.88.46-.67,6.5-3.34,7.32-4.05,1.25-1.08,1.02-1.71,4.11-4.08,11.39-8.74,22.47-18.87,33.92-26.59,4.41-2.97,18.16-12.4,22.35-13.16,1.75-.31,3.49-.33,5.25-.24ZM200,61.01c-2.39-.05-4.84,1.47-6.86,2.63-14.47,8.34-40.33,26.82-52.77,37.73-6.1,5.36-10.28,12.6-15.83,17.62-1.89,1.71-6.21,3.69-8.89,6.19-.53.49-4.67,3.99-3.65,4.8,1.3,1.02,7.91-3.26,9.32-4.17,22.29-14.28,44.4-31.67,63.14-49.89,5.13-4.99,10.8-9.53,15.53-14.93Z"></path>
      <path d="M341,598.01c-1.6,3.07-6.46,2.31-9.24,3.24-8.25,2.78-18.88,10.4-20.56,19.5-1.01,5.46.7,11.08,5.07,14.59,13.93,11.19,58.9,9.81,70.71-4.87,2.83-3.51,4.67-10.27,3.75-14.69-.62-2.96-8.37-15.06-7.71-15.79,1.78,2.08,6.08,2.55,7.49,4,1.62,1.68,1.29,4.86,1.97,7.02.44,1.38,2.08,2.53,2.26,3.62.07.44-.16,8.32-.23,8.86-1.26,8.8-8.63,12.15-15.16,15.85-.59.33-.78,1.8-1.36,2.16-.51.32-9.26,2.32-11.52,2.99-5.27,1.56-17.62,2.29-24.8,2.01-6.72-.26-20.33-3.66-25.95-7.52-9.17-6.29-9.88-18.51-3.54-27.31.58-.8,7.45-8.35,8-8.55.97-.36,1.85.82,2.81.88l.05-2.92,17.95-3.08Z"></path>
      <path d="M721,423.01c-.51,6.12.79,11.4-.95,17.54-1.07,3.77-15.02,22.5-14.04,23.45,9.26-1.41,12.04-7.63,20.49,0,16.87,15.25,4.77,29.34-15.37,21.37-3.14-1.24-7.33-5.34-7.81-5.41-2.5-.39-6.65,1.57-10.75.97-1.44-.21-10.57-4.18-11.09-4.91-.78-1.08-1.34-3.47,1.02-3.03.88.11.25,1.4,1.29,1.93,4.92,2.53,12.18,4.3,17.56,2.95.44-.11,2.79-3.64,6.66-1.87.76,2.18-3.08,2.75-1,4.51.53.44,12.15,4.87,12.84,4.96,4,.5,12.34-2.38,12.76-6.98.33-3.61-8.18-14.78-11.66-15.99-4.9-1.7-12.17,7.42-18.94,3.47-1.33-1.84,6.33-10.99,7.99-12.49-1.48-1.4-6.32,2.52-6.99-.48,3.11-.27,8.15-4.62,9.28-7.34.18-.44-1.07-6.42-1.29-6.68s-6.37.58-6.69.72c-.96.42-5.97,2.62-6.27,2.81-.25.15-3.7,2.87-4.38,3.4-.8.63-5.19,8.97-5.84,10.39-.99,2.18-2.54,9.91-3.96,10.51-1.24.52-2.84-.82-2.83-1.32,0-.21,2.18-1.97,2.76-3.23,5.99-13.04,4.68-18.45,19.45-24.36.87-.35.78-1.81,1.46-1.93,1.93-.33,8.27.83,9.37,2.72l1.95,5.81c.93-1.78,3.5-7.29,3.55-9.01.02-.65-1.17-1.51-1.16-2.15.05-3.38.81-7.09-.4-10.34h3Z"></path>
      <path d="M346.61,1006.38c.98,1.45,2.37,2.78,3.14,4.37,1.33,2.74,1.55,7.22,3.7,9.3,2.36,2.28,13.35,3.93,18.05,6.95,10.17,6.53,9.64,18.28,20.84,23.25,3.55,1.57,11.29,2.1,15.15,1.74,5.77-.54,11.39-4.28,16.86-3.92,12.69.85,12.88,18.27,29.15,14.68.58-.13.45-1.53,1.23-1.68,9.99-2,23.33-2.6,31.27,4.92-7.1-1.58-13.92-4.73-21.67-4.61-10.27.17-16.54,8.01-26.93-.81-4.16-3.53-4.83-8.48-11.36-10.11-5.22-1.3-18.94,5.22-26.7,4.18-2.63-.35-3.79-1.68-6.08-2.43-1.55-.51-3.87.24-5.06-.43-.47-.26-.82-2.1-1.63-2.84-9.23-8.46-8.67-17.13-21.58-22.44-3.56-1.46-11.95-2.24-14.41-5.48-.51-.67-2.13-8.96-4.55-12.29-.71-.97-5.75-4.57-5.89-4.93-.36-.88.88-1.92.63-2.63-.61-1.79-7.4-7.87-8.18-9.23-1.4-2.44-3.37-9.36-4.92-11.64-.55-.81-10.37-11.5-10.98-12.07-.5-.47-1.86.17-2.7-.95-5.91-7.92-7.04-28.88-5.36-38.55.17-1-.91-2.3,1.35-2.75-.27,16.94-.45,30.3,10.61,43.9,9.37,11.52,17.71,24.17,26.01,36.48Z"></path>
      <path d="M1017,684.01c-8.91,44.12-12.49,88.84-19.15,133.33-2,13.38-10.39,45.84-8.93,57.24.24,1.87,3.52,1.17.59,5.42-5.18-3.25-3.4-9.37-2.9-14.47,2.1-21.47,8.12-44.76,11.29-66.12,5.02-33.87,8.06-70.76,15.19-105.85.6-2.94-.37-9.52,3.91-9.55Z"></path>
      <path d="M419.6,201.62c-3.02,5.32-8.56,8.27-12.58,12.9-3.29,3.8-5.69,9.69-8.36,13.14-1.44,1.87-6.42,3.84-7.15,7.2s1.46,16.63,1.51,21.57c.09,8.82.56,24.75-1.07,33.06-.31,1.6.69,1.73-1.96,1.5.77-4.33-.77-9.4-.71-13.38.15-10.07,1.04-20.57.76-31.07-.11-4.02-1.58-10.37-.63-13.64.6-2.08,5.52-5.14,6.96-7.03,1.88-2.47,3.23-7,4.77-9.23,6.5-9.46,14.27-10.96,19.14-22.86,7.69-18.77,6.44-40.65,2.61-60.19-1.05-5.38-4.04-10.47-2.88-16.59l3.29,9.01c5.75,24.62,9.33,52.61-3.7,75.6Z"></path>
      <path d="M119.6,265.62c-3.02,5.32-8.56,8.27-12.58,12.9-3.29,3.8-5.69,9.69-8.36,13.14-1.44,1.87-6.42,3.84-7.15,7.2s1.46,16.63,1.51,21.57c.09,8.82.56,24.75-1.07,33.06-.31,1.6.69,1.73-1.96,1.5.77-4.33-.77-9.4-.71-13.38.15-10.07,1.04-20.57.76-31.07-.11-4.02-1.58-10.37-.63-13.64.6-2.08,5.52-5.14,6.96-7.03,1.88-2.47,3.23-7,4.77-9.23,6.5-9.46,14.27-10.97,19.14-22.86,7.72-18.86,6.45-40.58,2.61-60.19-1.05-5.38-4.04-10.47-2.88-16.59l3.29,9.01c5.75,24.62,9.33,52.61-3.7,75.6Z"></path>
      <path d="M187.61,616.64c-7.5,14.32-34.26,29.54-49.4,35.1-11.99,4.41-37.45,5.03-51.29,2.63-1.06-.18-8.59-2.07-8.92-2.38-.5-.48-.75-2.12,1.26-1.77,8.46,1.46,17.6,2.79,26.19,2.83,3.13.02,23.4-.57,24.39-1.28,4.15-3,1.81-1.15,6.57-2.8,11.83-4.1,32.53-16.03,41.22-24.36,4.04-3.88,4.05-5.31,6.47-9.82s4.93-9.83,6.47-15.73c1.24-4.74,1.94-11.1,2.44-16.07,1.91.36,1.7,2.11,2.06,3.51,1.66,6.48-4.27,24.01-7.47,30.12Z"></path>
      <path d="M807.35,596.35c-1.34,1.38-5.29,6.93-5.88,8.61-6.93,19.74,20.27,23.97,33.9,22.67,7.94-.76,26.19-6.91,31.69-12.05,9.44-8.83-.51-19.2-7.23-25.98l-9.83-5.6c2.95-1.42,8.56.73,11.08,2.5,1.1.77-.21,2.42-.1,2.48.66.36,3.19-.5,3.91.1.33.28.31,2.97,1.09,4.2.41.65,1.53.82,1.97,1.46,2.75,4.07,6.5,9.26,5.85,14.48-.93,7.53-13.44,13.78-19.78,16.31-12.33,4.93-31.24,7.41-44.3,1.21-10.59-5.03-14.86-13.34-9.94-24.46s17.07-15.26,27.69-18.32c.9-.26,3.59-1.86,3.48.51-.06,1.29-9.18,2.98-11.19,3.79-3.68,1.48-9.7,5.25-12.43,8.07Z"></path>
      <path d="M698.36,324.63c2.42,1.53,17.53,9.84,17.62,10.87.12,1.41-2.27,1.44-3.75.79-1.13-.5-1.25-1.9-1.95-2.28-1.48-.81-3.24-1-4.83-1.98-2.09-1.29-11.2-8.69-11.94-8.74-.47-.03-1.44,1.06-2.52.72-.31.29,7.5,9.52,2.51,6.98-1.07-.54-4.95-6.8-6.62-8.39-6.8-6.48-18.92-13.04-28.45-12.5-2.88.16-12.42,4.48-14.95,4.46-6.95-.06-16.53-4.47-24-3.95-3.7.26-9.66,1.89-13.27,3.08-1.15.38-1.22,1.95-1.42,2.03-1.25.47-8.2-.11-7.82,3.26l-1.96-2.94c8.71-3.21,16.99-7.45,26.52-8.05,7.21-.45,14.41,3.6,21.96,3.1,7.07-.47,14.52-4.99,22.5-3.1-.32-2.11-6.44-1.68-4.5-4.98,6.35,4.28,13.74,6.85,20.37,10.63,5.59,3.18,11.29,7.71,16.5,10.99Z"></path>
      <path d="M571.69,997.69c-2.07,2.47-15.98,16.66-18.2,18.29-8.51,6.24-22.51,10.98-33,12-9.04.88-20.44,1.99-29.32,2.44-7.45.38-14.7-1.72-22.17-1.44.44-1.49,5.46-1.37,6.87-1.39,7.05-.12,14.25.54,21.33.11,8.89-.54,21.51-1.56,30.17-2.84,16.51-2.43,34.56-18.41,44.06-31.93,5.94-8.46,8.29-15.13,8.59-25.46.25-8.88-1.91-18.66-3.01-27.48,1.5.66,3.23,3.21,3.63,4.68,1.86,6.8,2.8,22.56,1.96,29.66-.12,1.05-1.2,7.99-1.35,8.38-.32.83-8.79,14.04-9.57,14.97Z"></path>
      <path d="M349,134c-.65.03-2.63,1.44-3,1.01-.19-.23.35-1.94-.21-2.73-.68-.97-14.14-8.22-16.55-9.96-1.48-1.07-2.64-3.04-4.02-4.26-.52-.46-7.11-3.14-5.23-5.05,1.14-1.16,23.8,17.27,26.6,17.42,1.52.85,1.77,2.56,2.4,3.57,3.82-.16,8.64,7.48,11.25,1.75,1.23-2.71-.63-7.38,2.75-6.74-1.26,4.73-3.29,9.75,0,13.98-3.64-.89-4.27,3.37-5.29,6.22-2.01,5.61-5.48,21.41-4.49,27.04,1.86,10.54,17.97,32.74,26.84,39.17,2.54,1.85,9.95,4.47,11.45,7.56s-6.79,1.05-8.45.44c-17.18-6.35-25.89-29.96-31.14-45.67-.28-.84-1.87-.78-1.95-1.42-.16-1.25,2.7-17.29,3.27-19.61.93-3.74,5.1-11.06,4.8-14.24s-5.69-3.82-7.61-5.47c-1.37-1.18-1.04-2.39-1.44-3.03Z"></path>
      <path d="M811.39,957.6c-.37-.21-.58-1.15-1.14-1.59-2.01-1.58-3.24.46-3.61-4.2-.12-1.45-.74-2.28,1.35-2.81.42,1.57.38,3.99,1.77,4.99,1.49,1.07,12.74,5.24,14.97,5.78,5.83,1.42,14.6,1.64,20.71,2.36,16.26,1.92,54.63,4.36,66.61-8.58,2.93-3.16,2.01-8.25,5.94-10.55.13,17.81-18.05,21.74-32.46,23.41-19.31,2.23-57.36.81-74.13-8.81Z"></path>
      <path d="M694.99,947c-1.94,2.31-3.37-5.06-3.5-5.98-.55-3.81.67-7.75.6-11.54-.3-15.81.35-30.44.86-46.02.32-9.95-1.31-22.21,2.05-30.97-4.44-1.3-.72-4.37-.43-7,.67-6.05.23-14.42.97-21.43.16-1.5-3.01-4.17,1.44-6.06l-2,129Z"></path>
      <path d="M394,794.01l-11.37,8.17c-5.17,5.42-11.98,9.31-18.15,13.8-1.09.79-1.42,2.88-2.51,3.52-9.42,5.49-20.31,14.74-30.62,21.86-7.6,5.25-16.48,12.64-25.44,19.04-3.18,2.27-13.56,7.73-15.25,9.54-.91.97-.46,2.54-.82,2.84-1.04.86-6.41,2.81-9.53,5.59-2.22,1.99-5.22,4.27-7.85,6.59-3.12,2.75-5.78,8.63-10.46,9.03,2.51-3.23,5.18-6.5,8.12-9.33,18.53-17.81,43.86-32.75,64.79-48.25,14.58-10.8,28.36-23.2,43.16-33.84,4.43-3.18,10.7-8.09,15.93-8.56Z"></path>
      <path d="M802,889c-1.24,1.66-1.82-.11-2-1.49-.47-3.66.19-8.22.05-12.06-1.15-31.21-1.63-68.15-.51-99.74.07-1.86.51-11.73,1.96-11.73,1.1.93,1.4,3.12,1.51,4.5,2.1,26.56-.82,55.52-.99,82-.05,8.22,1.86,17.48,1.42,26.01-.22,4.2-1.39,8.29-1.44,12.5Z"></path>
      <path d="M801,754.01l-1,3.98c6.98,1.66,12.92,6.52,19.48,9.04,19.63,7.55,41.25,4.87,61.7,7.56,3.42.45,9.77.82,11.83,3.4-10.42-.65-20.94.07-31.3-.43-17.3-.84-33.95-1.92-49.7-9.06-1.33-.6-11.27-6.26-11.74-6.75-.72-.74-.53-2.85-1.22-4.09-.49-.89-4.98-1.36,1.96-3.65Z"></path>
      <path d="M63,193.01c-1.05,10.01-5.54,19.12-7.75,28.74-3.14,13.61-2.98,18.55,3.56,30.95,5.34,10.14,11.9,19.94,21.27,26.74,2.54,1.85,9.95,4.47,11.45,7.56s-6.79,1.05-8.45.44c-17.18-6.35-25.89-29.96-31.14-45.67-.28-.84-1.87-.78-1.95-1.42-.18-1.37,2.86-18.04,3.46-20.41,2.07-8.07,5.68-15.63,7.6-24.43.37-1.69-1.13-2.99,1.96-2.5Z"></path>
      <path d="M690.39,436.4c-.64.43-.95,1.53-2.19,2.27-2.85,1.72-19.02,8.71-19.02,9.82,0,.94,3.38,3,1.29,7.5-.68,1.46-7.24,7.23-8.95,8.06-2.44,1.19-4.78-.37-7.03,1.64l-6.49-5.19c2.55-1.66,5.47,2,7.72,2.32,4.59.65,11.72-5.47,12.28-10.28-4.38-2.51-8.04-5.95-12.1-8.92-1.27-.93-3.32-1.07-4.85-2.15-2.35-1.65-8.09-8.28-8.13-10.94-.13-8.23,3.19.05,4.04,1.04,1.45,1.69,5.25,2.12,7.03,4.01.97,1.03.75,2.7,1.71,3.5.52.44,9.11,4.97,9.76,4.99,1.39.04,6.13-.94,7.74-1.37,7.27-1.91,19.53-9.67,25.36-14.65,2.28-1.95,2.38-4.71,6.44-5.04,1.07,1.12-5.89,7.57-6.98,8.51-2.57,2.22-5.15,3.2-7.62,4.88Z"></path>
      <path d="M465.01,870.01c.15,1.59.91,1.87-1.08,1.62-9.59-1.21-19.58-1.66-29.28-.47-24.36,2.96-45.85,6.51-64.7,23.32-5.22,4.66-7.87,10.49-7.95,17.52-6.5-1.79-.94-3.23-.94-3.55,0-.86-1.1-2.03-1.09-2.89,0-.62,1.56-.51,1.72-.75.25-.39-.6-1.96.04-3.47,1.75-4.17,3.43-3.88,5.64-6.32,4.14-4.58,4.61-3.79,9.31-7.34,14.04-10.61,13.42-11.98,31.66-15.04,14.75-2.47,35.87-7.89,50.96-4.24,1.72.42,3.38,2.27,5.72,1.62Z"></path>
      <path d="M334.73,430.29c1.96,2.14,5.13,12.21,8.26,15.14-5.34,4.28-12.73,6.18-19.48,5.55-15.48-4.93-30.68-1.21-46.51-.99.27-1.88,3.92-1.9,5.39-2.17,6.49-1.2,18.44-2,25.18-2.23,7.18-.24,15.6,2.58,21.94,2.49,4.03-.05,5.77-2.13,9.5-2.1,1.33-1.29-5.89-12.97-8.71-13.79-2.19-.64-14.28-1.11-17.76-1.24-3.77-.14-9.23,1.03-11.92.77s-3.04-3.55-4.12.31c-3.66-3.03-3.7-.28-6.03-.08-2.82.24-5.65-.02-8.47.04,1.63-3.95,4.79-1.74,7.43-1.99,14.07-1.32,27.98-2.07,41.99-.89,1.12.09,2.52.33,3.3,1.19Z"></path>
      <path d="M347.63,507.38c4.24,2.97,11.64,11.99,12.04,17.25.25,3.26-1.41,8.45-1.66,11.88-1.7,23.23-4.6,47.3-7.65,70.16-.26,1.95-.47,12.95-1.87,13.34-1.92.53-2.45-3.76-2.4-4.55.1-1.43,1.65-2.36,1.74-3.93.81-13.31,1.99-27.92,3.48-40.88s8.08-37.48,4.25-49.74c-.58-1.85-1.94-1.58-2.49-2.68s-.17-3.08-1.01-4.53c-1.07-1.84-5.02-2.12-5.82-2.99-.46-.5-.09-1.9-.49-2.38-.9-1.1-4.78-1.6-5.75-3.82,2.05-.66,6.02,1.76,7.63,2.88Z"></path>
      <path d="M818,388.01c.76.83-6.47,18.42-7.28,21.21-7.62,26.35-2.52,55.36,15.31,76.25l11.97,12.52c-1.87.45-2.76-.64-4.13-1.36-12.56-6.61-27.14-34.52-28.55-48.27-.38-3.73,1.73-11.22-1.31-13.88,5.14-1.84.08-2.64.09-2.91.05-1.65,1.36-5.12,1.6-7.38,1.2-11.45,5.17-24,9.84-34.21.34-.74.86-3.73,2.46-1.98Z"></path>
      <path d="M428.44,311.46c-5.72,4.14-20.73,8.6-28.34,9.92-17.55,3.05-51.41,1.89-53.1-21.37,2.38,1.7,1.76,5.19,3.58,7.94,11.51,17.4,49.36,12.75,66.39,6.53,10.84-3.96,20.39-8.21,5.3-16.35-6.68-3.61-15.6-2.11-20.28-8.12,4.6-2.22,5.94,1,8.77,1.72s5.41.57,8.4,1.59c7.98,2.74,19.61,10.65,9.27,18.13Z"></path>
      <path d="M128.44,375.46c-5.72,4.14-20.73,8.6-28.34,9.92-17.55,3.05-51.41,1.89-53.1-21.37,2.38,1.7,1.76,5.19,3.58,7.94,11.51,17.4,49.36,12.75,66.39,6.53,10.84-3.96,20.39-8.21,5.3-16.35-6.68-3.61-15.6-2.11-20.28-8.12,4.6-2.22,5.94,1,8.77,1.72s5.41.57,8.4,1.59c7.98,2.74,19.61,10.65,9.27,18.13Z"></path>
      <path d="M1055,541.01c.53.47-7.46,9.74-8.35,10.64-9.32,9.43-20.77,18.37-30.3,27.7-6.62,6.48-12,14.27-18.83,20.69-8.09,7.6-18.68,13.9-26.14,21.27-1.39,1.38-3.84,8.13-5.88,4.69-1.75-2.95,13.88-14.5,16.4-16.61,14.54-12.14,28.5-27.18,42.16-39.82,9.57-8.87,17.35-18.09,27.45-26.57,1.12-.94,1.63-2.43,3.5-1.99Z"></path>
      <path d="M502.66,876.44c7.94,3.21,25.41,13.01,34.23,18.17,3.93,2.3,10.45,7.26,12.24,10.2.13.22,3.16,0,5.03,1.25,1.26.85,1.73,2.37,3.05,3.2,4.41,2.79,10.14,4.77,13.8,8.72-1.71.1-3.38.1-5.04-.45-8.84-2.88-18.91-12.01-27.09-16.91-14.62-8.76-31.34-14.01-43.86-26.14,2.19-.62,5.58,1.11,7.65,1.95Z"></path>
      <path d="M998.64,642.39c4.3,2.15,9.42,6.32,14.12,8.35,10.28,4.45,10.22-18.1,14.23-13.74-.62,3.89-1.48,7.37-.9,11.41.7,4.88,4.32,10.11,4.54,16.24.12,3.4-2.37,9.93-2.18,11.46.21,1.72,2.16,1.87,2.56,2.58,1.52,2.76,1.33,7.38-1.5,9.28-2.7-1.81.31-3.01.4-5.45.04-1.15-.99-2.31-.91-3.52-6.46,7.08-3.43,3.17-4.99.98-.26-.37-8.64,1.29-8.99,1.01-3.49-2.83,8.3-2.95,8.79-3.22,2.8-1.55,4.38-10.89,4.12-14.12-.14-1.73-3.37-14.16-3.95-14.64-.31-.25-2.14.1-2.97-.01l1.02,1.99c-6.03-1.5-.02,7.11-6.32,5.01-.84-.28-1.08-2.03-2.39-2.77-8.04-4.52-14.33-8.16-22.32-12.57-1.52-.84-6.33-.67-7.98-4.18-.16-.75.97-.64,1.48-.48,4.03,1.28,10.21,4.4,14.16,6.38Z"></path>
      <path d="M295.58,112.42c7.7,5.43,14.52,17.8,15.96,27.54.29,2-.81,6.35-.49,7.42.29.99,2.31.28,1.96,1.11-2.6,6.11-.11,8.31-1.58,13.97-.73,2.81-8.64,15.19-10.88,16.59-1.49.93-3.16.64-4.22,1.28-.45.27-.54,1.43-1.58,1.94-13.3,6.44-32.56,7.43-46.73,4.71-.26-1.68,2.36-1.03,3.51-1.03,19.38.09,43.33,1.4,54.29-17.65,5.55-9.65,4.68-28.65.21-38.83-3.2-7.28-9.43-13.44-15.01-18.99,1.29-1.43,3.53,1.19,4.57,1.93Z"></path>
      <path d="M303.01,473.99c-.23-1.78,2.25-.97,3.36-.86,7.28.73,29.7,7.66,32.26-2.11,1.6-6.12-11.68-8.6-15.61-9.53-10.41-2.47-20.84-2.79-31.18-4.82-1.31-.26-4.84-.11-4.83-1.66,9.39-.63,20.1-1.29,29.24,1.24,2.58.71,6.4,1.55,8.08,2.06,3.22.98,11.54,3.9,14.08,5.77,4.11,3.01,2.59,11.53-1.4,13.42-.62.29-9.35,1.52-10.56,1.53-7.28.06-16.19-3.71-23.44-5.05Z"></path>
      <path d="M804.72,384.74c-.01.23-1.61.23-1.6.69.07,4.27,1.8,6.96.21,12.39-2.51,8.6-22.16,32.7-29.46,38.54-.79.63-4.15,3.44-4.86,2.62-.9-4.29,1.49-2.34,2.97-3.51,1.07-.85.8-2.61,1.35-3.15,6.99-6.81,13.46-12.59,19.09-20.42,4.19-5.81,9.87-14.64,10.08-21.86.13-4.5.44-9.62.47-14.54.05-6.49-4.48-30.76-6.38-37.53-.43-1.54-3.15-5.38-2.58-5.99,1.83-1.97,4.49,5.92,4.72,6.77,3.42,12.7,6.7,32.96,5.99,45.97Z"></path>
      <path d="M1023,529.01l-29.96,8.52c-42.92,14.01-47.78,67.06-24.84,100.78,1.91,2.81,9.3,10.02,9.81,11.2s-.27,1.94-1.47,1.47c-.84-.32-7.39-6.36-8.17-7.34-8.96-11.18-16.78-35.92-16.39-51.11.28-10.89,7.42-36.11,16.42-42.22,1.89-1.28,3.58,1.38,1.63-3.32l2.99,1c-.94-2.05,2.45-4.12,4.3-5.27,7.9-4.92,26.52-11.36,35.71-13.22,3.01-.61,6.87-.34,9.99-.51Z"></path>
      <path d="M842.01,555c1.96-.37,1.51-1.63,1.69-2.93.95-6.81.79-14.85,1.72-22.12.16-1.25-.55-2.53,1.57-2.95-.14,15.34-3.25,30.67-1.99,45.99h-3c.44-2.6,2.2-17.83-.5-17.97l-4.18,31.8-3.32,3.17c-.61-2.19,1.75-4.79,1.57-6.49-.72-7.21,1.71-18.65,2.38-26.05,1.48-16.4,1.15-32.9,4.47-49.44.22-1.1,1.14-4.88,2.57-5.01l-2.98,51.99Z"></path>
      <path d="M535,328c1.58-3.81,3.79-5.64,1.43-9.93-.36-.65-6.88-9.28-7.35-9.67-1.29-1.08-3.56-1.25-3.87-1.61-.57-.68-.2-3.11-.96-4.53-9.74-18.28-14.02-23.4-9.61-45.12.71-3.49,3.12-5.01,1.37-9.14,1.74-.28,2.84.7,2.95,2.42.18,2.73-3.32,12.08-3.72,16.41-.66,7.07.9,14.21,3.73,20.7.64,1.46,6.08,11.95,6.55,12.48.93,1.06,2.84.71,3.27,1.19.45.51.38,3.44,1.33,5.18.41.75,7.37,9.73,7.87,10.13,2.58,2.07,1.91-2.14,4-2.52-.54,4.32.25,8.02,5,9.02-.36,5.63-3.91-1.36-6.35-.86-2.58.52-1.31,4.25-5.64,5.84-.23.56-.01,1.75-.54,2.91-1.32,2.89-7.09,8.65-10.45,9.08,2.31-3.71,6.77-5.74,9.07-9.5.84-1.38-.16-2.4-.07-2.48.27-.24,1.48.18,2,0Z"></path>
      <path d="M415.96,106.01c.44.29,3.48,8.41,3.91,9.83-2.85,1.27-3.46,3.48-6.47,5.05-5.72,2.99-19.72,5.3-26.24,4.42-2.96-.4-6.08-.26-8.14-2.82l20.31.1c4.69-1.31,21.28-3.83,15.16-11.58-6.57-8.31-31.35,2.05-40.48,1.97l9.79-4.7c2.82.07,5.5-1.66,7.94-2.1s15.39-2.12,17.77-1.9c1.05.1,1.83,2.24,3.21,2.58,1.24.31,3.1-.97,3.26-.86Z"></path>
      <path d="M115.96,170.01c.44.29,3.48,8.41,3.91,9.83-2.85,1.27-3.46,3.48-6.47,5.05-5.72,2.99-19.72,5.3-26.24,4.42-2.96-.4-6.08-.26-8.14-2.82l20.31.1c4.69-1.31,21.28-3.83,15.16-11.58-6.57-8.31-31.35,2.05-40.48,1.97l9.79-4.7c2.82.07,5.5-1.66,7.94-2.1s15.39-2.12,17.77-1.9c1.05.1,1.83,2.24,3.21,2.58,1.24.31,3.1-.97,3.26-.86Z"></path>
      <path d="M792.7,307.28c1.41,1.73,1.24,9.08.29,9.72-.1.07-1.38-.89-2.27-.64-9.09,2.59-15.24,5.14-25.05,4.26-1.22-.11-16.69-1.79-13.66-4.62,7.05,2.13,15.18,2.51,22.54,2.05,5.04-.32,9.4-1.99,14.23-2.22.89-1.82,2.75-4.01,2.3-6.16-.62-2.95-15.29-5.4-18.59-5.65-10.48-.81-20.23,1.47-30.49,2.48,1.76-1,3.84-2.79,5.73-3.28,11.2-2.9,29.38-2.44,40.32,1.24.73.25,4.28,2.35,4.67,2.82Z"></path>
      <path d="M590.7,195.28c1.41,1.73,1.24,9.08.29,9.72-.1.07-1.38-.89-2.27-.64-9.09,2.59-15.24,5.14-25.05,4.26-1.22-.11-16.69-1.79-13.66-4.62,7.05,2.13,15.18,2.51,22.54,2.05,5.04-.32,9.4-1.99,14.23-2.22.89-1.82,2.75-4.01,2.3-6.16-.62-2.95-15.29-5.4-18.59-5.65-10.48-.81-20.23,1.47-30.49,2.48,1.76-1,3.84-2.79,5.73-3.28,11.2-2.9,29.38-2.44,40.32,1.24.73.25,4.28,2.35,4.67,2.82Z"></path>
      <path d="M743.38,431.61c2.04,1.87,5.15,2.97,6.62,5.38-9.42-1.98-14.75-10.23-20.06-17.5-.88-1.2-2.12-2.79-2.92-3.96-10.95-15.86-14.23-27.39-10.37-46.38.71-3.49,3.12-5.01,1.37-9.14,1.74-.28,2.84.7,2.95,2.42.19,2.92-3.46,12.56-3.81,17.21-1.24,16.37,14.36,41.05,26.24,51.97Z"></path>
      <path d="M630,434c-.56,1.29-3.58,7.45-2.99,7.99,4.95.93,11.14-.96,11.99-6.58.45-3-1.71-5.73-.5-8.41,7.67,3.62,2.51,15.94-4.44,17.57-12.82,2.99-8.19-5.84-9.48-7.59-.91-1.24-8.28-3.1-9.01-3.99-4.38-5.33-.74-9.47,5.2-10.7,7.25-1.51,8.17,5.02,10.84,10.29-.12,1.02-1.52,1.21-1.61,1.42.55-.56-.13-2.05-.7-2.93-.51-.78-4.59-5.8-4.96-5.93-4.49-1.53-4.08,2.05-7.31,2.89-1.88,3.06,12.36,6.58,12.97,5.97Z"></path>
      <path d="M688.01,526.99l-3.08.55c1.05,6.55-2.67,13.22.64,19.38.97,1.8,3.82,3.04,4.28,4.8.99,3.78-2.49,11.81,1.65,15.27.8-1.35.97-3.73,1.13-5.34.5-4.86.13-16.29-.94-20.84-.5-2.09-4.7-11.66-4.66-12.32.03-.53,1.53-2.13,2.48-.5,1.22,2.09,3.93,10.85,4.54,13.53.78,3.43,1.44,20.81.87,23.84-.13.67-1.29.61-1.55,1.03-.64,1.04-.05,2.5-.89,2.64-8.6,1.4-3.8-12.73-4.64-16.34-.69-2.98-6.72-5.1-6.55-13.41.03-1.68,1.32-2.74,1.37-3.91.22-4.86-.38-9.52,1.35-14.37l4,5.99Z"></path>
      <path d="M364,539.01l-2.57,25.67-2.94,58.8-2.48,3.52c.46-3.78-.83-7.82-.71-11.47.45-13.56,2.84-28.79,4.01-42.69.88-10.44,1.51-21.22,2.17-31.75.12-1.91.73-2.3,2.51-2.08Z"></path>
      <path d="M208,78.99c-1.18,12.22,4.86,28.63.68,40.2-1.25,3.46-4.17,3.47-3.68,6.8,4.72-.79,10.67,1.93,6.49,6.99-3.06.41.33-1.68-1.36-3.54-3.04-3.36-14.48-.49-19.12-.46l11.9-6.63c7.83-6.47,3.2-21.28,3.94-30.7-.81-2.7-2.45-.46-3.86-1.17,1.09-3.78,2.46-7.46,2.01-11.5h2.99Z"></path>
      <path d="M181.86,49.12c.57.64.2,3.12-.11,4.12-2.32,7.6-23.33,21.28-30.47,25.54-5.18,3.09-7.09,4.08-11.79,9.2-12.57,13.71-9.67,20.09-29.72,27.09-.69.24-.69,1.67-1.48,1.88-.95.25-6.42.66-7.45.52-.48-.07-8.25-3.4-8.61-3.7-.88-.74-.55-2.8-1.51-3.55-.58-.45-2.13.1-2.8-.81-2.38-3.24.13-10.69,2.56-13.43,2.75-3.09,7.34-4.17,10.32-6.87,5.92-1.76,14.45-.52,19.9-3.42,2.55-1.36,6.77-10.04,9.61-12.37,1.55-1.27,9.54-4.44,10.47-5.54.74-.87-.32-2.69.73-2.78,8.41-.77-6.95,7.97-7.55,8.47-3.14,2.58-11.36,13.82-12.19,14.3-3.7,2.11-13.26,1.21-16.79,1.87s-13.81,7.18-15.22,10.62c-3.76,9.21,4.11,11.21,10.26,15.24,6.24-.93,12.59-2.64,18.2-5.81,8-4.51,15.09-19.96,23.1-27.35,10.05-9.27,27.14-14.54,35.68-25.84,5.13-6.79,1.93-7.82-4.9-4.9-3.06,1.31-6.79,5.94-10.1,4.9,2.08-4.94,9.58-5.71,12.98-8.06,1.05-.73.93-2.36,1.04-2.44.37-.3,2.25,1.88,3.11,2.43.79.51,2.47.41,2.73.7Z"></path>
      <path d="M951.86,487.12c.57.64.2,3.12-.11,4.12-2.32,7.6-23.33,21.28-30.47,25.54-5.18,3.09-7.09,4.08-11.79,9.2-12.57,13.71-9.67,20.09-29.72,27.09-.69.24-.69,1.67-1.48,1.88-.95.25-6.42.66-7.45.52-.48-.07-8.25-3.4-8.61-3.7-.88-.74-.55-2.8-1.51-3.55-.58-.45-2.13.1-2.8-.81-2.38-3.24.13-10.69,2.56-13.43,2.75-3.09,7.34-4.17,10.32-6.87,5.92-1.76,14.45-.52,19.9-3.42,2.55-1.36,6.77-10.04,9.61-12.37,1.55-1.27,9.54-4.44,10.47-5.54.74-.87-.32-2.69.73-2.78,8.41-.77-6.95,7.97-7.55,8.47-3.14,2.58-11.36,13.82-12.19,14.3-3.7,2.11-13.26,1.21-16.79,1.87s-13.81,7.18-15.22,10.62c-3.76,9.21,4.11,11.21,10.26,15.24,6.24-.93,12.59-2.64,18.2-5.81,8-4.51,15.09-19.96,23.1-27.35,10.05-9.27,27.14-14.54,35.68-25.84,5.13-6.79,1.93-7.82-4.9-4.9-3.06,1.31-6.79,5.94-10.1,4.9,2.08-4.94,9.58-5.71,12.98-8.06,1.05-.73.93-2.36,1.04-2.44.37-.3,2.25,1.88,3.11,2.43.79.51,2.47.41,2.73.7Z"></path>
      <path d="M442.73,453.74c-.12.43-4.92,5.49-5.7,6.78-4.47,7.43-7.53,17.27-15.54,21.44-5.22-4.85-1.64-10.68.99-15.98,2.47-4.96,6-9.1,8.53-13.98l1.97.48c-4.12,8.5-10.92,15.78-11.98,25.51,1.71.26,2.22.07,3.47-1.02,3.52-3.07,8.49-14.79,11.52-19.21,1.12-1.64,4.67-4.73,6-6.76-.39,1.16.93,2.11.74,2.73Z"></path>
      <path d="M659.99,549l3.02-10.99,4.98,3-.98-10.99c2.25-.34,1.96.07,2.38,1.9.25,1.08-.03,9.74-.39,10.09-.43.43-3.77-.56-4.87.14-.4.25-2.47,7.47-3.17,8.83-9.86-.09-6.06-14.73-8.41-21.41,2.16-8.77-1.13-17.63-.53-26.54,1.42-.24,1.45,1.77,1.7,2.78,2.15,8.62.81,17.12,1.28,25.79.09,1.6,1.37,20.09,4.99,17.42Z"></path>
      <path d="M748.01,511.99c-.54-1.79,1.45-2.3,1.69-3.64.47-2.67-2.27-10.03,1.3-9.37-3.55-3.3-.5-3.86-.34-5.65.97-10.85.75-23.59,1.02-33.98.08-3.21-1.69-10.15,1.31-12.35.34,7.75.7,15.59.64,23.33-.09,11.24-1.08,22.03-1.66,33.16-.18,3.47,2,7.47-3.96,8.5Z"></path>
      <path d="M471,756.01c.72.62-2.88,5.08-3.56,5.95-5.36,6.89-19.12,17.3-27.21,21.99-1.54.89-3.41,2.09-5.23,2.04-2.19-1.83,14.04-11.11,15.24-11.98.83-.6,1.04-1.77,1.85-2.37,1.77-1.31,13.95-7.71,6.39-7.78-4.29-.04,2.59-2.63,2.79-2.81,2.98-2.51,4.19-6.27,9.72-5.05Z"></path>
      <path d="M964.21,471.69c14.51,7.71,31.08,10.93,45.78,17.01,3.8,1.57,9.7,4.06,12.01,7.29-7.72-1.21-14.5-5.13-21.74-7.75-11.42-4.15-21.24-6.83-32.12-12.88-6.4-3.55-11.63-7.53-17.25-10.75-4.15-2.38-8.59-4.51-12.88-6.61l3.04-.54c7.01,4.07,14.18,7.89,21.33,11.71,1.11.59,1.46,2.34,1.83,2.53Z"></path>
      <path d="M369,851.01c-.27,1.73-2.02,1.74-3.22,2.27-5.2,2.28-14.03,4.15-18.44,7.07-2.69,1.78-17.42,14.01-19.2,16.3-1.43,1.85-1.54,5.34-4.13,6.36.92-8.31,5.61-11.87,11.41-16.64,11.91-9.79,14.73-9.6,28.84-14.44,1.26-.43.09-3.2,4.74-.92Z"></path>
      <path d="M331,854.01c-9.14,8.16-20.68,12.93-30.76,19.73-12.95,8.74-24.66,19.72-37.75,28.27-1.26.82-1.79,1.18-2.49-.51l7.28-7.23c16.74-9.97,32.98-23.81,50.51-34.19,3.35-1.98,9.42-4.64,13.21-6.07Z"></path>
      <path d="M698.35,350.65c.82.86,2.18,1.12,3.11,2.36,6.04,8.07,6.25,22.34,9.53,31.98-2.91-1.17-3.39-4.62-4.29-7.28-3.37-9.99-1.76-16.3-8.69-24.94-.42-.52-5.38-5.6-5.72-5.83-4.79-3.31-14.09-5.11-19.28-8.97-.15-1.94,1.96-.83,2.93-.43,2.12.87,4.29,2.53,6.54,3.47,8.65,3.6,8.94,2.33,15.87,9.63Z"></path>
      <path d="M86.99,367.99c-2.57,1.03-2.63-4.34-2.74-5.78-.88-11.4-1.52-30.84-.67-44.35.18-2.86.55-7.31,1.93-9.86l1.49,59.99Z"></path>
      <path d="M386.99,303.99c-2.57,1.03-2.63-4.34-2.74-5.78-.88-11.4-1.52-30.84-.67-44.35.18-2.86.55-7.31,1.93-9.86l1.49,59.99Z"></path>
      <path d="M471.64,199.38c11.13,5.8,23.27,16.52,36.37,20.11l9.99,5.5c-5.19,1.33-7.9-2.14-11.8-3.69-14.05-5.6-23.21-11.82-35.71-20.32-1.34-.91-3.35-.87-3.48-.99-3.05-2.7,3.14-1.39,4.64-.61Z"></path>
      <path d="M161,518.98c-.47.5-10.36,5.17-12.29,6.27-7.22,4.08-11.78,5.98-19.7,9.25-.88.36-14.2,8.46-13.98,4,5.51-2.13,10.62-5.66,15.97-8.01,4.71-2.07,9.98-3.69,13.75-5.45,5.09-2.36,10.46-5.73,15.76-8.04.86-.13.56,1.89.49,1.98Z"></path>
      <path d="M312.67,193.67c-.52.52-11.21,8.3-11.91,8.62-7.99,3.71-16.41,2.41-25,3.96-9.94,1.8-18.96,7.78-29.75,5.74l26.78-6.7c8.84-2.96,18.7-.58,27.11-4.89,3.08-1.58,5.11-4.81,7.14-5.88,1.35-.71,3.39-.26,3.93-.58.08-.05-.7-1.35-.33-1.94,4.01-6.51,10.93-12.67,12.37-21,1.97-.15.84,3.07.52,4.03-1.39,4.19-7.83,15.62-10.86,18.64Z"></path>
      <path d="M1022.79,687.24c.48.28.54,2.22,1.85,2.66,2.53.85,4.8-1.33,9.06.9,11.11,5.82,2.52,17.18-.71,25.2-2.67.3-2-.15-1.76-2.25.62-5.34,6.65-10.18,5.35-15.73-2.17-9.26-12.31-2.89-16.32-6.26-2.45-2.06-1.62-6.93,2.53-4.51Z"></path>
      <path d="M436.99,381c-4.4-.65-9.19-1.23-5.95,4.2.66,1.1,2.15,1.3,2.76,2.46,1.05,2.01.69,5.36,2.18,6.86s4.38,1,5.96,2.04c1,.66,1.4,2.41,2.71,3.38.57.42,12.65,4.59,13.35,4.7,5.93.94,4.01-5.85,2.97-10.01-1.42-5.69-3.32-11.82-8.97-14.13,6.1-.68,9.08,6.69,10.54,11.46.69,2.26,2.87,12.42,1.26,13.86-.52.46-7.99,1.51-9.09,1.22-.91-.24-1.03-2.12-2.37-2.83-2.51-1.34-6.59-1.32-8.55-2.24-1.23-.58-1.29-2.24-2.38-2.83-2.13-1.17-5.21-1.36-6.97-3.07-.61-.6-7.53-14.59-7.47-15.45.04-.52,1.37-.56,1.64-1.01,1.21-1.96-.85-3.14,3.9-2.64,2.4.25,4.62,1.26,4.48,4.04Z"></path>
      <path d="M345.01,433c-2.1-2.36,3.96-4.4,2.99-4.99-5.37-.58-.5-1.96-.04-2.75,2.81-4.83,10.42-23.81,10.14-28.77-.14-2.5-2.97-4.24-1.6-6.48,4.41,4.64,4.03,9.66,2.45,15.44s-7.08,18.75-9.72,24.28c-.54,1.13-3.16,4.46-4.21,3.28Z"></path>
      <path d="M86.61,436.62c-2.98,3.82-7.42,7.27-11.3,10.2-1.52,1.14-14.54,9.95-15.31,9.18,1.14-4.25,7.68-6.6,11.38-9.16.97-.67,1.25-2.06,1.91-2.53,2.28-1.62,5.86-.27,7.72-5.79.88-2.6-3.97.59-2.01-2,1.12-1.48,10.38-7.24,10.99-6.51.32,2.72-1.87,4.68-3.38,6.62Z"></path>
      <path d="M277,362.01c1.14,1.03-8.94,9.24-10,10.48-3.88,4.54-8.25,11.3-11.63,16.38-2.21,3.33-3.48,8.83-7.36,10.13-.59-.66,5.02-10.95,5.98-12.52,3.9-6.37,12.21-17.48,18-22,1.48-1.15,2.95-2.7,5.02-2.47Z"></path>
      <path d="M684,361.01l-11.02,5.33c-3.12-.25-5.3,2.56-9.2,2.94-3.21.51-20.84,12.53-21.77,11.72s2.58-3.87,3.1-4.34c5.03-4.58,17.6-9.49,24.91-12.13,4.41-1.6,9.32-3.62,13.97-3.51Z"></path>
      <path d="M492,845.01c2.43,3.36-6.61.2-8.66.08-8.82-.55-15.14,4.84-22.75,3.88-4.48-.56-8.7-4.61-12.59-6.47-2.43-1.16-7.5-.55-6.99-3.5,2.75.96,6.72,1.16,9.22,2.27,2.11.93,3.68,3.19,5.86,4.16,8.76,3.92,13.17-1.07,20.66-2.17,2.01-.29,14.48.7,15.25,1.75Z"></path>
      <path d="M316.42,481.59c2.51,2.8,7.44,9.89,10.29,11.41s12.11-1.08,8.79,5.98c-.61,1.29-5.68,6.48-7.5,4.52,14.85-11.97-2.07-7.19-10-6.51.12-1.82,3.11-.67,4.98-1.51.62-.28,2.28-2.09,2.02-2.46-3.75-.4-5.2-4.54-7.34-6.69-.64-.64-2.49-.36-3.59-1.89-1.24-1.73-1.11-4.4-1.06-6.44,1.68.48,2.32,2.37,3.41,3.59Z"></path>
      <path d="M363.01,957c-.63-5.77-3.9-10.92-4.61-16.67s.63-16.58.93-23.11c.04-.94-.79-4.11,1.17-4.2,2.11-.1-.53,9.03,1.13,10.65-.63,6.17-1.79,13.65-.56,19.77.78,3.89,6.35,10.96,1.95,13.56Z"></path>
      <path d="M445.99,519c.47,2.85-.6,1.67-2.31,2.13-1.42.39-16.45,3.89-12.69,7.86.56.59,14.3,2.09,16.02,1.36,2.08-.87,5.16-5.62,2.99.64l2.01.52c-2.89.63-6.35,1.25-9.29,1.05-25.29-1.78-12.67-12,3.26-13.56Z"></path>
      <path d="M186.99,227.01c-.2.19-2.19-.11-2.99-.02l3.99-41.99-1,42.01Z"></path>
      <path d="M151,139.01c-4.84,10.81-5.2,21.41.62,31.87l8.38,9.11c-14.95-6.22-17.42-25.26-11.27-38.81.65-1.44-.58-2.72,2.27-2.17Z"></path>
      <path d="M332.36,204.38c-8.93,6.67-17.4,14.49-26.46,21.02-.94.68-4.05,3.33-4.9,2.59,15.47-13.92,32.37-26.71,49.99-37.99.49,2.1-1.12,2.27-2.26,3.23-4.91,4.13-11.25,7.33-16.36,11.15Z"></path>
      <path d="M200.99,534l-4.46-7.02c-3.03-3.2-7.12-4.66-10.4-7.65-.88-.8-4.45-3.89-3.13-5.32.98-1.06,13.55,10.19,15.39,11.1,2.48,2.56,3.04,5.38,2.6,8.89Z"></path>
      <path d="M241,258.99c4.39-9.81,14.39-14.61,22.99-19.99.49,2.11-1.12,2.27-2.27,3.22-3.27,2.74-9.72,5.63-12.34,8.73-1.71,2.01-.32,3.34-1.36,4.51-.77.86-5.97,4.5-7.02,3.54Z"></path>
      <path d="M354,396.01c-.42,1.7-5.21,2.1-6.5,2.07-3.59-.07-12.21-1.34-15.39-2.69-.92-.39-4.8-2.64-4.1-4.39l7.75,2.74,18.24,2.27Z"></path>
      <path d="M607.99,1009.01l-5.25.75-20.74-6.75c8.31-2.02,17.63,4.39,25.99,6Z"></path>
      <path d="M229,472.01c-1.45,3.31-5.39.55-6.79,3.89-3.15-.16-17.94,8.14-19.2,7.09-1.88-1.55,5.22-4.13,6.01-4.49,6.06-2.73,13.43-6.24,19.99-6.5Z"></path>
      <path d="M443.01,845c1.07,3.71-4.27,1.25-5.01,1.99-2.04,2.04,2.51,12.57,2,12.99-4.05,3.44-2.49-16.32-8.51-12.02l-.5-1.97c4.56-.8,7.18-2.21,12.01-1Z"></path>
      <path d="M584.84,904.16c.4.25.77,3.03,2.18,4.32,1.21,1.1,3.78,1.33,3.97,1.53.12.13.38,1.99-.51,2-2.36.02-3.55-3.37-5.46-.52,3.27,3.65,1.27,5.66-1.21,1.21-.19-.34-2.56-6.49-2.8-7.21-.73-2.21,2.95-1.87,3.83-1.32Z"></path>
      <path d="M580.99,1015l8,17c-5.55-2.09-6.04-7.49-8.1-12.19-.29-.67-5.23-4.67.1-4.81Z"></path>
      <path d="M439,550.01l-2.99,10.99,7.98-4.51c-2.06,3.16-5.04,5.87-8.99,6.5l-.32-7,4.31-5.99Z"></path>
      <path d="M718,341.99c-6.23-2.26-14.75-3.69-19-8.98,6.18,2.95,14.5,3.54,19,8.98Z"></path>
      <path d="M1031,743.99c-.3.24-2.18-.11-3,0,1.21-5.68,1.06-11.74,2-17.5.24-1.49.05-3.09,2-3.49-.17,5.97-1.61,12.72-1.81,18.54-.03.91,1.06,2.26.82,2.45Z"></path>
      <path d="M430,791.01c-.62,1.78-4.8,2.96-6.37,2.93-3.92-.07-7.55-3.47-11.62-3.44,5.04-3.48,11.63,3.34,17.99.51Z"></path>
      <path d="M484.32,1054.73c.21.55,2.18-.48,1.69,1.76-1.41,6.41-7.96-11.49-6-13.49,3.55,2.35,2.92,8.16,4.31,11.73Z"></path>
      <path d="M725,454.99c-.32-.29,2.93-5.01-2.07-7.46-1.28-.63-3.41.94-3.93-1.52,7.34-3.16,14.48,8.26,6,8.98Z"></path>
      <path d="M725,343.01c.53.57-2.68,14.59-3.01,15.3-.67,1.43-1.79.52-2.98.69,2.27-4.38,2.25-9.45,3.46-13.95.37-1.39,1.37-3.29,2.53-2.04Z"></path>
      <path d="M262.01,482c-.53-.63-1.21-13.07,1.98-13.99.56.89,1.37,18-1.98,13.99Z"></path>
      <path d="M523,231.01c.53.57-2.68,14.59-3.01,15.3-.67,1.43-1.79.52-2.98.69,2.27-4.38,2.25-9.45,3.46-13.95.37-1.39,1.37-3.29,2.53-2.04Z"></path>
      <path d="M507.99,395l-3.99-3.49c1.75-.7,5.95-9.7,6.49-9.5,3.5,1.26-1.18,5.12-1.84,7.15-.62,1.91-.75,3.85-.67,5.84Z"></path>
      <path d="M802,937c-1.54.12-1.75-3.49-1.79-4.5-.16-4.01.65-9.16.51-13.3l1.28-4.19v22Z"></path>
      <path d="M1062,674.01l-7.99,11.99c-.25-2.76,1.17-5.67,2.64-7.88.35-.52,4.61-4.83,5.34-4.11Z"></path>
      <path d="M211,618.01c.09,1.34.85,1.86-.97,1.66-3.66-.4-7.36-1.03-10.82-2.42-1.52-.61-2.71.59-2.19-2.25l13.99,3.01Z"></path>
      <path d="M55,461.01l-5.48,2.52-10.51-3.51c5.31-1.14,10.28,2.77,15.99,1Z"></path>
      <path d="M523.99,1064.03c.24.3-.11,2.14,0,2.96l-10.99-2.01c.52-3.25,10.58-1.46,10.98-.96Z"></path>
      <path d="M340,938.01c-1.4,3.77-5.5,3.06-8.23,4.07-.93.35-1.87,3.46-5.77,1.91.81-1.56,4.35-2.8,6.01-3.48,2.45-1,5.39-2.02,7.99-2.5Z"></path>
      <path d="M306.9,493.1c.65.74.61,3.87-1.89,2.88-.95-4.31-9.72-3.48-12.02-7.97,2.01,1.12,13.36,4.48,13.9,5.09Z"></path>
      <path d="M96.98,671.99c-.12.1-2.1.36-1.97-.48,2.09-3.46,3.34-8.36,6.98-10.51-.39,2.16-3.81,9.98-5.01,10.99Z"></path>
      <path d="M371,873.99c-2.31.74-2.93-3.99-3.38-5.53-.66-2.25-1.61-4.06-.6-6.46l3.98,11.99Z"></path>
      <path d="M561.99,545.01l-1.04,43.54c4.57,25.65,4.98,51.12,6.31,76.92.66,12.79,2.94,25.9,1.72,38.53-2.24-1.53-2.2-6.9-2.62-9.7-1.98-13.17-2.13-31.54-3.48-46.69-1.68-18.86-5.12-38.55-5.93-57.07-.54-12.31.35-31.32,2.88-43.16.39-1.84-.59-2.84,2.16-2.38Z"></path>
      <path d="M618.01,643c.46-11,1.72-22.04,2.38-32.99.55-9.23,1.5-20.39,1.39-30.51-.13-13.14-2.52-26.38-2.28-39.51,2.27,6.06,2.8,13.08,3.46,19.56,2.64,26.16.59,53.98-2.93,79.98-.2,1.5-.13,3.08-2.02,3.47Z"></path>
      <path d="M191.99,350.01l.68,18.01c.29,1.53-2.17,2.56-2.67,1.98-.41-.48,1.03-10.56,1.07-12.5.02-.83-1.82-11.03.92-7.49Z"></path>
      <path d="M877.63,739.38c.57.38.96,1.79,1.96,2.49,1.58,1.11,4.13.78,5.39,2.62-.62,1.66-2.48,3.8-4.38,3.57-.78-.09-.91-1.96-1.64-2.48-1.43-1.03-3.12-1.47-4.53-2.55-1.03-.79-1.32-2.8-1.54-2.94-.19-.13-2.05.93-3.26.83-12.51-1.06-13.52,1.4-24.39,3.82-9.83,2.19-12.76-2.25-1.23-5.24,1.38-.36,2.79.32,4.02.02,9.6-2.32,20.53-6.23,29.61-.14Z"></path>
      <path d="M230,713c.17-.68-.42-2.31.13-2.81.59-.54,2.72-.1,3.87-.65,2.57-1.23,4.89-3.55,8-3.52-3.22,3.2-7.71,5.87-12,6.99-.11.45.25,1.27-.26,1.7-4.15.15-6.32,4.03-10.36,4.32-.64.05-8.03-5.4-3.87-7.01,2.34-.9.86,2.21,2.07,3.08,4.21,3.03,5.87-1.12,8.14-1.89,1.47-.5,3.21.08,4.27-.2Z"></path>
    </g>
  </g>
</svg>