<?xml version="1.0"?>
<svg xmlns="http://www.w3.org/2000/svg" version="1.1" viewBox="0 0 1080 1080">
  
  <defs></defs>
  <g id="can_color">
    <path fill="#73A942" d="M397.82,441.57c-9.48,0-18.97.71-28.35,2.12-1.21.18-2.5.41-3.4,1.25-1.54,1.43-1.28,3.88-1.08,5.97.54,5.55-.16,11.13-.67,16.68-1.71,18.67-1.21,37.46-.71,56.19.06,2.27.15,4.65,1.33,6.6,1,1.66,2.67,2.79,4.05,4.16,1.83,1.82,3.24,4.15,5.49,5.42,1.56.89,3.39,1.17,5.17,1.41,5.93.82,11.89,1.37,17.87,1.67,1.53.08,3.25.06,4.32-1.02.74-.74.99-1.82,1.41-2.78,1.3-3.01,4.21-4.94,6.33-7.45,2.21-2.62,3.55-5.9,4.3-9.25.82-3.7.96-7.51,1.1-11.3.38-10.64.75-21.29.38-31.93-.18-5.13-.53-10.28-1.7-15.28-1.03-4.42-2.68-8.67-4.33-12.9-1.32-3.39-2.63-6.77-3.95-10.16-.39-1.01-.88-2.12-1.88-2.54-.78-.33-1.68-.15-2.5.04-6.21,1.43-12.41,2.85-18.62,4.28"></path>
    <path fill="#73A942" d="M548.86,343.52c2.46-.82,5.44.46,6.54,2.81.6,1.28.67,2.74.68,4.16.09,8.34-1.27,16.69-4,24.57-.34.97-.7,1.95-1.35,2.75-1.42,1.74-3.84,2.22-6.06,2.48-6.74.78-13.59.5-20.25-.8-1.58-.31-3.34-.82-4.08-2.25-.49-.94-.4-2.06-.27-3.11.36-2.9.97-5.77,1.83-8.57.35-1.12.75-2.27,1.57-3.12,1.9-1.98,5.06-1.6,7.8-1.77,4.28-.27,8.41-2.34,11.18-5.61.58-.69,1.12-1.44,1.88-1.94.84-.55,1.87-.74,2.72-1.28,1.58-1.03,2.12-3.38,1.15-5-.38-.62-.95-1.16-1.11-1.87s.46-1.63,1.14-1.37"></path>
  </g>
  <g id="Layer_1">
    <g>
      <path d="M674,662c-.21-3.37,5.29-3.47,6.55-6,.27-.54-.35-5.79-.56-6-.86-.84-9.35,3.74-11.99.51,1.77-2.22,4.63-1.07,6.96-2.04.71-.3,8.08-4.25,8.47-4.53,1.97-1.46,1.33-3.58,1.62-3.9.1-.11,1.54.93,2.88.48,4.47-1.52,7.04-6.41,9.65-9.43,21.38-24.73,12.91-56.33.81-83.96-1.38-3.14-4.94-5.92-4.38-10.11l7.38,9.11,6.12,13.91c7.03-5.34,14.12-10.87,22.49-14.03-2.86-3.78-16.92-18.35-15.89-22.28.17-.66,1.83-2.45,2.4-2.7.44-.19,3.77,7.41,4.51,8.48,1.46,2.13,14.47,18.05,15.63,18.38,8.57-1.38,18.4,2.57,26.8,1.08,2.45-.44,9.41-4.47,12.07-5.93,4.25-2.34,7.31-6.94,12.49-6-1.9,4.16-4.81,7.7-6.51,12.04-1.11,2.84-2.38,15.83-7.93,10.91-10.05-8.9-24.18-8.48-36.99-10.08-1.74-.22-3.19-1.91-5.23-1.6-1.48.23-12.49,5.82-13.73,6.83-3.17,2.6-1.82,7.71-9.61,5.9-.88,3.35,2.06,5.04,2.77,7.73,2.32,8.91,2.62,20.25,3.96,29.49l-5.6,25.16c-4.83.68-2.23,2.16-3.43,4.33-1.31,2.39-5.42,2.31-5.7,8.28-3.07.06-14.83,8.83-9.9,11.89,3.27,2.03,4.54-2.3,5.59-2.96,2.32-1.45,4.99.36,5.13-4.41.04-1.41-.89-3-.82-4.52,1.63-.03,1.6,4.11,4.33,3.86,2.05-.19,9.93-5.79,6.67-8.86,1.95-.57,2.7,2.11,4.32,1.86.54-.08,4.94-3.29,5.24-3.85,2.28-4.23-7.79-4.25-9.57-5.52-4.43-3.15,5.13-1.66,5.66-1.67,3.21-.06,7.88-1.08,10.83-.3,6.02,1.61,14.93,7.49,20.5,9.04s3.1-2.6,3.45-4.62c2.71-15.81,6.91-26.4,7.65-43.47.11-2.51-2.42-5.51,1.91-5.49,1.45,13.76-1.23,27-4.04,40.36-.91,4.33-4.61,13.6-4.85,17.09-.2,2.86,2.8,6.44,2.7,7.88-.04.65-2.7,9.09-3.22,9.75-2.33,2.95-10.16,5.96-11.31,7.2-.63.68-.29,2.59-1.23,3.24-1.02.72-14.63,7.24-17.41,8.62-6.43,3.19-26.69,11.68-32.97,9.68-1.32-.42-1.94-1.44-1.67-2.82,8.08.78,14.49-4.72,21.99-6.5-1.77-.51-6.13-5.28-6.55-5.38-.97-.22-3.08,1.28-3.44.88-1.83-2.04,2.36-8.56-9-4.02.28-1.71,4.73-2.61,4.77-4.48,0-.33-3.64-5.2-3.95-5.32-1.74-.7-5.05,2.58-6.8,3.29,1.36,1.59,1.62,3.66,2.59,5.44.85,1.56,5.02,6.38,5.87,8.09.64,1.29.6,2.6.51,3.98-5.22.12-4.06-3.59-5.28-5.72-.89-1.55-2.87-4.26-4.11-6.39-.6-1.03-.52-2.78-.64-2.87-1.14-.99-6.22,3.75-8.97,2.99,2.72,4.98,4.86,11.8,8.16,17.34,9.03,15.17,21.98,29.35,29.88,44.37,3.05,5.8,4.75,13.76,7.78,19.83-1.29,2.42-4.22,1-6.27,1.52-8.48,2.12-17.06,3.55-25.01,5.51-9.04,2.23-7.98,4.25-12.69,10.8-1.91,2.66-2.44,4.08-3.75,6.05-.77,1.15-2.82.35-3.12.59-.12.09.96,1.52.51,2.92-.68,2.14-3.59,4.8-4.11,8.06-.44,2.77.86,4.88.71,7.52-.38,6.5-1.53,12.93-1.1,19.49-.7.92-1.96.67-1.86-1.4.28-5.35-.92-9.36-1.17-14.16-.5-10.02.49-20.37.04-30.43l3.49,12.99c2.71-6.1,7.74-11.26,10.77-17.05.49-.94,1.22-1.37.72-2.94-1.59-.12-.4,1.44-2.37,2.19-3.04,1.16-6.31-.04-10.31,1.63-2.51,1.05-4.63,4.21-4.96,4.22-14.8.82-18.67,5.68-30.37,8.44-3.14.74-10.96.84-14.02,2.08-1.24.5-2.02,3.17-4.41,2.4-1.12-.36-1.03-2.65-2.32-3-.95-.25-2.97.26-3.24.02-.54-.47.92-3.52.92-4.6,0-6.24-.9-6.53,1.09-12.92.17-.55-1.94-.33-2.07-1.1-.58-3.48.68-11.39.54-14.86-.76-18.03-2.83-37.27-3.56-53.08-.03-.72-1.17-6.55-1.46-8.6-2.48-17.58-6.76-27.29-11.95-43.36-.56-1.73.54-3.56-.05-5.41s-4.63-9.72-5.95-11.08c-3.3-3.39-10.06-5.47-14.23-2.72-.65.43-.88,2.09-1.74,2.71-5.4,3.88-9.35,6.22-12.8,12.28-4.92,8.62-4.34,16.21-14.79,21.17-1.64.78-4.51.25-5.51,1.52-2.48,3.17,3.77,5.27,6.57,4.05l-3.98,3.49c4.47,3.93,4.49,6.52,3.98,12.5-3.25.68-1.06-3.74-2.07-6.18-.35-.84-1.46-.91-1.83-1.6-.58-1.08-.94-4.07-1.1-4.21-.28-.23-5.29,2.65-6.99,2.01.44,4.6,6.12,6.81,4.99,11.99-3.1-2.54-5.88-3.56-9.99-2.99l4.25,3.29,10.75,2.71v-4.01c1.78-.06,2.14-.5,2.01,1.49-.65,10.09-3.36,21.1-4.9,31.12-2.49,16.12-4.21,33.93-7.2,49.85-2.85,15.19-9.44,29.75-11.89,45.13-.72,4.53-.68,9.8-1.01,14.42,7.16-.82,13.91-7.75,21.61-8.97,13.77-2.17,38.83,9.24,49.58,18.03,5.16,4.22,21.79,27.62,22.24,6.45.29-13.75-3.67-29.16-4.48-42.97-.23-3.91-.93-11.87,2.03-14.54.28,4.83.34,10.75,1.06,15.46,2.24,14.69,6.29,30.88,4.33,46.18-.18,1.44.87,2.66.17,4.32-.77,1.83-5.09,3.37-6.84,4.94-3.07-1.35-5.83-2.57-8.62-4.48-2.05-1.4-8.16-6.58-9.67-8.33-1.17-1.36-1.59-4.12-2.36-4.65-.66-.45-2.34.88-2.89.43s.52-2.28-1.15-1.85c.92,6.42-.98,14.17-.74,20.21.52,12.99,6.43,27.14,8.28,40.81,2.85,20.96,7.59,43.61,5.43,64.46-.43,4.21-1.59,11.48-2.56,15.6-.87,3.68-3.55,6.49-2.44,9.91-2.59.4-2.09-.4-2-2.48.5-11.13,5.34-23.8,5.61-36.19.05-2.31-1.07-4.85-.63-7.33-.28-.42-5.83,3.03-6.9,3.38-8.48,2.78-22.76,3.97-31.62,3.42-2.29-.14-3.84-2.38-6.36-.69.91,9.75.06,20.86,4.73,29.56,2.88,5.36,14.33,16.95,20.6,16.31.66-.07,5.37-2.22,5.65-2.63.48-.7,3.89-11.65,4.26-13.29.87-3.9,1.7-10.85,2.16-15.04.54-4.93-.1-10.88.49-15.54.18-1.4.57-2.93,2-1.47-.47,10.88.12,23.52-2.28,34.21-.36,1.61-3.89,11.26-4.68,12.32-3.58,4.8-10.07,4.39-14.8,1.71-1.65-.94-4.48-2.71-6.18-3.76-.41-.25-6.11-6.17-6.63-6.88-4.34-5.92-7.74-17.79-8.41-25.12-.2-2.2.37-12-.02-12.49-.22-.27-4.22,1.37-5.99-2-.28,11.27.29,21.22,4.81,31.67,3.63,8.38,22.36,33.73,31.67,34.41,9.77.72,9.56-12.73,11.22-18.93.48-1.78-.29-2.59,2.29-2.16-1.39,8.28-2.3,23.56-13.6,23.96-1.44.05-6.99-2.46-8.06-3.3-.81-.64-9.49-9.28-10.01-10.04-.61-.89-.19-2.48-.33-2.63-.35-.39-2.8,1.21-2.99,1.02-.13-.13,0-2.21-.96-3.54-6.59-9.18-11.28-13.09-13.04-24.8-.12-.77-1.79-.57-1.99-1.36-.69-2.69-1.67-10.64-2-13.83-1.16-11.03-.32-22.53.99-33.49.84.15,2.64-.23,3,.02,1.01.7-7.16,19.53,1.96,22.53,11.04,3.63,32.53,3.51,43.31-.77.39-.15,5.21-2.83,5.44-3.04,2.49-2.24-.02-18.03-2.28-18.6-1.11-.28-11.14,3-13.88,3.37-6.67.91-23.81.63-28.76-.72-1.47-.4-2.83-2.14-4.78-1.79.32-2.21,3.33-1.29,4.06-2.7,1.58-3.08-1.76-11.63,2.93-12.3-.98-2.22-4.07.56-3-3.98-5.02,3.38-2.08,11.9-6.98,15,.68-8.87,3.49-16.48,6.97-24.57.76-1.77,2.64-2.5,2.78-2.92,1.02-3.01-1.17-9.84.25-13.52,2.6-.39,2.07.46,2.03,2.53-.05,3.42-2.85,23.55-2.04,24.47,2.31-.1,3.53-1.98,5.92-2.56,10.81-2.65,12.29,6.8,16.81,7.44,2.59.37,8.91-4.92,13.62-3.92,1.03.22.03,3.11,2.64,2.04-2.99-21.4-8.25-43.92-8.04-65.54.05-5.56,3.32-5.12-3.06-8.86-1.2-.7-5.35-3.4-5.67-3.53-5.23-2.16-13.6-3.23-19.22-5.08v39.5l-2.99,10.49c.43-3.82-.42-7.79-.45-11.49-.08-10.31,2.53-26.39,1.35-35.93-.8-6.48-9.37-4.7-14.09-3.24-5.55,1.72-17.04,11.53-21.64,8.49-.53-.35-.84-8.48-.72-9.85.98-10.61,5.23-27.15,9.06-36.95.37-.94-.45-2.42.02-3.07.5-.69,2.11-.73,2.34-1.05.21-.29-1.01-2.12-.88-3.33.53-4.91,4.1-12.65,4.8-19.09.11-1.05-1.12-2.7-.7-3.32.29-.44,2.89-.83,2.89-1.64,0-.26-1.68-1.25-1.84-2.18-.2-1.25,1.66-2.18,1.77-3.77.21-2.98.41-6.27,1.12-10,.38-1.98,2.38-4.34,1.95-6.01-1.1-4.31-6.12,2.03-7.42,3.09-4.43,3.63-10.73,8.43-16.81,11.45-1.25.62-.36,3.32-4.15.97.5-1.55-4.87-5.86-5.62-5.05v142.5c-.87,5.17-11.06.16-14.07-1.11.78-6.85-3.37-15.13.57-21.39,1.68,3.24.49,17.09,1.63,18.86.25.4,7.47,2.6,8.86,3.13,1.55-9.08.29-18.25.29-27.39,0-38.06,0-77.76-.08-116.1-.01-5.44.98-12.47.78-18-.09-2.5.16-6.32.02-7.98-.25-2.88-2.33-2.49-3.37-3.43-2.63-2.38,2.9-2.59,3.83-5.04,1.07-2.84-4.67-8.25,1.53-7.05,1.13,11.69-.36,23.53.29,35.11.09,1.52-.72,2.71,1.23,3.88l5.1-14.69c-.39-3.55,1.78-7.35,3.12-11.1.57-1.6-.53-2.68,2.26-2.18-1.57,8.58-6.35,18.76-7.36,27.22-.18,1.5-.77,2.18,1.35,2.76l14.19-31.32,3.81-2.68c-4.23,11.09-11.22,22.12-15.36,33.13-.5,1.32-1.51,5.47-1.13,6.87l26.96-20.04c.84-1.42,3.14-15.87,3.08-17.91-.05-1.66-1.8-2.53-1.5-3,.06-.09,1.43.29,1.91-.77,1.19-2.58,3.14-10.97,0-12.73-3.74-2.09-12.16-3.01-16.97-5.03-3.4-1.43-6.03-4.3-10.49-5.6-3.76-1.1-11.12-.63-14.7-2.96-1.74-1.13-3.39-4.93-4.72-6.31-2.63-2.75-2.18,2.19-3.24,3.16-16.62,15.17-31.7,34.03-42.11,54.46-22,43.14-29.67,84.58-26.76,132.18,1.24,20.16,3.32,47.54,18.08,62.78,5.64,5.83,13.41,6.62,20.67,3,.64-.32,6.98-4.65,7.26-4.99,3.85-4.73-.55-16.28-4.01-14.75l-7.97,8.52c-.41-4.79,6.49-13.75,10.99-11.49.3.15,4.52,4.52,4.67,4.82,4.38,8.91-1.99,17.27-9.94,20.9-11.3,5.15-20.56,1.92-27.63-8.02-6.49-9.12-8.59-16.45-11.15-27.47-6.44-27.75-6.04-69.51-1.84-98.13.61-4.15,2.09-8.46,2.9-12.59-5.21,1.11-11.53-.39-16.39.02-2.9.24-3.59,3.17-6.59-.02.22,3.68-1.76,1.04-3.66,1.06-1.72.01-3.24.61-4.68.56-3.48-.12-16.19-2.93-17.53,1-1.49,4.34.62,6.39,4.83,6.89,1.23.15,3.78-1.8,6.56-1.33,1.98.34,3.76,1.9,4.97,1.86.84-.03-.32-2.58,2-2.06.95,3.64,2.21.99,5.02,1.03,9.22.13,32.27,5.58,12.66,12.65-10.34,3.73-18.07,1.45-27.69.85-5.06-.31-9.96-2.36-10.38,3.05-3,38.77-6.77,70.48.47,107.53,1,5.09,1.97,14.34,4.57,18.27,4.74,7.18,20.15,9.96,27.13,4.66,1.35-1.02,3.75-5.77,3.49-7.37-.12-.71-6.31-13.5-8.29-9.7l-5.46,8.03c-.77-4.82,2.81-13.36,8.53-12.69,2.3.27,9.11,12.63,9.31,15.46.25,3.66-7.32,10.69-10.61,11.97-.45.17-8.45,2.03-8.91,2.04-1.44.03-2.1-1.33-2.98-1.45-1.21-.16-2.44.8-3.63.51s-2.11-2.02-3.43-2.62c-1.48-.67-4.27-.81-5.04-1.45-1.05-.87-5.6-8.36-6.29-10.21-3.94-10.58-5.78-26.1-5.06-37.11.03-.5-1.73-.32-1.92-1.08-.32-1.31-.91-23.47-1.01-26.81-.51-17.85,1.82-36.86,3.97-53.93.08-.67,2.06-.54,2.09-1.17.02-.45-.76-8.12-1.12-8.35-1.5-.96-12.99.23-12.92-4.08-1.33-.27-.85.32-1.22,1.24-3.25,7.98-2.46,25.79-3.84,35.17-3.81,25.95-27.99,86.07-54.47,95.54-3.55,1.27-13.94,3.21-17.66,2.74-3.07-.38-13.97-4-16.32-5.67-7.23-5.14-5.74-24.34,5.79-21.98,3.51.72,3.93,12.49-1.27,9.45-.17-1.7,2.56-2.5,1.86-4.35-.25-.65-4.49-3.52-5.95-1.53-2.1,2.86-2.92,14.54.2,16.31.34.19,1.58-.89,2.27-.88s.64,1.51,1.45,1.85c9.19,3.92,14.03,4.93,23.61,3.03,8.77-1.73,9.76-4.11,16-9.54,14.55-12.66,23.67-32.17,31.07-51.4,1.24-3.21,2.82-6.62,4.04-9.97,5.31-14.64,5.65-30.28,6.76-46.23.32-4.59,3.04-9.03.66-14.05-.58-1.22-2.44-.05-1.96-2.23.19-.87,1.59-.13,1.98-1.21,3.64-10.15-5.15-46.78-9.23-57.53-.7-1.84-2.88-3-3.32-4.71-.39-1.53.73-3.08.42-4.35-1.31-5.24-11.97-19.6-15.22-24.82-1.58-2.54-3.56-9-4.52-10.24-.84-1.08-2.96-.64-3.67-1.59-.46-.61.79-2.13.4-2.81-.28-.5-4.18-3.09-5.14-4.48-1.96-2.84-6.05-11.69-7.93-13.52-.88-.85-2.79-.69-3.52-1.45-1.02-1.06-.74-3.68-1.73-4.81s-2.99-.71-3.35-1.13c-.61-.72.33-2.94-.3-3.68-.29-.35-2.19-.19-3.29-1.19-2.01-1.83-3.02-5.55-4.66-7.38-8.48-9.41-16.62-15.45-24.45-25.55-1.21-1.56-5.5-3.28-6.17-4.33-.93-1.46-8.77-14.5-9.18-15.52-.79-1.94-2.81-8.14-.12-8.19.06,2.1.59,4.06,1.61,5.9,8.87,15.98,21.8,24.61,34.05,36.45,19.07,18.44,53.38,64.24,62.57,87.93,2.99,7.71,4.4,18.41,7.02,26.48.36.42,6.63,2.12,7.34,2.13.47,0,.31-1.66,1.06-1.86,3.12-.83,15.58,2.09,17.88-.98.38-.5.76-10.92.81-12.53,1.88-16.64,3.02-32.61,5.33-50.19.67-5.11,1.8-10.38,2.4-16.82.4-4.22-1.6-10.49,1.95-14.03-4.28-1.19-.5-2.37-.02-5.01.95-5.27.93-12.98,1.6-18.59.36-3.01,2.43-5.12.42-8.88h2.99s-11.86,127.35-11.86,127.35c1.22,3.57,15.28-.63,19.35-.31,3.42.27,6.43,1.73,10.01,2.02,5.75.47,18.46-4.26,14.23,6.67-3.49.35-8.74,3.3-11.67,3.84-8.08,1.48-21.7,1.72-30.39,2.52-4.8.44-5.56,1.12-4.31,5.97.98,3.79,9.21.23,12.25.02,1.74-.12,3.48,1.14,4.78.98.67-.08.55-2.05,1.22-2.13,6.96-.82,18.84.22,26.02.75,7.41.54,5.28-3.92,6.9-8.66,5.09-14.88,9.1-31.22,15.27-44.68,11.08-24.14,31.21-40.12,47.16-60.88,2.21-2.88,9.91-15.77,12.31-17.19,1.07-.63,2.63,0,4.2-1.28,6.21-5.02,23.83-37.4,28.27-45.74,1.74-3.28,2.75-7.56,3.26-11.24,1.78-.2,1.07,3.42.9,4.41-2.55,15.12-15.19,34.96-23.75,47.21-3.04,4.35-15.2,20.13-14.03,24.67.37,1.43,7.18,7.34,8.54,7.54,2.96-2.93,14.54-1.74,14.16-6.15-.52-5.99-7.11-2.35-10.83-2.69-.85-3.63,5.62-1.43,6.07-3.6.7-3.44-3.76-5.81-3.06-9.39,3.48,1.9,3.57,7,7.74,7.83,2.68.53,4.71-.69,7.25-.84l-2.48-4.01c9.02,4.77,16.96,11.2,23.87-.1s6.34-18.3,18.85-26.2c14.15-8.93,22.17,3.61,26.08,15.5,12.39,37.65,16.12,74.12,18.34,113.47.44,7.79-.92,15.98.36,23.83.81,4.93,7.71,2.41,11.37,1.42,16.21-4.39,32.56-11.79,48.83-16.16,5.79-1.56,41.93-7.64,43.36-9.7,1.19-1.7-3.99-12.54-5.19-14.93-15.46-30.77-41-56.95-50.12-91.88-3.8-14.56-5.7-30.68-9.78-45.22-3.26-11.63-8.36-28.54-18-36-10.29-7.97-26.37-3.92-37.7-7.29-1.98-.59-5.12-.75-4.79-3.7.73-.68,5.56,1.93,6.57,1.95.48.01.24-2.02.93-2,1.25.04,2.07,1.36,3.01,1.5,7.29,1.07,13.33-.24,21.72,1.81,7.11,1.73,12.14,3.41,16.59,9.36,17.15,22.92,16.61,57.66,25.11,84.85,3.25,10.39,7.74,14.63,12.06,22.53ZM781,544.01c-4.02-1.36-4.49,1.24-5.82,1.88-2.02.97-10.61,3.78-10.17,5.61l10.5,6.42c2.39-.02,4.01-11.56,5.49-13.9ZM743.56,636.46c-4.81-4.55-11.72-9.96-18.56-7.45-.78,1.07,2.96,8.47,4.68,8.9,2.52.63,5.19-3.83,8.32-2.9-1.39,2.6-4.02,4.67-7,5,3.63,7.51,9.32,1.57,14.51-1.01.91-.64-1.39-2.02-1.95-2.55ZM720.73,632.14c-7.86,1.17-2.28,10.34.75,10.58.75.06,5.32-2.46,5.49-3.29.25-1.23-3.24-7.73-6.24-7.29ZM705.14,643.16c-.64.8,2.51,6.68,3.34,6.74,7.35-4,13.12-5.08,5.04-12.81-1.05,1.99-4.57,1.5-5.29,2.15-.46.41-.26,1.95-.82,2.67-.71.9-2.03.96-2.27,1.25ZM731.99,644.02c-3.4-1.78-4.81-2.24-8.3-.01-4.44,2.84,6.73,8.53,8.3.01ZM736,645.01c.56,1.93,2.93,7.35,5.35,6.91,2.94-.53,5.97-10.43,2.61-9.48-2.09.59-4.37,3.9-7.96,2.58ZM528.85,646.14c-1.03-1.65-6.61-.97-8.46-.24-1.11.44-1.64-.61-1.38,1.56.97,8.19,12.56,3.06,9.85-1.32ZM693.2,650.21c-.63,1.56,1.09,5.49,3.31,5.85,8.31,1.33,10.31-10.07,5.91-11.04-.52-.11-8.85,4.27-9.22,5.2ZM688,647c-5.53-2.29-7.78,7.02-4.5,6.98.24,0,4.19-1.94,4.35-2.13.64-.74-.05-3.58.15-4.86ZM721.87,651.89c1.66-2.71-1.02-5.55-4.15-4.52-.6.2-6.77,3.29-7.1,3.53-1.86,1.39-.72,5.46,2.83,5.12.47-.05,8.18-3.73,8.43-4.13ZM737.87,654.88c1.1-1.88-3.01-6.43-4.52-6.72-1.14-.22-6.29,2.62-6.29,3.33,0,1.01,3.66,6.09,5.45,6.16.3.01,5.21-2.51,5.36-2.77ZM496.29,656.71c-1.01-1.01-2.04-6.11-5.28-6.71-2.29,8.37,3.33,12,10.98,12.99,1.1-4.78-4.38-4.95-5.7-6.29ZM523.01,653c.19,7.05,5.29,9,9.81,3.52-2.36-6.46-5.4-2.47-9.81-3.52ZM730,660.99c.64-.83-4.62-7.66-5.63-7.85-1.06-.2-10.35,4.86-10.44,5.44-.31,2.06,3.66,7.11,5.79,7.28,3.18.25,6.3-4.95,10.28-4.87ZM708.8,656.16c-2.86-4.54-6.37,1.94-9.79,2.33,1.83,7.29,11.73.74,9.79-2.33ZM520.62,656.4c-3.1-1.73-13.94,1.9-12.62,3.59,2.93,0,6.01,2.76,8.59,3,6.11.57,9.43-3.57,4.03-6.59ZM716,668.99c.51-4.56-6.54-11.77-9.54-5.99-2.18,4.2,6.02,7.72,9.54,5.99ZM443.27,706.28c1.63-2.45,5.18-6.26,6.93-9.57,1.01-1.9,1.78-4.53,1.79-6.7-4.71,6.12-14.96,21.04-15.02,28.49-.02,2.12.89,1.96,1.54.52,1.29-2.85,3.22-10.42,4.76-12.73ZM361.99,746.01l-9.33.15-7.65,2.32c2.43,2.09,22.08,6.36,22.99,5.51,3.19-3.01-6.31-8.43-9.99-6l3.99-1.98ZM413,748.99c-2.86-3.75-10.08-1.53-14.53-1.95-8.99-.86-14.06-2.92-23.99.51-4.75,1.64-4.09,3.32-1.01,7.18l39.53-5.74ZM365.86,757.14c-.63-.79-17.17-3.41-19.85-4.14-.54.55.81,9.76,1.48,11.02.97,1.82,3.38-1.35,5.23-1.81,1.72-.42,3.55-.22,5.28-.2,0,2.04-4.51.25-4.99,2.5-.99,4.63,8.34,2.7,10.82,3.37,2.24-2.19,3.96-8.32,2.03-10.74ZM352,768.99c-6.38-7.66-3.91,1.27-3.6,5.88.38,5.57-2.62,5.75,5.12,8.13.54.17.32-1.8,1.13-2.01,4.37-1.12,9.46,2.59,10.95-4.95,1.36-6.9-10.02-2.83-14.62-5.53l1.01-1.52ZM414,767.99c-.66-1.92-4.95-1.75-6.64-1.87-2.23-.15-7.78-.32-9.85-.21-4.76.25-9.88,1.57-14.51,2.59-.06,2.82,27.79-1.02,31.01-.51ZM368.09,789.91c1.83,2.56,23.55,2.32,27.43,2.04,5.02-.36,11.29-1.22,14.47-5.44-11.65-6.21-26.36-3.42-39.11-3.91-2.42-.39-3.37,6.51-2.79,7.32ZM364,789c.52-9.84-5.21-3.84-12-4.99-.74,5.79,8.24,4.8,12,4.99ZM561.63,893.38c-12.35-8.09-16.03,2.48-16.61,13.55,13.57,4.52,28.24,2.15,41.97-.94-2.06-3.31-1.95-9.58-6.03-11.55-3.16-1.52-9.11,6.41-16.72,1.78-1.48-.9-1.98-2.43-2.62-2.85Z"></path>
      <path d="M498,507.99c1.54-.12,3.03.46,4.56.46,12.59.04,26.87,4.84,36.1,14.9,1.86,2.03,5.59,6.78,6.11,9.38,1.55,7.68-1.07,18.37-6.71,23.81-7.82,7.54-11.94,7.16-22.16,10.05-18.49,5.24-38.66,6.23-58.15,7.65-2.42.18-5.38,2.37-6.29,2.4-1.04.04-2.19-1.45-2.97-1.39-.98.08-1.82,2.29-3.1,2.54-1.14.22-2.71-.9-3.93-.82-22.13,1.6-43.59,4.54-65.96,4.84-32.24.43-65.77-1.56-98.75-4.05-6.8-.51-27.3-2.78-32.98-5.02-2.73-1.08-7.12-5.5-10.29-6.72-3.01-1.15.34,5.88.86,6.66,10.26,15.42,33.1,12.57,49.3,12.99,62.8,1.63,124.78,4.35,186.7-5.03,12.63-1.91,26.61-3.76,39.25-6.46,8.3-1.77,25.16-5.85,30.91-11.13,2.59-2.38,3.9-5.89,6.49-8.04.31,8.01-6.05,12.82-12.46,16.03-5.14,2.57-16.32,3.54-22.76,5.05-15.11,3.55-34.04,6.51-50.55,8.68-61.36,8.07-128.38,5.8-193.13,3.75-10.88-.34-17.58-.88-28.18-6.97-1.15-.66-3.01-.26-3.71-.75s-.55-2.3-1.19-3.08c-7.76-9.54-5.95-13.39-5.04-24.34.19-2.23-1.28-4.17-.59-6.41.22-.72,6.3-10.22,7.08-11.01,2.58-2.61,5.9-3.37,8.93-5.12,8.22-4.73,17.83-8.85,27.63-12.33,17.55-6.23,39.85-11.95,58.47-12.44,2.26-.06,4.49-.53,6.63-.48,1.44.03,6.42-.11,6.87,1.39l-18.83.67c-24.58,4.87-48.62,10.71-71.17,21.84-11.42,5.64-18.91,8.57-21.6,22.22-.62,3.14,1.89,9.91,3.91,11.97,2.34,2.4,18.5,6.11,22.54,6.74,61.42,9.6,128.68,6.28,190.64,1.06,22.04-1.86,66.49-2.05,84.01-15.5,11.43-8.77,10.41-23.66-.15-32.85-14.12-12.29-24.71-11.83-41.85-12.36-20.72-.65-41.79-.15-62.54-1.4-1.57-.09-2.48-.12-3.95.61l2.36-2.17c21.59-.56,43.37-.83,64.98-.15,5.34-2.05,3.07-12.24,7.15-15.68,2.75,2.14-3.13,15.44-2.51,15.99Z"></path>
      <path d="M804.83,474.85c-.12.3-4.16,1.72-2.83,5.15,4.03-1.29,8.12-1.5,11.99.5-2.09,3.47-10.24,0-11.48,1.43-.84.96-3.27,10.62-3.18,11.6.1,1.24,2.52,2.07,2.67,3.47-5.69-1.42-3.72,3.49-5.28,8.24-3.3,10.06-9.39,14.91-15.73,22.22-.98,1.13-.96,3.32-1.94,4.06-.48.37-2.08-.42-2.97.05-2.33,1.24-6.48,4.77-8.84,5.21-7.35,1.4-35.9-6.3-39.89-13.08-.91-1.55-.63-3.42-1.43-4.9s-4.72-4.85-3.43-7.77c1.19.92,2,.76,2.84,2.25,1.85,3.27,2.82,5.42,4.75,8.95.97,1.79,9.36,7.98,9.88,4.3.22-1.55-2.3-3.39-2.83-4.35-2.21-4-4.83-9.4-6.91-13.89-3.09-6.66-4.98-13.08-8.22-20.26,2.49-.53,1.77.54,2.6,1.86,1.47,2.35,3.15,9.2,5.89,9.19.88,0,7.34-5.62,9.21-6.86,2.77-1.83,8.36-2.21,3.33-5.19.21,1.98-10.35,7.65-11.02,6.98-.4-6.23,10.78-5.66,11.59-9.94.39-2.02-4.4-13.19-5.76-13.95-2.63-1.47-7.8,5.78-10.83,5.89,2.25-6.94,15.24-7.49,7.37-15.95-1.02-1.02-8.62,4.77-8.36,1.45.1-1.24,5.25-3.56,6.54-4.48,2.34-1.67,2.89-1.85,4.75-3.1,1.49-1,6.03-4.25,6.49-5.64,1.18-3.6-1.5-4.41-1.71-5.03-1.34-3.95-3.42-12.04-5.59-15.25-1.1-1.64-1.01-.69-2.01-.02-4.4,2.99-7.6,23.72-11.41,28.6l-4.07,1.42c1.59-4.95,3.97-9.87,5.72-14.77.52-1.44-.01-3.28.42-4.6.56-1.7,2.75-1.52,2.85-1.65.38-.52-1.5-1.47-1.62-2.45-.32-2.47,3.16-5.22,4.15-7.51,1.95-4.55,3.5-10.31,5.49-15.02,1.7-.27,1.08,2.41.91,3.41-.23,1.35-3.71,8.25-.44,7.57,8.59-7.21,16.42-14.61,25.51-20.98.34,1.92-1.33,2.85-2.47,4.05-6.64,6.96-15.66,12.83-22.59,19.61,2.73,7.09,6.77,13.72,8.08,21.34,1.28,1.1,9.34-4.82,11.23-5.99s3.84-2.02,4.68-2.56c5.72-3.63,9.85-4.95,7.08-12.45,2.12-.02,2.13,5.85,4.44,4.95,1.81-.7,8.98-6.51,9.05-8.95,3.38,1.27,2.64,2.66,2.5,6-2.51-1.85-1.63.42-3.2,1.34-2.63,1.53-7.24,2.59-7.57,6.31-.57,6.53,4.66,2.67,7.78,1.36-.27,2.22-5.46,3.29-4.99,5.48.79,3.74,10.77-2.97,11.56-4.5,1.46-2.84-2.37-3.99-2.54-4.69-.19-.84-.75-4.56.96-4.29,6.46,9.7,7.33,22.56,12.89,32.58,1.04,1.88.18,1.68,3.12,1.4.45-1.68-1.94-.46-2.08-1.59-.16-1.22,1.08-3.69,1.07-5.88-.09-12.49-4.87-34.4-14.47-42.49-4.74-3.99-9.39-4.61-13.89-7.16-2.89-1.64-4.66-5.84-8.34-6.66-2.77-.62-7.81-.4-10.76-.14-4.51.4-8.64,3.65-14.06,3.91-2.12.1-4.06.9-3.48-1.98,9.74-.59,17.16-6.24,27.25-4.74,3.31.49,21.29,9.49,24.26,11.73,13.05,9.87,15.64,34.86,16.12,50.33.07,2.38-1.25,5.71-1.11,8.21.1,1.89,2.58,7.68,2.33,8.31ZM770.76,437.25c-1.45-.49-7,1.74-8.09,2.68s-.62,2.65-1.67,3.55c-1.41,1.2-6.68,1.87-9.35,3.69-2.4,1.64-3.6,4.65-4.63,5.28s-3.39.22-7.18,2.97c-1.91,1.39-4.01-.7-2.62,4.86s4.09,2.6,4.63,2.92c1.31.78-.17,4.68,5.64.81.86-.57,2.81-2.34.02-1.98l-4.51,1.98c-.52-2.83,5.71-4.22,5.75-6.48.01-.67-2.61-2.64-1.75-4.51,3.32-.97,1.15,2.71,2.53,3.06,5.87,1.48,5.49-2.02,7.93-4.1,2.18-1.85,5.57-.56,4.55-5.96.43-.56,1.85,1.86,2.49,1.85.49,0,7.64-5.3,7.97-5.84,1.03-1.71-.63-4.39-1.7-4.76ZM792.15,454.87c-.12-.18.96-2.48.7-4.1-.18-1.11-3.12-8.96-3.87-9.33-2.58-1.45-3.66,1.89-4.31,2.22-1.9.96-5.14.58-6.13,3.3-.54,1.49,3.22,11.86,4.44,12.62,3.01,1.87,4.45-4.24,6.01-2.57,1.74,1.86-5.72,4.32-4.99,7.44,1,4.26,7.11-1.65,9.48-1.46,4.48.36-6.07,4.76-6.33,5.16-1.84,2.89,3.3,10.72.32,11.84s-1.5-8.48-4.01-8.99c-1.67,1.41-9.71,4.25-10.26,5.2-1.89,3.28,3.16,10.67,2.8,14.8,8.24-6.92,28.9-11.23,22.8-25.29-.76-1.75-2.67-1.75-3.35-2.75-.93-1.37.69-4.12-.6-6.28-.86-1.44-2.52-1.55-2.71-1.81ZM773.99,444c-.83-.95-8.07,5.38-8.97,6.5,1.76,2.28,1.46,1.09,3.08.11,1.36-.82,7.72-4.51,5.89-6.61ZM774.41,466.44c9.71-5.28,4.66-10.17,1.1-18.4-6.54,4.47-10.62,6.12-7.52,14.95-3.58,1.03-1.95-6.28-3-6.99-.98-.66-10.57,4.87-11.08,5.67s-1.03,5.92-.81,6.66,1.56.74,1.82,1.43c.86,2.31,1.07,5.26,2.62,7.26.74-.02,9.69-4.53,10.01-4.99,1.93-2.75-2.34-6.58.96-9.03l1.61,4.87c3.11,1.4,3.54-1.02,4.3-1.43ZM763,452.01l-4.67,1.32-6.32,6.66c4.08-.91,8.5-4.65,10.99-7.99ZM752,465.01c-1.57-1.26-9.92,3.96-10.07,4.68-.48,2.33,3.19,12.3,5.59,13.31.41.17,7.42-4.27,7.51-4.71.82-3.69-2.8-7.66-3.52-10.18-.29-1.01.79-2.85.48-3.1ZM781.99,465c-.69-.82-11.5,6.65-9.99,7.99,2.83.44,12.87-4.58,9.99-7.99ZM773.89,492.84c.38-.68-2.75-13.48-4.49-14.79-1.98-.62-10.66,4.67-10.33,7.54-4.63-1.34-10.18,1.38-8.79,6.62.26.99,4.77,9.77,5.32,9.87,1.39.24,7.39-3.05,7.5-3.71.08-.5-2.65-8.64-3.12-9.64-.53-1.14-2.35-.16-1.96-1.71,4.85-1.4,4.49,9.12,7.6,9.86,1.45.22,8.03-3.57,8.29-4.03ZM797.99,480c-.41-.46-8.12,4.36-9.21,5.06-2.65,1.71-5.7,4.87-8.15,6.63-1.6,1.15-3.44-1.27-2.41,3.58,2.31,10.92,9.26-1.12,14.84-2.78,1.68-.5,3.46.76,3.86.48.24-.17,2.14-5.17,2.13-5.46-.02-.45-3.68-.51-2.04-2.51.67-.81,2.63,1.69.98-5.01ZM740,514c.48-1.08,1.75-1.67,1.75-3.29,0-2.14-2.42-4.72-1.26-6.71l2.51,6,2.98-1c-1.17,4.39-.06,12.62,5.96,10.46,7.58-2.72,3.06-7.12,3.04-12.47-2.63-1.73-6.86,4-7.99,3-2.02-1.77,5.77-4.69,6-5.02.64-.91-5.15-12.19-6.02-13.98-1.98,1.01-15.59,9.67-15.81,10.59-.34,1.44,3.29,9.89,4.37,11.4,2.05,2.88,2.67.91,4.46,1.01-.47,1.06-1.92,1.85-1.81,3.31.03.42,2.59,7.64,2.8,8.01,1.71,3.09,5.37-2.16,4.85-5.55-.06-.38-1.75-5.45-1.97-5.65-.53-.47-2.81-.07-3.87-.12ZM788.42,508.43c4.41-3.42,6.78-5.34,7.13-11.41.32-5.59-2.24-1.2-4.07,0-5.44,3.58-12.27,5.29-7.52,13.56,2.43,1.36,3.43-1.34,4.47-2.15ZM777.82,503.82c1.18-2.01-1.61-7.29-3.38-8.81-.55-.12-7.21,3.86-7.37,4.59-.14.63,2.02,6.22,3.19,6.75,1.86.84,6.97-1.5,7.57-2.52ZM762.74,501.15c-6.36,1.33-7.48,8.94-2.25,12.77l8.41-5.55c-1.35-2.57-2.56-7.97-6.16-7.22ZM781.4,510.65c-1.18-2.42-.39-3.44-.89-5.64-1.15,2.38-6.21,2.7-7.06,3.94-1.64,2.4,1.59,5.19-.95,7.05-.84.31-.39-3.65-2.02-4-.51-.11-8.43,2.86-9.02,4s-.57,2.06-.31,3.28c.14.66,5.25,11.89,5.81,12.28,3.98,2.7,9.9-3.39,8.82-7.8-.42-1.75-3.84-6.42-2.77-7.74,2.24-2.75,4.6,7.72,5.01,7.99,2.35,1.61,3.87-2.4,5.11-3.42.74-.61,2.34-.3,3-1.23.75-1.06-.31-3.25.38-4.3.98-1.49,4.04-1.84,4.5-4.04-4.92-2.02-5.96,6.51-8.49,5.98-2.94-.61.58-3.99.54-5.44-.02-.51-1.49-.56-1.66-.91ZM758.92,519.03c-2.31-.04-7.39,1.89-8.35,3.99-.37.81-1.82,7.63-1.58,7.96.46.62,13.56,4.1,14.98,1.96l-5.05-13.92Z"></path>
      <path d="M791.61,392.4c7.11,4.11,13.52,12.86,17.57,19.92,14.72,25.61,10.97,63.66,7.09,92.47-2.03,15.11-7.12,37.41-13.51,51.49-.8,1.76-4,4.19-5.93,8.07-7.86,15.78-14.24,35.67-19.41,52.11-3.34,10.62-5.47,21.83-9.43,32.08,5.23,1.88-.03,2.57,0,2.98,3.19-.14,1.25,7.89.53,10.5-2.37,8.67-4.99,14.05-3.19,24.31.18,1.05,1.66,1.76,1.71,3.18.02.71-2.13.47-2.04.97.23,1.22,1.74,2.98,1.96,5.18,1.5,14.8,3,29.8,5.47,44.26,8.6,50.26,21.2,96.65,24.91,147.44.2,2.72,2.5,5.48-.26,7.95-2.06,1.85-10.68,2.31-12.08-1.29,4.34-.07,9.32,3.52,10.7-2.64-1.56-9.18-1.71-18.59-2.75-27.82-3.34-29.64-9.75-59.24-16.42-88.59-1.02-4.48-.93-10.82-6.53-7.97l3.62-4.46c-4.26-20.52-7.68-41.18-9.58-62.08-2.91-31.97-.62-54.16,9.23-84.68l14.64-35.41c.5-2.11-2.25-.94-1.92-1.86.42-1.18,3.17-4.55,4.17-6.84,10.55-24.25,25.26-67.66,26.78-93.24.03-.49-1.64-.34-1.83-.91-.33-1,1.42-17.23,1.34-21.03-.11-5.2-1.97-11.09-2.22-15.24-.32-5.24-.77-9.82-2.46-15.52-.44-1.48-2.35-2.23-2.56-3.36-.19-1.02,1.09-2.64.71-3.22-.22-.34-2.21-.61-3.04-1.59-1.02-1.2-.09-2.8-.8-4.11-5.9-10.75-16.55-20.3-28.73-23.13-9.02-2.09-33.88-2.3-42.56,1.68-1.24.57-1.19,2.15-1.75,2.48-.82.48-2-.68-2.79-.24-.29.16-1.5,4.65-4.25-.23,17.73-9.62,47.94-11.83,65.61-1.61Z"></path>
      <path d="M579,404.01c-.85,8.56-2.47,18.98-1.73,27.46.18,2.06,2.17,14.99,2.75,15.53.5.46,2.45.24,2.22-1.27l14.28-33.72.49,2.98c8.72-1.12,15.84,3.5,23.79,5.72,19.22,5.37,37.09,8.26,57.21,8.3-.26,1.7-2.13,1.13-3.25,3.23-1.45,2.7-2.39,11.29-3.27,14.73-.43,1.69-2.71,5.14-2.42,6.46.34,1.55,4.17,1.42,5.99,3.03.42.38,3.95,5.23,4.19,5.8,1.43,3.33,2.24,8.44,4.32,11.64,1.84,2.84,5.26,3.08,5.44,6.09-1.3-.97-7.66-1.76-7.93-2.07-.41-.47.28-2.39-.1-3.15-.49-.99-1.86-.74-1.93-1.39-.52-4.94,0-8.19-4.04-12.88-3.74-4.34-6.1-3.23-5.34,2.33.57,4.13,7.92,18.96,6.27,21.11-1.2,1.56-4.83.1-3.93-.92.2-.23,3.24.73,1.52-2.04s-12.37-6.91-11.56-2.45c.47,2.6,6.04,4.91,8.06,6.95s.97,5,4.97,5.02c-3.34,4.09-5.6-2.87-7.49-4.59-.79-.72-7-3.51-8.42-4.49-4.05-2.8-7.46-14.53-2.6-13.42.94.22,2.8,4.18,5.51,3l3.06-16.28c3.45-1.65,1.65-4.93,2.48-7.7,1.7-5.71,5.22-10.74,5.46-17.02-5.63.64-13.11,1.17-18.84.67-18.6-1.62-36.48-7.94-53.68-14.67-.6,2.72-2.21.87-3.49,2.4-3.37,4.04-5.21,14.69-7.2,19.9-4.29,11.24-9.18,22.49-13.29,33.71-.3.83-1.44,4.21-1.45,4.57-.03.9,2.4-.29,1.93,1.41l-7.99,1c2.74-4.39,3.43-9.55,5.22-14.27.92-2.43,1.45-4.29,2.3-6.6,1.7-4.64,8.56-12.22-1.51-9.11-1.57-10.44-2.02-19.88-.93-30.42.19-1.86,1.39-3.46,1.62-5.21.35-2.67-2.62-8.65,3.31-9.37ZM667.99,465c-2.02-2.14-3.28,5.28-3.07,6.33.16.79,2.18,1.24,3.12,2.13.77.73.81,2.79,1.46,2.54,3.31-1.31-.05-5.42-.82-7.19-.47-1.08-.55-3.66-.68-3.8Z"></path>
      <path d="M674.99,859l-8.98-16,2.99,21c7.91-1.22,9.42-5.37,10.69,4.79.86,6.86-1.52,13.96-2.57,20.83-3.73,24.28-6.49,52.52-26.68,69.32-1.31,1.09-9.15,3.88-10.55,3.57-3.99-.88-9.13-11.71-10.57-15.35-2.29-5.78-3.08-11.05-4.59-16.39-1.22-4.32-6.52-12.57-1.74-15.78.89,8.22,3.52,17.3,6.3,25.21,1.32,3.76,6.85,19.9,11.16,19.87,9.33-.08,18.75-14.09,22.41-21.72,4.69-9.78,7.97-23.37,9.91-34.09.53-2.9,3.55-21.5,3.32-22.62-.78-3.79-5.95.73-6.54.9-6.25,1.87-13.27,2.15-18.87,3.46-.77.18-.64,1.91-1.33,2.03-.42.07-7.31-.46-8.49-.61-1.7-.22-8.85-2.51-9.33-2.43-3.42.59.24,12.34-2.03,15.01-1.36.02,1.56-19.07-4.99-17-1.91.6-1.94,13.26-2.54,16.48-.3,1.64.65,1.73-1.96,1.5-.37-7.08.43-14.11,2.01-21,12.16,4.76,22.21,6.31,35.24,3.75,3.23-.64,15.5-4.53,17.66-6.33,2.56-2.14,2.54-11.77-.49-12.39-.73-.15-11.44,4.35-14.02,4.85-11.6,2.27-22.91,1.86-33.83-2.77l-4.56,9.89c.69-4.81,1.59-11.74,3.08-16.21.14-.41,3.19-6.93,3.63-7.57,1.35-1.94,3.16-2.07,3.28-2.23.22-.3-1.72-2.05-1.98-3.5-.65-3.72.4-8.58-.01-12.47,1.36.56,1.69,5.16,1.87,6.62.34,2.78.05,5.59.13,8.37,6.48-4.11,10.41,2.65,13.55,3.06,2.4.31,3.28-1.09,4.98-1.5,4.59-1.11,2.86-.81,6.72-2.81,1.34-.69,4.12-.22,4.79-1.4,2.36-4.17.02-17.87,2.45-23.34,5.65,10.76,7.28,23.35,10.49,34.99ZM666.82,865.82c1.17-.77.58-16.59-4.34-16.48-2.6.06-6.81,6.05-11.94,6.7-7.74.98-12.35-4.82-15.81-3.89-2.6.7-7.04,9.74-6.76,12.29,12.41,6.43,25.75,4.66,38.86,1.38Z"></path>
      <path d="M411.99,513.99c-2.57.89-2.51-3.16-2.71-4.77-1.54-12.53-1.74-25.69-2.06-37.74-.15-5.73,1.57-15.28-.74-20.47-.16-.36-4.8-5.97-5.19-6.06-2.13-.49-5.33,1.11-7.8,1.15-3.77.06-16.2-1.76-18.82-.99-1.52.45-2.69,3.3-2.68,4.89,7.96,3.15,17.12,1.67,25.22,3.33.56.11,5.67.67,3.77,2.67-2.49,2.63-24.99-.99-29.43-1.06-.23,2.64-2.13,2.99-2.83,4.35-6.1,11.74-2.39,44.37-1.83,58.34.1,2.55-1.59,4.67-.71,7.67,1.03,3.54,7,3.24,7.5,7.37.21,1.79-1.61,3.39.3,4.88,1.47,1.15,23.18.58,27.02,1.47l-.02,3c-.19.25-1.54-.86-2.45-.82-5.41.23-15.88.96-21.04.32-7.68-.96-5.57-4.7-8.08-8.42-1.01-1.5-3.94-2.4-4.88-5.12-.86-2.5-.12-4.38-.56-6.28-.18-.78-1.89-.63-2.02-1.33-1.01-5.46.51-18.74.51-24.82,0-10.96-.35-21.97-.1-32.88,4.99-6.87,8.82-11.4,8.68-20.59,1.84-1.79,21.39,1.46,25.45,1.01s5.78-4.02,9.36.58c6.07,7.8,3.23,13.71,3.66,21.88.52,9.83,2.12,20.53,2.54,29.93.27,6.15-.31,12.4-.06,18.55Z"></path>
      <path d="M637,265.01c.42,6.6-2.35,13.08-2.04,19.52.21,4.36,2.1,7.98,2.97,12.06.59,2.75-.86,8.06,2.12,9.91,1.01.62,2.65.23,3.65.84.42.26.51,1.38,1.03,1.64,1.46.75,7.26,1.65,6.27,3.52-.5.94-2.83,1.74-3.86,3.14-4.52,6.15-8.4,10.75-13.61,15.4-12.51,11.15-23.26,23.5-33,36.97-2.79,3.86-4.3,10.74-9.48,12.56s-2.57-2.79-3.28-5.75c-1.96-8.22-4.51-15.05-7.22-22.74-.28-.8.6-2,.22-2.82-.55-1.18-4.38-4.56-6.25-2.24-2.16,2.68-4.42,14-7.43,17.33-1.14,1.26-2.69.52-4.09.64l7.48-13.05c-1.05-3.13,2.89-4.53,3.07-7.47.21-3.51-4.47-6.53-3.54-10.47l7.45,6,.55,4.99c4.25-.73,4.21-4.4,5.99-6.5,11.16-13.17,19.38-22.72,28.36-37.16.18-.29,3.83-4.27,4.64-3.33.42.49-4.3,8.98-5.06,10.16-6.73,10.5-15.97,20.59-23.27,30.52-1.55,2.11-5.56,4.6-6.16,8.22-.48,2.9,4.04,12.4,5.05,16.05,1.03,3.72,1.32,9.07,2.46,13.05.16.22,3.8-2.46,4.4-3.09,6.57-6.97,12.58-19.07,19.19-26.84,9.88-11.61,22.76-20.73,32.4-32.58l-11.91-7.07c-3.65-2-6.78-6.16-9.8-8.42-.96-.72-3.17-.87-3.28-1-.64-.77.67-3.14,2.37-2.89,1.12.16,7.21,6.32,9.64,7.42.98.44,1.73-.38,1.95-1.02.53-1.58-3.08-12.55-3.03-15.99.05-4.36,2.4-13.69,3.38-18.56.36-1.8,1.06-1.71,1.7-.94Z"></path>
      <path d="M591.69,174.3c2.63,2.9,7.22,10.8,10.74,12.77,2.47,1.38,4.5.45,6.55,1.49.24.12,3.82,3.73,3,4.44-1.14.99-3.95-2.11-5.06-2.47-1.31-.42-2.57.38-3.87-.06-3.54-1.2-7.89-7.56-10.06-9.98-1.04-1.16-5.28-6.43-5.71-6.54-2.12-.51-11.04,3.55-12.65,4.99-.28.25-4.29,5.27-4.54,5.66-1.28,1.99-6.49,13.82-5.11,15.38,1.8.5,2.36-1.43,3.73-1.76,6.59-1.59,13.82.34,16.96-8.04l1.8-12.18c1.55,1.4,2-.05,2.28,2.23,1.06,8.51-1.97,9.49-5.23,15.82-.7,1.36-.31,3.44-.58,3.93-.06.12-1.32-.75-2.64-.23-19.11,7.58-13.13,22.05-24.84,35.22l6.75-21.15c.44-1.13,4.65-9.18,5.04-9.55.24-.23,8.59-4.49,3.2-4.3-4.45.16-4.73,3.36-6.14,3.85-1.28.45-3.5-.23-4.19.32-.22.17-.63,2.81-1.48,4-3.99,5.6-9.94,12.07-16.67,13.86-.05,1.76,2.53,1.12,3.74,2.25.58.54,1.7,3.3,1.25,3.74-5.72-2.01-16.39-1.73-16.49,6.1s4.19,6.87,9.48,9.42l-7.98-.02c-1.98-1.14-3.93-7.88-3.93-10.13,0-7.94,18.12-15.31,23.58-20.7.4-.4,4.69-5.6,4.97-6.02,2.07-3.15.42-6.63,4.37-5.65.39-1.82-1.68-.63-1.99-.99-1.57-1.84,1.45-1.8,1.93-2.76,3.82-7.65,4.73-15.47,12.47-20.84,4.41-3.06,12.88-6.98,17.29-2.11Z"></path>
      <path d="M454,412c2.11,7.46-2.7,12.34-4.68,18.82-4.24,13.88-1.12,24.24-3.11,37.49,3.62,10.05,7.53,20.13,16.77,26.24,10.62,1.07,19.73,5.09,29.05-3.03,7.04-6.14,11.31-17.59,12.5-26.62,1.52-11.53-5.93-23.55-4.19-34.06.21-1.24-.25-2.51,1.66-2.85.06,3.08-.23,6.17.27,9.24,1.98,12.38,6.68,16.88,4.49,31-1.91,12.26-11.31,30.39-25.23,31.22-10.73.64-23.99-1.79-29.9-11.59-2.48-4.12-7.83-15.88-8.14-20.34-.17-2.37,1.32-5.46,1.17-7.89-1.34-23.04,2.03-24.26,7.33-45.21.42-1.67-1.01-2.92,2.02-2.43Z"></path>
      <path d="M559.64,344.68c-.08.26-1.32.37-1.55,1.1-3.36,10.83-6.2,21.79-9.07,32.75-8.46,2.5-18.77,2.18-27.32-.74-1.77-.61-2.37-3.06-1.7-3.79.92-1.01,23.01,6.08,27,2.49l-5.9-3.9c-5.37-.52-17.61-4.92-22.09-1.06-1.37,1.19-1.39,3.29-2.31,4.18-4.96,4.81-5.85,2.17-9.26,10.28-2.59,6.16-2.55-1.39-.89-4.94,3.27-7,12.62-10.07,15.2-22.8,1.3-6.39-1.32-3.26-2.54-4.47-.48-.47,0-2.03-.42-2.51-.89-1.04-4.72-.16-4.79-2.26,7.89-2.32,10.33,9.97,18.99,6.98,1-.73-7.74-8.67-8.99-9.5,3.44-2.11,7.33,4.75,8.24,5.28,1.46.86,4.75-.55,5.57,3.98,1.39,7.64-11.22,1.86-12.82,2.67-2.1,1.06-2.82,6.26-3,8.56,9.31-2.63,16.89,2.18,25.4,4.97,1.61-.49,4.02-14.28,4.94-17.12,1.35-4.2,3.81-11.73,5.51-15.5.52-1.16,1.81-4.08,3.14-4.34-.06,3.09-.46,6.73-1.35,9.68Z"></path>
      <path d="M629.01,219l1-2c2.15-1.82,1.8,12.75,2.11,14.39.85,4.48,3.76,8.52,4.64,12.35.32,1.4,1.19,12.47.98,13.65-.37,2.08-3.55,3.28-3.7,1.13-.02-.28,1.02-1.51.89-2.88-.65-6.8-.15-10.86-3.36-15.6-.45-.66.04-4.73-.58-6.03-1.31-.26-1.64.05-2.44.99-.63.75-1.17,16.31-1.65,19.46-1.19,7.78-3.77,13.38-8.07,19.93-.66,1.01-2.34,1.38-2.6,1.87-.61,1.13.1,3.02-.35,3.61-.18.24-4.25.81-5.81,1.71s-2.55,3.03-4.07,3.8c-.75.38-1.94-.46-1.99-.37-.66,1.08,1.67,8.68,2.53,9.96,1.15,1.69,3.88,2.35,4.42,3.58.49,1.09.19,3.3-1.46,2.46-2.88-1.46-7.33-10.48-8.77-13.73-6.06-1.32-15.74,2.78-19.74-4.26,18.14,7.02,36.89-4.7,41.82-22.78,1.4-5.15,4.09-27.14,4.04-32.79-.07-7.19-2.39-15.11-1.84-22.44l2.93,6.55,1.07,7.44Z"></path>
      <path d="M505.97,389.02c-.87,3.65,7.54.62,8.99,2.02.77.75,1.97,18.62,3.11,21.31-.13.57-10.64,4.04-11.06,3.65-2.49-2.3,7.6-5.53,7.99-6.5,1.06-2.66-1.87-2.46-1.86-2.93.08-3.92,1.85-9.28-1.63-12.54-1,0-5.51,12.51-6.28,14.71-.69,1.97-1.36,4.23-1.9,5.81-1.42,4.12-.11,8.01-6.48,6.95-1.84-.31-1.63-2.21-2.48-2.41-.64-.16-2.4.51-3.97.15-11.22-2.61-22.19-4.49-30.31-12.76-1.03-1.05-4.83-6.05-4.93-7.13,1.5-1.41,7.66-11.25,8.36-11.31,2.1-.16.83,2.34.31,3.28-4.25,7.68-9.07,6.49-.46,14.35,10.8,9.86,21.46,7.55,33,11.45.85.29.71,1.92,1.13,1.91,3.3-.1,4.52-8.36,5.33-10.69,1.74-4.99,4.72-9.75,4.18-15.32-5.08,3.14-32.54-1.94-32.97-6.5-.35-3.7,9.03,2.02,9.66,2.15,1.63.35,6.01.03,8.72.45,4.01.62,9.56,3.89,13.57-.08Z"></path>
      <path d="M652.28,535.72c-.62-.63-.43-2.36-1.24-3.26-2.5-2.77-5.86-3.81-5.03-9.46,9.58,11.24,19.88,19.05,35.18,12.69,2.28-.95,3.91-2.73,6.29-3.71,10.95-4.53,13.02-1.23,18.91-14.09,2.74-5.97,7.36-16.12,9.19-21.8,1.85-5.77,1.94-7.39,2.51-13.42.38-3.99,3.23-9.7-.32-13.44-3.78-3.97-26.29,6.7-25.77,13.77-4.63-2.06.25-6.19,2.52-8.06.61-.51,5.9-4.68,6.29-4.85,1.44-.63,11.55-3.91,12.82-4.04,12.08-1.21,7.65,21.7,5.73,28.8-1.13,4.2-12.32,28.21-14.83,31.17-5.03,5.94-8.69,4.52-14.59,7.41-4.35,2.14-8.38,7.43-13.5,8.5-4.83,1.01-12.92.65-17.4-1.48-.38-.18-6.46-4.44-6.76-4.74Z"></path>
      <path d="M502,309.01c-2.56,4.42-8.91,5.2-12.89,7.6-28.37,17.04-44.64,46.96-48.98,79.02-1.79,13.21,1.08,26.77,1.89,39.88.14,2.28-.77,1.48-2.51,1.49l-2.91-20.87c-1-30.03,7.63-59.61,26.77-80.7,10.74-11.84,23.18-21.43,38.63-26.42Z"></path>
      <path d="M483,835.99l1.5-150c.78,0,1.5,13.93,1.54,15.47,1.2,43.66-1.09,87.34,0,131.1l-3.05,3.44Z"></path>
      <path d="M590.74,159.27c10.03,6.54,23.69,13.62,31.27,24.18,2.21,3.09,3.47,8.77,3.99,12.54l-5.98-12.5c-5.34-2.03-8.33-8.14-12.09-10.94-.95-.71-2.7-.27-3.61-.88-3.2-2.14-7.71-6.45-11.39-8.1-8.4-3.76-40.01-3.48-48.96-1.11-10.31,2.73-22.92,15.56-28.8,24.2l-9.16,20.33c.06-2.11.03-4.52.49-6.55,3.65-16.11,16.12-29.59,30.26-37.13,15.27-8.15,36.53-5.27,53.98-4.04Z"></path>
      <path d="M637.98,482c3.38,12.7,18.62,13.49,27.01,21.5-2.09.44-5.75-1.41-7.67-2.33-3.98-1.9-6.86-4.7-11-5.51-1.41-1.49-14.78-13.5-12.35-6.18.18.56,7.9,7.83,8.39,8.15,5.05,3.23,20.78,9.45,26.18,6.42,4.17-2.35,8.09-9.95,9.61-10.95.63-.41,2.33,1.14,3.82.46.92-.42,1.89-2.22,3.08-3,3.54-2.3,7.13-4.7,10.93-6.55.57.78-2.21,12.28-2.78,13.71-3.83,9.62-20.66,27.12-31.6,25.03-4.19-.8-6.56-10.22-.6-9.23l-1.02,6.48c5.1.16,9.47-.6,13.59-3.35,5.3-3.54,12.9-11.18,15.79-16.77.81-1.57,3.61-8.72,2.62-9.87l-12.9,7.6c-3.42,1.78-9.27,9.96-12.77,10.21-1.12.08-1.97-1.26-2.8-1.32-7.28-.6-10.57-.38-17.54-4.17-4.14-2.26-8.69-6.35-11.66-11.17-.89-1.45-1.21-3.97-1.37-4.12-.45-.41-9.7,1.38-12.12,1.41-12.6.15-24.49-5.62-35.74-8.87-1.93-.56-6,.69-7.1-2.57,20.19.89,39.88,14.78,59.98,4.99Z"></path>
      <path d="M503.72,237.74c-.27.47-1.65.67-2.07,1.36-5.71,9.27-14.82,18.02-17.55,28.5-1.22,4.68-.92,11.17-2.04,15.94-.41,1.75.91,2.95-2.05,2.46.29-4.33-.93-9.08-.67-13.35.35-5.76,2.37-12.28,5.28-17.54,2.17-3.93,5.46-6.48,7.43-8.79,1.62-1.9,8.91-10.07,9.37-11.36,2.1-5.82.78-13.9,2.6-19.96l1.03,8.56c-.84,3.65.41,11.14-1.32,14.17Z"></path>
      <path d="M513.31,323.34c-.38.21-.67,1.56-1.41,2.02-2.09,1.3-6.67,2.48-7.83,4.21-1.26,1.87-.68,4.42-1.61,6.39-3.46,7.33-9.18,16.63-13.91,23.1-.7,5.7-5.92,11.28-10.54,14.94l16.54-28.95c2.25-5.2,4.12-14.79,8.35-18.64,1.14-1.04,2.84-1.18,4-2.05.82-.6,1.04-1.95,1.81-2.4,8.09-4.69,22.12-7.66,30.26-2.47l-17.42.56c-2.71,1.03-5.73,1.88-8.25,3.27Z"></path>
      <path d="M704,386.99c-1.97.27-1.66.22-2.26-1.23-2.18-5.24-.52-12.88-1.16-18.11-1.13-9.25-4.32-28.8-7.7-37.03-.39-.96-2.8-5.78-3.22-6.28-1.42-1.74-12.02-6.72-14.67-7.63-1.81-.62-6.18.43-6.98-1.7,8.43-.58,18.57,2.81,23.97,9.51,5.08,6.31,5.52,12.98,7.52,20.48,1.11,4.17,1.84,6.57,2.45,10.54,1.65,10.8,2.87,20.55,2.06,31.45Z"></path>
      <path d="M631.99,514c1.59,1.32-.96,2.24-1.94,2.5-1.68.45-8.21,1.3-9.77,1.23-11.2-.54-9.63-1.54-21.86.17-8.43,1.18-23.51-.2-32.88.15-6.33.23-12.88-.86-18.55,1.94,1.47-3.19,5.5-4.27,8.66-4.62,12.67-1.41,25.89.2,38.71-.52,4.48-.25,9.81-2.35,14.3-2.47,6.14-.17,12.61,2.59,18.82,2.59,1.33,0,4.21-1.21,4.5-.97Z"></path>
      <path d="M752.6,750.44c4.88,4,4.55,7.25,6.97,11.5,2.84,4.98,5.92-2.59,10.44-1.92-.47,3.5-3.54,3.29-5.04,4.72-5.61,5.37-.44,11.77.93,17.87,5.21,23.1,6.6,44.75,10.18,67.81,1.59,10.23,4.91,20.33,5.92,30.58-2.92,3.53-5.06-13.15-5.26-14.23-3.62-18.68-4.66-38.64-7.84-58.15-.49-2.98-2.53-6.06-2.72-7.32-.24-1.58,2.26-2.67,1.83-3.27-.06-.09-1.7.33-1.98-.69-.4-1.44.11-3.52-.42-5.41-.97-3.48-3.73-4.09-.58-7.91-5.04.4-2.05-.66-2.36-3.37-.71-6.01-6.12-23.06-10-27.28-2.16-2.35-6.45-4.26-8.64-6.86,2.45-1.19,6.71,2.4,8.59,3.94Z"></path>
      <path d="M664.99,422c-13.27-11.62-26.83-16.22-44.54-16.04-.84,0-9.47,2.23-6.45-.94.65-.68,12.45-1.71,14.33-1.64,10.22.41,22.84,5.44,30.66,11.62,1.64-7.36,1.96-14.89,3.17-22.33.27-1.65.36-6.02,1.83-6.66-.37,2.72.5,5.47.43,8.13-.13,4.72-3.01,20.17-1.96,23.35.61,1.86,2.95,2.28,2.54,4.51Z"></path>
      <path d="M748,716c2.52.61,2.77-.67,4.5,3,.42-7.16-5.07-15.73-6.34-22.77-.3-1.66.82-3.91.69-4.1-1.67-2.31-3.15-2.25-4.38-7.16-.34-1.35.66-2.87.54-2.96-2.94-2.11-13.57,4.99-16.71,5.79-1.05.27-6.14,1.12-6.29-.78,4.55-2.03,9.3-3.69,13.91-5.59.96-.4,1.66-1.99,2.78-2.26.36-.09,7.03.03,7.33.24,1.94,1.33,1.12,7.35,2.06,9.8,3.15,8.27,5.93,18.47,9.81,26.6,2.11,4.42-2.34,8.27-3.88,7.19-.33-.23-3.49-5.95-4.02-6.99-6.55-1.58-2.6-3.05-4.21-4.84-.34-.37-1.93.11-2.85-.8-1.85-1.82-5.86-9.7-6.94-12.36-.68-.22-2.36.4-2.88-.1-.4-.39-.59-3.89-1.15-5.19-.25-.58-3.74-1.15-1.96-2.71,2.52-2.21,5.58,6.98,5.99,7.99.4.13,1.1-.27,1.77.2.87.62,5.93,8.73,7.19,10.33,3.36,4.26,2.28,2.02,5.04,7.46Z"></path>
      <path d="M487.31,672.7c.49.54,8.66,6.04,9.71,6.58,4.12,2.13,8.92,2.19,12.65,3.56,1.54.56,19.7,6.69,19.32,7.66-1.26,3.22-4.35-.25-5.5-.17-.91.07-2.26,2.58-3.49,1.66-.35-.26,2.84-1.54-2.81-3.67-6.86-2.58-17.76-4.22-23.37-7.64-.74-.45-8.44-8.2-8.82-5.13-.17,1.32.92,4.55-.97,4.44.15-3.95-.89-8.76-.92-12.39,0-.75.48-4.77,1.89-4.6.46,3.15.02,7.17,2.32,9.69Z"></path>
      <path d="M630.99,831c-1.46.26-1.28-1.88-1.51-2.97-.53-2.51-.78-5.2-1.05-7.75-1.62-15.3-2.44-30.85-3.42-46.27l2.89,7.58c1.49,16.46,4.21,32.88,3.09,49.41Z"></path>
      <path d="M410.7,527.76c-.24.27-5.7,2.92-6.47,3.02-8.05,1.06-18.64.65-26.74-.76-1.69-.29-3.46-.09-3.49-2.51-.03-1.65,19.49.25,21.78.22,1.69-.02,10.42-.55,11.54-.89,2.29-.7,2.73-5.28,4.19-6.85,1.12,1.41.06,6.78-.8,7.77Z"></path>
      <path d="M710.99,407.01c1.98,2.62-3.65,3.96-3.99,5.99,2.23.49,9.58-4.66,8.99,0-5.97.15-13.6,3.5-19.03,6.46-3.13,1.7-13.21,8.52-15.02,11.02-.94,1.3-1.34,6.69-2.04,8.73-1.18,3.46-2.47,7.52-3.8,11.44-.52,1.55.89,2.86-2.1,2.34-.1-1.77-.1-3.51.22-5.27s5.29-17.79,6.06-18.5c.46-.42,1.91-.01,2.41-.46.63-.57.59-2.61,1.72-3.83,3.36-3.61,16.05-13.13,20.23-15.88,1.76-1.16,2.81.06,3.73-.09.5-.08,1.11-3.96,2.62-1.96Z"></path>
      <path d="M716.74,393.8c-.07.15-1.17.14-1.36.51-.63,1.27.26,2.95-1.37,2.68-.83-2.2.04-4.43-.08-6.43-.31-5.11-.14-11.93-1.16-17.83-.4-2.28-3.35-11.54-4.42-13.63-1.61-3.14-4.94-4.42-5.34-8.1,2.35,1.6,6.01,3.56,7.41,6.08.73,1.32,4.83,12.11,5.18,13.62.41,1.79,1.6,22.04,1.13,23.1Z"></path>
      <path d="M547.31,262.73c.13.32,1.52-.09,1.76,1.7,1.02,7.38-3.95,28.14-7.67,34.48-.73,1.25-1.9,2.08-2.91,3.07-2.53-1.88-.71-1.62-.08-3.06,2.65-6.04,5.84-12.87,6.99-19.47s-.11-13.64.6-20.45c1.79-.17.61,2.07,1.3,3.73Z"></path>
      <path d="M685.25,761.17c-3.24,5.12-6.73,19.19-12.43,25.14l-4.81,5.68c.76-1.8,1.14-3.74,1.96-5.53,3-6.59,7.54-13.16,10.91-19.31,2.43-4.42,3.11-10.19,8.12-13.15-.2,1.52-.58,4.03-1.22,5.3-.76,1.5-2.29,1.51-2.52,1.88Z"></path>
      <path d="M562.99,319.99c-2.55-1.38-5.42-1.6-8.02-2.47-7.46-2.47-15.49-4.18-23.82-4.98-2.26-.22-7.94,2.3-7.16-1.55,8.77-1.45,18.75-.06,27.4,2.12,1.19.3,14.24,4.39,11.6,6.87Z"></path>
      <path d="M657.65,935.65c-1.53.42-6.85,5.22-7.29,5.28-1.19.16-8.58.1-9.64-.13-3.52-.77-8.3-6.92-7.71-10.8,2.58,1.43,3.24,6.63,5.77,7.97,3.82,2.02,9.16.95,12.91-.77s7.46-7.25,8.84-11.16c1.31-3.69-.1-8.71,4.45-11.03-1.31,7.3-3.51,14.33-7.34,20.65Z"></path>
      <path d="M536.99,306.99l-8.92-5.56c-2.84-.66-13.38-1.47-12.69,3.06.38,2.49,8.82,10.74,1.63,9.52.55-5.04-5.4-7.36-5.01-13,4.94-1.6,15.87-3.39,20.54-1.59,1.11.43,4.95,7.04,4.47,7.58Z"></path>
      <path d="M707.96,708.97c-.11.09-2.91.43-2.94-.46,1.51-2.42.86-5.55,1.81-8.16.62-1.7,3.86-1.61,1.69-5.38-1.72-3-7.22,4.74-9.52,2.53,1.54-1.39,2.8-3.36,4.72-4.28,2.07-.99,10.48-3.59,10.14.11-2.01,1.85-5.26,15.11-5.9,15.65Z"></path>
      <path d="M651,475.99c-12.53-3.27-5.45,5.94.92,8.64l11.08,12.36c-5.38.85-6.41-5.03-9.33-7.73-.5-.46-4.24-2.65-5.31-3.64-.9-.83-7.33-6.79-7.39-7.3-.69-5.98,7.22-6.75,10.03-2.33Z"></path>
      <path d="M731.99,410c.59,3.06-1,1.5-2.35,2.09-6.22,2.74-12.31,5.26-18.19,7.86-5.15,2.28-10.05,5.38-15.46,7.04,7.97-7.63,19.99-10.98,30.19-15.1,1.15-.47,2.26-2.67,5.8-1.88Z"></path>
      <path d="M622.65,197.36c1.65,1.73,2.71,4.17,2.35,6.63l-8.47-5.54c-6.77-.94-9.84,7.21-14.52,3.04,5.18-3.9,10.86-4.24,16.67-6.24,1.22-.05,3.15,1.25,3.97,2.11Z"></path>
      <path d="M500.02,614c-1.12-.8-4.82-11.03-5.4-13.21-.38-1.45-2.44-12.82-.12-12.77,2.67,6.13,3.45,13.39,5.2,19.79.13.48,4.07,8.84.32,6.19Z"></path>
      <path d="M656,421.02c-1.54,5.94-3.39,1.05-7.17-.35-7.9-2.92-17.72-3.48-25.83-6.16,1.45-2.1,2.02-1.14,3.73-.81,9.84,1.9,19.73,4.25,29.27,7.32Z"></path>
      <path d="M481,288.01l.99,26.99c-4.05-2.95-1.93-10.88-2.18-14.5-.07-.93-3.47-16.18,1.19-12.49Z"></path>
      <path d="M640,410.01c-.46,1.86-1.58,1.84-3.18,1.78-3.99-.16-10.12-2.25-14.15-1.42-2.4.5-3.7,1.9-5.34,2.32s-3.96-1.67-6.32,1.32c-.02-4.43,4.89-3.31,7.27-4.06.84-.26.62-1.66,1.2-1.74,1.47-.2,12.41.09,14,.34,1.74.27,3.9,2.42,6.52,1.47Z"></path>
      <path d="M580.01,512c.38-2.17-3.53-23.11-.51-23.01.44,5.24,3.82,14.74,3.38,19.57-.15,1.65-1.37,2.91-2.87,3.44Z"></path>
      <path d="M547.99,340c-3.26.63-1.39-2.51-2.91-4.58-.98-1.33-3.2-1.65-4.48-2.57-2.01-1.46-4.69-3.92-6.59-5.26-1.04-.73-2.71,2.33-2.01-3.59,5.43,4.54,16.47,7.54,15.98,15.99Z"></path>
      <path d="M494.52,403.26c2.24.18,4.58,4.01,2.01,6.77-5.83,6.24-8.47-7.29-2.01-6.77Z"></path>
      <path d="M578.13,215.14c1.15-.72,4.21-.27,4.79,1.49,1.35,5.19-5.35,9.4-6.47,3.44-.16-.84,1.42-4.78,1.67-4.94Z"></path>
      <path d="M599.99,226c.02,5.93,7.54,15.85-1.98,17-.6-2.34,2.47-2.91,2.8-4.63.11-.57-2.21-8.91-2.48-11.39-.2-1.82.32-1.06,1.66-.98Z"></path>
      <path d="M745,559.99c-6.35.02-12.23,1.8-18.35,3.19-1.68.38-2.02,1.65-3.65-.69,6.17-2.45,12.56-3.82,19.25-3.85,1.3,0,2.2-.9,2.75,1.34Z"></path>
      <path d="M548,347.99l-2.98,1.01c.29-4.03-2.28-4.57-3.83-6.64-9.98-13.36,8.63,3.53,6.81,5.64Z"></path>
      <path d="M540.01,355.99c-.61-1.91,2.08-2.61,1.84-4.31-.52-3.64-7.77-5.51-7.84-9.68.7-.78,16.66,12.13,6,13.99Z"></path>
      <path d="M386,615.01c-6.07,1.29-1.46-6.42-.57-9.93.27-1.07-.68-2.84-.43-3.07,4.32-4.07.46,12.07.99,13Z"></path>
      <path d="M617.76,219.73c-4.33,4.25-7.63-3.88-1.24-5.67,1.71,1.17,2.98,3.97,1.24,5.67Z"></path>
      <path d="M756.99,563l4.01,13c-2.83.51-1.64-.67-2.25-2.19-1.01-2.56-3.01-7.1-3.65-9.42-.52-1.88.47-1.46,1.89-1.39Z"></path>
      <path d="M812.99,485c.37,4.5-7.28,3.74-8.99,1.98-3.26-3.35,8.49-.81,8.99-1.98Z"></path>
      <path d="M781.76,571.23c1.61,1.49.94,4.26-1.24,3.77-.43-.1-5.53-5.04-6.51-5.99,1.89.11,6.53,1.09,7.75,2.22Z"></path>
    </g>
  </g>
</svg>