<?xml version="1.0"?>
<svg xmlns="http://www.w3.org/2000/svg" version="1.1" viewBox="0 0 1080 1080">
  
  <defs></defs>
  <g id="can_color">
    <path fill="#73A942" d="M279.44,751.38c.52-2.2-.84-4.51-2.74-5.73s-4.22-1.58-6.47-1.76c-2.42-.19-4.84-.22-7.26-.1-2.33.12-4.71.41-6.79,1.47s-3.81,3.05-4,5.38c-.09,1.09.14,2.27-.37,3.24-.61,1.16-2.03,1.56-3.12,2.29-2.49,1.65-3.22,4.93-3.51,7.9-.4,4.09-.34,8.2-.28,12.31.19,13.54.39,27.13,2.49,40.5.08.51.18,1.05.5,1.45.53.64,1.46.73,2.29.77,2.21.1,4.42.2,6.63.29.74.03,1.54.08,2.13.54.76.58.95,1.62,1.49,2.4,1.15,1.68,3.53,1.84,5.57,1.79,2.56-.06,5.11-.17,7.66-.32,2.39-.15,4.81-.35,7.09-1.07.89-.28,1.79-.67,2.42-1.37.47-.52.75-1.17,1.02-1.82,3.07-7.5,4.45-15.7,4-23.79-.26-4.69-1.12-9.32-1.98-13.94-.77-4.13-1.53-8.25-2.3-12.38-.63-3.4-1.26-6.8-1.9-10.2-.58-3.1-1.19-6.28-2.89-8.93"></path>
  </g>
  <g id="Layer_1">
    <g>
      <path d="M655,742c.23-2.21-3.31-14.04,2.05-9.33,2.27,2,1.74,7,2.01,7.27.32.32,2.31-.14,3.26.23,2.1.8.76,3.6,3.68,2.82l-1-2.98c2.93.7,14.42-4.16,15.57-6,1.48-2.36-5.15-6.08-2.57-9.01,2.43-2.75,6.52,6.24,6.93,6.53,2.75,1.94,13.88-2.23,12.89-5.77-.28-1-4.07-6-.3-6.75,4.27-.85,4.4,5.82,5.4,6.59,2.38,1.84,12.44-3.73,13.57-5.59,1.77-2.92-1.38-9.13-.49-9.99,2.74-2.66,5.41,6.23,6.56,6.93,3.44,2.11,14.27-3.2,13.45-8.36-.17-1.06-4.64-8.35,1.38-6.48,2.8.87,2.58,6.88,4.03,7.96,1.29.96,6.98,1,8.57-.06-.32,6.01-8.55,1.54-11.28,2.17-1.93.45-4.08,3.91-5.54,4.72-4.81,2.66-12.13,1.95-14.37,3.13-1.35.71-6.33,6.04-8.61,6.87-3.05,1.12-6.89.51-9.48,1.32-2.16.68-7.89,5.13-10.45,5.64-5.69,1.13-2.14-1.47-8.77,2.18-4.46,2.46-9.42,5.16-14.49,5.46,1.3,2.07,2.6,1.13,4.19,1.22,16.01.83,31.09-.32,47.55,1.01,5.43.44,22.67.73,26.49,3.3,2.9,1.95,2.16,17.14,3,21.26,1.05,5.2,8.05,7.39-.73,11.72l-1.01-3.01c-2.12.94-4.5.74-6.67,1.33-24.71,6.64-47.72,15.11-72.06,23.94-7.7,2.8-14.55,4.68-22.73,7.27-19.96,6.33-23.04,13.53-46.4,14.78-1.55.08-3.04,1.77-6.07,1.73-12.09-.16-28.35-10.48-36.23-19.36-2.9-3.27-5.5-8.6-7.86-11.64-2.77-3.57-6.63-6.98-9.2-11-8.09-1.57-9.13,3.21-14.73,5.99-5.98,2.96-10.97,1.47-15.72,4.02-1.23.66-4.56,4.52-6.21,5.12-4.95,1.79-8.74-1.52-13.6-.18v-8.99c6.4-.91,3.46,5.29,4.95,6.48,3.61,2.86,8.76.27,11.98-2.05,5.75-4.14,2.45-3.63,2.06-9.43h5.01c-3.22,9.46,13.81,2.89,15.91-.11,1.05-1.51-3.92-5.51-2.91-7.89,6.07-.53,5,2.25,7,4.45,2.75,3.02,6.2.2,4.99-1.44-.16-.22-2.75-.87-4.44-3.08-1.85-2.42-2.72-6.16-4.28-8.68-5.96-9.64-12.3-16.6-17.28-27.58-.52-1.15-2.87.42-1.01-4.69l-1.94.99c-.67-6.35-4.16-4.14-8.07-5.46-11.53-3.92-23.34-12.66-34.16-14.93-3.34-.7-5.83,1-8.81-1.59-.55.72,1.37,8.13,1.83,9.63s2.02,1.29,2.16,2.06c3.36,18.41,2.18,34.81-.09,53.7-.39,3.25-3.47,7.76-.38,10.61,12.77-4.99,25.12-11.21,37.94-16.05,7.12-2.69,16.19-6.69,23.53-6.47-6.81,3.48-14.19,5.97-21.32,8.68-1.5.57-3.19.36-4.88,1.03-12.21,4.77-23.81,11.87-36.84,14.25l-13.98,58.51c-2.92-.61-6.18.73-8.7.75-4.72.04-13.81-1.55-18.53-2.92-1.92-.56-2.38-3.22-4.73-2.79-.18,5.73.87,11.51-.28,17.22s-7.92,12.69-12.78,16.21c-7.13,5.16-17.07,8.16-24.71,11.48s-16.47,7.29-24.56,11.25c-5.77,2.82-7.22,9.46-.44,8.63,4.99-.61,4.3-5.12,9.27-6.78,4.45,4.36-4.53,2.4.5,6.96l-3,1.53,2.5,3.47c.37-2.02,6.39-5.89,7.49-4.98,1.45,1.2-3.97,3.67-4.58,5.93-.38,1.41-.37,2.49,1.1,3.05,3.23,1.24,3.11-4.36,6.97-5.02,1.81-.31,2.2,1.19,1.51,2.01-.46.54-3.76.28-2.99,3.01,3.84,1.13,3.2-3.1,6.03-4.46,2.24-1.08,5.64-.48,7.95-2.53.31,5.55-8.55,2.21-5.53,7.03,2.15,3.42,9.86.23,13.06-1,7.41-2.84,18.72-10.5,26.14-11.71,8.05-1.31,19.01.68,27.57-2.58,16.25-6.18,4.03-22.16,1.26-32.74-1.23-4.68-1.72-9.24-1.99-14.01,4.51.66,2.83,4.89,3.66,7.38.45,1.36,2.37,1.17,2.82,2.39,1.77,4.83,2.06,8.08,4.35,13.52,1.2,2.83,2.06,12.03,1.44,15.01-.2.97-3.28,7.44-3.86,8.13-1.62,1.97-2.91,1.13-4.56,1.97-11.02,5.57-24.94,1.92-36.55,5.9-1.75.6-3.23,2.15-5.11,2.92-3.82,1.57-5.55,2.23-8.51,3.69-4.73,2.33-14.56,6.95-19.38,5-1.05-.43-.95-2.17-3.72-2.44-3.9-.38-8.74,1.87-12.87-.17-2.21-1.09-2.03-3.47-3.83-5.17-4.68-4.41-12.64,1.05-14.76-7.33-.31-1.22.11-7.5.37-7.79.42-.45,2.83.86,3.58.74.93-.15,1.02-2.1,2.18-2.72,2.65-1.42,9.08-2.53,12.18-4.53,2.12-1.36.8-4.52,6.05-2.48-.79-4.6,1.53-2.31,4.21-3.27,15.24-5.43,20.82-7.56,32.25-17.78,2.19-1.96,1.48-.29,4.17-3.82.66-.86,2.18-1.01,2.39-1.83,1.15-4.57,0-11.89.93-16.73-6.84-19.95-2.31-42.34-3.97-63-2.19-27.21-11-55.51-11.58-83.24-.4-19.13,2.81-32.38,21.51-40.91,1.5-.68,2.88-.53,2.08,1.08-.88,1.77-11.27,7.08-13.66,9.85-13.32,15.51-3.72,56.48-1.07,75.89,3.82,28.09,7.02,55.66,7.59,84.21.05,2.38-1.45,6.86-.76,8.91.89,2.66,26.55,9.59,31.03,6.06,2.5-13.06,7.37-25.67,10.27-38.62,7.08-31.66,13.68-69.2-2.55-99.13-1.65-3.04-6.82-5.13-2.32-9.65,2.1-1.04,5.99,8.64,7.49,9.49,1.64.93,3.8.13,5.27.73,2.15.88,5.5,4.13,7.74,5.08,3.35,1.43,8.36,1.99,11.68,3.5,3.74,1.7,7.26,5.08,11.32,6.68,22.03,8.66,53.67,10.34,77.47,8.51,15.5-1.2,39.98-16.12,44.04-31.96,1.05-4.1.9-17.13.24-21.53-.44-2.95-2.88-13.56-4.05-17.72s-4.18-8.24-5.45-11.55c-2.94-7.66-5.44-17.71-9.23-24.59-.61-1.11-2.37-.34-2.83-.79s-2.14-10.01-4.23-11.85c-5.1,2.64-11.01,6.08-16.25,8.23-1.9.78-3.6.37-5,.82-.89.29-.73,1.97-1.3,1.98-6.33.11-4.84.95-11.21,2.69-16.68,4.56-35.93,5.87-50.33-5.11l-11.88-6.6c.7,10.14,1.17,20.01-1.01,29.99,18.03-.11,35.43,3.94,53.03,7.56,10.68,2.2,19.66,2.97,30.15,7.79,1.57.72,4.45,1.28,3.82,3.65-6.71.18-12.49-4.01-18.77-5.82-5.49-1.59-13.34-2.99-18.83-4.08-32.39-6.43-66.25-9.14-98.66-1.86-4.94,1.11-10.36,4.34-15.73,4.76.4-1.61,2.3-2.2,3.63-2.86,7.59-3.76,15.91-5.12,23.91-6.57,11.26-2.04,22.98-3.37,34.45-2.56-.46-4.74,2.28-9.4,2.48-13.94.13-3.06-.72-11.24-.93-15.11-.91-16.6.93-31.82,2.12-48.6.17-2.35-1.03-8.89-.73-10.73.1-.59,5.27-1.22.06-3.11,2.88-1.67.98-3.67,1.28-5.73.97-6.67,2.11-12.37,3.52-18.55.28-1.24-.84-2.82-.67-3.12.21-.36,2.83-.78,2.86-1.61,0-.25-1.59-1.1-1.61-1.97-.02-.63,1.31-1.9,1.53-3.12,1-5.73,2.65-8.31,3.36-12.61,1.02-6.16,3.51-12,3.65-18.38.01-.48-1.89-.34-1.95-.98-.84-9.78,11.9-23.94,18.4-30.15.52-.49,2.1.1,2.67-.95,1.55-2.82,3.13-20.84,3.46-25.29,1.32-17.59.07-37.2.48-55.61.19-8.48,2.05-17.22,1.03-25.43,2.8-.42,1.86.48,2,2.47.94,13.61-.03,35.58-.31,49.15-.35,17.6-1.32,34.9-2.68,52.37l4.36-4.98c1.17-2.74,3.97-18.3,4.64-19.02.6-.64,2.14-.59,1.92,1.41-.33,2.99-4.09,15.25-3.93,16.07.66,3.39,5.26-.54,6.53-1.49,6.15-4.63,13.08-11.82,19.49-16.45,4.26-3.07,9.88-3,11.53-9.5,1.26-4.96-1.78-2.92-2.31-3.38-3.39-2.93-7.91-8.21-10.31-12.05-5.43-8.7-7.23-18.66-3.87-29.05.76-2.34,2.24-6.16,4.94-4.06-8.87,10.67-3,30.89,6.32,39.19,10.34,9.21,18.38-1.49,28.68-3.68l-8.27,7.69c-2.12.29-11.69,2.33-12.52,3.51-.53.75-.25,3.09-.96,4.51-3.5,6.9-7.19,12.38.26,19.33.24.22,4.89,3.59,5.19,3.73,10.27,4.93,20.3.97,26.85-7.73,4.41-5.86,1.74-7.83,1.36-14.54-.13-2.24.93-3.81.99-5.07.02-.47-1.72-.33-1.91-1.07-.52-2.03,3.18-14.27,5.53-16.36,1.79,4.01-1.27,7.41-1.58,11.45-.22,2.87.48,15.27,1,17.99.2,1.05,2.31.15,2.89.74.53.54-.05,2.34.27,2.67.46.46,3.63-.05,5.19.36,1.43.37,1.98,2.35,3.72,1.78l2-3.99c-.2,3.83-.63,7.59-1.11,11.41-.26,2.11-.27,4.95-.38,5.63-.32,1.94-2.62,13.35-2.99,13.95-.3.48-1.28,1.31-1.51,1l2.99-23.99-6.94,3.55c-11.32,12.43-25.26,34.97-21.62,52.5,1.27,6.11,11.93,21.7,17.62,23.45,2.05.63,4.32-1.89,3.93.98l-6.62,7.88c-1.64,5.18-7.34,9.62-9.76,13.7-13.78,23.19-10.59,45.12-9.4,71.24,8.2,14.57,17.63,32.29,22.29,48.68,2.36,8.29,1.42,10.37,5.26,18.74,1.95,4.24,2.13,14.23,1.23,18.75-.44,2.22-2.56,2.96-2.77,4.15-.18,1.02,1.05,2.44.65,3.18-.12.23-1.93.72-2.73,1.8-4.49,6.07-6.98,11.15-13.22,15.82-2.85,2.13-10.04,2.38-9.89,7.92,2.77,9.82,5.12,21.3,12.59,28.52,9.62-5.92,19.7-12.55,31.37-12.88l-.99-3.99c2.18,1.23,3.96,1.1,6.35.9,5.49-.47,9.93-2.92,14.64-3.9-.12,1.13-3.92,1.35-1.99,3,.35.3,8.97-1.93,8.97-2.5.02-2.33-5.99-.71-6.98-.5ZM569,430.01c-.56-.47-6.94,2.97-7.89,3.64-6.18,4.31-12.68,12.56-19.41,17.04-11.46,7.64-19.97,8.43-29.11,21.4-9.61,13.63-3.51,17.41-5.97,30.25-.49,2.58-3.81,8.85-3.39,11.2s11.75.67,14.1.86c28.04,2.27,49.38,6.37,67.68,29.1,1.01,1.26,5.78,9.48,6.5,9.48,5.53-10.55,12.38-20.01,19.56-29.48,0-1.51-5.04-4.04-7.1-5.98-22.49-21.25-10.39-48.63,5.64-69.44l8.39-8.06c-1.79-.86-6.3-2.58-8.02-1.44-.91.6-1.18,2.21-2,2.94-4.86,4.26-7.93,7.89-14.7,9.25-10.81,2.17-11.34.1-18.76-5.8-4.99-3.97-1.74-1.89-4.41-5.57-.68-.94-2.62-1.12-2.91-1.54-.23-.33.95-6.91,1.82-7.84ZM556.6,523.42c-5.85-2.89-31.91-6.38-39.65-6.95-2.41-.18-11.79-.42-13.51-.12-.24.04-3.35,3.17-3.46,3.39-.38.72-3.73,14.52-3.91,15.82-2.59,17.96-5.36,54-4.1,71.91.6,8.59,5.88,8.58,12.74,12.33,17.7,9.68,24.35,10.63,44.69,6.11,7.03-1.56,34.23-9.97,37.7-15.38,2.69-4.2-.96-15.48-1.15-21-.35-9.8,2.44-18.48,2.76-26.8.57-15.12-12.16-25.44-23.16-32.74-2.62-1.74-6.3-5.27-8.93-6.57ZM590.25,743.73c-.61-1.33.26-9.05-2.26-11.73-2.98-.07-6.64,4.37-7.58,4.75-1.67.68-31.63,1.72-35.89,1.7s-31.21-4.59-32.51-3.45c3.13,10.95,11.26,18.98,17.38,28.11s11.91,18.26,18.79,27.21c15.09,19.62,26.95,35.7,55.03,31.48,13.65-2.05,22.36-8.36,34.26-12.83,29.45-11.06,60.52-22.19,90.51-30.48,2.66-.74,17.5-4.5,17.88-6.07-3.06-6.06-1.37-15.23-3.07-20.72-1.35-4.35-5.42-2.49-7.96-2.94-14.83-2.61-31.69-3.27-45.8-3.36-24.7-.17-57.74,2.72-78.39,15.72-3.93,2.47-3.08,5.48-9.27,2.95-3.64-1.49-3.41-4.3-4.48-6.22-2.53-4.57-4.65-9.73-6.65-14.12Z"></path>
      <path d="M617.01,123c7.5-6.73,9.66,5.58,12.52,8.97.98,1.16,3.21,1.22,4.53,2.47,15.81,14.98,5.13,34.63,7.05,52.96.84,7.99,4.49,17.11,6.06,25.02,7.18,36.22,13.22,72.98,20.76,109.15,15.56,1.29,21.89,12.76,24.03,27,1.53,10.18-1.44,20.51,1.31,30.66,1.95,7.22,7.93,11.82,8.78,20.22.78,7.62-.86,17.22-.78,25.07.15,14.7,1.96,32.57.73,47-.26,2.98-.49,5.3-3.99,4.49.09-8.16-1.56-16.21-4.81-23.7-3.08-7.08-9.8-10.45-11-17.09-1.88-10.35-3.23-25.12-4.57-36.11-.82-6.67-.34-24.53-3.16-29.06-.67-1.07-2.22-2.56-3.44-3.04-.88.71-.13,13.86-.23,16.28-.96,22.51-1.6,48.87-7.52,70.49-6.8,24.87-12.44,37.87-33.25,55.75-1.81,1.56-4.32,3.51-6.5,4.5-2.24-1.63.3-1.8.63-2.18,5.83-6.92,14.66-12.38,20.15-20.11,20.42-28.73,22.06-68.42,23.08-103.07.42-14.37-.22-29.28-.31-44.18-.02-2.71.97-6.8.93-8.88,0-.39-2.19-.62-2.54-3.51-2.13-17.39-4.61-34.94-7.72-52.32-5.16-28.76-11.93-55.44-18.05-83.77-3.7-17.16,4.64-39.51-2.47-53.7-.7-1.4-2.81-4.41-4.19-5.29.19,5.58,3.25,9.95,3.86,15.62.12,1.1.99,4.52-.86,4.36l-10.22-28.32c-2.16-1.28-5.84-8.29-5.84-2.14,0,5.63,7.06,16.99,6.84,23.2-.06,1.75-1.12,2.52-2.79,2.26-.19-2.95-.93-6.87-1.7-9.72-1.62-5.96-4.06-12.9-6.73-18.39-1.12-2.3-3.18-4.61-5.58-2.9,1.59-6.37,6.71-3.15,7.01,2.01ZM688.32,345.75c-.79-1.81-.14-4.38-.79-6.78-2.01-7.39-12.2-14.54-19.53-15.96-1.14,5.22,1.71,10.89,2.01,15.49s-.97,23.08.49,25.5c.61,1.01,4.84,3.29,6.48,5.52,4.33,5.87,1.91,16.56,2.53,24.02.99,11.86,4.23,24.01,5.51,36.02.19,1.81-.98,3.48-.59,5.47.84,4.24,8.29,9.37,10.45,13.8,1.56,3.2,1.91,7.05,3.61,10.17,1.86-1.19.88-2.05.69-3.58-1.63-12.97.14-26.08.7-38.99.02-.53-1.97.04-1.97-1.85,0-3.77,2.47-9.01,2.18-13.09-.03-.45-1.13-6.91-1.29-7.25-.79-1.75-5.55-7.77-6.75-10.06-.75-1.43-.1-3.67-.34-3.98-.39-.51-2.22-.55-2.65-1.82-.58-1.75.91-3.57.84-4.98-.42-8.24.94-21.83-1.59-27.65Z"></path>
      <path d="M888.99,793.01l-10.89,3.6c-2.16.67-13.99,9.02-14.08,9.88-.05.51,2.4,3.09,1.97,3.51-6.94,2.22-4.36-.6-6.29-2.69-5.66-6.15-24.25,3.7-22.51,10.91.75,3.14,5.49,5.67-.43,7.17-1.62.41-4.92-.37-5.63-1.56-1.13-1.92,3.95-7.76-.6-8.41-6.09-.87-15.36,4.46-17.35,10.31-1.31,3.87,1.83,3.21,1.87,3.85.21,3.68-4.98,4.54-6.05,3.41-.26-.28.77-4.78-3.5-6.06-1.38-.42-8.68-1.19-9.84-.94-.74.16-.72,1.66-.89,1.7-.85.24-1.93-.73-3.46.04-4.65,2.36-10.2,7.63-12.76,11.91-.31.52-2.18.16-1.55,1.84.33.86,6.1,4.63,2.47,5.53-3.97.98-4.74-2.64-6.98-4-3.96-2.41-4.81-.67-8.13-.29-1.2.13-2.55-.84-3.68-.71-.7.08-9.97,8.01-10.92,9.05-1.07,1.17-1.76,4.63-3.28,4.95-2.34.5-2-3.05-3.17-4.06-6.33-5.48-26.11,3.73-27.18,10.76-.29,1.9,8.79,7.54,3.22,9.22-7.2,2.18-6.1-7.8-10.84-7.99-5.95-.24-15.54,4.98-17.31,10.81-1.05,3.45,1.46,1.23,1.79,3.26-5.22,2.69-5.45-1.87-8.36-3.1-2.57-1.08-7.28-1.54-10.11-.96-1.45.3-12.02,5.62-12.43,6.18-.13.17.89,1.35.67,1.69-.19.29-1.62.29-2.1,1.46-1.02,2.46,1.9,6.62-1.25,7.66-5.3,1.74-3.48-3.15-3.94-3.95-1.25-2.21-7.67-2.26-10.03-2.03-3.08.31-14.33,4.46-16.82,6.18-5.2,3.59-2.91,13.37-9.6,12.89,4.82-9.56-9.47-9.71-15.28-7.94-.32.1-4.81,2.09-5.66,2.5-1.14.54-8.59,5.2-8.86,5.65-.87,1.49,2.09,9.63-1.75,10.83-4.98,1.56-2.07-6.39-2.47-6.99-1.27-1.91-10.06-.8-12.53-.09-1.17.33-10.52,5.47-10.88,5.97-.29.42.15,1.62-.21,2.09-2.36,3.03-4.73,2.46-3.37,8.98-2.21.27-2.93-1.93-4.76-2.8-2.93-1.4-14.83,1.16-17.85,2.72-.9.47-5.78,3.2-6.08,3.41-.34.23-5.68,5.32-5.87,5.68-1.12,2.11,3.83,11.3-6.43,11-1.65-5.25,5.53-10.11-2.5-10.07-5.37.02-14.44,5.3-15.12,10.72-.19,1.51,1.38,5.63-1.9,6.35-2.97.65-2.19-4.55-2.56-4.91-.85-.85-10.35-.89-12.42-.16-2.88,1.01-9.41,6.09-9.99,8.95s2.35,5.18-3.02,7.11c-2.46-1.27-.67-5.07-2.07-6.09-3.14-2.29-15.74.41-18.46,3.58-1.51,1.76-1.81,5.08-2.15,5.36-1,.83-6.81-.49-4.33,4.17l3.5-2.99c-1.15,8.53-9.22,4.71-4.89-1.43,1.48-2.1,4.26-.62,1.89-4.56,4.21.88,5.29-2.59,8.3-4.21,1-.54,11.07-2.83,12.21-2.88,2.28-.09,5.05,1.5,6.8,1.15.5-.1,4.77-6.2,6.64-7.61,7.89-5.94,15.81-.6,20.34-3.44.34-.21,3.15-5.06,4.8-6.4,2.58-2.1,8.1-5.07,11.4-5.1,2.46-.03,5.28,1.55,7.6,1.06,1.78-.38,4.08-4.32,5.7-5.54,6.83-5.11,13.25-7.98,21.83-8.73,1.77-.15,3.69,1.22,5.71.57,1.42-.46,5.4-7.21,6.98-8.57,3.24-2.8,13.07-7.14,17.3-7.24,2.51-.06,5.61,2.1,6.8,1.81s1.93-2.84,3.11-3.88c5.91-5.21,18.08-9.98,26-9.06,2.68.31,5.59,2.74,7.83,1.96,1.15-.4,3.94-4.9,5.4-5.89,4.23-2.88,12.6-5.74,17.73-6.05,2.77-.16,11.36,1.16,11.93.98.42-.13,3.52-5.6,5.36-6.95,3.91-2.87,9.9-4.8,14.76-5.06,3.23-.17,9.43,1.62,11.78,1.13,1-.21,7.48-11.09,16.16-11.56,2.12-.11,6.12,1.5,7.59.95,1.55-.58,3.33-4.56,4.9-5.99,6.14-5.56,12.85-9.59,21.45-8.37,3,.43,6.01,3.12,7.99,2.97.57-.04,6.49-6.88,8.1-8.06,8.53-6.24,18.66-1.37,19.46-2.01.2-.16.32-2.34,1.02-3.28,2.66-3.6,12.92-11.77,17.11-13.14,5.09-1.66,16.94,1.74,17.72,1.29,1.73-1.02,4.85-8.59,11.18-11.37,6.52-2.87,9.79.79,12.36.35,2.17-.38,8.52-11.96,19.15-11.92,4.68.02,6.85,3.7,11.04.08,3.51-3.04,9.83-7.86,14.56-9.43,2.02-.67,4.09.41,4.41.3.56-.18.49-3.16,5.48-.86Z"></path>
      <path d="M944,789c.19.19-.12,2.18,0,2.99-2.31.27-7.79.96-9.76,1.7-11.14,4.17-25.35,13.71-37.01,18.04-5.83,2.16-14.55,3.52-19.56,5.44-1.74.67-1.84,2.91-2.63,3.36-.89.51-2.36-.67-3.38-.56-.88.09-12.86,6.66-15.44,7.76-28.08,11.95-56.5,23.29-84.98,34.98-22.13,9.08-46.21,17.39-69.52,26.35-35.48,13.63-74.04,27.58-111.49,41.7-33.51,12.64-73.34,24.06-106.78,38.21-9.16,3.87-17.53,10.3-27.47,12.02.05-1.34,2.67-2.18,3.78-2.7,34.36-16.14,69.13-28.03,104.7-41.3,77.06-28.76,155.2-56.25,231.41-88.59,39.73-16.86,80.14-33.46,120.43-49.58,4.19-1.68,18.77-5.66,20.99-6.97,1.33-.79,1.5-2.64,2.4-2.87.73-.18,4.14-.14,4.29.02Z"></path>
      <path d="M615.65,205.3c1.2,2.26.9,4.9,1.22,7.34,2.55,19.53,10.35,38.28,13.02,58.97,1.7,13.19,1.45,28.37,2.54,41.7.69,8.48,3.14,18.79,3.06,27.21,0,.86-.15,2.78-1.48,2.48-.83-6.99-11.04-8.07-15.52-12.98-4.36,5.52-11.02,9.71-11.17,17.65-.12,5.95,6.99,9.22,9.71,12.8,3.51,4.63,4.28,14.24,2.69,19.75-.43,1.5-2.56,3.36-2.49,4.29.06.73,3.67,3.38,3.63,6.99,0,.99-1.58,5.92-2.08,6.29-2,1.48-13.48,3.39-12.78-2.79,2.12-.45,3.58,2.14,5.46,2.05.25-.01.08-1.15,3.94-2.11,7.6-1.89-1.14-9.78-1.19-10.43s2.23-3.41,2.73-5.06c1.48-4.89,1.12-13.46-1.92-17.71-1.17-1.64-5.77-3.71-6.73-5.03-.75-1.03-.57-2.74-1.31-3.99-.34-.58-1.51-.65-1.94-1.51-1.74-3.45,1.89-6.33.94-10.2l-7.01,4.29c-6.24,1.6-13.69,4.44-19.52-.26-.72-.58-2.66-3.83-2.46-4.03,1.61-1.58,2.38,2.17,3.67,2.79,9.64,4.6,20.21-2.45,27.69-7.98.2-1.22,6.88-5.55,5.64-6.8s-11.53-2.49-13.38-1.98c-1.03.29-.24,2.29-1.11,1.96-3.61-4.46-1.94.38-4.1.96-1.3.35-2.81-.99-3.83-.98-.37,0-5.11,2.2-6.31,2.78-3.28,1.58-6.9,4.12-8.78,7.23-4.27.03,1.66-5.76,2.57-6.41,7.33-5.18,23.35-8.69,32.18-7.32,3.86.6,7.24,3.48,10.38,3.73,1.92.15,4.24-1.17,4.37-.98.3.45-.46,2.59.22,3.79.2.35,5.59,4.19,6.78,4.2.93-1.09-2.69-21.32-2.98-24.51-2.39-26.14-2.78-48.68-9.49-74.51-1.67-6.45-5.28-13.85-6.96-20.52s.16-8.85-3.7-15.8c-.68-1.22-5.93-9.35-6.46-9.57-3.22-1.36-3.38,3.76-4.81,5.52-6.52,8.01-6.22,7.71-9.15,18.07-4.83,17.03-10.81,35.72-12.84,54.21s-1.24,35.76-3,53.48c-.14,1.37-.64,4.66-.93,6.01s-1.75,3.01-1.69.12c1.59-20.13,1.31-40.92,3.41-60.82,1.97-18.62,7.85-33.4,12.81-50.99,1.26-4.47,2.04-13.07,3.47-16.45.5-1.18,6.18-5.32,7.35-7,5.39-7.74,1.45-7.95.53-14.31-1.08-7.53-.18-16.67-2.01-23.96-.44-1.74-.41-4.36-2.52-4.96-.03,4.32-6.89,9.64-7.79,12.71-1.39,4.74,1.41,9.82.73,14.72-.17,1.24-3.69,12.83-5.95,10.56.99-2.54,3.19-7.27,3.59-9.7.86-5.16-2.15-10.94-.97-15.09,1.28-4.5,7.96-10.52,9.8-14.27.98-2,0-5.16,2.57-5.93-.01,4.96,3.35,11.14,3.95,15.56.99,7.21-.53,15.16,1.34,22.67,2.24,9.02,10.31,16.43,14.37,24.07Z"></path>
      <path d="M809.76,724.78c-.1.29-4.72,3.29-4.75,3.71,2.57,2.59,9.55,7.5,13.03,5.04,1.53-1.08.4-5.3,6.58-5.52,3.66-.13,4.84,5.48,4.38,5.97-.3.32-7.06,1.13-7.04,4.48.02,4.74,10.38,10.81,14.45,7.64.33-.26,1.9-5.94,4.08-7.11,7.69,2.94.56,8.09.48,8.66-.58,4.27,6.14,8.61,10.01,6.83,2.29-1.05,3.3-4.57,4.21-5.28s9.63,1.51,6.71,5.7c-1.78,2.55-13.18-.93-2.24,9.94l7.34,4.15c-1.29-.6-6.25.1-6.74-.2-.85-.52-5.15-6-6.23-7.32-1.94-2.37-1.12-5.46-6.56-5.03-3.94.31-3.75,4.06-5.52,5.99-1.42,1.56-8.99,4.77-11.4,5.6-17.77,6.17-33.86,6.08-51.92,7.09-3.67.21-15.62,3.43-17.14-.13-.32-3.36,2.89-.89,4.06-1.1,1.49-.27,2.46-1.59,3.2-1.67,18.92-2.19,37.79-1.65,56.92-7.04,1.84-.52,7.04-1.49,7.38-1.69.91-.54,1.05-2.9,2.63-3.37,2.53-.76,4.49,2.94,4.91-5.17-1.92-2.44-14.78-1.56-18.34-1.62-3.8-.07-7.4-.02-11.73-.28-11.04-.66-14.21,2.6-22.54-6.53-5.12-5.62-7.96-13.22-16.97-14.14-5.71-.58-7.81,4.52-11.08,7.04-1.39,1.07-9.87,6.65-10.92,5.57-2.31-2.37,7.51-6.74,9.33-8.16,2.76-2.15,4.38-6.07,8.65-7.36,3.17-.96,11.22.79,13.74,2.81,4.19,3.37,7.81,11.27,11.59,14.39,6.77,5.61,28.69,2.74,37.68,2.31l-6.92-4.56c-2.21-4.41-4.17-7.6-9.24-8.78-1.85-.43-7.15-1.39-8.63-2.91-.41-.42-.01-1.91-.43-2.43-.87-1.07-5.78-2.25-6.76-4.81,4.67-.04,2.28-3.11,3.91-5.83,2.25-3.74,9.39.54,7.85,5.12Z"></path>
      <path d="M402,808.01c-.88,4.32-4.95,3.7-8.27,5.21-28.6,13.05-61.53,22.53-92.56,35.48-18.59,7.76-36.1,14.17-55.35,21.61-6,2.32-11.76,5.48-17.82,7.67,1.15-1.06,3.1-3.61,4.26-4.27,12.29-6.94,33.69-12.44,47.71-18.25,16.07-6.66,31.69-14.78,48.05-20.95,14.42-5.44,29.84-10.16,43.78-15.41,4.06-1.53,28.91-12.07,30.2-11.09Z"></path>
      <path d="M306.17,923.87c.89.51,4.57-1.04,7.07-.69,3.39.48,11.18,4.95,13.22,7.86,1.16,1.65,1.39,4.6,2.54,5.52.39.31,4.47.1,6.21.67,7.87,2.57,7.03,6.21,11.54,9.8s15.01,7.03,19.73,11.99c.92,1.19,6.47,8.93,5.5,9.99-1.29,1.41-7.12-7.74-7.51-8.98-4.72-1.69-8.91-4.9-12.08-8.91-3.7-.96-6.06,10.05-10.95,6.01s2.91-6.86,2.42-10.38c-.44-3.17-9.73-9.13-12.84-7.24-2.59,1.57-1.76,7.36-9.02,5.5-.5-3.91,4.15-4.17,4.54-7.46.29-2.43-3.49-8.1-5.56-9.03-1.47-.66-3.33-.17-4.22-.58-1.91-.89-2.22-3.61-7-2.71-5.08.95-4.39,8.42-7.25,7.79-4.26-.94,2.02-8.71,1.45-10.4-.35-1.06-3.62-1.53-3.24-4.32-3.47-.82-11.75-8.9-14.51-5.05-2.11,2.95,2.58,6.66-5.2,6.78-2.46-6.26,1.2-6.62,4.43-10.87,4.52.83,9.8,2.57,13.49,5.43,2.71,2.1,6.72,9.01,7.23,9.3Z"></path>
      <path d="M808.55,699.47c18.2,12.59,32.67,24.09,52.13,35.36,21.01,12.16,42.78,26.45,63.56,40.48,4.36,2.95,10.52,4.9,12.76,9.68-1.27,1.02-16.52-8.98-18.64-10.36-13.18-8.62-26.2-18.88-39.43-27.02-1.38-.85-3.21-.55-4.54-1.53-9.18-6.77-22.69-12.08-33.36-19.66-7.31-5.2-17.23-12.19-25.54-18.41-7.2-5.39-14.22-11.19-21.52-16.49-2.04-2.05-.62-1.92,1.02-1.02,4.32,2.38,9.41,6.1,13.55,8.97Z"></path>
      <path d="M768.99,680c1.49,1.96-1.23,2-2.02,2.43-6.27,3.37-11.46,3.9-17.77,6.27-18.91,7.12-37.69,15.34-56.21,22.78-6.67,2.68-13.43,4.56-19.51,8.53-1.83-5.13-2.38-.26-3.18-.03-7.8,2.24-16.58,5.21-24.57,8.26-9.24,3.52-18.14,8.16-27.73,10.76,5.86-4.73,14.39-8.12,21.49-11,13.54-5.51,28.23-9.07,41.72-14.28,25.82-9.97,51.98-22.58,77.57-31.62,1.04-.37,9.9-2.5,10.21-2.09Z"></path>
      <path d="M268.99,744.01c-1.99,3.89-9.14-.11-10.99,3.98l18,1-4.99-4.99c14.82,2.8,7.04,11.72-5,9.01.27,2.42,5.02.6,3.99,3.97-3.33,1.96-12.67,2.09-15.07-.46-.64-.68-.82-2.33-1.02-2.48s-4.46,1.42-4.64,2.39c-.11.61.91,2.63.84,4.05-.65,13.28,1.47,22.8,1.69,35.02.07,3.77-1.18,8.57-.37,12.61l-2.41,1.9c.19-13.14-1.97-26.4-2.05-39.45-.02-2.83-.23-11.73.29-13.8,1.11-4.42,5.5-4.55,6.29-5.72.97-1.43-.17-4.15,1.45-5.56,2.82-2.46,10.46-2.43,14.02-1.47Z"></path>
      <path d="M573.61,166.62c-9.4,13.82-14.24,30.94-19.32,47.17-7.7,24.64-13.52,49.78-18.94,74.91-.38,1.76,2.48,2.7-2.36,2.3-1.24-6.05,2.5-11.16,3.75-16.75,4.16-18.7,7.28-34.62,12.72-51.74,3.96-12.48,7.53-26.01,12.06-39.48,4.58-13.62,14.86-23.53,22.97-35.03,1.48.76-.21,2.41-.71,3.29-3.01,5.31-6.76,10.29-10.18,15.33Z"></path>
      <path d="M904,777.99c.48.4,8.85-3.78,12-.98-3.45,6.9-1.15,6.18,2.61,11.04-1.67,6.8-9.75,2.59-11.66,3.46-2.3,1.04-1.26,4.14-2.61,5.58-1.67,1.78-8.38,3.7-10.35,1.44-3.43-3.94,1.82-8.8,1.01-9.52-12.15-.93-6.18-12.92,4-9.02-4.96-5.83,2.74-10.84,5.58-4.96.6,1.24-.87,2.72-.57,2.96ZM906.01,784c1.22-1.02,6.93-2.36,6.97-3.5.1-2.54-9.66-1.97-6.97,3.5ZM891,785.99c.57.91,11.65,2.82,9.99-2.48-.95-3.02-12.85-2.05-9.99,2.48ZM895.13,793.12c-1.44,2.52,1.37,4.52,4.17,3.72,3.2-.92,7.13-8.87,2.04-7.03-.77.28-6.03,3.01-6.2,3.32Z"></path>
      <path d="M385.13,834.87c3.03,1.97,9.95-2.42,13.36-2.88,2.33,2.21-6.49,4.82-8.7,5.31s-5.76-.75-8.12.68c-1.09.66-.37,2.28-1.32,3.07-8.69,7.3-14.51,4.79-20.08,7.71-1.73.91-2,2.6-3.03,3.25-4.16,2.64-10.83,5.93-15.78,6.03-2.03.04-7.37-1.85-8.38-.91-.24.22.16,1.79-.38,2.5-2.27,2.99-9.04,8.59-12.59,9.77-4.55,1.52-16.3,2.1-15.61-4.4,3.46,3.21,10.28,3.68,14.56,2.58,2.64-.68,12-8.21,12.52-10.5.44-1.94-4.06-5.36-1.56-9.08,4.31-.75,4.82,6.65,5.65,7.03,5.28,2.43,20.13-2.27,22.33-7.56.23-.56-4.8-5.28-1.91-8.41,6.83-2.48,6.39,6.7,7.53,7.01,5.2,1.41,14.12-5.71,17.4-9.58-2.94-.54-5.9-7.74-2.54-8.28,5.89-.94,6.05,6.24,6.67,6.65Z"></path>
      <path d="M248.99,894c-2.16,1.16-8.29,1.21-10-.46-5.25-5.14,8.48-10.95,12-6.54-1.8-2.85-1.85-9.67,1.67-10.85,8.67-2.88,6.34,5.67,7.77,7.92,1.28,2.01,6.97-.88,8.18,3.92,1.6,6.34-8.07,6.1-9.2,6.94-2.03,1.52-.64,8.49-7.9,7.09-3.89-.75-2.27-4.85-2.52-8.02ZM252.01,885.99c4.92,1.63,6.72-7.3,3.48-7.99-2.83-.6-4.04,6.12-3.48,7.99ZM254.99,892.99c.75-5.83,4.7.52,8.99-1.48,7.38-3.44-4.39-6.22-10.02-3.03-1.05.59-.49,4.64,1.03,4.51ZM251.99,891.99c-.2-4.92-9.44-5.39-10.98-1.48-.81,2.07,1.35,1.4,2.47,1.49,2.81.2,5.7-.14,8.51,0Z"></path>
      <path d="M777.65,686.35c2.38,2.89,1.01,6.14,2.05,8.37.97,2.06,8.47,5.62,5.41,9.61-2.43,3.17-9.01.29-10.49.72-2.63.77-1.08,9.81-7.09,9.79s-1.8-5.02-3.53-6.86c-.24-.26-4.8,1.25-7.01-.47-2.97-2.32-.87-7.8,1.73-9.56,2.42-1.64,8.68-1.17,9.88-2.93.58-.84-.53-2.53-.08-3.97.33-1.04,4.59-6.24,5.49-6.62.79-.33,3.13,1.29,3.65,1.91ZM771.01,697c4.22.77,8.49-7.3,4.48-8.99-3.62-1.52-5.22,6.73-4.48,8.99ZM773,700.01c-2.49,2.64,9.07,5.36,9.99,1.48,1.1-4.61-8.38-1.99-9.99-1.48ZM769,700.01c-3.52-2.47-12.35-.34-10.99,4.46,1.45,5.13,11.54-3.71,10.99-4.46ZM770.99,704.01c-1.69-.73-4.12,3.31-4.43,4.09-3.02,7.55,7.01,4.61,4.43-4.09Z"></path>
      <path d="M296.64,940.38c17.96,10.42,35.54,24.05,53.83,34.65,14.43,8.36,30.31,14.46,44.22,23.78,1.3.87,2.72,1.14,2.3,3.19-2.87-1.35-8.24-2.94-10.7-4.3-32.96-18.29-65.09-41.7-97.58-60.36-1.16-.67-5.97-1.48-6.71-2.35-.57-.67-.4-2.4,1.4-1.9,3.89,1.1,9.54,5.15,13.24,7.3Z"></path>
      <path d="M408.18,975.82c1.05,1.05,3.47-.12,4.83,1.59,7.53,9.49-5.63,7.96-7.53,9.49-3.33,2.66-1.93,11.48-8.49,7.61-2.97-1.75-.88-8.3-2.15-9.35-.38-.31-7.65-1.03-6.84-4.62.76-3.37,8.54-1.91,11-1.55-4.79-8.23.8-20.49,8.32-7,.56,1.01,0,2.97.86,3.83ZM400.01,969c.13,1.77-.3,3.78,0,5.49,1.25,7.05,10.59-4.21,0-5.49ZM402.01,980.99c2.5-.14,4.5,2.82,6.55,3.03,5.12.52,4.02-5.69-.1-6.05-1.3-.11-5.94,1.34-6.45,3.02ZM398.01,991.99c4.07.77,5.08-8.16,2.49-7.97-1.15.08-4.63,6.2-2.49,7.97Z"></path>
      <path d="M222.32,894.66c17.64,12.69,38.41,22.42,56.26,35.78.6.45,3.49,2.62,2.41,3.55-.51.44-6.29-2.61-7.29-3.24-5.61-3.53-10.76-8.8-16.71-12.17-8.41-4.77-18.36-10.8-27.11-16.93-4.77-3.34-9.95-5.08-12.88-10.65,3.03-.7,4.07,2.75,5.32,3.65Z"></path>
      <path d="M627,431.99c-2.47.43-1.92-.35-2.32-2.21-1.14-5.31,4.27-28.63,3.31-29.78-2.53-.32-4.2,3.03-4.49,3.03-1.71,0-3.25-2.07-2.5-3.01.8-1,5.14-.37,7.32-6.19l4.18-30.82c4.7,6.06-.29,14.99-1.12,21.63s-.7,14.76-1.56,21.57c-1.03,8.23-4.37,17.51-2.81,25.79Z"></path>
      <path d="M606.96,124.03c.17.16.02,1.98.61,2.86,4.11,6.19,8.44,12.68,11.31,19.74.59,1.45,1.45,2.66,1.12,4.37-4.84-1.92-10-18.57-12.2-19.78-4.55-2.51-4.07,2.31-3.8,5.78-2.63-.71-1.55-8.47-1.99-8.99-4.15-.34-3.71,6.1-7.99,4.99l5.24-7.74c1.47.01,7.28-1.63,7.71-1.22Z"></path>
      <path d="M273,816.01l-3.08,3.38-9.92,2.6c6.74-.47,14.89.32,20.5-3.98,1.34.58.3,1.83-.46,2.54-3.32,3.16-16.63,5.78-20.52,3.5-.78-.46.59-2.01-.43-2.57-1.5-.83-4-.35-5.88-1.2-2.96-1.35-5.49-5.46-2.71-8.28.93,0,.62,5.3,3.09,5.84,4.05.88,14.29-3.81,19.41-1.82Z"></path>
      <path d="M610.98,164c-1.58,1.5-1.72-.35-2.1-1.42-1.13-3.19-1.75-8.34-3.19-11.76-.93-2.2-5.09-10.26-6.69-11.23-.63-.38-4.71,1.57-.51-3.56,4.86,3.06,7.52,8.83,9.74,14.01,1.2,2.82,4.95,11.88,2.75,13.97Z"></path>
      <path d="M587,359.01c-1.05,2.03-1.01,4.39-2.13,6.4-1.79,3.22-9.21,5.71-10.38,7.6-1.26,2.04,1.46,8.16-.99,7.97-3.17-.24-2.29-10.12-.28-11.75,1.03-.83,6.85-1.44,9.8-4.77,1.05-1.19-.49-5.84,3.97-5.45Z"></path>
      <path d="M284.99,810c-1.36.26-1.57-1.83-1.7-2.77-1.01-7.22,1.04-12.45-.84-18.7l2.54-6.53.82,12.5-.82,15.5Z"></path>
      <path d="M609.34,361.67c.17.23,5.45,4.48,1.16,4.31-.93-.04-4.27-4.94-5.24-6.01l-9.25-3.46c3.79-3.62,8.96-.92,11.95,2.07.91.91.79,2.26,1.38,3.08Z"></path>
      <path d="M569.18,358.78c1.11,1.66,8.72,1.24,9.82,4.21-5.84,1.68-7.16-1.05-11.98-2.98-.44.31-3.88,8.35-4.75,9.74s-2.19,2.07-3.27,1.24c-.69-.53,9.1-12.81,9.01-14.98,1.83-.32.53,1.82,1.17,2.77Z"></path>
      <path d="M284.99,781.01l-1.98-.48c1.6-7.41-.5-15.83,0-23.52,1.69,0,1.9,3.32,2,4.48.18,2.08.64,18.8-.02,19.52Z"></path>
      <path d="M581,352.99l-10.99-2.49c3.15-3.86,10.79-3.16,10.99,2.49Z"></path>
      <path d="M595.23,369.19c-.63-.95.67-3.09-1.17-2.77.02.44-.38,1.31-1.01,2.41.21.46.46.89.75,1.3.24.34.51.66.79.97,3.65,1.81,5.28,3.78,10.46,2.3-1.1-2.97-8.71-2.56-9.82-4.21Z"></path>
    </g>
  </g>
</svg>