<?xml version="1.0"?>
<svg id="Layer_1" xmlns="http://www.w3.org/2000/svg" version="1.1" viewBox="0 0 707.27 1080">
  
  
  <g>
    <path fill="#F8F5E7" d="M419.15,806.02c2.74,2.66,5.59,5.19,8.42,7.74l-97.82,183.98c-3.41,6.41-11.36,8.84-17.77,5.43l-15-7.98c-6.4-3.41-8.84-11.36-5.43-17.77l101.23-190.39c1.56-2.93,5.53-3.33,7.7-.82,5.93,6.86,12.14,13.47,18.68,19.81Z"></path>
    <path fill="#F8F5E7" d="M377.55,762.34l-152.03,168.84c-4.85,5.39-13.16,5.83-18.55.97l-12.63-11.38c-5.39-4.85-5.83-13.16-.97-18.55l158.9-176.48c2.18-2.42,6.04-1.9,7.57.98,5.52,10.35,11.58,20.3,18.09,29.89,1.21,1.78,1.06,4.12-.38,5.71Z"></path>
    <path fill="#F8F5E7" d="M344.68,703.67l-204.21,137.74c-6.02,4.06-14.18,2.47-18.24-3.55l-9.5-14.09c-4.05-6.01-2.47-14.18,3.55-18.23l211.3-142.52c2.61-1.76,6.14-.47,7.07,2.54,3.44,11.14,7.34,21.98,11.71,32.48.86,2.05.16,4.39-1.68,5.63Z"></path>
    <path fill="#F8F5E7" d="M570.27,892.64v154.27c0,7.26-5.88,13.14-13.14,13.14h-17c-7.25,0-13.13-5.88-13.13-13.13v-165.14c0-3.28,3.23-5.5,6.31-4.35,10.86,4.06,22.03,7.66,33.5,10.73,2.04.55,3.47,2.37,3.47,4.48Z"></path>
    <path fill="#F8F5E7" d="M490.63,862.08l-43.64,175.01c-1.76,7.04-8.88,11.32-15.92,9.57l-16.48-4.11c-7.04-1.76-11.33-8.89-9.57-15.93l46.28-185.61c.8-3.2,4.5-4.55,7.2-2.66,9.57,6.69,19.52,12.87,29.84,18.54,1.86,1.02,2.8,3.13,2.29,5.19Z"></path>
    <path fill="#F8F5E7" d="M66.15,368.4c-4.31-1.74-6.4-6.65-4.66-10.97l8.13-20.13c2.72-6.73,10.37-9.97,17.1-7.26l243.01,98.18s0,0,.02,0c-3.34,12.04-5.96,24.45-8.07,37.08-.49,2.95-3.54,4.71-6.32,3.61-36.8-14.61-249.21-100.51-249.21-100.51Z"></path>
    <path fill="#F8F5E7" d="M38.98,490.22c-4.61-.65-7.82-4.91-7.17-9.52l3.68-26.15c.65-4.61,4.91-7.82,9.52-7.17,0,0,234.13,32.63,269.33,37.55,2.5.35,4.17,2.58,3.91,5.09-1.17,11.02-1.89,22.24-2.18,33.64-.07,2.8-2.46,4.93-5.23,4.55-37.84-5.21-271.85-37.98-271.85-37.98Z"></path>
    <path fill="#F8F5E7" d="M42.07,615c-4.63.49-8.78-2.87-9.26-7.5l-2.76-26.27c-.48-4.63,2.87-8.78,7.5-9.26,0,0,235.88-24.96,273.46-28.95,2.73-.29,5.05,1.89,5.13,4.64.3,11.66.97,21.94,2.09,33.16.26,2.59-1.52,4.93-4.11,5.2-36.12,3.67-272.05,28.98-272.05,28.98Z"></path>
    <path fill="#F8F5E7" d="M64.45,730.28l-9.02-24.82c-1.59-4.37.66-9.21,5.04-10.8,0,0,217.67-78.13,254.81-91.39,2.79-.99,5.74.83,6.18,3.75,1.66,11.08,3.67,21.96,6.14,32.55.54,2.32-.65,4.61-2.89,5.41-31.83,11.35-249.44,90.34-249.44,90.34-4.38,1.59-9.21-.67-10.81-5.04Z"></path>
    <path fill="#F8F5E7" d="M570.27,33.09v155.44c0,2.08-1.39,3.89-3.39,4.46-11.43,3.26-22.59,7.08-33.5,11.36-3.08,1.21-6.38-1.01-6.38-4.32V33.08c0-7.25,5.88-13.14,13.14-13.14h17c7.26,0,13.14,5.88,13.14,13.14Z"></path>
    <path fill="#F8F5E7" d="M349.97,373.6c-4.86,10.33-9.22,20.96-13.06,31.86-1.04,2.97-4.59,4.12-7.13,2.27l-203.96-148.19c-5.87-4.26-7.17-12.48-2.91-18.35l9.99-13.75c4.26-5.87,12.48-7.17,18.35-2.91l197.27,143.32c1.81,1.32,2.41,3.71,1.46,5.74Z"></path>
    <path fill="#F8F5E7" d="M464.4,39.66l37.19,174.98c.44,2.06-.56,4.12-2.43,5.09-10.49,5.41-20.65,11.32-30.45,17.72-2.77,1.81-6.43.33-7.12-2.9l-39.51-185.9c-1.51-7.1,3.02-14.07,10.12-15.58l16.63-3.53c7.1-1.51,14.07,3.02,15.58,10.12Z"></path>
    <path fill="#F8F5E7" d="M384.42,316.25c-6.98,9.31-13.41,18.98-19.34,28.97-1.65,2.78-5.5,3.13-7.58.65l-151.28-180.29c-4.66-5.56-3.94-13.84,1.62-18.51l13.01-10.92c5.56-4.67,13.85-3.94,18.51,1.62l144.92,172.71c1.39,1.66,1.44,4.03.14,5.77Z"></path>
    <path fill="#F8F5E7" d="M345.86,74.9l89.26,183.01c.94,1.93.45,4.23-1.18,5.61-4.5,3.82-8.92,7.74-13.19,11.82-4.2,4.01-8.23,8.13-12.16,12.34-2.26,2.41-6.19,1.85-7.64-1.12l-93.98-192.68c-3.18-6.52-.47-14.39,6.05-17.57l15.28-7.45c6.52-3.18,14.38-.47,17.56,6.05Z"></path>
  </g>
  <path fill="#F8F5E7" d="M664.6,763.4c-125.12,0-206.05-98.29-206.05-219.11s80.93-226.12,206.05-226.12c18.49,0,18.49-68.03,0-68.03-59.87,0-132.76,31.1-187.97,87.57-54.02,55.25-83.77,128.06-83.77,205.02s29.91,148.83,84.22,202.93c54.51,54.3,143.38,84.2,187.52,84.2,20.46,0,22.44-66.47,0-66.47Z"></path>
</svg>