<?xml version="1.0"?>
<svg id="Layer_1" xmlns="http://www.w3.org/2000/svg" version="1.1" viewBox="0 0 1080 280">
  
  
  <path fill="#F8F5E7" d="M218.51,207.98c-4.02-3.38-9.9-3.06-13.65.61-16.13,15.76-37.97,24.34-62.44,24.34-52.04,0-94.38-40.89-94.38-91.14s42.34-94.06,94.38-94.06c20.71,0,39.92,6.11,54.02,16.97,3.93,3.03,9.49,2.7,13.07-.73l5.62-5.38c4.49-4.3,4.04-11.56-.89-15.35-20.02-15.42-45-23.8-71.52-23.8-33.26,0-64.22,12.94-87.18,36.42-22.47,22.98-34.85,53.27-34.85,85.28s12.44,61.91,35.03,84.41c22.67,22.59,52.99,35.03,85.38,35.03s60.43-11.52,83.56-32.67c4.45-4.07,4.2-11.18-.41-15.07l-5.76-4.85Z"></path>
  <path fill="#F8F5E7" d="M349.02,19.43c-32.93,0-63.52,12.94-86.15,36.44-22.1,22.95-34.27,53.23-34.27,85.27s12.6,62.34,35.49,84.79c22.77,22.34,53.16,34.65,85.57,34.65s62.74-12.47,85.38-35.11c22.59-22.59,35.03-52.77,35.03-84.97,0-66.75-54.31-121.06-121.05-121.06ZM441.78,140.81c0,24.88-9.48,48.22-26.7,65.72-17.36,17.64-40.7,27.36-65.74,27.36-51.65,0-92.11-40.6-92.11-92.44s41.18-94.38,91.79-94.38,92.76,42.05,92.76,93.73Z"></path>
  <path fill="#F8F5E7" d="M698.17,140.71c0,56.61-35.49,93.18-90.42,93.18-27.44,0-50.88-8.7-67.76-25.16-17.15-16.71-26.21-40.23-26.21-68.03V33.68c0-4.47-3.62-8.09-8.09-8.09h-11.46c-4.47,0-8.09,3.62-8.09,8.09v107.04c0,34.63,10.99,64.27,31.8,85.71,21.68,22.34,52.74,34.15,89.83,34.15,34.28,0,63.84-11.99,85.49-34.68,20.79-21.78,32.24-52.04,32.24-85.18V33.68c0-4.47-3.62-8.09-8.09-8.09h-11.13c-4.47,0-8.09,3.62-8.09,8.09v107.04Z"></path>
  <path fill="#F8F5E7" d="M776.31,210.79V33.73c0-4.5-3.65-8.15-8.15-8.15h-11.35c-4.5,0-8.15,3.65-8.15,8.15v213.18c0,4.5,3.65,8.15,8.15,8.15h58.94c4.5,0,8.15-3.65,8.15-8.15v-11.35c0-4.5-3.65-8.15-8.15-8.15h-22.81c-9.18,0-16.63-7.44-16.63-16.63Z"></path>
  <path fill="#F8F5E7" d="M942.76,25.58h-89.99c-6.2,0-11.22,5.02-11.22,11.22v207.05c0,6.2,5.02,11.22,11.22,11.22h84.16c69.75,0,122.36-48.98,122.36-113.93s-51.18-115.55-116.52-115.55ZM1030.96,142.41c-1.17,49.26-40.31,85-93.06,85h-50.33c-10.14,0-18.37-8.22-18.37-18.37V71.27c0-10.14,8.22-18.37,18.37-18.37h53.68c24.32,0,48.01,9.97,64.98,27.35,16.5,16.89,25.28,38.97,24.73,62.15Z"></path>
</svg>