<?xml version="1.0"?>
<svg xmlns="http://www.w3.org/2000/svg" version="1.1" viewBox="0 0 1080 1080">
  
  <defs></defs>
  <g id="can_color">
    <path fill="#73A942" d="M467.57,586.64c-6.55-3.23-13.11-6.46-19.66-9.69-5.91-2.91-12.11-5.9-18.7-5.77-.97.02-1.98.11-2.83.58-.66.36-1.18.93-1.69,1.48-6.71,7.29-13.84,15.64-13.64,25.54.16,7.97,5.33,15.23,12,19.61,6.66,4.38,14.65,6.27,22.55,7.35,3.25.44,6.56.77,9.64,1.92,2.93,1.09,5.54,2.87,8.14,4.61,5.38,3.59,10.84,7.05,16.4,10.36,6.98,4.16,14.4,8.19,22.5,8.76,3.33.23,6.83-.18,9.62-2,1.92-1.25,3.38-3.07,4.71-4.92,4.29-5.97,7.7-13.14,6.77-20.43-.78-6.08-4.56-11.48-9.38-15.26s-10.61-6.11-16.47-7.92c-11.95-3.69-24.52-5.39-37.02-5.02-2.72.08-5.69.18-7.85-1.47,1.13-2.19,3.87-2.86,6.27-3.41,3.33-.75,6.62-1.68,9.86-2.78"></path>
  </g>
  <g id="Layer_1">
    <g>
      <path d="M462.57,632.44c1.57.82,4.36,3.45,6.09,4.41,7.06,3.9,15.36,6.46,21.34,12.14-5.02.58-11.89-5.03-15.86-5.46-3.63-.39-6.87,2.48-11.15,2.08-.81-.08-5.69-1.49-5.87-1.74-.9-1.33,1.39-4.69-2.12-3.87-.73,5.05-1.31,10.22-2.27,15.24-.59,3.06-3.51,5.35.27,6.26-.7.6-1.53,1.36-1.74,2.26-2.32,9.82-4.13,19.85-6.33,29.68-1.25,5.56-1.99,7.07-4.36,10.58-1.17,1.73-1.22,5.81-2.52,8.53-2.78,5.79-16.35,23.35-21.04,28.99-3.62,4.35-1.4,2.52-2.5,4.49-.42.75-5.83,4.44-8.59,8.88-.07.11-1.62-.65-2.59-.14-3.04,1.57-4.27,3-8.08,3.99-7.53,1.95-24.4,2.03-30.8-2.69-1.1-.81-16.44-19.21-17.22-20.79-2.55-5.18-1.93-7.76-2.19-12.7-.13-2.6-2.48-5.38.46-7.55,2.15,7.19.68,13.66,4.65,20.38,1.66,2.81,11.33,14.65,13.53,16.64,11.92,10.77,37.94,5.95,47.26-6.82,13.1-17.93-1.75-33.66-15.35-44.87-2.68-2.21-5.09-4.55-7.24-6.41-4.49-3.91-13.95-5.72-19.81-4.87-1.46.21-8.28,3.3-8.55,2.94-1.59-2.17,5.97-6.41,7.7-6.8,11.87-2.69,20.7,3.13,29.34,10.27,1.06.87,3.52,1.26,3.8,1.71.56.91-.28,2.91.31,3.65.27.34,6.63,2.75,7.84,3.74.5.41,7.17,9.89,7.46,10.48,3.05,6.14,2.4,14.38,1.55,20.96,2.6-2,5.04-5.87,6.82-8.67,5.84-9.16,11.28-16.59,14.81-27.19,7.03-21.12,9.32-43.13,14.37-64.63,0-.92-11.58-.43-10-5,.65-1.89,1.26-1.18,2.46-.49,2.09,1.21,5.72,5.06,7.53.99-2.97-1.36-7.13-2.28-9.89-3.62-4.21-2.05-21.51-10.15-23.52-12.48-.94-1.09-1.81-2.36-1.58-3.91,13.68,8.81,29.22,13.95,43.56,21.44ZM470,640.01c-.13-.12-2.27-.14-3.52-.95-1.37-.88-7.74-6.4-8.47-2.53-.11.58,1.91,6.33,2.65,6.52,1.4.35,11.99-.58,9.34-3.04Z"></path>
      <path d="M596.88,248.87c.31-.18,1.41-3.59,4.41-5.08,12.56-6.21,22.8,5.81,26.72,16.7,2.23,6.19,2.11,12.57,4.6,18.4,3.4,7.94,13.27,12.07,16.37,20.63,5.87,16.23-2.48,33.14-3.04,48.98-.59,16.7,6.8,34.35-6.44,48.49-3.38-4.18.22-3.75.49-4.7,1.78-6.43,4.98-12.22,4.72-20-.13-4.01-2.1-7.67-2.31-10-1.79-19.95,8.4-40.66,5.04-57.74-1.67-8.49-4.65-7.5-8.97-12.5-11.64-13.45-8.58-18.67-13.95-33.08-2.36-6.33-9.18-15.31-16.62-14.4-4.25.52-9.4,1.95-9.93,7-.06.57,6.12,7.48,7.03,8.94,4.9,7.89,9.77,21.05,10.46,30.32.17,2.23-.84,4.78-.46,7.15-1.52-.19-2.16-3.65-2.54-4.95-1.99-6.85-2.97-14.62-5.55-21.26-.57-1.46-8.6-14.54-10.47-16.72-1.43-1.66-12.48-8.59-14.7-9.29-3-.94-5.95-.45-8.53-1.44-1.25-.48-1.11-2.25-1.63-2.21-9.77.67-21.37.51-30.8,3.9-1.14.41-1.22,2.05-1.77,2.3-2.6,1.14-5.19,1.56-7.79,3.42-8.61,6.14-9.26,16.8-13.22,25.75-.06,3.89,3.8-1.11,6.37-.41,1.06.29,2.22,2.07,1.64,2.9-.36.52-9.51,4.85-10.5,7.01-4.77-5.42-1.02-5.27.25-8.75,1.09-2.99.79-7.11,1.76-10.24,2.27-7.34,8.98-17.29,15.56-21.48.77-.49,2.19.33,2.97-.11.6-.34.71-1.86,1.73-2.4,1.29-.67,12.77-3.38,15-3.75,13.49-2.26,26,.9,38.48,6.01,1.82.75,3.53,3.84,5.64,2.6Z"></path>
      <path d="M680,894.99l-4.2-5.29c-5.36-21.99-17.04-45.21-23.18-67.6-1.99-7.26-2.54-17.61-4.69-24.33-.26-.82-1.89-.78-1.96-1.42-.57-5.52-.85-10.85-2.18-16.63-3.2-13.88-6.96-28.51-11.71-40.49-5.44-13.7-9.29-30-14.75-43.03-.53-1.27-2.17-.98-2.27-1.82-1.47-11.23-1.62-23.41-1.97-34.87-.23-7.56-1.39-14.9-.07-22.51,1.5-.24,1.4,2.03,1.57,3.03,2.78,16.39.08,36.8,4.7,54.16,4.71,17.71,14.5,35.66,20.01,53.02,7.22,22.73,9.9,46.82,16.2,69.8,3.4,12.41,8.5,25.01,12.24,36.76,4.35,13.66,8.93,27.26,12.27,41.22Z"></path>
      <path d="M476,494c.12-.14-.12-1.1.34-1.63,2.29-2.63,5.32-2.45,5.34-8.05.02-4.3-6.68-10.61-1.69-13.32.28,4.24,3.31,9.63,5.99,12.99,2.4-2.81.85-3.24,1.23-5.23.69-3.65.74-7.4,1.35-10.22,1.33-6.25,10.02-12.96,12.72-18.8,4.72-10.19,6.41-24.27,10.24-33.68.81-1.99,5.79-4.06-.96-5.06-12.7,5.01-25.83,8.13-37.43,15.64-22.68,14.67-26.87,48.18-47.09,64.88-6.3,5.01-10.47,12.21-14.07,19.48-1.41.11-2.42.46-1.9-1.4.29-1.03,3-7.55,3.52-8.53,4.78-8.86,16.27-17.92,22.02-26.42,7.83-11.57,13.44-27.71,22.35-38.17,14.46-17.01,38.17-21.66,57.5-29.39,7.37-2.95,11.22-6.03,17.27-10.04,5.26-3.49,13.65-6.36,15.79-13.01.83-2.56-.78-6.82,2.46-6.03-.05,2.68.37,5.42-.44,8.05-1.46,4.76-20.88,17.08-26.03,19.97-2,1.12-8.9,3.03-9.4,4.61-.45,1.43.19,3.24-.15,4.68-.06.27-1.02,2.14-1.65,4.5-2.79,10.46-6.1,24.37-11.37,33.66-2.19,3.86-9.19,10.7-10.27,13.72-.88,2.45-3.69,20.29-3.74,23.33-.13,7.1,2.48,14.41,3.04,21.49-1.88-.77-2.9-4.15-3.35-5.93-1.53-5.99-2.61-14.98-1.65-21.07-2.79,1.47-3.61,5.75-5.92,7.58-1.75,1.39-3.92,1.26-4.07,1.41-.13.13.02,2.09-.98,3.48-13.27,18.39-28.96,34.42-43.52,51.5-4.15-3.86.76-2.57,2.23-4.27,2.03-2.35,4.3-7.65,6.25-9.95,11.79-13.89,24.61-27.45,36.02-40.76Z"></path>
      <path d="M634,488.01c-2.63,13.6-8.14,25.83-10.84,39.68-2.7,13.86-4.55,29.65-3.84,43.71.11,2.1,2.61,8.16-.26,10.16-.58.4-12.13,3.17-13.64,3.37-5.67.79-26.96.53-30.12,2.41-.64.38-.59,1.94-1.74,2.29-1.36.41-10.85-.08-14.17.26-4.48.45-10.19,1.62-15.97,1.93-5.78.31-12.08-.85-17.9.21-1.36-.99,1.32-1.86,2.02-1.97,2.93-.45,6.62-.19,9.76-.5,1.61-.16,6.17,0,6.7-1.53-13.35-1.2-26.6-2.96-39.88-4.4-10.49-1.13-21.37.18-31.07-4.66l.51-2.89c1.43-1.2,2.7-7.6,4.94-7.07,2.81.67-4.49,5.96-2.41,8.92.2.28,5.78,1.72,6.7,1.86,45.06,6.8,86.6,6.33,131.94.58.89-.11,1.47.57,2.27.63.65-.91-2.88-12.05-2.83-14.53.52-25.27,8.57-52.19,17.75-76.11.55-1.45-.95-2.91,2.09-2.35Z"></path>
      <path d="M532.65,744.35c1.91,1.94,6.61,11.29,8.06,14.42,14.62,31.61,24.23,68.39,41.21,98.79,4.12,7.37,9.45,13.95,14.07,20.95,1.01,1.53.34,2.53-.5,2.47-.88-.06-10.83-11.46-11.97-13.02-1.37-1.87-8.62-13.05-9.41-14.79-1.06-2.34-1.38-6.76-2.69-9.1-7.89-14.05-14.49-32.03-20.52-47.3-4.19-10.61-7.37-22.16-11.98-33.33-.48-1.17-.03-3.06-.2-3.27-1.35-1.74-4.34-.06-.73-4.17h-3.02c1.87-3.81-.23-2.49-.88-3.81-.82-1.68-2.88-8.46-4.17-3.7-1.51,5.56-1.03,15.05-2.23,21.71-2.06,11.38-7,22.7-7.69,34.31-1.26,21.23,2.38,44.11.98,65-.13,1.99.81,2.89-1.99,2.48l-1.67-22.93c-1.56-10.98,2.03-27.1.71-37.51-.18-1.46-2.33-3.2-2.03-3.54.1-.12,2.05.23,2.05-.57,0-.97-1.12-2.3-.98-3.84,1.31-13.77,8.08-27.63,9.87-41.17.35-2.62.4-19.66,1.06-20.44,1.49-.11,3.68,1.37,4.64,2.34Z"></path>
      <path d="M667.99,571.99c-1.38.21-1.59-4.95-1.53-5.53.16-1.5,3.2-8.5,3.17-9.97-.01-.74-1.65-1.65-1.49-2.81.11-.84,3.3-8.85,3.79-11.26.33-1.66,2.16-11.26,2.12-11.86-.03-.48-3.66-.67-2.04-2.54.17-.2,2.98-.57,2.98-1.51,0-.22-1.99-1.43-1.99-3.01,0-1.14,1.49-2.16,1.53-2.98.85-16.76,2.96-34.3,2.56-51.03-.21-8.41-1.59-30.95-3.55-38.53-1.82-7.04-7.39-10.25-13.06-13.93-1.29-.83-2.98-.73-2.46-3.03,8.47,3.22,14.53,7,17.4,16.09,6.61,20.89,3.7,73.39,1.58,96.4-1.42,15.41-4.11,30.86-9,45.5Z"></path>
      <path d="M531,302.02c-2.65,4.61-2.85.41-3.74.04-6.47-2.66-14.56-3.92-14.2,5.39,1.05,26.98,5.08,35.66,21.96,56.08,1.53,1.85.3,3.38,3.97,4.74,11.52,4.25,26.65-12.51,34-19.79,2.26-1.17,4.4,1.19,1.78,3.83-2.43,2.44-13.09,14.94-14.02,15.42-.6.31-11.76,4.77-12.42,4.92-3.63.82-8.61-1.38-12.24-.67.18-4.56-3.31-3.55-3.87-4.14-.41-.43-.34-2.95-1.13-4.41-2.66-4.96-9.34-10.88-12.49-17.52-7.08-14.93-6.03-19.32-6.58-34.36-.21-5.7-3.02-8.97,0-14.54,3.5,3.25,7.39.07,12.29,1.21,2.71.64,3.94,3.47,6.7,3.81Z"></path>
      <path d="M612.24,305.83c1.89,3.97.8,10.36,2.18,16.17.25,1.07,1.63,2,1.88,3.01.71,2.74,4.8,14.67,4.75,15.48-.04.69-1.95.43-2.03.55,4.03,6.87-.29,16.33-.77,23.73-.19,2.91.79,16.33,1.41,19.06,1.13,4.94,5.71,10.91,5.32,16.18-1.83-1.62-3.73-5.51-4.73-7.76-9.34-21.08.37-36.81-3.69-55.22-1.16-5.26-4.37-10.99-5.34-15.75-.58-2.82.98-8.39-3.04-6.04-.25.15-1.26,2.72-2.67,3.8-1.25.96-12.73,8.21-12.51,3.48.08-1.71,13.4-5.49,13.9-11.17-3.7-4.75-6.04-11.1-12.91-6.33.16-5.67,8.23-4.42,11.22-1.98,1.6,1.31,1.92,6.41,5.77,5.98l-.62-4.65,1.61-7.34c2.01,2.17.06,8.41.25,8.82Z"></path>
      <path d="M439.39,776.65c10.26,30.4,17.02,60.18,26.32,91.15,1.15,3.83,4.23,7.48,3.29,12.2-2.79.55-1.61-.74-2.32-2.13-4.88-9.55-6.17-17.26-8.67-27.14-.28-1.12-2.39-.95-2.85-2.34-1.01-3.01-.38-9.56-1.17-12.7-.2-.81-1.98-.65-2.05-1.29-.14-1.37,1.16-2.9,1.11-3.8-.04-.69-4.79-1.73-2.87-4.47.3-.43,2.27.58,1.82-1.1-3.25.47-1.52-2.37-2.01-4.3-.21-.84-1.8-.64-1.97-1.39-4.1-18.4-8.98-39.11-15.58-58.29l1.56-4.03c.36,6.75,3.24,13.26,5.4,19.64Z"></path>
      <path d="M596.99,347.99c1.3,8.98.84,19.28,3.54,27.97,1.55,4.99,13.05,22.39,17.21,25.11l31.26,9.93c1.61,2.05-7.99,1.64-9.03,1.52-7.11-.85-14.84-3.16-20.23-6.23-1.56-.89-3.62-.19-5.7-1.84-14.17-11.2-17.77-29.07-18.46-46.32-.13-3.16,1.57-6.71-.56-9.66l1.98-.49Z"></path>
      <path d="M583.99,250.01c.2.21-.1,2.19,0,3-4.76-2.4-2.08.43-3.19,1.74-.46.54-2.31.46-3.29,1.24-4.14,3.29-16.51,12.09-15.58,17.49.11.65,10.66,4.68,11.78,5.83.66.68.48,2.52,1.71,3.77s3.47,1.38,4.55,2.47c.68.69,7.28,9.9,7.49,10.52.81,2.38.62,4.53.53,6.96-2.78-3.06-3.29-6.59-6-10.2-1.66-2.21-8.42-9.09-10.59-10.7s-12.93-6.54-13.35-7.17c-.22-.33,1.14-2.06.95-2.92-2.33-2.01-18.57,4-21.88,5.61-2.81,1.37-12.94,9.73-15.11,7.37-.58-2.77.79-1.71,2.02-2.41,10.65-6.14,17.48-11.09,30.62-13.52,1.48-.27,3.46.86,4.41.43,1.08-.48,4.78-6.64,6.29-8.14,2.14-2.12,16.94-13.14,18.64-11.35Z"></path>
      <path d="M372.66,655.68c-.31.51-1.84.88-2.49,1.95-8.88,14.53-16.06,29.71-20.18,46.37-4.16,1.18-1.06-8.54-.53-10.04,10-28.28,29.38-51.26,41.91-79.08,3.77-8.38,6.01-18.52,11.62-25.87-6.45,23.33-17.81,45.99-30.33,66.67Z"></path>
      <path d="M379.83,698.23c.23.12,2.31,3.24,3.24,4.08.83.75,2.15.51,2.62,1,2.84,3.03,3.92,12.34,4.3,16.69-3.08.51-1.56-.84-2-2.45-1.92-6.99-3.96-16.87-13.45-16.6-10.6.3-16.21,10.4-14.91,19.84,3.16,22.95,20.11,20.86,37.36,14.21,1.14,4.02-4.62,4.17-7.18,5.11-.89.33-.86,1.7-1.52,1.85-2.87.64-12.55.51-15.81.03-4.79-.71-12.41-5.72-11.72-10.77-5.95-3.24-3.13-13.92-4.3-19.76,3.34-6.56,9.81-12.16,17.29-13.22.48-.07,5.81-.17,6.08-.03Z"></path>
      <path d="M657.77,617.78c-.83,1.49-6.58,3.61-8.53,3.96-28.22,5.08-65.08,4.51-93.79,2.28-2.24-.17-5.67-.09-7.44-1.53,5.72.24,13.2-1.63,18.5-1.58,3.88.03,9.01,1.57,13.22,1.65,23.38.43,46.58-1.18,69.52-2.81,9.26-.66,6.19-6.72,9.26-12.76.59,1.83-.13,9.69-.73,10.78Z"></path>
      <path d="M612.99,534.01c.26,1.39-1.71,1.47-2.67,1.59-4.12.5-13.57.53-17.79.43-11.8-.27-23.65-1.75-37.03-1.94-3.38-.05-11.77-1.94-13.81-1.83-1.74.09-3.49,1.67-4.24,1.75-.43.04-.34-1.88-1.05-2-1.25-.21-6.32.92-9.08.62-5.12-.55-14.13-1.47-17.32-5.61,6.54.95,13.02,3.32,19.67,3.61,20.57.87,39.19.63,60.13,2.07,7.69.53,15.53-1.11,23.2,1.32Z"></path>
      <path d="M470.81,587.18c.1.09-.63,1.91.19,2.81-4.98-1.99-10.11-.47-13,4,1.36,1.78,26.2-.41,29.99.01-.49,6.39-2.83,3.08-6.35,3.34-2.52.18-8.89,2.02-11.03,1.72-.71-.1-.52-2-1.2-2.06-3.46-.28-8.49,1.78-12.46.55-.93-.29-5.93-3.69-5.94-4.05l4.27-3.71,10.71-2.77c-6.02-3.3-15.99-6.52-21.37-10.14-1.82-1.22-2.1-2.97-2.91-3.57-1.37-1.01-4.54-.33-4.7-2.29,9.66,2.75,19.12,9.31,28.01,14.27,1.25.7,5.02,1.22,5.79,1.91Z"></path>
      <path d="M371.99,636c-1.46,1.43-1.8-.09-1.98-1.48-.78-5.9.98-13.95,1.08-20.03.33-19.46-.46-26.61,5.33-45.4,1.15-3.72.83-11.03,5.57-12.1-2.45,10.96-6.5,21.43-7.87,32.62-.97,7.94.82,43.48-2.14,46.37Z"></path>
      <path d="M641.99,487c-4.45-2.32-3.34-9.72-4.22-14.26-2.63-13.56-5.82-28.48-4.2-42.89.48-4.31,1.98-8.53,2.44-12.84,1.8.06,1.02,4.25,1.02,5.55-.01,6.62-1.47,14.3-1.06,20.88.88,14.09,7.47,28.92,6.01,43.56Z"></path>
      <path d="M525,412.01c-.1,6.83.07,15.59,1.24,22.26.81,4.63,8.69,21.49,11.76,25.24,5.95,7.26,10.59,8.8,18.54,12.46,1.9.87,5.43,2.24,6.45,4.03-5.02-1.63-11.69-2.52-16.28-5-4.88-2.64-15.32-14.99-17.22-20.08-4-10.69-7.01-21.55-7.29-33.41-.03-1.19.24-6.56,2.79-5.49Z"></path>
      <path d="M448,641.01c-2.01,9-4.6,18.95-7.84,27.62-2.58,6.91-7.15,13.91-9.83,21.2-2.34,6.36-3.31,14.44-5.86,20.65-.47,1.13-1.18,2.27-2.45,2.53,2.14-7.97,3.55-18.48,6.48-26.01,1.46-3.74,4.71-7.83,6.18-11.81,3.9-10.49,6.96-21.59,11.07-31.98.6-1.53-.58-2.71,2.25-2.19Z"></path>
      <path d="M617.36,450.35c-3.87,5.1-6.1,8.03-10.93,12.62-1.02.97-1.32,2.91-1.44,3.02-.61.54-2.62.25-1.97-1.47,1.13-3,7.71-9.2,9.99-12.21,6.94-9.42,8.5-19.86,12.49-30.3.77-2.01,1.51-4.44,3.01-5.99l-.19,9.1c-2.54,10.51-4.56,16.82-10.95,25.23Z"></path>
      <path d="M485.53,554.61c-.19.48-2.25,3.81-2.41,4.21-.45,1.09-3.2,11.3-5.11,9.17-.06-5.44,5.06-10.66,6.5-14.99.64-1.94.12-5.63.76-8.23.77-3.12,3.78-7.86,3.45-11.13-.13-1.32-3.7-7.93-4.79-9.06-4.07-4.19-10.57-4.66-15.53-6.47-5.64-2.06,6-3.22,8.28-2.37,4.17,1.56,12.49,7.85,13.75,12.34,2.56,9.08-1.79,10.94-3.24,17.69-.83,3.88.33,3.74-1.65,8.84Z"></path>
      <path d="M506,645.99c1.15-3.37,8.5-15.26,6.54-18.01-2.62-2.98-5.56,1.78-6.97,4.09-2.65,4.33-3.16,9.74-6.08,13.92-2.66.39-1.08-1.5-.85-2.85.84-4.89,7.54-20.69,13.65-19,6.73,1.86-.05,16.03-3.06,19.59-.96,1.14-1.11,2.77-3.22,2.27Z"></path>
      <path d="M508.99,616.01c.9.85-6.4,7.74-6.97,8.74-2.73,4.8-3.01,11.11-8.01,14.26.75-10.2,4.97-19.23,14.99-22.99Z"></path>
      <path d="M542,339c3.08,2.33-5.22,2.16-6.44,1.93-1.62-.3-6.03-2.05-6.48-3.59-.29-1.01,5.44-16.81,6.43-19.34,2.74,3.94-3.9,16.31-3.44,18.42.43,1.97,7.93,2.68,9.94,2.57Z"></path>
      <path d="M382.99,713c.54,2.84-.73,1.62-2.18,2.27-4.18,1.88-10.88,3.61-6.89,10.07,1.82,2.94,6.85-1.54,6.08,2.65-6.88,2.77-12.47-3.63-8.45-9.96,2.64-4.15,7.04-4.21,11.44-5.03Z"></path>
      <path d="M417.99,607c-2.41-2.05-3.94-10.02-3.59-13.01.09-.79,1.27-4.98,2.59-4.98.6,2.68-.64,5.2-.87,7.62-.1,1.11-.92,3.6.87,3.37,1.45-4.27,2.15-10.15,6-12.99-3.13,6.54-3.75,12.96-5,20Z"></path>
      <path d="M512.99,613.01c-2.1,3.38-5.14-1.72-6.26-2.29-6.39-3.24-14.17-4.54-18.73-10.71,8.79,3.35,17,8.14,24.99,13Z"></path>
      <path d="M498,590.99c-3.38-.84-7.3.3-10.42-.03-1.15-.12-2.14-1.23-3.13-1.38-2.88-.45-7.92.43-9.45-2.57,5.83.79,13.91.5,19.49,1.92,1.41.36,3.15.16,3.51,2.06Z"></path>
      <path d="M555,318.01c-.24,1.76-.78,4.17-2.04,5.45-5.8,5.92-8.89-10.17,2.04-5.45Z"></path>
      <path d="M521,323.99c-.48-.49.93-7.5,3.48-6.99,4.35.87-.9,9.6-3.48,6.99Z"></path>
      <path d="M543,351.01c.42,8.59-8.61,5.9-5.96,2.04.18-.26,5.73-2.26,5.96-2.04Z"></path>
    </g>
  </g>
</svg>