<?xml version="1.0"?>
<svg xmlns="http://www.w3.org/2000/svg" version="1.1" viewBox="0 0 1080 1080">
  
  <defs></defs>
  <g id="can_color">
    <path fill="#73A942" d="M397.63,473.03c-5.78.79-11.59-.8-17.38-1.53s-12.24-.43-16.63,3.42c-3.35,2.94-4.87,7.38-6.26,11.61-2.06,6.29-4.13,12.61-5.05,19.17-1.26,9-.32,18.15-.53,27.24-.16,6.84-.99,13.64-1.81,20.42-.94,7.73-1.87,15.46-2.81,23.19-.97,8-1.31,17.6,5.12,22.46,3.85,2.91,9.04,3.14,13.87,3.24,6.93.15,13.86.3,20.79.46,2.35.05,4.8.08,6.92-.92,3.14-1.48,4.88-4.84,6.2-8.05,10.94-26.55,8.27-56.48,12.45-84.89,1.42-9.64,3.33-20.58-2.73-28.21-5.17-6.52-14.3-8.07-22.58-8.85"></path>
    <path fill="#73A942" d="M283.51,585.11c-6.18.12-11.85,3.98-15.39,9.05s-5.21,11.2-6.18,17.31c-.66,4.14-.99,8.56.74,12.38,1.18,2.6,3.26,4.8,3.86,7.59.45,2.08.01,4.27.48,6.34.97,4.28,5.35,6.75,9.28,8.69,15.4,7.59,30.8,15.17,46.2,22.76,10.01,4.93,20.13,9.9,31.01,12.41,2.97.69,6.09,1.19,9.06.52,7.34-1.64,11.29-9.43,14.24-16.35,4.08-9.56,8.09-20.86,2.94-29.89-3.7-6.48-11.05-9.73-17.62-13.27-13.41-7.24-25.13-17.21-37.9-25.54-12.77-8.33-27.27-15.16-42.51-14.88-1.72.03-4.03.82-3.77,2.52"></path>
    <path fill="#73A942" d="M696.27,654.53c-9.5,1.98-16.2,10.13-23.83,16.13-10.49,8.24-23.5,12.74-34.12,20.81-3.42,2.6-6.65,5.66-8.42,9.57-4.29,9.45,1.07,20.43,7.44,28.62,2.38,3.06,5,6.06,8.41,7.9,7.69,4.15,17.16,1.46,25.35-1.59,15.13-5.65,29.88-12.3,44.13-19.91,13.49-7.2,26.88-15.59,35.78-28.03,2.55-3.56,4.72-7.5,5.5-11.81,1.36-7.51-1.65-15.1-5.3-21.8-2.92-5.35-6.73-10.81-12.53-12.68-3.48-1.12-7.25-.79-10.87-.33-14.44,1.85-29.68,6.31-38.63,17.79"></path>
  </g>
  <g id="Layer_1">
    <path d="M115.72,521.4c-3.44,6.11,2.94,9.98,5.82,14.65,6.69,10.86,14.43,20.57,21.72,31.23,1.66,2.43,4.72,4.14,6.29,6.7,2.79,4.57,5.08,13.01,6.13,18.33l-7.57-16.9c-1.93-3.96-5.72-6.33-8.39-9.6-7.6-9.32-5.9-16.42-15.83-2.8-4.56,6.25-3.47-2.73-2.09-5.01,1.76-2.92,7.25-4.13,6.96-6.13l-15.79-24.24-.24-6.26,2.99.02Z"></path>
    <path d="M118.35,568.75c2.03,1.58,6.07,7.49,8.3,7.96,3.82.82,7.77-1.84,12.96,1.2,1.23.72,4.22,3.3,2.59,4.41-3.99-7.29-12.45-2.68-17.23-4.74-4.4-1.9-12.53-12.83-18.73-14.24-1.67,1.02.33,2.21.99,3.01,4.82,5.91,11.38,14.94,18.51,17.45,7.93,2.8,16.15,2.62,21.95,10.51-4.58-.33-8.2-3.48-12.45-5.02-5.17-1.88-12.79-2.63-17.22-6.27-1.86-1.53-11.83-14.6-13.34-17.13-6.4-10.7,11.35,1.05,13.67,2.86Z"></path>
    <path d="M262.08,524.38c.62.17,1.4,2.07,2.49,2-.61-10.23-6.62-19.87-6.48-29.98,1.13,4.07,10.86,32.86,9.49,33.97-.12.09-2.77.13-2.99,0-.09-.05.82-1.54.51-1.99-1.63-2.29-11.48,1.97-14.49,2.01l2.98,1.98c-9.12,0-17.8,4.18-26.97,5l13.77-5.69,18.2-4.29c.08-1.88.48-2.06-1.52-2.02-7.43.17-15,1.79-22.45,2.01l10.49-2.99c4.63.8,12.94-1.09,16.98,0Z"></path>
    <path d="M196,568.72c-1.97,1.45-4.08,3.54-6.36,5.12-.8.56-1.94,2.68-2.99,1,5-5.41,11.56-9.1,16.99-13.98,1.32-1.18,9.11-8.47,7.99-9.5l-3-.99c5.11-3.16,9.98-2.63,15.08-3.59.64-.12,7.13-4.27,6.87-.92-.08,1.05-8.36,4.16-9.89,5.08-8.36,4.99-16.79,11.93-24.7,17.78Z"></path>
    <path d="M190.64,534.37c-2.49.55-2.22-.98-2.68-2.76-2.28-8.97-1.7-21.82-3.43-31.56-1.88-10.61-5.63-20.87-6.87-31.61,1.61.22,2.07,3.62,2.49,4.99,6.1,19.75,8.43,40.45,10.48,60.94Z"></path>
    <path d="M130.69,499.41l-2.98-1c.88,2.53-1.9,4.87-1.97,6.5-.12,2.73,5.51,7.04,4.6,12.79s-5.43,10.27-11.62,10.68c-1.04-4.52,2.8-2.27,5.97-4.51,3.39-2.39,3.69-8.04,2.81-11.77-.52-2.22-2.6-3.26-2.87-6.18-.35-3.85,2.26-6.33,1.92-8.76-.93-6.6-7.49-2.56-10.24-2.73-.55-.03-.51-1.42-.92-1.65-1.22-.66-2.94.32-2.66-1.34,7.64-.73,15.15-.21,17.97,7.98Z"></path>
    <path d="M157.66,587.32l-2.51-22.94c1.66-6.17-1.98-12.36-2.21-17.78-.13-3.12,1.29-6,.69-9.68-.36-2.22-2.03-3.39-1.94-5.54,5.82,3.78,2.35,11.2,3.04,16.35.75,5.6,1.43,7.92,1.89,14.14.62,8.38,2.2,17.14,1.04,25.45Z"></path>
    <path d="M263.19,613.94c-.3.77-2.63.68-.62,5.35-2.43.44-1.94-.37-2.32-2.23-.51-2.42,2.69-12.69,4.13-15.44.86-1.65,9.77-12.76,11.18-11.29l-9.38,13.08c-2.01,3.24-1.67,7.15-2.99,10.54Z"></path>
    <path d="M243.6,495.41c.25,1.61-2.01,1.13-3.19,1.28-11.62,1.45-22.58,3.44-33.26,8.72-1.38-.66,1.3-1.96,1.78-2.22,2.21-1.22,5.8-2.88,8.16-3.83,1.28-.51,11.4-3.95,12.03-3.95h14.49Z"></path>
    <path d="M176.65,483.43l-1.87,2.59-21.1,10.39c1.03-.92,4.76-5.43,5.28-5.72,1.21-.69,5.44-3.01,6.8-3.63s10.46-3.99,10.89-3.62Z"></path>
    <path d="M158.68,485.43l-14.04,10.47c-4.53-.53-2.77.78-3.93,2.81s-4.8,1.17-2.07-2.85c2.38-3.51,15.62-8.35,20.04-10.42Z"></path>
    <path d="M181.65,520.36l-10.22,9.77-4.76.24c-1.77-1.46,8.17-8.53,9.26-9.21,1.98-1.26,4.66-4.22,5.72-.79Z"></path>
    <path d="M271.56,603.31c-.38,3.2-2.74,5.66-3.71,8.77-.8,2.58-2.04,16.14-3.78,16.19-2.17.06-.86-7.16-.56-8.44,1.21-5.17,4.07-12.91,8.04-16.51Z"></path>
    <path d="M307.54,482.41c-9.47,1.3-18.04,6.75-26.97,10-.54-2.73.69-1.71,2.02-2.42,5.88-3.13,15.74-8.04,22.18-8.93,1.52-.21,2.2-.71,2.77,1.36Z"></path>
    <path d="M244.59,480.44l-25.96,3.97,13.65-3.85c4.1-.26,8.32-1.56,12.31-.12Z"></path>
    <path d="M108.72,495.4c-7.54-3.27-6.52,2.3-9.95,7.55l-.03,9.43c-1.46-5.35-2.84-7.53-.41-12.88,2.09-4.59,5.67-9.47,10.38-4.11Z"></path>
    <path d="M233.6,526.39c.71,3.02-.6,1.24-1.64,1.41-6.99,1.13-14.35,1.34-21.33,2.57-.24-1.42,1.77-1.45,2.77-1.7,6.39-1.59,13.64-1.26,20.2-2.28Z"></path>
    <path d="M256.57,491.41c-1.62-.87-2.13-5.15-2.53-6.95-.65-2.95-.9-6.06-1.45-9.02,1.66.2,2.01,3.78,2.33,5.15.83,3.49,1.28,7.26,1.64,10.83Z"></path>
    <polygon points="193.64 562.36 182.66 571.34 188.42 564.33 193.64 562.36"></polygon>
    <g>
      <g>
        <path d="M728.14,373.01c1.62-1.37,10.32.39,11,1.02,3.05,2.8-8.51,1.7-8,3.98,4.79,2.7,8.56-.08,13.27.37,3.09-1.29,6.62-1.57,9.96-1.6-.25-.32-.41-.63-.24-.75,8.25-.29,17.33-1.98,25.51-1.91,1.82.01,5.7-.27,6.89-.08,4.03.65,5.53,5.28,8.6-2.01-4.16-.04-4.57,1.01-3.01-3.01-.46-.51-2.18,2.1-3,2.48-1.98.91-17.43,0-21.42.14-5.67.21-16.51,2.31-21.11,1.9-2.64-.24-6.07-3.32-9.46-2.52-.24-2.65-.05-1.62,1.5-1.98,11.07-2.53,24.3-4.71,34.95-8.07.61-.19,3.43-.91,2.03-1.96-8.1.88-15.94,2.17-23.89,4.12-5.58,1.37-14.12,5.58-18.49,6.33-1.39.24-2.72-.51-4.1-.45l9.79-7.72c9.03-1.11,24.31-5.26,32.48-10.25.99-.6,3.95-4.97,4.43-5.05,3.66-.58,10.59,3.69,15.29,1.01l-8.83-1.67-2.16-1.31c7.98-2.66,13.52-8.08,22.99-5.02-.3-5.73-12.51-4.23-15.91-2.42-2.51,1.34-3.19,4.25-4.82,5.45-7.24,5.32-20.9,8.88-27.94,11.96-1.03.45-5.17,2.3-5.31.02,14.55-11.14,32.4-15.87,48.78-23.73,1.19-.57,2.96-.54,3.22-2.27-15.4,2.38-29.43,9.61-43.49,16.01l-.68-8.36c-1.29-4.08-7.01,1.33-8.7,2.97-.74,3.8,4.37,4.14,4.7,4.51,4.74,5.32-12.56,12.34-15.16,14.04-5.57,3.64-10.41,8.74-14.68,13.81,3.23-1.62,9.33-3.83,5,2Z"></path>
        <path d="M685.13,466.03l-5.98,8.99c-1.36-1.96.08-4.15-.05-5.38-.07-.71-1.73-.54-1.95-1.27-1.42-4.7,1.56-2.54,2-2.82,1.08-.68-.14-2.22.14-2.41.76-.53,2.21.69,3.18-1.3,1.73-3.54-.35-7.19-.34-10.81-4.76.51-12.99,6.23-7.99-2.99-3.53-1.45-4.58,5.89-5.79,1.28-1.48-5.63-.17-13.91-2.23-19.78l3.01.48c-1.86-6.05-2.38-13.66-1-20l-2,7c-6.18-2.38-2.44-7.1-3.44-10.48-.61-2.04-2.46-2.89-2.62-6.03-.09-1.76,1.52-9.28,4.05-7.48,2.89,2.05,1.86,13.41,2.03,16.99.2.28,1.32-.54,1.52-.99.25-.57-.38-10.97-.59-12.44-2.17-14.99-12.29-2.37-11.92,3.85.23,3.96,4.42,4.22,5.22,7.84.54,2.46-.83,4.34.26,6.72,1.28,2.81,7.05,2.7,4.51,8.02-1.97-2.4-11.47-7.61-12.44-9.05-3.28-4.85-1.08-8.98-2.17-12.75-.73-2.53-2.58-3.99-4.37-5.71,3.57-.64,6.54-2.23,8.97-5-2.47-3.39-7.16,2.45-7.59,2.47-1.48.05-3.67-1.38-5.83-.15-2.21-3.44-6.61-4.74-9.84-6.79-1.16-.73-.84-2.69-3.24-3.08-1.14-.19-12.01.64-12.48,1.06.46,5.28,9.48,2.7,12.98,1.98-.39,3.06,1.94,7.47,5.01,8.03,1.19,1.99-10.38,4.66-11.8,4.76-7.44.54-10.4-11.57-17.55-9.84-.82.2-2.89,6.46-2.72,7.42.09.51,8.15,5.52-.49,6.54-38.84,4.62-78.92,2.05-117.66,7.37l-24.76,7.73c-1.53-2,5.91-11.4,7.39-13.64,2.68-4.04,4.01-6.55,6.59-10.87,6.19-10.37,20.01-17.4,26.24-28.77.81-1.47.55-4.46,1.74-5.32.69-.5,6.29.28,8.04-1.41-.71-3.28-6.08-1.39-7.01-2l1.02-1.98c-2.4,2.19-15.21-3.44-11.04,2.31,2.21,3.05,6.83,2.34,7.02,2.68,1.72,3.01-4.84,6.26-6.54,7.95-7.78,7.76-17.9,15.57-23.5,24.51-3.69,5.89-15.9,24.21-17.48,29.51-.4,1.34-.64,2.63-.47,4.02,4.44-2.39,10.35-2.86,14.77-4.69,8.44-3.48,20.22-11.98,30.67-10.25,23.87,3.96,44.17,3.45,68.07-.53,7.23-1.21,14.59-4.88,22.48-3.52.22,2.1-2.91.27-3.86,1.13-.32.28-.22,2.27-1.09,3.4-2.32,3.02-6.35,4.16-9.83,5.17-.89.26-14.67,3.57-12.21.3l4.99-2c-1.96.54-15.54.48-12.99,3.98l13.5,3.01c-8.64,4.14-23.43.37-28.75,11.26-.67,1.37-1.9,4.28.75,3.76,7.91-4.59,20.03-6.03,27.13-11.4.99-.75,6.13-7.94,7.36-6.61,1.57,1.69-9.91,9.95-11.03,11.46-2.8,3.77-7.25,21.94-6.57,26.46,1.43,9.5,6.68-10.94,7.1-11.93,1.68-4,5.63-12.6,7.52-16.23.9-1.72,9.05-6.99,10.49-9.76,1.12,6.8.3,13.42,2.5,19.99,7.47-2.17,4.19-9.41,5.5-15.01.65-2.79,2.26-5.11,3.22-7.76.53-1.44,1.05-6.02,1.28-6.23.13-.12,2.05,1.02,3.36.94,3.96-.24,7.13-1.64,11.78-1.31,2.15.15,16.2,2.83,16.74,3.49.5.61-.06,2.81.11,3.89l-3.98-.99,2.99,2.99c-2.98-.3-5.21-.05-6.99,2.51l4.99.99c-.84,1.59-1.88.49-2.74.91-.24.12-.21,1.61-.87,1.66-1.11.09-2.86-1.2-3.25-.92-.25.18-.29,1.31-.77,1.71-1.12.93-4.04,1.72-1.8,3.19,1.27.83,3.86.89,5.43.96l-.99,3.99c3.49-1.02,1.78-3.22,2.29-4.74.08-.25,1.26-.24,1.38-.49.25-.51-.76-1.6-.65-1.7.34-.31,2.72.08,3.56-1.02.53-.7-1.14-2-.02-3.12,5.34-5.34,22.46-8.09,29.43-4.92-.45,7.18-7.96.9-10.41,2.87-1.29,1.04-.08,2.92-.74,3.94-.27.42-2.65.81-3.8,1.71-.88.7-1.23,2.46-2.05,2.96-2.95,1.79-5.51-1.5-9.43,3.57-.71.91-6.31,10.08-6.5,10.69-1.37,4.49-1.05,12.32-2.06,17.25,7.16-.05,6.07-3.13,8.42-7.06,2.14-3.58,5.26-6.06,4.56-10.93-2.1.29-1.43,3.88-2.22,5.3-.76,1.37-4.5,5.38-5.75,6.69-2.95-3.31,5.59-13.75,7.97-16.52,4.37-5.08,9.88-8.95,14.72-13.46,5.16-1.39,3.51,5.67,6.74,4.93.38-.09,2.39-2.05,2.56-2.47.96-2.34-2.41-.69-1.98-2.47,3.11.71.89-2.88,2.98-3.01-.83,2.77,1.85,2.73,2.08,4.44,1.25,9.06,1.41,18.55-.08,27.55l-1.98-4.99-1.02,23.99c-1.92.26-.28-2.08-1.58-3.11-.58-.46-4.08-1.21-4.4-.89l-1,8.99c.24-3.73.2-7.21-4-5,.16-2.24,1.02-5.01-.5-6.99-3.7,2.19-1.89,5.48-2.56,8.44-2.03,8.91-15.97,8.42-22.96,8.94-29.22,2.2-56.64-4.18-85.63-8.25-36.56-5.14-79.64-7.9-111.55-27.18-10.29-6.21-23.05-24.13-27.91-35.14-5.68-12.85-6.68-27.99-9.02-42.24l-6.36-28.59c-1.67.04.43,25.17.5,28.02-.09,0-.17,0-.25,0,.06.39.12.77.19,1.16.2.51.4,1.01.58,1.49.15.39.28.77.41,1.16.3.03.64.09,1.03.2-.18,3.45,3.09,14.69,2.72,19.51.03.12.05.23.08.35.59,2.43,1.24,4.85,1.94,7.26.09-.04.19-.08.28-.12.04.54.1,1.08.17,1.61.52,1.72,1.05,3.44,1.63,5.15,1.43,4.27,3.64,8.31,5.96,12.15,2.21,3.64,4.68,7.12,7.29,10.48,2.47,3.19,4.82,6.43,7.13,9.73,1.55,2.21,3.17,4.4,4.94,6.44,1.07.98,2.02,1.85,2.71,2.33l18.16,9.62c-.05.23-.11.42-.16.6,1.34.49,2.68.95,4.04,1.36,1.56.13,4.87.99,7.89,1.87.04,0,.08.02.12.02,0,0,.01.02.02.02,2.22.65,4.26,1.32,5.29,1.71,6.79,2.6,24.7,6.03,33.6,7.59,14.34,2.52,31.7,3.08,45.74,6.7,3.51-.13,6.8.71,10.03,1.83l46.8,6.94c4.18.11,8.31.81,12.45,1.31,6.78-.13,18.58.4,21.68.06,5.8-.63,13.08-3.83,17.27-4.37.13-.02.27-.02.42-.02.53-.84,1.06-1.69,1.61-2.52,1.31-1.95,2.74-3.91,4.6-5.37.07-.06.13,0,.17.1.34-.12.8.05,1.43.65.34.32.58.65.78.99,0-.12.01-.23.02-.31,0-.05.1-.92.27-.7,2.42,3.1,3.62,6.98,4.31,10.8.39,2.15.63,4.33.77,6.51.13-.09.24-.2.37-.28l.5,16,1.99-1.02.02,18.01,1.51-1c-.64-19.46-.7-39.03,1.52-58.46.13-1.18,1.95-4.34,1.98-1.03-1.92,12.73-2.09,25.64-2.01,38.49,1.45.23,1.38-1.76,1.68-2.8,1.25-4.36.2-10.46,3.31-13.2v19.5c0,.73.11,2.91.49,3.5,1.66-1.14,1.43-2.73,1.56-4.44,1.64-22.69-1.66-46.71-2.95-69.16-.13-2.3,1.46-4.87.89-7.39l-2.98,4-1-8.99c2.12-.22,6.06.37,6.83,2.66.21.62.95,11.79.89,13.05-.1,2.06-3.2,5.82-1.72,9.28l1.98-1.99c1.62,14.21,2.71,28.65,3.02,42.99,2.13-.9.99-5.78.99-7.49v-17.5c4.8,2.19,1.44,3.38,1.21,5.64-.52,5.11,5.49,4.08,5.79,4.36,1.23,1.15-1.66,5.43-1.65,6.5,0,1.07,1.47,2.21,1.41,3.82-.07,1.99-6.04,9.52-.28,9.69,2.86.08.39-14.47,1.46-16.29.29-.5,6.35-3.6,6.93-5.38.67-2.09-.96-5.8.12-8.34ZM628.32,407.84c-.2-.33.91-1.69.81-1.79-.44-.43-7.63-1.79-8-5.03,4.02.27,11.94-3.77,15.27-2.84,3.23.9,6.1,9.39,4.68,10.78-.55.54-3.28-.91-2.95,1.03l4.99,3.01c-3.51-2.39-12.26-1.05-14.8-5.18Z"></path>
        <path d="M768.13,421.01c-2.25-4.15-7.25-5.58-9-9.98l8.99-1c-3.26-1.46-11.4-1.45-13.91-2.56-3.93-1.74-10.46-7.78-14.45-10.09-1.91-1.1-5.67-2.33-7.64-3.36-.96-.5-.86-1.72-1.72-1.95-2.5-.68-6.12-.15-8.6-.45-.97-.12-2.93-.17-2.67-1.58l43.99-2c-15.24-2.76-32.7-3.76-46.98,2.99-1.25-3.1,1.7-6.93,1.53-9.1-.07-.91-6.34-15.57-7.11-16.83-3.02-4.92-5.89-3.57-9.66-5.17-1.05-.44-2.66-2.47-5.49-2.7-.77-.06-11.15,3.3-11.84,3.72-1.88,1.17-3.22,5.2-5.42,6.58-1.01,1.59,2.83,1.52,2.99,1.49-1.31-5.8,6.78-8.29,11.47-8.02,1.82.11,13.13,2.85,14.51,3.54,2.42,1.22,2.57,5.02,4.01,6.99.22.99-1.4.26-1.99.49,6.3,7.09,8.7,11.48,0,18.5l4.99-.5c1.62,6.78-3.52,9.5-5.99,14.99l7.92-7.62c1.67-1.14-1.43-6.33,1.56-5.35,7.28,3.87,15.58,6.17,22.74,10.27,1.48.84,5.24,2.53,4.78,4.72-10.38-2.79-21.3-1.74-31.99-1.99l15.85,3.34c.05-.29.12-.51.17-.5,1.63.47,3.3.6,4.98.69v-.53c.49.25,1.01.44,1.54.61,1.61.09,3.21.23,4.77.68.04.01.07.05.1.09,4.08.2,8.42-.19,11.88,1.61.22.12,3.53,3.33,3.59,3.58.34,1.42-2.15,4.52-1.92,6.91.33,3.4,5.54,3.83,6.09,1.88,1.03-3.66-4.16-4.3-3.04-8.38,3.66,1.97,6.48,5.83,10.99,5.99Z"></path>
        <path d="M751.31,399.3c.04,2.51,1.6,4.77,4.33,4.61,8.52-.49,4.09-6.54,4.5-6.89l14.99.98-9.97-2.53-32.55-3.44-.48,1.98,21.99,2.01c-.12,1.99-2.86.64-2.82,3.27Z"></path>
        <path d="M696.14,453.02c-.01-2.68-1.46-4.94,0-8-4.7.06-4.3,7.7-5.5,7.99-7.08,1.71-.72-12.15-.69-14.67.02-1.62-2.22-2.64-1.71-4.62.24-.94,4.23-6.42,4.96-8.13-2.79-4.8-1.94-9.81-9.04-7.58l-.51-2.98c-3.09-.39-.29,4.09-2.42,5.55-1.22.84-3.56.35-5.06.44-1.07-7.64,1.73-3.78,3.81-5.17,4.49-3-4.9-4.35-5.65-6.49-.45-1.28,0-3.14-.41-4.59-2.81-10.23-6.33-20.25-8.26-30.74-2.18-3.15-4.15,2.17-5.59,3.39-4.94,4.19-9.88,2.25-15.89,2.6-1.72-1.3.13-1.8,1.48-1.98,2.79-.37,5.57.13,8.5-.73,16.88-4.97,4.34-14.32,5.21-19.61.5-3.03,5.95-8.82,9.8-7.69-5.08-5.68-8.94-12.58-11.01-19.98-1.79-.22-.98,2.33-.94,3.5.06,2.15,1.09,3.59.15,6.1-.62,1.67-2.46,1.42-2.19,1.9.72,1.26,4.88,2.21,3.99,5.5-3.55-3.32-6.99-5.51-11.9-6.4l-36.79,4.1-12.3-2.71,1.99-1.98-7.99-2c-.19,1.74,2.4,1.13,3.39,1.91.86.68.37,2.07.92,2.71.8.94,2.11,1.12,2.92,2.61,4.75,8.67,5.42,21.72,13.68,28.35,3.32,2.66,8.76,1.53,12.07,4.77l13.01,1.63c-5.88-1.14-13.96,1.56-19.33.61-3.86-.68-7.61-4.03-9.31-4.3s-5.02,1.81-6.35-1.8c-.27-.74,2.93-.99,2.98-1.99.02-.33-3.54-4.22-3.5-5.52-7.45,5.6-21.88,5.71-20.49,18.02-2.95,1.67-8.25-2.47-4.46-2.98.57-.08,2.18,1.17,2.41.95.1-.1.18-1.91.66-2.83,5.04-9.68,10.23-8.91,19.39-13.16-3.14-4.59-10.24.45-15-1,3.88-5.11,11.33-3.89,17-4l-3.01-12.98c-1.59-.44-.64,1.43-1.23,1.69-3.53,1.59-13.54,4.62-15.81,7.75-1.7,2.35-3.84,9.49-3.96,12.55-2.46.4-2.22-.46-2.02-2.52.31-3.2,2.44-5.89,2.98-9.04l6.05-6.44c-4.01,0-7.81,2.27-11.58,2.91-1.01.17-3.68.8-3.41-.91l4.53-.97,7.46-4.03c-5.07-.31-11.86.93-16.53,2.95-3.5,1.51-6.31,5.31-7.97,6.03-1.18.51-1.99-.3-1.48-1.48,1.41-3.28,9.26-7.45,12.72-8.28,9.22-2.2,18.93.38,28.26-2.24,1.03-.89-3.77-5.74-4.47-5.75-.55,0-4.19,3.08-6.52,1.76.06-3.05.93-5.17-2.52-5.99s.7,4.82-.48,5.97c-4.7,2.31-9.03-4.61-10.56-4.95-2.61-.59-3.15,4.71-3.47,4.94-1.62,1.16-4.9-2.95-6.84-1.85-2.36,3.17-1.38,7.6-4.64,9.86-2.88.63-.88-3.42-1.49-4-.11-.1-2.88-.09-2.99.01-.58.56,2.63,14.24-6,11,.37,2.27,3.72,1.67,4.58,2.94,1,1.47-.31,3.42.04,5.1.52,2.53,5.7,4.09,4.39,8.94,1.06-.26,5.64-2.11,5.89-1.94.33.23,2.85,5.95,4.1,6.93-5.77-.1-14.18-1.12-15.01-7.99-2.01-.04-2.79,3.86-3.01,4-.53.34-1.29-1.19-2.06-1.43-2.59-.8-4.15.82-4.92-4.05,4.12-1.94,8.79-1.13,6.99-7.52-3.51-.82-.88,1.9-.99,1.98-4.25,3.32-11.37-4.34-6.41-5.89,5.37-1.69,3.15,2.74,3.4,2.9,4.31,2.65,3.77-6.05-2-4l2.99-1.98c-11.56,3.42-11.78-7.54-1.01-2.01-.52-1.63,1.16-4.42.9-5.45-.44-1.76-4.63-.53-1.89-4.54l-3.99,2.99c-1.02-4.72,1.4-7.26,5.99-6-.62-1.85-3.12-3.57-1.03-5.49,3.12-2.87,5.79-.28,7.47-.65,1.04-.23,1.14-2.2,2.31-2.85,3.64-2,21.72-2.36,25.76-1.59,1.2.23,1.79,1.94,3.14,2.2,4.5.88,13.45,1.42,17.01,3.11,2.93,1.39,4.85,5.15,9.31,5.27.37-1.8-.86-2.5-2.05-3.44-9.39-7.45-31.44-10.18-43.53-11.14s-25.86-1.59-34.45,8.07c-2.53,2.85-.69,9.71-4.93,11.98-1.27.68-6.15-2.17-8.02,2.03,1.61,2.93,5.21-2.28,6.97-.49,2.1,2.13-3.46,4.91-5.5,4.93-2.24.02-4.36-2.55-6.24-2.8-2.14-.29-2.38,1.02-3.29,1.36-3.72,1.37-.16-2.82-.1-3.16.09-.54-3.6-5.35,1.63-5.33,1.16,0-.34,2.44,1.5,2.01,1.24-4.63-2.65-2.28-4.74-4.24-5.47-5.13,11.53-11.94,16.18-11.69,6.16.33,6.69,6.75,12.23-3.92,11.73-2.45,23.5-2.02,35.34-.17.7-.58-5.86-7.58-6.73-8.03-3.48-1.83-3.74-1.15-8.54-4.3-2.26-1.48-11.94-6.04-12.3-6.64-.61-1,.71-2.92,1.82-3.39,4.8-2,15.96,4.68,19.75,7.86,4.56,3.82,5.59,8.25,12.99,8.5l-8.47-12.02c-4.18-2.61-13.83-11.48-2.98-10.54,5.49.47,7.11,7.57,9.84,11.12,1.9,2.47,5.23,4.98,7.08,7.48,2.06,2.78,2.53,7.26,6.53,9.47-3.55,2.65-5.49-.23-8.99-.49.32,2.01,3.09-.08.99,2.98,12.38-.68,23.13,5.23,31.87,13.5,13.17.67,28.28-7.49,40.13-.49-.63-4.99.67-10.8.52-15.54-.3-9.12-.23-10.96.5-20.04.11-1.4-.89-10.66-1.22-11.71-1.08-3.4-11.1-8.16-13.43-11.06s-1.07-7.93-5.34-8.65c3.86,8.88.9,7.23-3.57,12.02-3.98,4.27,5.67,8.79,8.12,7.63,1.77-.84.88-4.11,2.95-1.66l-.49,11.35c-4.81,1.82.94,6.14,2.85,9.38,1.35,2.28,2.81,4.54,4.13,6.79,3.92,6.69,4.6,8.55,2.98,16.49l-2.57-8.92c-2.43-2.78-5.55-5.26-6.43-9.07l-1.98,1.99c1.7-5.49-2.61-8.73-3.75-12.76-1.64-5.82,1.8-6.84-8.2-4.13.28,6.62,8.07,11.79,10.36,15.97,1.02,1.87,4.25,9.92,4.88,12.11.46,1.59.88,3.13.68,4.81-2.62-.89-1.55-3.91-2.57-5.96-.41-.82-3.8-2.61-4.34-3.82-.83-1.87-.54-4.08-1.42-5.89s-6.99-5.55-8.17-8.31c-1.89-.83-2.2,4.15-2.24,4.81-.52,10.28,8.38,11.89,12.75,19.17-4.36-.15-7.22-2.61-10.52-5.01-.88-.64-1.11-2.28-1.75-2.7-7.41-4.88-14.22,8.8-16.73,6.71,1.73-2.68,4.1-7.62,6.3-9.68.98-.92,2.91-1.17,4.21-2.29,3.76-3.22,1.86-5.79,3.14-9.87.68-2.19,3-3.87,3.19-4.8.21-1.06-2.64-6.44-3.24-8.3-.23-.72.56-1.95.4-2.04-.86-.48-3.63,1.07-5.3.82s-2.77-2.25-4.7-1.82c4.03,4.37-6.74,12.96-10.36,12.67-5.16-.42-8.31-3.83-7.63-9.09.58-4.53,5.31-4.87-4.01-5.58.08,4.95-.46,7.13-6,5-.03,4.78,6.87,3.97,9.28,5.93,1.59,1.3,1.25,4.21,3.37,4.91,2.22.73,7.09.06,9.85.16,1.21.04,3.72-.75,3.48.99-3.59-.02-12.49,2.54-15.31,2.04-.69-.12-.71-1.71-1.47-1.99-2.98-1.12-6.6-.37-9.7-3.04-1.68,2.34,3.1,3.95,3.49,6-2.33.09-7.36-2.39-7.75-4.61s.61-6.76,3.76-5.39c-2.08-2.98-3.52-5.35-2-8.99l6.98,2.99c1.7-1.88-.22-5.76,0-5.99,1.75-1.83,12.94-1.48,16.01-3.02-2.17-4.03-18.25-7.98-21.35-6.9-2.34.82-.74,4.21-3.29,5.77-1.55.95-10.89,2.52-12.82,2.18-4.24-.74-4.13-8.43-5.66-9.89-.09-.09-1.51.52-2.53.09-6.89-2.85-3.59-1.17-10.13-.55s-7.77-2.78-13.21-4.68c.92,3.21,4.94,19.9-1.5,17.99-1.6-.48-2.35-6.23-2.5-7.99l3.5,6.99c3.14-5.77-1.28-12.4-3-17.99-5.36,2.1-4.59,6.66-7.13,10.88-.87,1.44-5.88,8.03-6.97,9.03-3.27,3.01-7.54,2.8-5.49-1.39.58-1.19,7.59-11.07,7.08-11.51-3.27.4-7.69,5.83-11.05,3.54-1.55-1.06-.6-4.92.37-6.24,1.64-2.25,5.58-1.39,6.67-3.3-3.64-.75-6.81-4.77-10.48-5.1-1.34-.12-11.92,2.1-12.55,2.54-1.05.74-4.47,19.51-4.84,22.16-.98,6.97-2.04,35.24-5.64,39.45-.58.67-1.59.06-2.24.4-.26.14-.16,1.22-.74,1.3-1.69.22-10.11-.7-11.49-1.29-2.85-1.21-3.57-6.26-3.89-9.11-2.14-18.98.69-35.24,5.87-53.36-4.86-.96-13.69-3.24-18.35-1.68-1.34.45-2.08,1.98-3.43,2.41-8.14,2.58-15.57-1.7-22.66,3.37-1.49,1.07-1.52,4.23-3.49,2.79-.16-.12.07-1.36-.3-1.6-2.03-1.34-12.15.77-14.07,2.66-1.36,1.33-.75,4.58-3.71,4.05-2.53-4.72,3.56-9.83,7.93-10.57,3.6-.61,8.42,2.39,9.58,2.3.83-.06,7.11-6.56,15-6.32,2.19.07,9.11,2.97,9.47,2.59.11-.11-.11-1.93.56-2.9,3.95-5.63,20.27-3.04,25.44.89,3-8.85,4.34-19.38,7.53-27.98,5.43-14.63,20.73-35.45,35.29-40.71,3.59-1.29,16.9-4.12,20.55-3.24.72.17.52,1.58,1.13,1.71,2.2.45,5.04-.14,8.12,1.07.75.29,12.96,7.6,13.65,8.12,3.91,2.91,9.11,14.46,13.6,19.66,1.2,1.38.93,4.53,4.58,4.45,1.07-.02-.17-2.51,1.54-2.07-.17,2.8,1.56,4.31,3.52,5.99,2.93-7.75-3.06-14.63-2.01-21.99,2.24,3.8,5.36,12.45,5.41,16.58,0,.47-1.94.37-1.96.94-.27,6.32,17.84,15.35,21.56,20.48-.38-11.2-14.06-12.22-1.51-22.99-.49,1.72.8,4.27.61,5.54s-2.57,2.44-2.59,2.95c-.01.43,4.34,4.43,5.38,6.6.98,2.05,1.39,6.15,1.8,6.7.49.66,2.3.55,3.08,1.18.97.79.79,2.12,2.61,2.59,3.21.83,7.65-.64,9.11,3.42-3.99,1.21-27.14-4.11-27.99-2.99-1.44,1.89,5.14,4,5.49,4h17.5c-.34,2.12-1.7,1.22-2.65,1.45-3.19.78-9.02,2.61-11.85,2.63-5.75.04-17.33-5.78-24.01-6.57-.56-.07-4.34.34-4.5.5-2.86,2.85,7.61,6.09,9.16,7.11,6.05,3.99,7.08,12.98,10.51,14.82,1.91,1.03,2.93-.05,3.69.14.72.18.54,1.59,1.39,1.86,2.46.78,5.74.72,8.25,2.05.45-2.32-2.28-2.88-2.82-4.71-2.78-9.26,17.52-13.66,23.82-10.29,1.08-1.12-4.56-7-2.5-8.99,4.3,1.37,5.16,7.67,6.93,9.07,1.37,1.09,6.58,1.74,7.34,3.15.59,1.08-.05,2.94.46,4,3.38,6.96,13.03,8.29,15.78,15.76,1.75.27,1.08-2.38.76-3.26-1.91-5.16-5.36-8.11-6.63-15.32-.39-2.19-1.85-5.84.36-7.39,2.77,3.35,3.06,9.87,4.55,13.33,1.19,2.76,3.28,3.18,3.93,4.42,1.07,2.05.18,6.2,3.01,7.23-1.31-2.78,1.67-6.57,1.55-8.07-.33-4.16-3.69-14.22-6.55-17.42-4.16-4.65-18.27-18.22-19.03-24.06-.27-2.09,1.08-4.32.98-6.81-.15-3.83-3.04-7.04-2.88-10.98.24-5.92,4.93-20.77,8.51-25.6.57-.77,1.24-1.42,1.94-2.06.65,3.46-2.81,9.33-3.29,12.72-.26,1.84.43,6.03.33,8.58-.25,6.14-2.2,10.66,2.42,16.96,1.06,1.45,3.55,1.82,4.5,3.78,2.83,5.87,5.44,15.42,8.5,21.3.25.47,6.23,4.66,7.75,6.95,1.02,1.54-.86,4.95,4.28,4.71-.41-1.92.97-4.04.97-5.66,0-2.76-2.92-10.31-2.81-14.88.03-1.04,2.42-11.52,2.83-11.98.53-.61,3.48-1.85,4-1.49.27,1.55.91,2.95,1.05,4.55.58,6.85,2.15,12.96.72,19.83-.33,1.55-4.07,3.36-2.74,6.62,2.44-2.64,4.36-.6,7.24-1.16.94-.18,9.18-3.74,9.79-4.3,8.08-7.28,4.91-20.7,2.68-29.77-.24-.99-.3-3-1.71-2.76-1.37,4.91.43,9.13-1.11,14.21-.42,1.39-2.9,7.22-3.88,9.31-.47,1.01-5.61,9.87-7.02,8.46,2.87-5.34,6.42-11.94,7.51-17.96.41-2.25.76-17.46.44-19.47-.56-3.62-5-8.08-5.94-11.08-1.02-3.24,3.25-.15,3.98.52-.1-.77.22-1.85.04-2.43-.71-2.25-15.45-9.12-18.53-11.57-5.27-4.19-6.86-13.81-14.02-16.99-3-1.33.81,7.64,1.06,8.94.72,3.73.84,7.51,1.73,11.27.49,2.05,4.38,6.51,1.73,7.77-5.76-10.12-2.88-23.33-11.01-31.98,6.11,1.01,13.25,4.54,17.39,9.1,2.56,2.82,4.56,8.69,6.69,10.31,3.12,2.38,10.53,3.77,13.83,6.17,1.93,1.4,4.79,5.5,6.59,7.4,1.56-2.8.5-6.32,1.57-9.43,2.03-5.92,6.3-4.7,9.47-7.53,2.78-2.48,2.92-7.65,9.05-8.04,4.41-.28,3.3,3.12,2.79,6.12-2.23,13.09-2.93,8.77-11.66,13.88-.8.47-6.23,5.04-6.5,5.74-.4,1.03.09,2.61-.27,3.52s-1.85.73-1.98,1.38c-.42,2.11,2.32,6.12,2.58,9.31.37,4.64.91,9.06,1.32,13.68.98,11.18.73,18.75-8.81,26.01l.95,23.34c-2.71.44-1.76-.44-2.23-2.19-1.68-6.34-3.23-12.12-3.25-18.79-4.06,1.82-8.96,1.87-12.29,5.19-.2.2.66,1.11.46,1.56-.11.25-1.64.22-1.74.86-.27,1.79,2.56,14.84,3.3,17.62.62,2.32,3.95,7.83-1.82,3.82-4.43-3.08-4.71-17.75-5.44-23.07h-2.99c-.5,3.23,2.7,5.53,2.64,8.52-.05,2.35-2.54,7.89-3.16,10.47-.41,1.7-1.54,11.41-1.98,12.03-4.72,6.76-1.54-13.52-6.51-12.01-.12,2.01,1.65,8.4,1.6,9.47-.08,1.8-2.3,4.88-2.61,8.02-.55,5.65,1.99,10.12.99,15.5,6.69-1.35,7.17,3.76,10.06,7.23.92,1.1,2.85,2.15,3.53,3.16,3.61,5.43,3.86,9.04,4.32,15.18.04.54-1.57.35-1.69.89-1.13,5.18-1.42,6.87-4.23,11.82-.37.66-1.96.66-2.04,1.34-.19,1.65,4.72,12.65,5.56,15.37l.51-7.99c3.54,1.24,1.03,4.88,1.34,7.47.19,1.56,1.18,6.8,1.62,7.88.5,1.22,2.35.21,3.12,1.25,1.15,1.55.93,5.9,3.41,7.38,3.99-3.79,6.84-5.46,12.5-5.48-1.12-2.49-8.49-5.27-8.81-5.7-1.3-1.76-2.62-13.15-3.25-16.03-.21-.94-1.85-1.38-1.94-1.77,5.03-.92,5.2-3.85,9.27-5.24,4.57-1.55,7.34.3,11.72,1.25l-2.99,1c-.59.44,3.68,4.16,5.49,4.04,1.35-.09-1.35-4.65,4.51,1.95-1.62.62-.35,2.07-.67,3.83-1.47,7.98-4.9,10.25-13.33,10.18-.49,5.11.88,1.98,3.39,2.27,1.13.13,2.23,1.41,3.11,1.39,1.37-.04,5.29-4.78,6.51-3.65-5.2,4.02,4.35,7.16,2.27,11.69-1.74,3.78-19.02,18.26-20.26,8.3,6.49.17,12.65-5.86,17-10.01h-15.5c-.84,0-6.62,9.47-12.92,5.09-1.19-.83.22-4.8-2.6-2.58,1.81,3.64-.05,8.28,2.56,11.46,2.22,2.72,4.59.61,7.46,1.44,1.2.34,5.79,3.75,6.65,4.84.46.59,1.35,6.19,3.3,8.09,1.11,1.08,2.6.06,3.36,1.9.71,1.71-.33,4.58-1.82,5.74-2.22-2.92-.51-4.91-5.5-3.97-.26,1.68,2.56,1.02,2.91,2.55.27,1.14-3.79,9.2-.42,9.41,3.61.23,2.89-6.84,5.02-7.96,1.77-.93,2.13,2.76,2.12,3.67-.04,2.86-2.07,6.18-1.66,8.65.12.75,1.79.71,2.35,1.89,2.41,5.1-.69,3.08-1.98,4.06-2.08,1.57.03,1.58-4.33,2.73,0,1.11-.75,1.98-1,2.99.5.4,6.56-3.09,7.87,1.73.73,2.66-1.33,3.59-1.46,4.8-.17,1.59,2.03,4.18,1.62,6.93-.31,2.1-2.48,2.88-2.66,4.01-.51,3.27,5.39,9.9,2.39,13.37-.32.38-1.85,0-2.43.45-.98.76-.96,3.06-2.83,2.71-3.2-.61,2.12-7.64,1.55-10.32-.07-.31-4.85-3.91-5.06-3.68-2.04,2.27,2.99,3.53,3.03,5.45s-4.07,6.69-4.04,9.54c1.33,1.64,5.67-1.25,5.02,1.52-.13.55-2.24,8.36-4.01,6.48,2.12-6.36-.08-2.87-1.03-3.48-1.6-1.02-3.37-14.48-3.6-17.19-.45-5.22-1.28-4.27-1.42-4.97-.51-2.73,2.09-10.09,2.03-11.86-.07-1.96-3.94-3.91.08-6.94,1.77-1.33,4.08-1.07,5.94-1.55ZM700.44,199.33c-1.47,1.27-3.08,7.34-.78,7.69,3.37.51,15.09-9.55,12.47-15-2.75,3-9.19,5.15-11.69,7.31ZM576.42,285.12c-2.46-6.24-8.05-56.98-11.99-57.31-1.64-.14-3.18-3.04-4.83-5.72-3.71-6.06-7.18-5.77-10.45-8.59s-2.3-5.12-9.48-7.52c-27.39-9.15-46.56,15.68-55.08,38.01-5.23,13.7-11.95,34.19-14.96,48.48-1.76,8.34-1.55,30.44-1.75,38.94,1.68,1.21,12.24.4,12.61-.23.57-2.49,1.27-17.13,1.62-19.66,3.35-24.27,9.7-62.99,27.02-80.98,2.49-2.58,11.14-10.64,13.76-12.52,11.02-7.88,20.86.19,32.23,3.02-.34,2.24-4.38-.53-3.02,3.49.16.48,1.9.77,2.39,1.58,2.63,4.32,3.4,9.34,5.21,12.32.52.87,7.64,47.31,7.85,47.52.76.76,7.31-1.12,8.87-.82ZM548.5,226.67c-5.46-6.73-12.54-10.78-21.11-5.96-1.69.95-12.84,11.34-14.64,13.39-5.71,6.53-12.86,19.08-16.37,26.66-.47,1.01-2.56,6.94-2.23,7.26,4.25-.94,9.4-3.28,13.84-2.39,3.18.64,9.63,8.22,11.46,8.2.67,0,11.31-3.81,12.6-4.41,2.87-1.32,4.61-4.62,8.09-4.41-1.64-2.94-12.37-6.93-6.98-9.55,1.21-.59,7.07,1.56,8.5,2.54l.47-1.98c5.72-1.43,9.66,3.19,14.9.9.52-.88-.6-13.07-1.03-13.76-.49-.8-9.1-2.61-10.85-3.16.58-1.3,1.77-7.66,2.01-8,.06-.08,1.22.9,1.76.7.15-.06,2.24-2.1,2.26-2.26.41-3.09-1.69-2.58-2.66-3.78ZM595.13,253.03c-7.49-2.17-13.87-7.01-21.99-7l1.01,8.98c5.84-.73,11.62-.8,17.5-.99,1.2-.04,3.72.75,3.48-.99ZM562.12,277.02c.18-6.41-2.75-12.96-9.76-13.84-2.19-.28-13.44,5.33-14.22,7.35-.65,1.69,6.53,4.17,7.72,5.37,5.38-2.06,11.29-2.62,16.26,1.11ZM588.14,280.02l-2.42-8.08-9.58-5.91c1.59,3.01-1.07,11.4,3.99,10l-2.99,2.99,3.99-1v3.01s7-1.01,7-1.01ZM631.92,280.82c2.87-4.95-4.95-9.39-9.29-9.82-.83-.08-8.27-.35-8.48.02-2.36,4.14,5.74,1.45,6.54,1.46,2.7,0,4.8,4.38,4.47,6.84-.13.95-3.99,2.28-4.01,3.69,2.46-1.1,3.32,2.06,3.55,2.06.86.03,7.02-3.89,7.23-4.25ZM599.14,305.03c.99,1.08,10.54-3.42,11.54-5.02,1.54-2.47-1.83-9.25-5.55-7.97l.5,2.01-5.47.48,4.97,3.98c-2.31,3.26-3.43.58-5.03.02-3.05-1.06-.39,4.61-.95,6.5ZM524.13,332.02l-12.99,6.01,3.01,6.99c8.57-1.4,11.13-4.01,9.98-13Z"></path>
        <path d="M720.14,239.02c-.56.82-1.69,1.04-2.54,2.99-1.43,3.24-1.75,8.52-3.47,12.01l-1.97-2.99v5.98c-.82-.1-2.78.21-3.01,0-1.51-1.38,7.81-21.05,7.79-25.71-.01-1.97-5.38-6.01-2.79-10.28l4.98,3.99c1.84-6.06-.69-4.54-2.05-6.69-.47-.75-2.18-7.01-1.94-7.3,2.25-2.73,2.78,4.79,3.02,4.99,3.33,2.76,4.86-6.58,5.93-8.55,3.81-7.05,18.54-30.82,24.12-34.88,4.73-3.44,12.53-6.25,17.83-9.17,5.94-3.27,10.08-7.1,17.13-9.87,3.67-1.44,9.4-1.4,11.98-4.51-5.1.75-10.3,1.78-15.46,1.72-10.98-.14-26.42-3.5-37.01-2.68-4.29.33-8.84,2.39-12.89,2.62-4.31.24-7.76-3.56-13.41-.93-6.67,3.11,1.42,14.52.63,17.53-1.3,4.94-9.9,3.37-11.41,5.69-2.55,3.93,4.64,16.71-2.95,17.05,2-5.2-2.85-12.86-.79-17.72,2.37-5.58,12.12-3.41,12.26-5.78-3.82-3.92-6.08-18.14-.25-20.28,5.92-2.17,9.69.82,14.77.84,3.7.02,7.98-1.81,11.96-2.11,8.32-.62,17.5,2.31,24.52,1.62s11.92-10.52,21.48-8.62c3.09.61,1.96,2.88,3.56,4.52.9.93,3.14,1.41,4.54,2.48,1.05.8,1.28,2.75,1.54,2.95.53.4,12.79-4.11,9.91,2.59-9.9,3.9-20.46,6.68-30.25,10.76-4.56,1.9-11.28,4.94-15.81,7.19-14.9,7.42-17.95,17.08-25.59,30.41-2.53,4.41-6.75,7.77-7.36,13.13l4.99-1.99c-.2,1.38.49,3.81-.15,4.84-.32.51-8.04,3.75-8.71,4.29-.19.15.48,3.79-.12,4.87,6.83-4.04,13.24-5.62,17.5-12.99-1.36,8.6,4.05,2.33,9.2,1.19,4.85-1.08,1.02,2.93-.82,4.19-2.83,1.93-10.41,3.67-11.64,4.87-.86.83-1.18,3.3-2.68,4.82-5.14,5.23-9.04,4.84-14.57,12.93.24-.55,8.81-5.34,10.3-6.2,2.47-1.44,4.58-2.93,6.77-4.23,1.61-.96,4.22-.85,5.92-2.57,1.31,4.18-2.38,6.89-5.63,8.86-2.91,1.77-12.69,6.14-15.91,7.09-2.03.6-1.84-2.07-1.45-2.96Z"></path>
        <path d="M708.11,269.02c-6.31,4.28,2.78,5.11,4.77,7.25,2.48,2.66,1.51,8.3,7.74,12.8,2.22,1.61,5.2-.15,2.85,4.72-.39.81-4.36,3.89-4.96,4-1.13.2-2.59-.83-3.87-.73-1.88.14-8.17,1.29-9.47.49-4.21-2.57-1.87-11.53-4.53-15.51-4.41,4.3-.16,8.13.02,11.47.1,1.92-2.11,15.78-1.52,16.52l7.48-5.01c2.55-.91.99,3.59.51,4.32-.57.88-6.69,3.46-6.92,3.77-.94,1.26,1.42,5.37.92,5.91l-3.48-2.99-12.5,9.99,2.99-17.01h2.99s.5,6,.5,6c4.73-4.82,5.22-12.5,5.49-18.99l-1,4.99c-3.42-1.82.02-8.44-.03-12.45-.07-5.54-1.74-13.03-2.96-18.54,2.47-2.65,3.56,7.63,4.01,7.99,8.57-4.56-4.54-16.68,5.98-17.99.24,1.61-1.68.63-2.36,2.22-1.61,3.79-.25,6.94,3.83,7.77,1.55-.3,1.95-7.27,5.8-9.28,4.72-2.47,13.36-4.28,17.22.28.77.91,1.48,4.21,2,3.99,3.75-1.57-.06-5.67-2.19-6.89-3.17-1.81-9.71-.77-13.3-1.12l12.22-1.8c5.54,1.04,9.82,6.23,7.13,11.83-4.6,9.58-20.17,10.63-25.38,1.98ZM710.84,278.3c-.36-.47-6.38-4.53-6.69-4.28-3.7,6.88,1.95,11.81,2.17,18.81,4.78,2.01,9.75-.59,14.81.19.56-2.29-.4-1.64-1.27-2.3-1.63-1.24-6.27-4.18-7.18-5.74-1.11-1.9-.24-4.59-1.84-6.67Z"></path>
        <path d="M732.14,291.03c8.47,8.23,4.77-3.96,12-4-3.66,4.02-1.72,8.21,2.99,3.99-1.95,4.03,1.11,3.1,1.79,4.22.62,1.03-.18,2.95.38,3.59.52.59,4.25.09,3.86,3.18,1.49,1.21,2.86-7.86,2.73-8.55-.21-1.12-12.36-2.6-7.5-8.19s6.93,4.55,7.74,5.25c2.03,1.73,8.43,1.26,5.94,7.43-1.56,1.17-5.76-1.19-5.92-.94-.89,1.41.88,7.53-5.56,8.98-5.1,1.14-4.03-1.76-7.41-3.6-2.23-1.21-3.85-.45-5.8-1.03-1.41-.42-4.45-3.01-5.23-2.35-1.91,1.62,1.9,2.07,2.02,2.64.29,1.35-.14,2.95-.02,4.36,3.22-.98,6.71-1.33,6,3,2.24-1.74,4.04-2.48,6.99-1.99-1.14,1.88-3.62.43-4,3.98,3.34,1.76,4.97-.43,6.69-.69,2.88-.44,5.31,2.73,2.09,2.4-6.07-.63-.46,5.07-.78,5.3-4.39.61-7.17-.22-11.01-1.98,2.18,2.99-3.3,4.53-2.6-.55.22-1.56,3.21-2.22,2.59-4.46l-4.99,1.99c-.27-1.64,2.65-1.2,3-2.5.31-1.2-1.25-2.75-2.48-2.48-2.03.44-2.98,4.37-3.86,5.66-.49.72-2.57,1.17-2.65,1.82-.19,1.55,2.82,2.19,2.98,3.5-5.18-.68-6.24,4.09-8.73,6.04-3.1,2.42-5.67,1.51-7.62,2.04-.78.21-.59,1.84-1.3,1.97-3.13.59-11.76-1.92-15.33-2.05l8.67-1.9c5.28,1.51,8.72-3.14,14.11-3.29,3.21-4.43-2.31-11.05,1.94-14.85,3.05-2.72,6.7-.18,5.27-6.95-1.86-.22-2.95,2.71-3.15,2.78-1.32.44-4.94-3.06-4.85,3.22-1.72.29-1.12-2.49-.81-3.31,1.07-2.88,9.08-5.7,10.81-9.2l-3.99-1.49c.34-1.26,2.69-7.71,3.04-7.96,2.73-1.88,10.63,7,1.95,6.97Z"></path>
        <path d="M786.13,248.03l-3.98,2.49c.03.98,11.35,9.3,12.66,10.81,2.02,2.33,3.72,7.37,6.82,9.69,2.2-4.04.38-10.52,1.66-14.33.37-1.1,5.26-4.29,6.35-4.31.9-.02,2,1.26,2.96,1.26,1.64,0,3.41-1.72,4.89-1.41.33.07,5.26,3.17,5.68,3.54.44.39,4.31,5.21,1.47,5.25-.76,0-14.94-11.49-11.5-3.48.95,2.21,4.62,1.14,6.73,1.82.51.16,6.07,7.63,5,9.03-.62,1.44-10.81,7.05-12.25,7.19-2.2.22-7.73-2.57-8.34-2.37-1.68.55-5.02,10.24-6.46,11.53-5.79,5.21-16.98,7.82-24.69,7.3l16.74-5.75c4.86-2.78,6.61-7.94,9.84-12.18-4.01-7.96-10.93-13.94-17.51-19.69-.72-.63-1-2.11-1.26-2.25-1.01-.55-4.18,2.65-5.81-2.63,4.81.83,6.46-3.06,10.99-1.48ZM810.06,255.09c-1.38-.91-4.72,1.8-4.88,2.65-.21,1.11-1.18,10.62-.9,11.1.14.25,3.73,2,4.42,2.12,6.77,1.16,8.34-3.35,14.44-3.96.35-1.51-1.32-.71-2.01-1.67-.74-1.05-.76-3.14-1.96-3.84-1.74-1.03-4.4.15-6.61-1.39-1.63-1.14-2.26-4.86-2.5-5.01Z"></path>
        <path d="M754.14,264.02c-2.36,2.45-3.07,1.6-2.47,6-4.05,3.85-3.26-5.58-2.64-6.41.73-.99,2.46-.27,2.91-.74.77-.79-.3-4.62,2.19-4.85l.02,3.01c5.1-1.98,7.56-7.14,10.99-11-5.91-2.69-10.34,3.02-15.99,3l2.99,2.99c-5.29-1.8-6.96-.32-11.46,2.03l-2.55-7.51c4.86-2.9,2.8,4.39,4.51,4.46,1.38.06,2.61-2.57,3.24-2.95,5.61-3.41,9.91-2.42,8.27-11.03,3.32.47.19,5.71,2.51,5.99.83.1,2.82-1.12,4.83-.93,1.74.17,7.37,2.23,7.64,1.94,1.07-1.1,3.46-13.04,5.52-15,2.68,3.64-1.34,6.64-.01,9.99,4.02-4.53,11.19-4.82,15.46-7.56,2.37-1.52,4.74-8.02,8.04-5.94l-3.99,4.49,17-1.98v2.99c-1.15-.34-1.91-.99-3.24-.82-20.85,2.71-37.99,15.93-53.5,28.11-.53.42-.14,1.58-.26,1.71.05-.1,1.91-1.09,1.99-1.01,2.04,3.76.04,6,1.51,9,3.19-1.64,4.29-6.1,6.04-8.02.76-.83,2.11-.29,2.97-.95.98-.76,4.3-5.22,5.5-4.02-1.64,5.93-7.43,8.37-7.27,14.79l-1.72,1.19c2.36.77,3.76-1.99,5.49-2.03.61-.01.38,1.93,1.14,2.09,2.28.47,9.88-3.65,9.37.94-.76.6-16.86,1.92-19.24,2.99-1.57.71-1.44,4.02-3.28,5.01-2.74-.95-.62-2.58-5.48-1l1-2.98c-7.88,1.51-12.62-7.45-3-8l-2.99,4.48c9.71,6.74,5.58-8.04,7.99-12.49Z"></path>
        <path d="M707.14,343.02c-1.45,1.59-3.87-3.94-4.99-4.5-9.65-4.74-16.08,6.46-25,7.49-.39-3.01,4-2.33,6.5-3.99,6.04-4,1.62-3.82,10.78-6.05,4.49-1.09,12.47-5.33,18.2-5.97,6.2-.69,12.48,1.58,17.91.93,4.58-.55,10.38-4.29,15.54-5.47,4.16-.95,16.66-2.67,20.58-2.53,1.71.06,3.34,0,4.47,1.59-7.73,1.45-17.77.95-25.27,2.72-5.3,1.25-9.35,5.97-14.32,6.68-4.6.65-9.84-.22-14.41-.9-.82.75,3.93,5.56,4.26,5.7,1.47.63,3.19.12,4.71.8,2.71,1.22,6.08,8.37,2.51,9.48-4.89,1.52-3.03-6.44-3.53-6.96-.17-.17-3.22-.12-4.7-.79-3.9-1.75-5.19-6.38-12.26-4.24-.75,1.84,8.19,1.92,3.49,3.01l-7.49-3.02c-.84,2.03,4.3,4.56,2.99,6,.24-.09,4.79-1.16,4.99-1.01.7.53.37,5.72,6.93,5.09,2.42,3.53-6.53,10.58-4.91,1.93,1.84-.35.33,1.6,1.5,2,1.87.64,1.91-1.55,1.48-2.5-1-2.2-3.92-1.03-5.27-1.56-1.02-.4-.4-2.06-2.16-2.05-3.01.03-7.45,2.09-2.55,3.59-4.17.16-1.74,6.21-2,6.49-1.56,1.68-8.12.44-9.5-2.01-3.57-6.32,4.03-2.88,6.28-4.2.34-.2,3.04-4.93,5.2-5.79Z"></path>
        <path d="M605.43,194.74c.26.33,3.52,2.41,3.69,2.28.28-2.42,1.68-4.99,4-6,1.28,2.78-2.46,7.17-1.54,8.97,2.54,4.99,2.35-1.28,5.55-.96-2.55,3.78.96,7.34-1,10.98,2.39,1.86,3.49-3.68,5-1.98.84.94-2.59,7.26-1.9,9.36.37,1.13,2.11,1.27,2.57,1.96,2.42,3.66,4.3,7.72,6.33,10.98,1.66,2.65,6.31,6.29,8.42,9.79,4.65,7.71,4.75,19.77,6.81,28.42.15.62,1.59.42,1.76,1.16.42,1.93-.18,4.3.02,6.32-5.2-.74-3.33-9.05-4.05-12.44-2.08-9.9-6.7-25.38-15.44-31.56-7.11-5.02-11.55-1.34-6.51-13.99-3.38-1.36-9.76,4.58-8.59-1.1.46-2.21,3-2.05,3.59-3.89-4.94,2.03-12.02,2.14-3-1.02-2.62-9.44-2.05-4.29-6.54-4.02-2.71.16-8.42-.7-6.02-4.03,1.22-1.68,4.58.14,4.56-1.93-8.03-.3-4.58-1.23-5.42-4.02-.51-1.71-3.14-3.27-2.57-5.45,4.05-6.04,5.85,6.52,8.99,3.46,1.28-1.25-4.15-4.76,0-5.99.11,1.63.24,3.37,1.31,4.72Z"></path>
        <path d="M682.13,426.02c-2.75,1.96-1.31-1.93-4.99-.99,4.91,6.13-1.85,7.39-1.98,8.48-.25,2.09,10.61,8.29,9.75,12.89s-7.41.21-9.76,3.62l.98-8-2.98,1c1.1-4.77-5.94-14.77,1.99-15.01.41-.35-3.82-2.82.02-4.52,2.49-1.1,3.18.34,4.55.43.5.03.43-1.87.93-1.95,2.91-.47,7.27,4.81,7.11,7.57-.09,1.6-4.36,11.58-7.67,8.03-3.08-2.13,2.55-8.34,2.05-11.56Z"></path>
        <path d="M604.76,344.4c6.47,3.92,6.91,10.44,9.97,15.56.35.58,8.51,9.8,9.16,9.98,2.58.73,6.22-.14,8.45.36,5.81,1.29,9.31,5.37,16.69,2.11,2.48-1.1,4.44-4.6,7.1-3.9-2.88,2.59-8.72,8.21-12.54,8.46-5.48.36-15.48-4.13-21.75-4.14-.91-.52-6.93-8.51-7.95-10.06-2.93-4.45-3.94-8.59-7.78-13.22-2.3-2.78-5.72-3.09-4.96-6.53,1.13.6,2.53.73,3.61,1.38Z"></path>
        <path d="M458.76,350.43c1.43.93,2.1,3.39,4.3,4.13,1.69.57,9.5,1.81,11.54,1.97,2.15.17,16.28-2.08,15.53,1.97-.18.98-6.33,2.16-7.34,2.22-6.08.38-17.91-.73-23.14-3.72-1.03-.59-8.46-6.92-8.5-7.48-.24-3.39,6.55.21,7.61.91Z"></path>
        <path d="M430.28,347.84c.53.52,12.73-.59,14.85.19-6.77,9.63-21.51,3.35-23.01-7.01-5.62,2.48-15.78,3.23-17.98-4,2.8,1.99,5.95,3.84,9.52,4.04,8.79.5,7.58-6.97,15.33,3.63.68.93.83,2.7,1.29,3.15Z"></path>
        <path d="M402.13,281.03l-15.65,3.82c-5.29,2.23-3,3.92-6.3,6.73-.86.73-5.62,2.93-5.82,3.66-.68,2.48,3.43,9.06,2.78,9.78-1.16-1.76-5.38.91-6.44,2.02-6.85,7.24,4.86,15.63,3.44,16.98-10.39-.25-13.49-21.34-1-19,1.18-1.34-5.75-7.19-1.01-12.52,3.44-3.87,7.49-.95,8.01-1.49.7-.72-1.22-4.26-.52-5.97,2.74-6.71,16.89-7.27,22.52-4.01Z"></path>
        <path d="M644.65,436.54c1.84,2.17.4,2.27.53,2.41.31.35,2.53.33,3.32.97.25.2,3.53,4.53,3.72,4.84,2.76,4.35-2.59,5.65-2.77,6.69-.73,4.17,3.82,8.63-5.29,10.58-1.62-5.38-6.73-11.7-2.01-17,.2-.23,3.78,3.46,4.97,3.49-2.25,2.71-5.51-1.82-3.99,3.86.22.84,3.22.27,1.99,2.63-.16.3-3.92-.9-.48,1.99.82-2.87,4.55-6.85,4.46-9.58-.1-2.97-2.9-1.27-3.49-2.32-.32-.57.4-1.95-.02-2.99-.89-2.19-3.38-3.83-2.44-7.08,1.3-.3.8.69,1.5,1.51Z"></path>
        <path d="M712.13,318.03l-17.73,9.65-10.26,8.33c-.27-3.1,2.23-5.35,3.99-7.5l-1.99-1.48c8.25-3.98,16.26-10.09,25.99-9Z"></path>
        <path d="M605.13,378.03c1.94,1.92-7.24,8.28-8.41,10.08-.96,1.49-3.64,11.81-6.58,8.91-3.74-3.68,10.59-23.35,14.99-18.99Z"></path>
      </g>
      <path d="M447.41,731.19c-.44-.18-1.47.16-2.28-.22-7.96-3.7-9.74-11.11-18.22-13.76l-.47,1.98c-7.21-.98-15.7-1.76-21.97,2.51,4.38,2.31,6.04,7.42,9.43,10.49.56.51,4.51,3.63,4.79,3.77.97.49,6.04-1.38,5.73,3.21-1.73,1.52-21.68-1.17-19.48-7.98,1.83,3.4,7.64,6.22,11.49,5.5-6.51-4.04-8.49-13.19-16.75-14.3-6.08-.81-14.2,3.4-20.51,2.78-2.2,4.41-3.28,1.71-7.19,1.95-3.17.19-5.63,1.07-8.46,1.59-1.75.32-2.36.57-3.03-1.5,18.33-2.93,36.2-8.32,54.62-10.83,16.36-2.24,49.08-4.87,65.03-2.82,2.86.37,8.35,4.26,8.72.65,6.12,2.66,13.8,2.71,20.41,5.6,4.31,1.88,11.3,5.47,8.13,10.95-.64,1.11-10.34,7.9-11.74,8.24-3.65.89-8.4,1.61-11.77,3.12-11.74,5.26-10.81,9.49-18.11,17.99-12.05,14.02-27.02,25.63-39.36,39.8-9.63,11.06-18.39,24.41-27.32,35.79-2.06,2.63-5.73,6.49-8.41,8.58-.38.63-.47,2.24-.14,2.72.44.65,11.59,6.21,13.81,7.68,6.54,4.31,13.38,10.12,20.37,13.6,3.63,1.8,15.03,6.89,18.41,7.58,1.79.37,3.54.59,5.25-.31,4.99-5.98,11.38-10.64,16.51-16.45,6.66-7.54,10.63-16.63,16.62-24.34,7.57-9.75,17.22-17.68,24.53-26.92,2.7-3.41,5.69-8.94,8.31-12.68,1.41-.51.83,3.97,2.97,1.99,1.35-1.25,1.29-6.71,1.49-7.01.76-1.18,2.11.44,2.54-.54,1.74-3.91.9-15.22,2.5-21.4.45-1.73,3.1-8.92,3.98-10.01,1.83-2.28,4.32-1.83,4.51-2.01.21-.2-1.39-2.47-1.02-2.98.31-.44,9.34-3.01,10.41-2.96,4.66.21,12.29,6.18,13.57,10.93l-9.07-7.41c-19.5-5.86-23.83,23.6-21.38,37.4,3.67,20.67,15.94,25.59,28.97,37.91,1.67,1.58,7.23,8.85,8,9.02,3.17.71,2.73-8.36,5.47-5.97.39.34-2.04,8.65-3.12,9.85l-2.9-.35c-3.79-4.93-8.44-11.22-13.21-15.14-.23-.19-2.55.47-3.1-1.99-8.76-3.72-13.34-12.59-18.16-20.35-3.27-1.28.3,6.52.43,7.56.39,3.1-.09,6.3.09,9.41l2.48-2.99,14.14,15.22c-.61,5.69,2.38,2.66,5.91,4.69,1.48.85,11.09,8.33,12.35,9.63,1.7,1.77,1.79,4.44,4.07,5.42-.05-1.44-.88-2.46-.55-4,2.28-10.84,12.88-23.2,9.24-35.14-.84-2.75-3.31-5.69-3.76-8.78l-1.92.97c.37-14.1-8.54-26.47-11.99-39.97l8.42,14.05c2.23,7.71,3.35,11.78,5.84,19.14,1.48,4.39,4.82,16.04,6.82,19.15,3.18,4.94,4.19-3.53,7.88-3.38,1.11,3.04-5.8,6.62-6.04,7.7-.58,2.63,2.38,7.27,2.04,10.27l-3.98-4.99c.07,1.36-.01,2.66-.57,3.93-3.69,8.4-7.6,16.92-11.93,25.02-1.7-1.37-2.44-3.45-4.15-4.83-6.98-5.65-15.42-9.64-22.35-15.61l-10.96-13.51c.04,4.93,1.05,10.4,2.33,15.13,2.67,9.84,11.18,21.2,19.67,26.28,1.68,1.01,10.14,3.53,9.95,4.03-.94,2.4-2.41.84-3.53.6-9.7-2.14-17.96-10.41-23.3-18.72-.95-1.48-.99-4.18-1.14-4.35-1.87-2.07-2.26,1.9-1.93,3.44.49,2.3,6.38,12.02,5.93,12.55-1.5,1.77-2.19-1.38-2.57-1.89-6.03-8.09-3.65-8.99-4.92-17.12-2.46-15.87-5.95-33.2-6.56-48.5-.08-2.05,1.58-3.91.56-5.42-3.71,2.33-2.67,6.93-3.99,10-1.76,4.1-5.47,8.49-7.02,12.96-4.17,2.93,2.98-6.09-.47-5.97-4.58,8.54-11.57,14.87-15.99,23.48,2.5,1.85,3.27-3.86,5.49-4.5.74-.16.68,1.05.49,1.48-1.78,3.86-10.77,10.47-13.91,14.31-9.04,11.06-17.18,24.86-25.46,36.25l-6.57,4.9,16.27,7.97c10.77,6.98,29.23,28.69,38.73,32.55,1.9.77,2.54-.38,3.5-.41.63-.02.02,2.75,1.93,1.86,1.41-.66,6.03-10.14,5.01-11.98l-4.49,4.99c1.46-8.44,8.87-16.54,13.34-24.11,3.57-6.04,6.61-12.52,9.64-18.84l1.49,2,2-3.01c.92,2.89.83,1.62,3.49,1-2.11,3.04,1.36,5.16.88,7.24-.54,2.33-8.94,16.82-10.84,19.99-1.61,2.68-6.44,7.29-8.42,10.83-1.27,2.26-1.14,5.27-3.13,7.86-2.15,2.8-1.13-1.48-1.96-.96-1.49.93-3.53,5.62-6.48,6.49l46.33,30.55c4.42-7.44,7.47-15.91,11.83-23.37,5.41-9.26,22.6-35.51,29.9-42.99,1.13-1.16,2.22-2.2,3.83-2.65,1.39,1.75-10.12,17.06-11.85,19.64-.75,1.13-1,3.25-1.14,3.35-.19.14-2.58-1.42-2.98-1.02-.1.11.05,1.94-.57,2.9-5.6,8.63-12.66,16.93-17.8,26.21-1.7,3.08-8.54,16.36-9.05,18.88-1.31,6.44,7.59-.53,9.09-2.35,1.33-1.61,4.58-6.95,6.17-9.27,6.73-9.86,12.06-21.15,18.93-31.07s16.39-19.29,23.22-29.73c1.78-2.72,1.94-7.3,5.47-9.49,2.34,1.8,1.01,1.48.09,3.06-8.11,14.03-17.4,23.69-26.38,36.56-8.93,12.8-16.68,29.62-26.14,41.53-1.16,1.46-5.63,3.54-5.95,5.38-.36,2.08,3.19,3.13,4.41,4.36,2.9,2.92,14.83,16.95,18,16.75,5.68-5.83,11.78-11.48,17.01-17.71,1.57-1.87,2.06-4.41,3.62-6.37,4.78-6,10.68-11.83,17.82-14.64-5.57,5.56-11.85,10.14-16.98,16.48l1.99,1.48c-.9.15-2.75-.48-2.88.47-1.01,7.36-7.14,9.32-11.76,13.87-3.02,2.98-10.04,9.79-2.98,11.57l31.34-34.11c-1.43-5.79.39-2.66,2.84-4.68,1.35-1.12,1.24-3.41,2.44-4.58,1.74-1.7,2.62-2.6,3.95-3.94,4.84-4.89,11.62-10.11,17.01-14.54l-54.44,62.95c-2.07,3.98,1.32,2.64,3.44,4.53,1.43,1.28,2.24,3.77,4.05,4.96-4.83,2-4.56-2.67-6.57-4.39-3.25-2.77-6.16-.85-6.39-1.1-.18-.19-.3-3-1.61-4.95-1.59-2.37-6.37-4.8-8.28-6.67-3.64-3.56-14.82-16.63-18.62-17.35-2.02-.38-4.39.16-6.47-.03,3.29-6.69-3.81-7.42-7.6-10.38-18.98-14.83-38.5-25.31-56.73-40.23-10.54-8.63-23.47-21.28-35.38-27.23-4.24-2.12-10.64-3.4-14.4-5.12-30.54-13.97-56.47-34.98-88.72-46.4s-63.36-20.95-94.78-34.1c-49.52-20.71-98.96-44.41-145.09-70.72-2.8-1.6-9.36-3.88-11.17-5.53-1.39-1.27-1.16-3.15-1.95-3.82-1.32-1.11-8.78-2.72-10.51-4.49-8.26-8.39-19.46-16.2-27.19-25.2-6.08-7.08-7.11-10.55-10.79-18.23-4.36-9.09-10.09-17.77-13.94-27.01-7.06-16.97-8.72-33.08-13.7-50.26-3.5-12.09-9.95-20.67-16.83-30.64-1.83-2.28-15.38-11.98-15.72-12.95-.18-.51-.35-3.13.51-3.3l12.48,9.98c-2.83-6.66,4.73-14.9,8.99-20.21,5.14-6.4,20.65-20.92,23.26-28.07.8-2.2-.48-3.99-.17-4.51.5-.85,12.5-11.16,14.68-13.09,17.48-15.48,37.23-26.44,57.66-37.02.76-.3.26,1.93,1.05,2.08,2.15.39,33.18-16.44,39.36-18.59,43.29-15.08,87.04-31.38,130.69-46.14,22-7.44,43.98-13.08,66.15-19.77,1.04-.31,19.97-5.37,15.99-1.5l-85.91,25,3.98,1.97-8.98,2.02c-.07,1.89,4.31,1.02,5.27.76,1.73-.46,3.12-1.79,4.73-2.26,25.47-7.44,50.49-16.02,75.67-24.33l3.24,1.83-29.21,9.26c-36.93,14.24-76.96,23.13-113.3,38.47-13.14,5.55-21.21,11.6-35.33,14.6-32.96,7-61.99,22.33-91.12,38.88-23.57,13.39-42.43,28.61-57.17,51.73-.87,1.37-.63,3.67-1.7,5.29-4.82,7.34-12.19,14.42-16.84,22.13-2.57,1.04.84-4.8.97-5.03,5.11-8.6,12.25-14.39,15.42-24.55.31-.99,1.64-2.99-.4-2.9l-14.65,22.86-11.28,12.6c3.07,3.2,6.1,6.59,8.91,10.02,1.43,1.75,5.68,9.07,6.14,9.38,1.9,1.27,9.22-7.86,10.86-9.67,13.04-14.42,25.36-28.52,40.47-41.2,1.12-.94,1.62-2.42,3.5-1.99-4.74,6.05-9.46,12.05-14.98,17.48-.02.82,2.03.67,2.47.53,1.3-.41,13.69-18.32,18.5-19.02.06,3.56-3.41,5.64-4.81,7.62-9.83,13.86-23.33,25.45-34.48,37.94-4.64,5.2-9.84,10.02-13.64,15.89-2.56,1.04.82-4.81.97-5.03,2.02-2.96,4.73-4.2,6.02-7.46-1.27-1.21-5.72,4.56-7.06,5.41s-4.26.29-4.86,2.18c-.79,2.52,3.82,11.21,4.62,14.18,2.09,7.8,3.27,16.56,5.6,24.37.47,1.56,2.43,9.34,4.68,7.78,3.28-5.18,7.15-10.5,11.05-15.21,9.55-11.52,22.72-25.3,33.88-35.28,2.23-2,8.04-7.34,9.03-1.97-1.25,2.18-14.4,13.91-12.97,15.5,6.31-2.38,8.29-10.37,14.97-11.99.72.72-5.72,8.81-6.64,9.87-9.09,10.48-21.62,18.73-29.83,30.09-4.54-.96.15-2.04.26-2.21.69-1.06-.16-3,.42-3.65.32-.36,1.95.14,2.54-.35s1.27-4.17,2.85-5.76c.74-.75,1.92-.19,2.82-1.07,4.35-4.27,7.81-9.34,12.38-13.4-.67-.93-.4-3.28-2.24-2.5-1.06.45-10.06,8.06-11.53,9.46-5.95,5.65-15.78,16.8-20.98,23.26-.81,1-5.67,7.45-5.78,7.99-.43,2.21,4.12,14.21,5.45,17.22,4.44,10.02,10.62,20.64,16.74,30.05,2.22,3.42,1.92,9.6,7.22,4.55,2.01-1.92,6.17-10.59,6.85-5.64,3.23-2.76,5.53-6.51,8.45-9.51,8.21-8.41,18.64-16.58,24.48-26.48,6.56-11.12,15.3-21.63,24.53-31.15.61-.63,4.13-4.81,4.98-3.79,1.5,1.81-12.21,14.59-13.92,16.59-2.12,2.48-4.5,6.64-6.65,9.29-.9,1.11-2.49,1.49-3.4,2.6-.5,3.06,3.6.44,4.67.16,3.86-4.53,7.77-9.29,11.79-13.68,1.18-1.29,1.74-1.66,1.5.5-1.88,2.15-2.9,5.31-4.61,7.43-6.37,7.91-15.05,12.62-20.75,22.17-4.41,7.39-7.06,14.27-12.62,21.35-4.29,5.46-11.38,9.88-14.75,13.73-.53.61.14,4.76-2.2,2.77-.24-.2.51-1.78-.51-2.01-2.15-.48-1.28,1.12-2.12,1.93-.78.75-2.42,1.04-2.42,1.61.01,4.05,5.93,5.45,7.65,7.37,8.14,9.09,15.24,11.92,24.91,19.04,2.55,1.88,2.55,5.57,7.89,5.1.44-.04,1.42-3.62,2.29-4.86,1.32-1.9,6.62-6.94,7.26-8.71,1.64-4.57-7.23,3.33-5.99,5.5-4.29-2.72,4.18-8.98,6.42-12.07,10-13.82,19.32-26.99,29.71-40.26,15.36-19.62,33.62-30.12,50.46-47.89,1.02-1.08,1.13-2.96,2.31-4.19,17.35-18.18,36.19-34.12,57.08-48.79,11.86-8.33,24.26-14.6,36.11-23.61,6.74-5.12,14.11-15.2,22.68-17.56.97-.27,3.29-1.28,3.05.55-4.39,2.08-8.35,4.15-11.98,7.51l3.99,2.48c-6.23,2.96-11.3,7.77-17.11,11.37-19.74,12.24-33.63,19.93-51.3,34.66-.25.21-7.22,2.72-3.03,3.93,1.58-1.64,3.18-2.73,5.51-2.99-4.08,3.16-7.9,6.59-11.75,9.99-1.36,1.2-4.62,1.57-5.24,4.99,1.2,1,12.24-7.22,13.87-8.64,1.31-1.13,8.18-6.91,3.11-6.34,20.55-15.93,42.1-26.28,62.85-40.55,5.83-4.01,10.95-9.06,16.07-13.9l-1.99-1.48c2.7-1.75,5.47-3.37,8.25-5.05.71-.43.91-1.88,1.23-1.98,8.14-2.42-3.65,5.59-4.02,5.98-3.03,3.14-5.89,8.33-9.79,11.68-11.55,9.94-27.18,15.61-39.26,25.15-21.94,17.33-43.56,37.07-65.28,54.68-9.02,7.31-16.36,10.84-25.06,19.9-1.71,1.78-3.46,5.29-5.44,5.52l.51-2.48c-4.05-.37-3.25,5.06-4.08,6.43-.06.1-1.65-1.01-2.43-.03-.24.3.14,1.49-.23,2.05-3.42,5.23-8.96,8.03-13.2,12.8-5.63,6.34-9.06,13.89-14.09,20.41-5.61,7.28-12.26,13.93-17.76,21.44-3.48,4.75-5.54,10.59-10.17,14.3l1.99-4.99c-2.94-.44-3.11,3.08-4.56,4.92s-6.24,6.58-6.94,8.08c-3.17,6.77,8.27,9.24,12.41,11.56,7.1,3.97,43.11,27.56,49.06,23.95,2.03-1.23,4.09-14.5,6.98-17.06l-3.98,1.5c3.35-9.3,10.57-17.16,14.95-26.24,3.37-4.79,8.96-9.61,12.41-13.83,11.15-13.65,21.06-27.65,34.56-38.86.75.82-4.11,6.18-4.99,7.2-3.38,3.89-7.17,7.88-11.02,11.32l.53,2.45,3.49-2.99c.98,3.63-1.65,2.77-2.98,4.46-11.24,14.31-28.11,28.37-36.35,44.62-3.76,7.41-7.11,20.07-11.37,26.6-.82,1.25-1.57,2.29-3.24,2.27-.45.63,1.18,1.45,1.72,1.75,7.71,4.29,16.24,7.83,24.14,11.83,3.5,1.77,12.36,8.58,16.06,6.92,1.29-.58,9.56-9.67,11.42-11.63,19.17-20.22,39.17-46.87,55.15-69.78.13-.19,4.87-3.12,1.89-3.06-1.86.04-2,1.65-3.48,2.01v-1.49c8.84-8.08,15.95-17.69,25.96-24.51-11.2-10.95-26.3-15.18-39.64-22.83-3.02.07-6.48,6.85-8.28,5.82-.4-.23,1.18-3.07-3.02-.95-.61-2.88.95-1.58,2.16-2.29,1.91-1.13,3.89-2.14,5.82-3.19-1.91-4.23-17.31-6.21-15.49-14.49,2.37,3.98,5.05,4.88,8.74,7.04,14.31,8.38,32.58,14.73,47.61,22.54,4.81,2.5,9.39,4.62,13.74,7.74.86.61,1.02,2.02,2.6,2.88,4.23,2.3,9.91,1.66,12.75,6.75-3.03-.49-8.59-1.17-11.22-2.25-1.97-.81-3.69-3-5.86-4.13-7.25-3.78-8.48-1.17-14.42,3.37l-16.45,21.01c1.11,1.12,20.77-19.94,23.47-20.97.68-.21.69.82.48,1.47-1.7,5.36-23.53,22.88-28.92,29.07-12.66,14.53-22.73,34.2-35.04,48.89-2.74,3.27-8.54,7.3-10.98,10.24-3.87,4.67-7.08,11.83-10.95,16.73,25.17,12.78,50.93,24.69,78.18,32.69,5.92,4.2,15.77,5.65,20.44,8.72,1.04.68,1.94,1.27,3.26,1.06-.5-3.04,2.44-4.75-1-5.48l7.98-13.02c-.15-4.02-3.8,3.99-4.49,3.51-1.1-4.45,4.94-9.24,7.46-12.73,5.55-7.67,15.88-21.7,24.47-26.27,2.12-1.13,4.4-.94,6.53-1.96l-24.47,33.96c-1.56-.88.33-2.26.89-3.11,3.82-5.83,7.29-11.92,11.58-17.39-.14-3.22-.95-.47-1.67.19-3.44,3.16-6.19,6.87-10.35,8.75-2.04,8.19-13.74,20.85-14.94,28.04-.1.58-.26,1.64.51,1.5,3.26-4.06,6.45-8.15,8.51-12.98,3.33,1.18-1.61,4.55-1.88,5.69-.56,2.39,2.67,2.64-2.14,4.75l-4.99,7.52,46.49,16.84c2.04-.2,2.6-9.35,4.03-11.77,1.13-1.91,7.36-7.04,9.44-9.55,18.05-21.84,36.7-39.86,57.59-58.8,3.01-2.73,3.64-6.25,8.58-7.9,4.62-1.55-.96,4.49-1.69,5.33-1.48,1.7-5.18,1.78-3.05,4.92,5.85-4.15,9.06-9.58,13.49-14.97-1.07-.02-2.03-.58-3.12-.49-1.59.14-8.29,1.95-10.13,2.53-.89.28-.71,1.9-1.38,1.98-3.32.37-8.95.07-12.69.96-.83.2-.54,2.03-1.16,2.03-1.78,0-2.9-2.47-3.48-2.02-.08.06.34,1.68-.69,1.98-3.84,1.09-10.47.81-14.68,1.43-4.57.67-8.51,1.1-12.96,1.65-24.65,3.08-55.43,10.79-80.79,4.63-1.5-.36-5.34-.99-5.79-2.69,23.17,3.62,47.06.5,70.3-2.13,35.35-4.01,75.35-10.28,107.73-25.94,1.61-.78,5.86-4.75,5.76-6.41-2.58-1.81-15.98-9.33-17.95-6.48-.38.54,2.39,4.36-.98,4.99.09-4.8-3.29-6.97-7.52-7.96-3.08,1.49,1.14,3.54.52,3.95-1.06.7-5.91-4.19-8.72-4.76-5.14-1.03-11.48.52-16.74-1.24-2.07,2.34,1.44,2.13,2.81,3.14,2.95,2.17,5.76,4.68,8.66,6.86-.17-.15-2.87-.15-4.36-1.12-4.48-2.93-8.24-7.85-14.62-7.86.72,2.71,4.21,2.18,5.7,3.29,1.9,1.43,4.24,5.49,7.55,6.93,1.97.85,8.52,1.2,5.74-1.24,1.16.88,1.89,2.46,2.28,2.68,1.09.63,11.19,1.02,8.71,3.3-.58.53-9.87,1.11-11.22.82-1.82-.38-7.3-3.65-9.23-4.84-8.43-5.19-9.78-10.58-20.99-11.04-4.03-.17-8.42,1.18-12.51,1.09,2.86,2.23,4.8,6.16,7.06,8.25,1.07.99,6.17,3.4,6.74,3.95s.05,1.41.19,1.79c3.47,1.45,7.73,2.42,10.73,3.76,4.17,1.87-1.77,3.11-4.1,2.91-2.74-.23-6.57-2.52-9.61-2.69l3.99-1c-.47-.94-.64-2.02-1-2.99ZM188.66,436.46c.27.25,5.56-2.14,6.94-2.54,6.51-1.9,9.16-3.38,15.02-5.83.67-.28,3.92.62,3.99-1.12.09-2.14-2.72-.69-3.45-.49-5.2,1.41-13.38,4.45-18.48,6.53-.74.3-5.84,1.76-4.02,3.45ZM105.72,470.44c-9.01,3.76-17.21,9.86-25.1,15.38-.65.45-3.44.97-1.87,2.59.39.41,8.47-5.16,9.72-5.75,6.9-3.31,15.09-6.33,22.24-9.24.32-5.08-6.51,1.99-8.99,1l3.99-3.98ZM71.75,493.42c-1.19-1.21-12.84,9.64-10.97,11.98,3.77-.57,3.89-4.19,5.51-5.96,1.91-2.1,5.49-2.89,5.46-6.02ZM246.59,595.33c-.78-.74-4,1.91-4.9,2.58-5.89,4.4-8.82,5.46-13.39,11.04-.96,1.18-3.26.96-2.69,3.35,1.09-1.99,5.79-2.3,6.04-2.53.88-.82,1.88-4.48,3.94-5.8.87-.55,2.26-.04,3.32-.74,3.01-1.98,7.2-4.53,7.66-7.91ZM195.64,637.29c-2.05-.53-2.7.62-4.03,1.46-13.87,8.78-20.5,22.6-30.11,34.87-6.26,7.98-12.69,15.65-18.86,23.83-.66.88-3.54,2.81-3.63,3.03-1.57,3.97.74,5.38,3.68,2.23l-1.98-1.48c.93-.82,4.63-1.91,5.02-2.43,10.73-14.04,21.89-27.46,31.9-42.08,3.04-4.44,9.08-7.65,12.64-11.82,1.89-2.21,2.96-5.63,5.37-7.62ZM105.39,670.91c1.24-1.26,5.45-7.2,4.32-8.65-4,.96-4.33,5.69-6.97,8.51-.62,2.69,2.26.54,2.65.14ZM91.39,683.88c1.62-1.55,10.3-13.57,9.33-14.63-1.07.38-2.24.9-3.03,1.73-3.39,3.58-7.52,9.87-10.87,14.04-.67.84-2.07,2.69.41,2.2,1.04-1.53,2.97-2.2,4.16-3.34ZM245.6,769.17l-10.99,10.97c6.82,3.76,7.89-6.54,10.99-10.97ZM436.42,791.15c-4.07-.61-3.61,3.01-5.03,4.41-2.75,2.72-6.21,4.77-8.94,8.09-4.55,5.54-7.27,12.42-11.01,18.45,3.94.13,4.31-4.37,5.99-6.48,6.44-8.07,13.33-15.79,18.98-24.47ZM399.04,838.68c3.68-4.8,6.87-12.93,9.39-18.57l-11.96,11.76-2.01,10.21c.78.81,4.07-2.74,4.58-3.4ZM493.94,841.67c1.35-1.77,9.34-11.3,9.39-12.07.06-.86-.96-1.49-2.48-.51-.85.55-5.2,5.25-6.12,6.36-4.42,5.36-8.19,13.32-12.35,18.85-3.96,5.26-10.17,10.67-14.03,16.27-.89,1.3.09,3.22-1.96,3.49l-.5-2.99c-5.92,5.7-8.76,7.43,1.49,7.98l-1.98-4.99c1.39.5,2.18,1.04,3.71.31,2.92-1.38,20.89-27.53,24.83-32.7ZM546.31,891.05c-2.43-.03-4.12,3.33-5.4,5.08-1.21,1.66-9.18,14.04-8.57,14.89.1.15,3.2-.68,3.45-.96l10.52-19.01Z"></path>
      <path d="M971.92,617.3c1.47-3.53,1.61-6.99,2.74-9.74,3.71-9.02,23.94-35.2,30.65-45.28.81-1.21,1.81-2.3,1.57-3.91l-5.98,4.99c-1.11-1.3,4.69-5.04,2.53-9-.7-1.29-2.7-1.61-3.48-2.54-6-7.18-12.43-13.94-18.7-20.77-1.78-1.95-5.88-9.32-6.35-9.64-1.8-1.22-7.9,8.39-9.2,10.26-3.18,4.55-7.16,10.58-8.78,15.71-1.81.4-.63-1.68-1-1.99-1.46-1.23-1.93,3.78-1,4.99l-1.49-1.99-3.5,4.5,1.99,1.48c-3.66,2.68-6.55,4.5-7.92-1.4l26.91-35.01c-.3-1.24-4.58-2.7-5.72-3.82-.78-.77-.69-2.41-1.61-3.38-8.27-8.68-17.18-16.43-24.14-26.3-1.4,3.91-3.32,5.46,1.5,4.48-1.98,3.28-3.25,6.96-5.3,10.2s-6.32,8.99-8.65,11.78c-7.67,9.2-8.93,15.99-17.89,25.16-.9.92-1.05,2.22-1.14,2.32-.64.69-5.02-4.84-1.98-6.98-2.69-.85-2.67,2.75-3.02,2.98-.83.54-2.92-.88-2.95-1.48-.11-1.99,13.64-16.25,14.49-19.38.2-.74-.08-3.39-1.51-3.1-2.02,3.1-.62,4.64-4.98,5.04,2.12,2.03-1.8,3.49-4.03,3.93-.43-.37,6.11-8.67,6.72-9.05,3.53-2.24,4.27,3.27,4.23-4.19l19.53-23.71-.5,5.98c4.92-.54,3.89-7.23,2.77-10.75-4.74-2.07-7.62-5.62-12.23-8.25-5.79-3.3-14.95-8.38-20.82-11.15-11.07-5.23-7.88-2.35-11.95,4.4-1.4,2.31-6.24,8.42-6.74,10.3-.18.67,2.7-.06,2,1.96-3.23,3.29-12.71,14.05-7.99,3.52l-1.99-.5c4.47-4.84,8.62-10.26,12.21-15.77,1.22-1.88,5.35-6.78,4.35-8.71-.65-1.25-20.64-12.59-23.35-13.69s-20.99-6.22-22.18-5.29c.97,2.06.99,2.37-.4,4.04-2.97,3.58-11.58,7.47-14.56,10.47-1.07,1.08-1.11,2.93-2.04,3.95-4.62,5.1-8.5,12.92-15.97,9.49-.32-.32,4.8-8.05,5.49-2.99.78-2.77,4.71-3.77,5.19-4.25.6-.6,2.11-4.7,3.8-6.74,3.6-4.35,13.11-8.85,16.45-12.54,1.13-1.24,1.32-2.99,2.05-4.44-3.43,1.3-3.86-1.61-4.75-1.94-15.02-5.67-38.38-11.54-51.13-20.66-7.85-5.61-16.35-16.25-23.82-21.37s-18.64-7.1-26.44-11.25c-1.3-.69-4.17-2.36-4.76-3.72,3.38-.36,5.95,1.65,9.16,2.33,1.28.27,3.6-.5,3.82-.34.1.07-1.11,1.57-.06,2.45,2.26,1.89,12.23,4.78,15.74,6.34,1.43.64,5.92,4.57,7.29,3.2.53-.53-1.1-4.23.99-4-.08,2.41,1.09,5.48-1.98,5.01-.37,1.36,1.37,1.03,2.47,1.99,6.95,6.05,17.5,17.45,25.44,21.53,7.08,3.64,15.85,4.89,23.24,7.74,19.52,7.51,42.98,15.96,60.61,25.27,8.97,4.73,17.93,11.43,26.4,16.11,7.77,4.29,21.65,7.98,29.2,14.25,2.55,2.12,2.98,5.48,5.06,7.92,6.36,7.47,13.14,13.99,19.83,21.12,1.13,1.21,3.15,1.89,4.02,2.99,2.99,3.79,1.08,2.3,5.08,5.92,2.99,2.7,6.79,9.04,8.73,10.75,1.03.91,3.2.86,3.58,1.44.5.78-.22,2.56.36,3.59.29.51,7.62,6.49,8.74,7.81,15.15,17.86,24.85,25.73,45.95,36.93,8.94,4.74,18.39,4.98,27,9.95-2.52,2.19-3.82,5.41-6.48,7.49-3.53,2.76-6.9,2.37-9.89,4.1-1.92,1.11-12.59,13.71-13.94,15.86-9.9,15.85-11.66,22.19-25.7,35.44-12.77,12.05-25.09,25.42-37.52,38.94-18.54,20.15-41.04,43.44-61.67,63.23-3,2.88-2.84,3.97-3.93,5.06-10.04,10.04-16.67,16.03-24.66,28.72-16.73,26.56-26.5,36.84-51.36,55.59-23.08,17.41-44.66,33.34-64.59,54.47-2.78,2.94-9.13,13.67-11.96,15.77-3.85,2.86-17.78,7.04-23.15,9.63-1.73.83-5.18,4.15-7.78,5.43-18.57,9.13-44.28,10.16-59.51,22.41-12.96,10.43-19.81,33.25-26.13,48.8l-3.31,6.17c-.35-4.15.33-8.18,1.29-12.19,5.53-23.19,20.92-50.77,45.44-57.47,3.31-.9,7.97-.56,11.43-1.55,2.98-.85,21.77-6.63,22.78-7.28.92-.59,1.33-2.46,2.48-3.43,2.47-2.08-.52,3.32,1.97,1.98,7.32-3.92,3.86-6.76,5.42-8.51,1.41-1.57,3.47-1.67,4.76-2.81,11.89-10.54,22.14-23.49,31.72-35.36,1.39-1.73,6.98-4.01,2.58-4.75l22.48-21.48c2.35,3.59-2.27,5.83-3.16,7.31-5.75,9.58-9.54,10.48-16.97,18.01-2.68,2.71-5.08,6.69-8.34,9.15l7.3-3.69c5.7-4.06,21.07-16.47,23.19-22.84.54-1.61-.79-3.26-.43-3.8,2.81-4.17,8.6-8.89,12.38-15.22,5.42-9.07,11.26-17.85,18.52-27.37,15.96-20.93,29.58-44.23,46.94-63.67,6.98-7.82,17.1-15.03,23.22-22.99,10.01-13.01,17.54-29.18,26.33-42.68,10.96-16.82,23.4-30.68,36.01-46.37,6.07-7.55,11.88-15.12,17.33-23.14,2.24-1.04.54,1.47.2,2.21-.65,1.44-5.58,9.86-5.19,10.28,1.72,1.85,3.51-4.09,4.28-4.74.56-.48,1.6-.12,1.72-.25-3.56,8.52-12.04,15.99-17.6,23.35-10.74,14.23-21.44,31.34-32.52,44.92-2.1,2.57-6.64,5.59-8.84,8.41-7.33,9.37-11.01,23-17.34,33.34-16.32,26.65-38.09,50.54-59.22,73.15-17.57,18.8-30.84,37.08-44.63,57.83-10.61,15.96-14.59,15.63-28.15,26.75-7.27,5.96-13.42,14.33-20.77,19.69-1.63,1.18-6.49,1.91-7.7,5.28,1.75.18,3.28.15,4.95-.53,19.19-7.86,28.22-22.56,42.36-36.13,18.43-17.69,42.3-31.18,62.55-47.81,22.21-18.23,27.58-33.44,42.14-56.51,11.76-18.62,30.43-34.05,45.48-49.16,10.78-10.82,24.11-20.13,35.25-31.22,7.88-7.84,15.87-18.22,23.35-26.01,9.38-9.77,22.08-19.17,30.07-29.42,5.97-7.66,9.8-16.4,14.6-24.4,1.39-2.32,11.26-14.59,12.99-15.95,1.16-.91,18.63-5.41,12.92-10.02-2.33-1.88-15.85-3.87-20.94-6.04-4.65-1.98-25.39-14.79-28.27-14.31-3.26.54-7.19,5.33-9.15,7.91-11.3,14.95-17.71,33.27-31.54,46.88ZM915.97,519.39c-2.71-.6-1.7.82-2.47,1.98s-4.24,6.18-3.51,7c3.69-1.45,6.01-4.91,5.98-8.99ZM891.99,726.2c-1.27-1.26-2.49.49-3.29,1.24-4.05,3.75-8.99,8.27-12.66,12.28-19.19,20.95-34.74,45.84-51.96,68.21-3.03,3.94-1.95,6.59,1.28,2.97,4.8-5.37,9.19-11.39,14.65-16.3.83-.74,1.89-1.42,3.03-1.47l-1.97-1c-.54-.72,2.54-5.41,3.42-6.08,2.17-1.65,3.94.78,5.54-1.4l-3.99-.99c1.03-1.82,2.66-.29,3.94-1.05.19-.11,2.49-2.68,2.99-3.26,13.41-15.25,24.7-34.45,37.76-49.87.6-.7,2.63-1.91,1.25-3.28Z"></path>
      <path d="M766.41,443.74c-.79,1.03-.75,2.41-1.63,3.39-4.69,5.22-12.12,10.58-16.44,15.97-5.73,7.15,1.75,2.6,3.32,2.36,15.46-2.34,40.11-3.87,54.77-1.64,10.37,1.58,17.59,4.84,21,15.51.84,2.63,1.39,4.9-1.87,4.1-.54-.13-5.71-6.73-9.49-5.01-.39,4.53,5.53,5.64,2.99,8.98,2.76.99,5.36-2.35,7.39-2.07s3.3,8.97,2.59,11.07c-1.71.47-.27-3.06-2.47-1.99-4.31,2.1-.57,5.73-.05,7.89s-2.46,3.65,2.54,3.08l.98-3.99c1.79,1.89.69,8.63,1.01,8.95.22.21,3.95.8,5.7,1.84,5.06,2.98,10.55,9.51,16.94,11.53,1.39,3.74,13.45,10.58,10.88,14.69-4.81,1.48-10.59,4.8-15.3,5.71-8.9,1.7-18.96,1.45-27.94,2.53-3.23,7.85-6.49,15.84-11.26,22.94-7.34,10.94-16.79,14.76-27.49,21.73-6.12,3.99-5.94,9.33-6.56,9.92-.42.39-2.92-.18-4.16.31-6.33,2.55-10.82,7.83-15.26,12.75-1.87-1.35,7.43-8.34,1.98-8.03-2.92.17-8.69,4.2-13.41,4.59-2.81.23-5.44-1.22-8.33-.36-2.65.8-11.06,8.84-14.23,3.81-1.32-2.09.77-6.24,2.6-7.43,3.54-2.3,7.56-.21,11.32-.62,3.46-.38,6.63-3.01,10.09-3.49,3.01-.41,5.51,1.14,9.53.07.64-.17,9.3-5.38,9.69-5.78.7-.71.65-3.48,2.22-5.27,1.35-1.54,4.99-2.35,5.05-3.03.03-.34-1.04-6.04-1.26-6.69-.45-1.36-8.12-13.02-8.98-13.56-.54-.34-1.9.61-2.76.22-3.71-1.67-6.75-5.07-9.78-6.3-5.03-2.04-12.22-3-16.48-7.03-1.83-1.73-3.42-7.48-4.43-8.06-3.72-2.17-12.95-.36-14.86-5.01-3.48,2.02-6.76-.32-10.4,1.04,2.2-12.15,13.49-18.08,20.47-26.99l2.49.02-3.99,4.01c-1.79,2.78,11.21,1.32,10.01-2.01h.97c-.35,4.02,2.12.9,3.92.61,1.28-.2,12.82-.5,11.07-2.6-1.3-1.57-10.47,1.39-12.72,1.78-1.99.34-1.81-1.22-1.27-1.77,3.27-3.29,58.03-5.79,66.43-5.9,9.86-.14,19.65.47,29.48.88-.46-1.09-2.09-3.06-3.04-3.49-.32-.14-6.07-.95-6.89-1.04-2.02-.2-7.79.73-10.54.63-24.87-.96-48.82-2.3-73.44,2.9l14-4.55,13.96-1.44-3.02-3.98c-1.64,2.95-8.45,1.96-8.8,2.27-.33.29-.02,1.53-.2,1.66-2.28,1.61-4.16-4.91-4.53-4.96-7.31-1-5.41,6.28-6.44,7.03-1.31-.19-3.27-.54-4.33-1.19-1.9-1.17-.92-3.45-3.64-2.8.27,1.95-.48,4.58-.02,6.34.23.87,1.79.59,1.89.74,1.5,2.09-4.68,4.42-6.87,3.9,5-5.58,2.65-16.15,4.83-23.55l4.66-16.4c-2.21,2.96-5.69,4.99-8.19,7.36-13.6,12.86-30.34,24.36-44.2,37.14-7.98,7.36-14.99,15.58-22.98,22.97-6.63,6.13-16.83,9.9-17.04,20.45l12.49-9.98c2.03,2.17-1.27,2.06-2.57,3.41-2.77,2.88-5.76,5.66-8.46,8.51-2.41,2.55-3.23,7.69-7.46,7.05,4.33-10.62,5.44-22.3,17.02-27.41,7.37-10.49,22.2-19.39,29.59-28.88,2.14-2.75,1.92-10.13,3.49-11.49.6-.52,4.37,0,6.12-.39,1.23-.28,12.09-7.88,14.41-9.47,18.45-12.71,32.78-29.16,48.6-43.45,3.13-2.83,5.38-6.54,9.15-8.79,1.92,1.94-1.63,2.51-2.21,3.28ZM787.09,487.42c-3.1.13-7.07-3.24-9.99,1.5,17,6.23,4.89,4.8,4,9.01-1.06,4.99,7.11.17,8.36.39.7.12,1.81,4.73,5.62,3.08v-5.98c3.21-.73,1.18,1.83,2.62,3.07,1.52,1.31,4.49,1.72,6.37.92,1.25-4.21-6.06-8.72-6.04-10.49.01-1.53,4.86-5.66,3.82-9.25-.05-.16-2.23-2.26-2.4-2.26-3.98-.18-3.37,4.59-4.96,4.96-.26.06-3.28-.82-3.4-.94-1.65-1.73,5.28-3.07,5-5.47,8.63-2.77,9.32,4.67,5.94,10.73-.59,1.06-1.87.68-1.93.76-1.61,2.52,1.95,1.56,2.74,2.21.16.13,2.07,3.37,2.14,3.57,1.02,2.84,2.77,8.41-1.44,9.18-1.25.23-8.19-2.42-7.45,1.49.33,1.75,2.53.84,3.46.85,8.17.14,16.38-.02,24.5.66l-1-4.99c-.95-.67-9.04,7.01-10.5-1.97-.64-3.93.77-4.55,2.4-6.91.14-.2.74-4.28,3.12-2.11,1.79,1.64-5.89,6.88-2.05,9.54,4.25,2.94,8.37-4.11,8.05-4.53-.08-.11-1.67-.06-2.46-1.04s-4-4.98-4.38-5.59c-4.71-7.51-4.93-14.09,5.83-10.38-.03-5.54-5.71-8.78-10.55-9.86-15.71-3.51-41.64-2.63-57.79-.05-4.76.76-13.69,4.06-14.58,9.41-.4,2.46,3.35.1,5.69,1.81,5.93,4.33-1.7,8.63-1.71,9.18-.03,1.8,2.26,3.22,3.01,2.49.23-.22.77-5.74,1.03-6,.24-.23,5.35,1.56,5.95-1.57.1-.52-3.73-6.36-.34-8.49,5.33-3.34,6.85,2.43,8.81,2.7,1.82.26,4.65-1.99,7.75-1.41,5.93,1.11,4.72,10.48-.22,11.8,3.9,5.39,6.09-2.18,7.2-2.8,1.5-.83,4.48.6,5.76-1.71-2.25-2.7-3.9-5.22-1.44-8.47,1.67-2.2,2.42.14,4.18.62,1.42.39,2.56-1.34,4.26,2.87,1.79,4.44-6.39-3.6-6.99,0-.08.51,3.4,7.18,4,9.47,1.83-.08,2.95-1.82,4.55-1.99,8.66-.93,3.78,12.87-2.96,7.92-2.69-1.97-1.05-3.92-1.59-5.92ZM760.98,483.29c3.31-2.12-2.05-7.43-4.85-7.86-2.35,3.19.98,10.33,4.85,7.86ZM772.03,478.5c-12.4-1.89-3.28,12.18-10.64,14.71-5.5,1.89-3.02-4.87-5.96-6.89-2.05-1.41-4.17.84-6.28,1.16-.11,4.99,4.12,4.21,7.96,4.94-1.82,3.15-6.02,4.6-4.99,8.98,4.12,1.33,7.99-4.86,8.5-4.99,2.82-.74,1.71,6.6,6.88,4.9,2.67-1.38,1.54-3.81.61-5.9,17.74,3.35-.65-6.27-.81-7.48,1.89-4.19,7.29-2.67,4.74-9.43ZM744.81,485.12c.55-.64.9-1.37,1.03-2.2-4.77-6.97-10.12-1.73-8.7,5.5,1.26,1.25,6.6-2.07,7.67-3.3ZM744.59,492.97c-5.26-6.22-6.02,1.45-5.38,2.35,1,1.4,11.25,4.6,5.38-2.35ZM781.1,492.42c-6.61-1.26-2.64,2.58-4.42,5.06-1.01,1.42-4.8-.26-6.05,3.93-1.34,4.5,9.15,2.45,9.46,1.97,1.46-2.22-1.76-3.26-1.82-3.47-.53-1.68,3.04-5.22,2.83-7.49ZM738.84,496.72c-5.52-5.95-4.39,6.41,2.3,6.67.29-.21-1.95-6.29-2.3-6.67ZM838.05,517.38c-.31-1.9-2.12-1.62-3.38-2.1-4.3-1.64-31.02-3.29-36.03-2.93-.63.04-.49,1.97-.98,1.96-12.27-.22-21.8.18-34.08,1.08-3.35.25-11.57-1.89-13.46,2.5,19.12-1.75,38.32-.15,57.41-2.38l30.51,1.88ZM852.03,524.39c-.05-.09-1.23.79-1.97.35-1.6-.93-2.68-2.88-4.71-3.17-29.14-4.14-57.98-2.54-87.05-.74-9.75.6-19.89,0-29.18,2.01-2.61.57-12.64,2.94-12.7,6.04-.01.67,2.58,2.66,1.76,4.51-4.81-.07-9.34,1.3-8.99,7,13.87-2.36,27.63-5.94,41.59-7.85,32.83-4.48,65.23-3.36,97.77,1.37,2.01.29,10.85,3.78,12.49,2.48l-3.71-6c-11.6-1.25-23.09-4.21-34.77-4.96s-20.81.02-31.31.4c-13.81.5-28.96-.43-42.41,1.02-9.96,1.07-19.82,3.79-29.65,5.55.11-.81-.21-2.78-.01-2.99,1.24-1.33,32.15-5.17,35.85-5.38,6.28-.35,13.23.63,19.54.4,7.14-.26,22.62-3.09,29.08-1.85.82.16.06,2.15.95,1.81,3-1.14,3.96-1.78,7.92-1.8,12.36-.06,26.95,2.21,39.03,4.82.9-.04.63-2.8.51-3.01ZM747.13,537.36c1.84.45,3.51.93,5.44,1.06,14.13.92,52.73,2.09,64.93-1.11,1.73-.45,2.47-1.06,3.54-2.44-2.36-3.63-5.39-.89-6.46-.93-20.66-.79-29.03-2.38-51.02.86-4.99.74-8.49,1.7-12.98,2.57-.27.05-.76-4.81-3.45-.02ZM840.92,537.24c-.19.15-3.22-1.69-4.46-1.85-4.32-.55-4.5,1.41-7.38,2.51-3.72,1.42-7.51.16-8.02,6.46,1.11,1,26.95-1.82,29.81-2.65,1.12-.33,5.59-2.44,3.16-3.86-.55-.32-11.81-2.59-12.44-2.53-.67.06-.48,1.76-.68,1.92ZM746.12,536.37c-.45-.48-12.45,2.1-12.99,2.48-1.01.71-1.29,3.2-1.93,4.41,3.86,2.97,8.66.88,12.43,1.11,16.32.99,33.75,2.27,50.01,2.03,3.7-.05,20.87-.69,22.78-1.37,1.61-.58,2.47-2.08,3.65-3.18-4.25-3.3-8.91-.99-12.64-.89-12.61.32-26.15.59-37.83.37-3.17-.06-21.16-.46-22.53-1.41-1.17-.81-.73-3.33-.94-3.56ZM729.14,539.38c-1,.5-16.26,1.21-12.98,3.98,5.67-.32,13.38,4.66,12.98-3.98ZM815.8,553.12c.86-1.43.59-6.18-1.31-6.64-.85-.2-7.04,1.38-9.09,1.47-16.7.8-33.45-.73-50.39-1.04-2.65-.05-21.18-.41-21.86.45,1.36,1.4,2.69,6.35,3.66,7.06s9.29,3.69,11.33,4.44c1.18.44,2.58-.55,3.93,0,3.79,1.52,15.35,8.9,17.67,11.85.48.61,2.72,4.54,3.11,5.4,1.29,2.83,3.17,13.06,3.83,13.27,4.6,1.45,4.32-1.91,6.01-2.95,3.24-2,8.15-3.8,11.33-5.67,2.21-1.29,16.75-17.32,17.53-19.35.43-1.12-.77-2.38-.23-3.77.14-.36,4.33-4.23,4.49-4.51ZM734.14,608.31c-12.37-2.42-12.33,10.01-1.88,2.58,1.17-.84,2.46-.02,1.88-2.58Z"></path>
      <path d="M914.97,555.34c-7.05.8-15.87,3.11-20.34,9.09-.96,1.28-.95,3.1-1.77,4.27s-5.95,5.55-4.85,6.63l43.97-13.47c1.73-1.34.42-1.45-.66-2.37-3.09-2.65-10.27-4.03-14.35-4.14-.06-1.8-.51-2.1,1.48-2,2.8.15,21.11,5.16,21.49,6.51.95,3.06-2.26,2.83-2.84,3.69-.36.53.67,2.12.1,3.48-1.27,3.02-7.25,10.33-4.23,12.76,1.36,1.1,11.91,3.63,7.01,7.05-3.69,2.58-7.48-2.4-10.12-3.92-7.08-4.08-13.34-8.01-22.35-8.63-5.61-.38-11,.53-16.52,1.04,5.03,12.33,21.29,11.29,31.97,8-6.01,5.95-18.45,4.96-25.88,1.39-6.55-3.14-8.12-9.54-16.41-6.22-1.97.79-3.3,8.1-4.48,10.5-1.62,3.31-4.39,5.96-5.85,9.33-1.5.39-3.13.39-4.57,1.04-3.54,1.6-8.57,4.23-13.33,4.84-3.26.41-12.87-1.33-13.37-.88-.22.2-.14,2.73-.73,3.72-.71,1.2-1.84,1.28-2.27,2-1.89,3.15-3.14,9.99-7.87,7.09-3.66-2.24,3.04-9.51,4.79-11.42,1.21-1.32,3.87-1.09,3.04-2.9-.58-1.27-2.9-1.15-3.65-1.84-1.63-1.51-4.26-6.31-6.31-7.22-.4-.17-7.68,3.02-6-2.91.55-1.94,5.31-1.44,6.75-2.78.82-.76,1.61-4.08,2.8-5.69,7.48-10.07,22.37-15.43,34.67-12.82,3.55.76,10.68,6.02,13.15,5.79,2.55-2.36,7.01-1.43,9.15-2.94,1.26-.89,4.26-7.23,6.51-9.47,1.73-1.71,7.26-5.58,9.48-6.5,2.88-1.19,10.71-3.83,12.39-.11ZM931.77,566.57c-2.11.05-19.75,4.1-19.77,5.27l16.32,5.33c2.78-2.2,10.16-10.75,3.45-10.6ZM868.33,579.75c2.53-1.04,5.65-.58,7.66-2.92-7.15-2.84-14.51-6.99-22.31-6.14-5.96.65-8.22,3.29-12.73,5.03-2.86,1.11-4.93-.44-2.89,2.6-3.68-.95-4.18,4.46-6.15,7.4-1.18,1.76-3.52.88-2.85,3.59,9.95-2.15,19.69-6.05,29.73-7.82,4.91-.87,3.66.67,9.54-1.74ZM873.6,587.92c.56-1.1,4.13-8.71.92-8.57-.35.01-1.53,1.95-2.57,2.41-8.27,3.69-21.61,6.79-27.34,14.62-6.04,8.26,1.38,4.26,6.8,5.62,9.15-2.03,17.68-5.2,22.19-14.07ZM856.03,586.31c-4.17-5.41-5.68-.27-7.64.82-3.58,2.01-11.91,1.78-15.63,3.39-4.39,1.9.29,3.16,1.36,4.5.62.77.55,2.79,1.05,3.15,4.53,3.29,14.78-12.7,20.86-11.87Z"></path>
      <path d="M340.5,367.54l-11.87,3.38c-57.05,3.63-104.97,34.84-156.97,53.05-27.82,9.74-59.45,13.92-85.8,29.1-14.69,8.46-33.17,29.94-45.15,42.53-8.71,9.15-20.37,19.53-26.8,30.34-.82,1.38-1.61,2.61-3.1,1.42,4.86-11.61,15.32-19.29,23.59-28.34s14.37-16.33,22.85-24.62c9.43-9.22,20.97-21.03,32.74-27.23,28.69-15.11,60.76-20.69,90.66-32.19,46.37-17.84,89.15-40.02,139.6-46.23l20.23-1.22Z"></path>
      <path d="M537.32,480.43c.94,2.67-1.59,1.74-1.82,2.11-.33.54,1.13,1.88.71,2.69-1,1.96-12.84,10.68-14.94,12.59-30.35,27.45-64.29,50.63-92.24,81.62-5.86,6.5-15.98,23.42-22.67,27.3-1.03.6-2.39-.34-3.45.47-.85.65-3.76,6.73-5.45,5.09-.91-.88,14.55-18.07,14.97-20.48-.13-.95-2.27-.63-2.81-.27-1.12.74-5.47,9.1-7.2,11.24-2.34,2.91-17.65,17.55-17.97,19.02-.17.78,2.32.09,2.01.98-.37,1.06-5.17,4.31-5.99,3.5l2.3-6.69,18.67-17.79-1.99-1.48,38.46-40.97c1.56,4.72-6.21,8.03-7.49,11.5-.62,1.68.67,1.98,2.02,1.01,1.87-1.35,4.41-6.19,6.32-8.17.94-.98,2.53-1.6,3.72-2.79,25.48-25.69,51.34-51.13,77.85-76.95l16.98-3.53ZM528.33,485.43c-1.83.05-3.7.47-5.43,1.06-5.49,1.89-8.48,9.76-14.45,12.52l-15.07,16.39c4.6-3.82,11.41-7.15,15.89-10.58,4.18-3.2,8.7-10.59,12.64-14.33,1.44-1.37,5.43-2.62,6.43-5.05Z"></path>
      <path d="M399.09,424.83c2.74,4.11,5.42,9.23,8.53,13,9.73,11.81,31.09,19.84,45.58,24.31,2.22.68,5.45-.38,6.19,2.29-7.87.55-14.64-3.84-21.95-5.56-1.45-.34-3.4.81-3.87.48-.4-.28-.55-2.18-1.56-2.97-1.35-1.06-3.65-.94-5.18-1.89-5.34-3.31-21.4-12.71-24.19-17.19-.14-.22.79-1.9.1-3.53-.17-.4-4.31-6.76-4.61-7.09-4.08-4.5-9.65-6.27-15.71-5.77-4,.32-15.67,4.33-20.12,5.87-2.72.94-21.03,7.8-21.8,8.69s-.31,2.16,1.44,1.95c4.3-.51,7.79-3.38,11.34-4.66,8.75-3.17,21.32-7.81,30.12-9.84,1.02-.23,4.19-1.43,4.04.54l-58.93,22.6c-1.21,1.02-4.43-1.5-3.52-2.62.85-1.06,3.32-.22,2.51-2.98l-3.99.99c-3.1-2.62,14.93-6.83,16.16-7.31,15.66-6.12,31.34-14.11,48.24-16.16,1.05-.13,2.37.69,3.54.49-4.08-3.54-4.72-19.63-8.7-20.81-1.17-.35-10.85,2.45-11.28,2.85-3.73,3.51,6.75-.01,5.99,1.98l-42.53,14.92-13.95,3.18-4.45-3.09,42.91-14.54c7.87-3.45,15.11-6.17,23.58-7.39,1.62-2.27-5.11-33.17-5.55-38.54-.09-1.09-.73-3.73.98-3.47,1.73,4.16,1.52,8.92,2.43,13.03,5.07,22.86,4.74,38.06,18.2,58.25ZM366.48,402.51c-5.73,2.3-12.17,3.41-17.89,5.62-1.44.55-3.74,1.28-3.08,3.36,6.61-3.74,15.48-3.46,20.97-8.98Z"></path>
      <path d="M918.96,593.32c1.02,1.39-7.98,13.7-9.57,15.9-12.47,17.27-27.06,32.85-38.36,50.34-21.85,33.78-37.46,57.83-64.97,88.14-2.09,2.3-11.29,10.07-11.77,10.74-.44.62.06,2.26-.31,2.58-.47.42-5.22-.04-6.34,4.18l-14.53,12.94c-1.83-1.89,28.37-28.78,30.63-31.29,11.87-13.18,24.66-29.98,35.26-44.18,18.24-24.43,32.82-50.73,51.37-73.97,6.89-8.63,12.63-16.48,19-25.49,1.07-1.51,5.29-9.39,5.76-9.69.16-.1,2.73.81,3.83-.2Z"></path>
      <path d="M429.42,616.31c-2.35,7.86.42,18.06,4.33,25.13,24.72,44.7,69.38,49.58,115.76,44.49,11.24-1.23,22.48-3.6,33.76-4.19-5.58,2.76-12.51,3.4-18.62,4.36-24.18,3.78-67.4,6.52-90.07-2.54-1.38-.55-1.29-3.66-5.21-2.31-.11.07,1.03,1.61.88,1.85-.38.59-9.56,5.95-11.74,7.81-2.53,2.16-7.71,7.23-9.76,9.65-.7.82-4.44,9.49-6.35,7.65,3.38-6.26,7.93-11.5,12.98-16.48l-1.99-1.48c2.8.74,2.73-1.25,3.75-1.96,2.4-1.69,7.14-3.96,9.18-5.59,4.44-3.55-2.86-4.33-4.48-5.4-16.27-10.76-37.64-38.25-34.4-58.46.29-1.83-1.03-2.99,1.97-2.52Z"></path>
      <path d="M428.03,654.9c-1.82,2.55-3.7,5.33-5.58,7.87-2.17,2.93-10.89,8.14-2.02,7.97-4.57,5.41-9.38,10.62-13.93,16.04-1.45,1.73-4.42,7.65-6.04,6.44l-.49-2.98c-5.06,7.14-12.78,11.98-19.38,17.59s-12.66,14.23-22.09,16.36c-.17-.14,1.83-3.1,2.35-3.63,8.04-8.42,16.95-15.64,25.97-22.49,1.79-1.36,7.4-4.96,6.13-6.86l-3.47.52c1.28-1.99,5.81-3.43,6.98-4.51,1.24-1.15-2.87-.36-1.98-2.47,2.82-3.52,7.64-6.1,9-10.5,1.5.95,1.41,3.43,3.71.65,3.63-4.39,8.32-8.85,12.2-13.43,1.67-1.98,7.43-12.06,9.55-12.18,2.8-.16-.46,4.99-.9,5.61Z"></path>
      <path d="M742.13,642.27c-.44,5.23,4.79,7.57,7.64,11.85,1.39,2.08,5.81,10.88,6.13,12.89.29,1.79-.87,3.24-.78,4.73.26,4.25,2.45,7.67-.96,12.02-3.15,4.01-16.78,13.34-21.69,16.28-20.07,12.04-40.35,23.81-60.47,35.22-2.25,1.28-4.35,5.09-8.78,3.91-.53-2.49.57-1.76,1.86-2.59,8.38-5.32,16.47-10.89,24.78-16.22,13.16-8.44,26.65-13.04,39.21-20.73,4.75-2.91,25.03-17.5,25.76-22.04s-6.22-20.25-9.35-24.22c-2.19-2.78-11.17-11.22-13.33-5.6-.14.37,2.06,1.04,2.86,2.1,1.53,2.03,3.99,5.65,5.17,7.84,1.5,2.78,1.98,8.99,4.94,9.55-1.53,3.46-5.49-2.55-6.39-4.11-4.79-8.34-5.16-18.6-18.58-16.9,2.1-4.1,6.94-2.61,10.46-3.05,1.32-.17,2.2-1.49,3.6-1.46,3.55.08,4.9,3.91,7.9.53Z"></path>
      <path d="M719.73,569.91c-7.08,8.24-15.07,15.64-22.21,23.76-1.54,1.75-5.37,5.65-3.85,7.64,8.46-11.02,19.73-19.6,27.5-30.97,3.61.82-.54,4.39-2.08,6.19-12.94,15.19-27.3,29.61-40.41,44.75-4.54,5.25-12.57,17.61-17.45,21.51-3.64,2.91.31-2.12-2.51-1.51-1.14,2.08-5.53,4.95-1.51,5.49l-4.98,1.5c-.72-.85,5.77-9.99,6.72-11.75.63-1.18,1.09-4.11,1.27-4.24s2.29,1.62,3.97.57c2.74-1.71,3.8-7.29,4.97-9.06,2.3-3.48,8.48-7.87,11.54-11.47,15.15-17.76,28.44-35.25,44.48-52.49.78-.83.88-2.39.99-2.47.79-.57,2.96.93,2.96,1.49,0,.73-8.09,9.54-9.4,11.06Z"></path>
      <path d="M543.7,539.04c4.82,3.34,8.26,5.42,11.15,11.29.16.33,2.44,6.12,2.54,6.47,1.9,6.82,1.39,17.13-3,22.88-.38.49-9.15,6.54-10.17,7.05-9.04,4.47-17.04,3.7-26.05-.47-1.21-.56-1.18-1.95-1.88-2.36-1.19-.7-2.85-.31-3.64-.88-3.74-2.7-10.93-13.26-11.75-17.72-.22-1.23,1.09-1.9,1.01-2.45-.71-4.98-2.67-12.55-.03-17.48,2.06-3.85,9.88-5.65,13.46-2.5-12.63.87-13.11,4.33-12.4,15.64.48,7.54,1.69,11.43,6.44,17.3,6.04,7.47,17.65,13.42,27.2,11.26,16.98-3.84,20.23-22.12,15.21-36.71-1.85-5.36-13.76-14.33-19.73-13.77-3.57.33-8.56,4.73-12.71,3.29,6.89-4.07,14.14-7.97,21.73-3.74,1.56.87,1.75,2.3,2.62,2.9Z"></path>
      <path d="M612.57,831.78c1.1.98,3.23.97,3.55,1.48.56.86-.29,3.03.24,3.71.41.52,4.26.46,4.76,1.29s-.35,2.97.3,3.7c.31.35,7.08,4.09,7.95,4.5,8.82,4.1,28.57,2.23,34.63,13.33.54.98,4.31,9.21,4.18,9.72-.26.97-1.83,1.86-2.97,1.56-1.07-12.99-14.61-12.11-23.66-15.8-14.29-5.83-30.27-16.34-36.3-30.42-3.68-1.43-6.95-14.91-7.99-15.72-2.06-1.59-4.69,6.55-6.97,6.99-2.63-5.4,2.76-6.71,3.04-12.53.22-4.58-4.87-11.99-.06-15.44.02,2.41-.19,4.83.27,7.23,1.49,7.86,13.32,31.34,19.03,36.4Z"></path>
      <path d="M350.64,590.18c3.36,2.89,9.83-1.88,9.84,3.14-1.75,1.21-12.37-.62-12.85-1.12-1.77-1.84.48-6.81.56-8.48,1.02-22.62,1.87-39.02,5.19-61.95,1.65-11.39.38-22.02,5.94-33.02,1.11-2.19,2.94-5.11,5.16-6.32.06,3.41-3.4,5.11-4.51,7.97-1.68,4.34-2.37,15.32-3.04,20.7-2.63,21.25-4.97,43.56-6.34,64.83-.27,4.12.58,9.88.05,14.25Z"></path>
      <path d="M736.14,748.19c-11.53,9.19-19.67,20.7-29.39,31.54-6.4,7.13-12.73,12.06-19,20.47-1.82,2.45-8.79,15.39-11.04,14.92-3.44-.73.57-6.77,1.52-8.22,9.21-13.98,26.45-33.21,37.58-46.6,1.87-2.25,4.88-4.76,6.84-7.11l-2.01,6.98c4.97-4.05,8.62-11.24,15.49-11.97Z"></path>
      <path d="M622.95,558.66c5.13,3.28,19.87,18.53,23.68,23.77,5.81,8,7.51,19.32,6.51,29.21-.54,5.39-3.77,10.14-3.92,15.65-1.73.26-1.04-2.34-.89-3.38.68-4.57,2.47-9.02,2.51-13.93.08-9.65-1.41-20.62-7.6-28.14-12.93-15.71-27.54-24.51-46.92-30.01-7.25-2.05-15.78-2.72-23.01-5.47l9.46.04c9.68,1.35,32.34,7.24,40.19,12.27Z"></path>
      <path d="M397.46,589.32c.09-6.52,2.04-13.59,2.71-19.74.92-8.49.77-17.57,1.78-26.23,1.22-10.51,8.22-41.11,5.23-49.18-.77-2.08-4.36-3.84-2.24-6.75,3.81,5.44,6.18,9.64,6.03,16.27-.42,18.8-5.37,46.97-8.07,65.81-.87,6.09-1.38,15.68-5.44,19.82Z"></path>
      <path d="M662.21,809.12c-4.29-.2-7.78-5.67-11.5-7.99l-.99,3.98c-5.9-6.53-2.58-9.04,4.23-4.33,3.5,2.42,6.07,4.81,8.25,8.33,7.24,4.57,11.69,11.69,15.26,19.98.67,1.54.84,6.49,1.03,6.78,3.17,4.93,10.06,7.22,12.89,14.48,4.42,11.35,1.31,15.29-5.85,23.05-.62.67-.38,2.41-1.34,3.12-1.33,1-12.4,3.98-14.5,3.98-9.83,0-17.63-6.97-22.47-14.95,1.12-1.68,2.21.37,2.96,1.08,2.85,2.69,4.89,6.17,8.68,8.25,17.33,9.53,39.2-6.63,29.16-25.16-2.23-4.12-6.65-6.78-8.85-10.64-1.62.78-1.28,4.66-1.84,6.63-.38,1.35-.39,3.05-2.15,3.35v-20.48c0-4.49-10.26-15.09-12.99-19.48Z"></path>
      <path d="M580.29,500.41c.39-1.29,1.4-2.38.99-4.01l-1.98-.47c1.66-1.38,3.52-5.89,5.6-6.27.97-.18,2.44.71,3.76.66,1.22-.05,3.96-1.41,4.56-.86.32.29,2.95,7.36,1.03,8.23l-44.94,33.68c-.74-.74,9.94-16.39,13.98-13.99l-1.99-1.48c.14-.33,4.61-4.84,4.94-4.96,1.14-.41,2.38.56,3.51.42,2.51-.3,8.25-8.48,10.54-10.95-.91,3.02-.85,4.3-3.99,6.5-.16.75,1.02.67,1.48.48.79-.32,12.88-9.77,13.48-10.5,3.13-3.76.1-6.39-4.19-4.39-.93.44-.83,1.91-1.42,1.97-1.22.12-3.07-1.33-3.36-1.06-1.95,1.83,2.2,2.06,1.99,2.48-1.68.74-1.61,3.71-2.2,4.34-.5.53-1.68.04-1.8.17Z"></path>
      <path d="M910.97,613.31c1.89,1.49-1.8,2.22-2.08,2.67-7.6,12.2-15.02,26.36-23.51,39.17-1.04,1.57-6.4,6.78-5.37,8.11,1.84-.72,3.2-3.68,2.98-.51-6.14,6.92-10.86,15.07-16.98,21.98-1.61,1.82-4.81,3.91-6.64,5.9-.68.74-.31,3.4-3.33,3.6l17.16-26.29c5.13-4.98,7.9-12.11,11.41-17.56,5.66-8.78,16.41-29.09,22.51-35.44.93-.97,2.46-2.73,3.85-1.63Z"></path>
      <path d="M835.05,620.3c-.49,1.53-2.22,2.02-2.77,3.71-6,18.25-29.27,48.44-42.51,63.88-3.11,3.63-8.38,7.45-11.65,11.32.39-1.95,2.03-4.76,3.15-6.37,14.56-20.97,36.25-41.2,47.22-64.63,1.86-3.97-.5-7.88,6.57-7.91Z"></path>
      <path d="M652.21,489.42c2.32,2.69-4.39,6.55-6.01,8.47-6.54,7.71-10.41,17.34-16.53,25.43-3.12,4.13-7.14,7.57-10.41,11.58-3.63,4.46-5.74,10.41-11,13.47,7.59-16.56,20.57-29.94,29.96-45.46l-2.98-1.48c2.62-.3,15.38-13.84,16.97-12Z"></path>
      <path d="M478.13,601.13c-.11.24-3.02.48-1.74,4.18l3-2.99c6.01.74-.57,4.86-.78,5.16-.13.18.6,2.69-.02,4.44-2.97,8.37-9.46,12.43-15.21,18.88-10.05,2.52-7.6-6.04-8.96-12.49,4.58,2.13-.37,12.59,7.23,10.78,3.01-.72,14.41-13.99,14.74-17.35.28-2.87-2.78-5.5-3.04-8.38l-9.94,3.95,2.67-3.01c9.41-2.28-4.36-7.96-7.19-2.99-1.1,1.94-.89,9.26-1.49,12-3.33-1.11-1.84-9.61-.75-12.25s4.35-2.96,4.69-4.34c.39-1.59-2.47-3.43-1.93-5.39,3.69-1.05,16.46,1.55,17.76,4.7.23.57,1.07,4.86.97,5.1ZM469.68,598.99c1.72.94,3.55,1.26,5.21,2.29,2.18-.83.53-4.81-.49-5.49-.52-.35-11.58-3.92-12.01-3.47-.39.41-.16,2.77.98,3.51,1.2.78,3.39.17,5.01,1.03.69.37.89,1.91,1.29,2.13Z"></path>
      <path d="M516.35,599.31c1.83.56,2.37-1.52,3.62-1.74.39-.07,7.29,0,7.7.05,9.4,1.24,14.42,17.23,14.15,25.2-.4,11.61-12.62,3.78-18.91,2.31-2.49-.58-11.07-.36-12.56-1.85-3.35-3.37,6.37-.71,7.14-.64,6.84.62,12.95.95,19.3,4.65,4.3-5.63.71-20.29-4.39-24.55s-4.75,5.23-12.05,3.56c-.77-4.83,6.99.22,4.98-4.48-1.48-3.46-7.74.69-9.74-1.76-1.59-1.95-.42-8.77-2.74-9.74l-3.48,6.99c.33-5.21-.66-8.4,4.49-10.97,3.74,3.31,2.26,8.58,2.5,12.96Z"></path>
      <path d="M714.16,647.28l-16.25,12.25c-14.03,6.42-26.77,16.23-39.52,23.65-2.81,1.63-6.88,3.79-10.16,4.04l7.64-6.82c15.6-9.94,31.54-20.64,49.24-29.69,2.62-1.34,6.13-3.03,9.05-3.43Z"></path>
      <path d="M646.22,618.8c-.06.41-.98,2.86-1.99,2.49,1.36-10.06.2-20.59-3.23-30.24-1.99-5.6-4.73-8.17-9.29-11.7-14.66-11.37-33.17-19.45-51.54-21.6l-15.89-5.88,3.02-.82c7.49,2.29,15.06,4.8,22.63,6.92,2.19.61,5.52-.07,8.36.86,9.69,3.16,35.91,17.15,41.8,25.11,2.04,2.75,6.12,15.58,6.12,18.88,0,4.8.62,11.54,0,15.99Z"></path>
      <path d="M691.91,897.85c-.66,1.64-10.46,8.08-12.78,9.47-.98.59-2.09,1.67-2.93.22,1.77-4.11,8.79-6.56,11.04-9.94,2.02-3.04,4.49-10.15,6.48-13.52.78-1.32,3.05-3.88,4.61-6.34,4.79-7.55,8.8-14.84,15.82-20.66.33,1.9-.14,2.92-.96,4.52-6.38,12.38-13.87,22.2-21.51,33.51-.58.86.43,2.22.23,2.73Z"></path>
      <path d="M405.45,479.42c-3.91-.98-7.16-3.29-11.22-4.23-1.91-.44-9.41-1.66-11.2-1.8-5.08-.4-8.86,1.61-13.53,1.05-1.21,2.08,3.22,3.34,4.47,3.97,3.91,1.99,22.6,4.45,26.77,3.8,1.75-.27,2.77-2.13,4.71-1.78-.75,5.85-1.99,6.26-7.51,6.03-4.36-.18-19.67-2.88-23.88-4.11-3.62-1.05-10.22-4.18-6.31-8.67,3.88-4.47,34.26-2.37,37.72,5.73Z"></path>
      <path d="M621.92,653.94c-6.32,5.34-16.12,11.97-24.39,15.07-10.6,3.98-22,5.83-33.23,7.22l11.25-4.31c22.09-2.59,41.96-15.53,57.14-30.65,1.75-1.74,5.16-8.43,6.55-10.98,1.75-.27,1.07,2.37.75,3.25-2.6,7.09-10.09,12.03-15.31,16.67-1.28,1.14-1.82,2.93-2.76,3.72Z"></path>
      <path d="M317.53,515.38c2.22.94,11.62-3.49,11.98-2.99.29.41.29,2.47-.57,3.09-.53.38-9.58,2.17-11.42,2.5-5.57,1.01-12.27,1.12-19.07,3.02-3.11.87-7.14,3.54-10.43,4.35-1.91.47-1.6-.28-.71-1.48l-3.74-.5,15.3-6.16c5.99-2.03,32.58-9.85,37.02-8.71,1.14.29,2.15,1.56.63,2.41-3.52,1.97-15.81-1.3-19,4.47Z"></path>
      <path d="M633.24,672.26c.5.46-4.47,5.85-5.05,6.48-9.26,10.06-18.37,17.43-25.6,29.24-1.24,2.03-8.17,10.5-10.32,11.73-3.4,1.94-5.5,1.12-9.7,5.78-2.26,2.51-4.17,7.9-7.27,10.22-.54,2.11,1.15.97,1.99,1.98l-11.48,14.49c-.74-.93-2.48-1.6-2.1-3.04.46-1.78,9.26-13.26,11.17-15.85,8.57-11.59,14.79-15.58,23.94-25.03,10.29-10.63,18.59-22.5,29.97-32.95.67-.61,3.59-3.83,4.45-3.03Z"></path>
      <path d="M438.99,604.92c-5.54,10.12-2.03,33.34,5.37,42.69.7.88,2.28.44,2.74.91.66.67.59,2.54,1.74,3.8,7.52,8.25,14.4,13.28,25.11,16.87,3.77,1.26,8.73,1.65,12.48,2.72,1.24.35,4.79.98,4.94,2.33-9.37-1.14-20.38-3.36-28.84-7.61-4.47-2.24-17.09-13.92-20.12-18.12-8.22-11.39-12.51-39.87-.48-50.19.75,1.98-1.96,4.84-2.92,6.6Z"></path>
      <path d="M296.14,588.74c10.19,5.35,22.44,10.93,31.15,18.51l16.21,10.03-57.94-29.98c-.36-2.59.3-2.06,2.39-1.89,3.69.3,5.35,1.83,8.19,3.32Z"></path>
      <path d="M696.17,863.07c1.81,14.03-11.85,24.65-23.45,29.58-3.44-2.42-7.45-.83-11.74-1.89-7.04-1.74-24.01-17.23-25.77-24.19-1.16-4.6,5.47,5.44,5.98,6.01,4.67,5.15,14.28,14.47,20.78,16.18,1.65.43,10.43,1.37,11.9,1.04,6.67-1.5,19.71-14.94,20.78-21.58.32-2.01-2.19-5.91,1.52-5.15Z"></path>
      <path d="M591.01,578.65c3.15,1.4,5.16,1.56,8.52,2.92,1.49.6,5.45,3.41,6.73,4.75l-17.57-5.9c-10.68-1.36-19.73-.97-26.79,7.97-1,1.26-.85,3.24-1.61,4.23-4.52,5.84-8.85,4.59-15.98,4.71-.38,1.82.49,1.97,1.73,2.75,5.96,3.76,13.98,4.95,14.24,14.22-2.47-1.86-2.51-6.09-5.44-8.04-1.65-1.1-11.9-5.19-12.42-6.1-.46-.81.53-4.38,1.03-4.7,1.83-1.16,8.54,1.08,12.39-1.09,4.07-2.3,4.54-10.83,12.74-14.23,4.58-1.9,18.05-3.42,22.41-1.48Z"></path>
      <path d="M369.49,676.24c1.28-6.3,6.13-11.84,7.35-18.12,2.37-12.12-6.65-2.61-9.4,2.6-1.84,3.5-3.17,11.73-4.2,13.28-.18.28-2.08.89-2.75,1.25-2.78-3.81,8.27-24.45,12.69-25.78,14.78-4.43,3.55,24.09-3.7,26.78Z"></path>
      <path d="M646.94,708.5c.71.79.6,2.84,2.22,4.35s2.87.32,3.99.89c4.2,2.12,10.93,20.44,8.45,24.48-2.96,4.83-8.06,5.04-10.38-.54,1.34-1.85,3.83,1.27,4.51,1.25,1.02-.03,3.32-2.96,3.5-4.29.68-4.93-5.5-15.37-7.03-20.42-1.87-.22-.77,2.02-.54,3.03.76,3.33,3.34,7.45,2.06,10.94-4.64-5.55-4.97-15.52-11.48-18.98-.94,1.08,12,22.42,6.49,26.97l-12.49-33.47c2.83-1.72,5.03,2.32,7.04,3.97,1.06.87,2.92.99,3.66,1.82Z"></path>
      <path d="M402.45,438.47c.54,2.86-.78,1.6-2.18,2.26-15.06,7.01-30.83,14.69-44.52,23.73-4.37,2.89-8.64,5.92-13.23,8.48l3.94-.06,39.54-18.41c2.87-.26.88,1.25-.16,1.84-14.07,7.91-30.8,12.88-44.84,21.1l-.47-2.98h-3.01s.62-2.07.62-2.07c5.77-2.06,10.65-5.82,15.73-9.07,8.31-5.33,13.37-8.05,22.27-12.7,8.54-4.47,16.62-11,26.33-12.12Z"></path>
      <path d="M518.33,555.36c2.97,7.85,5.22,20.88,15.99,19.97.44-.44-2.18-6.15-1.54-8.5.8-2.92,4.7-.39,3.57-9.01-.52-3.95-3.5-6.33-3-10.46,7.44,4.7,6.57,13.62,4.69,21.18-1.39,5.58-2.26,9.97-9.13,8.75-5.41-.96-11.54-14.29-11.93-19.16-.12-1.45-.7-2.25,1.37-2.77Z"></path>
      <path d="M583.57,625.66c-.31.23-.33,1.14-.31,1.62-1.47.32-1.1-1.96-2.44-3.11-1.7-1.46-6.27.99-5.53-2.87,5.45.87,10.79,2.62,16.33,1.04.55-.16,4.94-9.39,5.66-10.03,3.95-3.49-.44,7.34-2.01,7.49-.16.75.96.64,1.47.48,5.8-1.78,11.55-10.27,18.5-10.99-2.15-3.06-3.89-5.96-4.76-9.72-.23-1-1.13-4.42.75-4.24.81,2.39,1.3,5.84,2.58,7.92,1.36,2.21,4.3,3,4.95,4.04,2.75,4.37-4.97,4.42-7.42,5.62-5.35,2.62-11.59,9.67-17.84,11.13-3.32.78-7.01-.61-9.94,1.63Z"></path>
      <path d="M467.39,479.44c.78.6-12.34,12.79-13.6,13.91-8.89,7.96-18.5,17.73-27.04,25.12-1.1.95-4.81,1.65-6.31,2.92l6.93-8.55c6.83-6.54,13.85-12.96,21.55-19.46,4.53-3.82,10.27-9.52,15.33-12.83.5-.33,1.5-2.37,3.13-1.12Z"></path>
      <path d="M553.31,641.29c-.87,1.71-2.98,2.19-4.52,3.95-2.12,2.43-3.55,4.2-.56,6.61,1.63,1.31,3.9.79,4.07,2.41-6.63,1.05-8.7-7.03-15.99-3.98,1.2,1.39-.15,4.8.05,4.95.29.21,1.57-.21,2.07.16,2.2,1.63,3.27,2.08,5.89,3.38-8.27,5.67-.71,9.63,4.99,3.49-2.38,8.81-7.39,2.91-11.48,2.92-2.42,0-3.92,1.83-5.94,1.94-6.61.34-6.84-3.36-5.54-8.85,2,.11.4,3.21,1.47,5,2.05,3.43,13.36,1.68,12.44-3.91-12.54-3.92-3.83-17.34,5.05-10.09.04-4.26,3.58-7.76,8-7.98Z"></path>
      <path d="M318.12,768.75c-4.03,5.82-10.12,11.31-14.53,17.16-3.11,4.12-5.62,8.8-9.03,12.72,2.17,2.03,2.81-.69,3.38-1.07,9.16-6.11,18.28-23.47,27.54-31.95.85-.77,4.12-3.22,5.04-2.44-2.21,4.8-6.22,8.42-9.62,12.4-5.28,6.19-10.54,13.08-16.39,20.07-1.33,1.58-2.8,7.98-5.46,2.49-1.41,2.89-3.28,3.75-6.49,3.99-3.36-3.47,25.34-34.59,28.47-39.95,1.26,1.65-1.75,4.9-2.92,6.58Z"></path>
      <path d="M727.14,412.49c1.08,1.11-2.37,3.45-1.99,3.97.1.14,2.95.56,2.98,1.52.05,1.41-18.26,19.17-20,19.96-3.06,1.39-3.32.62-2.96-2.47,3.89,2.73,6.61-5.38,9.98-7.5-2.86-2.01-4.58,4.12-5.01,4.49-.61.54-2.67.2-1.97-1.48.49-1.17,13.35-14.14,15.57-16.4.61-.63,2.33-3.18,3.4-2.09Z"></path>
      <path d="M765.11,792.15l-38.96,52.94c-.75-2.66,2.36-3.58,2.9-4.79.99-2.22,1.17-6.68,3.03-8.75,1.29-1.44,4.24-2.03,6.57-4.42,7.36-7.55,13.86-22.14,21.04-30.91.73-.9,4.24-5.2,5.41-4.07Z"></path>
      <path d="M783.09,412.49c.53,2.54-2.09,2.2-2.99,3.77-3.8,6.61-2.64,2.87-7.49,7.23-2.42,2.18-3.37,5.84-4.87,7.62-4.36,5.18-13.08,15.2-18.12,19.34-1.13.93-1.61,2.43-3.49,1.99-.43-1.87,1.05-2.37,1.99-3.5,5.01-6,10.77-11.47,15.93-17.27,5.85-6.57,10.19-15.92,19.03-19.18Z"></path>
      <path d="M871.43,479.84c-6.37,6.16-12.05,13.08-17.05,20.42-2.18,3.2-5.5,14.41-10.34,8.16,3.81-.47,4.17-4.97,6.01-7.5,6.74-9.27,15-19.81,24.95-25.49.39,2.57-2.18,3.07-3.57,4.41Z"></path>
      <path d="M471.38,485.4c-15.13,8.54-24.27,24.63-36.06,36.38-3.26,3.24-9.44,8.74-13.88,9.58,1.21-3.56,5.62-4.71,7.6-6.38,15-12.57,24.49-31.25,41.86-41.56l.49,1.97Z"></path>
      <path d="M397.45,492.42c-.35,1.88-2.08,1.7-3.48,2.05-9.44,2.39-17.75-2.85-26.79-5.06-1.17,0-.81-2.89-.7-2.99,1.46-1.42,16.12,3.97,18.98,4.58,3.15.67,8.3-.26,11.99,1.42Z"></path>
      <path d="M378.47,638.27c-5.5-.52-10.16-4.91-14.94-7.53-5.9-3.23-13.05-5.28-17.03-11.44,8.29,3.68,19.25,7.71,26.46,12.99,1.7,1.24,5.37,3.73,5.5,5.98Z"></path>
      <path d="M597.26,860.08c-1.02,26.91-34.23,21.69-47.93,7.49,1.91-2.44,1.47-.97,2.97,0,10.35,6.76,16.61,11.92,30.2,9.17,8.79-1.77,10.73-6.08,12.75-14.24.41-1.68-.99-2.91,2.02-2.42Z"></path>
      <path d="M373.47,639.28c.4,3.06-3.28,3.76-4.65,5.32-1.91,2.18-6.45,8.49-7.56,10.94-1.58,3.51-.92,9.53-5.76,10.71.05-11.85,6.41-23.26,17.97-26.97Z"></path>
      <path d="M694.18,455.46l-.5,3.97c2.99-4.09,9.8-3.42,7.48,2.01l-2.47-2.98c-3.32,3.06-6.06,3.14-7.51,7.98,7.29-1.05-1.57,5.4.01,7,3.04-.22,4.56-3.71,7.98-2.99,2.52,14.14-.57,6.46-5.68,4.13-.4-.18-3.49,1.35-4.22-1.83-.45-1.94,1.51-2.92,1.57-3.83.07-.99-1.48-2.18-1.42-2.97.07-1.03,2.44-1.96,2.51-2.98.09-1.24-4.79-8.26,2.24-7.5Z"></path>
      <path d="M761.11,414.5c.1.11.36,2.1-.48,1.97-5.89-2.9-8.5-8.6-16.5-6.99.58-2.24,3.87-1.09,2.99-3.97-7.2-3.9-14.44-7.3-21.96-10.57-1.53-.66-2.48.19-2.01-2.43,11.08,2.9,19.41,8.33,28.6,14.85,1.23.87,3.23.84,4.4,1.67.84.59.2,2.26,1.34,3.51,1.23,1.35,3.48,1.82,3.62,1.97Z"></path>
      <path d="M319.53,507.39l14.97-3.54c2.4-.52,2.99,2.03,3.81-2.21-2.85-8.91-6.92-18.07-9.53-26.99-.33-1.11-2.36-6.05-.29-6.2l11.45,31.46c.48,2.8,1.46,4.65-2,5.46-5.87,1.38-12.41,1.75-18.43,2.03Z"></path>
      <path d="M632.89,785.49c1.79,1.7,6.02,6.77,7.62,8.92.63.84,2.69,2.85,1.22,3.71-6.97-6.13-11.06-14.04-19.6-18.36-11.33-5.73-26.41-5.08-23.87,11.37-3.82-1.85-1.33-6.08-1-8.99l-3.49,3.99c-1.3-3.06.91-6.68,4.49-4.99l-.99-2.98c5.05-.34,9.14-4.13,14.53-4.04,4.87.09,4.97,4.39,10.44-1.97.7,1.89-2.23,2.67-1.56,4,.45.9,10.18,7.41,12.21,9.33Z"></path>
      <path d="M309.54,418.47c-12.35-.4-25.83,1.24-37.21,6.26-6.12,2.7-11.51,8.1-17.73,10.73,10.68-11.92,32.63-19.06,48.42-19.01,2.22,0,5.6-.68,6.53,2.02Z"></path>
      <path d="M392.46,595.32c-8.68,1.27-17.88.06-26.46-1.58-.98-.19-2.78.08-2.51-1.41l25.51-.55c6.16,1.09,3.29,3.24,3.46,3.53.07.12,2.32-.7,2.04,1.49-.52,4.15-12.73,4.76-16.45,4.49-3.4-.24-11.76-1.37-15.01-2.04-1.77-.37-7.31-2.37-8.54-3.93,10.18,1.43,21.9,4.17,32.18,2.76,1.74-.24,5.15-.78,5.78-2.77Z"></path>
      <path d="M504.74,611.68c-4.74,6.08-3.97,6.45-12.82,7.68l-4.54,6.92c-.09-3.76-2.36-8.63,1.47-11.08,2.31-1.48,5.65.94,8.89-.03,2.08-.62.51-2.72.65-2.8.54-.32,2.57.12,3.92-.58,1.86-.97,3.67-4.15,5.54-5.47,1.77,2.48-2.22,4.22-3.11,5.37Z"></path>
      <path d="M429.42,462.43l-2.99,1,3.98.5c-1.46,1.9-3.06,3.97-3,6.5l-.98-1.99c-5.38-3.03-11.65,4.95-12.99,3.98.62-1.8.66-3.88,2.09-5.37,1.86-1.95,12.32-9.45,13.89-4.62Z"></path>
      <path d="M490.67,651.95c-4.05-3.28-4.5-11.76-4.29-16.66,2.43-.17,1.74-.29,1.98,1.49.41,3.04,1.05,14.35,5.46,14.5s5.04-5.4,6.89-8.15c2.33-3.45,5.2-6.49,7.63-9.84-.06,4.48-3.89,6.99-6.03,10.44-2.08,3.36-4.62,13.9-11.65,8.22Z"></path>
      <path d="M822.06,623.3c.24.26-2.14,6.37-2.36,6.75-5.24,9.17-12.14,20.1-18.15,29.22-.33.5-.87,3.89-2.47,1.98-.79-.95,10.8-18.87,11.62-21.84,3.81-4.15,4.83-9.26,8.19-13.79.9-1.22,1.01-2.8,3.16-2.32Z"></path>
      <path d="M641.85,727.56c.56.89,5.28,8.93,1.89,7.62-3.02-1.17-7.37-8.91-8.9-12.08-2.33-4.82-5.12-11.6-4.59-16.87l6.28,14.19c.9,2.65,4.26,5.46,5.33,7.15Z"></path>
      <path d="M794.09,413.5c-11.48,9.53-23.47,19.37-32.95,31.2-7.59,5.17,2.47-5.89,4.6-8.11,4.78-4.97,13.2-13.55,18.33-17.64,2.63-2.09,6.72-4.61,10.02-5.46Z"></path>
      <path d="M344.5,589.33c1.02,3.9-15.22,14.76-15.98,13.98l7-12.98c4.96-.28-.93,2.8.48,4.98,3.03-2.54,3.67-6.63,8.5-5.98Z"></path>
      <path d="M322.52,493.42c.47,2.83-.58,1.67-2.3,2.13-6.83,1.82-13.77,3.03-20.47,5.56-5.72,2.15-11.16,6.33-17.18,7.28-.54-2.88.78-1.61,2.2-2.24,12.17-5.3,24.36-11.11,37.75-12.74Z"></path>
      <path d="M678.19,429.48l-3.97,4.48c-.06.53,5.9,7.17,6.48,8.55.68,1.63-1.47,4.29,1.48,4.95l1-3.99c-.15,1.26,1.73,4.4-.52,4.97-5.56,1.4-3.72-3.51-4.96-5.99-.8-1.59-4.43-2.81-5.27-7.75-.76-4.5,1.47-6.22,5.76-5.22Z"></path>
      <path d="M744.25,456.27c.42.39,1.99-1.03,2.88-.81,2,1.77-14.62,13.01-15.76,14.19-.18.18.52,3.21-2.21,3.78-.16-1.56-1.12-1.91-.11-3.5,3.09-4.85,11.72-9.62,14.59-15.48.96-.16.23,1.47.61,1.82Z"></path>
      <path d="M764.11,716.22c.29,1.92-2.11.54-2.99,1.03-.12.06.79,1.44.23,2.62-1.36,2.84-6.08,8.99-8.28,11.53-10.5,12.11-5.21-3.61,2.05-4.21l-1.98-1.97c6.26-.35,5.02-11.71,10.98-8.99Z"></path>
      <path d="M634.23,430.48c-.78,2-3.59.9-5.46,3.01-1.47,1.65-1.45,4.43-2.49,6.26-.48.84-2.13,1.06-2.84,2.37-1.95,3.59-1.85,10.74-2.58,14.88-.2,1.13.09,2.21-1.6,2.45.62-5.09-.33-11.07,1.54-15.93.35-.9,6.82-11.2,7.38-11.61,2.16-1.57,3.42-1.76,6.05-1.43Z"></path>
      <path d="M823.06,268.63c-1.04,2.01-8.97,6.44-10.66,6.68-2.65.38-7.39-2.63-7.85-2.57-1.23.14-4.85,7.26-6.45,7.87-.49-1.77,4.88-10.05,5.56-10.04,1.63.02,3.51,2.19,6.87,2.1,4.55-.11,7.87-4.27,12.53-4.04Z"></path>
      <path d="M738.13,414.49l-9.35,10.67c-2.31-.39-9.06,8.71-10.62,7.29,1.84-3.29,4.66-6.14,7.37-8.66.57-.53,2.02-.04,2.71-.95.56-.74.28-2.54,1.17-3.18.61-.44,2.3.07,2.61-.28.96-1.08-1.62-5.5,6.11-4.9Z"></path>
      <path d="M393.28,739.93c.52-.25.69-3.98,5.17.76-4.53,1.29-11.63,1.46-16.26.44-.4-.09-1.11-2.42-4.25-1.89l-.46-4.06c2.31.72,4.39,3.29,6.69,3.79,1.04.23,8.7,1.15,9.11.95Z"></path>
      <path d="M517.34,607.31c.24,2.94-1.4,8.02-3.54,9.94-1.18,1.05-3.21,1.06-3.94,2.06-.88,1.21-.29,3.65-1.92,5.09-2.81,2.49-5.38-1.45-6.99-1.06-1.29.31-1.64,3.29-3.23,3.83-4.51,1.53-6.06-3.99-2.84-6.87,3.64-.12-1.26,4.56,1.99,5.98.4.17,2.25-5.88,3.99-5.88.57,0,4.18,4.1,6.45,2.84.42-3.22,2.83-5.45,2.06-8.94,1.62-.43.7,1.37,1.17,1.71,3.38,2.43,2.2-.91,2.52-1.68.66-1.59,1.36-3.26,2.06-4.83.62-1.4-.67-2.74,2.23-2.2Z"></path>
      <path d="M361.48,739.17v3.02c1.81-1.88,6.88-.54,6.98,1.49s-6.75.55-7.91,1.47c.05-5.21-7.21-5.07-9.06-9.95,4.08.07,6.07,6.39,9.99,3.97Z"></path>
      <path d="M638.06,697.4c-1.68-.99-4.06.94-5.82.82.65-4.5,4.46-5.76,8.26-3.76,2.12,1.12,3.96,5.02,1.22,5.75-3.18.84-2.98-2.41-3.66-2.81Z"></path>
      <path d="M617.23,822.12c.15.13.65,2.3,1.94,3.54,2.9,2.78,8.02,7.71,11.12,9.88,5.27,3.68,11.84,5.09,16.91,9.05-2.01,2.68-1.69.56-2.94-.04-7.68-3.65-15.81-7.17-21.68-12.79-.91-.87-7.11-7.66-7.32-8.16-.7-1.67,1.36-2.02,1.97-1.48Z"></path>
      <path d="M496.36,600.32c.25.41-.13,2.14,0,2.98-1.64.43-.46-1.72-1.63-2.01-4.07-1.02-10.79,1.99-8.88,6.06,1.04,2.21,4.31,1,4.52,2.94-7.99,3.15-8.62-6.81-4-9.49.98-.57,9.47-1.33,10-.48Z"></path>
      <path d="M671.2,832.1c.57.64-.82,13.65-1.24,15.73-.32,1.6-1.75,3.26-2.75,2.24-.48-.49,1.81-10.8,2.03-12.55.3-2.37-2.48-5.45,1.96-5.42Z"></path>
      <path d="M693.18,439.47l-.99,3.99h3.98c-3.6,1.55-7.45,4.99-4.99,8.98-6.57,1.12-.47-6.49-1.28-10.68l3.28-2.29Z"></path>
      <path d="M631.02,871.89c-.07.14-1.25.29-1.72.93-2.55,3.44-5.06,7.16-8.04,10.23.3-6.63,6.03-9.53,8-14.99,1.79.48,2.57,2.18,1.76,3.82Z"></path>
      <path d="M693.18,476.43c.24,1.25-.46,4.3.11,4.94.62.69,3.34-1.19,2.87,1.53-.3,1.78-2.62,2.59-2.7,2.77-.69,1.58.56,3.92-1.27,3.74-1.05-3.54-1.49-7.86-1.01-11.5.24-1.8-.36-1.63,1.99-1.47Z"></path>
      <path d="M417.01,531.95c-.26.37-1.14.58-1.55,1.17-1.81,2.65-3.17,8.57-8.02,8.24.91-1.37,11.18-14.9,11.98-13.98.25,1.92-1.44,3.16-2.42,4.57Z"></path>
      <path d="M553.61,662.94c-1.09-.9-3.51-4.63-.8-5.68.72-.28,1.71,11.2,10.48-1,.82,4.69-5.98,9.75-9.68,6.68Z"></path>
      <path d="M575.3,630.29c.53,4.87-6.72-2.31-5.73,4.3.24,1.56,4.98,6.89,1.74,8.68-2.16-6.57-7.68-15.89,3.99-12.98Z"></path>
      <path d="M752.13,387.51c.23,1.75-2.26.96-3.48,1-6.7.25-13.33.53-19.98,1.01-1.74-.86,2.8-2.01,2.98-2.01h20.48Z"></path>
      <path d="M533.32,563.35c-4.01-1.82-2.55.56-4.98,1.99l-2-7.99,4.98,4,2-4.99v7Z"></path>
      <path d="M649.39,845.77c1.91.87,7.33,1.61,9.99,2.65,1.5.58,5.49,1.39,4.82,3.66-4.1-1.2-8.01-2.99-11.99-4.5-1.83-.69-4.62,1.59-3.97-3.49,1.61-.45.72,1.48,1.16,1.68Z"></path>
      <path d="M513.34,604.31c-3.62-1.61-6.7-.48-10.11-.6-1-.03-4.14.11-3.86-1.38,3.77-.23,13.35-3.59,13.97,1.98Z"></path>
      <path d="M582.01,644.03c-.58,1.19-4.88,4.45-6.72,3.23.22-1.47,4.75-3.71,4.96-4.7.47-2.19-.24-4.97.04-7.27,2.36.74,2.5,7.14,1.72,8.75Z"></path>
      <path d="M840.04,434.47c.85.83-5.91,10.27-8.99,7.98.77-1.38,7.76-9.17,8.99-7.98Z"></path>
      <polygon points="800.08 235.66 787.1 240.15 782.1 240.64 795.04 236.11 800.08 235.66"></polygon>
      <path d="M557.29,646.27c.59.48,5.36.45,6.75.28,3.03-.36,1.39,2.49-2.05,2.38-1.18-.04-4.66-.77-5.25-1.6-.43-.6-1.45-6.02.55-6.05,1.01,1.21-.19,4.83,0,4.98Z"></path>
      <path d="M483.37,625.28c-3.42.73-1.42-2.3-2.01-4.31-.13-.46-3.82-2.54-1.97-6.67l3.78,5.7.2,5.28Z"></path>
      <path d="M563.31,639.28c1.82-4.57.39-6.19-2.01-9.98,5.32.78,7.26,7.55,2.01,9.98Z"></path>
      <path d="M698.19,489.42l2.48-9.99c3.29,3.43,1.44,8.18-2.48,9.99Z"></path>
    </g>
  </g>
</svg>